<svg xmlns="http://www.w3.org/2000/svg" viewBox="0 0 760 1110" font-family="sans-serif">
<rect width="760" height="1110" fill="#fff"/>
<text x="30" y="38" font-size="22" fill="#17324D" font-weight="700">CanObs · compass-star iteration 2</text>
<g transform="translate(30,70)"><svg width="120" height="120" viewBox="0 0 100 100"><circle cx="50" cy="50" r="48" fill="#7A263A"/><path d="M50 4L53.59 35.44L61.15 28.75L59.95 38.77L87.86 23.87L64.03 44.68L73.83 47.11L64.89 51.81L93.01 66.31L62.34 58.52L65.91 67.96L56.97 63.28L61.01 94.66L50 65L44.26 73.3L43.03 63.28L19.5 84.43L37.66 58.52L27.56 58.51L35.11 51.81L4.34 44.46L35.97 44.68L30.25 36.37L40.05 38.77L28.62 9.27L46.41 35.44Z" fill="#F7F4EE"/><line x1="50" y1="50" x2="50" y2="5.5" stroke="#7A263A" stroke-width="1.1" stroke-linecap="round"/><line x1="50" y1="50" x2="60.46" y2="30.08" stroke="#7A263A" stroke-width="1.1" stroke-linecap="round"/><line x1="50" y1="50" x2="86.62" y2="24.72" stroke="#7A263A" stroke-width="1.1" stroke-linecap="round"/><line x1="50" y1="50" x2="72.34" y2="47.29" stroke="#7A263A" stroke-width="1.1" stroke-linecap="round"/><line x1="50" y1="50" x2="91.61" y2="65.78" stroke="#7A263A" stroke-width="1.1" stroke-linecap="round"/><line x1="50" y1="50" x2="64.92" y2="66.84" stroke="#7A263A" stroke-width="1.1" stroke-linecap="round"/><line x1="50" y1="50" x2="60.65" y2="93.21" stroke="#7A263A" stroke-width="1.1" stroke-linecap="round"/><line x1="50" y1="50" x2="44.62" y2="71.85" stroke="#7A263A" stroke-width="1.1" stroke-linecap="round"/><line x1="50" y1="50" x2="20.49" y2="83.31" stroke="#7A263A" stroke-width="1.1" stroke-linecap="round"/><line x1="50" y1="50" x2="28.96" y2="57.98" stroke="#7A263A" stroke-width="1.1" stroke-linecap="round"/><line x1="50" y1="50" x2="5.82" y2="44.64" stroke="#7A263A" stroke-width="1.1" stroke-linecap="round"/><line x1="50" y1="50" x2="31.48" y2="37.22" stroke="#7A263A" stroke-width="1.1" stroke-linecap="round"/><line x1="50" y1="50" x2="29.32" y2="10.6" stroke="#7A263A" stroke-width="1.1" stroke-linecap="round"/><circle cx="50" cy="50" r="3.0" fill="#7A263A"/><circle cx="50" cy="50" r="1.3" fill="#F7F4EE"/></svg></g>
<rect x="170" y="70" width="120" height="120" fill="#17324D"/>
<g transform="translate(170,70)"><svg width="120" height="120" viewBox="0 0 100 100"><circle cx="50" cy="50" r="48" fill="#7A263A"/><path d="M50 4L53.59 35.44L61.15 28.75L59.95 38.77L87.86 23.87L64.03 44.68L73.83 47.11L64.89 51.81L93.01 66.31L62.34 58.52L65.91 67.96L56.97 63.28L61.01 94.66L50 65L44.26 73.3L43.03 63.28L19.5 84.43L37.66 58.52L27.56 58.51L35.11 51.81L4.34 44.46L35.97 44.68L30.25 36.37L40.05 38.77L28.62 9.27L46.41 35.44Z" fill="#F7F4EE"/><line x1="50" y1="50" x2="50" y2="5.5" stroke="#7A263A" stroke-width="1.1" stroke-linecap="round"/><line x1="50" y1="50" x2="60.46" y2="30.08" stroke="#7A263A" stroke-width="1.1" stroke-linecap="round"/><line x1="50" y1="50" x2="86.62" y2="24.72" stroke="#7A263A" stroke-width="1.1" stroke-linecap="round"/><line x1="50" y1="50" x2="72.34" y2="47.29" stroke="#7A263A" stroke-width="1.1" stroke-linecap="round"/><line x1="50" y1="50" x2="91.61" y2="65.78" stroke="#7A263A" stroke-width="1.1" stroke-linecap="round"/><line x1="50" y1="50" x2="64.92" y2="66.84" stroke="#7A263A" stroke-width="1.1" stroke-linecap="round"/><line x1="50" y1="50" x2="60.65" y2="93.21" stroke="#7A263A" stroke-width="1.1" stroke-linecap="round"/><line x1="50" y1="50" x2="44.62" y2="71.85" stroke="#7A263A" stroke-width="1.1" stroke-linecap="round"/><line x1="50" y1="50" x2="20.49" y2="83.31" stroke="#7A263A" stroke-width="1.1" stroke-linecap="round"/><line x1="50" y1="50" x2="28.96" y2="57.98" stroke="#7A263A" stroke-width="1.1" stroke-linecap="round"/><line x1="50" y1="50" x2="5.82" y2="44.64" stroke="#7A263A" stroke-width="1.1" stroke-linecap="round"/><line x1="50" y1="50" x2="31.48" y2="37.22" stroke="#7A263A" stroke-width="1.1" stroke-linecap="round"/><line x1="50" y1="50" x2="29.32" y2="10.6" stroke="#7A263A" stroke-width="1.1" stroke-linecap="round"/><circle cx="50" cy="50" r="3.0" fill="#7A263A"/><circle cx="50" cy="50" r="1.3" fill="#F7F4EE"/></svg></g>
<g transform="translate(320,112)"><svg width="40" height="40" viewBox="0 0 100 100"><circle cx="50" cy="50" r="48" fill="#7A263A"/><path d="M50 4L53.59 35.44L61.15 28.75L59.95 38.77L87.86 23.87L64.03 44.68L73.83 47.11L64.89 51.81L93.01 66.31L62.34 58.52L65.91 67.96L56.97 63.28L61.01 94.66L50 65L44.26 73.3L43.03 63.28L19.5 84.43L37.66 58.52L27.56 58.51L35.11 51.81L4.34 44.46L35.97 44.68L30.25 36.37L40.05 38.77L28.62 9.27L46.41 35.44Z" fill="#F7F4EE"/><line x1="50" y1="50" x2="50" y2="5.5" stroke="#7A263A" stroke-width="1.1" stroke-linecap="round"/><line x1="50" y1="50" x2="60.46" y2="30.08" stroke="#7A263A" stroke-width="1.1" stroke-linecap="round"/><line x1="50" y1="50" x2="86.62" y2="24.72" stroke="#7A263A" stroke-width="1.1" stroke-linecap="round"/><line x1="50" y1="50" x2="72.34" y2="47.29" stroke="#7A263A" stroke-width="1.1" stroke-linecap="round"/><line x1="50" y1="50" x2="91.61" y2="65.78" stroke="#7A263A" stroke-width="1.1" stroke-linecap="round"/><line x1="50" y1="50" x2="64.92" y2="66.84" stroke="#7A263A" stroke-width="1.1" stroke-linecap="round"/><line x1="50" y1="50" x2="60.65" y2="93.21" stroke="#7A263A" stroke-width="1.1" stroke-linecap="round"/><line x1="50" y1="50" x2="44.62" y2="71.85" stroke="#7A263A" stroke-width="1.1" stroke-linecap="round"/><line x1="50" y1="50" x2="20.49" y2="83.31" stroke="#7A263A" stroke-width="1.1" stroke-linecap="round"/><line x1="50" y1="50" x2="28.96" y2="57.98" stroke="#7A263A" stroke-width="1.1" stroke-linecap="round"/><line x1="50" y1="50" x2="5.82" y2="44.64" stroke="#7A263A" stroke-width="1.1" stroke-linecap="round"/><line x1="50" y1="50" x2="31.48" y2="37.22" stroke="#7A263A" stroke-width="1.1" stroke-linecap="round"/><line x1="50" y1="50" x2="29.32" y2="10.6" stroke="#7A263A" stroke-width="1.1" stroke-linecap="round"/><circle cx="50" cy="50" r="3.0" fill="#7A263A"/><circle cx="50" cy="50" r="1.3" fill="#F7F4EE"/></svg></g>
<g transform="translate(375,120)"><svg width="24" height="24" viewBox="0 0 100 100"><circle cx="50" cy="50" r="48" fill="#7A263A"/><path d="M50 4L53.59 35.44L61.15 28.75L59.95 38.77L87.86 23.87L64.03 44.68L73.83 47.11L64.89 51.81L93.01 66.31L62.34 58.52L65.91 67.96L56.97 63.28L61.01 94.66L50 65L44.26 73.3L43.03 63.28L19.5 84.43L37.66 58.52L27.56 58.51L35.11 51.81L4.34 44.46L35.97 44.68L30.25 36.37L40.05 38.77L28.62 9.27L46.41 35.44Z" fill="#F7F4EE"/><line x1="50" y1="50" x2="50" y2="5.5" stroke="#7A263A" stroke-width="1.1" stroke-linecap="round"/><line x1="50" y1="50" x2="60.46" y2="30.08" stroke="#7A263A" stroke-width="1.1" stroke-linecap="round"/><line x1="50" y1="50" x2="86.62" y2="24.72" stroke="#7A263A" stroke-width="1.1" stroke-linecap="round"/><line x1="50" y1="50" x2="72.34" y2="47.29" stroke="#7A263A" stroke-width="1.1" stroke-linecap="round"/><line x1="50" y1="50" x2="91.61" y2="65.78" stroke="#7A263A" stroke-width="1.1" stroke-linecap="round"/><line x1="50" y1="50" x2="64.92" y2="66.84" stroke="#7A263A" stroke-width="1.1" stroke-linecap="round"/><line x1="50" y1="50" x2="60.65" y2="93.21" stroke="#7A263A" stroke-width="1.1" stroke-linecap="round"/><line x1="50" y1="50" x2="44.62" y2="71.85" stroke="#7A263A" stroke-width="1.1" stroke-linecap="round"/><line x1="50" y1="50" x2="20.49" y2="83.31" stroke="#7A263A" stroke-width="1.1" stroke-linecap="round"/><line x1="50" y1="50" x2="28.96" y2="57.98" stroke="#7A263A" stroke-width="1.1" stroke-linecap="round"/><line x1="50" y1="50" x2="5.82" y2="44.64" stroke="#7A263A" stroke-width="1.1" stroke-linecap="round"/><line x1="50" y1="50" x2="31.48" y2="37.22" stroke="#7A263A" stroke-width="1.1" stroke-linecap="round"/><line x1="50" y1="50" x2="29.32" y2="10.6" stroke="#7A263A" stroke-width="1.1" stroke-linecap="round"/><circle cx="50" cy="50" r="3.0" fill="#7A263A"/><circle cx="50" cy="50" r="1.3" fill="#F7F4EE"/></svg></g>
<text x="420" y="132" font-size="16" fill="#17324D">13 — alternating long/short (seal)</text>
<text x="420" y="154" font-size="12" fill="#6B7280">c13-alt-seal.svg</text>
<g transform="translate(30,220)"><svg width="120" height="120" viewBox="0 0 100 100"><circle cx="50" cy="50" r="47" fill="none" stroke="#D9B36C" stroke-width="2"/><path d="M50 4L54.23 35.61L63.52 28.97L61.34 40.18L91.84 30.89L64.85 47.87L74.75 53.56L63.64 56.23L84.76 80.12L58.11 62.62L57.04 73.99L50 65L37.04 94.14L41.89 62.62L31.11 66.37L36.36 56.23L4.47 56.55L35.15 47.87L27.26 39.61L38.66 40.18L25.13 11.3L45.77 35.61Z" fill="#17324D"/><line x1="50" y1="50" x2="50" y2="5.5" stroke="#F7F4EE" stroke-width="1.0" stroke-linecap="round"/><line x1="50" y1="50" x2="62.71" y2="30.23" stroke="#F7F4EE" stroke-width="1.0" stroke-linecap="round"/><line x1="50" y1="50" x2="90.48" y2="31.51" stroke="#F7F4EE" stroke-width="1.0" stroke-linecap="round"/><line x1="50" y1="50" x2="73.26" y2="53.34" stroke="#F7F4EE" stroke-width="1.0" stroke-linecap="round"/><line x1="50" y1="50" x2="83.63" y2="79.14" stroke="#F7F4EE" stroke-width="1.0" stroke-linecap="round"/><line x1="50" y1="50" x2="56.62" y2="72.55" stroke="#F7F4EE" stroke-width="1.0" stroke-linecap="round"/><line x1="50" y1="50" x2="37.46" y2="92.7" stroke="#F7F4EE" stroke-width="1.0" stroke-linecap="round"/><line x1="50" y1="50" x2="32.24" y2="65.39" stroke="#F7F4EE" stroke-width="1.0" stroke-linecap="round"/><line x1="50" y1="50" x2="5.95" y2="56.33" stroke="#F7F4EE" stroke-width="1.0" stroke-linecap="round"/><line x1="50" y1="50" x2="28.62" y2="40.24" stroke="#F7F4EE" stroke-width="1.0" stroke-linecap="round"/><line x1="50" y1="50" x2="25.94" y2="12.56" stroke="#F7F4EE" stroke-width="1.0" stroke-linecap="round"/><circle cx="50" cy="50" r="4.0" fill="#F7F4EE"/><circle cx="50" cy="50" r="1.6" fill="#17324D"/></svg></g>
<rect x="170" y="220" width="120" height="120" fill="#17324D"/>
<g transform="translate(170,220)"><svg width="120" height="120" viewBox="0 0 100 100"><circle cx="50" cy="50" r="47" fill="none" stroke="#D9B36C" stroke-width="2"/><path d="M50 4L54.23 35.61L63.52 28.97L61.34 40.18L91.84 30.89L64.85 47.87L74.75 53.56L63.64 56.23L84.76 80.12L58.11 62.62L57.04 73.99L50 65L37.04 94.14L41.89 62.62L31.11 66.37L36.36 56.23L4.47 56.55L35.15 47.87L27.26 39.61L38.66 40.18L25.13 11.3L45.77 35.61Z" fill="#17324D"/><line x1="50" y1="50" x2="50" y2="5.5" stroke="#F7F4EE" stroke-width="1.0" stroke-linecap="round"/><line x1="50" y1="50" x2="62.71" y2="30.23" stroke="#F7F4EE" stroke-width="1.0" stroke-linecap="round"/><line x1="50" y1="50" x2="90.48" y2="31.51" stroke="#F7F4EE" stroke-width="1.0" stroke-linecap="round"/><line x1="50" y1="50" x2="73.26" y2="53.34" stroke="#F7F4EE" stroke-width="1.0" stroke-linecap="round"/><line x1="50" y1="50" x2="83.63" y2="79.14" stroke="#F7F4EE" stroke-width="1.0" stroke-linecap="round"/><line x1="50" y1="50" x2="56.62" y2="72.55" stroke="#F7F4EE" stroke-width="1.0" stroke-linecap="round"/><line x1="50" y1="50" x2="37.46" y2="92.7" stroke="#F7F4EE" stroke-width="1.0" stroke-linecap="round"/><line x1="50" y1="50" x2="32.24" y2="65.39" stroke="#F7F4EE" stroke-width="1.0" stroke-linecap="round"/><line x1="50" y1="50" x2="5.95" y2="56.33" stroke="#F7F4EE" stroke-width="1.0" stroke-linecap="round"/><line x1="50" y1="50" x2="28.62" y2="40.24" stroke="#F7F4EE" stroke-width="1.0" stroke-linecap="round"/><line x1="50" y1="50" x2="25.94" y2="12.56" stroke="#F7F4EE" stroke-width="1.0" stroke-linecap="round"/><circle cx="50" cy="50" r="4.0" fill="#F7F4EE"/><circle cx="50" cy="50" r="1.6" fill="#17324D"/></svg></g>
<g transform="translate(320,262)"><svg width="40" height="40" viewBox="0 0 100 100"><circle cx="50" cy="50" r="47" fill="none" stroke="#D9B36C" stroke-width="2"/><path d="M50 4L54.23 35.61L63.52 28.97L61.34 40.18L91.84 30.89L64.85 47.87L74.75 53.56L63.64 56.23L84.76 80.12L58.11 62.62L57.04 73.99L50 65L37.04 94.14L41.89 62.62L31.11 66.37L36.36 56.23L4.47 56.55L35.15 47.87L27.26 39.61L38.66 40.18L25.13 11.3L45.77 35.61Z" fill="#17324D"/><line x1="50" y1="50" x2="50" y2="5.5" stroke="#F7F4EE" stroke-width="1.0" stroke-linecap="round"/><line x1="50" y1="50" x2="62.71" y2="30.23" stroke="#F7F4EE" stroke-width="1.0" stroke-linecap="round"/><line x1="50" y1="50" x2="90.48" y2="31.51" stroke="#F7F4EE" stroke-width="1.0" stroke-linecap="round"/><line x1="50" y1="50" x2="73.26" y2="53.34" stroke="#F7F4EE" stroke-width="1.0" stroke-linecap="round"/><line x1="50" y1="50" x2="83.63" y2="79.14" stroke="#F7F4EE" stroke-width="1.0" stroke-linecap="round"/><line x1="50" y1="50" x2="56.62" y2="72.55" stroke="#F7F4EE" stroke-width="1.0" stroke-linecap="round"/><line x1="50" y1="50" x2="37.46" y2="92.7" stroke="#F7F4EE" stroke-width="1.0" stroke-linecap="round"/><line x1="50" y1="50" x2="32.24" y2="65.39" stroke="#F7F4EE" stroke-width="1.0" stroke-linecap="round"/><line x1="50" y1="50" x2="5.95" y2="56.33" stroke="#F7F4EE" stroke-width="1.0" stroke-linecap="round"/><line x1="50" y1="50" x2="28.62" y2="40.24" stroke="#F7F4EE" stroke-width="1.0" stroke-linecap="round"/><line x1="50" y1="50" x2="25.94" y2="12.56" stroke="#F7F4EE" stroke-width="1.0" stroke-linecap="round"/><circle cx="50" cy="50" r="4.0" fill="#F7F4EE"/><circle cx="50" cy="50" r="1.6" fill="#17324D"/></svg></g>
<g transform="translate(375,270)"><svg width="24" height="24" viewBox="0 0 100 100"><circle cx="50" cy="50" r="47" fill="none" stroke="#D9B36C" stroke-width="2"/><path d="M50 4L54.23 35.61L63.52 28.97L61.34 40.18L91.84 30.89L64.85 47.87L74.75 53.56L63.64 56.23L84.76 80.12L58.11 62.62L57.04 73.99L50 65L37.04 94.14L41.89 62.62L31.11 66.37L36.36 56.23L4.47 56.55L35.15 47.87L27.26 39.61L38.66 40.18L25.13 11.3L45.77 35.61Z" fill="#17324D"/><line x1="50" y1="50" x2="50" y2="5.5" stroke="#F7F4EE" stroke-width="1.0" stroke-linecap="round"/><line x1="50" y1="50" x2="62.71" y2="30.23" stroke="#F7F4EE" stroke-width="1.0" stroke-linecap="round"/><line x1="50" y1="50" x2="90.48" y2="31.51" stroke="#F7F4EE" stroke-width="1.0" stroke-linecap="round"/><line x1="50" y1="50" x2="73.26" y2="53.34" stroke="#F7F4EE" stroke-width="1.0" stroke-linecap="round"/><line x1="50" y1="50" x2="83.63" y2="79.14" stroke="#F7F4EE" stroke-width="1.0" stroke-linecap="round"/><line x1="50" y1="50" x2="56.62" y2="72.55" stroke="#F7F4EE" stroke-width="1.0" stroke-linecap="round"/><line x1="50" y1="50" x2="37.46" y2="92.7" stroke="#F7F4EE" stroke-width="1.0" stroke-linecap="round"/><line x1="50" y1="50" x2="32.24" y2="65.39" stroke="#F7F4EE" stroke-width="1.0" stroke-linecap="round"/><line x1="50" y1="50" x2="5.95" y2="56.33" stroke="#F7F4EE" stroke-width="1.0" stroke-linecap="round"/><line x1="50" y1="50" x2="28.62" y2="40.24" stroke="#F7F4EE" stroke-width="1.0" stroke-linecap="round"/><line x1="50" y1="50" x2="25.94" y2="12.56" stroke="#F7F4EE" stroke-width="1.0" stroke-linecap="round"/><circle cx="50" cy="50" r="4.0" fill="#F7F4EE"/><circle cx="50" cy="50" r="1.6" fill="#17324D"/></svg></g>
<text x="420" y="282" font-size="16" fill="#17324D">11 — alternating, observatory</text>
<text x="420" y="304" font-size="12" fill="#6B7280">c11-alt-obs.svg</text>
<g transform="translate(30,370)"><svg width="120" height="120" viewBox="0 0 100 100"><circle cx="50" cy="50" r="48" fill="#7A263A"/><path d="M50 24L53.59 35.44L62.08 26.98L59.95 38.77L87.86 23.87L64.03 44.68L95.66 44.46L64.89 51.81L93.01 66.31L62.34 58.52L80.5 84.43L56.97 63.28L61.01 94.66L50 65L38.99 94.66L43.03 63.28L19.5 84.43L37.66 58.52L6.99 66.31L35.11 51.81L4.34 44.46L35.97 44.68L12.14 23.87L40.05 38.77L37.92 26.98L46.41 35.44Z" fill="#F7F4EE"/><line x1="50" y1="50" x2="50" y2="25.5" stroke="#7A263A" stroke-width="1.1" stroke-linecap="round"/><line x1="50" y1="50" x2="61.39" y2="28.31" stroke="#7A263A" stroke-width="1.1" stroke-linecap="round"/><line x1="50" y1="50" x2="86.62" y2="24.72" stroke="#7A263A" stroke-width="1.1" stroke-linecap="round"/><line x1="50" y1="50" x2="94.18" y2="44.64" stroke="#7A263A" stroke-width="1.1" stroke-linecap="round"/><line x1="50" y1="50" x2="91.61" y2="65.78" stroke="#7A263A" stroke-width="1.1" stroke-linecap="round"/><line x1="50" y1="50" x2="79.51" y2="83.31" stroke="#7A263A" stroke-width="1.1" stroke-linecap="round"/><line x1="50" y1="50" x2="60.65" y2="93.21" stroke="#7A263A" stroke-width="1.1" stroke-linecap="round"/><line x1="50" y1="50" x2="39.35" y2="93.21" stroke="#7A263A" stroke-width="1.1" stroke-linecap="round"/><line x1="50" y1="50" x2="20.49" y2="83.31" stroke="#7A263A" stroke-width="1.1" stroke-linecap="round"/><line x1="50" y1="50" x2="8.39" y2="65.78" stroke="#7A263A" stroke-width="1.1" stroke-linecap="round"/><line x1="50" y1="50" x2="5.82" y2="44.64" stroke="#7A263A" stroke-width="1.1" stroke-linecap="round"/><line x1="50" y1="50" x2="13.38" y2="24.72" stroke="#7A263A" stroke-width="1.1" stroke-linecap="round"/><line x1="50" y1="50" x2="38.61" y2="28.31" stroke="#7A263A" stroke-width="1.1" stroke-linecap="round"/><circle cx="50" cy="50" r="3.0" fill="#7A263A"/><circle cx="50" cy="50" r="1.3" fill="#F7F4EE"/></svg></g>
<rect x="170" y="370" width="120" height="120" fill="#17324D"/>
<g transform="translate(170,370)"><svg width="120" height="120" viewBox="0 0 100 100"><circle cx="50" cy="50" r="48" fill="#7A263A"/><path d="M50 24L53.59 35.44L62.08 26.98L59.95 38.77L87.86 23.87L64.03 44.68L95.66 44.46L64.89 51.81L93.01 66.31L62.34 58.52L80.5 84.43L56.97 63.28L61.01 94.66L50 65L38.99 94.66L43.03 63.28L19.5 84.43L37.66 58.52L6.99 66.31L35.11 51.81L4.34 44.46L35.97 44.68L12.14 23.87L40.05 38.77L37.92 26.98L46.41 35.44Z" fill="#F7F4EE"/><line x1="50" y1="50" x2="50" y2="25.5" stroke="#7A263A" stroke-width="1.1" stroke-linecap="round"/><line x1="50" y1="50" x2="61.39" y2="28.31" stroke="#7A263A" stroke-width="1.1" stroke-linecap="round"/><line x1="50" y1="50" x2="86.62" y2="24.72" stroke="#7A263A" stroke-width="1.1" stroke-linecap="round"/><line x1="50" y1="50" x2="94.18" y2="44.64" stroke="#7A263A" stroke-width="1.1" stroke-linecap="round"/><line x1="50" y1="50" x2="91.61" y2="65.78" stroke="#7A263A" stroke-width="1.1" stroke-linecap="round"/><line x1="50" y1="50" x2="79.51" y2="83.31" stroke="#7A263A" stroke-width="1.1" stroke-linecap="round"/><line x1="50" y1="50" x2="60.65" y2="93.21" stroke="#7A263A" stroke-width="1.1" stroke-linecap="round"/><line x1="50" y1="50" x2="39.35" y2="93.21" stroke="#7A263A" stroke-width="1.1" stroke-linecap="round"/><line x1="50" y1="50" x2="20.49" y2="83.31" stroke="#7A263A" stroke-width="1.1" stroke-linecap="round"/><line x1="50" y1="50" x2="8.39" y2="65.78" stroke="#7A263A" stroke-width="1.1" stroke-linecap="round"/><line x1="50" y1="50" x2="5.82" y2="44.64" stroke="#7A263A" stroke-width="1.1" stroke-linecap="round"/><line x1="50" y1="50" x2="13.38" y2="24.72" stroke="#7A263A" stroke-width="1.1" stroke-linecap="round"/><line x1="50" y1="50" x2="38.61" y2="28.31" stroke="#7A263A" stroke-width="1.1" stroke-linecap="round"/><circle cx="50" cy="50" r="3.0" fill="#7A263A"/><circle cx="50" cy="50" r="1.3" fill="#F7F4EE"/></svg></g>
<g transform="translate(320,412)"><svg width="40" height="40" viewBox="0 0 100 100"><circle cx="50" cy="50" r="48" fill="#7A263A"/><path d="M50 24L53.59 35.44L62.08 26.98L59.95 38.77L87.86 23.87L64.03 44.68L95.66 44.46L64.89 51.81L93.01 66.31L62.34 58.52L80.5 84.43L56.97 63.28L61.01 94.66L50 65L38.99 94.66L43.03 63.28L19.5 84.43L37.66 58.52L6.99 66.31L35.11 51.81L4.34 44.46L35.97 44.68L12.14 23.87L40.05 38.77L37.92 26.98L46.41 35.44Z" fill="#F7F4EE"/><line x1="50" y1="50" x2="50" y2="25.5" stroke="#7A263A" stroke-width="1.1" stroke-linecap="round"/><line x1="50" y1="50" x2="61.39" y2="28.31" stroke="#7A263A" stroke-width="1.1" stroke-linecap="round"/><line x1="50" y1="50" x2="86.62" y2="24.72" stroke="#7A263A" stroke-width="1.1" stroke-linecap="round"/><line x1="50" y1="50" x2="94.18" y2="44.64" stroke="#7A263A" stroke-width="1.1" stroke-linecap="round"/><line x1="50" y1="50" x2="91.61" y2="65.78" stroke="#7A263A" stroke-width="1.1" stroke-linecap="round"/><line x1="50" y1="50" x2="79.51" y2="83.31" stroke="#7A263A" stroke-width="1.1" stroke-linecap="round"/><line x1="50" y1="50" x2="60.65" y2="93.21" stroke="#7A263A" stroke-width="1.1" stroke-linecap="round"/><line x1="50" y1="50" x2="39.35" y2="93.21" stroke="#7A263A" stroke-width="1.1" stroke-linecap="round"/><line x1="50" y1="50" x2="20.49" y2="83.31" stroke="#7A263A" stroke-width="1.1" stroke-linecap="round"/><line x1="50" y1="50" x2="8.39" y2="65.78" stroke="#7A263A" stroke-width="1.1" stroke-linecap="round"/><line x1="50" y1="50" x2="5.82" y2="44.64" stroke="#7A263A" stroke-width="1.1" stroke-linecap="round"/><line x1="50" y1="50" x2="13.38" y2="24.72" stroke="#7A263A" stroke-width="1.1" stroke-linecap="round"/><line x1="50" y1="50" x2="38.61" y2="28.31" stroke="#7A263A" stroke-width="1.1" stroke-linecap="round"/><circle cx="50" cy="50" r="3.0" fill="#7A263A"/><circle cx="50" cy="50" r="1.3" fill="#F7F4EE"/></svg></g>
<g transform="translate(375,420)"><svg width="24" height="24" viewBox="0 0 100 100"><circle cx="50" cy="50" r="48" fill="#7A263A"/><path d="M50 24L53.59 35.44L62.08 26.98L59.95 38.77L87.86 23.87L64.03 44.68L95.66 44.46L64.89 51.81L93.01 66.31L62.34 58.52L80.5 84.43L56.97 63.28L61.01 94.66L50 65L38.99 94.66L43.03 63.28L19.5 84.43L37.66 58.52L6.99 66.31L35.11 51.81L4.34 44.46L35.97 44.68L12.14 23.87L40.05 38.77L37.92 26.98L46.41 35.44Z" fill="#F7F4EE"/><line x1="50" y1="50" x2="50" y2="25.5" stroke="#7A263A" stroke-width="1.1" stroke-linecap="round"/><line x1="50" y1="50" x2="61.39" y2="28.31" stroke="#7A263A" stroke-width="1.1" stroke-linecap="round"/><line x1="50" y1="50" x2="86.62" y2="24.72" stroke="#7A263A" stroke-width="1.1" stroke-linecap="round"/><line x1="50" y1="50" x2="94.18" y2="44.64" stroke="#7A263A" stroke-width="1.1" stroke-linecap="round"/><line x1="50" y1="50" x2="91.61" y2="65.78" stroke="#7A263A" stroke-width="1.1" stroke-linecap="round"/><line x1="50" y1="50" x2="79.51" y2="83.31" stroke="#7A263A" stroke-width="1.1" stroke-linecap="round"/><line x1="50" y1="50" x2="60.65" y2="93.21" stroke="#7A263A" stroke-width="1.1" stroke-linecap="round"/><line x1="50" y1="50" x2="39.35" y2="93.21" stroke="#7A263A" stroke-width="1.1" stroke-linecap="round"/><line x1="50" y1="50" x2="20.49" y2="83.31" stroke="#7A263A" stroke-width="1.1" stroke-linecap="round"/><line x1="50" y1="50" x2="8.39" y2="65.78" stroke="#7A263A" stroke-width="1.1" stroke-linecap="round"/><line x1="50" y1="50" x2="5.82" y2="44.64" stroke="#7A263A" stroke-width="1.1" stroke-linecap="round"/><line x1="50" y1="50" x2="13.38" y2="24.72" stroke="#7A263A" stroke-width="1.1" stroke-linecap="round"/><line x1="50" y1="50" x2="38.61" y2="28.31" stroke="#7A263A" stroke-width="1.1" stroke-linecap="round"/><circle cx="50" cy="50" r="3.0" fill="#7A263A"/><circle cx="50" cy="50" r="1.3" fill="#F7F4EE"/></svg></g>
<text x="420" y="432" font-size="16" fill="#17324D">13 — 10 long provinces + 3 short territories</text>
<text x="420" y="454" font-size="12" fill="#6B7280">c13-territories-seal.svg</text>
<g transform="translate(30,520)"><svg width="120" height="120" viewBox="0 0 100 100"><circle cx="50" cy="50" r="48" fill="#7A263A"/><path d="M50 2L54.23 35.61L62.98 29.81L61.34 40.18L86.39 33.38L64.85 47.87L73.76 53.42L63.64 56.23L80.23 76.19L58.11 62.62L56.76 73.03L50 65L38.73 88.38L41.89 62.62L31.86 65.72L36.36 56.23L10.41 55.69L35.15 47.87L28.17 40.03L38.66 40.18L28.37 16.35L45.77 35.61Z" fill="#F7F4EE"/><line x1="50" y1="50" x2="50" y2="3.5" stroke="#7A263A" stroke-width="1.1" stroke-linecap="round"/><line x1="50" y1="50" x2="62.16" y2="31.07" stroke="#7A263A" stroke-width="1.1" stroke-linecap="round"/><line x1="50" y1="50" x2="85.02" y2="34.01" stroke="#7A263A" stroke-width="1.1" stroke-linecap="round"/><line x1="50" y1="50" x2="72.27" y2="53.2" stroke="#7A263A" stroke-width="1.1" stroke-linecap="round"/><line x1="50" y1="50" x2="79.1" y2="75.21" stroke="#7A263A" stroke-width="1.1" stroke-linecap="round"/><line x1="50" y1="50" x2="56.34" y2="71.59" stroke="#7A263A" stroke-width="1.1" stroke-linecap="round"/><line x1="50" y1="50" x2="39.15" y2="86.94" stroke="#7A263A" stroke-width="1.1" stroke-linecap="round"/><line x1="50" y1="50" x2="33" y2="64.73" stroke="#7A263A" stroke-width="1.1" stroke-linecap="round"/><line x1="50" y1="50" x2="11.89" y2="55.48" stroke="#7A263A" stroke-width="1.1" stroke-linecap="round"/><line x1="50" y1="50" x2="29.53" y2="40.65" stroke="#7A263A" stroke-width="1.1" stroke-linecap="round"/><line x1="50" y1="50" x2="29.19" y2="17.61" stroke="#7A263A" stroke-width="1.1" stroke-linecap="round"/><circle cx="50" cy="50" r="3.0" fill="#7A263A"/><circle cx="50" cy="50" r="1.3" fill="#F7F4EE"/></svg></g>
<rect x="170" y="520" width="120" height="120" fill="#17324D"/>
<g transform="translate(170,520)"><svg width="120" height="120" viewBox="0 0 100 100"><circle cx="50" cy="50" r="48" fill="#7A263A"/><path d="M50 2L54.23 35.61L62.98 29.81L61.34 40.18L86.39 33.38L64.85 47.87L73.76 53.42L63.64 56.23L80.23 76.19L58.11 62.62L56.76 73.03L50 65L38.73 88.38L41.89 62.62L31.86 65.72L36.36 56.23L10.41 55.69L35.15 47.87L28.17 40.03L38.66 40.18L28.37 16.35L45.77 35.61Z" fill="#F7F4EE"/><line x1="50" y1="50" x2="50" y2="3.5" stroke="#7A263A" stroke-width="1.1" stroke-linecap="round"/><line x1="50" y1="50" x2="62.16" y2="31.07" stroke="#7A263A" stroke-width="1.1" stroke-linecap="round"/><line x1="50" y1="50" x2="85.02" y2="34.01" stroke="#7A263A" stroke-width="1.1" stroke-linecap="round"/><line x1="50" y1="50" x2="72.27" y2="53.2" stroke="#7A263A" stroke-width="1.1" stroke-linecap="round"/><line x1="50" y1="50" x2="79.1" y2="75.21" stroke="#7A263A" stroke-width="1.1" stroke-linecap="round"/><line x1="50" y1="50" x2="56.34" y2="71.59" stroke="#7A263A" stroke-width="1.1" stroke-linecap="round"/><line x1="50" y1="50" x2="39.15" y2="86.94" stroke="#7A263A" stroke-width="1.1" stroke-linecap="round"/><line x1="50" y1="50" x2="33" y2="64.73" stroke="#7A263A" stroke-width="1.1" stroke-linecap="round"/><line x1="50" y1="50" x2="11.89" y2="55.48" stroke="#7A263A" stroke-width="1.1" stroke-linecap="round"/><line x1="50" y1="50" x2="29.53" y2="40.65" stroke="#7A263A" stroke-width="1.1" stroke-linecap="round"/><line x1="50" y1="50" x2="29.19" y2="17.61" stroke="#7A263A" stroke-width="1.1" stroke-linecap="round"/><circle cx="50" cy="50" r="3.0" fill="#7A263A"/><circle cx="50" cy="50" r="1.3" fill="#F7F4EE"/></svg></g>
<g transform="translate(320,562)"><svg width="40" height="40" viewBox="0 0 100 100"><circle cx="50" cy="50" r="48" fill="#7A263A"/><path d="M50 2L54.23 35.61L62.98 29.81L61.34 40.18L86.39 33.38L64.85 47.87L73.76 53.42L63.64 56.23L80.23 76.19L58.11 62.62L56.76 73.03L50 65L38.73 88.38L41.89 62.62L31.86 65.72L36.36 56.23L10.41 55.69L35.15 47.87L28.17 40.03L38.66 40.18L28.37 16.35L45.77 35.61Z" fill="#F7F4EE"/><line x1="50" y1="50" x2="50" y2="3.5" stroke="#7A263A" stroke-width="1.1" stroke-linecap="round"/><line x1="50" y1="50" x2="62.16" y2="31.07" stroke="#7A263A" stroke-width="1.1" stroke-linecap="round"/><line x1="50" y1="50" x2="85.02" y2="34.01" stroke="#7A263A" stroke-width="1.1" stroke-linecap="round"/><line x1="50" y1="50" x2="72.27" y2="53.2" stroke="#7A263A" stroke-width="1.1" stroke-linecap="round"/><line x1="50" y1="50" x2="79.1" y2="75.21" stroke="#7A263A" stroke-width="1.1" stroke-linecap="round"/><line x1="50" y1="50" x2="56.34" y2="71.59" stroke="#7A263A" stroke-width="1.1" stroke-linecap="round"/><line x1="50" y1="50" x2="39.15" y2="86.94" stroke="#7A263A" stroke-width="1.1" stroke-linecap="round"/><line x1="50" y1="50" x2="33" y2="64.73" stroke="#7A263A" stroke-width="1.1" stroke-linecap="round"/><line x1="50" y1="50" x2="11.89" y2="55.48" stroke="#7A263A" stroke-width="1.1" stroke-linecap="round"/><line x1="50" y1="50" x2="29.53" y2="40.65" stroke="#7A263A" stroke-width="1.1" stroke-linecap="round"/><line x1="50" y1="50" x2="29.19" y2="17.61" stroke="#7A263A" stroke-width="1.1" stroke-linecap="round"/><circle cx="50" cy="50" r="3.0" fill="#7A263A"/><circle cx="50" cy="50" r="1.3" fill="#F7F4EE"/></svg></g>
<g transform="translate(375,570)"><svg width="24" height="24" viewBox="0 0 100 100"><circle cx="50" cy="50" r="48" fill="#7A263A"/><path d="M50 2L54.23 35.61L62.98 29.81L61.34 40.18L86.39 33.38L64.85 47.87L73.76 53.42L63.64 56.23L80.23 76.19L58.11 62.62L56.76 73.03L50 65L38.73 88.38L41.89 62.62L31.86 65.72L36.36 56.23L10.41 55.69L35.15 47.87L28.17 40.03L38.66 40.18L28.37 16.35L45.77 35.61Z" fill="#F7F4EE"/><line x1="50" y1="50" x2="50" y2="3.5" stroke="#7A263A" stroke-width="1.1" stroke-linecap="round"/><line x1="50" y1="50" x2="62.16" y2="31.07" stroke="#7A263A" stroke-width="1.1" stroke-linecap="round"/><line x1="50" y1="50" x2="85.02" y2="34.01" stroke="#7A263A" stroke-width="1.1" stroke-linecap="round"/><line x1="50" y1="50" x2="72.27" y2="53.2" stroke="#7A263A" stroke-width="1.1" stroke-linecap="round"/><line x1="50" y1="50" x2="79.1" y2="75.21" stroke="#7A263A" stroke-width="1.1" stroke-linecap="round"/><line x1="50" y1="50" x2="56.34" y2="71.59" stroke="#7A263A" stroke-width="1.1" stroke-linecap="round"/><line x1="50" y1="50" x2="39.15" y2="86.94" stroke="#7A263A" stroke-width="1.1" stroke-linecap="round"/><line x1="50" y1="50" x2="33" y2="64.73" stroke="#7A263A" stroke-width="1.1" stroke-linecap="round"/><line x1="50" y1="50" x2="11.89" y2="55.48" stroke="#7A263A" stroke-width="1.1" stroke-linecap="round"/><line x1="50" y1="50" x2="29.53" y2="40.65" stroke="#7A263A" stroke-width="1.1" stroke-linecap="round"/><line x1="50" y1="50" x2="29.19" y2="17.61" stroke="#7A263A" stroke-width="1.1" stroke-linecap="round"/><circle cx="50" cy="50" r="3.0" fill="#7A263A"/><circle cx="50" cy="50" r="1.3" fill="#F7F4EE"/></svg></g>
<text x="420" y="582" font-size="16" fill="#17324D">11 — long Canada point (north) + 10</text>
<text x="420" y="604" font-size="12" fill="#6B7280">c11-canada-seal.svg</text>
<g transform="translate(30,670)"><svg width="120" height="120" viewBox="0 0 100 100"><circle cx="50" cy="50" r="48" fill="#7A263A"/><path d="M50 3L53.38 38.49L60.27 34.02L59.07 42.14L92.75 30.48L61.88 48.29L68.81 52.7L60.92 54.98L85.52 80.78L56.49 60.1L55.35 68.23L50 62L36.76 95.1L43.51 60.1L35.64 62.44L39.08 54.98L3.48 56.69L38.12 48.29L32.72 42.11L40.93 42.14L24.59 10.46L46.62 38.49Z" fill="#F7F4EE"/><line x1="50" y1="50" x2="50" y2="4.5" stroke="#7A263A" stroke-width="1.1" stroke-linecap="round"/><line x1="50" y1="50" x2="59.46" y2="35.28" stroke="#7A263A" stroke-width="1.1" stroke-linecap="round"/><line x1="50" y1="50" x2="91.39" y2="31.1" stroke="#7A263A" stroke-width="1.1" stroke-linecap="round"/><line x1="50" y1="50" x2="67.32" y2="52.49" stroke="#7A263A" stroke-width="1.1" stroke-linecap="round"/><line x1="50" y1="50" x2="84.39" y2="79.8" stroke="#7A263A" stroke-width="1.1" stroke-linecap="round"/><line x1="50" y1="50" x2="54.93" y2="66.79" stroke="#7A263A" stroke-width="1.1" stroke-linecap="round"/><line x1="50" y1="50" x2="37.18" y2="93.66" stroke="#7A263A" stroke-width="1.1" stroke-linecap="round"/><line x1="50" y1="50" x2="36.77" y2="61.46" stroke="#7A263A" stroke-width="1.1" stroke-linecap="round"/><line x1="50" y1="50" x2="4.96" y2="56.48" stroke="#7A263A" stroke-width="1.1" stroke-linecap="round"/><line x1="50" y1="50" x2="34.08" y2="42.73" stroke="#7A263A" stroke-width="1.1" stroke-linecap="round"/><line x1="50" y1="50" x2="25.4" y2="11.72" stroke="#7A263A" stroke-width="1.1" stroke-linecap="round"/><circle cx="50" cy="50" r="3.0" fill="#7A263A"/><circle cx="50" cy="50" r="1.3" fill="#F7F4EE"/></svg></g>
<rect x="170" y="670" width="120" height="120" fill="#17324D"/>
<g transform="translate(170,670)"><svg width="120" height="120" viewBox="0 0 100 100"><circle cx="50" cy="50" r="48" fill="#7A263A"/><path d="M50 3L53.38 38.49L60.27 34.02L59.07 42.14L92.75 30.48L61.88 48.29L68.81 52.7L60.92 54.98L85.52 80.78L56.49 60.1L55.35 68.23L50 62L36.76 95.1L43.51 60.1L35.64 62.44L39.08 54.98L3.48 56.69L38.12 48.29L32.72 42.11L40.93 42.14L24.59 10.46L46.62 38.49Z" fill="#F7F4EE"/><line x1="50" y1="50" x2="50" y2="4.5" stroke="#7A263A" stroke-width="1.1" stroke-linecap="round"/><line x1="50" y1="50" x2="59.46" y2="35.28" stroke="#7A263A" stroke-width="1.1" stroke-linecap="round"/><line x1="50" y1="50" x2="91.39" y2="31.1" stroke="#7A263A" stroke-width="1.1" stroke-linecap="round"/><line x1="50" y1="50" x2="67.32" y2="52.49" stroke="#7A263A" stroke-width="1.1" stroke-linecap="round"/><line x1="50" y1="50" x2="84.39" y2="79.8" stroke="#7A263A" stroke-width="1.1" stroke-linecap="round"/><line x1="50" y1="50" x2="54.93" y2="66.79" stroke="#7A263A" stroke-width="1.1" stroke-linecap="round"/><line x1="50" y1="50" x2="37.18" y2="93.66" stroke="#7A263A" stroke-width="1.1" stroke-linecap="round"/><line x1="50" y1="50" x2="36.77" y2="61.46" stroke="#7A263A" stroke-width="1.1" stroke-linecap="round"/><line x1="50" y1="50" x2="4.96" y2="56.48" stroke="#7A263A" stroke-width="1.1" stroke-linecap="round"/><line x1="50" y1="50" x2="34.08" y2="42.73" stroke="#7A263A" stroke-width="1.1" stroke-linecap="round"/><line x1="50" y1="50" x2="25.4" y2="11.72" stroke="#7A263A" stroke-width="1.1" stroke-linecap="round"/><circle cx="50" cy="50" r="3.0" fill="#7A263A"/><circle cx="50" cy="50" r="1.3" fill="#F7F4EE"/></svg></g>
<g transform="translate(320,712)"><svg width="40" height="40" viewBox="0 0 100 100"><circle cx="50" cy="50" r="48" fill="#7A263A"/><path d="M50 3L53.38 38.49L60.27 34.02L59.07 42.14L92.75 30.48L61.88 48.29L68.81 52.7L60.92 54.98L85.52 80.78L56.49 60.1L55.35 68.23L50 62L36.76 95.1L43.51 60.1L35.64 62.44L39.08 54.98L3.48 56.69L38.12 48.29L32.72 42.11L40.93 42.14L24.59 10.46L46.62 38.49Z" fill="#F7F4EE"/><line x1="50" y1="50" x2="50" y2="4.5" stroke="#7A263A" stroke-width="1.1" stroke-linecap="round"/><line x1="50" y1="50" x2="59.46" y2="35.28" stroke="#7A263A" stroke-width="1.1" stroke-linecap="round"/><line x1="50" y1="50" x2="91.39" y2="31.1" stroke="#7A263A" stroke-width="1.1" stroke-linecap="round"/><line x1="50" y1="50" x2="67.32" y2="52.49" stroke="#7A263A" stroke-width="1.1" stroke-linecap="round"/><line x1="50" y1="50" x2="84.39" y2="79.8" stroke="#7A263A" stroke-width="1.1" stroke-linecap="round"/><line x1="50" y1="50" x2="54.93" y2="66.79" stroke="#7A263A" stroke-width="1.1" stroke-linecap="round"/><line x1="50" y1="50" x2="37.18" y2="93.66" stroke="#7A263A" stroke-width="1.1" stroke-linecap="round"/><line x1="50" y1="50" x2="36.77" y2="61.46" stroke="#7A263A" stroke-width="1.1" stroke-linecap="round"/><line x1="50" y1="50" x2="4.96" y2="56.48" stroke="#7A263A" stroke-width="1.1" stroke-linecap="round"/><line x1="50" y1="50" x2="34.08" y2="42.73" stroke="#7A263A" stroke-width="1.1" stroke-linecap="round"/><line x1="50" y1="50" x2="25.4" y2="11.72" stroke="#7A263A" stroke-width="1.1" stroke-linecap="round"/><circle cx="50" cy="50" r="3.0" fill="#7A263A"/><circle cx="50" cy="50" r="1.3" fill="#F7F4EE"/></svg></g>
<g transform="translate(375,720)"><svg width="24" height="24" viewBox="0 0 100 100"><circle cx="50" cy="50" r="48" fill="#7A263A"/><path d="M50 3L53.38 38.49L60.27 34.02L59.07 42.14L92.75 30.48L61.88 48.29L68.81 52.7L60.92 54.98L85.52 80.78L56.49 60.1L55.35 68.23L50 62L36.76 95.1L43.51 60.1L35.64 62.44L39.08 54.98L3.48 56.69L38.12 48.29L32.72 42.11L40.93 42.14L24.59 10.46L46.62 38.49Z" fill="#F7F4EE"/><line x1="50" y1="50" x2="50" y2="4.5" stroke="#7A263A" stroke-width="1.1" stroke-linecap="round"/><line x1="50" y1="50" x2="59.46" y2="35.28" stroke="#7A263A" stroke-width="1.1" stroke-linecap="round"/><line x1="50" y1="50" x2="91.39" y2="31.1" stroke="#7A263A" stroke-width="1.1" stroke-linecap="round"/><line x1="50" y1="50" x2="67.32" y2="52.49" stroke="#7A263A" stroke-width="1.1" stroke-linecap="round"/><line x1="50" y1="50" x2="84.39" y2="79.8" stroke="#7A263A" stroke-width="1.1" stroke-linecap="round"/><line x1="50" y1="50" x2="54.93" y2="66.79" stroke="#7A263A" stroke-width="1.1" stroke-linecap="round"/><line x1="50" y1="50" x2="37.18" y2="93.66" stroke="#7A263A" stroke-width="1.1" stroke-linecap="round"/><line x1="50" y1="50" x2="36.77" y2="61.46" stroke="#7A263A" stroke-width="1.1" stroke-linecap="round"/><line x1="50" y1="50" x2="4.96" y2="56.48" stroke="#7A263A" stroke-width="1.1" stroke-linecap="round"/><line x1="50" y1="50" x2="34.08" y2="42.73" stroke="#7A263A" stroke-width="1.1" stroke-linecap="round"/><line x1="50" y1="50" x2="25.4" y2="11.72" stroke="#7A263A" stroke-width="1.1" stroke-linecap="round"/><circle cx="50" cy="50" r="3.0" fill="#7A263A"/><circle cx="50" cy="50" r="1.3" fill="#F7F4EE"/></svg></g>
<text x="420" y="732" font-size="16" fill="#17324D">11 — deeper alternation, sharp</text>
<text x="420" y="754" font-size="12" fill="#6B7280">c11-sharp-seal.svg</text>
<g transform="translate(30,820)"><svg width="120" height="120" viewBox="0 0 100 100"><circle cx="50" cy="50" r="47" fill="none" stroke="#D9B36C" stroke-width="2"/><path d="M50 4L54.33 36.69L64.11 30.58L61.33 41.77L93.75 35.79L64 50L72.83 57.42L61.33 58.23L77.04 87.21L54.33 63.31L50 74L45.67 63.31L22.96 87.21L38.67 58.23L27.17 57.42L36 50L6.25 35.79L38.67 41.77L35.89 30.58L45.67 36.69Z" fill="#17324D"/><line x1="50" y1="50" x2="50" y2="5.5" stroke="#F7F4EE" stroke-width="1.0" stroke-linecap="round"/><line x1="50" y1="50" x2="63.23" y2="31.8" stroke="#F7F4EE" stroke-width="1.0" stroke-linecap="round"/><line x1="50" y1="50" x2="92.32" y2="36.25" stroke="#F7F4EE" stroke-width="1.0" stroke-linecap="round"/><line x1="50" y1="50" x2="71.4" y2="56.95" stroke="#F7F4EE" stroke-width="1.0" stroke-linecap="round"/><line x1="50" y1="50" x2="76.16" y2="86" stroke="#F7F4EE" stroke-width="1.0" stroke-linecap="round"/><line x1="50" y1="50" x2="50" y2="72.5" stroke="#F7F4EE" stroke-width="1.0" stroke-linecap="round"/><line x1="50" y1="50" x2="23.84" y2="86" stroke="#F7F4EE" stroke-width="1.0" stroke-linecap="round"/><line x1="50" y1="50" x2="28.6" y2="56.95" stroke="#F7F4EE" stroke-width="1.0" stroke-linecap="round"/><line x1="50" y1="50" x2="7.68" y2="36.25" stroke="#F7F4EE" stroke-width="1.0" stroke-linecap="round"/><line x1="50" y1="50" x2="36.77" y2="31.8" stroke="#F7F4EE" stroke-width="1.0" stroke-linecap="round"/><circle cx="50" cy="50" r="4.0" fill="#F7F4EE"/><circle cx="50" cy="50" r="1.6" fill="#17324D"/></svg></g>
<rect x="170" y="820" width="120" height="120" fill="#17324D"/>
<g transform="translate(170,820)"><svg width="120" height="120" viewBox="0 0 100 100"><circle cx="50" cy="50" r="47" fill="none" stroke="#D9B36C" stroke-width="2"/><path d="M50 4L54.33 36.69L64.11 30.58L61.33 41.77L93.75 35.79L64 50L72.83 57.42L61.33 58.23L77.04 87.21L54.33 63.31L50 74L45.67 63.31L22.96 87.21L38.67 58.23L27.17 57.42L36 50L6.25 35.79L38.67 41.77L35.89 30.58L45.67 36.69Z" fill="#17324D"/><line x1="50" y1="50" x2="50" y2="5.5" stroke="#F7F4EE" stroke-width="1.0" stroke-linecap="round"/><line x1="50" y1="50" x2="63.23" y2="31.8" stroke="#F7F4EE" stroke-width="1.0" stroke-linecap="round"/><line x1="50" y1="50" x2="92.32" y2="36.25" stroke="#F7F4EE" stroke-width="1.0" stroke-linecap="round"/><line x1="50" y1="50" x2="71.4" y2="56.95" stroke="#F7F4EE" stroke-width="1.0" stroke-linecap="round"/><line x1="50" y1="50" x2="76.16" y2="86" stroke="#F7F4EE" stroke-width="1.0" stroke-linecap="round"/><line x1="50" y1="50" x2="50" y2="72.5" stroke="#F7F4EE" stroke-width="1.0" stroke-linecap="round"/><line x1="50" y1="50" x2="23.84" y2="86" stroke="#F7F4EE" stroke-width="1.0" stroke-linecap="round"/><line x1="50" y1="50" x2="28.6" y2="56.95" stroke="#F7F4EE" stroke-width="1.0" stroke-linecap="round"/><line x1="50" y1="50" x2="7.68" y2="36.25" stroke="#F7F4EE" stroke-width="1.0" stroke-linecap="round"/><line x1="50" y1="50" x2="36.77" y2="31.8" stroke="#F7F4EE" stroke-width="1.0" stroke-linecap="round"/><circle cx="50" cy="50" r="4.0" fill="#F7F4EE"/><circle cx="50" cy="50" r="1.6" fill="#17324D"/></svg></g>
<g transform="translate(320,862)"><svg width="40" height="40" viewBox="0 0 100 100"><circle cx="50" cy="50" r="47" fill="none" stroke="#D9B36C" stroke-width="2"/><path d="M50 4L54.33 36.69L64.11 30.58L61.33 41.77L93.75 35.79L64 50L72.83 57.42L61.33 58.23L77.04 87.21L54.33 63.31L50 74L45.67 63.31L22.96 87.21L38.67 58.23L27.17 57.42L36 50L6.25 35.79L38.67 41.77L35.89 30.58L45.67 36.69Z" fill="#17324D"/><line x1="50" y1="50" x2="50" y2="5.5" stroke="#F7F4EE" stroke-width="1.0" stroke-linecap="round"/><line x1="50" y1="50" x2="63.23" y2="31.8" stroke="#F7F4EE" stroke-width="1.0" stroke-linecap="round"/><line x1="50" y1="50" x2="92.32" y2="36.25" stroke="#F7F4EE" stroke-width="1.0" stroke-linecap="round"/><line x1="50" y1="50" x2="71.4" y2="56.95" stroke="#F7F4EE" stroke-width="1.0" stroke-linecap="round"/><line x1="50" y1="50" x2="76.16" y2="86" stroke="#F7F4EE" stroke-width="1.0" stroke-linecap="round"/><line x1="50" y1="50" x2="50" y2="72.5" stroke="#F7F4EE" stroke-width="1.0" stroke-linecap="round"/><line x1="50" y1="50" x2="23.84" y2="86" stroke="#F7F4EE" stroke-width="1.0" stroke-linecap="round"/><line x1="50" y1="50" x2="28.6" y2="56.95" stroke="#F7F4EE" stroke-width="1.0" stroke-linecap="round"/><line x1="50" y1="50" x2="7.68" y2="36.25" stroke="#F7F4EE" stroke-width="1.0" stroke-linecap="round"/><line x1="50" y1="50" x2="36.77" y2="31.8" stroke="#F7F4EE" stroke-width="1.0" stroke-linecap="round"/><circle cx="50" cy="50" r="4.0" fill="#F7F4EE"/><circle cx="50" cy="50" r="1.6" fill="#17324D"/></svg></g>
<g transform="translate(375,870)"><svg width="24" height="24" viewBox="0 0 100 100"><circle cx="50" cy="50" r="47" fill="none" stroke="#D9B36C" stroke-width="2"/><path d="M50 4L54.33 36.69L64.11 30.58L61.33 41.77L93.75 35.79L64 50L72.83 57.42L61.33 58.23L77.04 87.21L54.33 63.31L50 74L45.67 63.31L22.96 87.21L38.67 58.23L27.17 57.42L36 50L6.25 35.79L38.67 41.77L35.89 30.58L45.67 36.69Z" fill="#17324D"/><line x1="50" y1="50" x2="50" y2="5.5" stroke="#F7F4EE" stroke-width="1.0" stroke-linecap="round"/><line x1="50" y1="50" x2="63.23" y2="31.8" stroke="#F7F4EE" stroke-width="1.0" stroke-linecap="round"/><line x1="50" y1="50" x2="92.32" y2="36.25" stroke="#F7F4EE" stroke-width="1.0" stroke-linecap="round"/><line x1="50" y1="50" x2="71.4" y2="56.95" stroke="#F7F4EE" stroke-width="1.0" stroke-linecap="round"/><line x1="50" y1="50" x2="76.16" y2="86" stroke="#F7F4EE" stroke-width="1.0" stroke-linecap="round"/><line x1="50" y1="50" x2="50" y2="72.5" stroke="#F7F4EE" stroke-width="1.0" stroke-linecap="round"/><line x1="50" y1="50" x2="23.84" y2="86" stroke="#F7F4EE" stroke-width="1.0" stroke-linecap="round"/><line x1="50" y1="50" x2="28.6" y2="56.95" stroke="#F7F4EE" stroke-width="1.0" stroke-linecap="round"/><line x1="50" y1="50" x2="7.68" y2="36.25" stroke="#F7F4EE" stroke-width="1.0" stroke-linecap="round"/><line x1="50" y1="50" x2="36.77" y2="31.8" stroke="#F7F4EE" stroke-width="1.0" stroke-linecap="round"/><circle cx="50" cy="50" r="4.0" fill="#F7F4EE"/><circle cx="50" cy="50" r="1.6" fill="#17324D"/></svg></g>
<text x="420" y="882" font-size="16" fill="#17324D">10 — provinces, observatory</text>
<text x="420" y="904" font-size="12" fill="#6B7280">c10-alt-obs.svg</text>
<g transform="translate(30,970)"><svg width="120" height="120" viewBox="0 0 100 100"><circle cx="50" cy="50" r="48" fill="#F7F4EE"/><path d="M50 4L53.35 36.41L50 50L46.65 36.41Z" fill="#C2972F"/><path d="M62.08 26.98L59.28 39.52L50 50L53.35 36.41Z" fill="#17324D"/><path d="M87.86 23.87L63.09 45.04L50 50L59.28 39.52Z" fill="#2A7F9E"/><path d="M75.81 46.87L63.9 51.69L50 50L63.09 45.04Z" fill="#7A263A"/><path d="M93.01 66.31L61.52 57.95L50 50L63.9 51.69Z" fill="#3F6F5E"/><path d="M67.24 69.46L56.51 62.4L50 50L61.52 57.95Z" fill="#6B7280"/><path d="M61.01 94.66L50 64L50 50L56.51 62.4Z" fill="#C2972F"/><path d="M43.78 75.24L43.49 62.4L50 50L50 64Z" fill="#17324D"/><path d="M19.5 84.43L38.48 57.95L50 50L43.49 62.4Z" fill="#2A7F9E"/><path d="M25.69 59.22L36.1 51.69L50 50L38.48 57.95Z" fill="#7A263A"/><path d="M4.34 44.46L36.91 45.04L50 50L36.1 51.69Z" fill="#3F6F5E"/><path d="M28.6 35.23L40.72 39.52L50 50L36.91 45.04Z" fill="#6B7280"/><path d="M28.62 9.27L46.65 36.41L50 50L40.72 39.52Z" fill="#C2972F"/><circle cx="50" cy="50" r="3.2" fill="#7A263A"/><circle cx="50" cy="50" r="1.4" fill="#F7F4EE"/></svg></g>
<rect x="170" y="970" width="120" height="120" fill="#17324D"/>
<g transform="translate(170,970)"><svg width="120" height="120" viewBox="0 0 100 100"><circle cx="50" cy="50" r="48" fill="#F7F4EE"/><path d="M50 4L53.35 36.41L50 50L46.65 36.41Z" fill="#C2972F"/><path d="M62.08 26.98L59.28 39.52L50 50L53.35 36.41Z" fill="#17324D"/><path d="M87.86 23.87L63.09 45.04L50 50L59.28 39.52Z" fill="#2A7F9E"/><path d="M75.81 46.87L63.9 51.69L50 50L63.09 45.04Z" fill="#7A263A"/><path d="M93.01 66.31L61.52 57.95L50 50L63.9 51.69Z" fill="#3F6F5E"/><path d="M67.24 69.46L56.51 62.4L50 50L61.52 57.95Z" fill="#6B7280"/><path d="M61.01 94.66L50 64L50 50L56.51 62.4Z" fill="#C2972F"/><path d="M43.78 75.24L43.49 62.4L50 50L50 64Z" fill="#17324D"/><path d="M19.5 84.43L38.48 57.95L50 50L43.49 62.4Z" fill="#2A7F9E"/><path d="M25.69 59.22L36.1 51.69L50 50L38.48 57.95Z" fill="#7A263A"/><path d="M4.34 44.46L36.91 45.04L50 50L36.1 51.69Z" fill="#3F6F5E"/><path d="M28.6 35.23L40.72 39.52L50 50L36.91 45.04Z" fill="#6B7280"/><path d="M28.62 9.27L46.65 36.41L50 50L40.72 39.52Z" fill="#C2972F"/><circle cx="50" cy="50" r="3.2" fill="#7A263A"/><circle cx="50" cy="50" r="1.4" fill="#F7F4EE"/></svg></g>
<g transform="translate(320,1012)"><svg width="40" height="40" viewBox="0 0 100 100"><circle cx="50" cy="50" r="48" fill="#F7F4EE"/><path d="M50 4L53.35 36.41L50 50L46.65 36.41Z" fill="#C2972F"/><path d="M62.08 26.98L59.28 39.52L50 50L53.35 36.41Z" fill="#17324D"/><path d="M87.86 23.87L63.09 45.04L50 50L59.28 39.52Z" fill="#2A7F9E"/><path d="M75.81 46.87L63.9 51.69L50 50L63.09 45.04Z" fill="#7A263A"/><path d="M93.01 66.31L61.52 57.95L50 50L63.9 51.69Z" fill="#3F6F5E"/><path d="M67.24 69.46L56.51 62.4L50 50L61.52 57.95Z" fill="#6B7280"/><path d="M61.01 94.66L50 64L50 50L56.51 62.4Z" fill="#C2972F"/><path d="M43.78 75.24L43.49 62.4L50 50L50 64Z" fill="#17324D"/><path d="M19.5 84.43L38.48 57.95L50 50L43.49 62.4Z" fill="#2A7F9E"/><path d="M25.69 59.22L36.1 51.69L50 50L38.48 57.95Z" fill="#7A263A"/><path d="M4.34 44.46L36.91 45.04L50 50L36.1 51.69Z" fill="#3F6F5E"/><path d="M28.6 35.23L40.72 39.52L50 50L36.91 45.04Z" fill="#6B7280"/><path d="M28.62 9.27L46.65 36.41L50 50L40.72 39.52Z" fill="#C2972F"/><circle cx="50" cy="50" r="3.2" fill="#7A263A"/><circle cx="50" cy="50" r="1.4" fill="#F7F4EE"/></svg></g>
<g transform="translate(375,1020)"><svg width="24" height="24" viewBox="0 0 100 100"><circle cx="50" cy="50" r="48" fill="#F7F4EE"/><path d="M50 4L53.35 36.41L50 50L46.65 36.41Z" fill="#C2972F"/><path d="M62.08 26.98L59.28 39.52L50 50L53.35 36.41Z" fill="#17324D"/><path d="M87.86 23.87L63.09 45.04L50 50L59.28 39.52Z" fill="#2A7F9E"/><path d="M75.81 46.87L63.9 51.69L50 50L63.09 45.04Z" fill="#7A263A"/><path d="M93.01 66.31L61.52 57.95L50 50L63.9 51.69Z" fill="#3F6F5E"/><path d="M67.24 69.46L56.51 62.4L50 50L61.52 57.95Z" fill="#6B7280"/><path d="M61.01 94.66L50 64L50 50L56.51 62.4Z" fill="#C2972F"/><path d="M43.78 75.24L43.49 62.4L50 50L50 64Z" fill="#17324D"/><path d="M19.5 84.43L38.48 57.95L50 50L43.49 62.4Z" fill="#2A7F9E"/><path d="M25.69 59.22L36.1 51.69L50 50L38.48 57.95Z" fill="#7A263A"/><path d="M4.34 44.46L36.91 45.04L50 50L36.1 51.69Z" fill="#3F6F5E"/><path d="M28.6 35.23L40.72 39.52L50 50L36.91 45.04Z" fill="#6B7280"/><path d="M28.62 9.27L46.65 36.41L50 50L40.72 39.52Z" fill="#C2972F"/><circle cx="50" cy="50" r="3.2" fill="#7A263A"/><circle cx="50" cy="50" r="1.4" fill="#F7F4EE"/></svg></g>
<text x="420" y="1032" font-size="16" fill="#17324D">13 — cells-colour compass (hybrid)</text>
<text x="420" y="1054" font-size="12" fill="#6B7280">c13-alt-cells.svg</text>
</svg>