<svg xmlns="http://www.w3.org/2000/svg" viewBox="0 0 760 650" font-family="sans-serif">
<rect width="760" height="650" fill="#fff"/>
<text x="30" y="34" font-size="20" fill="#17324D" font-weight="700">Standalone keepers — skeleton stars</text>
<g transform="translate(30,60)"><svg width="120" height="120" viewBox="0 0 100 100"><path d="M50 -2L58 30.14L50 44L42 30.14Z" fill="#C2972F"/><path d="M89.84 21L66 44L50 44L58 30.14Z" fill="#17324D"/><path d="M89.84 67L58 57.86L50 44L66 44Z" fill="#2A7F9E"/><path d="M50 90L42 57.86L50 44L58 57.86Z" fill="#7A263A"/><path d="M10.16 67L34 44L50 44L42 57.86Z" fill="#3F6F5E"/><path d="M10.16 21L42 30.14L50 44L34 44Z" fill="#6B7280"/><line x1="50" y1="44" x2="58" y2="30.14" stroke="#F7F4EE" stroke-width="1.3" stroke-linecap="round"/><line x1="50" y1="44" x2="66" y2="44" stroke="#F7F4EE" stroke-width="1.3" stroke-linecap="round"/><line x1="50" y1="44" x2="58" y2="57.86" stroke="#F7F4EE" stroke-width="1.3" stroke-linecap="round"/><line x1="50" y1="44" x2="42" y2="57.86" stroke="#F7F4EE" stroke-width="1.3" stroke-linecap="round"/><line x1="50" y1="44" x2="34" y2="44" stroke="#F7F4EE" stroke-width="1.3" stroke-linecap="round"/><line x1="50" y1="44" x2="42" y2="30.14" stroke="#F7F4EE" stroke-width="1.3" stroke-linecap="round"/><circle cx="50" cy="44" r="3" fill="#7A263A"/><circle cx="50" cy="44" r="1.3" fill="#F7F4EE"/></svg></g>
<rect x="170" y="60" width="120" height="120" fill="#17324D"/>
<g transform="translate(170,60)"><svg width="120" height="120" viewBox="0 0 100 100"><path d="M50 -2L58 30.14L50 44L42 30.14Z" fill="#C2972F"/><path d="M89.84 21L66 44L50 44L58 30.14Z" fill="#17324D"/><path d="M89.84 67L58 57.86L50 44L66 44Z" fill="#2A7F9E"/><path d="M50 90L42 57.86L50 44L58 57.86Z" fill="#7A263A"/><path d="M10.16 67L34 44L50 44L42 57.86Z" fill="#3F6F5E"/><path d="M10.16 21L42 30.14L50 44L34 44Z" fill="#6B7280"/><line x1="50" y1="44" x2="58" y2="30.14" stroke="#F7F4EE" stroke-width="1.3" stroke-linecap="round"/><line x1="50" y1="44" x2="66" y2="44" stroke="#F7F4EE" stroke-width="1.3" stroke-linecap="round"/><line x1="50" y1="44" x2="58" y2="57.86" stroke="#F7F4EE" stroke-width="1.3" stroke-linecap="round"/><line x1="50" y1="44" x2="42" y2="57.86" stroke="#F7F4EE" stroke-width="1.3" stroke-linecap="round"/><line x1="50" y1="44" x2="34" y2="44" stroke="#F7F4EE" stroke-width="1.3" stroke-linecap="round"/><line x1="50" y1="44" x2="42" y2="30.14" stroke="#F7F4EE" stroke-width="1.3" stroke-linecap="round"/><circle cx="50" cy="44" r="3" fill="#7A263A"/><circle cx="50" cy="44" r="1.3" fill="#F7F4EE"/></svg></g>
<g transform="translate(320,102)"><svg width="40" height="40" viewBox="0 0 100 100"><path d="M50 -2L58 30.14L50 44L42 30.14Z" fill="#C2972F"/><path d="M89.84 21L66 44L50 44L58 30.14Z" fill="#17324D"/><path d="M89.84 67L58 57.86L50 44L66 44Z" fill="#2A7F9E"/><path d="M50 90L42 57.86L50 44L58 57.86Z" fill="#7A263A"/><path d="M10.16 67L34 44L50 44L42 57.86Z" fill="#3F6F5E"/><path d="M10.16 21L42 30.14L50 44L34 44Z" fill="#6B7280"/><line x1="50" y1="44" x2="58" y2="30.14" stroke="#F7F4EE" stroke-width="1.3" stroke-linecap="round"/><line x1="50" y1="44" x2="66" y2="44" stroke="#F7F4EE" stroke-width="1.3" stroke-linecap="round"/><line x1="50" y1="44" x2="58" y2="57.86" stroke="#F7F4EE" stroke-width="1.3" stroke-linecap="round"/><line x1="50" y1="44" x2="42" y2="57.86" stroke="#F7F4EE" stroke-width="1.3" stroke-linecap="round"/><line x1="50" y1="44" x2="34" y2="44" stroke="#F7F4EE" stroke-width="1.3" stroke-linecap="round"/><line x1="50" y1="44" x2="42" y2="30.14" stroke="#F7F4EE" stroke-width="1.3" stroke-linecap="round"/><circle cx="50" cy="44" r="3" fill="#7A263A"/><circle cx="50" cy="44" r="1.3" fill="#F7F4EE"/></svg></g>
<g transform="translate(375,110)"><svg width="24" height="24" viewBox="0 0 100 100"><path d="M50 -2L58 30.14L50 44L42 30.14Z" fill="#C2972F"/><path d="M89.84 21L66 44L50 44L58 30.14Z" fill="#17324D"/><path d="M89.84 67L58 57.86L50 44L66 44Z" fill="#2A7F9E"/><path d="M50 90L42 57.86L50 44L58 57.86Z" fill="#7A263A"/><path d="M10.16 67L34 44L50 44L42 57.86Z" fill="#3F6F5E"/><path d="M10.16 21L42 30.14L50 44L34 44Z" fill="#6B7280"/><line x1="50" y1="44" x2="58" y2="30.14" stroke="#F7F4EE" stroke-width="1.3" stroke-linecap="round"/><line x1="50" y1="44" x2="66" y2="44" stroke="#F7F4EE" stroke-width="1.3" stroke-linecap="round"/><line x1="50" y1="44" x2="58" y2="57.86" stroke="#F7F4EE" stroke-width="1.3" stroke-linecap="round"/><line x1="50" y1="44" x2="42" y2="57.86" stroke="#F7F4EE" stroke-width="1.3" stroke-linecap="round"/><line x1="50" y1="44" x2="34" y2="44" stroke="#F7F4EE" stroke-width="1.3" stroke-linecap="round"/><line x1="50" y1="44" x2="42" y2="30.14" stroke="#F7F4EE" stroke-width="1.3" stroke-linecap="round"/><circle cx="50" cy="44" r="3" fill="#7A263A"/><circle cx="50" cy="44" r="1.3" fill="#F7F4EE"/></svg></g>
<text x="420" y="124" font-size="15" fill="#17324D">6-point cells star (= the released leaf)</text>
<text x="420" y="144" font-size="11" fill="#6B7280">skel-star6-cells.svg</text>
<g transform="translate(30,210)"><svg width="120" height="120" viewBox="0 0 100 100"><circle cx="50" cy="50" r="48" fill="#17324D"/><path d="M50 6L57 37.88L88.11 28L64 50L88.11 72L57 62.12L50 94L43 62.12L11.89 72L36 50L11.89 28L43 37.88Z" fill="none"/><line x1="50" y1="50" x2="50" y2="7.5" stroke="#F7F4EE" stroke-width="2.2" stroke-linecap="round"/><line x1="50" y1="50" x2="86.81" y2="28.75" stroke="#F7F4EE" stroke-width="2.2" stroke-linecap="round"/><line x1="50" y1="50" x2="86.81" y2="71.25" stroke="#F7F4EE" stroke-width="2.2" stroke-linecap="round"/><line x1="50" y1="50" x2="50" y2="92.5" stroke="#F7F4EE" stroke-width="2.2" stroke-linecap="round"/><line x1="50" y1="50" x2="13.19" y2="71.25" stroke="#F7F4EE" stroke-width="2.2" stroke-linecap="round"/><line x1="50" y1="50" x2="13.19" y2="28.75" stroke="#F7F4EE" stroke-width="2.2" stroke-linecap="round"/><circle cx="50" cy="50" r="4" fill="#F7F4EE"/><circle cx="50" cy="50" r="1.6" fill="none"/></svg></g>
<rect x="170" y="210" width="120" height="120" fill="#17324D"/>
<g transform="translate(170,210)"><svg width="120" height="120" viewBox="0 0 100 100"><circle cx="50" cy="50" r="48" fill="#17324D"/><path d="M50 6L57 37.88L88.11 28L64 50L88.11 72L57 62.12L50 94L43 62.12L11.89 72L36 50L11.89 28L43 37.88Z" fill="none"/><line x1="50" y1="50" x2="50" y2="7.5" stroke="#F7F4EE" stroke-width="2.2" stroke-linecap="round"/><line x1="50" y1="50" x2="86.81" y2="28.75" stroke="#F7F4EE" stroke-width="2.2" stroke-linecap="round"/><line x1="50" y1="50" x2="86.81" y2="71.25" stroke="#F7F4EE" stroke-width="2.2" stroke-linecap="round"/><line x1="50" y1="50" x2="50" y2="92.5" stroke="#F7F4EE" stroke-width="2.2" stroke-linecap="round"/><line x1="50" y1="50" x2="13.19" y2="71.25" stroke="#F7F4EE" stroke-width="2.2" stroke-linecap="round"/><line x1="50" y1="50" x2="13.19" y2="28.75" stroke="#F7F4EE" stroke-width="2.2" stroke-linecap="round"/><circle cx="50" cy="50" r="4" fill="#F7F4EE"/><circle cx="50" cy="50" r="1.6" fill="none"/></svg></g>
<g transform="translate(320,252)"><svg width="40" height="40" viewBox="0 0 100 100"><circle cx="50" cy="50" r="48" fill="#17324D"/><path d="M50 6L57 37.88L88.11 28L64 50L88.11 72L57 62.12L50 94L43 62.12L11.89 72L36 50L11.89 28L43 37.88Z" fill="none"/><line x1="50" y1="50" x2="50" y2="7.5" stroke="#F7F4EE" stroke-width="2.2" stroke-linecap="round"/><line x1="50" y1="50" x2="86.81" y2="28.75" stroke="#F7F4EE" stroke-width="2.2" stroke-linecap="round"/><line x1="50" y1="50" x2="86.81" y2="71.25" stroke="#F7F4EE" stroke-width="2.2" stroke-linecap="round"/><line x1="50" y1="50" x2="50" y2="92.5" stroke="#F7F4EE" stroke-width="2.2" stroke-linecap="round"/><line x1="50" y1="50" x2="13.19" y2="71.25" stroke="#F7F4EE" stroke-width="2.2" stroke-linecap="round"/><line x1="50" y1="50" x2="13.19" y2="28.75" stroke="#F7F4EE" stroke-width="2.2" stroke-linecap="round"/><circle cx="50" cy="50" r="4" fill="#F7F4EE"/><circle cx="50" cy="50" r="1.6" fill="none"/></svg></g>
<g transform="translate(375,260)"><svg width="24" height="24" viewBox="0 0 100 100"><circle cx="50" cy="50" r="48" fill="#17324D"/><path d="M50 6L57 37.88L88.11 28L64 50L88.11 72L57 62.12L50 94L43 62.12L11.89 72L36 50L11.89 28L43 37.88Z" fill="none"/><line x1="50" y1="50" x2="50" y2="7.5" stroke="#F7F4EE" stroke-width="2.2" stroke-linecap="round"/><line x1="50" y1="50" x2="86.81" y2="28.75" stroke="#F7F4EE" stroke-width="2.2" stroke-linecap="round"/><line x1="50" y1="50" x2="86.81" y2="71.25" stroke="#F7F4EE" stroke-width="2.2" stroke-linecap="round"/><line x1="50" y1="50" x2="50" y2="92.5" stroke="#F7F4EE" stroke-width="2.2" stroke-linecap="round"/><line x1="50" y1="50" x2="13.19" y2="71.25" stroke="#F7F4EE" stroke-width="2.2" stroke-linecap="round"/><line x1="50" y1="50" x2="13.19" y2="28.75" stroke="#F7F4EE" stroke-width="2.2" stroke-linecap="round"/><circle cx="50" cy="50" r="4" fill="#F7F4EE"/><circle cx="50" cy="50" r="1.6" fill="none"/></svg></g>
<text x="420" y="274" font-size="15" fill="#17324D">6-ray skeleton star, observatory</text>
<text x="420" y="294" font-size="11" fill="#6B7280">skel-star6-navy.svg</text>
<g transform="translate(30,360)"><svg width="120" height="120" viewBox="0 0 100 100"><path d="M50 3L52.63 39.32L50 50L47.37 39.32Z" fill="#C2972F"/><path d="M58.83 33.18L57.29 41.77L50 50L52.63 39.32Z" fill="#17324D"/><path d="M88.68 23.3L60.29 46.1L50 50L57.29 41.77Z" fill="#2A7F9E"/><path d="M68.86 47.71L60.92 51.33L50 50L60.29 46.1Z" fill="#7A263A"/><path d="M93.95 66.67L59.05 56.25L50 50L60.92 51.33Z" fill="#3F6F5E"/><path d="M62.6 64.22L55.11 59.74L50 50L59.05 56.25Z" fill="#6B7280"/><path d="M61.25 95.63L50 61L50 50L55.11 59.74Z" fill="#C2972F"/><path d="M45.45 68.45L44.89 59.74L50 50L50 61Z" fill="#17324D"/><path d="M18.83 85.18L40.95 56.25L50 50L44.89 59.74Z" fill="#2A7F9E"/><path d="M32.23 56.74L39.08 51.33L50 50L40.95 56.25Z" fill="#7A263A"/><path d="M3.34 44.33L39.71 46.1L50 50L39.08 51.33Z" fill="#3F6F5E"/><path d="M34.36 39.21L42.71 41.77L50 50L39.71 46.1Z" fill="#6B7280"/><path d="M28.16 8.38L47.37 39.32L50 50L42.71 41.77Z" fill="#C2972F"/><line x1="50" y1="50" x2="52.63" y2="39.32" stroke="#F7F4EE" stroke-width="1.3" stroke-linecap="round"/><line x1="50" y1="50" x2="57.29" y2="41.77" stroke="#F7F4EE" stroke-width="1.3" stroke-linecap="round"/><line x1="50" y1="50" x2="60.29" y2="46.1" stroke="#F7F4EE" stroke-width="1.3" stroke-linecap="round"/><line x1="50" y1="50" x2="60.92" y2="51.33" stroke="#F7F4EE" stroke-width="1.3" stroke-linecap="round"/><line x1="50" y1="50" x2="59.05" y2="56.25" stroke="#F7F4EE" stroke-width="1.3" stroke-linecap="round"/><line x1="50" y1="50" x2="55.11" y2="59.74" stroke="#F7F4EE" stroke-width="1.3" stroke-linecap="round"/><line x1="50" y1="50" x2="50" y2="61" stroke="#F7F4EE" stroke-width="1.3" stroke-linecap="round"/><line x1="50" y1="50" x2="44.89" y2="59.74" stroke="#F7F4EE" stroke-width="1.3" stroke-linecap="round"/><line x1="50" y1="50" x2="40.95" y2="56.25" stroke="#F7F4EE" stroke-width="1.3" stroke-linecap="round"/><line x1="50" y1="50" x2="39.08" y2="51.33" stroke="#F7F4EE" stroke-width="1.3" stroke-linecap="round"/><line x1="50" y1="50" x2="39.71" y2="46.1" stroke="#F7F4EE" stroke-width="1.3" stroke-linecap="round"/><line x1="50" y1="50" x2="42.71" y2="41.77" stroke="#F7F4EE" stroke-width="1.3" stroke-linecap="round"/><line x1="50" y1="50" x2="47.37" y2="39.32" stroke="#F7F4EE" stroke-width="1.3" stroke-linecap="round"/><circle cx="50" cy="50" r="3" fill="#7A263A"/><circle cx="50" cy="50" r="1.3" fill="#F7F4EE"/></svg></g>
<rect x="170" y="360" width="120" height="120" fill="#17324D"/>
<g transform="translate(170,360)"><svg width="120" height="120" viewBox="0 0 100 100"><path d="M50 3L52.63 39.32L50 50L47.37 39.32Z" fill="#C2972F"/><path d="M58.83 33.18L57.29 41.77L50 50L52.63 39.32Z" fill="#17324D"/><path d="M88.68 23.3L60.29 46.1L50 50L57.29 41.77Z" fill="#2A7F9E"/><path d="M68.86 47.71L60.92 51.33L50 50L60.29 46.1Z" fill="#7A263A"/><path d="M93.95 66.67L59.05 56.25L50 50L60.92 51.33Z" fill="#3F6F5E"/><path d="M62.6 64.22L55.11 59.74L50 50L59.05 56.25Z" fill="#6B7280"/><path d="M61.25 95.63L50 61L50 50L55.11 59.74Z" fill="#C2972F"/><path d="M45.45 68.45L44.89 59.74L50 50L50 61Z" fill="#17324D"/><path d="M18.83 85.18L40.95 56.25L50 50L44.89 59.74Z" fill="#2A7F9E"/><path d="M32.23 56.74L39.08 51.33L50 50L40.95 56.25Z" fill="#7A263A"/><path d="M3.34 44.33L39.71 46.1L50 50L39.08 51.33Z" fill="#3F6F5E"/><path d="M34.36 39.21L42.71 41.77L50 50L39.71 46.1Z" fill="#6B7280"/><path d="M28.16 8.38L47.37 39.32L50 50L42.71 41.77Z" fill="#C2972F"/><line x1="50" y1="50" x2="52.63" y2="39.32" stroke="#F7F4EE" stroke-width="1.3" stroke-linecap="round"/><line x1="50" y1="50" x2="57.29" y2="41.77" stroke="#F7F4EE" stroke-width="1.3" stroke-linecap="round"/><line x1="50" y1="50" x2="60.29" y2="46.1" stroke="#F7F4EE" stroke-width="1.3" stroke-linecap="round"/><line x1="50" y1="50" x2="60.92" y2="51.33" stroke="#F7F4EE" stroke-width="1.3" stroke-linecap="round"/><line x1="50" y1="50" x2="59.05" y2="56.25" stroke="#F7F4EE" stroke-width="1.3" stroke-linecap="round"/><line x1="50" y1="50" x2="55.11" y2="59.74" stroke="#F7F4EE" stroke-width="1.3" stroke-linecap="round"/><line x1="50" y1="50" x2="50" y2="61" stroke="#F7F4EE" stroke-width="1.3" stroke-linecap="round"/><line x1="50" y1="50" x2="44.89" y2="59.74" stroke="#F7F4EE" stroke-width="1.3" stroke-linecap="round"/><line x1="50" y1="50" x2="40.95" y2="56.25" stroke="#F7F4EE" stroke-width="1.3" stroke-linecap="round"/><line x1="50" y1="50" x2="39.08" y2="51.33" stroke="#F7F4EE" stroke-width="1.3" stroke-linecap="round"/><line x1="50" y1="50" x2="39.71" y2="46.1" stroke="#F7F4EE" stroke-width="1.3" stroke-linecap="round"/><line x1="50" y1="50" x2="42.71" y2="41.77" stroke="#F7F4EE" stroke-width="1.3" stroke-linecap="round"/><line x1="50" y1="50" x2="47.37" y2="39.32" stroke="#F7F4EE" stroke-width="1.3" stroke-linecap="round"/><circle cx="50" cy="50" r="3" fill="#7A263A"/><circle cx="50" cy="50" r="1.3" fill="#F7F4EE"/></svg></g>
<g transform="translate(320,402)"><svg width="40" height="40" viewBox="0 0 100 100"><path d="M50 3L52.63 39.32L50 50L47.37 39.32Z" fill="#C2972F"/><path d="M58.83 33.18L57.29 41.77L50 50L52.63 39.32Z" fill="#17324D"/><path d="M88.68 23.3L60.29 46.1L50 50L57.29 41.77Z" fill="#2A7F9E"/><path d="M68.86 47.71L60.92 51.33L50 50L60.29 46.1Z" fill="#7A263A"/><path d="M93.95 66.67L59.05 56.25L50 50L60.92 51.33Z" fill="#3F6F5E"/><path d="M62.6 64.22L55.11 59.74L50 50L59.05 56.25Z" fill="#6B7280"/><path d="M61.25 95.63L50 61L50 50L55.11 59.74Z" fill="#C2972F"/><path d="M45.45 68.45L44.89 59.74L50 50L50 61Z" fill="#17324D"/><path d="M18.83 85.18L40.95 56.25L50 50L44.89 59.74Z" fill="#2A7F9E"/><path d="M32.23 56.74L39.08 51.33L50 50L40.95 56.25Z" fill="#7A263A"/><path d="M3.34 44.33L39.71 46.1L50 50L39.08 51.33Z" fill="#3F6F5E"/><path d="M34.36 39.21L42.71 41.77L50 50L39.71 46.1Z" fill="#6B7280"/><path d="M28.16 8.38L47.37 39.32L50 50L42.71 41.77Z" fill="#C2972F"/><line x1="50" y1="50" x2="52.63" y2="39.32" stroke="#F7F4EE" stroke-width="1.3" stroke-linecap="round"/><line x1="50" y1="50" x2="57.29" y2="41.77" stroke="#F7F4EE" stroke-width="1.3" stroke-linecap="round"/><line x1="50" y1="50" x2="60.29" y2="46.1" stroke="#F7F4EE" stroke-width="1.3" stroke-linecap="round"/><line x1="50" y1="50" x2="60.92" y2="51.33" stroke="#F7F4EE" stroke-width="1.3" stroke-linecap="round"/><line x1="50" y1="50" x2="59.05" y2="56.25" stroke="#F7F4EE" stroke-width="1.3" stroke-linecap="round"/><line x1="50" y1="50" x2="55.11" y2="59.74" stroke="#F7F4EE" stroke-width="1.3" stroke-linecap="round"/><line x1="50" y1="50" x2="50" y2="61" stroke="#F7F4EE" stroke-width="1.3" stroke-linecap="round"/><line x1="50" y1="50" x2="44.89" y2="59.74" stroke="#F7F4EE" stroke-width="1.3" stroke-linecap="round"/><line x1="50" y1="50" x2="40.95" y2="56.25" stroke="#F7F4EE" stroke-width="1.3" stroke-linecap="round"/><line x1="50" y1="50" x2="39.08" y2="51.33" stroke="#F7F4EE" stroke-width="1.3" stroke-linecap="round"/><line x1="50" y1="50" x2="39.71" y2="46.1" stroke="#F7F4EE" stroke-width="1.3" stroke-linecap="round"/><line x1="50" y1="50" x2="42.71" y2="41.77" stroke="#F7F4EE" stroke-width="1.3" stroke-linecap="round"/><line x1="50" y1="50" x2="47.37" y2="39.32" stroke="#F7F4EE" stroke-width="1.3" stroke-linecap="round"/><circle cx="50" cy="50" r="3" fill="#7A263A"/><circle cx="50" cy="50" r="1.3" fill="#F7F4EE"/></svg></g>
<g transform="translate(375,410)"><svg width="24" height="24" viewBox="0 0 100 100"><path d="M50 3L52.63 39.32L50 50L47.37 39.32Z" fill="#C2972F"/><path d="M58.83 33.18L57.29 41.77L50 50L52.63 39.32Z" fill="#17324D"/><path d="M88.68 23.3L60.29 46.1L50 50L57.29 41.77Z" fill="#2A7F9E"/><path d="M68.86 47.71L60.92 51.33L50 50L60.29 46.1Z" fill="#7A263A"/><path d="M93.95 66.67L59.05 56.25L50 50L60.92 51.33Z" fill="#3F6F5E"/><path d="M62.6 64.22L55.11 59.74L50 50L59.05 56.25Z" fill="#6B7280"/><path d="M61.25 95.63L50 61L50 50L55.11 59.74Z" fill="#C2972F"/><path d="M45.45 68.45L44.89 59.74L50 50L50 61Z" fill="#17324D"/><path d="M18.83 85.18L40.95 56.25L50 50L44.89 59.74Z" fill="#2A7F9E"/><path d="M32.23 56.74L39.08 51.33L50 50L40.95 56.25Z" fill="#7A263A"/><path d="M3.34 44.33L39.71 46.1L50 50L39.08 51.33Z" fill="#3F6F5E"/><path d="M34.36 39.21L42.71 41.77L50 50L39.71 46.1Z" fill="#6B7280"/><path d="M28.16 8.38L47.37 39.32L50 50L42.71 41.77Z" fill="#C2972F"/><line x1="50" y1="50" x2="52.63" y2="39.32" stroke="#F7F4EE" stroke-width="1.3" stroke-linecap="round"/><line x1="50" y1="50" x2="57.29" y2="41.77" stroke="#F7F4EE" stroke-width="1.3" stroke-linecap="round"/><line x1="50" y1="50" x2="60.29" y2="46.1" stroke="#F7F4EE" stroke-width="1.3" stroke-linecap="round"/><line x1="50" y1="50" x2="60.92" y2="51.33" stroke="#F7F4EE" stroke-width="1.3" stroke-linecap="round"/><line x1="50" y1="50" x2="59.05" y2="56.25" stroke="#F7F4EE" stroke-width="1.3" stroke-linecap="round"/><line x1="50" y1="50" x2="55.11" y2="59.74" stroke="#F7F4EE" stroke-width="1.3" stroke-linecap="round"/><line x1="50" y1="50" x2="50" y2="61" stroke="#F7F4EE" stroke-width="1.3" stroke-linecap="round"/><line x1="50" y1="50" x2="44.89" y2="59.74" stroke="#F7F4EE" stroke-width="1.3" stroke-linecap="round"/><line x1="50" y1="50" x2="40.95" y2="56.25" stroke="#F7F4EE" stroke-width="1.3" stroke-linecap="round"/><line x1="50" y1="50" x2="39.08" y2="51.33" stroke="#F7F4EE" stroke-width="1.3" stroke-linecap="round"/><line x1="50" y1="50" x2="39.71" y2="46.1" stroke="#F7F4EE" stroke-width="1.3" stroke-linecap="round"/><line x1="50" y1="50" x2="42.71" y2="41.77" stroke="#F7F4EE" stroke-width="1.3" stroke-linecap="round"/><line x1="50" y1="50" x2="47.37" y2="39.32" stroke="#F7F4EE" stroke-width="1.3" stroke-linecap="round"/><circle cx="50" cy="50" r="3" fill="#7A263A"/><circle cx="50" cy="50" r="1.3" fill="#F7F4EE"/></svg></g>
<text x="420" y="424" font-size="15" fill="#17324D">13-point cells star + white facets</text>
<text x="420" y="444" font-size="11" fill="#6B7280">morph-star13-cells-facets.svg</text>
<g transform="translate(30,510)"><svg width="120" height="120" viewBox="0 0 100 100"><circle cx="50" cy="50" r="47" fill="none" stroke="#D9B36C" stroke-width="2"/><path d="M50 5L52.39 40.29L58.37 34.06L56.63 42.51L87.03 24.44L59.35 46.45L67.87 47.83L59.93 51.21L92.08 65.96L58.23 55.68L61.94 63.47L54.65 58.85L60.77 93.69L50 60L45.69 67.48L45.35 58.85L20.16 83.68L41.77 55.68L33.17 56.38L40.07 51.21L5.33 44.58L40.65 46.45L35.19 39.77L43.37 42.51L29.09 10.15L47.61 40.29Z" fill="#17324D"/><line x1="50" y1="50" x2="50" y2="6.5" stroke="#F7F4EE" stroke-width="1.0" stroke-linecap="round"/><line x1="50" y1="50" x2="57.67" y2="35.39" stroke="#F7F4EE" stroke-width="1.0" stroke-linecap="round"/><line x1="50" y1="50" x2="85.8" y2="25.29" stroke="#F7F4EE" stroke-width="1.0" stroke-linecap="round"/><line x1="50" y1="50" x2="66.38" y2="48.01" stroke="#F7F4EE" stroke-width="1.0" stroke-linecap="round"/><line x1="50" y1="50" x2="90.67" y2="65.43" stroke="#F7F4EE" stroke-width="1.0" stroke-linecap="round"/><line x1="50" y1="50" x2="60.94" y2="62.35" stroke="#F7F4EE" stroke-width="1.0" stroke-linecap="round"/><line x1="50" y1="50" x2="60.41" y2="92.24" stroke="#F7F4EE" stroke-width="1.0" stroke-linecap="round"/><line x1="50" y1="50" x2="46.05" y2="66.02" stroke="#F7F4EE" stroke-width="1.0" stroke-linecap="round"/><line x1="50" y1="50" x2="21.15" y2="82.56" stroke="#F7F4EE" stroke-width="1.0" stroke-linecap="round"/><line x1="50" y1="50" x2="34.57" y2="55.85" stroke="#F7F4EE" stroke-width="1.0" stroke-linecap="round"/><line x1="50" y1="50" x2="6.82" y2="44.76" stroke="#F7F4EE" stroke-width="1.0" stroke-linecap="round"/><line x1="50" y1="50" x2="36.42" y2="40.63" stroke="#F7F4EE" stroke-width="1.0" stroke-linecap="round"/><line x1="50" y1="50" x2="29.78" y2="11.48" stroke="#F7F4EE" stroke-width="1.0" stroke-linecap="round"/><circle cx="50" cy="50" r="4" fill="#F7F4EE"/><circle cx="50" cy="50" r="1.6" fill="#17324D"/></svg></g>
<rect x="170" y="510" width="120" height="120" fill="#17324D"/>
<g transform="translate(170,510)"><svg width="120" height="120" viewBox="0 0 100 100"><circle cx="50" cy="50" r="47" fill="none" stroke="#D9B36C" stroke-width="2"/><path d="M50 5L52.39 40.29L58.37 34.06L56.63 42.51L87.03 24.44L59.35 46.45L67.87 47.83L59.93 51.21L92.08 65.96L58.23 55.68L61.94 63.47L54.65 58.85L60.77 93.69L50 60L45.69 67.48L45.35 58.85L20.16 83.68L41.77 55.68L33.17 56.38L40.07 51.21L5.33 44.58L40.65 46.45L35.19 39.77L43.37 42.51L29.09 10.15L47.61 40.29Z" fill="#17324D"/><line x1="50" y1="50" x2="50" y2="6.5" stroke="#F7F4EE" stroke-width="1.0" stroke-linecap="round"/><line x1="50" y1="50" x2="57.67" y2="35.39" stroke="#F7F4EE" stroke-width="1.0" stroke-linecap="round"/><line x1="50" y1="50" x2="85.8" y2="25.29" stroke="#F7F4EE" stroke-width="1.0" stroke-linecap="round"/><line x1="50" y1="50" x2="66.38" y2="48.01" stroke="#F7F4EE" stroke-width="1.0" stroke-linecap="round"/><line x1="50" y1="50" x2="90.67" y2="65.43" stroke="#F7F4EE" stroke-width="1.0" stroke-linecap="round"/><line x1="50" y1="50" x2="60.94" y2="62.35" stroke="#F7F4EE" stroke-width="1.0" stroke-linecap="round"/><line x1="50" y1="50" x2="60.41" y2="92.24" stroke="#F7F4EE" stroke-width="1.0" stroke-linecap="round"/><line x1="50" y1="50" x2="46.05" y2="66.02" stroke="#F7F4EE" stroke-width="1.0" stroke-linecap="round"/><line x1="50" y1="50" x2="21.15" y2="82.56" stroke="#F7F4EE" stroke-width="1.0" stroke-linecap="round"/><line x1="50" y1="50" x2="34.57" y2="55.85" stroke="#F7F4EE" stroke-width="1.0" stroke-linecap="round"/><line x1="50" y1="50" x2="6.82" y2="44.76" stroke="#F7F4EE" stroke-width="1.0" stroke-linecap="round"/><line x1="50" y1="50" x2="36.42" y2="40.63" stroke="#F7F4EE" stroke-width="1.0" stroke-linecap="round"/><line x1="50" y1="50" x2="29.78" y2="11.48" stroke="#F7F4EE" stroke-width="1.0" stroke-linecap="round"/><circle cx="50" cy="50" r="4" fill="#F7F4EE"/><circle cx="50" cy="50" r="1.6" fill="#17324D"/></svg></g>
<g transform="translate(320,552)"><svg width="40" height="40" viewBox="0 0 100 100"><circle cx="50" cy="50" r="47" fill="none" stroke="#D9B36C" stroke-width="2"/><path d="M50 5L52.39 40.29L58.37 34.06L56.63 42.51L87.03 24.44L59.35 46.45L67.87 47.83L59.93 51.21L92.08 65.96L58.23 55.68L61.94 63.47L54.65 58.85L60.77 93.69L50 60L45.69 67.48L45.35 58.85L20.16 83.68L41.77 55.68L33.17 56.38L40.07 51.21L5.33 44.58L40.65 46.45L35.19 39.77L43.37 42.51L29.09 10.15L47.61 40.29Z" fill="#17324D"/><line x1="50" y1="50" x2="50" y2="6.5" stroke="#F7F4EE" stroke-width="1.0" stroke-linecap="round"/><line x1="50" y1="50" x2="57.67" y2="35.39" stroke="#F7F4EE" stroke-width="1.0" stroke-linecap="round"/><line x1="50" y1="50" x2="85.8" y2="25.29" stroke="#F7F4EE" stroke-width="1.0" stroke-linecap="round"/><line x1="50" y1="50" x2="66.38" y2="48.01" stroke="#F7F4EE" stroke-width="1.0" stroke-linecap="round"/><line x1="50" y1="50" x2="90.67" y2="65.43" stroke="#F7F4EE" stroke-width="1.0" stroke-linecap="round"/><line x1="50" y1="50" x2="60.94" y2="62.35" stroke="#F7F4EE" stroke-width="1.0" stroke-linecap="round"/><line x1="50" y1="50" x2="60.41" y2="92.24" stroke="#F7F4EE" stroke-width="1.0" stroke-linecap="round"/><line x1="50" y1="50" x2="46.05" y2="66.02" stroke="#F7F4EE" stroke-width="1.0" stroke-linecap="round"/><line x1="50" y1="50" x2="21.15" y2="82.56" stroke="#F7F4EE" stroke-width="1.0" stroke-linecap="round"/><line x1="50" y1="50" x2="34.57" y2="55.85" stroke="#F7F4EE" stroke-width="1.0" stroke-linecap="round"/><line x1="50" y1="50" x2="6.82" y2="44.76" stroke="#F7F4EE" stroke-width="1.0" stroke-linecap="round"/><line x1="50" y1="50" x2="36.42" y2="40.63" stroke="#F7F4EE" stroke-width="1.0" stroke-linecap="round"/><line x1="50" y1="50" x2="29.78" y2="11.48" stroke="#F7F4EE" stroke-width="1.0" stroke-linecap="round"/><circle cx="50" cy="50" r="4" fill="#F7F4EE"/><circle cx="50" cy="50" r="1.6" fill="#17324D"/></svg></g>
<g transform="translate(375,560)"><svg width="24" height="24" viewBox="0 0 100 100"><circle cx="50" cy="50" r="47" fill="none" stroke="#D9B36C" stroke-width="2"/><path d="M50 5L52.39 40.29L58.37 34.06L56.63 42.51L87.03 24.44L59.35 46.45L67.87 47.83L59.93 51.21L92.08 65.96L58.23 55.68L61.94 63.47L54.65 58.85L60.77 93.69L50 60L45.69 67.48L45.35 58.85L20.16 83.68L41.77 55.68L33.17 56.38L40.07 51.21L5.33 44.58L40.65 46.45L35.19 39.77L43.37 42.51L29.09 10.15L47.61 40.29Z" fill="#17324D"/><line x1="50" y1="50" x2="50" y2="6.5" stroke="#F7F4EE" stroke-width="1.0" stroke-linecap="round"/><line x1="50" y1="50" x2="57.67" y2="35.39" stroke="#F7F4EE" stroke-width="1.0" stroke-linecap="round"/><line x1="50" y1="50" x2="85.8" y2="25.29" stroke="#F7F4EE" stroke-width="1.0" stroke-linecap="round"/><line x1="50" y1="50" x2="66.38" y2="48.01" stroke="#F7F4EE" stroke-width="1.0" stroke-linecap="round"/><line x1="50" y1="50" x2="90.67" y2="65.43" stroke="#F7F4EE" stroke-width="1.0" stroke-linecap="round"/><line x1="50" y1="50" x2="60.94" y2="62.35" stroke="#F7F4EE" stroke-width="1.0" stroke-linecap="round"/><line x1="50" y1="50" x2="60.41" y2="92.24" stroke="#F7F4EE" stroke-width="1.0" stroke-linecap="round"/><line x1="50" y1="50" x2="46.05" y2="66.02" stroke="#F7F4EE" stroke-width="1.0" stroke-linecap="round"/><line x1="50" y1="50" x2="21.15" y2="82.56" stroke="#F7F4EE" stroke-width="1.0" stroke-linecap="round"/><line x1="50" y1="50" x2="34.57" y2="55.85" stroke="#F7F4EE" stroke-width="1.0" stroke-linecap="round"/><line x1="50" y1="50" x2="6.82" y2="44.76" stroke="#F7F4EE" stroke-width="1.0" stroke-linecap="round"/><line x1="50" y1="50" x2="36.42" y2="40.63" stroke="#F7F4EE" stroke-width="1.0" stroke-linecap="round"/><line x1="50" y1="50" x2="29.78" y2="11.48" stroke="#F7F4EE" stroke-width="1.0" stroke-linecap="round"/><circle cx="50" cy="50" r="4" fill="#F7F4EE"/><circle cx="50" cy="50" r="1.6" fill="#17324D"/></svg></g>
<text x="420" y="574" font-size="15" fill="#17324D">13-point observatory + skeleton facets</text>
<text x="420" y="594" font-size="11" fill="#6B7280">morph-star13-obs-facets.svg</text>
</svg>