<svg xmlns="http://www.w3.org/2000/svg" viewBox="0 0 780 938" font-family="sans-serif">
<rect width="780" height="938" fill="#fff"/>
<text x="30" y="34" font-size="20" fill="#17324D" font-weight="700">12-point star — locked to the leaf rays</text>
<g transform="translate(30,58)"><svg width="118" height="118" viewBox="0 0 100 100"><circle cx="50" cy="44" r="46" fill="#F2EEE6"/><path d="M 50.0 4.0 Q 50.0 4.0 50.4 5.1 L 51.9 9.2 Q 53.2 13.0 55.0 11.5 L 56.6 10.3 Q 57.5 9.5 57.6 10.7 L 57.9 15.0 Q 58.2 19.0 60.4 17.5 L 62.5 16.2 Q 63.5 15.5 63.3 16.7 L 61.7 26.1 Q 60.5 33.0 64.5 29.6 L 69.1 25.8 Q 70.0 25.0 70.3 26.1 L 70.9 27.9 Q 71.5 30.0 74.2 27.0 L 82.2 17.9 Q 83.0 17.0 83.1 18.2 L 83.6 22.2 Q 84.0 26.0 86.1 25.6 L 87.8 25.2 Q 89.0 25.0 88.4 26.0 L 83.2 34.1 Q 79.5 40.0 83.9 41.3 L 88.8 42.7 Q 90.0 43.0 89.3 44.0 L 86.8 47.6 Q 84.5 51.0 85.1 51.8 L 85.4 52.2 Q 86.0 53.0 84.9 53.3 L 73.7 56.7 Q 66.0 59.0 60.1 59.4 L 54.0 59.9 Q 52.0 60.0 51.7 61.3 L 51.4 62.2 Q 51.2 63.0 51.2 63.8 L 50.8 87.2 Q 50.8 88.0 50.1 88.0 L 49.9 88.0 Q 49.2 88.0 49.2 87.2 L 48.8 63.8 Q 48.8 63.0 48.6 62.2 L 48.3 61.3 Q 48.0 60.0 46.0 59.9 L 39.9 59.4 Q 34.0 59.0 26.3 56.7 L 15.1 53.3 Q 14.0 53.0 14.6 52.2 L 14.9 51.8 Q 15.5 51.0 13.2 47.6 L 10.7 44.0 Q 10.0 43.0 11.2 42.7 L 16.1 41.3 Q 20.5 40.0 16.8 34.1 L 11.6 26.0 Q 11.0 25.0 12.2 25.2 L 13.9 25.6 Q 16.0 26.0 16.4 22.2 L 16.9 18.2 Q 17.0 17.0 17.8 17.9 L 25.8 27.0 Q 28.5 30.0 29.1 27.9 L 29.7 26.1 Q 30.0 25.0 30.9 25.8 L 35.5 29.6 Q 39.5 33.0 38.3 26.1 L 36.7 16.7 Q 36.5 15.5 37.5 16.2 L 39.6 17.5 Q 41.8 19.0 42.1 15.0 L 42.4 10.7 Q 42.5 9.5 43.4 10.3 L 45.0 11.5 Q 46.8 13.0 48.1 9.2 L 49.6 5.1 Q 50.0 4.0 50.0 4.0 Z" fill="#6B7280" opacity="0.18"/><line x1="50" y1="44" x2="35.45" y2="17.77" stroke="#7A263A" stroke-width="1.4" stroke-dasharray="2 1.6" stroke-linecap="round"/><line x1="50" y1="44" x2="65" y2="18.02" stroke="#7A263A" stroke-width="1.4" stroke-dasharray="2 1.6" stroke-linecap="round"/><line x1="50" y1="44" x2="79.34" y2="37.75" stroke="#7A263A" stroke-width="1.4" stroke-dasharray="2 1.6" stroke-linecap="round"/><line x1="50" y1="44" x2="70.08" y2="66.29" stroke="#7A263A" stroke-width="1.4" stroke-dasharray="2 1.6" stroke-linecap="round"/><line x1="50" y1="44" x2="30.32" y2="66.65" stroke="#7A263A" stroke-width="1.4" stroke-dasharray="2 1.6" stroke-linecap="round"/><line x1="50" y1="44" x2="20.66" y2="37.75" stroke="#7A263A" stroke-width="1.4" stroke-dasharray="2 1.6" stroke-linecap="round"/><path d="M50.37 0L53.42 31.46L65 18.02L58.7 34.34L85.59 18.13L61.87 38.71L79.34 37.75L62.98 44.67L91.85 57.58L60.9 51.08L70.08 66.29L54.71 56.11L50.39 88L45.5 56.2L30.32 66.65L39.19 51.22L8.27 57.95L37.02 44.73L20.66 37.75L38.15 38.66L14.63 17.82L41.43 34.23L35.45 17.77L46.8 31.4Z" fill="none" stroke="#17324D" stroke-width="1.4"/><circle cx="65" cy="18.02" r="1.8" fill="#7A263A"/><circle cx="79.34" cy="37.75" r="1.8" fill="#7A263A"/><circle cx="70.08" cy="66.29" r="1.8" fill="#7A263A"/><circle cx="30.32" cy="66.65" r="1.8" fill="#7A263A"/><circle cx="20.66" cy="37.75" r="1.8" fill="#7A263A"/><circle cx="35.45" cy="17.77" r="1.8" fill="#7A263A"/></svg></g>
<rect x="168" y="58" width="118" height="118" fill="#17324D"/>
<g transform="translate(168,58)"><svg width="118" height="118" viewBox="0 0 100 100"><circle cx="50" cy="44" r="46" fill="#F2EEE6"/><path d="M 50.0 4.0 Q 50.0 4.0 50.4 5.1 L 51.9 9.2 Q 53.2 13.0 55.0 11.5 L 56.6 10.3 Q 57.5 9.5 57.6 10.7 L 57.9 15.0 Q 58.2 19.0 60.4 17.5 L 62.5 16.2 Q 63.5 15.5 63.3 16.7 L 61.7 26.1 Q 60.5 33.0 64.5 29.6 L 69.1 25.8 Q 70.0 25.0 70.3 26.1 L 70.9 27.9 Q 71.5 30.0 74.2 27.0 L 82.2 17.9 Q 83.0 17.0 83.1 18.2 L 83.6 22.2 Q 84.0 26.0 86.1 25.6 L 87.8 25.2 Q 89.0 25.0 88.4 26.0 L 83.2 34.1 Q 79.5 40.0 83.9 41.3 L 88.8 42.7 Q 90.0 43.0 89.3 44.0 L 86.8 47.6 Q 84.5 51.0 85.1 51.8 L 85.4 52.2 Q 86.0 53.0 84.9 53.3 L 73.7 56.7 Q 66.0 59.0 60.1 59.4 L 54.0 59.9 Q 52.0 60.0 51.7 61.3 L 51.4 62.2 Q 51.2 63.0 51.2 63.8 L 50.8 87.2 Q 50.8 88.0 50.1 88.0 L 49.9 88.0 Q 49.2 88.0 49.2 87.2 L 48.8 63.8 Q 48.8 63.0 48.6 62.2 L 48.3 61.3 Q 48.0 60.0 46.0 59.9 L 39.9 59.4 Q 34.0 59.0 26.3 56.7 L 15.1 53.3 Q 14.0 53.0 14.6 52.2 L 14.9 51.8 Q 15.5 51.0 13.2 47.6 L 10.7 44.0 Q 10.0 43.0 11.2 42.7 L 16.1 41.3 Q 20.5 40.0 16.8 34.1 L 11.6 26.0 Q 11.0 25.0 12.2 25.2 L 13.9 25.6 Q 16.0 26.0 16.4 22.2 L 16.9 18.2 Q 17.0 17.0 17.8 17.9 L 25.8 27.0 Q 28.5 30.0 29.1 27.9 L 29.7 26.1 Q 30.0 25.0 30.9 25.8 L 35.5 29.6 Q 39.5 33.0 38.3 26.1 L 36.7 16.7 Q 36.5 15.5 37.5 16.2 L 39.6 17.5 Q 41.8 19.0 42.1 15.0 L 42.4 10.7 Q 42.5 9.5 43.4 10.3 L 45.0 11.5 Q 46.8 13.0 48.1 9.2 L 49.6 5.1 Q 50.0 4.0 50.0 4.0 Z" fill="#6B7280" opacity="0.18"/><line x1="50" y1="44" x2="35.45" y2="17.77" stroke="#7A263A" stroke-width="1.4" stroke-dasharray="2 1.6" stroke-linecap="round"/><line x1="50" y1="44" x2="65" y2="18.02" stroke="#7A263A" stroke-width="1.4" stroke-dasharray="2 1.6" stroke-linecap="round"/><line x1="50" y1="44" x2="79.34" y2="37.75" stroke="#7A263A" stroke-width="1.4" stroke-dasharray="2 1.6" stroke-linecap="round"/><line x1="50" y1="44" x2="70.08" y2="66.29" stroke="#7A263A" stroke-width="1.4" stroke-dasharray="2 1.6" stroke-linecap="round"/><line x1="50" y1="44" x2="30.32" y2="66.65" stroke="#7A263A" stroke-width="1.4" stroke-dasharray="2 1.6" stroke-linecap="round"/><line x1="50" y1="44" x2="20.66" y2="37.75" stroke="#7A263A" stroke-width="1.4" stroke-dasharray="2 1.6" stroke-linecap="round"/><path d="M50.37 0L53.42 31.46L65 18.02L58.7 34.34L85.59 18.13L61.87 38.71L79.34 37.75L62.98 44.67L91.85 57.58L60.9 51.08L70.08 66.29L54.71 56.11L50.39 88L45.5 56.2L30.32 66.65L39.19 51.22L8.27 57.95L37.02 44.73L20.66 37.75L38.15 38.66L14.63 17.82L41.43 34.23L35.45 17.77L46.8 31.4Z" fill="none" stroke="#17324D" stroke-width="1.4"/><circle cx="65" cy="18.02" r="1.8" fill="#7A263A"/><circle cx="79.34" cy="37.75" r="1.8" fill="#7A263A"/><circle cx="70.08" cy="66.29" r="1.8" fill="#7A263A"/><circle cx="30.32" cy="66.65" r="1.8" fill="#7A263A"/><circle cx="20.66" cy="37.75" r="1.8" fill="#7A263A"/><circle cx="35.45" cy="17.77" r="1.8" fill="#7A263A"/></svg></g>
<g transform="translate(316,98)"><svg width="40" height="40" viewBox="0 0 100 100"><circle cx="50" cy="44" r="46" fill="#F2EEE6"/><path d="M 50.0 4.0 Q 50.0 4.0 50.4 5.1 L 51.9 9.2 Q 53.2 13.0 55.0 11.5 L 56.6 10.3 Q 57.5 9.5 57.6 10.7 L 57.9 15.0 Q 58.2 19.0 60.4 17.5 L 62.5 16.2 Q 63.5 15.5 63.3 16.7 L 61.7 26.1 Q 60.5 33.0 64.5 29.6 L 69.1 25.8 Q 70.0 25.0 70.3 26.1 L 70.9 27.9 Q 71.5 30.0 74.2 27.0 L 82.2 17.9 Q 83.0 17.0 83.1 18.2 L 83.6 22.2 Q 84.0 26.0 86.1 25.6 L 87.8 25.2 Q 89.0 25.0 88.4 26.0 L 83.2 34.1 Q 79.5 40.0 83.9 41.3 L 88.8 42.7 Q 90.0 43.0 89.3 44.0 L 86.8 47.6 Q 84.5 51.0 85.1 51.8 L 85.4 52.2 Q 86.0 53.0 84.9 53.3 L 73.7 56.7 Q 66.0 59.0 60.1 59.4 L 54.0 59.9 Q 52.0 60.0 51.7 61.3 L 51.4 62.2 Q 51.2 63.0 51.2 63.8 L 50.8 87.2 Q 50.8 88.0 50.1 88.0 L 49.9 88.0 Q 49.2 88.0 49.2 87.2 L 48.8 63.8 Q 48.8 63.0 48.6 62.2 L 48.3 61.3 Q 48.0 60.0 46.0 59.9 L 39.9 59.4 Q 34.0 59.0 26.3 56.7 L 15.1 53.3 Q 14.0 53.0 14.6 52.2 L 14.9 51.8 Q 15.5 51.0 13.2 47.6 L 10.7 44.0 Q 10.0 43.0 11.2 42.7 L 16.1 41.3 Q 20.5 40.0 16.8 34.1 L 11.6 26.0 Q 11.0 25.0 12.2 25.2 L 13.9 25.6 Q 16.0 26.0 16.4 22.2 L 16.9 18.2 Q 17.0 17.0 17.8 17.9 L 25.8 27.0 Q 28.5 30.0 29.1 27.9 L 29.7 26.1 Q 30.0 25.0 30.9 25.8 L 35.5 29.6 Q 39.5 33.0 38.3 26.1 L 36.7 16.7 Q 36.5 15.5 37.5 16.2 L 39.6 17.5 Q 41.8 19.0 42.1 15.0 L 42.4 10.7 Q 42.5 9.5 43.4 10.3 L 45.0 11.5 Q 46.8 13.0 48.1 9.2 L 49.6 5.1 Q 50.0 4.0 50.0 4.0 Z" fill="#6B7280" opacity="0.18"/><line x1="50" y1="44" x2="35.45" y2="17.77" stroke="#7A263A" stroke-width="1.4" stroke-dasharray="2 1.6" stroke-linecap="round"/><line x1="50" y1="44" x2="65" y2="18.02" stroke="#7A263A" stroke-width="1.4" stroke-dasharray="2 1.6" stroke-linecap="round"/><line x1="50" y1="44" x2="79.34" y2="37.75" stroke="#7A263A" stroke-width="1.4" stroke-dasharray="2 1.6" stroke-linecap="round"/><line x1="50" y1="44" x2="70.08" y2="66.29" stroke="#7A263A" stroke-width="1.4" stroke-dasharray="2 1.6" stroke-linecap="round"/><line x1="50" y1="44" x2="30.32" y2="66.65" stroke="#7A263A" stroke-width="1.4" stroke-dasharray="2 1.6" stroke-linecap="round"/><line x1="50" y1="44" x2="20.66" y2="37.75" stroke="#7A263A" stroke-width="1.4" stroke-dasharray="2 1.6" stroke-linecap="round"/><path d="M50.37 0L53.42 31.46L65 18.02L58.7 34.34L85.59 18.13L61.87 38.71L79.34 37.75L62.98 44.67L91.85 57.58L60.9 51.08L70.08 66.29L54.71 56.11L50.39 88L45.5 56.2L30.32 66.65L39.19 51.22L8.27 57.95L37.02 44.73L20.66 37.75L38.15 38.66L14.63 17.82L41.43 34.23L35.45 17.77L46.8 31.4Z" fill="none" stroke="#17324D" stroke-width="1.4"/><circle cx="65" cy="18.02" r="1.8" fill="#7A263A"/><circle cx="79.34" cy="37.75" r="1.8" fill="#7A263A"/><circle cx="70.08" cy="66.29" r="1.8" fill="#7A263A"/><circle cx="30.32" cy="66.65" r="1.8" fill="#7A263A"/><circle cx="20.66" cy="37.75" r="1.8" fill="#7A263A"/><circle cx="35.45" cy="17.77" r="1.8" fill="#7A263A"/></svg></g>
<g transform="translate(372,106)"><svg width="24" height="24" viewBox="0 0 100 100"><circle cx="50" cy="44" r="46" fill="#F2EEE6"/><path d="M 50.0 4.0 Q 50.0 4.0 50.4 5.1 L 51.9 9.2 Q 53.2 13.0 55.0 11.5 L 56.6 10.3 Q 57.5 9.5 57.6 10.7 L 57.9 15.0 Q 58.2 19.0 60.4 17.5 L 62.5 16.2 Q 63.5 15.5 63.3 16.7 L 61.7 26.1 Q 60.5 33.0 64.5 29.6 L 69.1 25.8 Q 70.0 25.0 70.3 26.1 L 70.9 27.9 Q 71.5 30.0 74.2 27.0 L 82.2 17.9 Q 83.0 17.0 83.1 18.2 L 83.6 22.2 Q 84.0 26.0 86.1 25.6 L 87.8 25.2 Q 89.0 25.0 88.4 26.0 L 83.2 34.1 Q 79.5 40.0 83.9 41.3 L 88.8 42.7 Q 90.0 43.0 89.3 44.0 L 86.8 47.6 Q 84.5 51.0 85.1 51.8 L 85.4 52.2 Q 86.0 53.0 84.9 53.3 L 73.7 56.7 Q 66.0 59.0 60.1 59.4 L 54.0 59.9 Q 52.0 60.0 51.7 61.3 L 51.4 62.2 Q 51.2 63.0 51.2 63.8 L 50.8 87.2 Q 50.8 88.0 50.1 88.0 L 49.9 88.0 Q 49.2 88.0 49.2 87.2 L 48.8 63.8 Q 48.8 63.0 48.6 62.2 L 48.3 61.3 Q 48.0 60.0 46.0 59.9 L 39.9 59.4 Q 34.0 59.0 26.3 56.7 L 15.1 53.3 Q 14.0 53.0 14.6 52.2 L 14.9 51.8 Q 15.5 51.0 13.2 47.6 L 10.7 44.0 Q 10.0 43.0 11.2 42.7 L 16.1 41.3 Q 20.5 40.0 16.8 34.1 L 11.6 26.0 Q 11.0 25.0 12.2 25.2 L 13.9 25.6 Q 16.0 26.0 16.4 22.2 L 16.9 18.2 Q 17.0 17.0 17.8 17.9 L 25.8 27.0 Q 28.5 30.0 29.1 27.9 L 29.7 26.1 Q 30.0 25.0 30.9 25.8 L 35.5 29.6 Q 39.5 33.0 38.3 26.1 L 36.7 16.7 Q 36.5 15.5 37.5 16.2 L 39.6 17.5 Q 41.8 19.0 42.1 15.0 L 42.4 10.7 Q 42.5 9.5 43.4 10.3 L 45.0 11.5 Q 46.8 13.0 48.1 9.2 L 49.6 5.1 Q 50.0 4.0 50.0 4.0 Z" fill="#6B7280" opacity="0.18"/><line x1="50" y1="44" x2="35.45" y2="17.77" stroke="#7A263A" stroke-width="1.4" stroke-dasharray="2 1.6" stroke-linecap="round"/><line x1="50" y1="44" x2="65" y2="18.02" stroke="#7A263A" stroke-width="1.4" stroke-dasharray="2 1.6" stroke-linecap="round"/><line x1="50" y1="44" x2="79.34" y2="37.75" stroke="#7A263A" stroke-width="1.4" stroke-dasharray="2 1.6" stroke-linecap="round"/><line x1="50" y1="44" x2="70.08" y2="66.29" stroke="#7A263A" stroke-width="1.4" stroke-dasharray="2 1.6" stroke-linecap="round"/><line x1="50" y1="44" x2="30.32" y2="66.65" stroke="#7A263A" stroke-width="1.4" stroke-dasharray="2 1.6" stroke-linecap="round"/><line x1="50" y1="44" x2="20.66" y2="37.75" stroke="#7A263A" stroke-width="1.4" stroke-dasharray="2 1.6" stroke-linecap="round"/><path d="M50.37 0L53.42 31.46L65 18.02L58.7 34.34L85.59 18.13L61.87 38.71L79.34 37.75L62.98 44.67L91.85 57.58L60.9 51.08L70.08 66.29L54.71 56.11L50.39 88L45.5 56.2L30.32 66.65L39.19 51.22L8.27 57.95L37.02 44.73L20.66 37.75L38.15 38.66L14.63 17.82L41.43 34.23L35.45 17.77L46.8 31.4Z" fill="none" stroke="#17324D" stroke-width="1.4"/><circle cx="65" cy="18.02" r="1.8" fill="#7A263A"/><circle cx="79.34" cy="37.75" r="1.8" fill="#7A263A"/><circle cx="70.08" cy="66.29" r="1.8" fill="#7A263A"/><circle cx="30.32" cy="66.65" r="1.8" fill="#7A263A"/><circle cx="20.66" cy="37.75" r="1.8" fill="#7A263A"/><circle cx="35.45" cy="17.77" r="1.8" fill="#7A263A"/></svg></g>
<text x="418" y="120" font-size="15" fill="#17324D">ALIGNMENT: 6 short tips sit on the leaf rays (dashed)</text>
<text x="418" y="140" font-size="11" fill="#6B7280">star12-proof.svg</text>
<g transform="translate(30,206)"><svg width="118" height="118" viewBox="0 0 100 100"><circle cx="50" cy="50" r="48" fill="#7A263A"/><path d="M50.4 3L53.68 36.49L65 24.02L59.37 39.59L88.01 22.36L62.79 44.3L79.34 43.75L63.98 50.73L94.71 64.51L61.74 57.62L70.08 72.29L55.08 63.05L50.42 97L45.16 63.14L30.32 72.65L38.36 57.78L5.43 64.91L36.02 50.79L20.66 43.75L37.24 44.25L12.22 22.04L40.77 39.48L35.45 23.77L46.55 36.43Z" fill="#F7F4EE"/><line x1="50" y1="50" x2="50.39" y2="4.5" stroke="#7A263A" stroke-width="1.0" stroke-linecap="round"/><line x1="50" y1="50" x2="64.25" y2="25.32" stroke="#7A263A" stroke-width="1.0" stroke-linecap="round"/><line x1="50" y1="50" x2="86.8" y2="23.24" stroke="#7A263A" stroke-width="1.0" stroke-linecap="round"/><line x1="50" y1="50" x2="77.87" y2="44.06" stroke="#7A263A" stroke-width="1.0" stroke-linecap="round"/><line x1="50" y1="50" x2="93.28" y2="64.04" stroke="#7A263A" stroke-width="1.0" stroke-linecap="round"/><line x1="50" y1="50" x2="69.08" y2="71.17" stroke="#7A263A" stroke-width="1.0" stroke-linecap="round"/><line x1="50" y1="50" x2="50.41" y2="95.5" stroke="#7A263A" stroke-width="1.0" stroke-linecap="round"/><line x1="50" y1="50" x2="31.31" y2="71.51" stroke="#7A263A" stroke-width="1.0" stroke-linecap="round"/><line x1="50" y1="50" x2="6.85" y2="64.43" stroke="#7A263A" stroke-width="1.0" stroke-linecap="round"/><line x1="50" y1="50" x2="22.13" y2="44.06" stroke="#7A263A" stroke-width="1.0" stroke-linecap="round"/><line x1="50" y1="50" x2="13.43" y2="22.93" stroke="#7A263A" stroke-width="1.0" stroke-linecap="round"/><line x1="50" y1="50" x2="36.17" y2="25.08" stroke="#7A263A" stroke-width="1.0" stroke-linecap="round"/><circle cx="50" cy="50" r="2.8" fill="#7A263A"/><circle cx="50" cy="50" r="1.2" fill="#F7F4EE"/></svg></g>
<rect x="168" y="206" width="118" height="118" fill="#17324D"/>
<g transform="translate(168,206)"><svg width="118" height="118" viewBox="0 0 100 100"><circle cx="50" cy="50" r="48" fill="#7A263A"/><path d="M50.4 3L53.68 36.49L65 24.02L59.37 39.59L88.01 22.36L62.79 44.3L79.34 43.75L63.98 50.73L94.71 64.51L61.74 57.62L70.08 72.29L55.08 63.05L50.42 97L45.16 63.14L30.32 72.65L38.36 57.78L5.43 64.91L36.02 50.79L20.66 43.75L37.24 44.25L12.22 22.04L40.77 39.48L35.45 23.77L46.55 36.43Z" fill="#F7F4EE"/><line x1="50" y1="50" x2="50.39" y2="4.5" stroke="#7A263A" stroke-width="1.0" stroke-linecap="round"/><line x1="50" y1="50" x2="64.25" y2="25.32" stroke="#7A263A" stroke-width="1.0" stroke-linecap="round"/><line x1="50" y1="50" x2="86.8" y2="23.24" stroke="#7A263A" stroke-width="1.0" stroke-linecap="round"/><line x1="50" y1="50" x2="77.87" y2="44.06" stroke="#7A263A" stroke-width="1.0" stroke-linecap="round"/><line x1="50" y1="50" x2="93.28" y2="64.04" stroke="#7A263A" stroke-width="1.0" stroke-linecap="round"/><line x1="50" y1="50" x2="69.08" y2="71.17" stroke="#7A263A" stroke-width="1.0" stroke-linecap="round"/><line x1="50" y1="50" x2="50.41" y2="95.5" stroke="#7A263A" stroke-width="1.0" stroke-linecap="round"/><line x1="50" y1="50" x2="31.31" y2="71.51" stroke="#7A263A" stroke-width="1.0" stroke-linecap="round"/><line x1="50" y1="50" x2="6.85" y2="64.43" stroke="#7A263A" stroke-width="1.0" stroke-linecap="round"/><line x1="50" y1="50" x2="22.13" y2="44.06" stroke="#7A263A" stroke-width="1.0" stroke-linecap="round"/><line x1="50" y1="50" x2="13.43" y2="22.93" stroke="#7A263A" stroke-width="1.0" stroke-linecap="round"/><line x1="50" y1="50" x2="36.17" y2="25.08" stroke="#7A263A" stroke-width="1.0" stroke-linecap="round"/><circle cx="50" cy="50" r="2.8" fill="#7A263A"/><circle cx="50" cy="50" r="1.2" fill="#F7F4EE"/></svg></g>
<g transform="translate(316,246)"><svg width="40" height="40" viewBox="0 0 100 100"><circle cx="50" cy="50" r="48" fill="#7A263A"/><path d="M50.4 3L53.68 36.49L65 24.02L59.37 39.59L88.01 22.36L62.79 44.3L79.34 43.75L63.98 50.73L94.71 64.51L61.74 57.62L70.08 72.29L55.08 63.05L50.42 97L45.16 63.14L30.32 72.65L38.36 57.78L5.43 64.91L36.02 50.79L20.66 43.75L37.24 44.25L12.22 22.04L40.77 39.48L35.45 23.77L46.55 36.43Z" fill="#F7F4EE"/><line x1="50" y1="50" x2="50.39" y2="4.5" stroke="#7A263A" stroke-width="1.0" stroke-linecap="round"/><line x1="50" y1="50" x2="64.25" y2="25.32" stroke="#7A263A" stroke-width="1.0" stroke-linecap="round"/><line x1="50" y1="50" x2="86.8" y2="23.24" stroke="#7A263A" stroke-width="1.0" stroke-linecap="round"/><line x1="50" y1="50" x2="77.87" y2="44.06" stroke="#7A263A" stroke-width="1.0" stroke-linecap="round"/><line x1="50" y1="50" x2="93.28" y2="64.04" stroke="#7A263A" stroke-width="1.0" stroke-linecap="round"/><line x1="50" y1="50" x2="69.08" y2="71.17" stroke="#7A263A" stroke-width="1.0" stroke-linecap="round"/><line x1="50" y1="50" x2="50.41" y2="95.5" stroke="#7A263A" stroke-width="1.0" stroke-linecap="round"/><line x1="50" y1="50" x2="31.31" y2="71.51" stroke="#7A263A" stroke-width="1.0" stroke-linecap="round"/><line x1="50" y1="50" x2="6.85" y2="64.43" stroke="#7A263A" stroke-width="1.0" stroke-linecap="round"/><line x1="50" y1="50" x2="22.13" y2="44.06" stroke="#7A263A" stroke-width="1.0" stroke-linecap="round"/><line x1="50" y1="50" x2="13.43" y2="22.93" stroke="#7A263A" stroke-width="1.0" stroke-linecap="round"/><line x1="50" y1="50" x2="36.17" y2="25.08" stroke="#7A263A" stroke-width="1.0" stroke-linecap="round"/><circle cx="50" cy="50" r="2.8" fill="#7A263A"/><circle cx="50" cy="50" r="1.2" fill="#F7F4EE"/></svg></g>
<g transform="translate(372,254)"><svg width="24" height="24" viewBox="0 0 100 100"><circle cx="50" cy="50" r="48" fill="#7A263A"/><path d="M50.4 3L53.68 36.49L65 24.02L59.37 39.59L88.01 22.36L62.79 44.3L79.34 43.75L63.98 50.73L94.71 64.51L61.74 57.62L70.08 72.29L55.08 63.05L50.42 97L45.16 63.14L30.32 72.65L38.36 57.78L5.43 64.91L36.02 50.79L20.66 43.75L37.24 44.25L12.22 22.04L40.77 39.48L35.45 23.77L46.55 36.43Z" fill="#F7F4EE"/><line x1="50" y1="50" x2="50.39" y2="4.5" stroke="#7A263A" stroke-width="1.0" stroke-linecap="round"/><line x1="50" y1="50" x2="64.25" y2="25.32" stroke="#7A263A" stroke-width="1.0" stroke-linecap="round"/><line x1="50" y1="50" x2="86.8" y2="23.24" stroke="#7A263A" stroke-width="1.0" stroke-linecap="round"/><line x1="50" y1="50" x2="77.87" y2="44.06" stroke="#7A263A" stroke-width="1.0" stroke-linecap="round"/><line x1="50" y1="50" x2="93.28" y2="64.04" stroke="#7A263A" stroke-width="1.0" stroke-linecap="round"/><line x1="50" y1="50" x2="69.08" y2="71.17" stroke="#7A263A" stroke-width="1.0" stroke-linecap="round"/><line x1="50" y1="50" x2="50.41" y2="95.5" stroke="#7A263A" stroke-width="1.0" stroke-linecap="round"/><line x1="50" y1="50" x2="31.31" y2="71.51" stroke="#7A263A" stroke-width="1.0" stroke-linecap="round"/><line x1="50" y1="50" x2="6.85" y2="64.43" stroke="#7A263A" stroke-width="1.0" stroke-linecap="round"/><line x1="50" y1="50" x2="22.13" y2="44.06" stroke="#7A263A" stroke-width="1.0" stroke-linecap="round"/><line x1="50" y1="50" x2="13.43" y2="22.93" stroke="#7A263A" stroke-width="1.0" stroke-linecap="round"/><line x1="50" y1="50" x2="36.17" y2="25.08" stroke="#7A263A" stroke-width="1.0" stroke-linecap="round"/><circle cx="50" cy="50" r="2.8" fill="#7A263A"/><circle cx="50" cy="50" r="1.2" fill="#F7F4EE"/></svg></g>
<text x="418" y="268" font-size="15" fill="#17324D">12-point seal (off-white on maroon)</text>
<text x="418" y="288" font-size="11" fill="#6B7280">star12-seal.svg</text>
<g transform="translate(30,354)"><svg width="118" height="118" viewBox="0 0 100 100"><circle cx="50" cy="50" r="47" fill="none" stroke="#D9B36C" stroke-width="2"/><path d="M50.4 3L53.68 36.49L65 24.02L59.37 39.59L88.01 22.36L62.79 44.3L79.34 43.75L63.98 50.73L94.71 64.51L61.74 57.62L70.08 72.29L55.08 63.05L50.42 97L45.16 63.14L30.32 72.65L38.36 57.78L5.43 64.91L36.02 50.79L20.66 43.75L37.24 44.25L12.22 22.04L40.77 39.48L35.45 23.77L46.55 36.43Z" fill="#17324D"/><line x1="50" y1="50" x2="50.39" y2="4.5" stroke="#F7F4EE" stroke-width="1.0" stroke-linecap="round"/><line x1="50" y1="50" x2="64.25" y2="25.32" stroke="#F7F4EE" stroke-width="1.0" stroke-linecap="round"/><line x1="50" y1="50" x2="86.8" y2="23.24" stroke="#F7F4EE" stroke-width="1.0" stroke-linecap="round"/><line x1="50" y1="50" x2="77.87" y2="44.06" stroke="#F7F4EE" stroke-width="1.0" stroke-linecap="round"/><line x1="50" y1="50" x2="93.28" y2="64.04" stroke="#F7F4EE" stroke-width="1.0" stroke-linecap="round"/><line x1="50" y1="50" x2="69.08" y2="71.17" stroke="#F7F4EE" stroke-width="1.0" stroke-linecap="round"/><line x1="50" y1="50" x2="50.41" y2="95.5" stroke="#F7F4EE" stroke-width="1.0" stroke-linecap="round"/><line x1="50" y1="50" x2="31.31" y2="71.51" stroke="#F7F4EE" stroke-width="1.0" stroke-linecap="round"/><line x1="50" y1="50" x2="6.85" y2="64.43" stroke="#F7F4EE" stroke-width="1.0" stroke-linecap="round"/><line x1="50" y1="50" x2="22.13" y2="44.06" stroke="#F7F4EE" stroke-width="1.0" stroke-linecap="round"/><line x1="50" y1="50" x2="13.43" y2="22.93" stroke="#F7F4EE" stroke-width="1.0" stroke-linecap="round"/><line x1="50" y1="50" x2="36.17" y2="25.08" stroke="#F7F4EE" stroke-width="1.0" stroke-linecap="round"/><circle cx="50" cy="50" r="3.6" fill="#F7F4EE"/><circle cx="50" cy="50" r="1.5" fill="#17324D"/></svg></g>
<rect x="168" y="354" width="118" height="118" fill="#17324D"/>
<g transform="translate(168,354)"><svg width="118" height="118" viewBox="0 0 100 100"><circle cx="50" cy="50" r="47" fill="none" stroke="#D9B36C" stroke-width="2"/><path d="M50.4 3L53.68 36.49L65 24.02L59.37 39.59L88.01 22.36L62.79 44.3L79.34 43.75L63.98 50.73L94.71 64.51L61.74 57.62L70.08 72.29L55.08 63.05L50.42 97L45.16 63.14L30.32 72.65L38.36 57.78L5.43 64.91L36.02 50.79L20.66 43.75L37.24 44.25L12.22 22.04L40.77 39.48L35.45 23.77L46.55 36.43Z" fill="#17324D"/><line x1="50" y1="50" x2="50.39" y2="4.5" stroke="#F7F4EE" stroke-width="1.0" stroke-linecap="round"/><line x1="50" y1="50" x2="64.25" y2="25.32" stroke="#F7F4EE" stroke-width="1.0" stroke-linecap="round"/><line x1="50" y1="50" x2="86.8" y2="23.24" stroke="#F7F4EE" stroke-width="1.0" stroke-linecap="round"/><line x1="50" y1="50" x2="77.87" y2="44.06" stroke="#F7F4EE" stroke-width="1.0" stroke-linecap="round"/><line x1="50" y1="50" x2="93.28" y2="64.04" stroke="#F7F4EE" stroke-width="1.0" stroke-linecap="round"/><line x1="50" y1="50" x2="69.08" y2="71.17" stroke="#F7F4EE" stroke-width="1.0" stroke-linecap="round"/><line x1="50" y1="50" x2="50.41" y2="95.5" stroke="#F7F4EE" stroke-width="1.0" stroke-linecap="round"/><line x1="50" y1="50" x2="31.31" y2="71.51" stroke="#F7F4EE" stroke-width="1.0" stroke-linecap="round"/><line x1="50" y1="50" x2="6.85" y2="64.43" stroke="#F7F4EE" stroke-width="1.0" stroke-linecap="round"/><line x1="50" y1="50" x2="22.13" y2="44.06" stroke="#F7F4EE" stroke-width="1.0" stroke-linecap="round"/><line x1="50" y1="50" x2="13.43" y2="22.93" stroke="#F7F4EE" stroke-width="1.0" stroke-linecap="round"/><line x1="50" y1="50" x2="36.17" y2="25.08" stroke="#F7F4EE" stroke-width="1.0" stroke-linecap="round"/><circle cx="50" cy="50" r="3.6" fill="#F7F4EE"/><circle cx="50" cy="50" r="1.5" fill="#17324D"/></svg></g>
<g transform="translate(316,394)"><svg width="40" height="40" viewBox="0 0 100 100"><circle cx="50" cy="50" r="47" fill="none" stroke="#D9B36C" stroke-width="2"/><path d="M50.4 3L53.68 36.49L65 24.02L59.37 39.59L88.01 22.36L62.79 44.3L79.34 43.75L63.98 50.73L94.71 64.51L61.74 57.62L70.08 72.29L55.08 63.05L50.42 97L45.16 63.14L30.32 72.65L38.36 57.78L5.43 64.91L36.02 50.79L20.66 43.75L37.24 44.25L12.22 22.04L40.77 39.48L35.45 23.77L46.55 36.43Z" fill="#17324D"/><line x1="50" y1="50" x2="50.39" y2="4.5" stroke="#F7F4EE" stroke-width="1.0" stroke-linecap="round"/><line x1="50" y1="50" x2="64.25" y2="25.32" stroke="#F7F4EE" stroke-width="1.0" stroke-linecap="round"/><line x1="50" y1="50" x2="86.8" y2="23.24" stroke="#F7F4EE" stroke-width="1.0" stroke-linecap="round"/><line x1="50" y1="50" x2="77.87" y2="44.06" stroke="#F7F4EE" stroke-width="1.0" stroke-linecap="round"/><line x1="50" y1="50" x2="93.28" y2="64.04" stroke="#F7F4EE" stroke-width="1.0" stroke-linecap="round"/><line x1="50" y1="50" x2="69.08" y2="71.17" stroke="#F7F4EE" stroke-width="1.0" stroke-linecap="round"/><line x1="50" y1="50" x2="50.41" y2="95.5" stroke="#F7F4EE" stroke-width="1.0" stroke-linecap="round"/><line x1="50" y1="50" x2="31.31" y2="71.51" stroke="#F7F4EE" stroke-width="1.0" stroke-linecap="round"/><line x1="50" y1="50" x2="6.85" y2="64.43" stroke="#F7F4EE" stroke-width="1.0" stroke-linecap="round"/><line x1="50" y1="50" x2="22.13" y2="44.06" stroke="#F7F4EE" stroke-width="1.0" stroke-linecap="round"/><line x1="50" y1="50" x2="13.43" y2="22.93" stroke="#F7F4EE" stroke-width="1.0" stroke-linecap="round"/><line x1="50" y1="50" x2="36.17" y2="25.08" stroke="#F7F4EE" stroke-width="1.0" stroke-linecap="round"/><circle cx="50" cy="50" r="3.6" fill="#F7F4EE"/><circle cx="50" cy="50" r="1.5" fill="#17324D"/></svg></g>
<g transform="translate(372,402)"><svg width="24" height="24" viewBox="0 0 100 100"><circle cx="50" cy="50" r="47" fill="none" stroke="#D9B36C" stroke-width="2"/><path d="M50.4 3L53.68 36.49L65 24.02L59.37 39.59L88.01 22.36L62.79 44.3L79.34 43.75L63.98 50.73L94.71 64.51L61.74 57.62L70.08 72.29L55.08 63.05L50.42 97L45.16 63.14L30.32 72.65L38.36 57.78L5.43 64.91L36.02 50.79L20.66 43.75L37.24 44.25L12.22 22.04L40.77 39.48L35.45 23.77L46.55 36.43Z" fill="#17324D"/><line x1="50" y1="50" x2="50.39" y2="4.5" stroke="#F7F4EE" stroke-width="1.0" stroke-linecap="round"/><line x1="50" y1="50" x2="64.25" y2="25.32" stroke="#F7F4EE" stroke-width="1.0" stroke-linecap="round"/><line x1="50" y1="50" x2="86.8" y2="23.24" stroke="#F7F4EE" stroke-width="1.0" stroke-linecap="round"/><line x1="50" y1="50" x2="77.87" y2="44.06" stroke="#F7F4EE" stroke-width="1.0" stroke-linecap="round"/><line x1="50" y1="50" x2="93.28" y2="64.04" stroke="#F7F4EE" stroke-width="1.0" stroke-linecap="round"/><line x1="50" y1="50" x2="69.08" y2="71.17" stroke="#F7F4EE" stroke-width="1.0" stroke-linecap="round"/><line x1="50" y1="50" x2="50.41" y2="95.5" stroke="#F7F4EE" stroke-width="1.0" stroke-linecap="round"/><line x1="50" y1="50" x2="31.31" y2="71.51" stroke="#F7F4EE" stroke-width="1.0" stroke-linecap="round"/><line x1="50" y1="50" x2="6.85" y2="64.43" stroke="#F7F4EE" stroke-width="1.0" stroke-linecap="round"/><line x1="50" y1="50" x2="22.13" y2="44.06" stroke="#F7F4EE" stroke-width="1.0" stroke-linecap="round"/><line x1="50" y1="50" x2="13.43" y2="22.93" stroke="#F7F4EE" stroke-width="1.0" stroke-linecap="round"/><line x1="50" y1="50" x2="36.17" y2="25.08" stroke="#F7F4EE" stroke-width="1.0" stroke-linecap="round"/><circle cx="50" cy="50" r="3.6" fill="#F7F4EE"/><circle cx="50" cy="50" r="1.5" fill="#17324D"/></svg></g>
<text x="418" y="416" font-size="15" fill="#17324D">12-point observatory (navy + wheat ring)</text>
<text x="418" y="436" font-size="11" fill="#6B7280">star12-obs.svg</text>
<g transform="translate(30,502)"><svg width="118" height="118" viewBox="0 0 100 100"><circle cx="50" cy="50" r="48" fill="#F7F4EE"/><path d="M50.4 3L53.42 37.46L50 50L46.8 37.4Z" fill="#D9B36C"/><path d="M65 24.02L58.7 40.34L50 50L53.42 37.46Z" fill="#C2972F"/><path d="M88.01 22.36L61.87 44.71L50 50L58.7 40.34Z" fill="#D9B36C"/><path d="M79.34 43.75L62.98 50.67L50 50L61.87 44.71Z" fill="#17324D"/><path d="M94.71 64.51L60.9 57.08L50 50L62.98 50.67Z" fill="#D9B36C"/><path d="M70.08 72.29L54.71 62.11L50 50L60.9 57.08Z" fill="#2A7F9E"/><path d="M50.42 97L45.5 62.2L50 50L54.71 62.11Z" fill="#D9B36C"/><path d="M30.32 72.65L39.19 57.22L50 50L45.5 62.2Z" fill="#7A263A"/><path d="M5.43 64.91L37.02 50.73L50 50L39.19 57.22Z" fill="#D9B36C"/><path d="M20.66 43.75L38.15 44.66L50 50L37.02 50.73Z" fill="#3F6F5E"/><path d="M12.22 22.04L41.43 40.23L50 50L38.15 44.66Z" fill="#D9B36C"/><path d="M35.45 23.77L46.8 37.4L50 50L41.43 40.23Z" fill="#6B7280"/><circle cx="50" cy="50" r="3" fill="#7A263A"/><circle cx="50" cy="50" r="1.3" fill="#F7F4EE"/></svg></g>
<rect x="168" y="502" width="118" height="118" fill="#17324D"/>
<g transform="translate(168,502)"><svg width="118" height="118" viewBox="0 0 100 100"><circle cx="50" cy="50" r="48" fill="#F7F4EE"/><path d="M50.4 3L53.42 37.46L50 50L46.8 37.4Z" fill="#D9B36C"/><path d="M65 24.02L58.7 40.34L50 50L53.42 37.46Z" fill="#C2972F"/><path d="M88.01 22.36L61.87 44.71L50 50L58.7 40.34Z" fill="#D9B36C"/><path d="M79.34 43.75L62.98 50.67L50 50L61.87 44.71Z" fill="#17324D"/><path d="M94.71 64.51L60.9 57.08L50 50L62.98 50.67Z" fill="#D9B36C"/><path d="M70.08 72.29L54.71 62.11L50 50L60.9 57.08Z" fill="#2A7F9E"/><path d="M50.42 97L45.5 62.2L50 50L54.71 62.11Z" fill="#D9B36C"/><path d="M30.32 72.65L39.19 57.22L50 50L45.5 62.2Z" fill="#7A263A"/><path d="M5.43 64.91L37.02 50.73L50 50L39.19 57.22Z" fill="#D9B36C"/><path d="M20.66 43.75L38.15 44.66L50 50L37.02 50.73Z" fill="#3F6F5E"/><path d="M12.22 22.04L41.43 40.23L50 50L38.15 44.66Z" fill="#D9B36C"/><path d="M35.45 23.77L46.8 37.4L50 50L41.43 40.23Z" fill="#6B7280"/><circle cx="50" cy="50" r="3" fill="#7A263A"/><circle cx="50" cy="50" r="1.3" fill="#F7F4EE"/></svg></g>
<g transform="translate(316,542)"><svg width="40" height="40" viewBox="0 0 100 100"><circle cx="50" cy="50" r="48" fill="#F7F4EE"/><path d="M50.4 3L53.42 37.46L50 50L46.8 37.4Z" fill="#D9B36C"/><path d="M65 24.02L58.7 40.34L50 50L53.42 37.46Z" fill="#C2972F"/><path d="M88.01 22.36L61.87 44.71L50 50L58.7 40.34Z" fill="#D9B36C"/><path d="M79.34 43.75L62.98 50.67L50 50L61.87 44.71Z" fill="#17324D"/><path d="M94.71 64.51L60.9 57.08L50 50L62.98 50.67Z" fill="#D9B36C"/><path d="M70.08 72.29L54.71 62.11L50 50L60.9 57.08Z" fill="#2A7F9E"/><path d="M50.42 97L45.5 62.2L50 50L54.71 62.11Z" fill="#D9B36C"/><path d="M30.32 72.65L39.19 57.22L50 50L45.5 62.2Z" fill="#7A263A"/><path d="M5.43 64.91L37.02 50.73L50 50L39.19 57.22Z" fill="#D9B36C"/><path d="M20.66 43.75L38.15 44.66L50 50L37.02 50.73Z" fill="#3F6F5E"/><path d="M12.22 22.04L41.43 40.23L50 50L38.15 44.66Z" fill="#D9B36C"/><path d="M35.45 23.77L46.8 37.4L50 50L41.43 40.23Z" fill="#6B7280"/><circle cx="50" cy="50" r="3" fill="#7A263A"/><circle cx="50" cy="50" r="1.3" fill="#F7F4EE"/></svg></g>
<g transform="translate(372,550)"><svg width="24" height="24" viewBox="0 0 100 100"><circle cx="50" cy="50" r="48" fill="#F7F4EE"/><path d="M50.4 3L53.42 37.46L50 50L46.8 37.4Z" fill="#D9B36C"/><path d="M65 24.02L58.7 40.34L50 50L53.42 37.46Z" fill="#C2972F"/><path d="M88.01 22.36L61.87 44.71L50 50L58.7 40.34Z" fill="#D9B36C"/><path d="M79.34 43.75L62.98 50.67L50 50L61.87 44.71Z" fill="#17324D"/><path d="M94.71 64.51L60.9 57.08L50 50L62.98 50.67Z" fill="#D9B36C"/><path d="M70.08 72.29L54.71 62.11L50 50L60.9 57.08Z" fill="#2A7F9E"/><path d="M50.42 97L45.5 62.2L50 50L54.71 62.11Z" fill="#D9B36C"/><path d="M30.32 72.65L39.19 57.22L50 50L45.5 62.2Z" fill="#7A263A"/><path d="M5.43 64.91L37.02 50.73L50 50L39.19 57.22Z" fill="#D9B36C"/><path d="M20.66 43.75L38.15 44.66L50 50L37.02 50.73Z" fill="#3F6F5E"/><path d="M12.22 22.04L41.43 40.23L50 50L38.15 44.66Z" fill="#D9B36C"/><path d="M35.45 23.77L46.8 37.4L50 50L41.43 40.23Z" fill="#6B7280"/><circle cx="50" cy="50" r="3" fill="#7A263A"/><circle cx="50" cy="50" r="1.3" fill="#F7F4EE"/></svg></g>
<text x="418" y="564" font-size="15" fill="#17324D">12-point cells (6 colour short + wheat long)</text>
<text x="418" y="584" font-size="11" fill="#6B7280">star12-cells.svg</text>
<g transform="translate(30,650)"><svg width="118" height="118" viewBox="0 0 100 100"><circle cx="50" cy="50" r="48" fill="#7A263A"/><path d="M50.41 2L52.89 39.39L62 29.21L57.36 41.82L88.82 21.77L60.05 45.52L73.47 45L60.99 50.57L95.66 64.81L59.23 55.99L66.06 67.83L53.99 60.25L50.43 98L46.2 60.32L34.26 68.12L40.85 56.11L4.48 65.22L39.02 50.62L26.53 45L39.97 45.48L11.42 21.44L42.75 41.73L38.36 29.01L47.29 39.34Z" fill="#F7F4EE"/><line x1="50" y1="50" x2="50.39" y2="3.5" stroke="#7A263A" stroke-width="1.0" stroke-linecap="round"/><line x1="50" y1="50" x2="61.25" y2="30.51" stroke="#7A263A" stroke-width="1.0" stroke-linecap="round"/><line x1="50" y1="50" x2="87.61" y2="22.65" stroke="#7A263A" stroke-width="1.0" stroke-linecap="round"/><line x1="50" y1="50" x2="72.01" y2="45.31" stroke="#7A263A" stroke-width="1.0" stroke-linecap="round"/><line x1="50" y1="50" x2="94.23" y2="64.35" stroke="#7A263A" stroke-width="1.0" stroke-linecap="round"/><line x1="50" y1="50" x2="65.06" y2="66.72" stroke="#7A263A" stroke-width="1.0" stroke-linecap="round"/><line x1="50" y1="50" x2="50.42" y2="96.5" stroke="#7A263A" stroke-width="1.0" stroke-linecap="round"/><line x1="50" y1="50" x2="35.24" y2="66.98" stroke="#7A263A" stroke-width="1.0" stroke-linecap="round"/><line x1="50" y1="50" x2="5.9" y2="64.75" stroke="#7A263A" stroke-width="1.0" stroke-linecap="round"/><line x1="50" y1="50" x2="27.99" y2="45.31" stroke="#7A263A" stroke-width="1.0" stroke-linecap="round"/><line x1="50" y1="50" x2="12.62" y2="22.34" stroke="#7A263A" stroke-width="1.0" stroke-linecap="round"/><line x1="50" y1="50" x2="39.09" y2="30.32" stroke="#7A263A" stroke-width="1.0" stroke-linecap="round"/><circle cx="50" cy="50" r="2.8" fill="#7A263A"/><circle cx="50" cy="50" r="1.2" fill="#F7F4EE"/></svg></g>
<rect x="168" y="650" width="118" height="118" fill="#17324D"/>
<g transform="translate(168,650)"><svg width="118" height="118" viewBox="0 0 100 100"><circle cx="50" cy="50" r="48" fill="#7A263A"/><path d="M50.41 2L52.89 39.39L62 29.21L57.36 41.82L88.82 21.77L60.05 45.52L73.47 45L60.99 50.57L95.66 64.81L59.23 55.99L66.06 67.83L53.99 60.25L50.43 98L46.2 60.32L34.26 68.12L40.85 56.11L4.48 65.22L39.02 50.62L26.53 45L39.97 45.48L11.42 21.44L42.75 41.73L38.36 29.01L47.29 39.34Z" fill="#F7F4EE"/><line x1="50" y1="50" x2="50.39" y2="3.5" stroke="#7A263A" stroke-width="1.0" stroke-linecap="round"/><line x1="50" y1="50" x2="61.25" y2="30.51" stroke="#7A263A" stroke-width="1.0" stroke-linecap="round"/><line x1="50" y1="50" x2="87.61" y2="22.65" stroke="#7A263A" stroke-width="1.0" stroke-linecap="round"/><line x1="50" y1="50" x2="72.01" y2="45.31" stroke="#7A263A" stroke-width="1.0" stroke-linecap="round"/><line x1="50" y1="50" x2="94.23" y2="64.35" stroke="#7A263A" stroke-width="1.0" stroke-linecap="round"/><line x1="50" y1="50" x2="65.06" y2="66.72" stroke="#7A263A" stroke-width="1.0" stroke-linecap="round"/><line x1="50" y1="50" x2="50.42" y2="96.5" stroke="#7A263A" stroke-width="1.0" stroke-linecap="round"/><line x1="50" y1="50" x2="35.24" y2="66.98" stroke="#7A263A" stroke-width="1.0" stroke-linecap="round"/><line x1="50" y1="50" x2="5.9" y2="64.75" stroke="#7A263A" stroke-width="1.0" stroke-linecap="round"/><line x1="50" y1="50" x2="27.99" y2="45.31" stroke="#7A263A" stroke-width="1.0" stroke-linecap="round"/><line x1="50" y1="50" x2="12.62" y2="22.34" stroke="#7A263A" stroke-width="1.0" stroke-linecap="round"/><line x1="50" y1="50" x2="39.09" y2="30.32" stroke="#7A263A" stroke-width="1.0" stroke-linecap="round"/><circle cx="50" cy="50" r="2.8" fill="#7A263A"/><circle cx="50" cy="50" r="1.2" fill="#F7F4EE"/></svg></g>
<g transform="translate(316,690)"><svg width="40" height="40" viewBox="0 0 100 100"><circle cx="50" cy="50" r="48" fill="#7A263A"/><path d="M50.41 2L52.89 39.39L62 29.21L57.36 41.82L88.82 21.77L60.05 45.52L73.47 45L60.99 50.57L95.66 64.81L59.23 55.99L66.06 67.83L53.99 60.25L50.43 98L46.2 60.32L34.26 68.12L40.85 56.11L4.48 65.22L39.02 50.62L26.53 45L39.97 45.48L11.42 21.44L42.75 41.73L38.36 29.01L47.29 39.34Z" fill="#F7F4EE"/><line x1="50" y1="50" x2="50.39" y2="3.5" stroke="#7A263A" stroke-width="1.0" stroke-linecap="round"/><line x1="50" y1="50" x2="61.25" y2="30.51" stroke="#7A263A" stroke-width="1.0" stroke-linecap="round"/><line x1="50" y1="50" x2="87.61" y2="22.65" stroke="#7A263A" stroke-width="1.0" stroke-linecap="round"/><line x1="50" y1="50" x2="72.01" y2="45.31" stroke="#7A263A" stroke-width="1.0" stroke-linecap="round"/><line x1="50" y1="50" x2="94.23" y2="64.35" stroke="#7A263A" stroke-width="1.0" stroke-linecap="round"/><line x1="50" y1="50" x2="65.06" y2="66.72" stroke="#7A263A" stroke-width="1.0" stroke-linecap="round"/><line x1="50" y1="50" x2="50.42" y2="96.5" stroke="#7A263A" stroke-width="1.0" stroke-linecap="round"/><line x1="50" y1="50" x2="35.24" y2="66.98" stroke="#7A263A" stroke-width="1.0" stroke-linecap="round"/><line x1="50" y1="50" x2="5.9" y2="64.75" stroke="#7A263A" stroke-width="1.0" stroke-linecap="round"/><line x1="50" y1="50" x2="27.99" y2="45.31" stroke="#7A263A" stroke-width="1.0" stroke-linecap="round"/><line x1="50" y1="50" x2="12.62" y2="22.34" stroke="#7A263A" stroke-width="1.0" stroke-linecap="round"/><line x1="50" y1="50" x2="39.09" y2="30.32" stroke="#7A263A" stroke-width="1.0" stroke-linecap="round"/><circle cx="50" cy="50" r="2.8" fill="#7A263A"/><circle cx="50" cy="50" r="1.2" fill="#F7F4EE"/></svg></g>
<g transform="translate(372,698)"><svg width="24" height="24" viewBox="0 0 100 100"><circle cx="50" cy="50" r="48" fill="#7A263A"/><path d="M50.41 2L52.89 39.39L62 29.21L57.36 41.82L88.82 21.77L60.05 45.52L73.47 45L60.99 50.57L95.66 64.81L59.23 55.99L66.06 67.83L53.99 60.25L50.43 98L46.2 60.32L34.26 68.12L40.85 56.11L4.48 65.22L39.02 50.62L26.53 45L39.97 45.48L11.42 21.44L42.75 41.73L38.36 29.01L47.29 39.34Z" fill="#F7F4EE"/><line x1="50" y1="50" x2="50.39" y2="3.5" stroke="#7A263A" stroke-width="1.0" stroke-linecap="round"/><line x1="50" y1="50" x2="61.25" y2="30.51" stroke="#7A263A" stroke-width="1.0" stroke-linecap="round"/><line x1="50" y1="50" x2="87.61" y2="22.65" stroke="#7A263A" stroke-width="1.0" stroke-linecap="round"/><line x1="50" y1="50" x2="72.01" y2="45.31" stroke="#7A263A" stroke-width="1.0" stroke-linecap="round"/><line x1="50" y1="50" x2="94.23" y2="64.35" stroke="#7A263A" stroke-width="1.0" stroke-linecap="round"/><line x1="50" y1="50" x2="65.06" y2="66.72" stroke="#7A263A" stroke-width="1.0" stroke-linecap="round"/><line x1="50" y1="50" x2="50.42" y2="96.5" stroke="#7A263A" stroke-width="1.0" stroke-linecap="round"/><line x1="50" y1="50" x2="35.24" y2="66.98" stroke="#7A263A" stroke-width="1.0" stroke-linecap="round"/><line x1="50" y1="50" x2="5.9" y2="64.75" stroke="#7A263A" stroke-width="1.0" stroke-linecap="round"/><line x1="50" y1="50" x2="27.99" y2="45.31" stroke="#7A263A" stroke-width="1.0" stroke-linecap="round"/><line x1="50" y1="50" x2="12.62" y2="22.34" stroke="#7A263A" stroke-width="1.0" stroke-linecap="round"/><line x1="50" y1="50" x2="39.09" y2="30.32" stroke="#7A263A" stroke-width="1.0" stroke-linecap="round"/><circle cx="50" cy="50" r="2.8" fill="#7A263A"/><circle cx="50" cy="50" r="1.2" fill="#F7F4EE"/></svg></g>
<text x="418" y="712" font-size="15" fill="#17324D">12-point seal, sharper</text>
<text x="418" y="732" font-size="11" fill="#6B7280">star12-seal-sharp.svg</text>
<g transform="translate(30,798)"><svg width="118" height="118" viewBox="0 0 100 100"><circle cx="50" cy="50" r="47" fill="none" stroke="#D9B36C" stroke-width="2"/><path d="M50.41 2L52.89 39.39L62 29.21L57.36 41.82L88.82 21.77L60.05 45.52L73.47 45L60.99 50.57L95.66 64.81L59.23 55.99L66.06 67.83L53.99 60.25L50.43 98L46.2 60.32L34.26 68.12L40.85 56.11L4.48 65.22L39.02 50.62L26.53 45L39.97 45.48L11.42 21.44L42.75 41.73L38.36 29.01L47.29 39.34Z" fill="#17324D"/><line x1="50" y1="50" x2="50.39" y2="3.5" stroke="#F7F4EE" stroke-width="1.0" stroke-linecap="round"/><line x1="50" y1="50" x2="61.25" y2="30.51" stroke="#F7F4EE" stroke-width="1.0" stroke-linecap="round"/><line x1="50" y1="50" x2="87.61" y2="22.65" stroke="#F7F4EE" stroke-width="1.0" stroke-linecap="round"/><line x1="50" y1="50" x2="72.01" y2="45.31" stroke="#F7F4EE" stroke-width="1.0" stroke-linecap="round"/><line x1="50" y1="50" x2="94.23" y2="64.35" stroke="#F7F4EE" stroke-width="1.0" stroke-linecap="round"/><line x1="50" y1="50" x2="65.06" y2="66.72" stroke="#F7F4EE" stroke-width="1.0" stroke-linecap="round"/><line x1="50" y1="50" x2="50.42" y2="96.5" stroke="#F7F4EE" stroke-width="1.0" stroke-linecap="round"/><line x1="50" y1="50" x2="35.24" y2="66.98" stroke="#F7F4EE" stroke-width="1.0" stroke-linecap="round"/><line x1="50" y1="50" x2="5.9" y2="64.75" stroke="#F7F4EE" stroke-width="1.0" stroke-linecap="round"/><line x1="50" y1="50" x2="27.99" y2="45.31" stroke="#F7F4EE" stroke-width="1.0" stroke-linecap="round"/><line x1="50" y1="50" x2="12.62" y2="22.34" stroke="#F7F4EE" stroke-width="1.0" stroke-linecap="round"/><line x1="50" y1="50" x2="39.09" y2="30.32" stroke="#F7F4EE" stroke-width="1.0" stroke-linecap="round"/><circle cx="50" cy="50" r="3.6" fill="#F7F4EE"/><circle cx="50" cy="50" r="1.5" fill="#17324D"/></svg></g>
<rect x="168" y="798" width="118" height="118" fill="#17324D"/>
<g transform="translate(168,798)"><svg width="118" height="118" viewBox="0 0 100 100"><circle cx="50" cy="50" r="47" fill="none" stroke="#D9B36C" stroke-width="2"/><path d="M50.41 2L52.89 39.39L62 29.21L57.36 41.82L88.82 21.77L60.05 45.52L73.47 45L60.99 50.57L95.66 64.81L59.23 55.99L66.06 67.83L53.99 60.25L50.43 98L46.2 60.32L34.26 68.12L40.85 56.11L4.48 65.22L39.02 50.62L26.53 45L39.97 45.48L11.42 21.44L42.75 41.73L38.36 29.01L47.29 39.34Z" fill="#17324D"/><line x1="50" y1="50" x2="50.39" y2="3.5" stroke="#F7F4EE" stroke-width="1.0" stroke-linecap="round"/><line x1="50" y1="50" x2="61.25" y2="30.51" stroke="#F7F4EE" stroke-width="1.0" stroke-linecap="round"/><line x1="50" y1="50" x2="87.61" y2="22.65" stroke="#F7F4EE" stroke-width="1.0" stroke-linecap="round"/><line x1="50" y1="50" x2="72.01" y2="45.31" stroke="#F7F4EE" stroke-width="1.0" stroke-linecap="round"/><line x1="50" y1="50" x2="94.23" y2="64.35" stroke="#F7F4EE" stroke-width="1.0" stroke-linecap="round"/><line x1="50" y1="50" x2="65.06" y2="66.72" stroke="#F7F4EE" stroke-width="1.0" stroke-linecap="round"/><line x1="50" y1="50" x2="50.42" y2="96.5" stroke="#F7F4EE" stroke-width="1.0" stroke-linecap="round"/><line x1="50" y1="50" x2="35.24" y2="66.98" stroke="#F7F4EE" stroke-width="1.0" stroke-linecap="round"/><line x1="50" y1="50" x2="5.9" y2="64.75" stroke="#F7F4EE" stroke-width="1.0" stroke-linecap="round"/><line x1="50" y1="50" x2="27.99" y2="45.31" stroke="#F7F4EE" stroke-width="1.0" stroke-linecap="round"/><line x1="50" y1="50" x2="12.62" y2="22.34" stroke="#F7F4EE" stroke-width="1.0" stroke-linecap="round"/><line x1="50" y1="50" x2="39.09" y2="30.32" stroke="#F7F4EE" stroke-width="1.0" stroke-linecap="round"/><circle cx="50" cy="50" r="3.6" fill="#F7F4EE"/><circle cx="50" cy="50" r="1.5" fill="#17324D"/></svg></g>
<g transform="translate(316,838)"><svg width="40" height="40" viewBox="0 0 100 100"><circle cx="50" cy="50" r="47" fill="none" stroke="#D9B36C" stroke-width="2"/><path d="M50.41 2L52.89 39.39L62 29.21L57.36 41.82L88.82 21.77L60.05 45.52L73.47 45L60.99 50.57L95.66 64.81L59.23 55.99L66.06 67.83L53.99 60.25L50.43 98L46.2 60.32L34.26 68.12L40.85 56.11L4.48 65.22L39.02 50.62L26.53 45L39.97 45.48L11.42 21.44L42.75 41.73L38.36 29.01L47.29 39.34Z" fill="#17324D"/><line x1="50" y1="50" x2="50.39" y2="3.5" stroke="#F7F4EE" stroke-width="1.0" stroke-linecap="round"/><line x1="50" y1="50" x2="61.25" y2="30.51" stroke="#F7F4EE" stroke-width="1.0" stroke-linecap="round"/><line x1="50" y1="50" x2="87.61" y2="22.65" stroke="#F7F4EE" stroke-width="1.0" stroke-linecap="round"/><line x1="50" y1="50" x2="72.01" y2="45.31" stroke="#F7F4EE" stroke-width="1.0" stroke-linecap="round"/><line x1="50" y1="50" x2="94.23" y2="64.35" stroke="#F7F4EE" stroke-width="1.0" stroke-linecap="round"/><line x1="50" y1="50" x2="65.06" y2="66.72" stroke="#F7F4EE" stroke-width="1.0" stroke-linecap="round"/><line x1="50" y1="50" x2="50.42" y2="96.5" stroke="#F7F4EE" stroke-width="1.0" stroke-linecap="round"/><line x1="50" y1="50" x2="35.24" y2="66.98" stroke="#F7F4EE" stroke-width="1.0" stroke-linecap="round"/><line x1="50" y1="50" x2="5.9" y2="64.75" stroke="#F7F4EE" stroke-width="1.0" stroke-linecap="round"/><line x1="50" y1="50" x2="27.99" y2="45.31" stroke="#F7F4EE" stroke-width="1.0" stroke-linecap="round"/><line x1="50" y1="50" x2="12.62" y2="22.34" stroke="#F7F4EE" stroke-width="1.0" stroke-linecap="round"/><line x1="50" y1="50" x2="39.09" y2="30.32" stroke="#F7F4EE" stroke-width="1.0" stroke-linecap="round"/><circle cx="50" cy="50" r="3.6" fill="#F7F4EE"/><circle cx="50" cy="50" r="1.5" fill="#17324D"/></svg></g>
<g transform="translate(372,846)"><svg width="24" height="24" viewBox="0 0 100 100"><circle cx="50" cy="50" r="47" fill="none" stroke="#D9B36C" stroke-width="2"/><path d="M50.41 2L52.89 39.39L62 29.21L57.36 41.82L88.82 21.77L60.05 45.52L73.47 45L60.99 50.57L95.66 64.81L59.23 55.99L66.06 67.83L53.99 60.25L50.43 98L46.2 60.32L34.26 68.12L40.85 56.11L4.48 65.22L39.02 50.62L26.53 45L39.97 45.48L11.42 21.44L42.75 41.73L38.36 29.01L47.29 39.34Z" fill="#17324D"/><line x1="50" y1="50" x2="50.39" y2="3.5" stroke="#F7F4EE" stroke-width="1.0" stroke-linecap="round"/><line x1="50" y1="50" x2="61.25" y2="30.51" stroke="#F7F4EE" stroke-width="1.0" stroke-linecap="round"/><line x1="50" y1="50" x2="87.61" y2="22.65" stroke="#F7F4EE" stroke-width="1.0" stroke-linecap="round"/><line x1="50" y1="50" x2="72.01" y2="45.31" stroke="#F7F4EE" stroke-width="1.0" stroke-linecap="round"/><line x1="50" y1="50" x2="94.23" y2="64.35" stroke="#F7F4EE" stroke-width="1.0" stroke-linecap="round"/><line x1="50" y1="50" x2="65.06" y2="66.72" stroke="#F7F4EE" stroke-width="1.0" stroke-linecap="round"/><line x1="50" y1="50" x2="50.42" y2="96.5" stroke="#F7F4EE" stroke-width="1.0" stroke-linecap="round"/><line x1="50" y1="50" x2="35.24" y2="66.98" stroke="#F7F4EE" stroke-width="1.0" stroke-linecap="round"/><line x1="50" y1="50" x2="5.9" y2="64.75" stroke="#F7F4EE" stroke-width="1.0" stroke-linecap="round"/><line x1="50" y1="50" x2="27.99" y2="45.31" stroke="#F7F4EE" stroke-width="1.0" stroke-linecap="round"/><line x1="50" y1="50" x2="12.62" y2="22.34" stroke="#F7F4EE" stroke-width="1.0" stroke-linecap="round"/><line x1="50" y1="50" x2="39.09" y2="30.32" stroke="#F7F4EE" stroke-width="1.0" stroke-linecap="round"/><circle cx="50" cy="50" r="3.6" fill="#F7F4EE"/><circle cx="50" cy="50" r="1.5" fill="#17324D"/></svg></g>
<text x="418" y="860" font-size="15" fill="#17324D">12-point observatory, sharper</text>
<text x="418" y="880" font-size="11" fill="#6B7280">star12-obs-sharp.svg</text>
</svg>