<svg xmlns="http://www.w3.org/2000/svg" viewBox="0 0 760 960" font-family="sans-serif">
<rect width="760" height="960" fill="#fff"/>
<text x="30" y="38" font-size="22" fill="#17324D" font-weight="700">CanObs · de-sunning the 13 (iteration 2b)</text>
<g transform="translate(30,70)"><svg width="120" height="120" viewBox="0 0 100 100"><circle cx="50" cy="50" r="48" fill="#7A263A"/><path d="M50 3L52.39 40.29L57.9 34.95L56.63 42.51L88.68 23.3L59.35 46.45L66.88 47.95L59.93 51.21L93.95 66.67L58.23 55.68L61.27 62.72L54.65 58.85L61.25 95.63L50 60L45.93 66.51L45.35 58.85L18.83 85.18L41.77 55.68L34.1 56.03L40.07 51.21L3.34 44.33L40.65 46.45L36.01 40.34L43.37 42.51L28.16 8.38L47.61 40.29Z" fill="#F7F4EE"/><line x1="50" y1="50" x2="50" y2="4.5" stroke="#7A263A" stroke-width="1.1" stroke-linecap="round"/><line x1="50" y1="50" x2="57.2" y2="36.28" stroke="#7A263A" stroke-width="1.1" stroke-linecap="round"/><line x1="50" y1="50" x2="87.45" y2="24.15" stroke="#7A263A" stroke-width="1.1" stroke-linecap="round"/><line x1="50" y1="50" x2="65.39" y2="48.13" stroke="#7A263A" stroke-width="1.1" stroke-linecap="round"/><line x1="50" y1="50" x2="92.54" y2="66.13" stroke="#7A263A" stroke-width="1.1" stroke-linecap="round"/><line x1="50" y1="50" x2="60.28" y2="61.6" stroke="#7A263A" stroke-width="1.1" stroke-linecap="round"/><line x1="50" y1="50" x2="60.89" y2="94.18" stroke="#7A263A" stroke-width="1.1" stroke-linecap="round"/><line x1="50" y1="50" x2="46.29" y2="65.05" stroke="#7A263A" stroke-width="1.1" stroke-linecap="round"/><line x1="50" y1="50" x2="19.83" y2="84.06" stroke="#7A263A" stroke-width="1.1" stroke-linecap="round"/><line x1="50" y1="50" x2="35.51" y2="55.5" stroke="#7A263A" stroke-width="1.1" stroke-linecap="round"/><line x1="50" y1="50" x2="4.83" y2="44.52" stroke="#7A263A" stroke-width="1.1" stroke-linecap="round"/><line x1="50" y1="50" x2="37.24" y2="41.19" stroke="#7A263A" stroke-width="1.1" stroke-linecap="round"/><line x1="50" y1="50" x2="28.86" y2="9.71" stroke="#7A263A" stroke-width="1.1" stroke-linecap="round"/><circle cx="50" cy="50" r="3.0" fill="#7A263A"/><circle cx="50" cy="50" r="1.3" fill="#F7F4EE"/></svg></g>
<rect x="170" y="70" width="120" height="120" fill="#17324D"/>
<g transform="translate(170,70)"><svg width="120" height="120" viewBox="0 0 100 100"><circle cx="50" cy="50" r="48" fill="#7A263A"/><path d="M50 3L52.39 40.29L57.9 34.95L56.63 42.51L88.68 23.3L59.35 46.45L66.88 47.95L59.93 51.21L93.95 66.67L58.23 55.68L61.27 62.72L54.65 58.85L61.25 95.63L50 60L45.93 66.51L45.35 58.85L18.83 85.18L41.77 55.68L34.1 56.03L40.07 51.21L3.34 44.33L40.65 46.45L36.01 40.34L43.37 42.51L28.16 8.38L47.61 40.29Z" fill="#F7F4EE"/><line x1="50" y1="50" x2="50" y2="4.5" stroke="#7A263A" stroke-width="1.1" stroke-linecap="round"/><line x1="50" y1="50" x2="57.2" y2="36.28" stroke="#7A263A" stroke-width="1.1" stroke-linecap="round"/><line x1="50" y1="50" x2="87.45" y2="24.15" stroke="#7A263A" stroke-width="1.1" stroke-linecap="round"/><line x1="50" y1="50" x2="65.39" y2="48.13" stroke="#7A263A" stroke-width="1.1" stroke-linecap="round"/><line x1="50" y1="50" x2="92.54" y2="66.13" stroke="#7A263A" stroke-width="1.1" stroke-linecap="round"/><line x1="50" y1="50" x2="60.28" y2="61.6" stroke="#7A263A" stroke-width="1.1" stroke-linecap="round"/><line x1="50" y1="50" x2="60.89" y2="94.18" stroke="#7A263A" stroke-width="1.1" stroke-linecap="round"/><line x1="50" y1="50" x2="46.29" y2="65.05" stroke="#7A263A" stroke-width="1.1" stroke-linecap="round"/><line x1="50" y1="50" x2="19.83" y2="84.06" stroke="#7A263A" stroke-width="1.1" stroke-linecap="round"/><line x1="50" y1="50" x2="35.51" y2="55.5" stroke="#7A263A" stroke-width="1.1" stroke-linecap="round"/><line x1="50" y1="50" x2="4.83" y2="44.52" stroke="#7A263A" stroke-width="1.1" stroke-linecap="round"/><line x1="50" y1="50" x2="37.24" y2="41.19" stroke="#7A263A" stroke-width="1.1" stroke-linecap="round"/><line x1="50" y1="50" x2="28.86" y2="9.71" stroke="#7A263A" stroke-width="1.1" stroke-linecap="round"/><circle cx="50" cy="50" r="3.0" fill="#7A263A"/><circle cx="50" cy="50" r="1.3" fill="#F7F4EE"/></svg></g>
<g transform="translate(320,112)"><svg width="40" height="40" viewBox="0 0 100 100"><circle cx="50" cy="50" r="48" fill="#7A263A"/><path d="M50 3L52.39 40.29L57.9 34.95L56.63 42.51L88.68 23.3L59.35 46.45L66.88 47.95L59.93 51.21L93.95 66.67L58.23 55.68L61.27 62.72L54.65 58.85L61.25 95.63L50 60L45.93 66.51L45.35 58.85L18.83 85.18L41.77 55.68L34.1 56.03L40.07 51.21L3.34 44.33L40.65 46.45L36.01 40.34L43.37 42.51L28.16 8.38L47.61 40.29Z" fill="#F7F4EE"/><line x1="50" y1="50" x2="50" y2="4.5" stroke="#7A263A" stroke-width="1.1" stroke-linecap="round"/><line x1="50" y1="50" x2="57.2" y2="36.28" stroke="#7A263A" stroke-width="1.1" stroke-linecap="round"/><line x1="50" y1="50" x2="87.45" y2="24.15" stroke="#7A263A" stroke-width="1.1" stroke-linecap="round"/><line x1="50" y1="50" x2="65.39" y2="48.13" stroke="#7A263A" stroke-width="1.1" stroke-linecap="round"/><line x1="50" y1="50" x2="92.54" y2="66.13" stroke="#7A263A" stroke-width="1.1" stroke-linecap="round"/><line x1="50" y1="50" x2="60.28" y2="61.6" stroke="#7A263A" stroke-width="1.1" stroke-linecap="round"/><line x1="50" y1="50" x2="60.89" y2="94.18" stroke="#7A263A" stroke-width="1.1" stroke-linecap="round"/><line x1="50" y1="50" x2="46.29" y2="65.05" stroke="#7A263A" stroke-width="1.1" stroke-linecap="round"/><line x1="50" y1="50" x2="19.83" y2="84.06" stroke="#7A263A" stroke-width="1.1" stroke-linecap="round"/><line x1="50" y1="50" x2="35.51" y2="55.5" stroke="#7A263A" stroke-width="1.1" stroke-linecap="round"/><line x1="50" y1="50" x2="4.83" y2="44.52" stroke="#7A263A" stroke-width="1.1" stroke-linecap="round"/><line x1="50" y1="50" x2="37.24" y2="41.19" stroke="#7A263A" stroke-width="1.1" stroke-linecap="round"/><line x1="50" y1="50" x2="28.86" y2="9.71" stroke="#7A263A" stroke-width="1.1" stroke-linecap="round"/><circle cx="50" cy="50" r="3.0" fill="#7A263A"/><circle cx="50" cy="50" r="1.3" fill="#F7F4EE"/></svg></g>
<g transform="translate(375,120)"><svg width="24" height="24" viewBox="0 0 100 100"><circle cx="50" cy="50" r="48" fill="#7A263A"/><path d="M50 3L52.39 40.29L57.9 34.95L56.63 42.51L88.68 23.3L59.35 46.45L66.88 47.95L59.93 51.21L93.95 66.67L58.23 55.68L61.27 62.72L54.65 58.85L61.25 95.63L50 60L45.93 66.51L45.35 58.85L18.83 85.18L41.77 55.68L34.1 56.03L40.07 51.21L3.34 44.33L40.65 46.45L36.01 40.34L43.37 42.51L28.16 8.38L47.61 40.29Z" fill="#F7F4EE"/><line x1="50" y1="50" x2="50" y2="4.5" stroke="#7A263A" stroke-width="1.1" stroke-linecap="round"/><line x1="50" y1="50" x2="57.2" y2="36.28" stroke="#7A263A" stroke-width="1.1" stroke-linecap="round"/><line x1="50" y1="50" x2="87.45" y2="24.15" stroke="#7A263A" stroke-width="1.1" stroke-linecap="round"/><line x1="50" y1="50" x2="65.39" y2="48.13" stroke="#7A263A" stroke-width="1.1" stroke-linecap="round"/><line x1="50" y1="50" x2="92.54" y2="66.13" stroke="#7A263A" stroke-width="1.1" stroke-linecap="round"/><line x1="50" y1="50" x2="60.28" y2="61.6" stroke="#7A263A" stroke-width="1.1" stroke-linecap="round"/><line x1="50" y1="50" x2="60.89" y2="94.18" stroke="#7A263A" stroke-width="1.1" stroke-linecap="round"/><line x1="50" y1="50" x2="46.29" y2="65.05" stroke="#7A263A" stroke-width="1.1" stroke-linecap="round"/><line x1="50" y1="50" x2="19.83" y2="84.06" stroke="#7A263A" stroke-width="1.1" stroke-linecap="round"/><line x1="50" y1="50" x2="35.51" y2="55.5" stroke="#7A263A" stroke-width="1.1" stroke-linecap="round"/><line x1="50" y1="50" x2="4.83" y2="44.52" stroke="#7A263A" stroke-width="1.1" stroke-linecap="round"/><line x1="50" y1="50" x2="37.24" y2="41.19" stroke="#7A263A" stroke-width="1.1" stroke-linecap="round"/><line x1="50" y1="50" x2="28.86" y2="9.71" stroke="#7A263A" stroke-width="1.1" stroke-linecap="round"/><circle cx="50" cy="50" r="3.0" fill="#7A263A"/><circle cx="50" cy="50" r="1.3" fill="#F7F4EE"/></svg></g>
<text x="420" y="132" font-size="16" fill="#17324D">13 — sharp alternation (seal)</text>
<text x="420" y="154" font-size="12" fill="#6B7280">c13-sharp-seal.svg</text>
<g transform="translate(30,220)"><svg width="120" height="120" viewBox="0 0 100 100"><circle cx="50" cy="50" r="47" fill="none" stroke="#D9B36C" stroke-width="2"/><path d="M50 4L52.39 40.29L58.37 34.06L56.63 42.51L87.86 23.87L59.35 46.45L67.87 47.83L59.93 51.21L93.01 66.31L58.23 55.68L61.94 63.47L54.65 58.85L61.01 94.66L50 60L45.69 67.48L45.35 58.85L19.5 84.43L41.77 55.68L33.17 56.38L40.07 51.21L4.34 44.46L40.65 46.45L35.19 39.77L43.37 42.51L28.62 9.27L47.61 40.29Z" fill="#17324D"/><line x1="50" y1="50" x2="50" y2="5.5" stroke="#F7F4EE" stroke-width="1.0" stroke-linecap="round"/><line x1="50" y1="50" x2="57.67" y2="35.39" stroke="#F7F4EE" stroke-width="1.0" stroke-linecap="round"/><line x1="50" y1="50" x2="86.62" y2="24.72" stroke="#F7F4EE" stroke-width="1.0" stroke-linecap="round"/><line x1="50" y1="50" x2="66.38" y2="48.01" stroke="#F7F4EE" stroke-width="1.0" stroke-linecap="round"/><line x1="50" y1="50" x2="91.61" y2="65.78" stroke="#F7F4EE" stroke-width="1.0" stroke-linecap="round"/><line x1="50" y1="50" x2="60.94" y2="62.35" stroke="#F7F4EE" stroke-width="1.0" stroke-linecap="round"/><line x1="50" y1="50" x2="60.65" y2="93.21" stroke="#F7F4EE" stroke-width="1.0" stroke-linecap="round"/><line x1="50" y1="50" x2="46.05" y2="66.02" stroke="#F7F4EE" stroke-width="1.0" stroke-linecap="round"/><line x1="50" y1="50" x2="20.49" y2="83.31" stroke="#F7F4EE" stroke-width="1.0" stroke-linecap="round"/><line x1="50" y1="50" x2="34.57" y2="55.85" stroke="#F7F4EE" stroke-width="1.0" stroke-linecap="round"/><line x1="50" y1="50" x2="5.82" y2="44.64" stroke="#F7F4EE" stroke-width="1.0" stroke-linecap="round"/><line x1="50" y1="50" x2="36.42" y2="40.63" stroke="#F7F4EE" stroke-width="1.0" stroke-linecap="round"/><line x1="50" y1="50" x2="29.32" y2="10.6" stroke="#F7F4EE" stroke-width="1.0" stroke-linecap="round"/><circle cx="50" cy="50" r="4.0" fill="#F7F4EE"/><circle cx="50" cy="50" r="1.6" fill="#17324D"/></svg></g>
<rect x="170" y="220" width="120" height="120" fill="#17324D"/>
<g transform="translate(170,220)"><svg width="120" height="120" viewBox="0 0 100 100"><circle cx="50" cy="50" r="47" fill="none" stroke="#D9B36C" stroke-width="2"/><path d="M50 4L52.39 40.29L58.37 34.06L56.63 42.51L87.86 23.87L59.35 46.45L67.87 47.83L59.93 51.21L93.01 66.31L58.23 55.68L61.94 63.47L54.65 58.85L61.01 94.66L50 60L45.69 67.48L45.35 58.85L19.5 84.43L41.77 55.68L33.17 56.38L40.07 51.21L4.34 44.46L40.65 46.45L35.19 39.77L43.37 42.51L28.62 9.27L47.61 40.29Z" fill="#17324D"/><line x1="50" y1="50" x2="50" y2="5.5" stroke="#F7F4EE" stroke-width="1.0" stroke-linecap="round"/><line x1="50" y1="50" x2="57.67" y2="35.39" stroke="#F7F4EE" stroke-width="1.0" stroke-linecap="round"/><line x1="50" y1="50" x2="86.62" y2="24.72" stroke="#F7F4EE" stroke-width="1.0" stroke-linecap="round"/><line x1="50" y1="50" x2="66.38" y2="48.01" stroke="#F7F4EE" stroke-width="1.0" stroke-linecap="round"/><line x1="50" y1="50" x2="91.61" y2="65.78" stroke="#F7F4EE" stroke-width="1.0" stroke-linecap="round"/><line x1="50" y1="50" x2="60.94" y2="62.35" stroke="#F7F4EE" stroke-width="1.0" stroke-linecap="round"/><line x1="50" y1="50" x2="60.65" y2="93.21" stroke="#F7F4EE" stroke-width="1.0" stroke-linecap="round"/><line x1="50" y1="50" x2="46.05" y2="66.02" stroke="#F7F4EE" stroke-width="1.0" stroke-linecap="round"/><line x1="50" y1="50" x2="20.49" y2="83.31" stroke="#F7F4EE" stroke-width="1.0" stroke-linecap="round"/><line x1="50" y1="50" x2="34.57" y2="55.85" stroke="#F7F4EE" stroke-width="1.0" stroke-linecap="round"/><line x1="50" y1="50" x2="5.82" y2="44.64" stroke="#F7F4EE" stroke-width="1.0" stroke-linecap="round"/><line x1="50" y1="50" x2="36.42" y2="40.63" stroke="#F7F4EE" stroke-width="1.0" stroke-linecap="round"/><line x1="50" y1="50" x2="29.32" y2="10.6" stroke="#F7F4EE" stroke-width="1.0" stroke-linecap="round"/><circle cx="50" cy="50" r="4.0" fill="#F7F4EE"/><circle cx="50" cy="50" r="1.6" fill="#17324D"/></svg></g>
<g transform="translate(320,262)"><svg width="40" height="40" viewBox="0 0 100 100"><circle cx="50" cy="50" r="47" fill="none" stroke="#D9B36C" stroke-width="2"/><path d="M50 4L52.39 40.29L58.37 34.06L56.63 42.51L87.86 23.87L59.35 46.45L67.87 47.83L59.93 51.21L93.01 66.31L58.23 55.68L61.94 63.47L54.65 58.85L61.01 94.66L50 60L45.69 67.48L45.35 58.85L19.5 84.43L41.77 55.68L33.17 56.38L40.07 51.21L4.34 44.46L40.65 46.45L35.19 39.77L43.37 42.51L28.62 9.27L47.61 40.29Z" fill="#17324D"/><line x1="50" y1="50" x2="50" y2="5.5" stroke="#F7F4EE" stroke-width="1.0" stroke-linecap="round"/><line x1="50" y1="50" x2="57.67" y2="35.39" stroke="#F7F4EE" stroke-width="1.0" stroke-linecap="round"/><line x1="50" y1="50" x2="86.62" y2="24.72" stroke="#F7F4EE" stroke-width="1.0" stroke-linecap="round"/><line x1="50" y1="50" x2="66.38" y2="48.01" stroke="#F7F4EE" stroke-width="1.0" stroke-linecap="round"/><line x1="50" y1="50" x2="91.61" y2="65.78" stroke="#F7F4EE" stroke-width="1.0" stroke-linecap="round"/><line x1="50" y1="50" x2="60.94" y2="62.35" stroke="#F7F4EE" stroke-width="1.0" stroke-linecap="round"/><line x1="50" y1="50" x2="60.65" y2="93.21" stroke="#F7F4EE" stroke-width="1.0" stroke-linecap="round"/><line x1="50" y1="50" x2="46.05" y2="66.02" stroke="#F7F4EE" stroke-width="1.0" stroke-linecap="round"/><line x1="50" y1="50" x2="20.49" y2="83.31" stroke="#F7F4EE" stroke-width="1.0" stroke-linecap="round"/><line x1="50" y1="50" x2="34.57" y2="55.85" stroke="#F7F4EE" stroke-width="1.0" stroke-linecap="round"/><line x1="50" y1="50" x2="5.82" y2="44.64" stroke="#F7F4EE" stroke-width="1.0" stroke-linecap="round"/><line x1="50" y1="50" x2="36.42" y2="40.63" stroke="#F7F4EE" stroke-width="1.0" stroke-linecap="round"/><line x1="50" y1="50" x2="29.32" y2="10.6" stroke="#F7F4EE" stroke-width="1.0" stroke-linecap="round"/><circle cx="50" cy="50" r="4.0" fill="#F7F4EE"/><circle cx="50" cy="50" r="1.6" fill="#17324D"/></svg></g>
<g transform="translate(375,270)"><svg width="24" height="24" viewBox="0 0 100 100"><circle cx="50" cy="50" r="47" fill="none" stroke="#D9B36C" stroke-width="2"/><path d="M50 4L52.39 40.29L58.37 34.06L56.63 42.51L87.86 23.87L59.35 46.45L67.87 47.83L59.93 51.21L93.01 66.31L58.23 55.68L61.94 63.47L54.65 58.85L61.01 94.66L50 60L45.69 67.48L45.35 58.85L19.5 84.43L41.77 55.68L33.17 56.38L40.07 51.21L4.34 44.46L40.65 46.45L35.19 39.77L43.37 42.51L28.62 9.27L47.61 40.29Z" fill="#17324D"/><line x1="50" y1="50" x2="50" y2="5.5" stroke="#F7F4EE" stroke-width="1.0" stroke-linecap="round"/><line x1="50" y1="50" x2="57.67" y2="35.39" stroke="#F7F4EE" stroke-width="1.0" stroke-linecap="round"/><line x1="50" y1="50" x2="86.62" y2="24.72" stroke="#F7F4EE" stroke-width="1.0" stroke-linecap="round"/><line x1="50" y1="50" x2="66.38" y2="48.01" stroke="#F7F4EE" stroke-width="1.0" stroke-linecap="round"/><line x1="50" y1="50" x2="91.61" y2="65.78" stroke="#F7F4EE" stroke-width="1.0" stroke-linecap="round"/><line x1="50" y1="50" x2="60.94" y2="62.35" stroke="#F7F4EE" stroke-width="1.0" stroke-linecap="round"/><line x1="50" y1="50" x2="60.65" y2="93.21" stroke="#F7F4EE" stroke-width="1.0" stroke-linecap="round"/><line x1="50" y1="50" x2="46.05" y2="66.02" stroke="#F7F4EE" stroke-width="1.0" stroke-linecap="round"/><line x1="50" y1="50" x2="20.49" y2="83.31" stroke="#F7F4EE" stroke-width="1.0" stroke-linecap="round"/><line x1="50" y1="50" x2="34.57" y2="55.85" stroke="#F7F4EE" stroke-width="1.0" stroke-linecap="round"/><line x1="50" y1="50" x2="5.82" y2="44.64" stroke="#F7F4EE" stroke-width="1.0" stroke-linecap="round"/><line x1="50" y1="50" x2="36.42" y2="40.63" stroke="#F7F4EE" stroke-width="1.0" stroke-linecap="round"/><line x1="50" y1="50" x2="29.32" y2="10.6" stroke="#F7F4EE" stroke-width="1.0" stroke-linecap="round"/><circle cx="50" cy="50" r="4.0" fill="#F7F4EE"/><circle cx="50" cy="50" r="1.6" fill="#17324D"/></svg></g>
<text x="420" y="282" font-size="16" fill="#17324D">13 — sharp, observatory</text>
<text x="420" y="304" font-size="12" fill="#6B7280">c13-sharp-obs.svg</text>
<g transform="translate(30,370)"><svg width="120" height="120" viewBox="0 0 100 100"><circle cx="50" cy="50" r="48" fill="#F7F4EE"/><path d="M50 3L52.39 40.29L50 50L47.61 40.29Z" fill="#C2972F"/><path d="M58.83 33.18L56.63 42.51L50 50L52.39 40.29Z" fill="#17324D"/><path d="M88.68 23.3L59.35 46.45L50 50L56.63 42.51Z" fill="#2A7F9E"/><path d="M68.86 47.71L59.93 51.21L50 50L59.35 46.45Z" fill="#7A263A"/><path d="M93.95 66.67L58.23 55.68L50 50L59.93 51.21Z" fill="#3F6F5E"/><path d="M62.6 64.22L54.65 58.85L50 50L58.23 55.68Z" fill="#6B7280"/><path d="M61.25 95.63L50 60L50 50L54.65 58.85Z" fill="#C2972F"/><path d="M45.45 68.45L45.35 58.85L50 50L50 60Z" fill="#17324D"/><path d="M18.83 85.18L41.77 55.68L50 50L45.35 58.85Z" fill="#2A7F9E"/><path d="M32.23 56.74L40.07 51.21L50 50L41.77 55.68Z" fill="#7A263A"/><path d="M3.34 44.33L40.65 46.45L50 50L40.07 51.21Z" fill="#3F6F5E"/><path d="M34.36 39.21L43.37 42.51L50 50L40.65 46.45Z" fill="#6B7280"/><path d="M28.16 8.38L47.61 40.29L50 50L43.37 42.51Z" fill="#C2972F"/><circle cx="50" cy="50" r="3.2" fill="#7A263A"/><circle cx="50" cy="50" r="1.4" fill="#F7F4EE"/></svg></g>
<rect x="170" y="370" width="120" height="120" fill="#17324D"/>
<g transform="translate(170,370)"><svg width="120" height="120" viewBox="0 0 100 100"><circle cx="50" cy="50" r="48" fill="#F7F4EE"/><path d="M50 3L52.39 40.29L50 50L47.61 40.29Z" fill="#C2972F"/><path d="M58.83 33.18L56.63 42.51L50 50L52.39 40.29Z" fill="#17324D"/><path d="M88.68 23.3L59.35 46.45L50 50L56.63 42.51Z" fill="#2A7F9E"/><path d="M68.86 47.71L59.93 51.21L50 50L59.35 46.45Z" fill="#7A263A"/><path d="M93.95 66.67L58.23 55.68L50 50L59.93 51.21Z" fill="#3F6F5E"/><path d="M62.6 64.22L54.65 58.85L50 50L58.23 55.68Z" fill="#6B7280"/><path d="M61.25 95.63L50 60L50 50L54.65 58.85Z" fill="#C2972F"/><path d="M45.45 68.45L45.35 58.85L50 50L50 60Z" fill="#17324D"/><path d="M18.83 85.18L41.77 55.68L50 50L45.35 58.85Z" fill="#2A7F9E"/><path d="M32.23 56.74L40.07 51.21L50 50L41.77 55.68Z" fill="#7A263A"/><path d="M3.34 44.33L40.65 46.45L50 50L40.07 51.21Z" fill="#3F6F5E"/><path d="M34.36 39.21L43.37 42.51L50 50L40.65 46.45Z" fill="#6B7280"/><path d="M28.16 8.38L47.61 40.29L50 50L43.37 42.51Z" fill="#C2972F"/><circle cx="50" cy="50" r="3.2" fill="#7A263A"/><circle cx="50" cy="50" r="1.4" fill="#F7F4EE"/></svg></g>
<g transform="translate(320,412)"><svg width="40" height="40" viewBox="0 0 100 100"><circle cx="50" cy="50" r="48" fill="#F7F4EE"/><path d="M50 3L52.39 40.29L50 50L47.61 40.29Z" fill="#C2972F"/><path d="M58.83 33.18L56.63 42.51L50 50L52.39 40.29Z" fill="#17324D"/><path d="M88.68 23.3L59.35 46.45L50 50L56.63 42.51Z" fill="#2A7F9E"/><path d="M68.86 47.71L59.93 51.21L50 50L59.35 46.45Z" fill="#7A263A"/><path d="M93.95 66.67L58.23 55.68L50 50L59.93 51.21Z" fill="#3F6F5E"/><path d="M62.6 64.22L54.65 58.85L50 50L58.23 55.68Z" fill="#6B7280"/><path d="M61.25 95.63L50 60L50 50L54.65 58.85Z" fill="#C2972F"/><path d="M45.45 68.45L45.35 58.85L50 50L50 60Z" fill="#17324D"/><path d="M18.83 85.18L41.77 55.68L50 50L45.35 58.85Z" fill="#2A7F9E"/><path d="M32.23 56.74L40.07 51.21L50 50L41.77 55.68Z" fill="#7A263A"/><path d="M3.34 44.33L40.65 46.45L50 50L40.07 51.21Z" fill="#3F6F5E"/><path d="M34.36 39.21L43.37 42.51L50 50L40.65 46.45Z" fill="#6B7280"/><path d="M28.16 8.38L47.61 40.29L50 50L43.37 42.51Z" fill="#C2972F"/><circle cx="50" cy="50" r="3.2" fill="#7A263A"/><circle cx="50" cy="50" r="1.4" fill="#F7F4EE"/></svg></g>
<g transform="translate(375,420)"><svg width="24" height="24" viewBox="0 0 100 100"><circle cx="50" cy="50" r="48" fill="#F7F4EE"/><path d="M50 3L52.39 40.29L50 50L47.61 40.29Z" fill="#C2972F"/><path d="M58.83 33.18L56.63 42.51L50 50L52.39 40.29Z" fill="#17324D"/><path d="M88.68 23.3L59.35 46.45L50 50L56.63 42.51Z" fill="#2A7F9E"/><path d="M68.86 47.71L59.93 51.21L50 50L59.35 46.45Z" fill="#7A263A"/><path d="M93.95 66.67L58.23 55.68L50 50L59.93 51.21Z" fill="#3F6F5E"/><path d="M62.6 64.22L54.65 58.85L50 50L58.23 55.68Z" fill="#6B7280"/><path d="M61.25 95.63L50 60L50 50L54.65 58.85Z" fill="#C2972F"/><path d="M45.45 68.45L45.35 58.85L50 50L50 60Z" fill="#17324D"/><path d="M18.83 85.18L41.77 55.68L50 50L45.35 58.85Z" fill="#2A7F9E"/><path d="M32.23 56.74L40.07 51.21L50 50L41.77 55.68Z" fill="#7A263A"/><path d="M3.34 44.33L40.65 46.45L50 50L40.07 51.21Z" fill="#3F6F5E"/><path d="M34.36 39.21L43.37 42.51L50 50L40.65 46.45Z" fill="#6B7280"/><path d="M28.16 8.38L47.61 40.29L50 50L43.37 42.51Z" fill="#C2972F"/><circle cx="50" cy="50" r="3.2" fill="#7A263A"/><circle cx="50" cy="50" r="1.4" fill="#F7F4EE"/></svg></g>
<text x="420" y="432" font-size="16" fill="#17324D">13 — sharp cells-colour compass</text>
<text x="420" y="454" font-size="12" fill="#6B7280">c13-sharp-cells.svg</text>
<g transform="translate(30,520)"><svg width="120" height="120" viewBox="0 0 100 100"><circle cx="50" cy="50" r="48" fill="#7A263A"/><path d="M50 32L52.63 39.32L58.37 34.06L57.29 41.77L88.68 23.3L60.29 46.1L96.66 44.33L60.92 51.33L93.95 66.67L59.05 56.25L81.17 85.18L55.11 59.74L61.25 95.63L50 61L38.75 95.63L44.89 59.74L18.83 85.18L40.95 56.25L6.05 66.67L39.08 51.33L3.34 44.33L39.71 46.1L11.32 23.3L42.71 41.77L41.63 34.06L47.37 39.32Z" fill="#F7F4EE"/><line x1="50" y1="50" x2="50" y2="33.5" stroke="#7A263A" stroke-width="1.1" stroke-linecap="round"/><line x1="50" y1="50" x2="57.67" y2="35.39" stroke="#7A263A" stroke-width="1.1" stroke-linecap="round"/><line x1="50" y1="50" x2="87.45" y2="24.15" stroke="#7A263A" stroke-width="1.1" stroke-linecap="round"/><line x1="50" y1="50" x2="95.17" y2="44.52" stroke="#7A263A" stroke-width="1.1" stroke-linecap="round"/><line x1="50" y1="50" x2="92.54" y2="66.13" stroke="#7A263A" stroke-width="1.1" stroke-linecap="round"/><line x1="50" y1="50" x2="80.17" y2="84.06" stroke="#7A263A" stroke-width="1.1" stroke-linecap="round"/><line x1="50" y1="50" x2="60.89" y2="94.18" stroke="#7A263A" stroke-width="1.1" stroke-linecap="round"/><line x1="50" y1="50" x2="39.11" y2="94.18" stroke="#7A263A" stroke-width="1.1" stroke-linecap="round"/><line x1="50" y1="50" x2="19.83" y2="84.06" stroke="#7A263A" stroke-width="1.1" stroke-linecap="round"/><line x1="50" y1="50" x2="7.46" y2="66.13" stroke="#7A263A" stroke-width="1.1" stroke-linecap="round"/><line x1="50" y1="50" x2="4.83" y2="44.52" stroke="#7A263A" stroke-width="1.1" stroke-linecap="round"/><line x1="50" y1="50" x2="12.55" y2="24.15" stroke="#7A263A" stroke-width="1.1" stroke-linecap="round"/><line x1="50" y1="50" x2="42.33" y2="35.39" stroke="#7A263A" stroke-width="1.1" stroke-linecap="round"/><circle cx="50" cy="50" r="3.0" fill="#7A263A"/><circle cx="50" cy="50" r="1.3" fill="#F7F4EE"/></svg></g>
<rect x="170" y="520" width="120" height="120" fill="#17324D"/>
<g transform="translate(170,520)"><svg width="120" height="120" viewBox="0 0 100 100"><circle cx="50" cy="50" r="48" fill="#7A263A"/><path d="M50 32L52.63 39.32L58.37 34.06L57.29 41.77L88.68 23.3L60.29 46.1L96.66 44.33L60.92 51.33L93.95 66.67L59.05 56.25L81.17 85.18L55.11 59.74L61.25 95.63L50 61L38.75 95.63L44.89 59.74L18.83 85.18L40.95 56.25L6.05 66.67L39.08 51.33L3.34 44.33L39.71 46.1L11.32 23.3L42.71 41.77L41.63 34.06L47.37 39.32Z" fill="#F7F4EE"/><line x1="50" y1="50" x2="50" y2="33.5" stroke="#7A263A" stroke-width="1.1" stroke-linecap="round"/><line x1="50" y1="50" x2="57.67" y2="35.39" stroke="#7A263A" stroke-width="1.1" stroke-linecap="round"/><line x1="50" y1="50" x2="87.45" y2="24.15" stroke="#7A263A" stroke-width="1.1" stroke-linecap="round"/><line x1="50" y1="50" x2="95.17" y2="44.52" stroke="#7A263A" stroke-width="1.1" stroke-linecap="round"/><line x1="50" y1="50" x2="92.54" y2="66.13" stroke="#7A263A" stroke-width="1.1" stroke-linecap="round"/><line x1="50" y1="50" x2="80.17" y2="84.06" stroke="#7A263A" stroke-width="1.1" stroke-linecap="round"/><line x1="50" y1="50" x2="60.89" y2="94.18" stroke="#7A263A" stroke-width="1.1" stroke-linecap="round"/><line x1="50" y1="50" x2="39.11" y2="94.18" stroke="#7A263A" stroke-width="1.1" stroke-linecap="round"/><line x1="50" y1="50" x2="19.83" y2="84.06" stroke="#7A263A" stroke-width="1.1" stroke-linecap="round"/><line x1="50" y1="50" x2="7.46" y2="66.13" stroke="#7A263A" stroke-width="1.1" stroke-linecap="round"/><line x1="50" y1="50" x2="4.83" y2="44.52" stroke="#7A263A" stroke-width="1.1" stroke-linecap="round"/><line x1="50" y1="50" x2="12.55" y2="24.15" stroke="#7A263A" stroke-width="1.1" stroke-linecap="round"/><line x1="50" y1="50" x2="42.33" y2="35.39" stroke="#7A263A" stroke-width="1.1" stroke-linecap="round"/><circle cx="50" cy="50" r="3.0" fill="#7A263A"/><circle cx="50" cy="50" r="1.3" fill="#F7F4EE"/></svg></g>
<g transform="translate(320,562)"><svg width="40" height="40" viewBox="0 0 100 100"><circle cx="50" cy="50" r="48" fill="#7A263A"/><path d="M50 32L52.63 39.32L58.37 34.06L57.29 41.77L88.68 23.3L60.29 46.1L96.66 44.33L60.92 51.33L93.95 66.67L59.05 56.25L81.17 85.18L55.11 59.74L61.25 95.63L50 61L38.75 95.63L44.89 59.74L18.83 85.18L40.95 56.25L6.05 66.67L39.08 51.33L3.34 44.33L39.71 46.1L11.32 23.3L42.71 41.77L41.63 34.06L47.37 39.32Z" fill="#F7F4EE"/><line x1="50" y1="50" x2="50" y2="33.5" stroke="#7A263A" stroke-width="1.1" stroke-linecap="round"/><line x1="50" y1="50" x2="57.67" y2="35.39" stroke="#7A263A" stroke-width="1.1" stroke-linecap="round"/><line x1="50" y1="50" x2="87.45" y2="24.15" stroke="#7A263A" stroke-width="1.1" stroke-linecap="round"/><line x1="50" y1="50" x2="95.17" y2="44.52" stroke="#7A263A" stroke-width="1.1" stroke-linecap="round"/><line x1="50" y1="50" x2="92.54" y2="66.13" stroke="#7A263A" stroke-width="1.1" stroke-linecap="round"/><line x1="50" y1="50" x2="80.17" y2="84.06" stroke="#7A263A" stroke-width="1.1" stroke-linecap="round"/><line x1="50" y1="50" x2="60.89" y2="94.18" stroke="#7A263A" stroke-width="1.1" stroke-linecap="round"/><line x1="50" y1="50" x2="39.11" y2="94.18" stroke="#7A263A" stroke-width="1.1" stroke-linecap="round"/><line x1="50" y1="50" x2="19.83" y2="84.06" stroke="#7A263A" stroke-width="1.1" stroke-linecap="round"/><line x1="50" y1="50" x2="7.46" y2="66.13" stroke="#7A263A" stroke-width="1.1" stroke-linecap="round"/><line x1="50" y1="50" x2="4.83" y2="44.52" stroke="#7A263A" stroke-width="1.1" stroke-linecap="round"/><line x1="50" y1="50" x2="12.55" y2="24.15" stroke="#7A263A" stroke-width="1.1" stroke-linecap="round"/><line x1="50" y1="50" x2="42.33" y2="35.39" stroke="#7A263A" stroke-width="1.1" stroke-linecap="round"/><circle cx="50" cy="50" r="3.0" fill="#7A263A"/><circle cx="50" cy="50" r="1.3" fill="#F7F4EE"/></svg></g>
<g transform="translate(375,570)"><svg width="24" height="24" viewBox="0 0 100 100"><circle cx="50" cy="50" r="48" fill="#7A263A"/><path d="M50 32L52.63 39.32L58.37 34.06L57.29 41.77L88.68 23.3L60.29 46.1L96.66 44.33L60.92 51.33L93.95 66.67L59.05 56.25L81.17 85.18L55.11 59.74L61.25 95.63L50 61L38.75 95.63L44.89 59.74L18.83 85.18L40.95 56.25L6.05 66.67L39.08 51.33L3.34 44.33L39.71 46.1L11.32 23.3L42.71 41.77L41.63 34.06L47.37 39.32Z" fill="#F7F4EE"/><line x1="50" y1="50" x2="50" y2="33.5" stroke="#7A263A" stroke-width="1.1" stroke-linecap="round"/><line x1="50" y1="50" x2="57.67" y2="35.39" stroke="#7A263A" stroke-width="1.1" stroke-linecap="round"/><line x1="50" y1="50" x2="87.45" y2="24.15" stroke="#7A263A" stroke-width="1.1" stroke-linecap="round"/><line x1="50" y1="50" x2="95.17" y2="44.52" stroke="#7A263A" stroke-width="1.1" stroke-linecap="round"/><line x1="50" y1="50" x2="92.54" y2="66.13" stroke="#7A263A" stroke-width="1.1" stroke-linecap="round"/><line x1="50" y1="50" x2="80.17" y2="84.06" stroke="#7A263A" stroke-width="1.1" stroke-linecap="round"/><line x1="50" y1="50" x2="60.89" y2="94.18" stroke="#7A263A" stroke-width="1.1" stroke-linecap="round"/><line x1="50" y1="50" x2="39.11" y2="94.18" stroke="#7A263A" stroke-width="1.1" stroke-linecap="round"/><line x1="50" y1="50" x2="19.83" y2="84.06" stroke="#7A263A" stroke-width="1.1" stroke-linecap="round"/><line x1="50" y1="50" x2="7.46" y2="66.13" stroke="#7A263A" stroke-width="1.1" stroke-linecap="round"/><line x1="50" y1="50" x2="4.83" y2="44.52" stroke="#7A263A" stroke-width="1.1" stroke-linecap="round"/><line x1="50" y1="50" x2="12.55" y2="24.15" stroke="#7A263A" stroke-width="1.1" stroke-linecap="round"/><line x1="50" y1="50" x2="42.33" y2="35.39" stroke="#7A263A" stroke-width="1.1" stroke-linecap="round"/><circle cx="50" cy="50" r="3.0" fill="#7A263A"/><circle cx="50" cy="50" r="1.3" fill="#F7F4EE"/></svg></g>
<text x="420" y="582" font-size="16" fill="#17324D">13 — 10 provinces + 3 short territories (sharp)</text>
<text x="420" y="604" font-size="12" fill="#6B7280">c13-territories-sharp.svg</text>
<g transform="translate(30,670)"><svg width="120" height="120" viewBox="0 0 100 100"><circle cx="50" cy="50" r="48" fill="#7A263A"/><path d="M50 3L53.38 38.49L60.27 34.02L59.07 42.14L92.75 30.48L61.88 48.29L68.81 52.7L60.92 54.98L85.52 80.78L56.49 60.1L55.35 68.23L50 62L36.76 95.1L43.51 60.1L35.64 62.44L39.08 54.98L3.48 56.69L38.12 48.29L32.72 42.11L40.93 42.14L24.59 10.46L46.62 38.49Z" fill="#F7F4EE"/><line x1="50" y1="50" x2="50" y2="4.5" stroke="#7A263A" stroke-width="1.1" stroke-linecap="round"/><line x1="50" y1="50" x2="59.46" y2="35.28" stroke="#7A263A" stroke-width="1.1" stroke-linecap="round"/><line x1="50" y1="50" x2="91.39" y2="31.1" stroke="#7A263A" stroke-width="1.1" stroke-linecap="round"/><line x1="50" y1="50" x2="67.32" y2="52.49" stroke="#7A263A" stroke-width="1.1" stroke-linecap="round"/><line x1="50" y1="50" x2="84.39" y2="79.8" stroke="#7A263A" stroke-width="1.1" stroke-linecap="round"/><line x1="50" y1="50" x2="54.93" y2="66.79" stroke="#7A263A" stroke-width="1.1" stroke-linecap="round"/><line x1="50" y1="50" x2="37.18" y2="93.66" stroke="#7A263A" stroke-width="1.1" stroke-linecap="round"/><line x1="50" y1="50" x2="36.77" y2="61.46" stroke="#7A263A" stroke-width="1.1" stroke-linecap="round"/><line x1="50" y1="50" x2="4.96" y2="56.48" stroke="#7A263A" stroke-width="1.1" stroke-linecap="round"/><line x1="50" y1="50" x2="34.08" y2="42.73" stroke="#7A263A" stroke-width="1.1" stroke-linecap="round"/><line x1="50" y1="50" x2="25.4" y2="11.72" stroke="#7A263A" stroke-width="1.1" stroke-linecap="round"/><circle cx="50" cy="50" r="3.0" fill="#7A263A"/><circle cx="50" cy="50" r="1.3" fill="#F7F4EE"/></svg></g>
<rect x="170" y="670" width="120" height="120" fill="#17324D"/>
<g transform="translate(170,670)"><svg width="120" height="120" viewBox="0 0 100 100"><circle cx="50" cy="50" r="48" fill="#7A263A"/><path d="M50 3L53.38 38.49L60.27 34.02L59.07 42.14L92.75 30.48L61.88 48.29L68.81 52.7L60.92 54.98L85.52 80.78L56.49 60.1L55.35 68.23L50 62L36.76 95.1L43.51 60.1L35.64 62.44L39.08 54.98L3.48 56.69L38.12 48.29L32.72 42.11L40.93 42.14L24.59 10.46L46.62 38.49Z" fill="#F7F4EE"/><line x1="50" y1="50" x2="50" y2="4.5" stroke="#7A263A" stroke-width="1.1" stroke-linecap="round"/><line x1="50" y1="50" x2="59.46" y2="35.28" stroke="#7A263A" stroke-width="1.1" stroke-linecap="round"/><line x1="50" y1="50" x2="91.39" y2="31.1" stroke="#7A263A" stroke-width="1.1" stroke-linecap="round"/><line x1="50" y1="50" x2="67.32" y2="52.49" stroke="#7A263A" stroke-width="1.1" stroke-linecap="round"/><line x1="50" y1="50" x2="84.39" y2="79.8" stroke="#7A263A" stroke-width="1.1" stroke-linecap="round"/><line x1="50" y1="50" x2="54.93" y2="66.79" stroke="#7A263A" stroke-width="1.1" stroke-linecap="round"/><line x1="50" y1="50" x2="37.18" y2="93.66" stroke="#7A263A" stroke-width="1.1" stroke-linecap="round"/><line x1="50" y1="50" x2="36.77" y2="61.46" stroke="#7A263A" stroke-width="1.1" stroke-linecap="round"/><line x1="50" y1="50" x2="4.96" y2="56.48" stroke="#7A263A" stroke-width="1.1" stroke-linecap="round"/><line x1="50" y1="50" x2="34.08" y2="42.73" stroke="#7A263A" stroke-width="1.1" stroke-linecap="round"/><line x1="50" y1="50" x2="25.4" y2="11.72" stroke="#7A263A" stroke-width="1.1" stroke-linecap="round"/><circle cx="50" cy="50" r="3.0" fill="#7A263A"/><circle cx="50" cy="50" r="1.3" fill="#F7F4EE"/></svg></g>
<g transform="translate(320,712)"><svg width="40" height="40" viewBox="0 0 100 100"><circle cx="50" cy="50" r="48" fill="#7A263A"/><path d="M50 3L53.38 38.49L60.27 34.02L59.07 42.14L92.75 30.48L61.88 48.29L68.81 52.7L60.92 54.98L85.52 80.78L56.49 60.1L55.35 68.23L50 62L36.76 95.1L43.51 60.1L35.64 62.44L39.08 54.98L3.48 56.69L38.12 48.29L32.72 42.11L40.93 42.14L24.59 10.46L46.62 38.49Z" fill="#F7F4EE"/><line x1="50" y1="50" x2="50" y2="4.5" stroke="#7A263A" stroke-width="1.1" stroke-linecap="round"/><line x1="50" y1="50" x2="59.46" y2="35.28" stroke="#7A263A" stroke-width="1.1" stroke-linecap="round"/><line x1="50" y1="50" x2="91.39" y2="31.1" stroke="#7A263A" stroke-width="1.1" stroke-linecap="round"/><line x1="50" y1="50" x2="67.32" y2="52.49" stroke="#7A263A" stroke-width="1.1" stroke-linecap="round"/><line x1="50" y1="50" x2="84.39" y2="79.8" stroke="#7A263A" stroke-width="1.1" stroke-linecap="round"/><line x1="50" y1="50" x2="54.93" y2="66.79" stroke="#7A263A" stroke-width="1.1" stroke-linecap="round"/><line x1="50" y1="50" x2="37.18" y2="93.66" stroke="#7A263A" stroke-width="1.1" stroke-linecap="round"/><line x1="50" y1="50" x2="36.77" y2="61.46" stroke="#7A263A" stroke-width="1.1" stroke-linecap="round"/><line x1="50" y1="50" x2="4.96" y2="56.48" stroke="#7A263A" stroke-width="1.1" stroke-linecap="round"/><line x1="50" y1="50" x2="34.08" y2="42.73" stroke="#7A263A" stroke-width="1.1" stroke-linecap="round"/><line x1="50" y1="50" x2="25.4" y2="11.72" stroke="#7A263A" stroke-width="1.1" stroke-linecap="round"/><circle cx="50" cy="50" r="3.0" fill="#7A263A"/><circle cx="50" cy="50" r="1.3" fill="#F7F4EE"/></svg></g>
<g transform="translate(375,720)"><svg width="24" height="24" viewBox="0 0 100 100"><circle cx="50" cy="50" r="48" fill="#7A263A"/><path d="M50 3L53.38 38.49L60.27 34.02L59.07 42.14L92.75 30.48L61.88 48.29L68.81 52.7L60.92 54.98L85.52 80.78L56.49 60.1L55.35 68.23L50 62L36.76 95.1L43.51 60.1L35.64 62.44L39.08 54.98L3.48 56.69L38.12 48.29L32.72 42.11L40.93 42.14L24.59 10.46L46.62 38.49Z" fill="#F7F4EE"/><line x1="50" y1="50" x2="50" y2="4.5" stroke="#7A263A" stroke-width="1.1" stroke-linecap="round"/><line x1="50" y1="50" x2="59.46" y2="35.28" stroke="#7A263A" stroke-width="1.1" stroke-linecap="round"/><line x1="50" y1="50" x2="91.39" y2="31.1" stroke="#7A263A" stroke-width="1.1" stroke-linecap="round"/><line x1="50" y1="50" x2="67.32" y2="52.49" stroke="#7A263A" stroke-width="1.1" stroke-linecap="round"/><line x1="50" y1="50" x2="84.39" y2="79.8" stroke="#7A263A" stroke-width="1.1" stroke-linecap="round"/><line x1="50" y1="50" x2="54.93" y2="66.79" stroke="#7A263A" stroke-width="1.1" stroke-linecap="round"/><line x1="50" y1="50" x2="37.18" y2="93.66" stroke="#7A263A" stroke-width="1.1" stroke-linecap="round"/><line x1="50" y1="50" x2="36.77" y2="61.46" stroke="#7A263A" stroke-width="1.1" stroke-linecap="round"/><line x1="50" y1="50" x2="4.96" y2="56.48" stroke="#7A263A" stroke-width="1.1" stroke-linecap="round"/><line x1="50" y1="50" x2="34.08" y2="42.73" stroke="#7A263A" stroke-width="1.1" stroke-linecap="round"/><line x1="50" y1="50" x2="25.4" y2="11.72" stroke="#7A263A" stroke-width="1.1" stroke-linecap="round"/><circle cx="50" cy="50" r="3.0" fill="#7A263A"/><circle cx="50" cy="50" r="1.3" fill="#F7F4EE"/></svg></g>
<text x="420" y="732" font-size="16" fill="#17324D">11 — sharp (seal) [prev best]</text>
<text x="420" y="754" font-size="12" fill="#6B7280">c11-sharp-seal.svg</text>
<g transform="translate(30,820)"><svg width="120" height="120" viewBox="0 0 100 100"><circle cx="50" cy="50" r="47" fill="none" stroke="#D9B36C" stroke-width="2"/><path d="M50 4L54.23 35.61L63.52 28.97L61.34 40.18L91.84 30.89L64.85 47.87L74.75 53.56L63.64 56.23L84.76 80.12L58.11 62.62L57.04 73.99L50 65L37.04 94.14L41.89 62.62L31.11 66.37L36.36 56.23L4.47 56.55L35.15 47.87L27.26 39.61L38.66 40.18L25.13 11.3L45.77 35.61Z" fill="#17324D"/><line x1="50" y1="50" x2="50" y2="5.5" stroke="#F7F4EE" stroke-width="1.0" stroke-linecap="round"/><line x1="50" y1="50" x2="62.71" y2="30.23" stroke="#F7F4EE" stroke-width="1.0" stroke-linecap="round"/><line x1="50" y1="50" x2="90.48" y2="31.51" stroke="#F7F4EE" stroke-width="1.0" stroke-linecap="round"/><line x1="50" y1="50" x2="73.26" y2="53.34" stroke="#F7F4EE" stroke-width="1.0" stroke-linecap="round"/><line x1="50" y1="50" x2="83.63" y2="79.14" stroke="#F7F4EE" stroke-width="1.0" stroke-linecap="round"/><line x1="50" y1="50" x2="56.62" y2="72.55" stroke="#F7F4EE" stroke-width="1.0" stroke-linecap="round"/><line x1="50" y1="50" x2="37.46" y2="92.7" stroke="#F7F4EE" stroke-width="1.0" stroke-linecap="round"/><line x1="50" y1="50" x2="32.24" y2="65.39" stroke="#F7F4EE" stroke-width="1.0" stroke-linecap="round"/><line x1="50" y1="50" x2="5.95" y2="56.33" stroke="#F7F4EE" stroke-width="1.0" stroke-linecap="round"/><line x1="50" y1="50" x2="28.62" y2="40.24" stroke="#F7F4EE" stroke-width="1.0" stroke-linecap="round"/><line x1="50" y1="50" x2="25.94" y2="12.56" stroke="#F7F4EE" stroke-width="1.0" stroke-linecap="round"/><circle cx="50" cy="50" r="4.0" fill="#F7F4EE"/><circle cx="50" cy="50" r="1.6" fill="#17324D"/></svg></g>
<rect x="170" y="820" width="120" height="120" fill="#17324D"/>
<g transform="translate(170,820)"><svg width="120" height="120" viewBox="0 0 100 100"><circle cx="50" cy="50" r="47" fill="none" stroke="#D9B36C" stroke-width="2"/><path d="M50 4L54.23 35.61L63.52 28.97L61.34 40.18L91.84 30.89L64.85 47.87L74.75 53.56L63.64 56.23L84.76 80.12L58.11 62.62L57.04 73.99L50 65L37.04 94.14L41.89 62.62L31.11 66.37L36.36 56.23L4.47 56.55L35.15 47.87L27.26 39.61L38.66 40.18L25.13 11.3L45.77 35.61Z" fill="#17324D"/><line x1="50" y1="50" x2="50" y2="5.5" stroke="#F7F4EE" stroke-width="1.0" stroke-linecap="round"/><line x1="50" y1="50" x2="62.71" y2="30.23" stroke="#F7F4EE" stroke-width="1.0" stroke-linecap="round"/><line x1="50" y1="50" x2="90.48" y2="31.51" stroke="#F7F4EE" stroke-width="1.0" stroke-linecap="round"/><line x1="50" y1="50" x2="73.26" y2="53.34" stroke="#F7F4EE" stroke-width="1.0" stroke-linecap="round"/><line x1="50" y1="50" x2="83.63" y2="79.14" stroke="#F7F4EE" stroke-width="1.0" stroke-linecap="round"/><line x1="50" y1="50" x2="56.62" y2="72.55" stroke="#F7F4EE" stroke-width="1.0" stroke-linecap="round"/><line x1="50" y1="50" x2="37.46" y2="92.7" stroke="#F7F4EE" stroke-width="1.0" stroke-linecap="round"/><line x1="50" y1="50" x2="32.24" y2="65.39" stroke="#F7F4EE" stroke-width="1.0" stroke-linecap="round"/><line x1="50" y1="50" x2="5.95" y2="56.33" stroke="#F7F4EE" stroke-width="1.0" stroke-linecap="round"/><line x1="50" y1="50" x2="28.62" y2="40.24" stroke="#F7F4EE" stroke-width="1.0" stroke-linecap="round"/><line x1="50" y1="50" x2="25.94" y2="12.56" stroke="#F7F4EE" stroke-width="1.0" stroke-linecap="round"/><circle cx="50" cy="50" r="4.0" fill="#F7F4EE"/><circle cx="50" cy="50" r="1.6" fill="#17324D"/></svg></g>
<g transform="translate(320,862)"><svg width="40" height="40" viewBox="0 0 100 100"><circle cx="50" cy="50" r="47" fill="none" stroke="#D9B36C" stroke-width="2"/><path d="M50 4L54.23 35.61L63.52 28.97L61.34 40.18L91.84 30.89L64.85 47.87L74.75 53.56L63.64 56.23L84.76 80.12L58.11 62.62L57.04 73.99L50 65L37.04 94.14L41.89 62.62L31.11 66.37L36.36 56.23L4.47 56.55L35.15 47.87L27.26 39.61L38.66 40.18L25.13 11.3L45.77 35.61Z" fill="#17324D"/><line x1="50" y1="50" x2="50" y2="5.5" stroke="#F7F4EE" stroke-width="1.0" stroke-linecap="round"/><line x1="50" y1="50" x2="62.71" y2="30.23" stroke="#F7F4EE" stroke-width="1.0" stroke-linecap="round"/><line x1="50" y1="50" x2="90.48" y2="31.51" stroke="#F7F4EE" stroke-width="1.0" stroke-linecap="round"/><line x1="50" y1="50" x2="73.26" y2="53.34" stroke="#F7F4EE" stroke-width="1.0" stroke-linecap="round"/><line x1="50" y1="50" x2="83.63" y2="79.14" stroke="#F7F4EE" stroke-width="1.0" stroke-linecap="round"/><line x1="50" y1="50" x2="56.62" y2="72.55" stroke="#F7F4EE" stroke-width="1.0" stroke-linecap="round"/><line x1="50" y1="50" x2="37.46" y2="92.7" stroke="#F7F4EE" stroke-width="1.0" stroke-linecap="round"/><line x1="50" y1="50" x2="32.24" y2="65.39" stroke="#F7F4EE" stroke-width="1.0" stroke-linecap="round"/><line x1="50" y1="50" x2="5.95" y2="56.33" stroke="#F7F4EE" stroke-width="1.0" stroke-linecap="round"/><line x1="50" y1="50" x2="28.62" y2="40.24" stroke="#F7F4EE" stroke-width="1.0" stroke-linecap="round"/><line x1="50" y1="50" x2="25.94" y2="12.56" stroke="#F7F4EE" stroke-width="1.0" stroke-linecap="round"/><circle cx="50" cy="50" r="4.0" fill="#F7F4EE"/><circle cx="50" cy="50" r="1.6" fill="#17324D"/></svg></g>
<g transform="translate(375,870)"><svg width="24" height="24" viewBox="0 0 100 100"><circle cx="50" cy="50" r="47" fill="none" stroke="#D9B36C" stroke-width="2"/><path d="M50 4L54.23 35.61L63.52 28.97L61.34 40.18L91.84 30.89L64.85 47.87L74.75 53.56L63.64 56.23L84.76 80.12L58.11 62.62L57.04 73.99L50 65L37.04 94.14L41.89 62.62L31.11 66.37L36.36 56.23L4.47 56.55L35.15 47.87L27.26 39.61L38.66 40.18L25.13 11.3L45.77 35.61Z" fill="#17324D"/><line x1="50" y1="50" x2="50" y2="5.5" stroke="#F7F4EE" stroke-width="1.0" stroke-linecap="round"/><line x1="50" y1="50" x2="62.71" y2="30.23" stroke="#F7F4EE" stroke-width="1.0" stroke-linecap="round"/><line x1="50" y1="50" x2="90.48" y2="31.51" stroke="#F7F4EE" stroke-width="1.0" stroke-linecap="round"/><line x1="50" y1="50" x2="73.26" y2="53.34" stroke="#F7F4EE" stroke-width="1.0" stroke-linecap="round"/><line x1="50" y1="50" x2="83.63" y2="79.14" stroke="#F7F4EE" stroke-width="1.0" stroke-linecap="round"/><line x1="50" y1="50" x2="56.62" y2="72.55" stroke="#F7F4EE" stroke-width="1.0" stroke-linecap="round"/><line x1="50" y1="50" x2="37.46" y2="92.7" stroke="#F7F4EE" stroke-width="1.0" stroke-linecap="round"/><line x1="50" y1="50" x2="32.24" y2="65.39" stroke="#F7F4EE" stroke-width="1.0" stroke-linecap="round"/><line x1="50" y1="50" x2="5.95" y2="56.33" stroke="#F7F4EE" stroke-width="1.0" stroke-linecap="round"/><line x1="50" y1="50" x2="28.62" y2="40.24" stroke="#F7F4EE" stroke-width="1.0" stroke-linecap="round"/><line x1="50" y1="50" x2="25.94" y2="12.56" stroke="#F7F4EE" stroke-width="1.0" stroke-linecap="round"/><circle cx="50" cy="50" r="4.0" fill="#F7F4EE"/><circle cx="50" cy="50" r="1.6" fill="#17324D"/></svg></g>
<text x="420" y="882" font-size="16" fill="#17324D">11 — observatory [prev best]</text>
<text x="420" y="904" font-size="12" fill="#6B7280">c11-alt-obs.svg</text>
</svg>