<svg xmlns="http://www.w3.org/2000/svg" viewBox="0 0 100 100"><circle cx="50" cy="50" r="47" fill="none" stroke="#D9B36C" stroke-width="2"/><path d="M50 4L54.33 36.69L64.11 30.58L61.33 41.77L93.75 35.79L64 50L72.83 57.42L61.33 58.23L77.04 87.21L54.33 63.31L50 74L45.67 63.31L22.96 87.21L38.67 58.23L27.17 57.42L36 50L6.25 35.79L38.67 41.77L35.89 30.58L45.67 36.69Z" fill="#17324D"/><line x1="50" y1="50" x2="50" y2="5.5" stroke="#F7F4EE" stroke-width="1.0" stroke-linecap="round"/><line x1="50" y1="50" x2="63.23" y2="31.8" stroke="#F7F4EE" stroke-width="1.0" stroke-linecap="round"/><line x1="50" y1="50" x2="92.32" y2="36.25" stroke="#F7F4EE" stroke-width="1.0" stroke-linecap="round"/><line x1="50" y1="50" x2="71.4" y2="56.95" stroke="#F7F4EE" stroke-width="1.0" stroke-linecap="round"/><line x1="50" y1="50" x2="76.16" y2="86" stroke="#F7F4EE" stroke-width="1.0" stroke-linecap="round"/><line x1="50" y1="50" x2="50" y2="72.5" stroke="#F7F4EE" stroke-width="1.0" stroke-linecap="round"/><line x1="50" y1="50" x2="23.84" y2="86" stroke="#F7F4EE" stroke-width="1.0" stroke-linecap="round"/><line x1="50" y1="50" x2="28.6" y2="56.95" stroke="#F7F4EE" stroke-width="1.0" stroke-linecap="round"/><line x1="50" y1="50" x2="7.68" y2="36.25" stroke="#F7F4EE" stroke-width="1.0" stroke-linecap="round"/><line x1="50" y1="50" x2="36.77" y2="31.8" stroke="#F7F4EE" stroke-width="1.0" stroke-linecap="round"/><circle cx="50" cy="50" r="4.0" fill="#F7F4EE"/><circle cx="50" cy="50" r="1.6" fill="#17324D"/></svg>
