<svg xmlns="http://www.w3.org/2000/svg" viewBox="0 0 100 100"><circle cx="50" cy="50" r="47" fill="none" stroke="#D9B36C" stroke-width="2"/><path d="M50 4L54.23 35.61L63.52 28.97L61.34 40.18L91.84 30.89L64.85 47.87L74.75 53.56L63.64 56.23L84.76 80.12L58.11 62.62L57.04 73.99L50 65L37.04 94.14L41.89 62.62L31.11 66.37L36.36 56.23L4.47 56.55L35.15 47.87L27.26 39.61L38.66 40.18L25.13 11.3L45.77 35.61Z" fill="#17324D"/><line x1="50" y1="50" x2="50" y2="5.5" stroke="#F7F4EE" stroke-width="1.0" stroke-linecap="round"/><line x1="50" y1="50" x2="62.71" y2="30.23" stroke="#F7F4EE" stroke-width="1.0" stroke-linecap="round"/><line x1="50" y1="50" x2="90.48" y2="31.51" stroke="#F7F4EE" stroke-width="1.0" stroke-linecap="round"/><line x1="50" y1="50" x2="73.26" y2="53.34" stroke="#F7F4EE" stroke-width="1.0" stroke-linecap="round"/><line x1="50" y1="50" x2="83.63" y2="79.14" stroke="#F7F4EE" stroke-width="1.0" stroke-linecap="round"/><line x1="50" y1="50" x2="56.62" y2="72.55" stroke="#F7F4EE" stroke-width="1.0" stroke-linecap="round"/><line x1="50" y1="50" x2="37.46" y2="92.7" stroke="#F7F4EE" stroke-width="1.0" stroke-linecap="round"/><line x1="50" y1="50" x2="32.24" y2="65.39" stroke="#F7F4EE" stroke-width="1.0" stroke-linecap="round"/><line x1="50" y1="50" x2="5.95" y2="56.33" stroke="#F7F4EE" stroke-width="1.0" stroke-linecap="round"/><line x1="50" y1="50" x2="28.62" y2="40.24" stroke="#F7F4EE" stroke-width="1.0" stroke-linecap="round"/><line x1="50" y1="50" x2="25.94" y2="12.56" stroke="#F7F4EE" stroke-width="1.0" stroke-linecap="round"/><circle cx="50" cy="50" r="4.0" fill="#F7F4EE"/><circle cx="50" cy="50" r="1.6" fill="#17324D"/></svg>
