<svg xmlns="http://www.w3.org/2000/svg" viewBox="0 0 100 100"><circle cx="50" cy="50" r="48" fill="#7A263A"/><path d="M50 3L53.38 38.49L60.27 34.02L59.07 42.14L92.75 30.48L61.88 48.29L68.81 52.7L60.92 54.98L85.52 80.78L56.49 60.1L55.35 68.23L50 62L36.76 95.1L43.51 60.1L35.64 62.44L39.08 54.98L3.48 56.69L38.12 48.29L32.72 42.11L40.93 42.14L24.59 10.46L46.62 38.49Z" fill="#F7F4EE"/><line x1="50" y1="50" x2="50" y2="4.5" stroke="#7A263A" stroke-width="1.1" stroke-linecap="round"/><line x1="50" y1="50" x2="59.46" y2="35.28" stroke="#7A263A" stroke-width="1.1" stroke-linecap="round"/><line x1="50" y1="50" x2="91.39" y2="31.1" stroke="#7A263A" stroke-width="1.1" stroke-linecap="round"/><line x1="50" y1="50" x2="67.32" y2="52.49" stroke="#7A263A" stroke-width="1.1" stroke-linecap="round"/><line x1="50" y1="50" x2="84.39" y2="79.8" stroke="#7A263A" stroke-width="1.1" stroke-linecap="round"/><line x1="50" y1="50" x2="54.93" y2="66.79" stroke="#7A263A" stroke-width="1.1" stroke-linecap="round"/><line x1="50" y1="50" x2="37.18" y2="93.66" stroke="#7A263A" stroke-width="1.1" stroke-linecap="round"/><line x1="50" y1="50" x2="36.77" y2="61.46" stroke="#7A263A" stroke-width="1.1" stroke-linecap="round"/><line x1="50" y1="50" x2="4.96" y2="56.48" stroke="#7A263A" stroke-width="1.1" stroke-linecap="round"/><line x1="50" y1="50" x2="34.08" y2="42.73" stroke="#7A263A" stroke-width="1.1" stroke-linecap="round"/><line x1="50" y1="50" x2="25.4" y2="11.72" stroke="#7A263A" stroke-width="1.1" stroke-linecap="round"/><circle cx="50" cy="50" r="3.0" fill="#7A263A"/><circle cx="50" cy="50" r="1.3" fill="#F7F4EE"/></svg>
