<svg xmlns="http://www.w3.org/2000/svg" viewBox="0 0 100 100"><circle cx="50" cy="50" r="48" fill="#7A263A"/><path d="M50 2L54.23 35.61L62.98 29.81L61.34 40.18L86.39 33.38L64.85 47.87L73.76 53.42L63.64 56.23L80.23 76.19L58.11 62.62L56.76 73.03L50 65L38.73 88.38L41.89 62.62L31.86 65.72L36.36 56.23L10.41 55.69L35.15 47.87L28.17 40.03L38.66 40.18L28.37 16.35L45.77 35.61Z" fill="#F7F4EE"/><line x1="50" y1="50" x2="50" y2="3.5" stroke="#7A263A" stroke-width="1.1" stroke-linecap="round"/><line x1="50" y1="50" x2="62.16" y2="31.07" stroke="#7A263A" stroke-width="1.1" stroke-linecap="round"/><line x1="50" y1="50" x2="85.02" y2="34.01" stroke="#7A263A" stroke-width="1.1" stroke-linecap="round"/><line x1="50" y1="50" x2="72.27" y2="53.2" stroke="#7A263A" stroke-width="1.1" stroke-linecap="round"/><line x1="50" y1="50" x2="79.1" y2="75.21" stroke="#7A263A" stroke-width="1.1" stroke-linecap="round"/><line x1="50" y1="50" x2="56.34" y2="71.59" stroke="#7A263A" stroke-width="1.1" stroke-linecap="round"/><line x1="50" y1="50" x2="39.15" y2="86.94" stroke="#7A263A" stroke-width="1.1" stroke-linecap="round"/><line x1="50" y1="50" x2="33" y2="64.73" stroke="#7A263A" stroke-width="1.1" stroke-linecap="round"/><line x1="50" y1="50" x2="11.89" y2="55.48" stroke="#7A263A" stroke-width="1.1" stroke-linecap="round"/><line x1="50" y1="50" x2="29.53" y2="40.65" stroke="#7A263A" stroke-width="1.1" stroke-linecap="round"/><line x1="50" y1="50" x2="29.19" y2="17.61" stroke="#7A263A" stroke-width="1.1" stroke-linecap="round"/><circle cx="50" cy="50" r="3.0" fill="#7A263A"/><circle cx="50" cy="50" r="1.3" fill="#F7F4EE"/></svg>
