<svg xmlns="http://www.w3.org/2000/svg" viewBox="0 0 100 100"><circle cx="50" cy="50" r="48" fill="#F7F4EE"/><path d="M50 3L52.39 40.29L50 50L47.61 40.29Z" fill="#C2972F"/><path d="M58.83 33.18L56.63 42.51L50 50L52.39 40.29Z" fill="#17324D"/><path d="M88.68 23.3L59.35 46.45L50 50L56.63 42.51Z" fill="#2A7F9E"/><path d="M68.86 47.71L59.93 51.21L50 50L59.35 46.45Z" fill="#7A263A"/><path d="M93.95 66.67L58.23 55.68L50 50L59.93 51.21Z" fill="#3F6F5E"/><path d="M62.6 64.22L54.65 58.85L50 50L58.23 55.68Z" fill="#6B7280"/><path d="M61.25 95.63L50 60L50 50L54.65 58.85Z" fill="#C2972F"/><path d="M45.45 68.45L45.35 58.85L50 50L50 60Z" fill="#17324D"/><path d="M18.83 85.18L41.77 55.68L50 50L45.35 58.85Z" fill="#2A7F9E"/><path d="M32.23 56.74L40.07 51.21L50 50L41.77 55.68Z" fill="#7A263A"/><path d="M3.34 44.33L40.65 46.45L50 50L40.07 51.21Z" fill="#3F6F5E"/><path d="M34.36 39.21L43.37 42.51L50 50L40.65 46.45Z" fill="#6B7280"/><path d="M28.16 8.38L47.61 40.29L50 50L43.37 42.51Z" fill="#C2972F"/><circle cx="50" cy="50" r="3.2" fill="#7A263A"/><circle cx="50" cy="50" r="1.4" fill="#F7F4EE"/></svg>
