<svg xmlns="http://www.w3.org/2000/svg" viewBox="0 0 100 100"><circle cx="50" cy="50" r="48" fill="#F7F4EE"/><path d="M50 4L53.35 36.41L50 50L46.65 36.41Z" fill="#C2972F"/><path d="M62.08 26.98L59.28 39.52L50 50L53.35 36.41Z" fill="#17324D"/><path d="M87.86 23.87L63.09 45.04L50 50L59.28 39.52Z" fill="#2A7F9E"/><path d="M75.81 46.87L63.9 51.69L50 50L63.09 45.04Z" fill="#7A263A"/><path d="M93.01 66.31L61.52 57.95L50 50L63.9 51.69Z" fill="#3F6F5E"/><path d="M67.24 69.46L56.51 62.4L50 50L61.52 57.95Z" fill="#6B7280"/><path d="M61.01 94.66L50 64L50 50L56.51 62.4Z" fill="#C2972F"/><path d="M43.78 75.24L43.49 62.4L50 50L50 64Z" fill="#17324D"/><path d="M19.5 84.43L38.48 57.95L50 50L43.49 62.4Z" fill="#2A7F9E"/><path d="M25.69 59.22L36.1 51.69L50 50L38.48 57.95Z" fill="#7A263A"/><path d="M4.34 44.46L36.91 45.04L50 50L36.1 51.69Z" fill="#3F6F5E"/><path d="M28.6 35.23L40.72 39.52L50 50L36.91 45.04Z" fill="#6B7280"/><path d="M28.62 9.27L46.65 36.41L50 50L40.72 39.52Z" fill="#C2972F"/><circle cx="50" cy="50" r="3.2" fill="#7A263A"/><circle cx="50" cy="50" r="1.4" fill="#F7F4EE"/></svg>
