<svg xmlns="http://www.w3.org/2000/svg" viewBox="0 0 100 100"><circle cx="50" cy="50" r="48" fill="#7A263A"/><path d="M50 32L52.63 39.32L58.37 34.06L57.29 41.77L88.68 23.3L60.29 46.1L96.66 44.33L60.92 51.33L93.95 66.67L59.05 56.25L81.17 85.18L55.11 59.74L61.25 95.63L50 61L38.75 95.63L44.89 59.74L18.83 85.18L40.95 56.25L6.05 66.67L39.08 51.33L3.34 44.33L39.71 46.1L11.32 23.3L42.71 41.77L41.63 34.06L47.37 39.32Z" fill="#F7F4EE"/><line x1="50" y1="50" x2="50" y2="33.5" stroke="#7A263A" stroke-width="1.1" stroke-linecap="round"/><line x1="50" y1="50" x2="57.67" y2="35.39" stroke="#7A263A" stroke-width="1.1" stroke-linecap="round"/><line x1="50" y1="50" x2="87.45" y2="24.15" stroke="#7A263A" stroke-width="1.1" stroke-linecap="round"/><line x1="50" y1="50" x2="95.17" y2="44.52" stroke="#7A263A" stroke-width="1.1" stroke-linecap="round"/><line x1="50" y1="50" x2="92.54" y2="66.13" stroke="#7A263A" stroke-width="1.1" stroke-linecap="round"/><line x1="50" y1="50" x2="80.17" y2="84.06" stroke="#7A263A" stroke-width="1.1" stroke-linecap="round"/><line x1="50" y1="50" x2="60.89" y2="94.18" stroke="#7A263A" stroke-width="1.1" stroke-linecap="round"/><line x1="50" y1="50" x2="39.11" y2="94.18" stroke="#7A263A" stroke-width="1.1" stroke-linecap="round"/><line x1="50" y1="50" x2="19.83" y2="84.06" stroke="#7A263A" stroke-width="1.1" stroke-linecap="round"/><line x1="50" y1="50" x2="7.46" y2="66.13" stroke="#7A263A" stroke-width="1.1" stroke-linecap="round"/><line x1="50" y1="50" x2="4.83" y2="44.52" stroke="#7A263A" stroke-width="1.1" stroke-linecap="round"/><line x1="50" y1="50" x2="12.55" y2="24.15" stroke="#7A263A" stroke-width="1.1" stroke-linecap="round"/><line x1="50" y1="50" x2="42.33" y2="35.39" stroke="#7A263A" stroke-width="1.1" stroke-linecap="round"/><circle cx="50" cy="50" r="3.0" fill="#7A263A"/><circle cx="50" cy="50" r="1.3" fill="#F7F4EE"/></svg>
