<svg xmlns="http://www.w3.org/2000/svg" viewBox="0 0 100 100"><circle cx="50" cy="50" r="48" fill="#7A263A"/><path d="M50 4L53.59 35.44L61.15 28.75L59.95 38.77L87.86 23.87L64.03 44.68L73.83 47.11L64.89 51.81L93.01 66.31L62.34 58.52L65.91 67.96L56.97 63.28L61.01 94.66L50 65L44.26 73.3L43.03 63.28L19.5 84.43L37.66 58.52L27.56 58.51L35.11 51.81L4.34 44.46L35.97 44.68L30.25 36.37L40.05 38.77L28.62 9.27L46.41 35.44Z" fill="#F7F4EE"/><line x1="50" y1="50" x2="50" y2="5.5" stroke="#7A263A" stroke-width="1.1" stroke-linecap="round"/><line x1="50" y1="50" x2="60.46" y2="30.08" stroke="#7A263A" stroke-width="1.1" stroke-linecap="round"/><line x1="50" y1="50" x2="86.62" y2="24.72" stroke="#7A263A" stroke-width="1.1" stroke-linecap="round"/><line x1="50" y1="50" x2="72.34" y2="47.29" stroke="#7A263A" stroke-width="1.1" stroke-linecap="round"/><line x1="50" y1="50" x2="91.61" y2="65.78" stroke="#7A263A" stroke-width="1.1" stroke-linecap="round"/><line x1="50" y1="50" x2="64.92" y2="66.84" stroke="#7A263A" stroke-width="1.1" stroke-linecap="round"/><line x1="50" y1="50" x2="60.65" y2="93.21" stroke="#7A263A" stroke-width="1.1" stroke-linecap="round"/><line x1="50" y1="50" x2="44.62" y2="71.85" stroke="#7A263A" stroke-width="1.1" stroke-linecap="round"/><line x1="50" y1="50" x2="20.49" y2="83.31" stroke="#7A263A" stroke-width="1.1" stroke-linecap="round"/><line x1="50" y1="50" x2="28.96" y2="57.98" stroke="#7A263A" stroke-width="1.1" stroke-linecap="round"/><line x1="50" y1="50" x2="5.82" y2="44.64" stroke="#7A263A" stroke-width="1.1" stroke-linecap="round"/><line x1="50" y1="50" x2="31.48" y2="37.22" stroke="#7A263A" stroke-width="1.1" stroke-linecap="round"/><line x1="50" y1="50" x2="29.32" y2="10.6" stroke="#7A263A" stroke-width="1.1" stroke-linecap="round"/><circle cx="50" cy="50" r="3.0" fill="#7A263A"/><circle cx="50" cy="50" r="1.3" fill="#F7F4EE"/></svg>
