<svg xmlns="http://www.w3.org/2000/svg" viewBox="0 0 100 100"><circle cx="50" cy="50" r="48" fill="#7A263A"/><path d="M50 24L53.59 35.44L62.08 26.98L59.95 38.77L87.86 23.87L64.03 44.68L95.66 44.46L64.89 51.81L93.01 66.31L62.34 58.52L80.5 84.43L56.97 63.28L61.01 94.66L50 65L38.99 94.66L43.03 63.28L19.5 84.43L37.66 58.52L6.99 66.31L35.11 51.81L4.34 44.46L35.97 44.68L12.14 23.87L40.05 38.77L37.92 26.98L46.41 35.44Z" fill="#F7F4EE"/><line x1="50" y1="50" x2="50" y2="25.5" stroke="#7A263A" stroke-width="1.1" stroke-linecap="round"/><line x1="50" y1="50" x2="61.39" y2="28.31" stroke="#7A263A" stroke-width="1.1" stroke-linecap="round"/><line x1="50" y1="50" x2="86.62" y2="24.72" stroke="#7A263A" stroke-width="1.1" stroke-linecap="round"/><line x1="50" y1="50" x2="94.18" y2="44.64" stroke="#7A263A" stroke-width="1.1" stroke-linecap="round"/><line x1="50" y1="50" x2="91.61" y2="65.78" stroke="#7A263A" stroke-width="1.1" stroke-linecap="round"/><line x1="50" y1="50" x2="79.51" y2="83.31" stroke="#7A263A" stroke-width="1.1" stroke-linecap="round"/><line x1="50" y1="50" x2="60.65" y2="93.21" stroke="#7A263A" stroke-width="1.1" stroke-linecap="round"/><line x1="50" y1="50" x2="39.35" y2="93.21" stroke="#7A263A" stroke-width="1.1" stroke-linecap="round"/><line x1="50" y1="50" x2="20.49" y2="83.31" stroke="#7A263A" stroke-width="1.1" stroke-linecap="round"/><line x1="50" y1="50" x2="8.39" y2="65.78" stroke="#7A263A" stroke-width="1.1" stroke-linecap="round"/><line x1="50" y1="50" x2="5.82" y2="44.64" stroke="#7A263A" stroke-width="1.1" stroke-linecap="round"/><line x1="50" y1="50" x2="13.38" y2="24.72" stroke="#7A263A" stroke-width="1.1" stroke-linecap="round"/><line x1="50" y1="50" x2="38.61" y2="28.31" stroke="#7A263A" stroke-width="1.1" stroke-linecap="round"/><circle cx="50" cy="50" r="3.0" fill="#7A263A"/><circle cx="50" cy="50" r="1.3" fill="#F7F4EE"/></svg>
