<svg xmlns="http://www.w3.org/2000/svg" viewBox="0 0 100 100"><circle cx="50" cy="50" r="47" fill="none" stroke="#D9B36C" stroke-width="2"/><path d="M50 4L52.39 40.29L58.37 34.06L56.63 42.51L87.86 23.87L59.35 46.45L67.87 47.83L59.93 51.21L93.01 66.31L58.23 55.68L61.94 63.47L54.65 58.85L61.01 94.66L50 60L45.69 67.48L45.35 58.85L19.5 84.43L41.77 55.68L33.17 56.38L40.07 51.21L4.34 44.46L40.65 46.45L35.19 39.77L43.37 42.51L28.62 9.27L47.61 40.29Z" fill="#17324D"/><line x1="50" y1="50" x2="50" y2="5.5" stroke="#F7F4EE" stroke-width="1.0" stroke-linecap="round"/><line x1="50" y1="50" x2="57.67" y2="35.39" stroke="#F7F4EE" stroke-width="1.0" stroke-linecap="round"/><line x1="50" y1="50" x2="86.62" y2="24.72" stroke="#F7F4EE" stroke-width="1.0" stroke-linecap="round"/><line x1="50" y1="50" x2="66.38" y2="48.01" stroke="#F7F4EE" stroke-width="1.0" stroke-linecap="round"/><line x1="50" y1="50" x2="91.61" y2="65.78" stroke="#F7F4EE" stroke-width="1.0" stroke-linecap="round"/><line x1="50" y1="50" x2="60.94" y2="62.35" stroke="#F7F4EE" stroke-width="1.0" stroke-linecap="round"/><line x1="50" y1="50" x2="60.65" y2="93.21" stroke="#F7F4EE" stroke-width="1.0" stroke-linecap="round"/><line x1="50" y1="50" x2="46.05" y2="66.02" stroke="#F7F4EE" stroke-width="1.0" stroke-linecap="round"/><line x1="50" y1="50" x2="20.49" y2="83.31" stroke="#F7F4EE" stroke-width="1.0" stroke-linecap="round"/><line x1="50" y1="50" x2="34.57" y2="55.85" stroke="#F7F4EE" stroke-width="1.0" stroke-linecap="round"/><line x1="50" y1="50" x2="5.82" y2="44.64" stroke="#F7F4EE" stroke-width="1.0" stroke-linecap="round"/><line x1="50" y1="50" x2="36.42" y2="40.63" stroke="#F7F4EE" stroke-width="1.0" stroke-linecap="round"/><line x1="50" y1="50" x2="29.32" y2="10.6" stroke="#F7F4EE" stroke-width="1.0" stroke-linecap="round"/><circle cx="50" cy="50" r="4.0" fill="#F7F4EE"/><circle cx="50" cy="50" r="1.6" fill="#17324D"/></svg>
