<svg xmlns="http://www.w3.org/2000/svg" viewBox="0 0 100 100"><circle cx="50" cy="50" r="48" fill="#7A263A"/><path d="M50 3L52.39 40.29L57.9 34.95L56.63 42.51L88.68 23.3L59.35 46.45L66.88 47.95L59.93 51.21L93.95 66.67L58.23 55.68L61.27 62.72L54.65 58.85L61.25 95.63L50 60L45.93 66.51L45.35 58.85L18.83 85.18L41.77 55.68L34.1 56.03L40.07 51.21L3.34 44.33L40.65 46.45L36.01 40.34L43.37 42.51L28.16 8.38L47.61 40.29Z" fill="#F7F4EE"/><line x1="50" y1="50" x2="50" y2="4.5" stroke="#7A263A" stroke-width="1.1" stroke-linecap="round"/><line x1="50" y1="50" x2="57.2" y2="36.28" stroke="#7A263A" stroke-width="1.1" stroke-linecap="round"/><line x1="50" y1="50" x2="87.45" y2="24.15" stroke="#7A263A" stroke-width="1.1" stroke-linecap="round"/><line x1="50" y1="50" x2="65.39" y2="48.13" stroke="#7A263A" stroke-width="1.1" stroke-linecap="round"/><line x1="50" y1="50" x2="92.54" y2="66.13" stroke="#7A263A" stroke-width="1.1" stroke-linecap="round"/><line x1="50" y1="50" x2="60.28" y2="61.6" stroke="#7A263A" stroke-width="1.1" stroke-linecap="round"/><line x1="50" y1="50" x2="60.89" y2="94.18" stroke="#7A263A" stroke-width="1.1" stroke-linecap="round"/><line x1="50" y1="50" x2="46.29" y2="65.05" stroke="#7A263A" stroke-width="1.1" stroke-linecap="round"/><line x1="50" y1="50" x2="19.83" y2="84.06" stroke="#7A263A" stroke-width="1.1" stroke-linecap="round"/><line x1="50" y1="50" x2="35.51" y2="55.5" stroke="#7A263A" stroke-width="1.1" stroke-linecap="round"/><line x1="50" y1="50" x2="4.83" y2="44.52" stroke="#7A263A" stroke-width="1.1" stroke-linecap="round"/><line x1="50" y1="50" x2="37.24" y2="41.19" stroke="#7A263A" stroke-width="1.1" stroke-linecap="round"/><line x1="50" y1="50" x2="28.86" y2="9.71" stroke="#7A263A" stroke-width="1.1" stroke-linecap="round"/><circle cx="50" cy="50" r="3.0" fill="#7A263A"/><circle cx="50" cy="50" r="1.3" fill="#F7F4EE"/></svg>
