<svg xmlns="http://www.w3.org/2000/svg" viewBox="0 0 994 150" font-family="sans-serif">
<rect width="994" height="150" fill="#ffffff"/>
<text x="30" y="26" font-size="17" fill="#17324D" font-weight="700">Leaf → cells compass star (the colours carry through)</text>
<rect x="30" y="40" width="150" height="99" rx="6" fill="#ffffff"/>
<g transform="translate(56,42)"><svg width="99" height="99" viewBox="0 0 100 100"><svg xmlns="http://www.w3.org/2000/svg" viewBox="0 0 100 100"><defs><clipPath id="L"><path d="M 50.0 4.0 Q 50.0 4.0 50.4 5.1 L 51.9 9.2 Q 53.2 13.0 55.0 11.5 L 56.6 10.3 Q 57.5 9.5 57.6 10.7 L 57.9 15.0 Q 58.2 19.0 60.4 17.5 L 62.5 16.2 Q 63.5 15.5 63.3 16.7 L 61.7 26.1 Q 60.5 33.0 64.5 29.6 L 69.1 25.8 Q 70.0 25.0 70.3 26.1 L 70.9 27.9 Q 71.5 30.0 74.2 27.0 L 82.2 17.9 Q 83.0 17.0 83.1 18.2 L 83.6 22.2 Q 84.0 26.0 86.1 25.6 L 87.8 25.2 Q 89.0 25.0 88.4 26.0 L 83.2 34.1 Q 79.5 40.0 83.9 41.3 L 88.8 42.7 Q 90.0 43.0 89.3 44.0 L 86.8 47.6 Q 84.5 51.0 85.1 51.8 L 85.4 52.2 Q 86.0 53.0 84.9 53.3 L 73.7 56.7 Q 66.0 59.0 60.1 59.4 L 54.0 59.9 Q 52.0 60.0 51.7 61.3 L 51.4 62.2 Q 51.2 63.0 51.2 63.8 L 50.8 87.2 Q 50.8 88.0 50.1 88.0 L 49.9 88.0 Q 49.2 88.0 49.2 87.2 L 48.8 63.8 Q 48.8 63.0 48.6 62.2 L 48.3 61.3 Q 48.0 60.0 46.0 59.9 L 39.9 59.4 Q 34.0 59.0 26.3 56.7 L 15.1 53.3 Q 14.0 53.0 14.6 52.2 L 14.9 51.8 Q 15.5 51.0 13.2 47.6 L 10.7 44.0 Q 10.0 43.0 11.2 42.7 L 16.1 41.3 Q 20.5 40.0 16.8 34.1 L 11.6 26.0 Q 11.0 25.0 12.2 25.2 L 13.9 25.6 Q 16.0 26.0 16.4 22.2 L 16.9 18.2 Q 17.0 17.0 17.8 17.9 L 25.8 27.0 Q 28.5 30.0 29.1 27.9 L 29.7 26.1 Q 30.0 25.0 30.9 25.8 L 35.5 29.6 Q 39.5 33.0 38.3 26.1 L 36.7 16.7 Q 36.5 15.5 37.5 16.2 L 39.6 17.5 Q 41.8 19.0 42.1 15.0 L 42.4 10.7 Q 42.5 9.5 43.4 10.3 L 45.0 11.5 Q 46.8 13.0 48.1 9.2 L 49.6 5.1 Q 50.0 4.0 50.0 4.0 Z"/></clipPath></defs><g clip-path="url(#L)" opacity="1.0"><path d="M50 44 L3.9 -39.1 L97.5 -38.3 Z" fill="#C2972F"/><path d="M50 44 L97.5 -38.3 L142.9 24.2 Z" fill="#17324D"/><path d="M50 44 L142.9 24.2 L113.6 114.6 Z" fill="#2A7F9E"/><path d="M50 44 L113.6 114.6 L-12.3 115.7 Z" fill="#7A263A"/><path d="M50 44 L-12.3 115.7 L-42.9 24.2 Z" fill="#3F6F5E"/><path d="M50 44 L-42.9 24.2 L3.9 -39.1 Z" fill="#6B7280"/><line x1="50" y1="44" x2="3.9" y2="-39.1" stroke="#F7F4EE" stroke-width="1.6" stroke-linecap="round"/><line x1="50" y1="44" x2="97.5" y2="-38.3" stroke="#F7F4EE" stroke-width="1.6" stroke-linecap="round"/><line x1="50" y1="44" x2="142.9" y2="24.2" stroke="#F7F4EE" stroke-width="1.6" stroke-linecap="round"/><line x1="50" y1="44" x2="113.6" y2="114.6" stroke="#F7F4EE" stroke-width="1.6" stroke-linecap="round"/><line x1="50" y1="44" x2="-12.3" y2="115.7" stroke="#F7F4EE" stroke-width="1.6" stroke-linecap="round"/><line x1="50" y1="44" x2="-42.9" y2="24.2" stroke="#F7F4EE" stroke-width="1.6" stroke-linecap="round"/></g></svg>
</svg></g>
<text x="105.0" y="157" font-size="11" fill="#6B7280" text-anchor="middle">1 · the leaf</text>
<text x="203.0" y="94" font-size="22" fill="#6B7280" text-anchor="middle">→</text>
<rect x="226" y="40" width="150" height="99" rx="6" fill="#ffffff"/>
<g transform="translate(252,42)"><svg width="99" height="99" viewBox="0 0 100 100"><svg xmlns="http://www.w3.org/2000/svg" viewBox="0 0 100 100"><defs><clipPath id="L2"><path d="M 50.0 4.0 Q 50.0 4.0 50.4 5.1 L 51.9 9.2 Q 53.2 13.0 55.0 11.5 L 56.6 10.3 Q 57.5 9.5 57.6 10.7 L 57.9 15.0 Q 58.2 19.0 60.4 17.5 L 62.5 16.2 Q 63.5 15.5 63.3 16.7 L 61.7 26.1 Q 60.5 33.0 64.5 29.6 L 69.1 25.8 Q 70.0 25.0 70.3 26.1 L 70.9 27.9 Q 71.5 30.0 74.2 27.0 L 82.2 17.9 Q 83.0 17.0 83.1 18.2 L 83.6 22.2 Q 84.0 26.0 86.1 25.6 L 87.8 25.2 Q 89.0 25.0 88.4 26.0 L 83.2 34.1 Q 79.5 40.0 83.9 41.3 L 88.8 42.7 Q 90.0 43.0 89.3 44.0 L 86.8 47.6 Q 84.5 51.0 85.1 51.8 L 85.4 52.2 Q 86.0 53.0 84.9 53.3 L 73.7 56.7 Q 66.0 59.0 60.1 59.4 L 54.0 59.9 Q 52.0 60.0 51.7 61.3 L 51.4 62.2 Q 51.2 63.0 51.2 63.8 L 50.8 87.2 Q 50.8 88.0 50.1 88.0 L 49.9 88.0 Q 49.2 88.0 49.2 87.2 L 48.8 63.8 Q 48.8 63.0 48.6 62.2 L 48.3 61.3 Q 48.0 60.0 46.0 59.9 L 39.9 59.4 Q 34.0 59.0 26.3 56.7 L 15.1 53.3 Q 14.0 53.0 14.6 52.2 L 14.9 51.8 Q 15.5 51.0 13.2 47.6 L 10.7 44.0 Q 10.0 43.0 11.2 42.7 L 16.1 41.3 Q 20.5 40.0 16.8 34.1 L 11.6 26.0 Q 11.0 25.0 12.2 25.2 L 13.9 25.6 Q 16.0 26.0 16.4 22.2 L 16.9 18.2 Q 17.0 17.0 17.8 17.9 L 25.8 27.0 Q 28.5 30.0 29.1 27.9 L 29.7 26.1 Q 30.0 25.0 30.9 25.8 L 35.5 29.6 Q 39.5 33.0 38.3 26.1 L 36.7 16.7 Q 36.5 15.5 37.5 16.2 L 39.6 17.5 Q 41.8 19.0 42.1 15.0 L 42.4 10.7 Q 42.5 9.5 43.4 10.3 L 45.0 11.5 Q 46.8 13.0 48.1 9.2 L 49.6 5.1 Q 50.0 4.0 50.0 4.0 Z"/></clipPath></defs><g clip-path="url(#L2)" opacity="0.5"><path d="M50 44 L3.9 -39.1 L97.5 -38.3 Z" fill="#C2972F"/><path d="M50 44 L97.5 -38.3 L142.9 24.2 Z" fill="#17324D"/><path d="M50 44 L142.9 24.2 L113.6 114.6 Z" fill="#2A7F9E"/><path d="M50 44 L113.6 114.6 L-12.3 115.7 Z" fill="#7A263A"/><path d="M50 44 L-12.3 115.7 L-42.9 24.2 Z" fill="#3F6F5E"/><path d="M50 44 L-42.9 24.2 L3.9 -39.1 Z" fill="#6B7280"/><line x1="50" y1="44" x2="3.9" y2="-39.1" stroke="#F7F4EE" stroke-width="0" stroke-linecap="round"/><line x1="50" y1="44" x2="97.5" y2="-38.3" stroke="#F7F4EE" stroke-width="0" stroke-linecap="round"/><line x1="50" y1="44" x2="142.9" y2="24.2" stroke="#F7F4EE" stroke-width="0" stroke-linecap="round"/><line x1="50" y1="44" x2="113.6" y2="114.6" stroke="#F7F4EE" stroke-width="0" stroke-linecap="round"/><line x1="50" y1="44" x2="-12.3" y2="115.7" stroke="#F7F4EE" stroke-width="0" stroke-linecap="round"/><line x1="50" y1="44" x2="-42.9" y2="24.2" stroke="#F7F4EE" stroke-width="0" stroke-linecap="round"/></g><path d="M 50.0 4.0 Q 50.0 4.0 50.4 5.1 L 51.9 9.2 Q 53.2 13.0 55.0 11.5 L 56.6 10.3 Q 57.5 9.5 57.6 10.7 L 57.9 15.0 Q 58.2 19.0 60.4 17.5 L 62.5 16.2 Q 63.5 15.5 63.3 16.7 L 61.7 26.1 Q 60.5 33.0 64.5 29.6 L 69.1 25.8 Q 70.0 25.0 70.3 26.1 L 70.9 27.9 Q 71.5 30.0 74.2 27.0 L 82.2 17.9 Q 83.0 17.0 83.1 18.2 L 83.6 22.2 Q 84.0 26.0 86.1 25.6 L 87.8 25.2 Q 89.0 25.0 88.4 26.0 L 83.2 34.1 Q 79.5 40.0 83.9 41.3 L 88.8 42.7 Q 90.0 43.0 89.3 44.0 L 86.8 47.6 Q 84.5 51.0 85.1 51.8 L 85.4 52.2 Q 86.0 53.0 84.9 53.3 L 73.7 56.7 Q 66.0 59.0 60.1 59.4 L 54.0 59.9 Q 52.0 60.0 51.7 61.3 L 51.4 62.2 Q 51.2 63.0 51.2 63.8 L 50.8 87.2 Q 50.8 88.0 50.1 88.0 L 49.9 88.0 Q 49.2 88.0 49.2 87.2 L 48.8 63.8 Q 48.8 63.0 48.6 62.2 L 48.3 61.3 Q 48.0 60.0 46.0 59.9 L 39.9 59.4 Q 34.0 59.0 26.3 56.7 L 15.1 53.3 Q 14.0 53.0 14.6 52.2 L 14.9 51.8 Q 15.5 51.0 13.2 47.6 L 10.7 44.0 Q 10.0 43.0 11.2 42.7 L 16.1 41.3 Q 20.5 40.0 16.8 34.1 L 11.6 26.0 Q 11.0 25.0 12.2 25.2 L 13.9 25.6 Q 16.0 26.0 16.4 22.2 L 16.9 18.2 Q 17.0 17.0 17.8 17.9 L 25.8 27.0 Q 28.5 30.0 29.1 27.9 L 29.7 26.1 Q 30.0 25.0 30.9 25.8 L 35.5 29.6 Q 39.5 33.0 38.3 26.1 L 36.7 16.7 Q 36.5 15.5 37.5 16.2 L 39.6 17.5 Q 41.8 19.0 42.1 15.0 L 42.4 10.7 Q 42.5 9.5 43.4 10.3 L 45.0 11.5 Q 46.8 13.0 48.1 9.2 L 49.6 5.1 Q 50.0 4.0 50.0 4.0 Z" fill="none" stroke="#6B7280" stroke-width="0.6" opacity="0.5"/><line x1="50" y1="44" x2="27.2" y2="2.9" stroke="#7A263A" stroke-width="1.6" stroke-linecap="round"/><line x1="50" y1="44" x2="73.49" y2="3.29" stroke="#7A263A" stroke-width="1.6" stroke-linecap="round"/><line x1="50" y1="44" x2="95.97" y2="34.2" stroke="#7A263A" stroke-width="1.6" stroke-linecap="round"/><line x1="50" y1="44" x2="81.46" y2="78.92" stroke="#7A263A" stroke-width="1.6" stroke-linecap="round"/><line x1="50" y1="44" x2="19.17" y2="79.48" stroke="#7A263A" stroke-width="1.6" stroke-linecap="round"/><line x1="50" y1="44" x2="4.03" y2="34.2" stroke="#7A263A" stroke-width="1.6" stroke-linecap="round"/></svg>
</svg></g>
<text x="301.0" y="157" font-size="11" fill="#6B7280" text-anchor="middle">2 · rays break out</text>
<text x="399.0" y="94" font-size="22" fill="#6B7280" text-anchor="middle">→</text>
<rect x="422" y="40" width="150" height="99" rx="6" fill="#ffffff"/>
<g transform="translate(448,42)"><svg width="99" height="99" viewBox="0 0 100 100"><svg xmlns="http://www.w3.org/2000/svg" viewBox="0 0 100 100"><defs><clipPath id="D"><circle cx="50" cy="44" r="46"/></clipPath></defs><g clip-path="url(#D)"><path d="M50 44 L3.9 -39.1 L97.5 -38.3 Z" fill="#C2972F"/><path d="M50 44 L97.5 -38.3 L142.9 24.2 Z" fill="#17324D"/><path d="M50 44 L142.9 24.2 L113.6 114.6 Z" fill="#2A7F9E"/><path d="M50 44 L113.6 114.6 L-12.3 115.7 Z" fill="#7A263A"/><path d="M50 44 L-12.3 115.7 L-42.9 24.2 Z" fill="#3F6F5E"/><path d="M50 44 L-42.9 24.2 L3.9 -39.1 Z" fill="#6B7280"/><line x1="50" y1="44" x2="3.9" y2="-39.1" stroke="#F7F4EE" stroke-width="1.6" stroke-linecap="round"/><line x1="50" y1="44" x2="97.5" y2="-38.3" stroke="#F7F4EE" stroke-width="1.6" stroke-linecap="round"/><line x1="50" y1="44" x2="142.9" y2="24.2" stroke="#F7F4EE" stroke-width="1.6" stroke-linecap="round"/><line x1="50" y1="44" x2="113.6" y2="114.6" stroke="#F7F4EE" stroke-width="1.6" stroke-linecap="round"/><line x1="50" y1="44" x2="-12.3" y2="115.7" stroke="#F7F4EE" stroke-width="1.6" stroke-linecap="round"/><line x1="50" y1="44" x2="-42.9" y2="24.2" stroke="#F7F4EE" stroke-width="1.6" stroke-linecap="round"/></g><path d="M 50.0 4.0 Q 50.0 4.0 50.4 5.1 L 51.9 9.2 Q 53.2 13.0 55.0 11.5 L 56.6 10.3 Q 57.5 9.5 57.6 10.7 L 57.9 15.0 Q 58.2 19.0 60.4 17.5 L 62.5 16.2 Q 63.5 15.5 63.3 16.7 L 61.7 26.1 Q 60.5 33.0 64.5 29.6 L 69.1 25.8 Q 70.0 25.0 70.3 26.1 L 70.9 27.9 Q 71.5 30.0 74.2 27.0 L 82.2 17.9 Q 83.0 17.0 83.1 18.2 L 83.6 22.2 Q 84.0 26.0 86.1 25.6 L 87.8 25.2 Q 89.0 25.0 88.4 26.0 L 83.2 34.1 Q 79.5 40.0 83.9 41.3 L 88.8 42.7 Q 90.0 43.0 89.3 44.0 L 86.8 47.6 Q 84.5 51.0 85.1 51.8 L 85.4 52.2 Q 86.0 53.0 84.9 53.3 L 73.7 56.7 Q 66.0 59.0 60.1 59.4 L 54.0 59.9 Q 52.0 60.0 51.7 61.3 L 51.4 62.2 Q 51.2 63.0 51.2 63.8 L 50.8 87.2 Q 50.8 88.0 50.1 88.0 L 49.9 88.0 Q 49.2 88.0 49.2 87.2 L 48.8 63.8 Q 48.8 63.0 48.6 62.2 L 48.3 61.3 Q 48.0 60.0 46.0 59.9 L 39.9 59.4 Q 34.0 59.0 26.3 56.7 L 15.1 53.3 Q 14.0 53.0 14.6 52.2 L 14.9 51.8 Q 15.5 51.0 13.2 47.6 L 10.7 44.0 Q 10.0 43.0 11.2 42.7 L 16.1 41.3 Q 20.5 40.0 16.8 34.1 L 11.6 26.0 Q 11.0 25.0 12.2 25.2 L 13.9 25.6 Q 16.0 26.0 16.4 22.2 L 16.9 18.2 Q 17.0 17.0 17.8 17.9 L 25.8 27.0 Q 28.5 30.0 29.1 27.9 L 29.7 26.1 Q 30.0 25.0 30.9 25.8 L 35.5 29.6 Q 39.5 33.0 38.3 26.1 L 36.7 16.7 Q 36.5 15.5 37.5 16.2 L 39.6 17.5 Q 41.8 19.0 42.1 15.0 L 42.4 10.7 Q 42.5 9.5 43.4 10.3 L 45.0 11.5 Q 46.8 13.0 48.1 9.2 L 49.6 5.1 Q 50.0 4.0 50.0 4.0 Z" fill="none" stroke="#6B7280" stroke-width="0.5" opacity="0.4"/></svg>
</svg></g>
<text x="497.0" y="157" font-size="11" fill="#6B7280" text-anchor="middle">3 · un-clipped: a 6-point cells star</text>
<text x="595.0" y="94" font-size="22" fill="#6B7280" text-anchor="middle">→</text>
<rect x="618" y="40" width="150" height="99" rx="6" fill="#ffffff"/>
<g transform="translate(644,42)"><svg width="99" height="99" viewBox="0 0 100 100"><svg xmlns="http://www.w3.org/2000/svg" viewBox="0 0 100 100"><path d="M50 -2L58 30.14L50 44L42 30.14Z" fill="#C2972F"/><path d="M89.84 21L66 44L50 44L58 30.14Z" fill="#17324D"/><path d="M89.84 67L58 57.86L50 44L66 44Z" fill="#2A7F9E"/><path d="M50 90L42 57.86L50 44L58 57.86Z" fill="#7A263A"/><path d="M10.16 67L34 44L50 44L42 57.86Z" fill="#3F6F5E"/><path d="M10.16 21L42 30.14L50 44L34 44Z" fill="#6B7280"/><line x1="50" y1="44" x2="58" y2="30.14" stroke="#F7F4EE" stroke-width="1.3" stroke-linecap="round"/><line x1="50" y1="44" x2="66" y2="44" stroke="#F7F4EE" stroke-width="1.3" stroke-linecap="round"/><line x1="50" y1="44" x2="58" y2="57.86" stroke="#F7F4EE" stroke-width="1.3" stroke-linecap="round"/><line x1="50" y1="44" x2="42" y2="57.86" stroke="#F7F4EE" stroke-width="1.3" stroke-linecap="round"/><line x1="50" y1="44" x2="34" y2="44" stroke="#F7F4EE" stroke-width="1.3" stroke-linecap="round"/><line x1="50" y1="44" x2="42" y2="30.14" stroke="#F7F4EE" stroke-width="1.3" stroke-linecap="round"/><circle cx="50" cy="44" r="3" fill="#7A263A"/><circle cx="50" cy="44" r="1.3" fill="#F7F4EE"/></svg>
</svg></g>
<text x="693.0" y="157" font-size="11" fill="#6B7280" text-anchor="middle">4 · regularised 6-point</text>
<text x="791.0" y="94" font-size="22" fill="#6B7280" text-anchor="middle">→</text>
<rect x="814" y="40" width="150" height="99" rx="6" fill="#ffffff"/>
<g transform="translate(840,42)"><svg width="99" height="99" viewBox="0 0 100 100"><svg xmlns="http://www.w3.org/2000/svg" viewBox="0 0 100 100"><path d="M50 3L52.63 39.32L50 50L47.37 39.32Z" fill="#C2972F"/><path d="M58.83 33.18L57.29 41.77L50 50L52.63 39.32Z" fill="#17324D"/><path d="M88.68 23.3L60.29 46.1L50 50L57.29 41.77Z" fill="#2A7F9E"/><path d="M68.86 47.71L60.92 51.33L50 50L60.29 46.1Z" fill="#7A263A"/><path d="M93.95 66.67L59.05 56.25L50 50L60.92 51.33Z" fill="#3F6F5E"/><path d="M62.6 64.22L55.11 59.74L50 50L59.05 56.25Z" fill="#6B7280"/><path d="M61.25 95.63L50 61L50 50L55.11 59.74Z" fill="#C2972F"/><path d="M45.45 68.45L44.89 59.74L50 50L50 61Z" fill="#17324D"/><path d="M18.83 85.18L40.95 56.25L50 50L44.89 59.74Z" fill="#2A7F9E"/><path d="M32.23 56.74L39.08 51.33L50 50L40.95 56.25Z" fill="#7A263A"/><path d="M3.34 44.33L39.71 46.1L50 50L39.08 51.33Z" fill="#3F6F5E"/><path d="M34.36 39.21L42.71 41.77L50 50L39.71 46.1Z" fill="#6B7280"/><path d="M28.16 8.38L47.37 39.32L50 50L42.71 41.77Z" fill="#C2972F"/><line x1="50" y1="50" x2="52.63" y2="39.32" stroke="#F7F4EE" stroke-width="1.3" stroke-linecap="round"/><line x1="50" y1="50" x2="57.29" y2="41.77" stroke="#F7F4EE" stroke-width="1.3" stroke-linecap="round"/><line x1="50" y1="50" x2="60.29" y2="46.1" stroke="#F7F4EE" stroke-width="1.3" stroke-linecap="round"/><line x1="50" y1="50" x2="60.92" y2="51.33" stroke="#F7F4EE" stroke-width="1.3" stroke-linecap="round"/><line x1="50" y1="50" x2="59.05" y2="56.25" stroke="#F7F4EE" stroke-width="1.3" stroke-linecap="round"/><line x1="50" y1="50" x2="55.11" y2="59.74" stroke="#F7F4EE" stroke-width="1.3" stroke-linecap="round"/><line x1="50" y1="50" x2="50" y2="61" stroke="#F7F4EE" stroke-width="1.3" stroke-linecap="round"/><line x1="50" y1="50" x2="44.89" y2="59.74" stroke="#F7F4EE" stroke-width="1.3" stroke-linecap="round"/><line x1="50" y1="50" x2="40.95" y2="56.25" stroke="#F7F4EE" stroke-width="1.3" stroke-linecap="round"/><line x1="50" y1="50" x2="39.08" y2="51.33" stroke="#F7F4EE" stroke-width="1.3" stroke-linecap="round"/><line x1="50" y1="50" x2="39.71" y2="46.1" stroke="#F7F4EE" stroke-width="1.3" stroke-linecap="round"/><line x1="50" y1="50" x2="42.71" y2="41.77" stroke="#F7F4EE" stroke-width="1.3" stroke-linecap="round"/><line x1="50" y1="50" x2="47.37" y2="39.32" stroke="#F7F4EE" stroke-width="1.3" stroke-linecap="round"/><circle cx="50" cy="50" r="3" fill="#7A263A"/><circle cx="50" cy="50" r="1.3" fill="#F7F4EE"/></svg>
</svg></g>
<text x="889.0" y="157" font-size="11" fill="#6B7280" text-anchor="middle">5 · resampled to 13</text>
</svg>