<svg xmlns="http://www.w3.org/2000/svg" viewBox="0 0 100 100"><path d="M50 3L52.63 39.32L50 50L47.37 39.32Z" fill="#C2972F"/><path d="M58.83 33.18L57.29 41.77L50 50L52.63 39.32Z" fill="#17324D"/><path d="M88.68 23.3L60.29 46.1L50 50L57.29 41.77Z" fill="#2A7F9E"/><path d="M68.86 47.71L60.92 51.33L50 50L60.29 46.1Z" fill="#7A263A"/><path d="M93.95 66.67L59.05 56.25L50 50L60.92 51.33Z" fill="#3F6F5E"/><path d="M62.6 64.22L55.11 59.74L50 50L59.05 56.25Z" fill="#6B7280"/><path d="M61.25 95.63L50 61L50 50L55.11 59.74Z" fill="#C2972F"/><path d="M45.45 68.45L44.89 59.74L50 50L50 61Z" fill="#17324D"/><path d="M18.83 85.18L40.95 56.25L50 50L44.89 59.74Z" fill="#2A7F9E"/><path d="M32.23 56.74L39.08 51.33L50 50L40.95 56.25Z" fill="#7A263A"/><path d="M3.34 44.33L39.71 46.1L50 50L39.08 51.33Z" fill="#3F6F5E"/><path d="M34.36 39.21L42.71 41.77L50 50L39.71 46.1Z" fill="#6B7280"/><path d="M28.16 8.38L47.37 39.32L50 50L42.71 41.77Z" fill="#C2972F"/><line x1="50" y1="50" x2="52.63" y2="39.32" stroke="#F7F4EE" stroke-width="1.3" stroke-linecap="round"/><line x1="50" y1="50" x2="57.29" y2="41.77" stroke="#F7F4EE" stroke-width="1.3" stroke-linecap="round"/><line x1="50" y1="50" x2="60.29" y2="46.1" stroke="#F7F4EE" stroke-width="1.3" stroke-linecap="round"/><line x1="50" y1="50" x2="60.92" y2="51.33" stroke="#F7F4EE" stroke-width="1.3" stroke-linecap="round"/><line x1="50" y1="50" x2="59.05" y2="56.25" stroke="#F7F4EE" stroke-width="1.3" stroke-linecap="round"/><line x1="50" y1="50" x2="55.11" y2="59.74" stroke="#F7F4EE" stroke-width="1.3" stroke-linecap="round"/><line x1="50" y1="50" x2="50" y2="61" stroke="#F7F4EE" stroke-width="1.3" stroke-linecap="round"/><line x1="50" y1="50" x2="44.89" y2="59.74" stroke="#F7F4EE" stroke-width="1.3" stroke-linecap="round"/><line x1="50" y1="50" x2="40.95" y2="56.25" stroke="#F7F4EE" stroke-width="1.3" stroke-linecap="round"/><line x1="50" y1="50" x2="39.08" y2="51.33" stroke="#F7F4EE" stroke-width="1.3" stroke-linecap="round"/><line x1="50" y1="50" x2="39.71" y2="46.1" stroke="#F7F4EE" stroke-width="1.3" stroke-linecap="round"/><line x1="50" y1="50" x2="42.71" y2="41.77" stroke="#F7F4EE" stroke-width="1.3" stroke-linecap="round"/><line x1="50" y1="50" x2="47.37" y2="39.32" stroke="#F7F4EE" stroke-width="1.3" stroke-linecap="round"/><circle cx="50" cy="50" r="3" fill="#7A263A"/><circle cx="50" cy="50" r="1.3" fill="#F7F4EE"/></svg>
