<svg xmlns="http://www.w3.org/2000/svg" viewBox="0 0 798 150" font-family="sans-serif">
<rect width="798" height="150" fill="#ffffff"/>
<text x="30" y="26" font-size="17" fill="#17324D" font-weight="700">Leaf → observatory star (the skeleton becomes the facets)</text>
<rect x="30" y="40" width="150" height="99" rx="6" fill="#17324D"/>
<g transform="translate(56,42)"><svg width="99" height="99" viewBox="0 0 100 100"><defs><clipPath id="LN"><path d="M 50.0 4.0 Q 50.0 4.0 50.4 5.1 L 51.9 9.2 Q 53.2 13.0 55.0 11.5 L 56.6 10.3 Q 57.5 9.5 57.6 10.7 L 57.9 15.0 Q 58.2 19.0 60.4 17.5 L 62.5 16.2 Q 63.5 15.5 63.3 16.7 L 61.7 26.1 Q 60.5 33.0 64.5 29.6 L 69.1 25.8 Q 70.0 25.0 70.3 26.1 L 70.9 27.9 Q 71.5 30.0 74.2 27.0 L 82.2 17.9 Q 83.0 17.0 83.1 18.2 L 83.6 22.2 Q 84.0 26.0 86.1 25.6 L 87.8 25.2 Q 89.0 25.0 88.4 26.0 L 83.2 34.1 Q 79.5 40.0 83.9 41.3 L 88.8 42.7 Q 90.0 43.0 89.3 44.0 L 86.8 47.6 Q 84.5 51.0 85.1 51.8 L 85.4 52.2 Q 86.0 53.0 84.9 53.3 L 73.7 56.7 Q 66.0 59.0 60.1 59.4 L 54.0 59.9 Q 52.0 60.0 51.7 61.3 L 51.4 62.2 Q 51.2 63.0 51.2 63.8 L 50.8 87.2 Q 50.8 88.0 50.1 88.0 L 49.9 88.0 Q 49.2 88.0 49.2 87.2 L 48.8 63.8 Q 48.8 63.0 48.6 62.2 L 48.3 61.3 Q 48.0 60.0 46.0 59.9 L 39.9 59.4 Q 34.0 59.0 26.3 56.7 L 15.1 53.3 Q 14.0 53.0 14.6 52.2 L 14.9 51.8 Q 15.5 51.0 13.2 47.6 L 10.7 44.0 Q 10.0 43.0 11.2 42.7 L 16.1 41.3 Q 20.5 40.0 16.8 34.1 L 11.6 26.0 Q 11.0 25.0 12.2 25.2 L 13.9 25.6 Q 16.0 26.0 16.4 22.2 L 16.9 18.2 Q 17.0 17.0 17.8 17.9 L 25.8 27.0 Q 28.5 30.0 29.1 27.9 L 29.7 26.1 Q 30.0 25.0 30.9 25.8 L 35.5 29.6 Q 39.5 33.0 38.3 26.1 L 36.7 16.7 Q 36.5 15.5 37.5 16.2 L 39.6 17.5 Q 41.8 19.0 42.1 15.0 L 42.4 10.7 Q 42.5 9.5 43.4 10.3 L 45.0 11.5 Q 46.8 13.0 48.1 9.2 L 49.6 5.1 Q 50.0 4.0 50.0 4.0 Z"/></clipPath></defs><g clip-path="url(#LN)"><path d="M50 44 L3.9 -39.1 L97.5 -38.3 Z" fill="#C2972F"/><path d="M50 44 L97.5 -38.3 L142.9 24.2 Z" fill="#17324D"/><path d="M50 44 L142.9 24.2 L113.6 114.6 Z" fill="#2A7F9E"/><path d="M50 44 L113.6 114.6 L-12.3 115.7 Z" fill="#7A263A"/><path d="M50 44 L-12.3 115.7 L-42.9 24.2 Z" fill="#3F6F5E"/><path d="M50 44 L-42.9 24.2 L3.9 -39.1 Z" fill="#6B7280"/><line x1="50" y1="44" x2="3.9" y2="-39.1" stroke="#F7F4EE" stroke-width="1.6" stroke-linecap="round"/><line x1="50" y1="44" x2="97.5" y2="-38.3" stroke="#F7F4EE" stroke-width="1.6" stroke-linecap="round"/><line x1="50" y1="44" x2="142.9" y2="24.2" stroke="#F7F4EE" stroke-width="1.6" stroke-linecap="round"/><line x1="50" y1="44" x2="113.6" y2="114.6" stroke="#F7F4EE" stroke-width="1.6" stroke-linecap="round"/><line x1="50" y1="44" x2="-12.3" y2="115.7" stroke="#F7F4EE" stroke-width="1.6" stroke-linecap="round"/><line x1="50" y1="44" x2="-42.9" y2="24.2" stroke="#F7F4EE" stroke-width="1.6" stroke-linecap="round"/></g></svg></g>
<text x="105.0" y="157" font-size="11" fill="#6B7280" text-anchor="middle">1 · the leaf</text>
<text x="203.0" y="94" font-size="22" fill="#6B7280" text-anchor="middle">→</text>
<rect x="226" y="40" width="150" height="99" rx="6" fill="#17324D"/>
<g transform="translate(252,42)"><svg width="99" height="99" viewBox="0 0 100 100"><line x1="50" y1="44" x2="28.66" y2="5.52" stroke="#F7F4EE" stroke-width="2.0" stroke-linecap="round"/><line x1="50" y1="44" x2="71.99" y2="5.89" stroke="#F7F4EE" stroke-width="2.0" stroke-linecap="round"/><line x1="50" y1="44" x2="93.03" y2="34.83" stroke="#F7F4EE" stroke-width="2.0" stroke-linecap="round"/><line x1="50" y1="44" x2="79.45" y2="76.69" stroke="#F7F4EE" stroke-width="2.0" stroke-linecap="round"/><line x1="50" y1="44" x2="21.14" y2="77.21" stroke="#F7F4EE" stroke-width="2.0" stroke-linecap="round"/><line x1="50" y1="44" x2="6.97" y2="34.83" stroke="#F7F4EE" stroke-width="2.0" stroke-linecap="round"/><circle cx="50" cy="44" r="3" fill="#F7F4EE"/></svg></g>
<text x="301.0" y="157" font-size="11" fill="#6B7280" text-anchor="middle">2 · the skeleton alone</text>
<text x="399.0" y="94" font-size="22" fill="#6B7280" text-anchor="middle">→</text>
<rect x="422" y="40" width="150" height="99" rx="6" fill="#17324D"/>
<g transform="translate(448,42)"><svg width="99" height="99" viewBox="0 0 100 100"><path d="M50 -2L57.5 31.01L89.84 21L65 44L89.84 67L57.5 56.99L50 90L42.5 56.99L10.16 67L35 44L10.16 21L42.5 31.01Z" fill="none"/><line x1="50" y1="44" x2="50" y2="-0.5" stroke="#F7F4EE" stroke-width="2.0" stroke-linecap="round"/><line x1="50" y1="44" x2="88.54" y2="21.75" stroke="#F7F4EE" stroke-width="2.0" stroke-linecap="round"/><line x1="50" y1="44" x2="88.54" y2="66.25" stroke="#F7F4EE" stroke-width="2.0" stroke-linecap="round"/><line x1="50" y1="44" x2="50" y2="88.5" stroke="#F7F4EE" stroke-width="2.0" stroke-linecap="round"/><line x1="50" y1="44" x2="11.46" y2="66.25" stroke="#F7F4EE" stroke-width="2.0" stroke-linecap="round"/><line x1="50" y1="44" x2="11.46" y2="21.75" stroke="#F7F4EE" stroke-width="2.0" stroke-linecap="round"/><circle cx="50" cy="44" r="4" fill="#F7F4EE"/><circle cx="50" cy="44" r="1.6" fill="none"/></svg></g>
<text x="497.0" y="157" font-size="11" fill="#6B7280" text-anchor="middle">3 · 6-ray line star</text>
<text x="595.0" y="94" font-size="22" fill="#6B7280" text-anchor="middle">→</text>
<rect x="618" y="40" width="150" height="99" rx="6" fill="#17324D"/>
<g transform="translate(644,42)"><svg width="99" height="99" viewBox="0 0 100 100"><path d="M50 4L52.39 40.29L58.37 34.06L56.63 42.51L87.86 23.87L59.35 46.45L67.87 47.83L59.93 51.21L93.01 66.31L58.23 55.68L61.94 63.47L54.65 58.85L61.01 94.66L50 60L45.69 67.48L45.35 58.85L19.5 84.43L41.77 55.68L33.17 56.38L40.07 51.21L4.34 44.46L40.65 46.45L35.19 39.77L43.37 42.51L28.62 9.27L47.61 40.29Z" fill="#F7F4EE"/><line x1="50" y1="50" x2="50" y2="5.5" stroke="#17324D" stroke-width="1.0" stroke-linecap="round"/><line x1="50" y1="50" x2="57.67" y2="35.39" stroke="#17324D" stroke-width="1.0" stroke-linecap="round"/><line x1="50" y1="50" x2="86.62" y2="24.72" stroke="#17324D" stroke-width="1.0" stroke-linecap="round"/><line x1="50" y1="50" x2="66.38" y2="48.01" stroke="#17324D" stroke-width="1.0" stroke-linecap="round"/><line x1="50" y1="50" x2="91.61" y2="65.78" stroke="#17324D" stroke-width="1.0" stroke-linecap="round"/><line x1="50" y1="50" x2="60.94" y2="62.35" stroke="#17324D" stroke-width="1.0" stroke-linecap="round"/><line x1="50" y1="50" x2="60.65" y2="93.21" stroke="#17324D" stroke-width="1.0" stroke-linecap="round"/><line x1="50" y1="50" x2="46.05" y2="66.02" stroke="#17324D" stroke-width="1.0" stroke-linecap="round"/><line x1="50" y1="50" x2="20.49" y2="83.31" stroke="#17324D" stroke-width="1.0" stroke-linecap="round"/><line x1="50" y1="50" x2="34.57" y2="55.85" stroke="#17324D" stroke-width="1.0" stroke-linecap="round"/><line x1="50" y1="50" x2="5.82" y2="44.64" stroke="#17324D" stroke-width="1.0" stroke-linecap="round"/><line x1="50" y1="50" x2="36.42" y2="40.63" stroke="#17324D" stroke-width="1.0" stroke-linecap="round"/><line x1="50" y1="50" x2="29.32" y2="10.6" stroke="#17324D" stroke-width="1.0" stroke-linecap="round"/><circle cx="50" cy="50" r="4" fill="#F7F4EE"/><circle cx="50" cy="50" r="1.6" fill="#F7F4EE"/></svg></g>
<text x="693.0" y="157" font-size="11" fill="#6B7280" text-anchor="middle">5 · resampled to 13</text>
</svg>