<svg xmlns="http://www.w3.org/2000/svg" viewBox="0 0 100 100"><path d="M50 -2L58 30.14L50 44L42 30.14Z" fill="#C2972F"/><path d="M89.84 21L66 44L50 44L58 30.14Z" fill="#17324D"/><path d="M89.84 67L58 57.86L50 44L66 44Z" fill="#2A7F9E"/><path d="M50 90L42 57.86L50 44L58 57.86Z" fill="#7A263A"/><path d="M10.16 67L34 44L50 44L42 57.86Z" fill="#3F6F5E"/><path d="M10.16 21L42 30.14L50 44L34 44Z" fill="#6B7280"/><line x1="50" y1="44" x2="58" y2="30.14" stroke="#F7F4EE" stroke-width="1.3" stroke-linecap="round"/><line x1="50" y1="44" x2="66" y2="44" stroke="#F7F4EE" stroke-width="1.3" stroke-linecap="round"/><line x1="50" y1="44" x2="58" y2="57.86" stroke="#F7F4EE" stroke-width="1.3" stroke-linecap="round"/><line x1="50" y1="44" x2="42" y2="57.86" stroke="#F7F4EE" stroke-width="1.3" stroke-linecap="round"/><line x1="50" y1="44" x2="34" y2="44" stroke="#F7F4EE" stroke-width="1.3" stroke-linecap="round"/><line x1="50" y1="44" x2="42" y2="30.14" stroke="#F7F4EE" stroke-width="1.3" stroke-linecap="round"/><circle cx="50" cy="44" r="3" fill="#7A263A"/><circle cx="50" cy="44" r="1.3" fill="#F7F4EE"/></svg>
