<svg xmlns="http://www.w3.org/2000/svg" viewBox="0 0 100 100"><circle cx="50" cy="50" r="48" fill="#F7F4EE"/><path d="M50.4 3L53.42 37.46L50 50L46.8 37.4Z" fill="#D9B36C"/><path d="M65 24.02L58.7 40.34L50 50L53.42 37.46Z" fill="#C2972F"/><path d="M88.01 22.36L61.87 44.71L50 50L58.7 40.34Z" fill="#D9B36C"/><path d="M79.34 43.75L62.98 50.67L50 50L61.87 44.71Z" fill="#17324D"/><path d="M94.71 64.51L60.9 57.08L50 50L62.98 50.67Z" fill="#D9B36C"/><path d="M70.08 72.29L54.71 62.11L50 50L60.9 57.08Z" fill="#2A7F9E"/><path d="M50.42 97L45.5 62.2L50 50L54.71 62.11Z" fill="#D9B36C"/><path d="M30.32 72.65L39.19 57.22L50 50L45.5 62.2Z" fill="#7A263A"/><path d="M5.43 64.91L37.02 50.73L50 50L39.19 57.22Z" fill="#D9B36C"/><path d="M20.66 43.75L38.15 44.66L50 50L37.02 50.73Z" fill="#3F6F5E"/><path d="M12.22 22.04L41.43 40.23L50 50L38.15 44.66Z" fill="#D9B36C"/><path d="M35.45 23.77L46.8 37.4L50 50L41.43 40.23Z" fill="#6B7280"/><circle cx="50" cy="50" r="3" fill="#7A263A"/><circle cx="50" cy="50" r="1.3" fill="#F7F4EE"/></svg>
