<svg xmlns="http://www.w3.org/2000/svg" viewBox="0 0 100 100">
<circle cx="50" cy="50" r="48" fill="#7A263A"/><line x1="50" y1="45" x2="50" y2="10" stroke="#F7F4EE" stroke-width="2.2" stroke-linecap="round"/><line x1="50" y1="27.5" x2="58.31" y2="22.7" stroke="#F7F4EE" stroke-width="2.2" stroke-linecap="round"/><line x1="50" y1="27.5" x2="41.69" y2="22.7" stroke="#F7F4EE" stroke-width="2.2" stroke-linecap="round"/><line x1="50" y1="19.1" x2="55.54" y2="15.9" stroke="#F7F4EE" stroke-width="2.2" stroke-linecap="round"/><line x1="50" y1="19.1" x2="44.46" y2="15.9" stroke="#F7F4EE" stroke-width="2.2" stroke-linecap="round"/><line x1="50" y1="10" x2="54.5" y2="7.4" stroke="#F7F4EE" stroke-width="2.2" stroke-linecap="round"/><line x1="50" y1="10" x2="45.5" y2="7.4" stroke="#F7F4EE" stroke-width="2.2" stroke-linecap="round"/><line x1="52.94" y1="45.95" x2="73.51" y2="17.64" stroke="#F7F4EE" stroke-width="2.2" stroke-linecap="round"/><line x1="63.23" y1="31.8" x2="71.54" y2="27" stroke="#F7F4EE" stroke-width="2.2" stroke-linecap="round"/><line x1="63.23" y1="31.8" x2="54.91" y2="27" stroke="#F7F4EE" stroke-width="2.2" stroke-linecap="round"/><line x1="68.16" y1="25" x2="73.71" y2="21.8" stroke="#F7F4EE" stroke-width="2.2" stroke-linecap="round"/><line x1="68.16" y1="25" x2="62.62" y2="21.8" stroke="#F7F4EE" stroke-width="2.2" stroke-linecap="round"/><line x1="73.51" y1="17.64" x2="78.01" y2="15.04" stroke="#F7F4EE" stroke-width="2.2" stroke-linecap="round"/><line x1="73.51" y1="17.64" x2="69.01" y2="15.04" stroke="#F7F4EE" stroke-width="2.2" stroke-linecap="round"/><line x1="54.76" y1="48.45" x2="88.04" y2="37.64" stroke="#F7F4EE" stroke-width="2.2" stroke-linecap="round"/><line x1="71.4" y1="43.05" x2="79.71" y2="38.25" stroke="#F7F4EE" stroke-width="2.2" stroke-linecap="round"/><line x1="71.4" y1="43.05" x2="63.08" y2="38.25" stroke="#F7F4EE" stroke-width="2.2" stroke-linecap="round"/><line x1="79.39" y1="40.45" x2="84.93" y2="37.25" stroke="#F7F4EE" stroke-width="2.2" stroke-linecap="round"/><line x1="79.39" y1="40.45" x2="73.85" y2="37.25" stroke="#F7F4EE" stroke-width="2.2" stroke-linecap="round"/><line x1="88.04" y1="37.64" x2="92.55" y2="35.04" stroke="#F7F4EE" stroke-width="2.2" stroke-linecap="round"/><line x1="88.04" y1="37.64" x2="83.54" y2="35.04" stroke="#F7F4EE" stroke-width="2.2" stroke-linecap="round"/><line x1="54.76" y1="51.55" x2="88.04" y2="62.36" stroke="#F7F4EE" stroke-width="2.2" stroke-linecap="round"/><line x1="71.4" y1="56.95" x2="79.71" y2="52.15" stroke="#F7F4EE" stroke-width="2.2" stroke-linecap="round"/><line x1="71.4" y1="56.95" x2="63.08" y2="52.15" stroke="#F7F4EE" stroke-width="2.2" stroke-linecap="round"/><line x1="79.39" y1="59.55" x2="84.93" y2="56.35" stroke="#F7F4EE" stroke-width="2.2" stroke-linecap="round"/><line x1="79.39" y1="59.55" x2="73.85" y2="56.35" stroke="#F7F4EE" stroke-width="2.2" stroke-linecap="round"/><line x1="88.04" y1="62.36" x2="92.55" y2="59.76" stroke="#F7F4EE" stroke-width="2.2" stroke-linecap="round"/><line x1="88.04" y1="62.36" x2="83.54" y2="59.76" stroke="#F7F4EE" stroke-width="2.2" stroke-linecap="round"/><line x1="52.94" y1="54.05" x2="73.51" y2="82.36" stroke="#F7F4EE" stroke-width="2.2" stroke-linecap="round"/><line x1="63.23" y1="68.2" x2="71.54" y2="63.4" stroke="#F7F4EE" stroke-width="2.2" stroke-linecap="round"/><line x1="63.23" y1="68.2" x2="54.91" y2="63.4" stroke="#F7F4EE" stroke-width="2.2" stroke-linecap="round"/><line x1="68.16" y1="75" x2="73.71" y2="71.8" stroke="#F7F4EE" stroke-width="2.2" stroke-linecap="round"/><line x1="68.16" y1="75" x2="62.62" y2="71.8" stroke="#F7F4EE" stroke-width="2.2" stroke-linecap="round"/><line x1="73.51" y1="82.36" x2="78.01" y2="79.76" stroke="#F7F4EE" stroke-width="2.2" stroke-linecap="round"/><line x1="73.51" y1="82.36" x2="69.01" y2="79.76" stroke="#F7F4EE" stroke-width="2.2" stroke-linecap="round"/><line x1="50" y1="55" x2="50" y2="90" stroke="#F7F4EE" stroke-width="2.2" stroke-linecap="round"/><line x1="50" y1="72.5" x2="58.31" y2="67.7" stroke="#F7F4EE" stroke-width="2.2" stroke-linecap="round"/><line x1="50" y1="72.5" x2="41.69" y2="67.7" stroke="#F7F4EE" stroke-width="2.2" stroke-linecap="round"/><line x1="50" y1="80.9" x2="55.54" y2="77.7" stroke="#F7F4EE" stroke-width="2.2" stroke-linecap="round"/><line x1="50" y1="80.9" x2="44.46" y2="77.7" stroke="#F7F4EE" stroke-width="2.2" stroke-linecap="round"/><line x1="50" y1="90" x2="54.5" y2="87.4" stroke="#F7F4EE" stroke-width="2.2" stroke-linecap="round"/><line x1="50" y1="90" x2="45.5" y2="87.4" stroke="#F7F4EE" stroke-width="2.2" stroke-linecap="round"/><line x1="47.06" y1="54.05" x2="26.49" y2="82.36" stroke="#F7F4EE" stroke-width="2.2" stroke-linecap="round"/><line x1="36.77" y1="68.2" x2="45.09" y2="63.4" stroke="#F7F4EE" stroke-width="2.2" stroke-linecap="round"/><line x1="36.77" y1="68.2" x2="28.46" y2="63.4" stroke="#F7F4EE" stroke-width="2.2" stroke-linecap="round"/><line x1="31.84" y1="75" x2="37.38" y2="71.8" stroke="#F7F4EE" stroke-width="2.2" stroke-linecap="round"/><line x1="31.84" y1="75" x2="26.29" y2="71.8" stroke="#F7F4EE" stroke-width="2.2" stroke-linecap="round"/><line x1="26.49" y1="82.36" x2="30.99" y2="79.76" stroke="#F7F4EE" stroke-width="2.2" stroke-linecap="round"/><line x1="26.49" y1="82.36" x2="21.99" y2="79.76" stroke="#F7F4EE" stroke-width="2.2" stroke-linecap="round"/><line x1="45.24" y1="51.55" x2="11.96" y2="62.36" stroke="#F7F4EE" stroke-width="2.2" stroke-linecap="round"/><line x1="28.6" y1="56.95" x2="36.92" y2="52.15" stroke="#F7F4EE" stroke-width="2.2" stroke-linecap="round"/><line x1="28.6" y1="56.95" x2="20.29" y2="52.15" stroke="#F7F4EE" stroke-width="2.2" stroke-linecap="round"/><line x1="20.61" y1="59.55" x2="26.15" y2="56.35" stroke="#F7F4EE" stroke-width="2.2" stroke-linecap="round"/><line x1="20.61" y1="59.55" x2="15.07" y2="56.35" stroke="#F7F4EE" stroke-width="2.2" stroke-linecap="round"/><line x1="11.96" y1="62.36" x2="16.46" y2="59.76" stroke="#F7F4EE" stroke-width="2.2" stroke-linecap="round"/><line x1="11.96" y1="62.36" x2="7.45" y2="59.76" stroke="#F7F4EE" stroke-width="2.2" stroke-linecap="round"/><line x1="45.24" y1="48.45" x2="11.96" y2="37.64" stroke="#F7F4EE" stroke-width="2.2" stroke-linecap="round"/><line x1="28.6" y1="43.05" x2="36.92" y2="38.25" stroke="#F7F4EE" stroke-width="2.2" stroke-linecap="round"/><line x1="28.6" y1="43.05" x2="20.29" y2="38.25" stroke="#F7F4EE" stroke-width="2.2" stroke-linecap="round"/><line x1="20.61" y1="40.45" x2="26.15" y2="37.25" stroke="#F7F4EE" stroke-width="2.2" stroke-linecap="round"/><line x1="20.61" y1="40.45" x2="15.07" y2="37.25" stroke="#F7F4EE" stroke-width="2.2" stroke-linecap="round"/><line x1="11.96" y1="37.64" x2="16.46" y2="35.04" stroke="#F7F4EE" stroke-width="2.2" stroke-linecap="round"/><line x1="11.96" y1="37.64" x2="7.45" y2="35.04" stroke="#F7F4EE" stroke-width="2.2" stroke-linecap="round"/><line x1="47.06" y1="45.95" x2="26.49" y2="17.64" stroke="#F7F4EE" stroke-width="2.2" stroke-linecap="round"/><line x1="36.77" y1="31.8" x2="45.09" y2="27" stroke="#F7F4EE" stroke-width="2.2" stroke-linecap="round"/><line x1="36.77" y1="31.8" x2="28.46" y2="27" stroke="#F7F4EE" stroke-width="2.2" stroke-linecap="round"/><line x1="31.84" y1="25" x2="37.38" y2="21.8" stroke="#F7F4EE" stroke-width="2.2" stroke-linecap="round"/><line x1="31.84" y1="25" x2="26.29" y2="21.8" stroke="#F7F4EE" stroke-width="2.2" stroke-linecap="round"/><line x1="26.49" y1="17.64" x2="30.99" y2="15.04" stroke="#F7F4EE" stroke-width="2.2" stroke-linecap="round"/><line x1="26.49" y1="17.64" x2="21.99" y2="15.04" stroke="#F7F4EE" stroke-width="2.2" stroke-linecap="round"/><circle cx="50" cy="50" r="2.6" fill="none" stroke="#F7F4EE" stroke-width="2.2"/>
</svg>
