<svg xmlns="http://www.w3.org/2000/svg" viewBox="0 0 100 100">
<circle cx="50" cy="50" r="48" fill="#F7F4EE"/><line x1="50" y1="46" x2="50" y2="8" stroke="#C2972F" stroke-width="2.4" stroke-linecap="round"/><line x1="50" y1="25.1" x2="57.27" y2="20.9" stroke="#C2972F" stroke-width="2.4" stroke-linecap="round"/><line x1="50" y1="25.1" x2="42.73" y2="20.9" stroke="#C2972F" stroke-width="2.4" stroke-linecap="round"/><line x1="50" y1="8" x2="54.73" y2="5.27" stroke="#C2972F" stroke-width="2.4" stroke-linecap="round"/><line x1="50" y1="8" x2="45.27" y2="5.27" stroke="#C2972F" stroke-width="2.4" stroke-linecap="round"/><line x1="51.86" y1="46.46" x2="69.52" y2="12.81" stroke="#17324D" stroke-width="2.4" stroke-linecap="round"/><line x1="61.57" y1="27.95" x2="68.85" y2="23.75" stroke="#17324D" stroke-width="2.4" stroke-linecap="round"/><line x1="61.57" y1="27.95" x2="54.3" y2="23.75" stroke="#17324D" stroke-width="2.4" stroke-linecap="round"/><line x1="69.52" y1="12.81" x2="74.25" y2="10.08" stroke="#17324D" stroke-width="2.4" stroke-linecap="round"/><line x1="69.52" y1="12.81" x2="64.79" y2="10.08" stroke="#17324D" stroke-width="2.4" stroke-linecap="round"/><line x1="53.29" y1="47.73" x2="84.57" y2="26.14" stroke="#2A7F9E" stroke-width="2.4" stroke-linecap="round"/><line x1="70.49" y1="35.86" x2="77.77" y2="31.66" stroke="#2A7F9E" stroke-width="2.4" stroke-linecap="round"/><line x1="70.49" y1="35.86" x2="63.22" y2="31.66" stroke="#2A7F9E" stroke-width="2.4" stroke-linecap="round"/><line x1="84.57" y1="26.14" x2="89.29" y2="23.41" stroke="#2A7F9E" stroke-width="2.4" stroke-linecap="round"/><line x1="84.57" y1="26.14" x2="79.84" y2="23.41" stroke="#2A7F9E" stroke-width="2.4" stroke-linecap="round"/><line x1="53.97" y1="49.52" x2="91.69" y2="44.94" stroke="#7A263A" stroke-width="2.4" stroke-linecap="round"/><line x1="74.72" y1="47" x2="81.99" y2="42.8" stroke="#7A263A" stroke-width="2.4" stroke-linecap="round"/><line x1="74.72" y1="47" x2="67.44" y2="42.8" stroke="#7A263A" stroke-width="2.4" stroke-linecap="round"/><line x1="91.69" y1="44.94" x2="96.42" y2="42.21" stroke="#7A263A" stroke-width="2.4" stroke-linecap="round"/><line x1="91.69" y1="44.94" x2="86.97" y2="42.21" stroke="#7A263A" stroke-width="2.4" stroke-linecap="round"/><line x1="53.74" y1="51.42" x2="89.27" y2="64.89" stroke="#3F6F5E" stroke-width="2.4" stroke-linecap="round"/><line x1="73.28" y1="58.83" x2="80.56" y2="54.63" stroke="#3F6F5E" stroke-width="2.4" stroke-linecap="round"/><line x1="73.28" y1="58.83" x2="66.01" y2="54.63" stroke="#3F6F5E" stroke-width="2.4" stroke-linecap="round"/><line x1="89.27" y1="64.89" x2="94" y2="62.16" stroke="#3F6F5E" stroke-width="2.4" stroke-linecap="round"/><line x1="89.27" y1="64.89" x2="84.54" y2="62.16" stroke="#3F6F5E" stroke-width="2.4" stroke-linecap="round"/><line x1="52.65" y1="52.99" x2="77.85" y2="81.44" stroke="#6B7280" stroke-width="2.4" stroke-linecap="round"/><line x1="66.51" y1="68.64" x2="73.79" y2="64.44" stroke="#6B7280" stroke-width="2.4" stroke-linecap="round"/><line x1="66.51" y1="68.64" x2="59.24" y2="64.44" stroke="#6B7280" stroke-width="2.4" stroke-linecap="round"/><line x1="77.85" y1="81.44" x2="82.58" y2="78.71" stroke="#6B7280" stroke-width="2.4" stroke-linecap="round"/><line x1="77.85" y1="81.44" x2="73.12" y2="78.71" stroke="#6B7280" stroke-width="2.4" stroke-linecap="round"/><line x1="50.96" y1="53.88" x2="60.05" y2="90.78" stroke="#C2972F" stroke-width="2.4" stroke-linecap="round"/><line x1="55.96" y1="74.18" x2="63.23" y2="69.98" stroke="#C2972F" stroke-width="2.4" stroke-linecap="round"/><line x1="55.96" y1="74.18" x2="48.68" y2="69.98" stroke="#C2972F" stroke-width="2.4" stroke-linecap="round"/><line x1="60.05" y1="90.78" x2="64.78" y2="88.05" stroke="#C2972F" stroke-width="2.4" stroke-linecap="round"/><line x1="60.05" y1="90.78" x2="55.32" y2="88.05" stroke="#C2972F" stroke-width="2.4" stroke-linecap="round"/><line x1="49.04" y1="53.88" x2="39.95" y2="90.78" stroke="#17324D" stroke-width="2.4" stroke-linecap="round"/><line x1="44.04" y1="74.18" x2="51.32" y2="69.98" stroke="#17324D" stroke-width="2.4" stroke-linecap="round"/><line x1="44.04" y1="74.18" x2="36.77" y2="69.98" stroke="#17324D" stroke-width="2.4" stroke-linecap="round"/><line x1="39.95" y1="90.78" x2="44.68" y2="88.05" stroke="#17324D" stroke-width="2.4" stroke-linecap="round"/><line x1="39.95" y1="90.78" x2="35.22" y2="88.05" stroke="#17324D" stroke-width="2.4" stroke-linecap="round"/><line x1="47.35" y1="52.99" x2="22.15" y2="81.44" stroke="#2A7F9E" stroke-width="2.4" stroke-linecap="round"/><line x1="33.49" y1="68.64" x2="40.76" y2="64.44" stroke="#2A7F9E" stroke-width="2.4" stroke-linecap="round"/><line x1="33.49" y1="68.64" x2="26.21" y2="64.44" stroke="#2A7F9E" stroke-width="2.4" stroke-linecap="round"/><line x1="22.15" y1="81.44" x2="26.88" y2="78.71" stroke="#2A7F9E" stroke-width="2.4" stroke-linecap="round"/><line x1="22.15" y1="81.44" x2="17.42" y2="78.71" stroke="#2A7F9E" stroke-width="2.4" stroke-linecap="round"/><line x1="46.26" y1="51.42" x2="10.73" y2="64.89" stroke="#7A263A" stroke-width="2.4" stroke-linecap="round"/><line x1="26.72" y1="58.83" x2="33.99" y2="54.63" stroke="#7A263A" stroke-width="2.4" stroke-linecap="round"/><line x1="26.72" y1="58.83" x2="19.44" y2="54.63" stroke="#7A263A" stroke-width="2.4" stroke-linecap="round"/><line x1="10.73" y1="64.89" x2="15.46" y2="62.16" stroke="#7A263A" stroke-width="2.4" stroke-linecap="round"/><line x1="10.73" y1="64.89" x2="6" y2="62.16" stroke="#7A263A" stroke-width="2.4" stroke-linecap="round"/><line x1="46.03" y1="49.52" x2="8.31" y2="44.94" stroke="#3F6F5E" stroke-width="2.4" stroke-linecap="round"/><line x1="25.28" y1="47" x2="32.56" y2="42.8" stroke="#3F6F5E" stroke-width="2.4" stroke-linecap="round"/><line x1="25.28" y1="47" x2="18.01" y2="42.8" stroke="#3F6F5E" stroke-width="2.4" stroke-linecap="round"/><line x1="8.31" y1="44.94" x2="13.03" y2="42.21" stroke="#3F6F5E" stroke-width="2.4" stroke-linecap="round"/><line x1="8.31" y1="44.94" x2="3.58" y2="42.21" stroke="#3F6F5E" stroke-width="2.4" stroke-linecap="round"/><line x1="46.71" y1="47.73" x2="15.43" y2="26.14" stroke="#6B7280" stroke-width="2.4" stroke-linecap="round"/><line x1="29.51" y1="35.86" x2="36.78" y2="31.66" stroke="#6B7280" stroke-width="2.4" stroke-linecap="round"/><line x1="29.51" y1="35.86" x2="22.23" y2="31.66" stroke="#6B7280" stroke-width="2.4" stroke-linecap="round"/><line x1="15.43" y1="26.14" x2="20.16" y2="23.41" stroke="#6B7280" stroke-width="2.4" stroke-linecap="round"/><line x1="15.43" y1="26.14" x2="10.71" y2="23.41" stroke="#6B7280" stroke-width="2.4" stroke-linecap="round"/><line x1="48.14" y1="46.46" x2="30.48" y2="12.81" stroke="#C2972F" stroke-width="2.4" stroke-linecap="round"/><line x1="38.43" y1="27.95" x2="45.7" y2="23.75" stroke="#C2972F" stroke-width="2.4" stroke-linecap="round"/><line x1="38.43" y1="27.95" x2="31.15" y2="23.75" stroke="#C2972F" stroke-width="2.4" stroke-linecap="round"/><line x1="30.48" y1="12.81" x2="35.21" y2="10.08" stroke="#C2972F" stroke-width="2.4" stroke-linecap="round"/><line x1="30.48" y1="12.81" x2="25.75" y2="10.08" stroke="#C2972F" stroke-width="2.4" stroke-linecap="round"/><circle cx="50" cy="50" r="3.2" fill="#7A263A"/>
</svg>
