<svg xmlns="http://www.w3.org/2000/svg" viewBox="0 0 100 100"><circle cx="50" cy="50" r="47" fill="none" stroke="#D9B36C" stroke-width="2"/><path d="M50.4 3L53.68 36.49L65 24.02L59.37 39.59L88.01 22.36L62.79 44.3L79.34 43.75L63.98 50.73L94.71 64.51L61.74 57.62L70.08 72.29L55.08 63.05L50.42 97L45.16 63.14L30.32 72.65L38.36 57.78L5.43 64.91L36.02 50.79L20.66 43.75L37.24 44.25L12.22 22.04L40.77 39.48L35.45 23.77L46.55 36.43Z" fill="#17324D"/><line x1="50" y1="50" x2="50.39" y2="4.5" stroke="#F7F4EE" stroke-width="1.0" stroke-linecap="round"/><line x1="50" y1="50" x2="64.25" y2="25.32" stroke="#F7F4EE" stroke-width="1.0" stroke-linecap="round"/><line x1="50" y1="50" x2="86.8" y2="23.24" stroke="#F7F4EE" stroke-width="1.0" stroke-linecap="round"/><line x1="50" y1="50" x2="77.87" y2="44.06" stroke="#F7F4EE" stroke-width="1.0" stroke-linecap="round"/><line x1="50" y1="50" x2="93.28" y2="64.04" stroke="#F7F4EE" stroke-width="1.0" stroke-linecap="round"/><line x1="50" y1="50" x2="69.08" y2="71.17" stroke="#F7F4EE" stroke-width="1.0" stroke-linecap="round"/><line x1="50" y1="50" x2="50.41" y2="95.5" stroke="#F7F4EE" stroke-width="1.0" stroke-linecap="round"/><line x1="50" y1="50" x2="31.31" y2="71.51" stroke="#F7F4EE" stroke-width="1.0" stroke-linecap="round"/><line x1="50" y1="50" x2="6.85" y2="64.43" stroke="#F7F4EE" stroke-width="1.0" stroke-linecap="round"/><line x1="50" y1="50" x2="22.13" y2="44.06" stroke="#F7F4EE" stroke-width="1.0" stroke-linecap="round"/><line x1="50" y1="50" x2="13.43" y2="22.93" stroke="#F7F4EE" stroke-width="1.0" stroke-linecap="round"/><line x1="50" y1="50" x2="36.17" y2="25.08" stroke="#F7F4EE" stroke-width="1.0" stroke-linecap="round"/><circle cx="50" cy="50" r="3.6" fill="#F7F4EE"/><circle cx="50" cy="50" r="1.5" fill="#17324D"/></svg>
