<svg xmlns="http://www.w3.org/2000/svg" viewBox="0 0 100 100">
<line x1="50" y1="45" x2="50" y2="8" stroke="#17324D" stroke-width="2.2" stroke-linecap="round"/><line x1="50" y1="26.5" x2="58.73" y2="21.46" stroke="#17324D" stroke-width="2.2" stroke-linecap="round"/><line x1="50" y1="26.5" x2="41.27" y2="21.46" stroke="#17324D" stroke-width="2.2" stroke-linecap="round"/><line x1="50" y1="17.62" x2="55.82" y2="14.26" stroke="#17324D" stroke-width="2.2" stroke-linecap="round"/><line x1="50" y1="17.62" x2="44.18" y2="14.26" stroke="#17324D" stroke-width="2.2" stroke-linecap="round"/><line x1="50" y1="8" x2="54.73" y2="5.27" stroke="#17324D" stroke-width="2.2" stroke-linecap="round"/><line x1="50" y1="8" x2="45.27" y2="5.27" stroke="#17324D" stroke-width="2.2" stroke-linecap="round"/><line x1="52.32" y1="45.57" x2="69.52" y2="12.81" stroke="#17324D" stroke-width="2.2" stroke-linecap="round"/><line x1="60.92" y1="29.19" x2="69.65" y2="24.15" stroke="#17324D" stroke-width="2.2" stroke-linecap="round"/><line x1="60.92" y1="29.19" x2="52.19" y2="24.15" stroke="#17324D" stroke-width="2.2" stroke-linecap="round"/><line x1="65.05" y1="21.33" x2="70.87" y2="17.97" stroke="#17324D" stroke-width="2.2" stroke-linecap="round"/><line x1="65.05" y1="21.33" x2="59.23" y2="17.97" stroke="#17324D" stroke-width="2.2" stroke-linecap="round"/><line x1="69.52" y1="12.81" x2="74.25" y2="10.08" stroke="#17324D" stroke-width="2.2" stroke-linecap="round"/><line x1="69.52" y1="12.81" x2="64.79" y2="10.08" stroke="#17324D" stroke-width="2.2" stroke-linecap="round"/><line x1="54.11" y1="47.16" x2="84.57" y2="26.14" stroke="#17324D" stroke-width="2.2" stroke-linecap="round"/><line x1="69.34" y1="36.65" x2="78.07" y2="31.61" stroke="#17324D" stroke-width="2.2" stroke-linecap="round"/><line x1="69.34" y1="36.65" x2="60.61" y2="31.61" stroke="#17324D" stroke-width="2.2" stroke-linecap="round"/><line x1="76.65" y1="31.61" x2="82.47" y2="28.25" stroke="#17324D" stroke-width="2.2" stroke-linecap="round"/><line x1="76.65" y1="31.61" x2="70.83" y2="28.25" stroke="#17324D" stroke-width="2.2" stroke-linecap="round"/><line x1="84.57" y1="26.14" x2="89.29" y2="23.41" stroke="#17324D" stroke-width="2.2" stroke-linecap="round"/><line x1="84.57" y1="26.14" x2="79.84" y2="23.41" stroke="#17324D" stroke-width="2.2" stroke-linecap="round"/><line x1="54.96" y1="49.4" x2="91.69" y2="44.94" stroke="#17324D" stroke-width="2.2" stroke-linecap="round"/><line x1="73.33" y1="47.17" x2="82.06" y2="42.13" stroke="#17324D" stroke-width="2.2" stroke-linecap="round"/><line x1="73.33" y1="47.17" x2="64.6" y2="42.13" stroke="#17324D" stroke-width="2.2" stroke-linecap="round"/><line x1="82.14" y1="46.1" x2="87.96" y2="42.74" stroke="#17324D" stroke-width="2.2" stroke-linecap="round"/><line x1="82.14" y1="46.1" x2="76.32" y2="42.74" stroke="#17324D" stroke-width="2.2" stroke-linecap="round"/><line x1="91.69" y1="44.94" x2="96.42" y2="42.21" stroke="#17324D" stroke-width="2.2" stroke-linecap="round"/><line x1="91.69" y1="44.94" x2="86.97" y2="42.21" stroke="#17324D" stroke-width="2.2" stroke-linecap="round"/><line x1="54.68" y1="51.77" x2="89.27" y2="64.89" stroke="#17324D" stroke-width="2.2" stroke-linecap="round"/><line x1="71.97" y1="58.33" x2="80.7" y2="53.29" stroke="#17324D" stroke-width="2.2" stroke-linecap="round"/><line x1="71.97" y1="58.33" x2="63.24" y2="53.29" stroke="#17324D" stroke-width="2.2" stroke-linecap="round"/><line x1="80.28" y1="61.48" x2="86.1" y2="58.12" stroke="#17324D" stroke-width="2.2" stroke-linecap="round"/><line x1="80.28" y1="61.48" x2="74.46" y2="58.12" stroke="#17324D" stroke-width="2.2" stroke-linecap="round"/><line x1="89.27" y1="64.89" x2="94" y2="62.16" stroke="#17324D" stroke-width="2.2" stroke-linecap="round"/><line x1="89.27" y1="64.89" x2="84.54" y2="62.16" stroke="#17324D" stroke-width="2.2" stroke-linecap="round"/><line x1="53.32" y1="53.74" x2="77.85" y2="81.44" stroke="#17324D" stroke-width="2.2" stroke-linecap="round"/><line x1="65.58" y1="67.59" x2="74.31" y2="62.55" stroke="#17324D" stroke-width="2.2" stroke-linecap="round"/><line x1="65.58" y1="67.59" x2="56.85" y2="62.55" stroke="#17324D" stroke-width="2.2" stroke-linecap="round"/><line x1="71.47" y1="74.24" x2="77.29" y2="70.88" stroke="#17324D" stroke-width="2.2" stroke-linecap="round"/><line x1="71.47" y1="74.24" x2="65.65" y2="70.88" stroke="#17324D" stroke-width="2.2" stroke-linecap="round"/><line x1="77.85" y1="81.44" x2="82.58" y2="78.71" stroke="#17324D" stroke-width="2.2" stroke-linecap="round"/><line x1="77.85" y1="81.44" x2="73.12" y2="78.71" stroke="#17324D" stroke-width="2.2" stroke-linecap="round"/><line x1="51.2" y1="54.85" x2="60.05" y2="90.78" stroke="#17324D" stroke-width="2.2" stroke-linecap="round"/><line x1="55.62" y1="72.82" x2="64.35" y2="67.78" stroke="#17324D" stroke-width="2.2" stroke-linecap="round"/><line x1="55.62" y1="72.82" x2="46.89" y2="67.78" stroke="#17324D" stroke-width="2.2" stroke-linecap="round"/><line x1="57.75" y1="81.44" x2="63.57" y2="78.08" stroke="#17324D" stroke-width="2.2" stroke-linecap="round"/><line x1="57.75" y1="81.44" x2="51.93" y2="78.08" stroke="#17324D" stroke-width="2.2" stroke-linecap="round"/><line x1="60.05" y1="90.78" x2="64.78" y2="88.05" stroke="#17324D" stroke-width="2.2" stroke-linecap="round"/><line x1="60.05" y1="90.78" x2="55.32" y2="88.05" stroke="#17324D" stroke-width="2.2" stroke-linecap="round"/><line x1="48.8" y1="54.85" x2="39.95" y2="90.78" stroke="#17324D" stroke-width="2.2" stroke-linecap="round"/><line x1="44.38" y1="72.82" x2="53.11" y2="67.78" stroke="#17324D" stroke-width="2.2" stroke-linecap="round"/><line x1="44.38" y1="72.82" x2="35.65" y2="67.78" stroke="#17324D" stroke-width="2.2" stroke-linecap="round"/><line x1="42.25" y1="81.44" x2="48.07" y2="78.08" stroke="#17324D" stroke-width="2.2" stroke-linecap="round"/><line x1="42.25" y1="81.44" x2="36.43" y2="78.08" stroke="#17324D" stroke-width="2.2" stroke-linecap="round"/><line x1="39.95" y1="90.78" x2="44.68" y2="88.05" stroke="#17324D" stroke-width="2.2" stroke-linecap="round"/><line x1="39.95" y1="90.78" x2="35.22" y2="88.05" stroke="#17324D" stroke-width="2.2" stroke-linecap="round"/><line x1="46.68" y1="53.74" x2="22.15" y2="81.44" stroke="#17324D" stroke-width="2.2" stroke-linecap="round"/><line x1="34.42" y1="67.59" x2="43.15" y2="62.55" stroke="#17324D" stroke-width="2.2" stroke-linecap="round"/><line x1="34.42" y1="67.59" x2="25.69" y2="62.55" stroke="#17324D" stroke-width="2.2" stroke-linecap="round"/><line x1="28.53" y1="74.24" x2="34.35" y2="70.88" stroke="#17324D" stroke-width="2.2" stroke-linecap="round"/><line x1="28.53" y1="74.24" x2="22.71" y2="70.88" stroke="#17324D" stroke-width="2.2" stroke-linecap="round"/><line x1="22.15" y1="81.44" x2="26.88" y2="78.71" stroke="#17324D" stroke-width="2.2" stroke-linecap="round"/><line x1="22.15" y1="81.44" x2="17.42" y2="78.71" stroke="#17324D" stroke-width="2.2" stroke-linecap="round"/><line x1="45.32" y1="51.77" x2="10.73" y2="64.89" stroke="#17324D" stroke-width="2.2" stroke-linecap="round"/><line x1="28.03" y1="58.33" x2="36.76" y2="53.29" stroke="#17324D" stroke-width="2.2" stroke-linecap="round"/><line x1="28.03" y1="58.33" x2="19.3" y2="53.29" stroke="#17324D" stroke-width="2.2" stroke-linecap="round"/><line x1="19.72" y1="61.48" x2="25.54" y2="58.12" stroke="#17324D" stroke-width="2.2" stroke-linecap="round"/><line x1="19.72" y1="61.48" x2="13.9" y2="58.12" stroke="#17324D" stroke-width="2.2" stroke-linecap="round"/><line x1="10.73" y1="64.89" x2="15.46" y2="62.16" stroke="#17324D" stroke-width="2.2" stroke-linecap="round"/><line x1="10.73" y1="64.89" x2="6" y2="62.16" stroke="#17324D" stroke-width="2.2" stroke-linecap="round"/><line x1="45.04" y1="49.4" x2="8.31" y2="44.94" stroke="#17324D" stroke-width="2.2" stroke-linecap="round"/><line x1="26.67" y1="47.17" x2="35.4" y2="42.13" stroke="#17324D" stroke-width="2.2" stroke-linecap="round"/><line x1="26.67" y1="47.17" x2="17.94" y2="42.13" stroke="#17324D" stroke-width="2.2" stroke-linecap="round"/><line x1="17.86" y1="46.1" x2="23.68" y2="42.74" stroke="#17324D" stroke-width="2.2" stroke-linecap="round"/><line x1="17.86" y1="46.1" x2="12.04" y2="42.74" stroke="#17324D" stroke-width="2.2" stroke-linecap="round"/><line x1="8.31" y1="44.94" x2="13.03" y2="42.21" stroke="#17324D" stroke-width="2.2" stroke-linecap="round"/><line x1="8.31" y1="44.94" x2="3.58" y2="42.21" stroke="#17324D" stroke-width="2.2" stroke-linecap="round"/><line x1="45.89" y1="47.16" x2="15.43" y2="26.14" stroke="#17324D" stroke-width="2.2" stroke-linecap="round"/><line x1="30.66" y1="36.65" x2="39.39" y2="31.61" stroke="#17324D" stroke-width="2.2" stroke-linecap="round"/><line x1="30.66" y1="36.65" x2="21.93" y2="31.61" stroke="#17324D" stroke-width="2.2" stroke-linecap="round"/><line x1="23.35" y1="31.61" x2="29.17" y2="28.25" stroke="#17324D" stroke-width="2.2" stroke-linecap="round"/><line x1="23.35" y1="31.61" x2="17.53" y2="28.25" stroke="#17324D" stroke-width="2.2" stroke-linecap="round"/><line x1="15.43" y1="26.14" x2="20.16" y2="23.41" stroke="#17324D" stroke-width="2.2" stroke-linecap="round"/><line x1="15.43" y1="26.14" x2="10.71" y2="23.41" stroke="#17324D" stroke-width="2.2" stroke-linecap="round"/><line x1="47.68" y1="45.57" x2="30.48" y2="12.81" stroke="#17324D" stroke-width="2.2" stroke-linecap="round"/><line x1="39.08" y1="29.19" x2="47.81" y2="24.15" stroke="#17324D" stroke-width="2.2" stroke-linecap="round"/><line x1="39.08" y1="29.19" x2="30.35" y2="24.15" stroke="#17324D" stroke-width="2.2" stroke-linecap="round"/><line x1="34.95" y1="21.33" x2="40.77" y2="17.97" stroke="#17324D" stroke-width="2.2" stroke-linecap="round"/><line x1="34.95" y1="21.33" x2="29.13" y2="17.97" stroke="#17324D" stroke-width="2.2" stroke-linecap="round"/><line x1="30.48" y1="12.81" x2="35.21" y2="10.08" stroke="#17324D" stroke-width="2.2" stroke-linecap="round"/><line x1="30.48" y1="12.81" x2="25.75" y2="10.08" stroke="#17324D" stroke-width="2.2" stroke-linecap="round"/><circle cx="50" cy="50" r="2.6" fill="none" stroke="#17324D" stroke-width="2.2"/>
</svg>
