<svg xmlns="http://www.w3.org/2000/svg" viewBox="0 0 100 100"><circle cx="50" cy="50" r="48" fill="#7A263A"/>
<path d="M50 8L53.71 34.95L69.52 12.81L60.28 38.4L84.57 26.14L64.49 44.5L91.69 44.94L65.39 51.87L89.27 64.89L62.76 58.81L77.85 81.44L57.2 63.72L60.05 90.78L50 65.5L39.95 90.78L42.8 63.72L22.15 81.44L37.24 58.81L10.73 64.89L34.61 51.87L8.31 44.94L35.51 44.5L15.43 26.14L39.72 38.4L30.48 12.81L46.29 34.95Z" fill="#F7F4EE"/><circle cx="50" cy="50" r="6.5" fill="#F7F4EE"/><circle cx="50" cy="50" r="2.4" fill="#F7F4EE"/>
</svg>
