<svg xmlns="http://www.w3.org/2000/svg" viewBox="0 0 100 100">
<circle cx="50" cy="50" r="48" fill="#7A263A"/><line x1="50" y1="45" x2="50" y2="19.58" stroke="#F7F4EE" stroke-width="2.0" stroke-linecap="round"/><line x1="50" y1="32.29" x2="56.32" y2="28.64" stroke="#F7F4EE" stroke-width="2.0" stroke-linecap="round"/><line x1="50" y1="32.29" x2="43.68" y2="28.64" stroke="#F7F4EE" stroke-width="2.0" stroke-linecap="round"/><line x1="50" y1="19.58" x2="53.42" y2="17.6" stroke="#F7F4EE" stroke-width="2.0" stroke-linecap="round"/><line x1="50" y1="19.58" x2="46.58" y2="17.6" stroke="#F7F4EE" stroke-width="2.0" stroke-linecap="round"/><line x1="52.32" y1="45.57" x2="64.14" y2="23.06" stroke="#F7F4EE" stroke-width="2.0" stroke-linecap="round"/><line x1="58.23" y1="34.32" x2="64.55" y2="30.67" stroke="#F7F4EE" stroke-width="2.0" stroke-linecap="round"/><line x1="58.23" y1="34.32" x2="51.91" y2="30.67" stroke="#F7F4EE" stroke-width="2.0" stroke-linecap="round"/><line x1="64.14" y1="23.06" x2="67.56" y2="21.09" stroke="#F7F4EE" stroke-width="2.0" stroke-linecap="round"/><line x1="64.14" y1="23.06" x2="60.71" y2="21.09" stroke="#F7F4EE" stroke-width="2.0" stroke-linecap="round"/><line x1="54.11" y1="47.16" x2="82.1" y2="27.85" stroke="#F7F4EE" stroke-width="2.0" stroke-linecap="round"/><line x1="68.11" y1="37.5" x2="76.21" y2="32.82" stroke="#F7F4EE" stroke-width="2.0" stroke-linecap="round"/><line x1="68.11" y1="37.5" x2="60" y2="32.82" stroke="#F7F4EE" stroke-width="2.0" stroke-linecap="round"/><line x1="74.82" y1="32.87" x2="80.23" y2="29.75" stroke="#F7F4EE" stroke-width="2.0" stroke-linecap="round"/><line x1="74.82" y1="32.87" x2="69.42" y2="29.75" stroke="#F7F4EE" stroke-width="2.0" stroke-linecap="round"/><line x1="82.1" y1="27.85" x2="86.49" y2="25.31" stroke="#F7F4EE" stroke-width="2.0" stroke-linecap="round"/><line x1="82.1" y1="27.85" x2="77.71" y2="25.31" stroke="#F7F4EE" stroke-width="2.0" stroke-linecap="round"/><line x1="54.96" y1="49.4" x2="88.72" y2="45.3" stroke="#F7F4EE" stroke-width="2.0" stroke-linecap="round"/><line x1="71.84" y1="47.35" x2="79.95" y2="42.67" stroke="#F7F4EE" stroke-width="2.0" stroke-linecap="round"/><line x1="71.84" y1="47.35" x2="63.73" y2="42.67" stroke="#F7F4EE" stroke-width="2.0" stroke-linecap="round"/><line x1="79.94" y1="46.36" x2="85.34" y2="43.24" stroke="#F7F4EE" stroke-width="2.0" stroke-linecap="round"/><line x1="79.94" y1="46.36" x2="74.54" y2="43.24" stroke="#F7F4EE" stroke-width="2.0" stroke-linecap="round"/><line x1="88.72" y1="45.3" x2="93.11" y2="42.76" stroke="#F7F4EE" stroke-width="2.0" stroke-linecap="round"/><line x1="88.72" y1="45.3" x2="84.32" y2="42.76" stroke="#F7F4EE" stroke-width="2.0" stroke-linecap="round"/><line x1="54.68" y1="51.77" x2="86.47" y2="63.83" stroke="#F7F4EE" stroke-width="2.0" stroke-linecap="round"/><line x1="70.57" y1="57.8" x2="78.68" y2="53.12" stroke="#F7F4EE" stroke-width="2.0" stroke-linecap="round"/><line x1="70.57" y1="57.8" x2="62.46" y2="53.12" stroke="#F7F4EE" stroke-width="2.0" stroke-linecap="round"/><line x1="78.2" y1="60.69" x2="83.6" y2="57.57" stroke="#F7F4EE" stroke-width="2.0" stroke-linecap="round"/><line x1="78.2" y1="60.69" x2="72.8" y2="57.57" stroke="#F7F4EE" stroke-width="2.0" stroke-linecap="round"/><line x1="86.47" y1="63.83" x2="90.86" y2="61.29" stroke="#F7F4EE" stroke-width="2.0" stroke-linecap="round"/><line x1="86.47" y1="63.83" x2="82.07" y2="61.29" stroke="#F7F4EE" stroke-width="2.0" stroke-linecap="round"/><line x1="53.32" y1="53.74" x2="75.86" y2="79.19" stroke="#F7F4EE" stroke-width="2.0" stroke-linecap="round"/><line x1="64.59" y1="66.47" x2="72.69" y2="61.79" stroke="#F7F4EE" stroke-width="2.0" stroke-linecap="round"/><line x1="64.59" y1="66.47" x2="56.48" y2="61.79" stroke="#F7F4EE" stroke-width="2.0" stroke-linecap="round"/><line x1="70" y1="72.58" x2="75.4" y2="69.46" stroke="#F7F4EE" stroke-width="2.0" stroke-linecap="round"/><line x1="70" y1="72.58" x2="64.6" y2="69.46" stroke="#F7F4EE" stroke-width="2.0" stroke-linecap="round"/><line x1="75.86" y1="79.19" x2="80.25" y2="76.66" stroke="#F7F4EE" stroke-width="2.0" stroke-linecap="round"/><line x1="75.86" y1="79.19" x2="71.47" y2="76.66" stroke="#F7F4EE" stroke-width="2.0" stroke-linecap="round"/><line x1="51.2" y1="54.85" x2="59.33" y2="87.87" stroke="#F7F4EE" stroke-width="2.0" stroke-linecap="round"/><line x1="55.26" y1="71.36" x2="63.37" y2="66.68" stroke="#F7F4EE" stroke-width="2.0" stroke-linecap="round"/><line x1="55.26" y1="71.36" x2="47.16" y2="66.68" stroke="#F7F4EE" stroke-width="2.0" stroke-linecap="round"/><line x1="57.22" y1="79.28" x2="62.62" y2="76.16" stroke="#F7F4EE" stroke-width="2.0" stroke-linecap="round"/><line x1="57.22" y1="79.28" x2="51.81" y2="76.16" stroke="#F7F4EE" stroke-width="2.0" stroke-linecap="round"/><line x1="59.33" y1="87.87" x2="63.72" y2="85.33" stroke="#F7F4EE" stroke-width="2.0" stroke-linecap="round"/><line x1="59.33" y1="87.87" x2="54.94" y2="85.33" stroke="#F7F4EE" stroke-width="2.0" stroke-linecap="round"/><line x1="48.8" y1="54.85" x2="40.67" y2="87.87" stroke="#F7F4EE" stroke-width="2.0" stroke-linecap="round"/><line x1="44.74" y1="71.36" x2="52.84" y2="66.68" stroke="#F7F4EE" stroke-width="2.0" stroke-linecap="round"/><line x1="44.74" y1="71.36" x2="36.63" y2="66.68" stroke="#F7F4EE" stroke-width="2.0" stroke-linecap="round"/><line x1="42.78" y1="79.28" x2="48.19" y2="76.16" stroke="#F7F4EE" stroke-width="2.0" stroke-linecap="round"/><line x1="42.78" y1="79.28" x2="37.38" y2="76.16" stroke="#F7F4EE" stroke-width="2.0" stroke-linecap="round"/><line x1="40.67" y1="87.87" x2="45.06" y2="85.33" stroke="#F7F4EE" stroke-width="2.0" stroke-linecap="round"/><line x1="40.67" y1="87.87" x2="36.28" y2="85.33" stroke="#F7F4EE" stroke-width="2.0" stroke-linecap="round"/><line x1="46.68" y1="53.74" x2="24.14" y2="79.19" stroke="#F7F4EE" stroke-width="2.0" stroke-linecap="round"/><line x1="35.41" y1="66.47" x2="43.52" y2="61.79" stroke="#F7F4EE" stroke-width="2.0" stroke-linecap="round"/><line x1="35.41" y1="66.47" x2="27.31" y2="61.79" stroke="#F7F4EE" stroke-width="2.0" stroke-linecap="round"/><line x1="30" y1="72.58" x2="35.4" y2="69.46" stroke="#F7F4EE" stroke-width="2.0" stroke-linecap="round"/><line x1="30" y1="72.58" x2="24.6" y2="69.46" stroke="#F7F4EE" stroke-width="2.0" stroke-linecap="round"/><line x1="24.14" y1="79.19" x2="28.53" y2="76.66" stroke="#F7F4EE" stroke-width="2.0" stroke-linecap="round"/><line x1="24.14" y1="79.19" x2="19.75" y2="76.66" stroke="#F7F4EE" stroke-width="2.0" stroke-linecap="round"/><line x1="45.32" y1="51.77" x2="13.53" y2="63.83" stroke="#F7F4EE" stroke-width="2.0" stroke-linecap="round"/><line x1="29.43" y1="57.8" x2="37.54" y2="53.12" stroke="#F7F4EE" stroke-width="2.0" stroke-linecap="round"/><line x1="29.43" y1="57.8" x2="21.32" y2="53.12" stroke="#F7F4EE" stroke-width="2.0" stroke-linecap="round"/><line x1="21.8" y1="60.69" x2="27.2" y2="57.57" stroke="#F7F4EE" stroke-width="2.0" stroke-linecap="round"/><line x1="21.8" y1="60.69" x2="16.4" y2="57.57" stroke="#F7F4EE" stroke-width="2.0" stroke-linecap="round"/><line x1="13.53" y1="63.83" x2="17.93" y2="61.29" stroke="#F7F4EE" stroke-width="2.0" stroke-linecap="round"/><line x1="13.53" y1="63.83" x2="9.14" y2="61.29" stroke="#F7F4EE" stroke-width="2.0" stroke-linecap="round"/><line x1="45.04" y1="49.4" x2="11.28" y2="45.3" stroke="#F7F4EE" stroke-width="2.0" stroke-linecap="round"/><line x1="28.16" y1="47.35" x2="36.27" y2="42.67" stroke="#F7F4EE" stroke-width="2.0" stroke-linecap="round"/><line x1="28.16" y1="47.35" x2="20.05" y2="42.67" stroke="#F7F4EE" stroke-width="2.0" stroke-linecap="round"/><line x1="20.06" y1="46.36" x2="25.46" y2="43.24" stroke="#F7F4EE" stroke-width="2.0" stroke-linecap="round"/><line x1="20.06" y1="46.36" x2="14.66" y2="43.24" stroke="#F7F4EE" stroke-width="2.0" stroke-linecap="round"/><line x1="11.28" y1="45.3" x2="15.68" y2="42.76" stroke="#F7F4EE" stroke-width="2.0" stroke-linecap="round"/><line x1="11.28" y1="45.3" x2="6.89" y2="42.76" stroke="#F7F4EE" stroke-width="2.0" stroke-linecap="round"/><line x1="45.89" y1="47.16" x2="17.9" y2="27.85" stroke="#F7F4EE" stroke-width="2.0" stroke-linecap="round"/><line x1="31.89" y1="37.5" x2="40" y2="32.82" stroke="#F7F4EE" stroke-width="2.0" stroke-linecap="round"/><line x1="31.89" y1="37.5" x2="23.79" y2="32.82" stroke="#F7F4EE" stroke-width="2.0" stroke-linecap="round"/><line x1="25.18" y1="32.87" x2="30.58" y2="29.75" stroke="#F7F4EE" stroke-width="2.0" stroke-linecap="round"/><line x1="25.18" y1="32.87" x2="19.77" y2="29.75" stroke="#F7F4EE" stroke-width="2.0" stroke-linecap="round"/><line x1="17.9" y1="27.85" x2="22.29" y2="25.31" stroke="#F7F4EE" stroke-width="2.0" stroke-linecap="round"/><line x1="17.9" y1="27.85" x2="13.51" y2="25.31" stroke="#F7F4EE" stroke-width="2.0" stroke-linecap="round"/><line x1="47.68" y1="45.57" x2="35.86" y2="23.06" stroke="#F7F4EE" stroke-width="2.0" stroke-linecap="round"/><line x1="41.77" y1="34.32" x2="48.09" y2="30.67" stroke="#F7F4EE" stroke-width="2.0" stroke-linecap="round"/><line x1="41.77" y1="34.32" x2="35.45" y2="30.67" stroke="#F7F4EE" stroke-width="2.0" stroke-linecap="round"/><line x1="35.86" y1="23.06" x2="39.29" y2="21.09" stroke="#F7F4EE" stroke-width="2.0" stroke-linecap="round"/><line x1="35.86" y1="23.06" x2="32.44" y2="21.09" stroke="#F7F4EE" stroke-width="2.0" stroke-linecap="round"/><circle cx="50" cy="50" r="2.6" fill="none" stroke="#F7F4EE" stroke-width="2.0"/>
</svg>
