<svg xmlns="http://www.w3.org/2000/svg" viewBox="0 0 100 100"><circle cx="50" cy="50" r="47" fill="none" stroke="#D9B36C" stroke-width="2"/><path d="M50.41 2L52.89 39.39L62 29.21L57.36 41.82L88.82 21.77L60.05 45.52L73.47 45L60.99 50.57L95.66 64.81L59.23 55.99L66.06 67.83L53.99 60.25L50.43 98L46.2 60.32L34.26 68.12L40.85 56.11L4.48 65.22L39.02 50.62L26.53 45L39.97 45.48L11.42 21.44L42.75 41.73L38.36 29.01L47.29 39.34Z" fill="#17324D"/><line x1="50" y1="50" x2="50.39" y2="3.5" stroke="#F7F4EE" stroke-width="1.0" stroke-linecap="round"/><line x1="50" y1="50" x2="61.25" y2="30.51" stroke="#F7F4EE" stroke-width="1.0" stroke-linecap="round"/><line x1="50" y1="50" x2="87.61" y2="22.65" stroke="#F7F4EE" stroke-width="1.0" stroke-linecap="round"/><line x1="50" y1="50" x2="72.01" y2="45.31" stroke="#F7F4EE" stroke-width="1.0" stroke-linecap="round"/><line x1="50" y1="50" x2="94.23" y2="64.35" stroke="#F7F4EE" stroke-width="1.0" stroke-linecap="round"/><line x1="50" y1="50" x2="65.06" y2="66.72" stroke="#F7F4EE" stroke-width="1.0" stroke-linecap="round"/><line x1="50" y1="50" x2="50.42" y2="96.5" stroke="#F7F4EE" stroke-width="1.0" stroke-linecap="round"/><line x1="50" y1="50" x2="35.24" y2="66.98" stroke="#F7F4EE" stroke-width="1.0" stroke-linecap="round"/><line x1="50" y1="50" x2="5.9" y2="64.75" stroke="#F7F4EE" stroke-width="1.0" stroke-linecap="round"/><line x1="50" y1="50" x2="27.99" y2="45.31" stroke="#F7F4EE" stroke-width="1.0" stroke-linecap="round"/><line x1="50" y1="50" x2="12.62" y2="22.34" stroke="#F7F4EE" stroke-width="1.0" stroke-linecap="round"/><line x1="50" y1="50" x2="39.09" y2="30.32" stroke="#F7F4EE" stroke-width="1.0" stroke-linecap="round"/><circle cx="50" cy="50" r="3.6" fill="#F7F4EE"/><circle cx="50" cy="50" r="1.5" fill="#17324D"/></svg>
