<svg xmlns="http://www.w3.org/2000/svg" viewBox="0 0 100 100">
<circle cx="50" cy="50" r="48" fill="#7A263A"/><line x1="50" y1="41.5" x2="50" y2="11" stroke="#F7F4EE" stroke-width="2.0" stroke-linecap="round"/><line x1="50" y1="26.25" x2="58.11" y2="21.57" stroke="#F7F4EE" stroke-width="2.0" stroke-linecap="round"/><line x1="50" y1="26.25" x2="41.89" y2="21.57" stroke="#F7F4EE" stroke-width="2.0" stroke-linecap="round"/><line x1="50" y1="18.93" x2="55.4" y2="15.81" stroke="#F7F4EE" stroke-width="2.0" stroke-linecap="round"/><line x1="50" y1="18.93" x2="44.6" y2="15.81" stroke="#F7F4EE" stroke-width="2.0" stroke-linecap="round"/><line x1="50" y1="11" x2="54.39" y2="8.46" stroke="#F7F4EE" stroke-width="2.0" stroke-linecap="round"/><line x1="50" y1="11" x2="45.61" y2="8.46" stroke="#F7F4EE" stroke-width="2.0" stroke-linecap="round"/><line x1="55" y1="43.12" x2="72.92" y2="18.45" stroke="#F7F4EE" stroke-width="2.0" stroke-linecap="round"/><line x1="63.96" y1="30.79" x2="72.07" y2="26.11" stroke="#F7F4EE" stroke-width="2.0" stroke-linecap="round"/><line x1="63.96" y1="30.79" x2="55.85" y2="26.11" stroke="#F7F4EE" stroke-width="2.0" stroke-linecap="round"/><line x1="68.26" y1="24.86" x2="73.67" y2="21.74" stroke="#F7F4EE" stroke-width="2.0" stroke-linecap="round"/><line x1="68.26" y1="24.86" x2="62.86" y2="21.74" stroke="#F7F4EE" stroke-width="2.0" stroke-linecap="round"/><line x1="72.92" y1="18.45" x2="77.31" y2="15.91" stroke="#F7F4EE" stroke-width="2.0" stroke-linecap="round"/><line x1="72.92" y1="18.45" x2="68.53" y2="15.91" stroke="#F7F4EE" stroke-width="2.0" stroke-linecap="round"/><line x1="58.08" y1="47.37" x2="87.09" y2="37.95" stroke="#F7F4EE" stroke-width="2.0" stroke-linecap="round"/><line x1="72.59" y1="42.66" x2="80.69" y2="37.98" stroke="#F7F4EE" stroke-width="2.0" stroke-linecap="round"/><line x1="72.59" y1="42.66" x2="64.48" y2="37.98" stroke="#F7F4EE" stroke-width="2.0" stroke-linecap="round"/><line x1="79.55" y1="40.4" x2="84.95" y2="37.28" stroke="#F7F4EE" stroke-width="2.0" stroke-linecap="round"/><line x1="79.55" y1="40.4" x2="74.15" y2="37.28" stroke="#F7F4EE" stroke-width="2.0" stroke-linecap="round"/><line x1="87.09" y1="37.95" x2="91.48" y2="35.41" stroke="#F7F4EE" stroke-width="2.0" stroke-linecap="round"/><line x1="87.09" y1="37.95" x2="82.7" y2="35.41" stroke="#F7F4EE" stroke-width="2.0" stroke-linecap="round"/><line x1="58.08" y1="52.63" x2="87.09" y2="62.05" stroke="#F7F4EE" stroke-width="2.0" stroke-linecap="round"/><line x1="72.59" y1="57.34" x2="80.69" y2="52.66" stroke="#F7F4EE" stroke-width="2.0" stroke-linecap="round"/><line x1="72.59" y1="57.34" x2="64.48" y2="52.66" stroke="#F7F4EE" stroke-width="2.0" stroke-linecap="round"/><line x1="79.55" y1="59.6" x2="84.95" y2="56.48" stroke="#F7F4EE" stroke-width="2.0" stroke-linecap="round"/><line x1="79.55" y1="59.6" x2="74.15" y2="56.48" stroke="#F7F4EE" stroke-width="2.0" stroke-linecap="round"/><line x1="87.09" y1="62.05" x2="91.48" y2="59.52" stroke="#F7F4EE" stroke-width="2.0" stroke-linecap="round"/><line x1="87.09" y1="62.05" x2="82.7" y2="59.52" stroke="#F7F4EE" stroke-width="2.0" stroke-linecap="round"/><line x1="55" y1="56.88" x2="72.92" y2="81.55" stroke="#F7F4EE" stroke-width="2.0" stroke-linecap="round"/><line x1="63.96" y1="69.21" x2="72.07" y2="64.53" stroke="#F7F4EE" stroke-width="2.0" stroke-linecap="round"/><line x1="63.96" y1="69.21" x2="55.85" y2="64.53" stroke="#F7F4EE" stroke-width="2.0" stroke-linecap="round"/><line x1="68.26" y1="75.14" x2="73.67" y2="72.02" stroke="#F7F4EE" stroke-width="2.0" stroke-linecap="round"/><line x1="68.26" y1="75.14" x2="62.86" y2="72.02" stroke="#F7F4EE" stroke-width="2.0" stroke-linecap="round"/><line x1="72.92" y1="81.55" x2="77.31" y2="79.02" stroke="#F7F4EE" stroke-width="2.0" stroke-linecap="round"/><line x1="72.92" y1="81.55" x2="68.53" y2="79.02" stroke="#F7F4EE" stroke-width="2.0" stroke-linecap="round"/><line x1="50" y1="58.5" x2="50" y2="89" stroke="#F7F4EE" stroke-width="2.0" stroke-linecap="round"/><line x1="50" y1="73.75" x2="58.11" y2="69.07" stroke="#F7F4EE" stroke-width="2.0" stroke-linecap="round"/><line x1="50" y1="73.75" x2="41.89" y2="69.07" stroke="#F7F4EE" stroke-width="2.0" stroke-linecap="round"/><line x1="50" y1="81.07" x2="55.4" y2="77.95" stroke="#F7F4EE" stroke-width="2.0" stroke-linecap="round"/><line x1="50" y1="81.07" x2="44.6" y2="77.95" stroke="#F7F4EE" stroke-width="2.0" stroke-linecap="round"/><line x1="50" y1="89" x2="54.39" y2="86.47" stroke="#F7F4EE" stroke-width="2.0" stroke-linecap="round"/><line x1="50" y1="89" x2="45.61" y2="86.47" stroke="#F7F4EE" stroke-width="2.0" stroke-linecap="round"/><line x1="45" y1="56.88" x2="27.08" y2="81.55" stroke="#F7F4EE" stroke-width="2.0" stroke-linecap="round"/><line x1="36.04" y1="69.21" x2="44.15" y2="64.53" stroke="#F7F4EE" stroke-width="2.0" stroke-linecap="round"/><line x1="36.04" y1="69.21" x2="27.93" y2="64.53" stroke="#F7F4EE" stroke-width="2.0" stroke-linecap="round"/><line x1="31.74" y1="75.14" x2="37.14" y2="72.02" stroke="#F7F4EE" stroke-width="2.0" stroke-linecap="round"/><line x1="31.74" y1="75.14" x2="26.33" y2="72.02" stroke="#F7F4EE" stroke-width="2.0" stroke-linecap="round"/><line x1="27.08" y1="81.55" x2="31.47" y2="79.02" stroke="#F7F4EE" stroke-width="2.0" stroke-linecap="round"/><line x1="27.08" y1="81.55" x2="22.69" y2="79.02" stroke="#F7F4EE" stroke-width="2.0" stroke-linecap="round"/><line x1="41.92" y1="52.63" x2="12.91" y2="62.05" stroke="#F7F4EE" stroke-width="2.0" stroke-linecap="round"/><line x1="27.41" y1="57.34" x2="35.52" y2="52.66" stroke="#F7F4EE" stroke-width="2.0" stroke-linecap="round"/><line x1="27.41" y1="57.34" x2="19.31" y2="52.66" stroke="#F7F4EE" stroke-width="2.0" stroke-linecap="round"/><line x1="20.45" y1="59.6" x2="25.85" y2="56.48" stroke="#F7F4EE" stroke-width="2.0" stroke-linecap="round"/><line x1="20.45" y1="59.6" x2="15.05" y2="56.48" stroke="#F7F4EE" stroke-width="2.0" stroke-linecap="round"/><line x1="12.91" y1="62.05" x2="17.3" y2="59.52" stroke="#F7F4EE" stroke-width="2.0" stroke-linecap="round"/><line x1="12.91" y1="62.05" x2="8.52" y2="59.52" stroke="#F7F4EE" stroke-width="2.0" stroke-linecap="round"/><line x1="41.92" y1="47.37" x2="12.91" y2="37.95" stroke="#F7F4EE" stroke-width="2.0" stroke-linecap="round"/><line x1="27.41" y1="42.66" x2="35.52" y2="37.98" stroke="#F7F4EE" stroke-width="2.0" stroke-linecap="round"/><line x1="27.41" y1="42.66" x2="19.31" y2="37.98" stroke="#F7F4EE" stroke-width="2.0" stroke-linecap="round"/><line x1="20.45" y1="40.4" x2="25.85" y2="37.28" stroke="#F7F4EE" stroke-width="2.0" stroke-linecap="round"/><line x1="20.45" y1="40.4" x2="15.05" y2="37.28" stroke="#F7F4EE" stroke-width="2.0" stroke-linecap="round"/><line x1="12.91" y1="37.95" x2="17.3" y2="35.41" stroke="#F7F4EE" stroke-width="2.0" stroke-linecap="round"/><line x1="12.91" y1="37.95" x2="8.52" y2="35.41" stroke="#F7F4EE" stroke-width="2.0" stroke-linecap="round"/><line x1="45" y1="43.12" x2="27.08" y2="18.45" stroke="#F7F4EE" stroke-width="2.0" stroke-linecap="round"/><line x1="36.04" y1="30.79" x2="44.15" y2="26.11" stroke="#F7F4EE" stroke-width="2.0" stroke-linecap="round"/><line x1="36.04" y1="30.79" x2="27.93" y2="26.11" stroke="#F7F4EE" stroke-width="2.0" stroke-linecap="round"/><line x1="31.74" y1="24.86" x2="37.14" y2="21.74" stroke="#F7F4EE" stroke-width="2.0" stroke-linecap="round"/><line x1="31.74" y1="24.86" x2="26.33" y2="21.74" stroke="#F7F4EE" stroke-width="2.0" stroke-linecap="round"/><line x1="27.08" y1="18.45" x2="31.47" y2="15.91" stroke="#F7F4EE" stroke-width="2.0" stroke-linecap="round"/><line x1="27.08" y1="18.45" x2="22.69" y2="15.91" stroke="#F7F4EE" stroke-width="2.0" stroke-linecap="round"/><path d="M50 40.5L52.4 47.6L59.5 50L52.4 52.4L50 59.5L47.6 52.4L40.5 50L47.6 47.6Z" fill="#F7F4EE"/>
</svg>
