<svg xmlns="http://www.w3.org/2000/svg" viewBox="0 0 100 100"><rect x="0" y="0" width="100" height="100" fill="#17324D"/><circle cx="50" cy="50" r="40" fill="none" stroke="#F7F4EE" stroke-width="6"/><g transform="translate(22,24.8) scale(0.56)"><path d="M 50.0 4.0 Q 50.0 4.0 50.6 5.9 L 56.2 22.4 Q 58.5 29.0 64.4 25.2 L 80.3 15.1 Q 82.0 14.0 81.6 15.9 L 78.1 31.2 Q 76.5 38.0 82.2 39.7 L 88.1 41.4 Q 90.0 42.0 88.4 43.2 L 76.4 52.2 Q 70.0 57.0 62.9 57.8 L 56.0 58.6 Q 53.0 59.0 52.8 60.7 L 52.6 62.0 Q 52.5 63.0 52.5 64.0 L 52.0 84.5 Q 52.0 86.0 50.5 86.0 L 49.5 86.0 Q 48.0 86.0 48.0 84.5 L 47.5 64.0 Q 47.5 63.0 47.4 62.0 L 47.2 60.7 Q 47.0 59.0 44.0 58.6 L 37.1 57.8 Q 30.0 57.0 23.6 52.2 L 11.6 43.2 Q 10.0 42.0 11.9 41.4 L 17.8 39.7 Q 23.5 38.0 21.9 31.2 L 18.4 15.9 Q 18.0 14.0 19.7 15.1 L 35.6 25.2 Q 41.5 29.0 43.8 22.4 L 49.4 5.9 Q 50.0 4.0 50.0 4.0 Z" fill="#D9B36C"/></g></svg>