<svg xmlns="http://www.w3.org/2000/svg" viewBox="0 0 820 312"><rect width="820" height="312" fill="#17324D"/><text x="70" y="112" font-family="'Radio Canada','Helvetica Neue',Arial,sans-serif" font-size="34" font-weight="700" letter-spacing="4" fill="#F7F4EE">CANADA</text><text x="70" y="154" font-family="'Radio Canada','Helvetica Neue',Arial,sans-serif" font-size="34" font-weight="700" letter-spacing="4" fill="#F7F4EE">OBSERVATORY</text><rect x="70" y="174" width="80" height="4" fill="#D9B36C"/><g transform="translate(561.042,21.041) scale(1.97917)"><circle cx="50" cy="50" r="48" fill="#17324D"/><path d="M53.42 37.46L50 50" fill="none" stroke="#D9B36C" stroke-width="1.5" stroke-linejoin="round" stroke-linecap="round"/><path d="M58.7 40.34L50 50" fill="none" stroke="#D9B36C" stroke-width="1.5" stroke-linejoin="round" stroke-linecap="round"/><path d="M61.87 44.71L50 50" fill="none" stroke="#D9B36C" stroke-width="1.5" stroke-linejoin="round" stroke-linecap="round"/><path d="M62.98 50.67L50 50" fill="none" stroke="#D9B36C" stroke-width="1.5" stroke-linejoin="round" stroke-linecap="round"/><path d="M60.9 57.08L50 50" fill="none" stroke="#D9B36C" stroke-width="1.5" stroke-linejoin="round" stroke-linecap="round"/><path d="M54.71 62.11L50 50" fill="none" stroke="#D9B36C" stroke-width="1.5" stroke-linejoin="round" stroke-linecap="round"/><path d="M45.5 62.2L50 50" fill="none" stroke="#D9B36C" stroke-width="1.5" stroke-linejoin="round" stroke-linecap="round"/><path d="M39.19 57.22L50 50" fill="none" stroke="#D9B36C" stroke-width="1.5" stroke-linejoin="round" stroke-linecap="round"/><path d="M37.02 50.73L50 50" fill="none" stroke="#D9B36C" stroke-width="1.5" stroke-linejoin="round" stroke-linecap="round"/><path d="M38.15 44.66L50 50" fill="none" stroke="#D9B36C" stroke-width="1.5" stroke-linejoin="round" stroke-linecap="round"/><path d="M41.43 40.23L50 50" fill="none" stroke="#D9B36C" stroke-width="1.5" stroke-linejoin="round" stroke-linecap="round"/><path d="M46.8 37.4L50 50" fill="none" stroke="#D9B36C" stroke-width="1.5" stroke-linejoin="round" stroke-linecap="round"/><path d="M46.8 37.4L50.4 3L53.42 37.46" fill="none" stroke="#D9B36C" stroke-width="1.5" stroke-linejoin="round" stroke-linecap="round"/><path d="M53.42 37.46L64.5 24.88L58.7 40.34" fill="none" stroke="#D9B36C" stroke-width="1.5" stroke-linejoin="round" stroke-linecap="round"/><path d="M58.7 40.34L88.01 22.36L61.87 44.71" fill="none" stroke="#D9B36C" stroke-width="1.5" stroke-linejoin="round" stroke-linecap="round"/><path d="M61.87 44.71L78.36 43.95L62.98 50.67" fill="none" stroke="#D9B36C" stroke-width="1.5" stroke-linejoin="round" stroke-linecap="round"/><path d="M62.98 50.67L94.71 64.51L60.9 57.08" fill="none" stroke="#D9B36C" stroke-width="1.5" stroke-linejoin="round" stroke-linecap="round"/><path d="M60.9 57.08L69.41 71.55L54.71 62.11" fill="none" stroke="#D9B36C" stroke-width="1.5" stroke-linejoin="round" stroke-linecap="round"/><path d="M54.71 62.11L50.42 97L45.5 62.2" fill="none" stroke="#D9B36C" stroke-width="1.5" stroke-linejoin="round" stroke-linecap="round"/><path d="M45.5 62.2L30.98 71.89L39.19 57.22" fill="none" stroke="#D9B36C" stroke-width="1.5" stroke-linejoin="round" stroke-linecap="round"/><path d="M39.19 57.22L5.43 64.91L37.02 50.73" fill="none" stroke="#D9B36C" stroke-width="1.5" stroke-linejoin="round" stroke-linecap="round"/><path d="M37.02 50.73L21.64 43.95L38.15 44.66" fill="none" stroke="#D9B36C" stroke-width="1.5" stroke-linejoin="round" stroke-linecap="round"/><path d="M38.15 44.66L12.22 22.04L41.43 40.23" fill="none" stroke="#D9B36C" stroke-width="1.5" stroke-linejoin="round" stroke-linecap="round"/><path d="M41.43 40.23L35.93 24.64L46.8 37.4" fill="none" stroke="#D9B36C" stroke-width="1.5" stroke-linejoin="round" stroke-linecap="round"/></g></svg>