<svg xmlns="http://www.w3.org/2000/svg" viewBox="0 0 1584 396"><rect width="1584" height="396" fill="#17324D"/><text x="120" y="138" font-family="'Radio Canada','Helvetica Neue',Arial,sans-serif" font-size="50" font-weight="700" letter-spacing="6" fill="#F7F4EE">CANADA</text><text x="120" y="194" font-family="'Radio Canada','Helvetica Neue',Arial,sans-serif" font-size="50" font-weight="700" letter-spacing="6" fill="#F7F4EE">OBSERVATORY</text><rect x="120" y="220" width="110" height="5" fill="#D9B36C"/><g transform="translate(1244.583,34.583) scale(2.70833)"><circle cx="50" cy="50" r="48" fill="#17324D"/><path d="M50.4 3L53.42 37.46L50 50L46.8 37.4Z" fill="#C2972F" stroke="#F7F4EE" stroke-width="0.9" stroke-linejoin="round"/><path d="M64.5 24.88L58.7 40.34L50 50L53.42 37.46Z" fill="#F7F4EE" stroke="#F7F4EE" stroke-width="0.9" stroke-linejoin="round"/><path d="M88.01 22.36L61.87 44.71L50 50L58.7 40.34Z" fill="#17324D" stroke="#F7F4EE" stroke-width="0.9" stroke-linejoin="round"/><path d="M78.36 43.95L62.98 50.67L50 50L61.87 44.71Z" fill="#F7F4EE" stroke="#F7F4EE" stroke-width="0.9" stroke-linejoin="round"/><path d="M94.71 64.51L60.9 57.08L50 50L62.98 50.67Z" fill="#2A7F9E" stroke="#F7F4EE" stroke-width="0.9" stroke-linejoin="round"/><path d="M69.41 71.55L54.71 62.11L50 50L60.9 57.08Z" fill="#F7F4EE" stroke="#F7F4EE" stroke-width="0.9" stroke-linejoin="round"/><path d="M50.42 97L45.5 62.2L50 50L54.71 62.11Z" fill="#7A263A" stroke="#F7F4EE" stroke-width="0.9" stroke-linejoin="round"/><path d="M30.98 71.89L39.19 57.22L50 50L45.5 62.2Z" fill="#F7F4EE" stroke="#F7F4EE" stroke-width="0.9" stroke-linejoin="round"/><path d="M5.43 64.91L37.02 50.73L50 50L39.19 57.22Z" fill="#3F6F5E" stroke="#F7F4EE" stroke-width="0.9" stroke-linejoin="round"/><path d="M21.64 43.95L38.15 44.66L50 50L37.02 50.73Z" fill="#F7F4EE" stroke="#F7F4EE" stroke-width="0.9" stroke-linejoin="round"/><path d="M12.22 22.04L41.43 40.23L50 50L38.15 44.66Z" fill="#6B7280" stroke="#F7F4EE" stroke-width="0.9" stroke-linejoin="round"/><path d="M35.93 24.64L46.8 37.4L50 50L41.43 40.23Z" fill="#F7F4EE" stroke="#F7F4EE" stroke-width="0.9" stroke-linejoin="round"/></g></svg>