<svg xmlns="http://www.w3.org/2000/svg" viewBox="0 0 1200 630"><rect x="0" y="0" width="1200" height="630" fill="#F7F4EE"/><g fill="#17324D" transform="translate(90.0 225.0) scale(0.068 -0.068)"><path transform="translate(0.0 0)" d="M45 345Q45 429 72.5 495.0Q100 561 147.5 607.0Q195 653 256.5 677.5Q318 702 387 702Q452 702 506.5 684.5Q561 667 613 632L526 504Q495 525 459.0 538.5Q423 552 382 552Q334 552 294.5 529.0Q255 506 231.5 460.0Q208 414 208 345Q208 276 231.5 230.0Q255 184 295.0 161.0Q335 138 383 138Q424 138 459.5 153.0Q495 168 526 193L618 69Q567 29 512.0 8.5Q457 -12 389 -12Q320 -12 257.5 12.5Q195 37 147.5 83.0Q100 129 72.5 195.0Q45 261 45 345Z"/><path transform="translate(770.6 0)" d="M0 0 251 690H405L656 0H486L428 174L513 136H139L221 166L166 0ZM230 195 181 263H471L422 195L303 551H349Z"/><path transform="translate(1544.3 0)" d="M85 0V690H290L562 137L530 130V690H674V0H480L197 576L229 583V0Z"/><path transform="translate(2420.9 0)" d="M0 0 251 690H405L656 0H486L428 174L513 136H139L221 166L166 0ZM230 195 181 263H471L422 195L303 551H349Z"/><path transform="translate(3194.6 0)" d="M85 0V690H347Q441 690 516.0 649.0Q591 608 635.0 531.0Q679 454 679 345Q679 237 635.0 159.5Q591 82 516.0 41.0Q441 0 347 0ZM245 140H332Q387 140 428.5 162.5Q470 185 493.0 231.0Q516 277 516 345Q516 414 493.0 459.5Q470 505 428.5 527.5Q387 550 332 550H245Z"/><path transform="translate(4036.2 0)" d="M0 0 251 690H405L656 0H486L428 174L513 136H139L221 166L166 0ZM230 195 181 263H471L422 195L303 551H349Z"/></g><g fill="#17324D" transform="translate(90.0 310.0) scale(0.068 -0.068)"><path transform="translate(0.0 0)" d="M45 345Q45 429 70.5 495.0Q96 561 141.0 607.0Q186 653 245.5 677.5Q305 702 372 702Q440 702 499.0 677.5Q558 653 603.0 607.0Q648 561 673.5 495.0Q699 429 699 345Q699 261 673.5 195.0Q648 129 603.0 83.0Q558 37 499.0 12.5Q440 -12 373 -12Q305 -12 245.5 12.5Q186 37 141.0 83.0Q96 129 70.5 195.0Q45 261 45 345ZM208 345Q208 291 220.5 251.0Q233 211 255.0 184.0Q277 157 307.0 144.0Q337 131 372 131Q407 131 437.0 144.0Q467 157 489.0 184.0Q511 211 523.5 251.0Q536 291 536 345Q536 399 523.5 439.0Q511 479 489.0 506.0Q467 533 437.0 546.0Q407 559 372 559Q337 559 307.0 546.0Q277 533 255.0 506.0Q233 479 220.5 439.0Q208 399 208 345Z"/><path transform="translate(861.6 0)" d="M85 0V690H342Q408 690 460.5 667.5Q513 645 543.5 604.0Q574 563 574 505Q574 456 552.0 420.5Q530 385 492 363Q545 339 574.5 294.5Q604 250 604 190Q604 131 572.5 88.0Q541 45 487.5 22.5Q434 0 367 0ZM245 134H352Q392 134 416.5 153.5Q441 173 441 211Q441 249 416.5 268.5Q392 288 352 288H245ZM245 412H332Q370 412 393.0 430.5Q416 449 416 484Q416 519 393.0 537.5Q370 556 332 556H245Z"/><path transform="translate(1633.3 0)" d="M35 74 111 207Q155 171 213.0 148.5Q271 126 326 126Q359 126 381.5 134.0Q404 142 416.0 155.0Q428 168 428 184Q428 198 417.5 213.0Q407 228 379.5 244.0Q352 260 299 277Q217 304 166.5 338.5Q116 373 93.0 414.0Q70 455 70 500Q70 555 99.5 601.0Q129 647 187.0 674.5Q245 702 330 702Q398 702 465.5 680.5Q533 659 579 627L508 500Q467 529 418.0 547.5Q369 566 317 566Q275 566 253.0 550.0Q231 534 231 513Q231 498 242.5 484.0Q254 470 281.5 456.0Q309 442 356 426Q441 398 493.0 363.5Q545 329 569.0 287.5Q593 246 593 195Q593 140 562.0 93.0Q531 46 468.0 17.0Q405 -12 309 -12Q262 -12 215.0 -1.5Q168 9 123.0 28.0Q78 47 35 74Z"/><path transform="translate(2388.9 0)" d="M85 0V690H570V550H245V414H523V282H245V140H575V0Z"/><path transform="translate(3141.6 0)" d="M85 0V690H347Q420 690 478.0 662.5Q536 635 570.0 583.5Q604 532 604 460Q604 389 567.5 339.0Q531 289 471 263L624 0H447L322 240H245V0ZM245 370H332Q381 370 411.0 392.0Q441 414 441 460Q441 506 411.0 528.0Q381 550 332 550H245Z"/><path transform="translate(3918.2 0)" d="M0 690H170L330 207L490 690H656L405 0H251Z"/><path transform="translate(4691.9 0)" d="M0 0 251 690H405L656 0H486L428 174L513 136H139L221 166L166 0ZM230 195 181 263H471L422 195L303 551H349Z"/><path transform="translate(5465.5 0)" d="M25 550V690H561V550H373V0H213V550Z"/><path transform="translate(6169.2 0)" d="M45 345Q45 429 70.5 495.0Q96 561 141.0 607.0Q186 653 245.5 677.5Q305 702 372 702Q440 702 499.0 677.5Q558 653 603.0 607.0Q648 561 673.5 495.0Q699 429 699 345Q699 261 673.5 195.0Q648 129 603.0 83.0Q558 37 499.0 12.5Q440 -12 373 -12Q305 -12 245.5 12.5Q186 37 141.0 83.0Q96 129 70.5 195.0Q45 261 45 345ZM208 345Q208 291 220.5 251.0Q233 211 255.0 184.0Q277 157 307.0 144.0Q337 131 372 131Q407 131 437.0 144.0Q467 157 489.0 184.0Q511 211 523.5 251.0Q536 291 536 345Q536 399 523.5 439.0Q511 479 489.0 506.0Q467 533 437.0 546.0Q407 559 372 559Q337 559 307.0 546.0Q277 533 255.0 506.0Q233 479 220.5 439.0Q208 399 208 345Z"/><path transform="translate(7030.8 0)" d="M85 0V690H347Q420 690 478.0 662.5Q536 635 570.0 583.5Q604 532 604 460Q604 389 567.5 339.0Q531 289 471 263L624 0H447L322 240H245V0ZM245 370H332Q381 370 411.0 392.0Q441 414 441 460Q441 506 411.0 528.0Q381 550 332 550H245Z"/><path transform="translate(7807.5 0)" d="M0 690H184L365 365H295L476 690H656L408 281V0H248V281Z"/></g><rect x="90" y="350" width="140" height="6" fill="#C2972F"/><g fill="#6B7280" transform="translate(90.0 415.0) scale(0.026 -0.026)"><path transform="translate(0.0 0)" d="M100 0V690H323Q412 690 484.0 650.0Q556 610 598.5 533.0Q641 456 641 345Q641 234 598.5 157.0Q556 80 484.0 40.0Q412 0 323 0ZM196 86H318Q382 86 432.5 116.0Q483 146 512.5 204.0Q542 262 542 345Q542 428 512.5 486.0Q483 544 432.5 574.0Q382 604 318 604H196Z"/><path transform="translate(701.0 0)" d="M60 132Q60 177 84.0 215.0Q108 253 163.0 278.0Q218 303 311 306L366 308V314Q366 380 335.0 408.5Q304 437 249 437Q209 437 175.0 425.0Q141 413 107 394L75 472Q110 494 161.0 509.5Q212 525 258 525Q315 525 360.0 503.0Q405 481 431.5 436.5Q458 392 458 325V122Q458 101 459.5 83.5Q461 66 465 44L473 0H387L372 73Q342 37 297.5 13.5Q253 -10 202 -10Q165 -10 132.5 7.0Q100 24 80.0 56.0Q60 88 60 132ZM154 140Q154 109 172.5 91.5Q191 74 222 74Q260 74 296.5 92.0Q333 110 366 141V242L315 237Q250 231 215.0 216.0Q180 201 167.0 181.5Q154 162 154 140Z"/><path transform="translate(1244.0 0)" d="M20 435V515H110V634L202 654V515H354V435H202V156Q202 116 221.0 94.5Q240 73 280 73Q297 73 314.5 77.5Q332 82 353 90L369 11Q345 2 318.0 -4.0Q291 -10 264 -10Q222 -10 187.0 9.0Q152 28 131.0 64.0Q110 100 110 152V435Z"/><path transform="translate(1638.0 0)" d="M60 132Q60 177 84.0 215.0Q108 253 163.0 278.0Q218 303 311 306L366 308V314Q366 380 335.0 408.5Q304 437 249 437Q209 437 175.0 425.0Q141 413 107 394L75 472Q110 494 161.0 509.5Q212 525 258 525Q315 525 360.0 503.0Q405 481 431.5 436.5Q458 392 458 325V122Q458 101 459.5 83.5Q461 66 465 44L473 0H387L372 73Q342 37 297.5 13.5Q253 -10 202 -10Q165 -10 132.5 7.0Q100 24 80.0 56.0Q60 88 60 132ZM154 140Q154 109 172.5 91.5Q191 74 222 74Q260 74 296.5 92.0Q333 110 366 141V242L315 237Q250 231 215.0 216.0Q180 201 167.0 181.5Q154 162 154 140Z"/><path transform="translate(2431.0 0)" d="M60 132Q60 177 84.0 215.0Q108 253 163.0 278.0Q218 303 311 306L366 308V314Q366 380 335.0 408.5Q304 437 249 437Q209 437 175.0 425.0Q141 413 107 394L75 472Q110 494 161.0 509.5Q212 525 258 525Q315 525 360.0 503.0Q405 481 431.5 436.5Q458 392 458 325V122Q458 101 459.5 83.5Q461 66 465 44L473 0H387L372 73Q342 37 297.5 13.5Q253 -10 202 -10Q165 -10 132.5 7.0Q100 24 80.0 56.0Q60 88 60 132ZM154 140Q154 109 172.5 91.5Q191 74 222 74Q260 74 296.5 92.0Q333 110 366 141V242L315 237Q250 231 215.0 216.0Q180 201 167.0 181.5Q154 162 154 140Z"/><path transform="translate(2974.0 0)" d="M75 515H161L176 441Q209 479 251.5 502.0Q294 525 340 525Q391 525 431.5 502.0Q472 479 495.5 433.0Q519 387 519 316V0H427V304Q427 351 412.5 380.5Q398 410 373.0 424.0Q348 438 316 438Q281 438 247.0 421.0Q213 404 182 374V0H90V393Q90 414 88.5 431.5Q87 449 83 471Z"/><path transform="translate(3578.0 0)" d="M55 253Q55 338 81.5 399.0Q108 460 155.5 492.5Q203 525 267 525Q305 525 342.0 507.5Q379 490 404 452V715L496 735V122Q496 101 497.5 83.5Q499 66 503 44L511 0H425L410 74Q377 37 335.0 13.5Q293 -10 247 -10Q195 -10 151.0 21.5Q107 53 81.0 112.0Q55 171 55 253ZM149 256Q149 198 165.0 157.5Q181 117 209.0 96.0Q237 75 272 75Q307 75 340.5 92.5Q374 110 404 141V283Q404 341 386.5 377.0Q369 413 341.0 430.5Q313 448 283 448Q221 448 185.0 394.5Q149 341 149 256Z"/><path transform="translate(4414.0 0)" d="M55 252Q55 337 88.5 398.0Q122 459 179.0 492.0Q236 525 306 525Q350 525 393.5 508.5Q437 492 467 460L411 393Q392 415 364.5 428.0Q337 441 302 441Q261 441 226.0 419.0Q191 397 170.0 354.5Q149 312 149 252Q149 192 169.5 152.5Q190 113 224.0 93.5Q258 74 297 74Q336 74 366.0 87.5Q396 101 416 122L469 55Q439 24 394.0 7.0Q349 -10 301 -10Q231 -10 175.5 19.0Q120 48 87.5 106.5Q55 165 55 252Z"/><path transform="translate(4918.0 0)" d="M90 0V715L182 735V448Q214 483 254.5 504.0Q295 525 340 525Q391 525 431.5 502.0Q472 479 495.5 433.0Q519 387 519 316V0H427V304Q427 374 395.5 406.0Q364 438 316 438Q281 438 247.0 422.0Q213 406 182 377V0Z"/><path transform="translate(5522.0 0)" d="M60 132Q60 177 84.0 215.0Q108 253 163.0 278.0Q218 303 311 306L366 308V314Q366 380 335.0 408.5Q304 437 249 437Q209 437 175.0 425.0Q141 413 107 394L75 472Q110 494 161.0 509.5Q212 525 258 525Q315 525 360.0 503.0Q405 481 431.5 436.5Q458 392 458 325V122Q458 101 459.5 83.5Q461 66 465 44L473 0H387L372 73Q342 37 297.5 13.5Q253 -10 202 -10Q165 -10 132.5 7.0Q100 24 80.0 56.0Q60 88 60 132ZM154 140Q154 109 172.5 91.5Q191 74 222 74Q260 74 296.5 92.0Q333 110 366 141V242L315 237Q250 231 215.0 216.0Q180 201 167.0 181.5Q154 162 154 140Z"/><path transform="translate(6065.0 0)" d="M75 515H161L178 433Q207 476 249.5 500.5Q292 525 345 525V426Q292 424 251.0 407.5Q210 391 182 362V0H90V393Q90 414 88.5 431.5Q87 449 83 471Z"/><path transform="translate(6435.0 0)" d="M20 435V515H110V634L202 654V515H354V435H202V156Q202 116 221.0 94.5Q240 73 280 73Q297 73 314.5 77.5Q332 82 353 90L369 11Q345 2 318.0 -4.0Q291 -10 264 -10Q222 -10 187.0 9.0Q152 28 131.0 64.0Q110 100 110 152V435Z"/><path transform="translate(6829.0 0)" d="M50 61 104 123Q131 101 167.5 84.0Q204 67 253 67Q304 67 329.0 84.0Q354 101 354 129Q354 147 343.5 162.5Q333 178 306.5 192.5Q280 207 232 221Q144 248 106.0 287.5Q68 327 68 380Q68 422 92.5 454.5Q117 487 160.0 506.0Q203 525 258 525Q301 525 346.5 510.5Q392 496 427 467L376 401Q352 421 319.5 434.5Q287 448 249 448Q203 448 179.5 431.0Q156 414 156 390Q156 371 166.5 357.5Q177 344 203.5 332.0Q230 320 277 306Q343 287 379.5 261.5Q416 236 431.0 206.0Q446 176 446 140Q446 97 421.0 63.0Q396 29 351.0 9.5Q306 -10 245 -10Q187 -10 136.0 10.0Q85 30 50 61Z"/><path transform="translate(7580.0 0)" d="M20 435V515H110V557Q110 612 132.0 650.5Q154 689 191.0 709.5Q228 730 272 730Q303 730 330.0 724.0Q357 718 381 707L363 633Q342 642 323.0 646.5Q304 651 285 651Q243 651 222.5 624.5Q202 598 202 554V515H354V435H202V0H110V435Z"/><path transform="translate(7941.0 0)" d="M55 257Q55 344 85.0 403.5Q115 463 167.0 494.0Q219 525 286 525Q353 525 405.0 494.0Q457 463 487.0 403.5Q517 344 517 257Q517 171 487.0 111.0Q457 51 405.0 20.5Q353 -10 286 -10Q219 -10 167.0 20.5Q115 51 85.0 111.0Q55 171 55 257ZM149 257Q149 197 165.5 155.5Q182 114 212.5 92.5Q243 71 286 71Q329 71 359.5 92.5Q390 114 406.5 155.5Q423 197 423 257Q423 317 406.5 358.5Q390 400 359.5 422.0Q329 444 286 444Q243 444 212.5 422.0Q182 400 165.5 358.5Q149 317 149 257Z"/><path transform="translate(8513.0 0)" d="M75 515H161L178 433Q207 476 249.5 500.5Q292 525 345 525V426Q292 424 251.0 407.5Q210 391 182 362V0H90V393Q90 414 88.5 431.5Q87 449 83 471Z"/><path transform="translate(9133.0 0)" d="M90 0V515H182V0ZM75 667Q75 694 92.5 712.0Q110 730 136 730Q164 730 180.5 712.0Q197 694 197 667Q197 641 180.5 623.0Q164 605 136 605Q110 605 92.5 623.0Q75 641 75 667Z"/><path transform="translate(9405.0 0)" d="M75 515H161L176 441Q209 479 251.5 502.0Q294 525 340 525Q391 525 431.5 502.0Q472 479 495.5 433.0Q519 387 519 316V0H427V304Q427 351 412.5 380.5Q398 410 373.0 424.0Q348 438 316 438Q281 438 247.0 421.0Q213 404 182 374V0H90V393Q90 414 88.5 431.5Q87 449 83 471Z"/><path transform="translate(10009.0 0)" d="M20 435V515H110V557Q110 612 132.0 650.5Q154 689 191.0 709.5Q228 730 272 730Q303 730 330.0 724.0Q357 718 381 707L363 633Q342 642 323.0 646.5Q304 651 285 651Q243 651 222.5 624.5Q202 598 202 554V515H354V435H202V0H110V435Z"/><path transform="translate(10370.0 0)" d="M55 257Q55 344 85.0 403.5Q115 463 167.0 494.0Q219 525 286 525Q353 525 405.0 494.0Q457 463 487.0 403.5Q517 344 517 257Q517 171 487.0 111.0Q457 51 405.0 20.5Q353 -10 286 -10Q219 -10 167.0 20.5Q115 51 85.0 111.0Q55 171 55 257ZM149 257Q149 197 165.5 155.5Q182 114 212.5 92.5Q243 71 286 71Q329 71 359.5 92.5Q390 114 406.5 155.5Q423 197 423 257Q423 317 406.5 358.5Q390 400 359.5 422.0Q329 444 286 444Q243 444 212.5 422.0Q182 400 165.5 358.5Q149 317 149 257Z"/><path transform="translate(10942.0 0)" d="M75 515H161L178 433Q207 476 249.5 500.5Q292 525 345 525V426Q292 424 251.0 407.5Q210 391 182 362V0H90V393Q90 414 88.5 431.5Q87 449 83 471Z"/><path transform="translate(11312.0 0)" d="M75 515H161L176 442Q206 480 245.5 502.5Q285 525 331 525Q375 525 412.0 503.0Q449 481 469 434Q501 475 543.5 500.0Q586 525 638 525Q682 525 717.5 503.5Q753 482 774.5 438.0Q796 394 796 325V0H704V313Q704 381 676.0 409.5Q648 438 606 438Q575 438 544.5 421.0Q514 404 486 372Q488 362 488.5 350.0Q489 338 489 325V0H397V313Q397 381 369.0 409.5Q341 438 299 438Q268 438 238.5 421.5Q209 405 182 376V0H90V393Q90 414 88.5 431.5Q87 449 83 471Z"/><path transform="translate(12193.0 0)" d="M55 252Q55 342 86.0 403.0Q117 464 169.0 494.5Q221 525 285 525Q344 525 392.5 496.5Q441 468 469.5 410.5Q498 353 498 267Q498 258 497.5 248.5Q497 239 496 230H134V304H426L408 267Q408 363 371.5 403.5Q335 444 284 444Q244 444 213.5 422.5Q183 401 166.0 358.5Q149 316 149 252Q149 193 170.5 153.5Q192 114 228.0 94.0Q264 74 309 74Q345 74 375.0 86.0Q405 98 428 116L471 43Q437 15 394.5 2.5Q352 -10 306 -10Q234 -10 177.5 19.0Q121 48 88.0 106.5Q55 165 55 252Z"/><path transform="translate(12746.0 0)" d="M55 253Q55 338 81.5 399.0Q108 460 155.5 492.5Q203 525 267 525Q305 525 342.0 507.5Q379 490 404 452V715L496 735V122Q496 101 497.5 83.5Q499 66 503 44L511 0H425L410 74Q377 37 335.0 13.5Q293 -10 247 -10Q195 -10 151.0 21.5Q107 53 81.0 112.0Q55 171 55 253ZM149 256Q149 198 165.0 157.5Q181 117 209.0 96.0Q237 75 272 75Q307 75 340.5 92.5Q374 110 404 141V283Q404 341 386.5 377.0Q369 413 341.0 430.5Q313 448 283 448Q221 448 185.0 394.5Q149 341 149 256Z"/><path transform="translate(13582.0 0)" d="M55 252Q55 337 88.5 398.0Q122 459 179.0 492.0Q236 525 306 525Q350 525 393.5 508.5Q437 492 467 460L411 393Q392 415 364.5 428.0Q337 441 302 441Q261 441 226.0 419.0Q191 397 170.0 354.5Q149 312 149 252Q149 192 169.5 152.5Q190 113 224.0 93.5Q258 74 297 74Q336 74 366.0 87.5Q396 101 416 122L469 55Q439 24 394.0 7.0Q349 -10 301 -10Q231 -10 175.5 19.0Q120 48 87.5 106.5Q55 165 55 252Z"/><path transform="translate(14086.0 0)" d="M90 0V515H182V0ZM75 667Q75 694 92.5 712.0Q110 730 136 730Q164 730 180.5 712.0Q197 694 197 667Q197 641 180.5 623.0Q164 605 136 605Q110 605 92.5 623.0Q75 641 75 667Z"/><path transform="translate(14358.0 0)" d="M10 515H109L266 85H236L391 515H486L284 0H212Z"/><path transform="translate(14854.0 0)" d="M90 0V515H182V0ZM75 667Q75 694 92.5 712.0Q110 730 136 730Q164 730 180.5 712.0Q197 694 197 667Q197 641 180.5 623.0Q164 605 136 605Q110 605 92.5 623.0Q75 641 75 667Z"/><path transform="translate(15126.0 0)" d="M55 252Q55 337 88.5 398.0Q122 459 179.0 492.0Q236 525 306 525Q350 525 393.5 508.5Q437 492 467 460L411 393Q392 415 364.5 428.0Q337 441 302 441Q261 441 226.0 419.0Q191 397 170.0 354.5Q149 312 149 252Q149 192 169.5 152.5Q190 113 224.0 93.5Q258 74 297 74Q336 74 366.0 87.5Q396 101 416 122L469 55Q439 24 394.0 7.0Q349 -10 301 -10Q231 -10 175.5 19.0Q120 48 87.5 106.5Q55 165 55 252Z"/><path transform="translate(15880.0 0)" d="M55 252Q55 337 88.5 398.0Q122 459 179.0 492.0Q236 525 306 525Q350 525 393.5 508.5Q437 492 467 460L411 393Q392 415 364.5 428.0Q337 441 302 441Q261 441 226.0 419.0Q191 397 170.0 354.5Q149 312 149 252Q149 192 169.5 152.5Q190 113 224.0 93.5Q258 74 297 74Q336 74 366.0 87.5Q396 101 416 122L469 55Q439 24 394.0 7.0Q349 -10 301 -10Q231 -10 175.5 19.0Q120 48 87.5 106.5Q55 165 55 252Z"/><path transform="translate(16384.0 0)" d="M55 257Q55 344 85.0 403.5Q115 463 167.0 494.0Q219 525 286 525Q353 525 405.0 494.0Q457 463 487.0 403.5Q517 344 517 257Q517 171 487.0 111.0Q457 51 405.0 20.5Q353 -10 286 -10Q219 -10 167.0 20.5Q115 51 85.0 111.0Q55 171 55 257ZM149 257Q149 197 165.5 155.5Q182 114 212.5 92.5Q243 71 286 71Q329 71 359.5 92.5Q390 114 406.5 155.5Q423 197 423 257Q423 317 406.5 358.5Q390 400 359.5 422.0Q329 444 286 444Q243 444 212.5 422.0Q182 400 165.5 358.5Q149 317 149 257Z"/><path transform="translate(16956.0 0)" d="M75 515H161L176 441Q209 479 251.5 502.0Q294 525 340 525Q391 525 431.5 502.0Q472 479 495.5 433.0Q519 387 519 316V0H427V304Q427 351 412.5 380.5Q398 410 373.0 424.0Q348 438 316 438Q281 438 247.0 421.0Q213 404 182 374V0H90V393Q90 414 88.5 431.5Q87 449 83 471Z"/><path transform="translate(17560.0 0)" d="M10 515H109L266 85H236L391 515H486L284 0H212Z"/><path transform="translate(18056.0 0)" d="M55 252Q55 342 86.0 403.0Q117 464 169.0 494.5Q221 525 285 525Q344 525 392.5 496.5Q441 468 469.5 410.5Q498 353 498 267Q498 258 497.5 248.5Q497 239 496 230H134V304H426L408 267Q408 363 371.5 403.5Q335 444 284 444Q244 444 213.5 422.5Q183 401 166.0 358.5Q149 316 149 252Q149 193 170.5 153.5Q192 114 228.0 94.0Q264 74 309 74Q345 74 375.0 86.0Q405 98 428 116L471 43Q437 15 394.5 2.5Q352 -10 306 -10Q234 -10 177.5 19.0Q121 48 88.0 106.5Q55 165 55 252Z"/><path transform="translate(18609.0 0)" d="M75 515H161L178 433Q207 476 249.5 500.5Q292 525 345 525V426Q292 424 251.0 407.5Q210 391 182 362V0H90V393Q90 414 88.5 431.5Q87 449 83 471Z"/><path transform="translate(18979.0 0)" d="M50 61 104 123Q131 101 167.5 84.0Q204 67 253 67Q304 67 329.0 84.0Q354 101 354 129Q354 147 343.5 162.5Q333 178 306.5 192.5Q280 207 232 221Q144 248 106.0 287.5Q68 327 68 380Q68 422 92.5 454.5Q117 487 160.0 506.0Q203 525 258 525Q301 525 346.5 510.5Q392 496 427 467L376 401Q352 421 319.5 434.5Q287 448 249 448Q203 448 179.5 431.0Q156 414 156 390Q156 371 166.5 357.5Q177 344 203.5 332.0Q230 320 277 306Q343 287 379.5 261.5Q416 236 431.0 206.0Q446 176 446 140Q446 97 421.0 63.0Q396 29 351.0 9.5Q306 -10 245 -10Q187 -10 136.0 10.0Q85 30 50 61Z"/><path transform="translate(19480.0 0)" d="M60 132Q60 177 84.0 215.0Q108 253 163.0 278.0Q218 303 311 306L366 308V314Q366 380 335.0 408.5Q304 437 249 437Q209 437 175.0 425.0Q141 413 107 394L75 472Q110 494 161.0 509.5Q212 525 258 525Q315 525 360.0 503.0Q405 481 431.5 436.5Q458 392 458 325V122Q458 101 459.5 83.5Q461 66 465 44L473 0H387L372 73Q342 37 297.5 13.5Q253 -10 202 -10Q165 -10 132.5 7.0Q100 24 80.0 56.0Q60 88 60 132ZM154 140Q154 109 172.5 91.5Q191 74 222 74Q260 74 296.5 92.0Q333 110 366 141V242L315 237Q250 231 215.0 216.0Q180 201 167.0 181.5Q154 162 154 140Z"/><path transform="translate(20023.0 0)" d="M20 435V515H110V634L202 654V515H354V435H202V156Q202 116 221.0 94.5Q240 73 280 73Q297 73 314.5 77.5Q332 82 353 90L369 11Q345 2 318.0 -4.0Q291 -10 264 -10Q222 -10 187.0 9.0Q152 28 131.0 64.0Q110 100 110 152V435Z"/><path transform="translate(20417.0 0)" d="M90 0V515H182V0ZM75 667Q75 694 92.5 712.0Q110 730 136 730Q164 730 180.5 712.0Q197 694 197 667Q197 641 180.5 623.0Q164 605 136 605Q110 605 92.5 623.0Q75 641 75 667Z"/><path transform="translate(20689.0 0)" d="M55 257Q55 344 85.0 403.5Q115 463 167.0 494.0Q219 525 286 525Q353 525 405.0 494.0Q457 463 487.0 403.5Q517 344 517 257Q517 171 487.0 111.0Q457 51 405.0 20.5Q353 -10 286 -10Q219 -10 167.0 20.5Q115 51 85.0 111.0Q55 171 55 257ZM149 257Q149 197 165.5 155.5Q182 114 212.5 92.5Q243 71 286 71Q329 71 359.5 92.5Q390 114 406.5 155.5Q423 197 423 257Q423 317 406.5 358.5Q390 400 359.5 422.0Q329 444 286 444Q243 444 212.5 422.0Q182 400 165.5 358.5Q149 317 149 257Z"/><path transform="translate(21261.0 0)" d="M75 515H161L176 441Q209 479 251.5 502.0Q294 525 340 525Q391 525 431.5 502.0Q472 479 495.5 433.0Q519 387 519 316V0H427V304Q427 351 412.5 380.5Q398 410 373.0 424.0Q348 438 316 438Q281 438 247.0 421.0Q213 404 182 374V0H90V393Q90 414 88.5 431.5Q87 449 83 471Z"/><path transform="translate(21865.0 0)" d="M50 61 104 123Q131 101 167.5 84.0Q204 67 253 67Q304 67 329.0 84.0Q354 101 354 129Q354 147 343.5 162.5Q333 178 306.5 192.5Q280 207 232 221Q144 248 106.0 287.5Q68 327 68 380Q68 422 92.5 454.5Q117 487 160.0 506.0Q203 525 258 525Q301 525 346.5 510.5Q392 496 427 467L376 401Q352 421 319.5 434.5Q287 448 249 448Q203 448 179.5 431.0Q156 414 156 390Q156 371 166.5 357.5Q177 344 203.5 332.0Q230 320 277 306Q343 287 379.5 261.5Q416 236 431.0 206.0Q446 176 446 140Q446 97 421.0 63.0Q396 29 351.0 9.5Q306 -10 245 -10Q187 -10 136.0 10.0Q85 30 50 61Z"/></g><g transform="translate(690,55) scale(5.4)"><defs><path id="ogl" d="M 50.0 4.0 Q 50.0 4.0 50.4 5.1 L 51.9 9.2 Q 53.2 13.0 55.0 11.5 L 56.6 10.3 Q 57.5 9.5 57.6 10.7 L 57.9 15.0 Q 58.2 19.0 60.4 17.5 L 62.5 16.2 Q 63.5 15.5 63.3 16.7 L 61.7 26.1 Q 60.5 33.0 64.5 29.6 L 69.1 25.8 Q 70.0 25.0 70.3 26.1 L 70.9 27.9 Q 71.5 30.0 74.2 27.0 L 82.2 17.9 Q 83.0 17.0 83.1 18.2 L 83.6 22.2 Q 84.0 26.0 86.1 25.6 L 87.8 25.2 Q 89.0 25.0 88.4 26.0 L 83.2 34.1 Q 79.5 40.0 83.9 41.3 L 88.8 42.7 Q 90.0 43.0 89.3 44.0 L 86.8 47.6 Q 84.5 51.0 85.1 51.8 L 85.4 52.2 Q 86.0 53.0 84.9 53.3 L 73.7 56.7 Q 66.0 59.0 60.1 59.4 L 54.0 59.9 Q 52.0 60.0 51.7 61.3 L 51.4 62.2 Q 51.2 63.0 51.2 63.8 L 50.8 87.2 Q 50.8 88.0 50.1 88.0 L 49.9 88.0 Q 49.2 88.0 49.2 87.2 L 48.8 63.8 Q 48.8 63.0 48.6 62.2 L 48.3 61.3 Q 48.0 60.0 46.0 59.9 L 39.9 59.4 Q 34.0 59.0 26.3 56.7 L 15.1 53.3 Q 14.0 53.0 14.6 52.2 L 14.9 51.8 Q 15.5 51.0 13.2 47.6 L 10.7 44.0 Q 10.0 43.0 11.2 42.7 L 16.1 41.3 Q 20.5 40.0 16.8 34.1 L 11.6 26.0 Q 11.0 25.0 12.2 25.2 L 13.9 25.6 Q 16.0 26.0 16.4 22.2 L 16.9 18.2 Q 17.0 17.0 17.8 17.9 L 25.8 27.0 Q 28.5 30.0 29.1 27.9 L 29.7 26.1 Q 30.0 25.0 30.9 25.8 L 35.5 29.6 Q 39.5 33.0 38.3 26.1 L 36.7 16.7 Q 36.5 15.5 37.5 16.2 L 39.6 17.5 Q 41.8 19.0 42.1 15.0 L 42.4 10.7 Q 42.5 9.5 43.4 10.3 L 45.0 11.5 Q 46.8 13.0 48.1 9.2 L 49.6 5.1 Q 50.0 4.0 50.0 4.0 Z"/><clipPath id="ogc"><use href="#ogl"/></clipPath></defs><g clip-path="url(#ogc)"><rect x="0" y="0" width="100" height="100" fill="#F7F4EE"/><rect x="0" y="4" width="100" height="8.4" fill="#17324D"/><rect x="0" y="13.4" width="100" height="8.4" fill="#2A7F9E"/><rect x="0" y="22.8" width="100" height="8.4" fill="#3F6F5E"/><rect x="0" y="32.2" width="100" height="8.4" fill="#C2972F"/><rect x="0" y="41.6" width="100" height="8.4" fill="#7A263A"/><rect x="0" y="51" width="100" height="41" fill="#6B7280"/></g></g></svg>