<svg xmlns="http://www.w3.org/2000/svg" viewBox="0 0 1500 500"><rect width="1500" height="500" fill="#17324D"/><g opacity="0.5"><circle cx="806" cy="150" r="3" fill="#F7F4EE" opacity="0.85"/><circle cx="700" cy="186" r="2.4" fill="#F7F4EE" opacity="0.85"/><circle cx="946" cy="232" r="2.4" fill="#F7F4EE" opacity="0.85"/><circle cx="1064" cy="120" r="3" fill="#F7F4EE" opacity="0.85"/><g transform="translate(724.29,232.29) scale(0.3542)"><path d="M53.42 37.46L50 50" fill="none" stroke="#F7F4EE" stroke-width="0.8" vector-effect="non-scaling-stroke" stroke-linejoin="miter" stroke-miterlimit="20" stroke-linecap="butt"/><path d="M58.7 40.34L50 50" fill="none" stroke="#F7F4EE" stroke-width="0.8" vector-effect="non-scaling-stroke" stroke-linejoin="miter" stroke-miterlimit="20" stroke-linecap="butt"/><path d="M61.87 44.71L50 50" fill="none" stroke="#F7F4EE" stroke-width="0.8" vector-effect="non-scaling-stroke" stroke-linejoin="miter" stroke-miterlimit="20" stroke-linecap="butt"/><path d="M62.98 50.67L50 50" fill="none" stroke="#F7F4EE" stroke-width="0.8" vector-effect="non-scaling-stroke" stroke-linejoin="miter" stroke-miterlimit="20" stroke-linecap="butt"/><path d="M60.9 57.08L50 50" fill="none" stroke="#F7F4EE" stroke-width="0.8" vector-effect="non-scaling-stroke" stroke-linejoin="miter" stroke-miterlimit="20" stroke-linecap="butt"/><path d="M54.71 62.11L50 50" fill="none" stroke="#F7F4EE" stroke-width="0.8" vector-effect="non-scaling-stroke" stroke-linejoin="miter" stroke-miterlimit="20" stroke-linecap="butt"/><path d="M45.5 62.2L50 50" fill="none" stroke="#F7F4EE" stroke-width="0.8" vector-effect="non-scaling-stroke" stroke-linejoin="miter" stroke-miterlimit="20" stroke-linecap="butt"/><path d="M39.19 57.22L50 50" fill="none" stroke="#F7F4EE" stroke-width="0.8" vector-effect="non-scaling-stroke" stroke-linejoin="miter" stroke-miterlimit="20" stroke-linecap="butt"/><path d="M37.02 50.73L50 50" fill="none" stroke="#F7F4EE" stroke-width="0.8" vector-effect="non-scaling-stroke" stroke-linejoin="miter" stroke-miterlimit="20" stroke-linecap="butt"/><path d="M38.15 44.66L50 50" fill="none" stroke="#F7F4EE" stroke-width="0.8" vector-effect="non-scaling-stroke" stroke-linejoin="miter" stroke-miterlimit="20" stroke-linecap="butt"/><path d="M41.43 40.23L50 50" fill="none" stroke="#F7F4EE" stroke-width="0.8" vector-effect="non-scaling-stroke" stroke-linejoin="miter" stroke-miterlimit="20" stroke-linecap="butt"/><path d="M46.8 37.4L50 50" fill="none" stroke="#F7F4EE" stroke-width="0.8" vector-effect="non-scaling-stroke" stroke-linejoin="miter" stroke-miterlimit="20" stroke-linecap="butt"/><path d="M46.8 37.4L50.4 3L53.42 37.46" fill="none" stroke="#F7F4EE" stroke-width="0.8" vector-effect="non-scaling-stroke" stroke-linejoin="miter" stroke-miterlimit="20" stroke-linecap="butt"/><path d="M53.42 37.46L64.5 24.88L58.7 40.34" fill="none" stroke="#F7F4EE" stroke-width="0.8" vector-effect="non-scaling-stroke" stroke-linejoin="miter" stroke-miterlimit="20" stroke-linecap="butt"/><path d="M58.7 40.34L88.01 22.36L61.87 44.71" fill="none" stroke="#F7F4EE" stroke-width="0.8" vector-effect="non-scaling-stroke" stroke-linejoin="miter" stroke-miterlimit="20" stroke-linecap="butt"/><path d="M61.87 44.71L78.36 43.95L62.98 50.67" fill="none" stroke="#F7F4EE" stroke-width="0.8" vector-effect="non-scaling-stroke" stroke-linejoin="miter" stroke-miterlimit="20" stroke-linecap="butt"/><path d="M62.98 50.67L94.71 64.51L60.9 57.08" fill="none" stroke="#F7F4EE" stroke-width="0.8" vector-effect="non-scaling-stroke" stroke-linejoin="miter" stroke-miterlimit="20" stroke-linecap="butt"/><path d="M60.9 57.08L69.41 71.55L54.71 62.11" fill="none" stroke="#F7F4EE" stroke-width="0.8" vector-effect="non-scaling-stroke" stroke-linejoin="miter" stroke-miterlimit="20" stroke-linecap="butt"/><path d="M54.71 62.11L50.42 97L45.5 62.2" fill="none" stroke="#F7F4EE" stroke-width="0.8" vector-effect="non-scaling-stroke" stroke-linejoin="miter" stroke-miterlimit="20" stroke-linecap="butt"/><path d="M45.5 62.2L30.98 71.89L39.19 57.22" fill="none" stroke="#F7F4EE" stroke-width="0.8" vector-effect="non-scaling-stroke" stroke-linejoin="miter" stroke-miterlimit="20" stroke-linecap="butt"/><path d="M39.19 57.22L5.43 64.91L37.02 50.73" fill="none" stroke="#F7F4EE" stroke-width="0.8" vector-effect="non-scaling-stroke" stroke-linejoin="miter" stroke-miterlimit="20" stroke-linecap="butt"/><path d="M37.02 50.73L21.64 43.95L38.15 44.66" fill="none" stroke="#F7F4EE" stroke-width="0.8" vector-effect="non-scaling-stroke" stroke-linejoin="miter" stroke-miterlimit="20" stroke-linecap="butt"/><path d="M38.15 44.66L12.22 22.04L41.43 40.23" fill="none" stroke="#F7F4EE" stroke-width="0.8" vector-effect="non-scaling-stroke" stroke-linejoin="miter" stroke-miterlimit="20" stroke-linecap="butt"/><path d="M41.43 40.23L35.93 24.64L46.8 37.4" fill="none" stroke="#F7F4EE" stroke-width="0.8" vector-effect="non-scaling-stroke" stroke-linejoin="miter" stroke-miterlimit="20" stroke-linecap="butt"/></g><circle cx="742" cy="250" r="2.13" fill="#F7F4EE"/><g transform="translate(853.88,147.88) scale(0.5625)"><path d="M53.42 37.46L50 50" fill="none" stroke="#F7F4EE" stroke-width="0.8" vector-effect="non-scaling-stroke" stroke-linejoin="miter" stroke-miterlimit="20" stroke-linecap="butt"/><path d="M58.7 40.34L50 50" fill="none" stroke="#F7F4EE" stroke-width="0.8" vector-effect="non-scaling-stroke" stroke-linejoin="miter" stroke-miterlimit="20" stroke-linecap="butt"/><path d="M61.87 44.71L50 50" fill="none" stroke="#F7F4EE" stroke-width="0.8" vector-effect="non-scaling-stroke" stroke-linejoin="miter" stroke-miterlimit="20" stroke-linecap="butt"/><path d="M62.98 50.67L50 50" fill="none" stroke="#F7F4EE" stroke-width="0.8" vector-effect="non-scaling-stroke" stroke-linejoin="miter" stroke-miterlimit="20" stroke-linecap="butt"/><path d="M60.9 57.08L50 50" fill="none" stroke="#F7F4EE" stroke-width="0.8" vector-effect="non-scaling-stroke" stroke-linejoin="miter" stroke-miterlimit="20" stroke-linecap="butt"/><path d="M54.71 62.11L50 50" fill="none" stroke="#F7F4EE" stroke-width="0.8" vector-effect="non-scaling-stroke" stroke-linejoin="miter" stroke-miterlimit="20" stroke-linecap="butt"/><path d="M45.5 62.2L50 50" fill="none" stroke="#F7F4EE" stroke-width="0.8" vector-effect="non-scaling-stroke" stroke-linejoin="miter" stroke-miterlimit="20" stroke-linecap="butt"/><path d="M39.19 57.22L50 50" fill="none" stroke="#F7F4EE" stroke-width="0.8" vector-effect="non-scaling-stroke" stroke-linejoin="miter" stroke-miterlimit="20" stroke-linecap="butt"/><path d="M37.02 50.73L50 50" fill="none" stroke="#F7F4EE" stroke-width="0.8" vector-effect="non-scaling-stroke" stroke-linejoin="miter" stroke-miterlimit="20" stroke-linecap="butt"/><path d="M38.15 44.66L50 50" fill="none" stroke="#F7F4EE" stroke-width="0.8" vector-effect="non-scaling-stroke" stroke-linejoin="miter" stroke-miterlimit="20" stroke-linecap="butt"/><path d="M41.43 40.23L50 50" fill="none" stroke="#F7F4EE" stroke-width="0.8" vector-effect="non-scaling-stroke" stroke-linejoin="miter" stroke-miterlimit="20" stroke-linecap="butt"/><path d="M46.8 37.4L50 50" fill="none" stroke="#F7F4EE" stroke-width="0.8" vector-effect="non-scaling-stroke" stroke-linejoin="miter" stroke-miterlimit="20" stroke-linecap="butt"/><path d="M46.8 37.4L50.4 3L53.42 37.46" fill="none" stroke="#F7F4EE" stroke-width="0.8" vector-effect="non-scaling-stroke" stroke-linejoin="miter" stroke-miterlimit="20" stroke-linecap="butt"/><path d="M53.42 37.46L64.5 24.88L58.7 40.34" fill="none" stroke="#F7F4EE" stroke-width="0.8" vector-effect="non-scaling-stroke" stroke-linejoin="miter" stroke-miterlimit="20" stroke-linecap="butt"/><path d="M58.7 40.34L88.01 22.36L61.87 44.71" fill="none" stroke="#F7F4EE" stroke-width="0.8" vector-effect="non-scaling-stroke" stroke-linejoin="miter" stroke-miterlimit="20" stroke-linecap="butt"/><path d="M61.87 44.71L78.36 43.95L62.98 50.67" fill="none" stroke="#F7F4EE" stroke-width="0.8" vector-effect="non-scaling-stroke" stroke-linejoin="miter" stroke-miterlimit="20" stroke-linecap="butt"/><path d="M62.98 50.67L94.71 64.51L60.9 57.08" fill="none" stroke="#F7F4EE" stroke-width="0.8" vector-effect="non-scaling-stroke" stroke-linejoin="miter" stroke-miterlimit="20" stroke-linecap="butt"/><path d="M60.9 57.08L69.41 71.55L54.71 62.11" fill="none" stroke="#F7F4EE" stroke-width="0.8" vector-effect="non-scaling-stroke" stroke-linejoin="miter" stroke-miterlimit="20" stroke-linecap="butt"/><path d="M54.71 62.11L50.42 97L45.5 62.2" fill="none" stroke="#F7F4EE" stroke-width="0.8" vector-effect="non-scaling-stroke" stroke-linejoin="miter" stroke-miterlimit="20" stroke-linecap="butt"/><path d="M45.5 62.2L30.98 71.89L39.19 57.22" fill="none" stroke="#F7F4EE" stroke-width="0.8" vector-effect="non-scaling-stroke" stroke-linejoin="miter" stroke-miterlimit="20" stroke-linecap="butt"/><path d="M39.19 57.22L5.43 64.91L37.02 50.73" fill="none" stroke="#F7F4EE" stroke-width="0.8" vector-effect="non-scaling-stroke" stroke-linejoin="miter" stroke-miterlimit="20" stroke-linecap="butt"/><path d="M37.02 50.73L21.64 43.95L38.15 44.66" fill="none" stroke="#F7F4EE" stroke-width="0.8" vector-effect="non-scaling-stroke" stroke-linejoin="miter" stroke-miterlimit="20" stroke-linecap="butt"/><path d="M38.15 44.66L12.22 22.04L41.43 40.23" fill="none" stroke="#F7F4EE" stroke-width="0.8" vector-effect="non-scaling-stroke" stroke-linejoin="miter" stroke-miterlimit="20" stroke-linecap="butt"/><path d="M41.43 40.23L35.93 24.64L46.8 37.4" fill="none" stroke="#F7F4EE" stroke-width="0.8" vector-effect="non-scaling-stroke" stroke-linejoin="miter" stroke-miterlimit="20" stroke-linecap="butt"/></g><circle cx="882" cy="176" r="3.03" fill="#F7F4EE"/><g transform="translate(996.38,134.38) scale(0.3125)"><path d="M53.42 37.46L50 50" fill="none" stroke="#F7F4EE" stroke-width="0.8" vector-effect="non-scaling-stroke" stroke-linejoin="miter" stroke-miterlimit="20" stroke-linecap="butt"/><path d="M58.7 40.34L50 50" fill="none" stroke="#F7F4EE" stroke-width="0.8" vector-effect="non-scaling-stroke" stroke-linejoin="miter" stroke-miterlimit="20" stroke-linecap="butt"/><path d="M61.87 44.71L50 50" fill="none" stroke="#F7F4EE" stroke-width="0.8" vector-effect="non-scaling-stroke" stroke-linejoin="miter" stroke-miterlimit="20" stroke-linecap="butt"/><path d="M62.98 50.67L50 50" fill="none" stroke="#F7F4EE" stroke-width="0.8" vector-effect="non-scaling-stroke" stroke-linejoin="miter" stroke-miterlimit="20" stroke-linecap="butt"/><path d="M60.9 57.08L50 50" fill="none" stroke="#F7F4EE" stroke-width="0.8" vector-effect="non-scaling-stroke" stroke-linejoin="miter" stroke-miterlimit="20" stroke-linecap="butt"/><path d="M54.71 62.11L50 50" fill="none" stroke="#F7F4EE" stroke-width="0.8" vector-effect="non-scaling-stroke" stroke-linejoin="miter" stroke-miterlimit="20" stroke-linecap="butt"/><path d="M45.5 62.2L50 50" fill="none" stroke="#F7F4EE" stroke-width="0.8" vector-effect="non-scaling-stroke" stroke-linejoin="miter" stroke-miterlimit="20" stroke-linecap="butt"/><path d="M39.19 57.22L50 50" fill="none" stroke="#F7F4EE" stroke-width="0.8" vector-effect="non-scaling-stroke" stroke-linejoin="miter" stroke-miterlimit="20" stroke-linecap="butt"/><path d="M37.02 50.73L50 50" fill="none" stroke="#F7F4EE" stroke-width="0.8" vector-effect="non-scaling-stroke" stroke-linejoin="miter" stroke-miterlimit="20" stroke-linecap="butt"/><path d="M38.15 44.66L50 50" fill="none" stroke="#F7F4EE" stroke-width="0.8" vector-effect="non-scaling-stroke" stroke-linejoin="miter" stroke-miterlimit="20" stroke-linecap="butt"/><path d="M41.43 40.23L50 50" fill="none" stroke="#F7F4EE" stroke-width="0.8" vector-effect="non-scaling-stroke" stroke-linejoin="miter" stroke-miterlimit="20" stroke-linecap="butt"/><path d="M46.8 37.4L50 50" fill="none" stroke="#F7F4EE" stroke-width="0.8" vector-effect="non-scaling-stroke" stroke-linejoin="miter" stroke-miterlimit="20" stroke-linecap="butt"/><path d="M46.8 37.4L50.4 3L53.42 37.46" fill="none" stroke="#F7F4EE" stroke-width="0.8" vector-effect="non-scaling-stroke" stroke-linejoin="miter" stroke-miterlimit="20" stroke-linecap="butt"/><path d="M53.42 37.46L64.5 24.88L58.7 40.34" fill="none" stroke="#F7F4EE" stroke-width="0.8" vector-effect="non-scaling-stroke" stroke-linejoin="miter" stroke-miterlimit="20" stroke-linecap="butt"/><path d="M58.7 40.34L88.01 22.36L61.87 44.71" fill="none" stroke="#F7F4EE" stroke-width="0.8" vector-effect="non-scaling-stroke" stroke-linejoin="miter" stroke-miterlimit="20" stroke-linecap="butt"/><path d="M61.87 44.71L78.36 43.95L62.98 50.67" fill="none" stroke="#F7F4EE" stroke-width="0.8" vector-effect="non-scaling-stroke" stroke-linejoin="miter" stroke-miterlimit="20" stroke-linecap="butt"/><path d="M62.98 50.67L94.71 64.51L60.9 57.08" fill="none" stroke="#F7F4EE" stroke-width="0.8" vector-effect="non-scaling-stroke" stroke-linejoin="miter" stroke-miterlimit="20" stroke-linecap="butt"/><path d="M60.9 57.08L69.41 71.55L54.71 62.11" fill="none" stroke="#F7F4EE" stroke-width="0.8" vector-effect="non-scaling-stroke" stroke-linejoin="miter" stroke-miterlimit="20" stroke-linecap="butt"/><path d="M54.71 62.11L50.42 97L45.5 62.2" fill="none" stroke="#F7F4EE" stroke-width="0.8" vector-effect="non-scaling-stroke" stroke-linejoin="miter" stroke-miterlimit="20" stroke-linecap="butt"/><path d="M45.5 62.2L30.98 71.89L39.19 57.22" fill="none" stroke="#F7F4EE" stroke-width="0.8" vector-effect="non-scaling-stroke" stroke-linejoin="miter" stroke-miterlimit="20" stroke-linecap="butt"/><path d="M39.19 57.22L5.43 64.91L37.02 50.73" fill="none" stroke="#F7F4EE" stroke-width="0.8" vector-effect="non-scaling-stroke" stroke-linejoin="miter" stroke-miterlimit="20" stroke-linecap="butt"/><path d="M37.02 50.73L21.64 43.95L38.15 44.66" fill="none" stroke="#F7F4EE" stroke-width="0.8" vector-effect="non-scaling-stroke" stroke-linejoin="miter" stroke-miterlimit="20" stroke-linecap="butt"/><path d="M38.15 44.66L12.22 22.04L41.43 40.23" fill="none" stroke="#F7F4EE" stroke-width="0.8" vector-effect="non-scaling-stroke" stroke-linejoin="miter" stroke-miterlimit="20" stroke-linecap="butt"/><path d="M41.43 40.23L35.93 24.64L46.8 37.4" fill="none" stroke="#F7F4EE" stroke-width="0.8" vector-effect="non-scaling-stroke" stroke-linejoin="miter" stroke-miterlimit="20" stroke-linecap="butt"/></g><circle cx="1012" cy="150" r="1.95" fill="#F7F4EE"/><g transform="translate(1099.09,182.09) scale(0.4583)"><path d="M53.42 37.46L50 50" fill="none" stroke="#F7F4EE" stroke-width="0.8" vector-effect="non-scaling-stroke" stroke-linejoin="miter" stroke-miterlimit="20" stroke-linecap="butt"/><path d="M58.7 40.34L50 50" fill="none" stroke="#F7F4EE" stroke-width="0.8" vector-effect="non-scaling-stroke" stroke-linejoin="miter" stroke-miterlimit="20" stroke-linecap="butt"/><path d="M61.87 44.71L50 50" fill="none" stroke="#F7F4EE" stroke-width="0.8" vector-effect="non-scaling-stroke" stroke-linejoin="miter" stroke-miterlimit="20" stroke-linecap="butt"/><path d="M62.98 50.67L50 50" fill="none" stroke="#F7F4EE" stroke-width="0.8" vector-effect="non-scaling-stroke" stroke-linejoin="miter" stroke-miterlimit="20" stroke-linecap="butt"/><path d="M60.9 57.08L50 50" fill="none" stroke="#F7F4EE" stroke-width="0.8" vector-effect="non-scaling-stroke" stroke-linejoin="miter" stroke-miterlimit="20" stroke-linecap="butt"/><path d="M54.71 62.11L50 50" fill="none" stroke="#F7F4EE" stroke-width="0.8" vector-effect="non-scaling-stroke" stroke-linejoin="miter" stroke-miterlimit="20" stroke-linecap="butt"/><path d="M45.5 62.2L50 50" fill="none" stroke="#F7F4EE" stroke-width="0.8" vector-effect="non-scaling-stroke" stroke-linejoin="miter" stroke-miterlimit="20" stroke-linecap="butt"/><path d="M39.19 57.22L50 50" fill="none" stroke="#F7F4EE" stroke-width="0.8" vector-effect="non-scaling-stroke" stroke-linejoin="miter" stroke-miterlimit="20" stroke-linecap="butt"/><path d="M37.02 50.73L50 50" fill="none" stroke="#F7F4EE" stroke-width="0.8" vector-effect="non-scaling-stroke" stroke-linejoin="miter" stroke-miterlimit="20" stroke-linecap="butt"/><path d="M38.15 44.66L50 50" fill="none" stroke="#F7F4EE" stroke-width="0.8" vector-effect="non-scaling-stroke" stroke-linejoin="miter" stroke-miterlimit="20" stroke-linecap="butt"/><path d="M41.43 40.23L50 50" fill="none" stroke="#F7F4EE" stroke-width="0.8" vector-effect="non-scaling-stroke" stroke-linejoin="miter" stroke-miterlimit="20" stroke-linecap="butt"/><path d="M46.8 37.4L50 50" fill="none" stroke="#F7F4EE" stroke-width="0.8" vector-effect="non-scaling-stroke" stroke-linejoin="miter" stroke-miterlimit="20" stroke-linecap="butt"/><path d="M46.8 37.4L50.4 3L53.42 37.46" fill="none" stroke="#F7F4EE" stroke-width="0.8" vector-effect="non-scaling-stroke" stroke-linejoin="miter" stroke-miterlimit="20" stroke-linecap="butt"/><path d="M53.42 37.46L64.5 24.88L58.7 40.34" fill="none" stroke="#F7F4EE" stroke-width="0.8" vector-effect="non-scaling-stroke" stroke-linejoin="miter" stroke-miterlimit="20" stroke-linecap="butt"/><path d="M58.7 40.34L88.01 22.36L61.87 44.71" fill="none" stroke="#F7F4EE" stroke-width="0.8" vector-effect="non-scaling-stroke" stroke-linejoin="miter" stroke-miterlimit="20" stroke-linecap="butt"/><path d="M61.87 44.71L78.36 43.95L62.98 50.67" fill="none" stroke="#F7F4EE" stroke-width="0.8" vector-effect="non-scaling-stroke" stroke-linejoin="miter" stroke-miterlimit="20" stroke-linecap="butt"/><path d="M62.98 50.67L94.71 64.51L60.9 57.08" fill="none" stroke="#F7F4EE" stroke-width="0.8" vector-effect="non-scaling-stroke" stroke-linejoin="miter" stroke-miterlimit="20" stroke-linecap="butt"/><path d="M60.9 57.08L69.41 71.55L54.71 62.11" fill="none" stroke="#F7F4EE" stroke-width="0.8" vector-effect="non-scaling-stroke" stroke-linejoin="miter" stroke-miterlimit="20" stroke-linecap="butt"/><path d="M54.71 62.11L50.42 97L45.5 62.2" fill="none" stroke="#F7F4EE" stroke-width="0.8" vector-effect="non-scaling-stroke" stroke-linejoin="miter" stroke-miterlimit="20" stroke-linecap="butt"/><path d="M45.5 62.2L30.98 71.89L39.19 57.22" fill="none" stroke="#F7F4EE" stroke-width="0.8" vector-effect="non-scaling-stroke" stroke-linejoin="miter" stroke-miterlimit="20" stroke-linecap="butt"/><path d="M39.19 57.22L5.43 64.91L37.02 50.73" fill="none" stroke="#F7F4EE" stroke-width="0.8" vector-effect="non-scaling-stroke" stroke-linejoin="miter" stroke-miterlimit="20" stroke-linecap="butt"/><path d="M37.02 50.73L21.64 43.95L38.15 44.66" fill="none" stroke="#F7F4EE" stroke-width="0.8" vector-effect="non-scaling-stroke" stroke-linejoin="miter" stroke-miterlimit="20" stroke-linecap="butt"/><path d="M38.15 44.66L12.22 22.04L41.43 40.23" fill="none" stroke="#F7F4EE" stroke-width="0.8" vector-effect="non-scaling-stroke" stroke-linejoin="miter" stroke-miterlimit="20" stroke-linecap="butt"/><path d="M41.43 40.23L35.93 24.64L46.8 37.4" fill="none" stroke="#F7F4EE" stroke-width="0.8" vector-effect="non-scaling-stroke" stroke-linejoin="miter" stroke-miterlimit="20" stroke-linecap="butt"/></g><circle cx="1122" cy="205" r="2.58" fill="#F7F4EE"/></g><text x="120" y="150" font-family="'Radio Canada','Helvetica Neue',Arial,sans-serif" font-size="56" font-weight="700" letter-spacing="7" fill="#F7F4EE">CANADA</text><text x="120" y="210" font-family="'Radio Canada','Helvetica Neue',Arial,sans-serif" font-size="56" font-weight="700" letter-spacing="7" fill="#F7F4EE">OBSERVATORY</text><rect x="120" y="238" width="120" height="5" fill="#D9B36C"/><text x="120" y="282" font-family="'Radio Canada','Helvetica Neue',Arial,sans-serif" font-size="22" fill="#D9DEE5">Data and charts for informed civic conversations</text><g transform="translate(1163.75,93.75) scale(3.125)"><circle cx="50" cy="50" r="48" fill="#17324D"/><path d="M50.4 3L53.42 37.46L50 50L46.8 37.4Z" fill="#C2972F" stroke="#F7F4EE" stroke-width="0.9" stroke-linejoin="round"/><path d="M64.5 24.88L58.7 40.34L50 50L53.42 37.46Z" fill="#F7F4EE" stroke="#F7F4EE" stroke-width="0.9" stroke-linejoin="round"/><path d="M88.01 22.36L61.87 44.71L50 50L58.7 40.34Z" fill="#17324D" stroke="#F7F4EE" stroke-width="0.9" stroke-linejoin="round"/><path d="M78.36 43.95L62.98 50.67L50 50L61.87 44.71Z" fill="#F7F4EE" stroke="#F7F4EE" stroke-width="0.9" stroke-linejoin="round"/><path d="M94.71 64.51L60.9 57.08L50 50L62.98 50.67Z" fill="#2A7F9E" stroke="#F7F4EE" stroke-width="0.9" stroke-linejoin="round"/><path d="M69.41 71.55L54.71 62.11L50 50L60.9 57.08Z" fill="#F7F4EE" stroke="#F7F4EE" stroke-width="0.9" stroke-linejoin="round"/><path d="M50.42 97L45.5 62.2L50 50L54.71 62.11Z" fill="#7A263A" stroke="#F7F4EE" stroke-width="0.9" stroke-linejoin="round"/><path d="M30.98 71.89L39.19 57.22L50 50L45.5 62.2Z" fill="#F7F4EE" stroke="#F7F4EE" stroke-width="0.9" stroke-linejoin="round"/><path d="M5.43 64.91L37.02 50.73L50 50L39.19 57.22Z" fill="#3F6F5E" stroke="#F7F4EE" stroke-width="0.9" stroke-linejoin="round"/><path d="M21.64 43.95L38.15 44.66L50 50L37.02 50.73Z" fill="#F7F4EE" stroke="#F7F4EE" stroke-width="0.9" stroke-linejoin="round"/><path d="M12.22 22.04L41.43 40.23L50 50L38.15 44.66Z" fill="#6B7280" stroke="#F7F4EE" stroke-width="0.9" stroke-linejoin="round"/><path d="M35.93 24.64L46.8 37.4L50 50L41.43 40.23Z" fill="#F7F4EE" stroke="#F7F4EE" stroke-width="0.9" stroke-linejoin="round"/></g></svg>