<svg xmlns="http://www.w3.org/2000/svg" viewBox="0 0 100 100"><defs><path id="kc" d="M 50 6 C 52.6 17.6 54.9 19.1 59.5 12 C 58.1 35.0 61.0 37.0 71 20 C 69.1 31.2 73.6 34.2 89 32 C 70.0 43.5 68.0 50.8 81 61 C 62.8 58.4 55.5 60.6 52 70 L 51.2 76 L 50.8 93 L 49.2 93 L 48.8 76 L 48 70 C 44.5 60.6 37.2 58.4 19 61 C 32.0 50.8 30.0 43.5 11 32 C 26.4 34.2 30.9 31.2 29 20 C 39.0 37.0 41.9 35.0 40.5 12 C 45.1 19.1 47.4 17.6 50 6 Z"/><clipPath id="ckc"><use href="#kc"/></clipPath></defs><g clip-path="url(#ckc)"><path d="M 50 44 L 36.1 -34.8 L 119.3 4.0 Z" fill="#C2972F"/><path d="M 50 44 L 119.3 4.0 L 119.3 84.0 Z" fill="#17324D"/><path d="M 50 44 L 119.3 84.0 L 43.0 123.7 Z" fill="#2A7F9E"/><path d="M 50 44 L 43.0 123.7 L -25.2 71.4 Z" fill="#7A263A"/><path d="M 50 44 L -25.2 71.4 L -17.8 1.6 Z" fill="#3F6F5E"/><path d="M 50 44 L -17.8 1.6 L 36.1 -34.8 Z" fill="#6B7280"/><line x1="50" y1="44" x2="36.1" y2="-34.8" stroke="#F7F4EE" stroke-width="1.6"/><line x1="50" y1="44" x2="119.3" y2="4.0" stroke="#F7F4EE" stroke-width="1.6"/><line x1="50" y1="44" x2="119.3" y2="84.0" stroke="#F7F4EE" stroke-width="1.6"/><line x1="50" y1="44" x2="43.0" y2="123.7" stroke="#F7F4EE" stroke-width="1.6"/><line x1="50" y1="44" x2="-25.2" y2="71.4" stroke="#F7F4EE" stroke-width="1.6"/><line x1="50" y1="44" x2="-17.8" y2="1.6" stroke="#F7F4EE" stroke-width="1.6"/></g></svg>