<svg xmlns="http://www.w3.org/2000/svg" viewBox="0 0 430 120"><g transform="translate(12,10)"><circle cx="50" cy="50" r="43" fill="none" stroke="#17324D" stroke-width="5.5"/><g transform="translate(19,19.3) scale(0.62)"><path d="M 50 6 C 52.6 17.6 54.9 19.1 59.5 12 C 58.1 35.0 61.0 37.0 71 20 C 69.1 31.2 73.6 34.2 89 32 C 70.0 43.5 68.0 50.8 81 61 C 62.8 58.4 55.5 60.6 52 70 L 51.2 76 L 50.8 93 L 49.2 93 L 48.8 76 L 48 70 C 44.5 60.6 37.2 58.4 19 61 C 32.0 50.8 30.0 43.5 11 32 C 26.4 34.2 30.9 31.2 29 20 C 39.0 37.0 41.9 35.0 40.5 12 C 45.1 19.1 47.4 17.6 50 6 Z" fill="#7A263A"/></g></g><text x="135" y="58" font-family="'Radio Canada', 'Helvetica Neue', Arial, sans-serif" font-size="30" font-weight="600" letter-spacing="9" fill="#17324D">CANADA</text><text x="135" y="94" font-family="'Radio Canada', 'Helvetica Neue', Arial, sans-serif" font-size="30" font-weight="600" letter-spacing="1.8" fill="#17324D">OBSERVATORY</text></svg>