<svg xmlns="http://www.w3.org/2000/svg" viewBox="0 0 100 100"><circle cx="50" cy="50" r="43" fill="none" stroke="#17324D" stroke-width="5.5"/><g transform="translate(19,19.3) scale(0.62)"><defs><path id="Lms" d="M 50 6 C 52.6 17.6 54.9 19.1 59.5 12 C 58.1 35.0 61.0 37.0 71 20 C 69.1 31.2 73.6 34.2 89 32 C 70.0 43.5 68.0 50.8 81 61 C 62.8 58.4 55.5 60.6 52 70 L 51.2 76 L 50.8 93 L 49.2 93 L 48.8 76 L 48 70 C 44.5 60.6 37.2 58.4 19 61 C 32.0 50.8 30.0 43.5 11 32 C 26.4 34.2 30.9 31.2 29 20 C 39.0 37.0 41.9 35.0 40.5 12 C 45.1 19.1 47.4 17.6 50 6 Z"/><clipPath id="Cms"><use href="#Lms"/></clipPath></defs><g clip-path="url(#Cms)"><rect x="0" y="0" width="100" height="100" fill="#F7F4EE"/><rect x="0" y="6" width="100" height="9.6" fill="#17324D"/><rect x="0" y="16.7" width="100" height="9.6" fill="#2A7F9E"/><rect x="0" y="27.4" width="100" height="9.6" fill="#3F6F5E"/><rect x="0" y="38.1" width="100" height="9.6" fill="#C2972F"/><rect x="0" y="48.8" width="100" height="9.6" fill="#7A263A"/><rect x="0" y="59.5" width="100" height="36" fill="#6B7280"/></g></g></svg>