<svg xmlns="http://www.w3.org/2000/svg" viewBox="0 0 920 300" font-family="sans-serif">
<rect width="920" height="300" fill="#fff"/>
<text x="20" y="34" font-size="20" fill="#17324D" font-weight="700">Coherence test — the system would now hold four marks</text>
<g transform="translate(25,60)"><svg width="180" height="180" viewBox="0 0 100 100"><defs><path id="Lbc" d="M 50.0 4.0 Q 50.0 4.0 50.4 5.1 L 51.9 9.2 Q 53.2 13.0 55.0 11.5 L 56.6 10.3 Q 57.5 9.5 57.6 10.7 L 57.9 15.0 Q 58.2 19.0 60.4 17.5 L 62.5 16.2 Q 63.5 15.5 63.3 16.7 L 61.7 26.1 Q 60.5 33.0 64.5 29.6 L 69.1 25.8 Q 70.0 25.0 70.3 26.1 L 70.9 27.9 Q 71.5 30.0 74.2 27.0 L 82.2 17.9 Q 83.0 17.0 83.1 18.2 L 83.6 22.2 Q 84.0 26.0 86.1 25.6 L 87.8 25.2 Q 89.0 25.0 88.4 26.0 L 83.2 34.1 Q 79.5 40.0 83.9 41.3 L 88.8 42.7 Q 90.0 43.0 89.3 44.0 L 86.8 47.6 Q 84.5 51.0 85.1 51.8 L 85.4 52.2 Q 86.0 53.0 84.9 53.3 L 73.7 56.7 Q 66.0 59.0 60.1 59.4 L 54.0 59.9 Q 52.0 60.0 51.7 61.3 L 51.4 62.2 Q 51.2 63.0 51.2 63.8 L 50.8 87.2 Q 50.8 88.0 50.1 88.0 L 49.9 88.0 Q 49.2 88.0 49.2 87.2 L 48.8 63.8 Q 48.8 63.0 48.6 62.2 L 48.3 61.3 Q 48.0 60.0 46.0 59.9 L 39.9 59.4 Q 34.0 59.0 26.3 56.7 L 15.1 53.3 Q 14.0 53.0 14.6 52.2 L 14.9 51.8 Q 15.5 51.0 13.2 47.6 L 10.7 44.0 Q 10.0 43.0 11.2 42.7 L 16.1 41.3 Q 20.5 40.0 16.8 34.1 L 11.6 26.0 Q 11.0 25.0 12.2 25.2 L 13.9 25.6 Q 16.0 26.0 16.4 22.2 L 16.9 18.2 Q 17.0 17.0 17.8 17.9 L 25.8 27.0 Q 28.5 30.0 29.1 27.9 L 29.7 26.1 Q 30.0 25.0 30.9 25.8 L 35.5 29.6 Q 39.5 33.0 38.3 26.1 L 36.7 16.7 Q 36.5 15.5 37.5 16.2 L 39.6 17.5 Q 41.8 19.0 42.1 15.0 L 42.4 10.7 Q 42.5 9.5 43.4 10.3 L 45.0 11.5 Q 46.8 13.0 48.1 9.2 L 49.6 5.1 Q 50.0 4.0 50.0 4.0 Z"/><clipPath id="Cbc"><use href="#Lbc"/></clipPath></defs><g clip-path="url(#Cbc)"><path d="M 50 44 L 3.9 -39.1 L 97.5 -38.3 Z" fill="#C2972F"/><path d="M 50 44 L 97.5 -38.3 L 142.9 24.2 Z" fill="#17324D"/><path d="M 50 44 L 142.9 24.2 L 113.6 114.6 Z" fill="#2A7F9E"/><path d="M 50 44 L 113.6 114.6 L -12.3 115.7 Z" fill="#7A263A"/><path d="M 50 44 L -12.3 115.7 L -42.9 24.2 Z" fill="#3F6F5E"/><path d="M 50 44 L -42.9 24.2 L 3.9 -39.1 Z" fill="#6B7280"/><line x1="50" y1="44" x2="3.9" y2="-39.1" stroke="#F7F4EE" stroke-width="1.6"/><line x1="50" y1="44" x2="97.5" y2="-38.3" stroke="#F7F4EE" stroke-width="1.6"/><line x1="50" y1="44" x2="142.9" y2="24.2" stroke="#F7F4EE" stroke-width="1.6"/><line x1="50" y1="44" x2="113.6" y2="114.6" stroke="#F7F4EE" stroke-width="1.6"/><line x1="50" y1="44" x2="-12.3" y2="115.7" stroke="#F7F4EE" stroke-width="1.6"/><line x1="50" y1="44" x2="-42.9" y2="24.2" stroke="#F7F4EE" stroke-width="1.6"/></g></svg></g>
<g transform="translate(160,200)"><svg width="40" height="40" viewBox="0 0 100 100"><defs><path id="Lbc" d="M 50.0 4.0 Q 50.0 4.0 50.4 5.1 L 51.9 9.2 Q 53.2 13.0 55.0 11.5 L 56.6 10.3 Q 57.5 9.5 57.6 10.7 L 57.9 15.0 Q 58.2 19.0 60.4 17.5 L 62.5 16.2 Q 63.5 15.5 63.3 16.7 L 61.7 26.1 Q 60.5 33.0 64.5 29.6 L 69.1 25.8 Q 70.0 25.0 70.3 26.1 L 70.9 27.9 Q 71.5 30.0 74.2 27.0 L 82.2 17.9 Q 83.0 17.0 83.1 18.2 L 83.6 22.2 Q 84.0 26.0 86.1 25.6 L 87.8 25.2 Q 89.0 25.0 88.4 26.0 L 83.2 34.1 Q 79.5 40.0 83.9 41.3 L 88.8 42.7 Q 90.0 43.0 89.3 44.0 L 86.8 47.6 Q 84.5 51.0 85.1 51.8 L 85.4 52.2 Q 86.0 53.0 84.9 53.3 L 73.7 56.7 Q 66.0 59.0 60.1 59.4 L 54.0 59.9 Q 52.0 60.0 51.7 61.3 L 51.4 62.2 Q 51.2 63.0 51.2 63.8 L 50.8 87.2 Q 50.8 88.0 50.1 88.0 L 49.9 88.0 Q 49.2 88.0 49.2 87.2 L 48.8 63.8 Q 48.8 63.0 48.6 62.2 L 48.3 61.3 Q 48.0 60.0 46.0 59.9 L 39.9 59.4 Q 34.0 59.0 26.3 56.7 L 15.1 53.3 Q 14.0 53.0 14.6 52.2 L 14.9 51.8 Q 15.5 51.0 13.2 47.6 L 10.7 44.0 Q 10.0 43.0 11.2 42.7 L 16.1 41.3 Q 20.5 40.0 16.8 34.1 L 11.6 26.0 Q 11.0 25.0 12.2 25.2 L 13.9 25.6 Q 16.0 26.0 16.4 22.2 L 16.9 18.2 Q 17.0 17.0 17.8 17.9 L 25.8 27.0 Q 28.5 30.0 29.1 27.9 L 29.7 26.1 Q 30.0 25.0 30.9 25.8 L 35.5 29.6 Q 39.5 33.0 38.3 26.1 L 36.7 16.7 Q 36.5 15.5 37.5 16.2 L 39.6 17.5 Q 41.8 19.0 42.1 15.0 L 42.4 10.7 Q 42.5 9.5 43.4 10.3 L 45.0 11.5 Q 46.8 13.0 48.1 9.2 L 49.6 5.1 Q 50.0 4.0 50.0 4.0 Z"/><clipPath id="Cbc"><use href="#Lbc"/></clipPath></defs><g clip-path="url(#Cbc)"><path d="M 50 44 L 3.9 -39.1 L 97.5 -38.3 Z" fill="#C2972F"/><path d="M 50 44 L 97.5 -38.3 L 142.9 24.2 Z" fill="#17324D"/><path d="M 50 44 L 142.9 24.2 L 113.6 114.6 Z" fill="#2A7F9E"/><path d="M 50 44 L 113.6 114.6 L -12.3 115.7 Z" fill="#7A263A"/><path d="M 50 44 L -12.3 115.7 L -42.9 24.2 Z" fill="#3F6F5E"/><path d="M 50 44 L -42.9 24.2 L 3.9 -39.1 Z" fill="#6B7280"/><line x1="50" y1="44" x2="3.9" y2="-39.1" stroke="#F7F4EE" stroke-width="1.6"/><line x1="50" y1="44" x2="97.5" y2="-38.3" stroke="#F7F4EE" stroke-width="1.6"/><line x1="50" y1="44" x2="142.9" y2="24.2" stroke="#F7F4EE" stroke-width="1.6"/><line x1="50" y1="44" x2="113.6" y2="114.6" stroke="#F7F4EE" stroke-width="1.6"/><line x1="50" y1="44" x2="-12.3" y2="115.7" stroke="#F7F4EE" stroke-width="1.6"/><line x1="50" y1="44" x2="-42.9" y2="24.2" stroke="#F7F4EE" stroke-width="1.6"/></g></svg></g>
<text x="115" y="270" font-size="14" fill="#17324D" text-anchor="middle">the leaf (identity)</text>
<g transform="translate(255,60)"><svg width="180" height="180" viewBox="0 0 100 100"><circle cx="50" cy="50" r="47" fill="#7A263A"/><g transform="translate(50,50) scale(0.78) translate(-50,-46)"><path d="M 50.0 4.0 Q 50.0 4.0 50.4 5.1 L 51.9 9.2 Q 53.2 13.0 55.0 11.5 L 56.6 10.3 Q 57.5 9.5 57.6 10.7 L 57.9 15.0 Q 58.2 19.0 60.4 17.5 L 62.5 16.2 Q 63.5 15.5 63.3 16.7 L 61.7 26.1 Q 60.5 33.0 64.5 29.6 L 69.1 25.8 Q 70.0 25.0 70.3 26.1 L 70.9 27.9 Q 71.5 30.0 74.2 27.0 L 82.2 17.9 Q 83.0 17.0 83.1 18.2 L 83.6 22.2 Q 84.0 26.0 86.1 25.6 L 87.8 25.2 Q 89.0 25.0 88.4 26.0 L 83.2 34.1 Q 79.5 40.0 83.9 41.3 L 88.8 42.7 Q 90.0 43.0 89.3 44.0 L 86.8 47.6 Q 84.5 51.0 85.1 51.8 L 85.4 52.2 Q 86.0 53.0 84.9 53.3 L 73.7 56.7 Q 66.0 59.0 60.1 59.4 L 54.0 59.9 Q 52.0 60.0 51.7 61.3 L 51.4 62.2 Q 51.2 63.0 51.2 63.8 L 50.8 87.2 Q 50.8 88.0 50.1 88.0 L 49.9 88.0 Q 49.2 88.0 49.2 87.2 L 48.8 63.8 Q 48.8 63.0 48.6 62.2 L 48.3 61.3 Q 48.0 60.0 46.0 59.9 L 39.9 59.4 Q 34.0 59.0 26.3 56.7 L 15.1 53.3 Q 14.0 53.0 14.6 52.2 L 14.9 51.8 Q 15.5 51.0 13.2 47.6 L 10.7 44.0 Q 10.0 43.0 11.2 42.7 L 16.1 41.3 Q 20.5 40.0 16.8 34.1 L 11.6 26.0 Q 11.0 25.0 12.2 25.2 L 13.9 25.6 Q 16.0 26.0 16.4 22.2 L 16.9 18.2 Q 17.0 17.0 17.8 17.9 L 25.8 27.0 Q 28.5 30.0 29.1 27.9 L 29.7 26.1 Q 30.0 25.0 30.9 25.8 L 35.5 29.6 Q 39.5 33.0 38.3 26.1 L 36.7 16.7 Q 36.5 15.5 37.5 16.2 L 39.6 17.5 Q 41.8 19.0 42.1 15.0 L 42.4 10.7 Q 42.5 9.5 43.4 10.3 L 45.0 11.5 Q 46.8 13.0 48.1 9.2 L 49.6 5.1 Q 50.0 4.0 50.0 4.0 Z" fill="none" stroke="#F7F4EE" stroke-width="5" stroke-linejoin="round"/></g></svg></g>
<g transform="translate(390,200)"><svg width="40" height="40" viewBox="0 0 100 100"><circle cx="50" cy="50" r="47" fill="#7A263A"/><g transform="translate(50,50) scale(0.78) translate(-50,-46)"><path d="M 50.0 4.0 Q 50.0 4.0 50.4 5.1 L 51.9 9.2 Q 53.2 13.0 55.0 11.5 L 56.6 10.3 Q 57.5 9.5 57.6 10.7 L 57.9 15.0 Q 58.2 19.0 60.4 17.5 L 62.5 16.2 Q 63.5 15.5 63.3 16.7 L 61.7 26.1 Q 60.5 33.0 64.5 29.6 L 69.1 25.8 Q 70.0 25.0 70.3 26.1 L 70.9 27.9 Q 71.5 30.0 74.2 27.0 L 82.2 17.9 Q 83.0 17.0 83.1 18.2 L 83.6 22.2 Q 84.0 26.0 86.1 25.6 L 87.8 25.2 Q 89.0 25.0 88.4 26.0 L 83.2 34.1 Q 79.5 40.0 83.9 41.3 L 88.8 42.7 Q 90.0 43.0 89.3 44.0 L 86.8 47.6 Q 84.5 51.0 85.1 51.8 L 85.4 52.2 Q 86.0 53.0 84.9 53.3 L 73.7 56.7 Q 66.0 59.0 60.1 59.4 L 54.0 59.9 Q 52.0 60.0 51.7 61.3 L 51.4 62.2 Q 51.2 63.0 51.2 63.8 L 50.8 87.2 Q 50.8 88.0 50.1 88.0 L 49.9 88.0 Q 49.2 88.0 49.2 87.2 L 48.8 63.8 Q 48.8 63.0 48.6 62.2 L 48.3 61.3 Q 48.0 60.0 46.0 59.9 L 39.9 59.4 Q 34.0 59.0 26.3 56.7 L 15.1 53.3 Q 14.0 53.0 14.6 52.2 L 14.9 51.8 Q 15.5 51.0 13.2 47.6 L 10.7 44.0 Q 10.0 43.0 11.2 42.7 L 16.1 41.3 Q 20.5 40.0 16.8 34.1 L 11.6 26.0 Q 11.0 25.0 12.2 25.2 L 13.9 25.6 Q 16.0 26.0 16.4 22.2 L 16.9 18.2 Q 17.0 17.0 17.8 17.9 L 25.8 27.0 Q 28.5 30.0 29.1 27.9 L 29.7 26.1 Q 30.0 25.0 30.9 25.8 L 35.5 29.6 Q 39.5 33.0 38.3 26.1 L 36.7 16.7 Q 36.5 15.5 37.5 16.2 L 39.6 17.5 Q 41.8 19.0 42.1 15.0 L 42.4 10.7 Q 42.5 9.5 43.4 10.3 L 45.0 11.5 Q 46.8 13.0 48.1 9.2 L 49.6 5.1 Q 50.0 4.0 50.0 4.0 Z" fill="none" stroke="#F7F4EE" stroke-width="5" stroke-linejoin="round"/></g></svg></g>
<text x="345" y="270" font-size="14" fill="#17324D" text-anchor="middle">the seal (tiny mark)</text>
<g transform="translate(485,60)"><svg width="180" height="180" viewBox="0 0 100 100">
<circle cx="50" cy="50" r="43" fill="none" stroke="#17324D" stroke-width="4.4"/>
<path d="M50 18 L54.5 45.5 L82 50 L54.5 54.5 L50 82 L45.5 54.5 L18 50 L45.5 45.5 Z" fill="#7A263A"/>
</svg></g>
<g transform="translate(620,200)"><svg width="40" height="40" viewBox="0 0 100 100">
<circle cx="50" cy="50" r="43" fill="none" stroke="#17324D" stroke-width="4.4"/>
<path d="M50 18 L54.5 45.5 L82 50 L54.5 54.5 L50 82 L45.5 54.5 L18 50 L45.5 45.5 Z" fill="#7A263A"/>
</svg></g>
<text x="575" y="270" font-size="14" fill="#17324D" text-anchor="middle">north star (footer motif)</text>
<g transform="translate(715,60)"><svg width="180" height="180" viewBox="0 0 100 100"><circle cx="50" cy="50" r="48" fill="#17324D"/><path d="M50.4 3L53.42 37.46L50 50L46.8 37.4Z" fill="#C2972F" stroke="#F7F4EE" stroke-width="0.9" stroke-linejoin="round"/><path d="M64.5 24.88L58.7 40.34L50 50L53.42 37.46Z" fill="#F7F4EE" stroke="#F7F4EE" stroke-width="0.9" stroke-linejoin="round"/><path d="M88.01 22.36L61.87 44.71L50 50L58.7 40.34Z" fill="#17324D" stroke="#F7F4EE" stroke-width="0.9" stroke-linejoin="round"/><path d="M78.36 43.95L62.98 50.67L50 50L61.87 44.71Z" fill="#F7F4EE" stroke="#F7F4EE" stroke-width="0.9" stroke-linejoin="round"/><path d="M94.71 64.51L60.9 57.08L50 50L62.98 50.67Z" fill="#2A7F9E" stroke="#F7F4EE" stroke-width="0.9" stroke-linejoin="round"/><path d="M69.41 71.55L54.71 62.11L50 50L60.9 57.08Z" fill="#F7F4EE" stroke="#F7F4EE" stroke-width="0.9" stroke-linejoin="round"/><path d="M50.42 97L45.5 62.2L50 50L54.71 62.11Z" fill="#7A263A" stroke="#F7F4EE" stroke-width="0.9" stroke-linejoin="round"/><path d="M30.98 71.89L39.19 57.22L50 50L45.5 62.2Z" fill="#F7F4EE" stroke="#F7F4EE" stroke-width="0.9" stroke-linejoin="round"/><path d="M5.43 64.91L37.02 50.73L50 50L39.19 57.22Z" fill="#3F6F5E" stroke="#F7F4EE" stroke-width="0.9" stroke-linejoin="round"/><path d="M21.64 43.95L38.15 44.66L50 50L37.02 50.73Z" fill="#F7F4EE" stroke="#F7F4EE" stroke-width="0.9" stroke-linejoin="round"/><path d="M12.22 22.04L41.43 40.23L50 50L38.15 44.66Z" fill="#6B7280" stroke="#F7F4EE" stroke-width="0.9" stroke-linejoin="round"/><path d="M35.93 24.64L46.8 37.4L50 50L41.43 40.23Z" fill="#F7F4EE" stroke="#F7F4EE" stroke-width="0.9" stroke-linejoin="round"/></svg></g>
<g transform="translate(850,200)"><svg width="40" height="40" viewBox="0 0 100 100"><circle cx="50" cy="50" r="48" fill="#17324D"/><path d="M50.4 3L53.42 37.46L50 50L46.8 37.4Z" fill="#C2972F" stroke="#F7F4EE" stroke-width="0.9" stroke-linejoin="round"/><path d="M64.5 24.88L58.7 40.34L50 50L53.42 37.46Z" fill="#F7F4EE" stroke="#F7F4EE" stroke-width="0.9" stroke-linejoin="round"/><path d="M88.01 22.36L61.87 44.71L50 50L58.7 40.34Z" fill="#17324D" stroke="#F7F4EE" stroke-width="0.9" stroke-linejoin="round"/><path d="M78.36 43.95L62.98 50.67L50 50L61.87 44.71Z" fill="#F7F4EE" stroke="#F7F4EE" stroke-width="0.9" stroke-linejoin="round"/><path d="M94.71 64.51L60.9 57.08L50 50L62.98 50.67Z" fill="#2A7F9E" stroke="#F7F4EE" stroke-width="0.9" stroke-linejoin="round"/><path d="M69.41 71.55L54.71 62.11L50 50L60.9 57.08Z" fill="#F7F4EE" stroke="#F7F4EE" stroke-width="0.9" stroke-linejoin="round"/><path d="M50.42 97L45.5 62.2L50 50L54.71 62.11Z" fill="#7A263A" stroke="#F7F4EE" stroke-width="0.9" stroke-linejoin="round"/><path d="M30.98 71.89L39.19 57.22L50 50L45.5 62.2Z" fill="#F7F4EE" stroke="#F7F4EE" stroke-width="0.9" stroke-linejoin="round"/><path d="M5.43 64.91L37.02 50.73L50 50L39.19 57.22Z" fill="#3F6F5E" stroke="#F7F4EE" stroke-width="0.9" stroke-linejoin="round"/><path d="M21.64 43.95L38.15 44.66L50 50L37.02 50.73Z" fill="#F7F4EE" stroke="#F7F4EE" stroke-width="0.9" stroke-linejoin="round"/><path d="M12.22 22.04L41.43 40.23L50 50L38.15 44.66Z" fill="#6B7280" stroke="#F7F4EE" stroke-width="0.9" stroke-linejoin="round"/><path d="M35.93 24.64L46.8 37.4L50 50L41.43 40.23Z" fill="#F7F4EE" stroke="#F7F4EE" stroke-width="0.9" stroke-linejoin="round"/></svg></g>
<text x="805" y="270" font-size="14" fill="#17324D" text-anchor="middle">the NEW star</text>
</svg>