<?xml version="1.0" encoding="utf-8" standalone="no"?>
<!DOCTYPE svg PUBLIC "-//W3C//DTD SVG 1.1//EN"
  "http://www.w3.org/Graphics/SVG/1.1/DTD/svg11.dtd">
<svg xmlns:xlink="http://www.w3.org/1999/xlink" width="723.38175pt" height="557.712pt" viewBox="0 0 723.38175 557.712" xmlns="http://www.w3.org/2000/svg" version="1.1">
 <metadata>
  <rdf:RDF xmlns:dc="http://purl.org/dc/elements/1.1/" xmlns:cc="http://creativecommons.org/ns#" xmlns:rdf="http://www.w3.org/1999/02/22-rdf-syntax-ns#">
   <cc:Work>
    <dc:type rdf:resource="http://purl.org/dc/dcmitype/StillImage"/>
    <dc:date>2026-06-21T18:17:16.741158</dc:date>
    <dc:format>image/svg+xml</dc:format>
    <dc:creator>
     <cc:Agent>
      <dc:title>Matplotlib v3.8.0, https://matplotlib.org/</dc:title>
     </cc:Agent>
    </dc:creator>
   </cc:Work>
  </rdf:RDF>
 </metadata>
 <defs>
  <style type="text/css">*{stroke-linejoin: round; stroke-linecap: butt}</style>
 </defs>
 <g id="figure_1">
  <g id="patch_1">
   <path d="M 0 557.712 
L 723.38175 557.712 
L 723.38175 0 
L 0 0 
z
" style="fill: #ffffff"/>
  </g>
  <g id="axes_1">
   <g id="patch_2">
    <path d="M 26.2836 81.090432 
L 70.2819 81.090432 
Q 74.5227 81.090432 74.5227 78.917184 
L 74.5227 66.421008 
Q 74.5227 64.24776 70.2819 64.24776 
L 26.2836 64.24776 
Q 22.0428 64.24776 22.0428 66.421008 
L 22.0428 78.917184 
Q 22.0428 81.090432 26.2836 81.090432 
z
" clip-path="url(#p70ecd20612)" style="fill: #7a263a; stroke: #d0d0d0; stroke-width: 0.6; stroke-linejoin: miter"/>
   </g>
   <g id="patch_3">
    <path d="M 26.2836 103.366224 
L 70.2819 103.366224 
Q 74.5227 103.366224 74.5227 101.192976 
L 74.5227 88.6968 
Q 74.5227 86.523552 70.2819 86.523552 
L 26.2836 86.523552 
Q 22.0428 86.523552 22.0428 88.6968 
L 22.0428 101.192976 
Q 22.0428 103.366224 26.2836 103.366224 
z
" clip-path="url(#p70ecd20612)" style="fill: #0650a3; stroke: #d0d0d0; stroke-width: 0.6; stroke-linejoin: miter"/>
   </g>
   <g id="patch_4">
    <path d="M 26.2836 125.642016 
L 70.2819 125.642016 
Q 74.5227 125.642016 74.5227 123.468768 
L 74.5227 110.972592 
Q 74.5227 108.799344 70.2819 108.799344 
L 26.2836 108.799344 
Q 22.0428 108.799344 22.0428 110.972592 
L 22.0428 123.468768 
Q 22.0428 125.642016 26.2836 125.642016 
z
" clip-path="url(#p70ecd20612)" style="fill: #c77109; stroke: #d0d0d0; stroke-width: 0.6; stroke-linejoin: miter"/>
   </g>
   <g id="patch_5">
    <path d="M 26.2836 147.917808 
L 70.2819 147.917808 
Q 74.5227 147.917808 74.5227 145.74456 
L 74.5227 133.248384 
Q 74.5227 131.075136 70.2819 131.075136 
L 26.2836 131.075136 
Q 22.0428 131.075136 22.0428 133.248384 
L 22.0428 145.74456 
Q 22.0428 147.917808 26.2836 147.917808 
z
" clip-path="url(#p70ecd20612)" style="fill: #5c9d6f; stroke: #d0d0d0; stroke-width: 0.6; stroke-linejoin: miter"/>
   </g>
   <g id="patch_6">
    <path d="M 26.2836 170.1936 
L 70.2819 170.1936 
Q 74.5227 170.1936 74.5227 168.020352 
L 74.5227 155.524176 
Q 74.5227 153.350928 70.2819 153.350928 
L 26.2836 153.350928 
Q 22.0428 153.350928 22.0428 155.524176 
L 22.0428 168.020352 
Q 22.0428 170.1936 26.2836 170.1936 
z
" clip-path="url(#p70ecd20612)" style="fill: #b06487; stroke: #d0d0d0; stroke-width: 0.6; stroke-linejoin: miter"/>
   </g>
   <g id="patch_7">
    <path d="M 26.2836 192.469392 
L 70.2819 192.469392 
Q 74.5227 192.469392 74.5227 190.296144 
L 74.5227 177.799968 
Q 74.5227 175.62672 70.2819 175.62672 
L 26.2836 175.62672 
Q 22.0428 175.62672 22.0428 177.799968 
L 22.0428 190.296144 
Q 22.0428 192.469392 26.2836 192.469392 
z
" clip-path="url(#p70ecd20612)" style="fill: #249fd0; stroke: #d0d0d0; stroke-width: 0.6; stroke-linejoin: miter"/>
   </g>
   <g id="patch_8">
    <path d="M 26.2836 252.777024 
L 70.2819 252.777024 
Q 74.5227 252.777024 74.5227 250.603776 
L 74.5227 238.1076 
Q 74.5227 235.934352 70.2819 235.934352 
L 26.2836 235.934352 
Q 22.0428 235.934352 22.0428 238.1076 
L 22.0428 250.603776 
Q 22.0428 252.777024 26.2836 252.777024 
z
" clip-path="url(#p70ecd20612)" style="fill: #45805e; stroke: #d0d0d0; stroke-width: 0.6; stroke-linejoin: miter"/>
   </g>
   <g id="patch_9">
    <path d="M 26.2836 273.966192 
L 70.2819 273.966192 
Q 74.5227 273.966192 74.5227 271.792944 
L 74.5227 259.296768 
Q 74.5227 257.12352 70.2819 257.12352 
L 26.2836 257.12352 
Q 22.0428 257.12352 22.0428 259.296768 
L 22.0428 271.792944 
Q 22.0428 273.966192 26.2836 273.966192 
z
" clip-path="url(#p70ecd20612)" style="fill: #916139; stroke: #d0d0d0; stroke-width: 0.6; stroke-linejoin: miter"/>
   </g>
   <g id="patch_10">
    <path d="M 26.2836 295.15536 
L 70.2819 295.15536 
Q 74.5227 295.15536 74.5227 292.982112 
L 74.5227 280.485936 
Q 74.5227 278.312688 70.2819 278.312688 
L 26.2836 278.312688 
Q 22.0428 278.312688 22.0428 280.485936 
L 22.0428 292.982112 
Q 22.0428 295.15536 26.2836 295.15536 
z
" clip-path="url(#p70ecd20612)" style="fill: #bd6d41; stroke: #d0d0d0; stroke-width: 0.6; stroke-linejoin: miter"/>
   </g>
   <g id="patch_11">
    <path d="M 26.2836 316.344528 
L 70.2819 316.344528 
Q 74.5227 316.344528 74.5227 314.17128 
L 74.5227 301.675104 
Q 74.5227 299.501856 70.2819 299.501856 
L 26.2836 299.501856 
Q 22.0428 299.501856 22.0428 301.675104 
L 22.0428 314.17128 
Q 22.0428 316.344528 26.2836 316.344528 
z
" clip-path="url(#p70ecd20612)" style="fill: #a79448; stroke: #d0d0d0; stroke-width: 0.6; stroke-linejoin: miter"/>
   </g>
   <g id="patch_12">
    <path d="M 26.2836 337.533696 
L 70.2819 337.533696 
Q 74.5227 337.533696 74.5227 335.360448 
L 74.5227 322.864272 
Q 74.5227 320.691024 70.2819 320.691024 
L 26.2836 320.691024 
Q 22.0428 320.691024 22.0428 322.864272 
L 22.0428 335.360448 
Q 22.0428 337.533696 26.2836 337.533696 
z
" clip-path="url(#p70ecd20612)" style="fill: #8f559b; stroke: #d0d0d0; stroke-width: 0.6; stroke-linejoin: miter"/>
   </g>
   <g id="patch_13">
    <path d="M 26.2836 358.722864 
L 70.2819 358.722864 
Q 74.5227 358.722864 74.5227 356.549616 
L 74.5227 344.05344 
Q 74.5227 341.880192 70.2819 341.880192 
L 26.2836 341.880192 
Q 22.0428 341.880192 22.0428 344.05344 
L 22.0428 356.549616 
Q 22.0428 358.722864 26.2836 358.722864 
z
" clip-path="url(#p70ecd20612)" style="fill: #718957; stroke: #d0d0d0; stroke-width: 0.6; stroke-linejoin: miter"/>
   </g>
   <g id="patch_14">
    <path d="M 26.2836 379.912032 
L 70.2819 379.912032 
Q 74.5227 379.912032 74.5227 377.738784 
L 74.5227 365.242608 
Q 74.5227 363.06936 70.2819 363.06936 
L 26.2836 363.06936 
Q 22.0428 363.06936 22.0428 365.242608 
L 22.0428 377.738784 
Q 22.0428 379.912032 26.2836 379.912032 
z
" clip-path="url(#p70ecd20612)" style="fill: #876617; stroke: #d0d0d0; stroke-width: 0.6; stroke-linejoin: miter"/>
   </g>
   <g id="patch_15">
    <path d="M 26.2836 401.1012 
L 70.2819 401.1012 
Q 74.5227 401.1012 74.5227 398.927952 
L 74.5227 386.431776 
Q 74.5227 384.258528 70.2819 384.258528 
L 26.2836 384.258528 
Q 22.0428 384.258528 22.0428 386.431776 
L 22.0428 398.927952 
Q 22.0428 401.1012 26.2836 401.1012 
z
" clip-path="url(#p70ecd20612)" style="fill: #21827e; stroke: #d0d0d0; stroke-width: 0.6; stroke-linejoin: miter"/>
   </g>
   <g id="patch_16">
    <path d="M 26.2836 422.290368 
L 70.2819 422.290368 
Q 74.5227 422.290368 74.5227 420.11712 
L 74.5227 407.620944 
Q 74.5227 405.447696 70.2819 405.447696 
L 26.2836 405.447696 
Q 22.0428 405.447696 22.0428 407.620944 
L 22.0428 420.11712 
Q 22.0428 422.290368 26.2836 422.290368 
z
" clip-path="url(#p70ecd20612)" style="fill: #3b7cc6; stroke: #d0d0d0; stroke-width: 0.6; stroke-linejoin: miter"/>
   </g>
   <g id="patch_17">
    <path d="M 26.2836 443.479536 
L 70.2819 443.479536 
Q 74.5227 443.479536 74.5227 441.306288 
L 74.5227 428.810112 
Q 74.5227 426.636864 70.2819 426.636864 
L 26.2836 426.636864 
Q 22.0428 426.636864 22.0428 428.810112 
L 22.0428 441.306288 
Q 22.0428 443.479536 26.2836 443.479536 
z
" clip-path="url(#p70ecd20612)" style="fill: #7c76a6; stroke: #d0d0d0; stroke-width: 0.6; stroke-linejoin: miter"/>
   </g>
   <g id="patch_18">
    <path d="M 26.2836 464.668704 
L 70.2819 464.668704 
Q 74.5227 464.668704 74.5227 462.495456 
L 74.5227 449.99928 
Q 74.5227 447.826032 70.2819 447.826032 
L 26.2836 447.826032 
Q 22.0428 447.826032 22.0428 449.99928 
L 22.0428 462.495456 
Q 22.0428 464.668704 26.2836 464.668704 
z
" clip-path="url(#p70ecd20612)" style="fill: #40a3a3; stroke: #d0d0d0; stroke-width: 0.6; stroke-linejoin: miter"/>
   </g>
   <g id="text_1">
    <!-- Canada Observatory — comparator country colours -->
    <g style="fill: #17324d" transform="translate(23.103 23.49936) scale(0.15 -0.15)">
     <defs>
      <path id="DejaVuSans-Bold-43" d="M 4288 256 
Q 3956 84 3597 -3 
Q 3238 -91 2847 -91 
Q 1681 -91 1000 561 
Q 319 1213 319 2328 
Q 319 3447 1000 4098 
Q 1681 4750 2847 4750 
Q 3238 4750 3597 4662 
Q 3956 4575 4288 4403 
L 4288 3438 
Q 3953 3666 3628 3772 
Q 3303 3878 2944 3878 
Q 2300 3878 1931 3465 
Q 1563 3053 1563 2328 
Q 1563 1606 1931 1193 
Q 2300 781 2944 781 
Q 3303 781 3628 887 
Q 3953 994 4288 1222 
L 4288 256 
z
" transform="scale(0.015625)"/>
      <path id="DejaVuSans-Bold-61" d="M 2106 1575 
Q 1756 1575 1579 1456 
Q 1403 1338 1403 1106 
Q 1403 894 1545 773 
Q 1688 653 1941 653 
Q 2256 653 2472 879 
Q 2688 1106 2688 1447 
L 2688 1575 
L 2106 1575 
z
M 3816 1997 
L 3816 0 
L 2688 0 
L 2688 519 
Q 2463 200 2181 54 
Q 1900 -91 1497 -91 
Q 953 -91 614 226 
Q 275 544 275 1050 
Q 275 1666 698 1953 
Q 1122 2241 2028 2241 
L 2688 2241 
L 2688 2328 
Q 2688 2594 2478 2717 
Q 2269 2841 1825 2841 
Q 1466 2841 1156 2769 
Q 847 2697 581 2553 
L 581 3406 
Q 941 3494 1303 3539 
Q 1666 3584 2028 3584 
Q 2975 3584 3395 3211 
Q 3816 2838 3816 1997 
z
" transform="scale(0.015625)"/>
      <path id="DejaVuSans-Bold-6e" d="M 4056 2131 
L 4056 0 
L 2931 0 
L 2931 347 
L 2931 1631 
Q 2931 2084 2911 2256 
Q 2891 2428 2841 2509 
Q 2775 2619 2662 2680 
Q 2550 2741 2406 2741 
Q 2056 2741 1856 2470 
Q 1656 2200 1656 1722 
L 1656 0 
L 538 0 
L 538 3500 
L 1656 3500 
L 1656 2988 
Q 1909 3294 2193 3439 
Q 2478 3584 2822 3584 
Q 3428 3584 3742 3212 
Q 4056 2841 4056 2131 
z
" transform="scale(0.015625)"/>
      <path id="DejaVuSans-Bold-64" d="M 2919 2988 
L 2919 4863 
L 4044 4863 
L 4044 0 
L 2919 0 
L 2919 506 
Q 2688 197 2409 53 
Q 2131 -91 1766 -91 
Q 1119 -91 703 423 
Q 288 938 288 1747 
Q 288 2556 703 3070 
Q 1119 3584 1766 3584 
Q 2128 3584 2408 3439 
Q 2688 3294 2919 2988 
z
M 2181 722 
Q 2541 722 2730 984 
Q 2919 1247 2919 1747 
Q 2919 2247 2730 2509 
Q 2541 2772 2181 2772 
Q 1825 2772 1636 2509 
Q 1447 2247 1447 1747 
Q 1447 1247 1636 984 
Q 1825 722 2181 722 
z
" transform="scale(0.015625)"/>
      <path id="DejaVuSans-Bold-20" transform="scale(0.015625)"/>
      <path id="DejaVuSans-Bold-4f" d="M 2719 3878 
Q 2169 3878 1866 3472 
Q 1563 3066 1563 2328 
Q 1563 1594 1866 1187 
Q 2169 781 2719 781 
Q 3272 781 3575 1187 
Q 3878 1594 3878 2328 
Q 3878 3066 3575 3472 
Q 3272 3878 2719 3878 
z
M 2719 4750 
Q 3844 4750 4481 4106 
Q 5119 3463 5119 2328 
Q 5119 1197 4481 553 
Q 3844 -91 2719 -91 
Q 1597 -91 958 553 
Q 319 1197 319 2328 
Q 319 3463 958 4106 
Q 1597 4750 2719 4750 
z
" transform="scale(0.015625)"/>
      <path id="DejaVuSans-Bold-62" d="M 2400 722 
Q 2759 722 2948 984 
Q 3138 1247 3138 1747 
Q 3138 2247 2948 2509 
Q 2759 2772 2400 2772 
Q 2041 2772 1848 2508 
Q 1656 2244 1656 1747 
Q 1656 1250 1848 986 
Q 2041 722 2400 722 
z
M 1656 2988 
Q 1888 3294 2169 3439 
Q 2450 3584 2816 3584 
Q 3463 3584 3878 3070 
Q 4294 2556 4294 1747 
Q 4294 938 3878 423 
Q 3463 -91 2816 -91 
Q 2450 -91 2169 54 
Q 1888 200 1656 506 
L 1656 0 
L 538 0 
L 538 4863 
L 1656 4863 
L 1656 2988 
z
" transform="scale(0.015625)"/>
      <path id="DejaVuSans-Bold-73" d="M 3272 3391 
L 3272 2541 
Q 2913 2691 2578 2766 
Q 2244 2841 1947 2841 
Q 1628 2841 1473 2761 
Q 1319 2681 1319 2516 
Q 1319 2381 1436 2309 
Q 1553 2238 1856 2203 
L 2053 2175 
Q 2913 2066 3209 1816 
Q 3506 1566 3506 1031 
Q 3506 472 3093 190 
Q 2681 -91 1863 -91 
Q 1516 -91 1145 -36 
Q 775 19 384 128 
L 384 978 
Q 719 816 1070 734 
Q 1422 653 1784 653 
Q 2113 653 2278 743 
Q 2444 834 2444 1013 
Q 2444 1163 2330 1236 
Q 2216 1309 1875 1350 
L 1678 1375 
Q 931 1469 631 1722 
Q 331 1975 331 2491 
Q 331 3047 712 3315 
Q 1094 3584 1881 3584 
Q 2191 3584 2531 3537 
Q 2872 3491 3272 3391 
z
" transform="scale(0.015625)"/>
      <path id="DejaVuSans-Bold-65" d="M 4031 1759 
L 4031 1441 
L 1416 1441 
Q 1456 1047 1700 850 
Q 1944 653 2381 653 
Q 2734 653 3104 758 
Q 3475 863 3866 1075 
L 3866 213 
Q 3469 63 3072 -14 
Q 2675 -91 2278 -91 
Q 1328 -91 801 392 
Q 275 875 275 1747 
Q 275 2603 792 3093 
Q 1309 3584 2216 3584 
Q 3041 3584 3536 3087 
Q 4031 2591 4031 1759 
z
M 2881 2131 
Q 2881 2450 2695 2645 
Q 2509 2841 2209 2841 
Q 1884 2841 1681 2658 
Q 1478 2475 1428 2131 
L 2881 2131 
z
" transform="scale(0.015625)"/>
      <path id="DejaVuSans-Bold-72" d="M 3138 2547 
Q 2991 2616 2845 2648 
Q 2700 2681 2553 2681 
Q 2122 2681 1889 2404 
Q 1656 2128 1656 1613 
L 1656 0 
L 538 0 
L 538 3500 
L 1656 3500 
L 1656 2925 
Q 1872 3269 2151 3426 
Q 2431 3584 2822 3584 
Q 2878 3584 2943 3579 
Q 3009 3575 3134 3559 
L 3138 2547 
z
" transform="scale(0.015625)"/>
      <path id="DejaVuSans-Bold-76" d="M 97 3500 
L 1216 3500 
L 2088 1081 
L 2956 3500 
L 4078 3500 
L 2700 0 
L 1472 0 
L 97 3500 
z
" transform="scale(0.015625)"/>
      <path id="DejaVuSans-Bold-74" d="M 1759 4494 
L 1759 3500 
L 2913 3500 
L 2913 2700 
L 1759 2700 
L 1759 1216 
Q 1759 972 1856 886 
Q 1953 800 2241 800 
L 2816 800 
L 2816 0 
L 1856 0 
Q 1194 0 917 276 
Q 641 553 641 1216 
L 641 2700 
L 84 2700 
L 84 3500 
L 641 3500 
L 641 4494 
L 1759 4494 
z
" transform="scale(0.015625)"/>
      <path id="DejaVuSans-Bold-6f" d="M 2203 2784 
Q 1831 2784 1636 2517 
Q 1441 2250 1441 1747 
Q 1441 1244 1636 976 
Q 1831 709 2203 709 
Q 2569 709 2762 976 
Q 2956 1244 2956 1747 
Q 2956 2250 2762 2517 
Q 2569 2784 2203 2784 
z
M 2203 3584 
Q 3106 3584 3614 3096 
Q 4122 2609 4122 1747 
Q 4122 884 3614 396 
Q 3106 -91 2203 -91 
Q 1297 -91 786 396 
Q 275 884 275 1747 
Q 275 2609 786 3096 
Q 1297 3584 2203 3584 
z
" transform="scale(0.015625)"/>
      <path id="DejaVuSans-Bold-79" d="M 78 3500 
L 1197 3500 
L 2138 1125 
L 2938 3500 
L 4056 3500 
L 2584 -331 
Q 2363 -916 2067 -1148 
Q 1772 -1381 1288 -1381 
L 641 -1381 
L 641 -647 
L 991 -647 
Q 1275 -647 1404 -556 
Q 1534 -466 1606 -231 
L 1638 -134 
L 78 3500 
z
" transform="scale(0.015625)"/>
      <path id="DejaVuSans-Bold-2014" d="M 344 2156 
L 6056 2156 
L 6056 1350 
L 344 1350 
L 344 2156 
z
" transform="scale(0.015625)"/>
      <path id="DejaVuSans-Bold-63" d="M 3366 3391 
L 3366 2478 
Q 3138 2634 2908 2709 
Q 2678 2784 2431 2784 
Q 1963 2784 1702 2511 
Q 1441 2238 1441 1747 
Q 1441 1256 1702 982 
Q 1963 709 2431 709 
Q 2694 709 2930 787 
Q 3166 866 3366 1019 
L 3366 103 
Q 3103 6 2833 -42 
Q 2563 -91 2291 -91 
Q 1344 -91 809 395 
Q 275 881 275 1747 
Q 275 2613 809 3098 
Q 1344 3584 2291 3584 
Q 2566 3584 2833 3536 
Q 3100 3488 3366 3391 
z
" transform="scale(0.015625)"/>
      <path id="DejaVuSans-Bold-6d" d="M 3781 2919 
Q 3994 3244 4286 3414 
Q 4578 3584 4928 3584 
Q 5531 3584 5847 3212 
Q 6163 2841 6163 2131 
L 6163 0 
L 5038 0 
L 5038 1825 
Q 5041 1866 5042 1909 
Q 5044 1953 5044 2034 
Q 5044 2406 4934 2573 
Q 4825 2741 4581 2741 
Q 4263 2741 4089 2478 
Q 3916 2216 3909 1719 
L 3909 0 
L 2784 0 
L 2784 1825 
Q 2784 2406 2684 2573 
Q 2584 2741 2328 2741 
Q 2006 2741 1831 2477 
Q 1656 2213 1656 1722 
L 1656 0 
L 531 0 
L 531 3500 
L 1656 3500 
L 1656 2988 
Q 1863 3284 2130 3434 
Q 2397 3584 2719 3584 
Q 3081 3584 3359 3409 
Q 3638 3234 3781 2919 
z
" transform="scale(0.015625)"/>
      <path id="DejaVuSans-Bold-70" d="M 1656 506 
L 1656 -1331 
L 538 -1331 
L 538 3500 
L 1656 3500 
L 1656 2988 
Q 1888 3294 2169 3439 
Q 2450 3584 2816 3584 
Q 3463 3584 3878 3070 
Q 4294 2556 4294 1747 
Q 4294 938 3878 423 
Q 3463 -91 2816 -91 
Q 2450 -91 2169 54 
Q 1888 200 1656 506 
z
M 2400 2772 
Q 2041 2772 1848 2508 
Q 1656 2244 1656 1747 
Q 1656 1250 1848 986 
Q 2041 722 2400 722 
Q 2759 722 2948 984 
Q 3138 1247 3138 1747 
Q 3138 2247 2948 2509 
Q 2759 2772 2400 2772 
z
" transform="scale(0.015625)"/>
      <path id="DejaVuSans-Bold-75" d="M 500 1363 
L 500 3500 
L 1625 3500 
L 1625 3150 
Q 1625 2866 1622 2436 
Q 1619 2006 1619 1863 
Q 1619 1441 1641 1255 
Q 1663 1069 1716 984 
Q 1784 875 1895 815 
Q 2006 756 2150 756 
Q 2500 756 2700 1025 
Q 2900 1294 2900 1772 
L 2900 3500 
L 4019 3500 
L 4019 0 
L 2900 0 
L 2900 506 
Q 2647 200 2364 54 
Q 2081 -91 1741 -91 
Q 1134 -91 817 281 
Q 500 653 500 1363 
z
" transform="scale(0.015625)"/>
      <path id="DejaVuSans-Bold-6c" d="M 538 4863 
L 1656 4863 
L 1656 0 
L 538 0 
L 538 4863 
z
" transform="scale(0.015625)"/>
     </defs>
     <use xlink:href="#DejaVuSans-Bold-43"/>
     <use xlink:href="#DejaVuSans-Bold-61" x="73.388672"/>
     <use xlink:href="#DejaVuSans-Bold-6e" x="140.869141"/>
     <use xlink:href="#DejaVuSans-Bold-61" x="212.060547"/>
     <use xlink:href="#DejaVuSans-Bold-64" x="279.541016"/>
     <use xlink:href="#DejaVuSans-Bold-61" x="351.123047"/>
     <use xlink:href="#DejaVuSans-Bold-20" x="418.603516"/>
     <use xlink:href="#DejaVuSans-Bold-4f" x="453.417969"/>
     <use xlink:href="#DejaVuSans-Bold-62" x="538.427734"/>
     <use xlink:href="#DejaVuSans-Bold-73" x="610.009766"/>
     <use xlink:href="#DejaVuSans-Bold-65" x="669.53125"/>
     <use xlink:href="#DejaVuSans-Bold-72" x="737.353516"/>
     <use xlink:href="#DejaVuSans-Bold-76" x="786.669922"/>
     <use xlink:href="#DejaVuSans-Bold-61" x="851.855469"/>
     <use xlink:href="#DejaVuSans-Bold-74" x="919.335938"/>
     <use xlink:href="#DejaVuSans-Bold-6f" x="967.138672"/>
     <use xlink:href="#DejaVuSans-Bold-72" x="1035.839844"/>
     <use xlink:href="#DejaVuSans-Bold-79" x="1085.15625"/>
     <use xlink:href="#DejaVuSans-Bold-20" x="1150.341797"/>
     <use xlink:href="#DejaVuSans-Bold-2014" x="1185.15625"/>
     <use xlink:href="#DejaVuSans-Bold-20" x="1285.15625"/>
     <use xlink:href="#DejaVuSans-Bold-63" x="1319.970703"/>
     <use xlink:href="#DejaVuSans-Bold-6f" x="1379.248047"/>
     <use xlink:href="#DejaVuSans-Bold-6d" x="1447.949219"/>
     <use xlink:href="#DejaVuSans-Bold-70" x="1552.148438"/>
     <use xlink:href="#DejaVuSans-Bold-61" x="1623.730469"/>
     <use xlink:href="#DejaVuSans-Bold-72" x="1691.210938"/>
     <use xlink:href="#DejaVuSans-Bold-61" x="1740.527344"/>
     <use xlink:href="#DejaVuSans-Bold-74" x="1808.007812"/>
     <use xlink:href="#DejaVuSans-Bold-6f" x="1855.810547"/>
     <use xlink:href="#DejaVuSans-Bold-72" x="1924.511719"/>
     <use xlink:href="#DejaVuSans-Bold-20" x="1973.828125"/>
     <use xlink:href="#DejaVuSans-Bold-63" x="2008.642578"/>
     <use xlink:href="#DejaVuSans-Bold-6f" x="2067.919922"/>
     <use xlink:href="#DejaVuSans-Bold-75" x="2136.621094"/>
     <use xlink:href="#DejaVuSans-Bold-6e" x="2207.8125"/>
     <use xlink:href="#DejaVuSans-Bold-74" x="2279.003906"/>
     <use xlink:href="#DejaVuSans-Bold-72" x="2326.806641"/>
     <use xlink:href="#DejaVuSans-Bold-79" x="2376.123047"/>
     <use xlink:href="#DejaVuSans-Bold-20" x="2441.308594"/>
     <use xlink:href="#DejaVuSans-Bold-63" x="2476.123047"/>
     <use xlink:href="#DejaVuSans-Bold-6f" x="2535.400391"/>
     <use xlink:href="#DejaVuSans-Bold-6c" x="2604.101562"/>
     <use xlink:href="#DejaVuSans-Bold-6f" x="2638.378906"/>
     <use xlink:href="#DejaVuSans-Bold-75" x="2707.080078"/>
     <use xlink:href="#DejaVuSans-Bold-72" x="2778.271484"/>
     <use xlink:href="#DejaVuSans-Bold-73" x="2827.587891"/>
    </g>
   </g>
   <g id="text_2">
    <!-- Canada + key comparators  (always shown in colour) -->
    <g style="fill: #7a263a" transform="translate(23.103 50.66496) scale(0.11 -0.11)">
     <defs>
      <path id="DejaVuSans-Bold-2b" d="M 3053 4013 
L 3053 2375 
L 4684 2375 
L 4684 1638 
L 3053 1638 
L 3053 0 
L 2309 0 
L 2309 1638 
L 678 1638 
L 678 2375 
L 2309 2375 
L 2309 4013 
L 3053 4013 
z
" transform="scale(0.015625)"/>
      <path id="DejaVuSans-Bold-6b" d="M 538 4863 
L 1656 4863 
L 1656 2216 
L 2944 3500 
L 4244 3500 
L 2534 1894 
L 4378 0 
L 3022 0 
L 1656 1459 
L 1656 0 
L 538 0 
L 538 4863 
z
" transform="scale(0.015625)"/>
      <path id="DejaVuSans-Bold-28" d="M 2413 -844 
L 1484 -844 
Q 1006 -72 778 623 
Q 550 1319 550 2003 
Q 550 2688 779 3389 
Q 1009 4091 1484 4856 
L 2413 4856 
Q 2013 4116 1813 3408 
Q 1613 2700 1613 2009 
Q 1613 1319 1811 609 
Q 2009 -100 2413 -844 
z
" transform="scale(0.015625)"/>
      <path id="DejaVuSans-Bold-77" d="M 225 3500 
L 1313 3500 
L 1900 1088 
L 2491 3500 
L 3425 3500 
L 4013 1113 
L 4603 3500 
L 5691 3500 
L 4769 0 
L 3547 0 
L 2956 2406 
L 2369 0 
L 1147 0 
L 225 3500 
z
" transform="scale(0.015625)"/>
      <path id="DejaVuSans-Bold-68" d="M 4056 2131 
L 4056 0 
L 2931 0 
L 2931 347 
L 2931 1625 
Q 2931 2084 2911 2256 
Q 2891 2428 2841 2509 
Q 2775 2619 2662 2680 
Q 2550 2741 2406 2741 
Q 2056 2741 1856 2470 
Q 1656 2200 1656 1722 
L 1656 0 
L 538 0 
L 538 4863 
L 1656 4863 
L 1656 2988 
Q 1909 3294 2193 3439 
Q 2478 3584 2822 3584 
Q 3428 3584 3742 3212 
Q 4056 2841 4056 2131 
z
" transform="scale(0.015625)"/>
      <path id="DejaVuSans-Bold-69" d="M 538 3500 
L 1656 3500 
L 1656 0 
L 538 0 
L 538 3500 
z
M 538 4863 
L 1656 4863 
L 1656 3950 
L 538 3950 
L 538 4863 
z
" transform="scale(0.015625)"/>
      <path id="DejaVuSans-Bold-29" d="M 513 -844 
Q 913 -100 1113 609 
Q 1313 1319 1313 2009 
Q 1313 2700 1113 3408 
Q 913 4116 513 4856 
L 1441 4856 
Q 1916 4091 2145 3389 
Q 2375 2688 2375 2003 
Q 2375 1319 2147 623 
Q 1919 -72 1441 -844 
L 513 -844 
z
" transform="scale(0.015625)"/>
     </defs>
     <use xlink:href="#DejaVuSans-Bold-43"/>
     <use xlink:href="#DejaVuSans-Bold-61" x="73.388672"/>
     <use xlink:href="#DejaVuSans-Bold-6e" x="140.869141"/>
     <use xlink:href="#DejaVuSans-Bold-61" x="212.060547"/>
     <use xlink:href="#DejaVuSans-Bold-64" x="279.541016"/>
     <use xlink:href="#DejaVuSans-Bold-61" x="351.123047"/>
     <use xlink:href="#DejaVuSans-Bold-20" x="418.603516"/>
     <use xlink:href="#DejaVuSans-Bold-2b" x="453.417969"/>
     <use xlink:href="#DejaVuSans-Bold-20" x="537.207031"/>
     <use xlink:href="#DejaVuSans-Bold-6b" x="572.021484"/>
     <use xlink:href="#DejaVuSans-Bold-65" x="635.900391"/>
     <use xlink:href="#DejaVuSans-Bold-79" x="703.722656"/>
     <use xlink:href="#DejaVuSans-Bold-20" x="768.908203"/>
     <use xlink:href="#DejaVuSans-Bold-63" x="803.722656"/>
     <use xlink:href="#DejaVuSans-Bold-6f" x="863"/>
     <use xlink:href="#DejaVuSans-Bold-6d" x="931.701172"/>
     <use xlink:href="#DejaVuSans-Bold-70" x="1035.900391"/>
     <use xlink:href="#DejaVuSans-Bold-61" x="1107.482422"/>
     <use xlink:href="#DejaVuSans-Bold-72" x="1174.962891"/>
     <use xlink:href="#DejaVuSans-Bold-61" x="1224.279297"/>
     <use xlink:href="#DejaVuSans-Bold-74" x="1291.759766"/>
     <use xlink:href="#DejaVuSans-Bold-6f" x="1339.5625"/>
     <use xlink:href="#DejaVuSans-Bold-72" x="1408.263672"/>
     <use xlink:href="#DejaVuSans-Bold-73" x="1457.580078"/>
     <use xlink:href="#DejaVuSans-Bold-20" x="1517.101562"/>
     <use xlink:href="#DejaVuSans-Bold-20" x="1551.916016"/>
     <use xlink:href="#DejaVuSans-Bold-28" x="1586.730469"/>
     <use xlink:href="#DejaVuSans-Bold-61" x="1632.433594"/>
     <use xlink:href="#DejaVuSans-Bold-6c" x="1699.914062"/>
     <use xlink:href="#DejaVuSans-Bold-77" x="1734.191406"/>
     <use xlink:href="#DejaVuSans-Bold-61" x="1826.574219"/>
     <use xlink:href="#DejaVuSans-Bold-79" x="1890.929688"/>
     <use xlink:href="#DejaVuSans-Bold-73" x="1956.115234"/>
     <use xlink:href="#DejaVuSans-Bold-20" x="2015.636719"/>
     <use xlink:href="#DejaVuSans-Bold-73" x="2050.451172"/>
     <use xlink:href="#DejaVuSans-Bold-68" x="2109.972656"/>
     <use xlink:href="#DejaVuSans-Bold-6f" x="2181.164062"/>
     <use xlink:href="#DejaVuSans-Bold-77" x="2249.865234"/>
     <use xlink:href="#DejaVuSans-Bold-6e" x="2342.248047"/>
     <use xlink:href="#DejaVuSans-Bold-20" x="2413.439453"/>
     <use xlink:href="#DejaVuSans-Bold-69" x="2448.253906"/>
     <use xlink:href="#DejaVuSans-Bold-6e" x="2482.53125"/>
     <use xlink:href="#DejaVuSans-Bold-20" x="2553.722656"/>
     <use xlink:href="#DejaVuSans-Bold-63" x="2588.537109"/>
     <use xlink:href="#DejaVuSans-Bold-6f" x="2647.814453"/>
     <use xlink:href="#DejaVuSans-Bold-6c" x="2716.515625"/>
     <use xlink:href="#DejaVuSans-Bold-6f" x="2750.792969"/>
     <use xlink:href="#DejaVuSans-Bold-75" x="2819.494141"/>
     <use xlink:href="#DejaVuSans-Bold-72" x="2890.685547"/>
     <use xlink:href="#DejaVuSans-Bold-29" x="2940.001953"/>
    </g>
   </g>
   <g id="text_3">
    <!-- Canada -->
    <g style="fill: #17324d" transform="translate(86.715 75.846659) scale(0.125 -0.125)">
     <use xlink:href="#DejaVuSans-Bold-43"/>
     <use xlink:href="#DejaVuSans-Bold-61" x="73.388672"/>
     <use xlink:href="#DejaVuSans-Bold-6e" x="140.869141"/>
     <use xlink:href="#DejaVuSans-Bold-61" x="212.060547"/>
     <use xlink:href="#DejaVuSans-Bold-64" x="279.541016"/>
     <use xlink:href="#DejaVuSans-Bold-61" x="351.123047"/>
    </g>
   </g>
   <g id="text_4">
    <!-- #7A263A -->
    <g style="fill: #555555" transform="translate(346.464 75.322674) scale(0.105 -0.105)">
     <defs>
      <path id="DejaVuSansMono-23" d="M 2138 4594 
L 1813 3297 
L 2578 3297 
L 2906 4594 
L 3406 4594 
L 3078 3297 
L 3841 3297 
L 3841 2816 
L 2963 2816 
L 2700 1772 
L 3481 1772 
L 3481 1294 
L 2578 1294 
L 2253 0 
L 1753 0 
L 2081 1294 
L 1313 1294 
L 984 0 
L 488 0 
L 813 1294 
L 6 1294 
L 6 1772 
L 934 1772 
L 1197 2816 
L 366 2816 
L 366 3297 
L 1313 3297 
L 1638 4594 
L 2138 4594 
z
M 2463 2816 
L 1697 2816 
L 1434 1772 
L 2203 1772 
L 2463 2816 
z
" transform="scale(0.015625)"/>
      <path id="DejaVuSansMono-37" d="M 434 4666 
L 3372 4666 
L 3372 4397 
L 1703 0 
L 1044 0 
L 2669 4134 
L 434 4134 
L 434 4666 
z
" transform="scale(0.015625)"/>
      <path id="DejaVuSansMono-41" d="M 1925 4109 
L 1259 1722 
L 2591 1722 
L 1925 4109 
z
M 1544 4666 
L 2309 4666 
L 3738 0 
L 3084 0 
L 2741 1216 
L 1106 1216 
L 769 0 
L 116 0 
L 1544 4666 
z
" transform="scale(0.015625)"/>
      <path id="DejaVuSansMono-32" d="M 1166 531 
L 3309 531 
L 3309 0 
L 475 0 
L 475 531 
Q 1059 1147 1496 1619 
Q 1934 2091 2100 2284 
Q 2413 2666 2522 2902 
Q 2631 3138 2631 3384 
Q 2631 3775 2401 3997 
Q 2172 4219 1772 4219 
Q 1488 4219 1175 4116 
Q 863 4013 513 3803 
L 513 4441 
Q 834 4594 1145 4672 
Q 1456 4750 1759 4750 
Q 2444 4750 2861 4386 
Q 3278 4022 3278 3431 
Q 3278 3131 3139 2831 
Q 3000 2531 2688 2169 
Q 2513 1966 2180 1606 
Q 1847 1247 1166 531 
z
" transform="scale(0.015625)"/>
      <path id="DejaVuSansMono-36" d="M 3097 4563 
L 3097 3981 
Q 2900 4097 2678 4158 
Q 2456 4219 2216 4219 
Q 1616 4219 1306 3767 
Q 997 3316 997 2438 
Q 1147 2750 1412 2917 
Q 1678 3084 2022 3084 
Q 2697 3084 3067 2670 
Q 3438 2256 3438 1497 
Q 3438 741 3056 325 
Q 2675 -91 1984 -91 
Q 1172 -91 794 492 
Q 416 1075 416 2328 
Q 416 3509 870 4129 
Q 1325 4750 2188 4750 
Q 2419 4750 2650 4701 
Q 2881 4653 3097 4563 
z
M 1972 2591 
Q 1569 2591 1337 2300 
Q 1106 2009 1106 1497 
Q 1106 984 1337 693 
Q 1569 403 1972 403 
Q 2391 403 2603 679 
Q 2816 956 2816 1497 
Q 2816 2041 2603 2316 
Q 2391 2591 1972 2591 
z
" transform="scale(0.015625)"/>
      <path id="DejaVuSansMono-33" d="M 2425 2497 
Q 2884 2375 3128 2064 
Q 3372 1753 3372 1288 
Q 3372 644 2939 276 
Q 2506 -91 1741 -91 
Q 1419 -91 1084 -31 
Q 750 28 428 141 
L 428 769 
Q 747 603 1056 522 
Q 1366 441 1672 441 
Q 2191 441 2469 675 
Q 2747 909 2747 1350 
Q 2747 1756 2469 1995 
Q 2191 2234 1716 2234 
L 1234 2234 
L 1234 2753 
L 1716 2753 
Q 2150 2753 2394 2943 
Q 2638 3134 2638 3475 
Q 2638 3834 2411 4026 
Q 2184 4219 1766 4219 
Q 1488 4219 1191 4156 
Q 894 4094 569 3969 
L 569 4550 
Q 947 4650 1242 4700 
Q 1538 4750 1766 4750 
Q 2447 4750 2855 4408 
Q 3263 4066 3263 3500 
Q 3263 3116 3048 2859 
Q 2834 2603 2425 2497 
z
" transform="scale(0.015625)"/>
     </defs>
     <use xlink:href="#DejaVuSansMono-23"/>
     <use xlink:href="#DejaVuSansMono-37" x="60.205078"/>
     <use xlink:href="#DejaVuSansMono-41" x="120.410156"/>
     <use xlink:href="#DejaVuSansMono-32" x="180.615234"/>
     <use xlink:href="#DejaVuSansMono-36" x="240.820312"/>
     <use xlink:href="#DejaVuSansMono-33" x="301.025391"/>
     <use xlink:href="#DejaVuSansMono-41" x="361.230469"/>
    </g>
   </g>
   <g id="text_5">
    <!-- United States -->
    <g style="fill: #17324d" transform="translate(86.715 98.122451) scale(0.125 -0.125)">
     <defs>
      <path id="DejaVuSans-Bold-55" d="M 588 4666 
L 1791 4666 
L 1791 1869 
Q 1791 1291 1980 1042 
Q 2169 794 2597 794 
Q 3028 794 3217 1042 
Q 3406 1291 3406 1869 
L 3406 4666 
L 4609 4666 
L 4609 1869 
Q 4609 878 4112 393 
Q 3616 -91 2597 -91 
Q 1581 -91 1084 393 
Q 588 878 588 1869 
L 588 4666 
z
" transform="scale(0.015625)"/>
      <path id="DejaVuSans-Bold-53" d="M 3834 4519 
L 3834 3531 
Q 3450 3703 3084 3790 
Q 2719 3878 2394 3878 
Q 1963 3878 1756 3759 
Q 1550 3641 1550 3391 
Q 1550 3203 1689 3098 
Q 1828 2994 2194 2919 
L 2706 2816 
Q 3484 2659 3812 2340 
Q 4141 2022 4141 1434 
Q 4141 663 3683 286 
Q 3225 -91 2284 -91 
Q 1841 -91 1394 -6 
Q 947 78 500 244 
L 500 1259 
Q 947 1022 1364 901 
Q 1781 781 2169 781 
Q 2563 781 2772 912 
Q 2981 1044 2981 1288 
Q 2981 1506 2839 1625 
Q 2697 1744 2272 1838 
L 1806 1941 
Q 1106 2091 782 2419 
Q 459 2747 459 3303 
Q 459 4000 909 4375 
Q 1359 4750 2203 4750 
Q 2588 4750 2994 4692 
Q 3400 4634 3834 4519 
z
" transform="scale(0.015625)"/>
     </defs>
     <use xlink:href="#DejaVuSans-Bold-55"/>
     <use xlink:href="#DejaVuSans-Bold-6e" x="81.201172"/>
     <use xlink:href="#DejaVuSans-Bold-69" x="152.392578"/>
     <use xlink:href="#DejaVuSans-Bold-74" x="186.669922"/>
     <use xlink:href="#DejaVuSans-Bold-65" x="234.472656"/>
     <use xlink:href="#DejaVuSans-Bold-64" x="302.294922"/>
     <use xlink:href="#DejaVuSans-Bold-20" x="373.876953"/>
     <use xlink:href="#DejaVuSans-Bold-53" x="408.691406"/>
     <use xlink:href="#DejaVuSans-Bold-74" x="480.712891"/>
     <use xlink:href="#DejaVuSans-Bold-61" x="528.515625"/>
     <use xlink:href="#DejaVuSans-Bold-74" x="595.996094"/>
     <use xlink:href="#DejaVuSans-Bold-65" x="643.798828"/>
     <use xlink:href="#DejaVuSans-Bold-73" x="711.621094"/>
    </g>
   </g>
   <g id="text_6">
    <!-- #0650A3 -->
    <g style="fill: #555555" transform="translate(346.464 97.598466) scale(0.105 -0.105)">
     <defs>
      <path id="DejaVuSansMono-30" d="M 1509 2344 
Q 1509 2516 1629 2641 
Q 1750 2766 1919 2766 
Q 2094 2766 2219 2641 
Q 2344 2516 2344 2344 
Q 2344 2169 2220 2047 
Q 2097 1925 1919 1925 
Q 1744 1925 1626 2044 
Q 1509 2163 1509 2344 
z
M 1925 4250 
Q 1484 4250 1267 3775 
Q 1050 3300 1050 2328 
Q 1050 1359 1267 884 
Q 1484 409 1925 409 
Q 2369 409 2586 884 
Q 2803 1359 2803 2328 
Q 2803 3300 2586 3775 
Q 2369 4250 1925 4250 
z
M 1925 4750 
Q 2672 4750 3055 4137 
Q 3438 3525 3438 2328 
Q 3438 1134 3055 521 
Q 2672 -91 1925 -91 
Q 1178 -91 797 521 
Q 416 1134 416 2328 
Q 416 3525 797 4137 
Q 1178 4750 1925 4750 
z
" transform="scale(0.015625)"/>
      <path id="DejaVuSansMono-35" d="M 647 4666 
L 3009 4666 
L 3009 4134 
L 1222 4134 
L 1222 2988 
Q 1356 3038 1492 3061 
Q 1628 3084 1766 3084 
Q 2491 3084 2916 2656 
Q 3341 2228 3341 1497 
Q 3341 759 2895 334 
Q 2450 -91 1678 -91 
Q 1306 -91 998 -41 
Q 691 9 447 109 
L 447 750 
Q 734 594 1025 517 
Q 1316 441 1619 441 
Q 2141 441 2423 716 
Q 2706 991 2706 1497 
Q 2706 1997 2414 2275 
Q 2122 2553 1600 2553 
Q 1347 2553 1106 2495 
Q 866 2438 647 2322 
L 647 4666 
z
" transform="scale(0.015625)"/>
     </defs>
     <use xlink:href="#DejaVuSansMono-23"/>
     <use xlink:href="#DejaVuSansMono-30" x="60.205078"/>
     <use xlink:href="#DejaVuSansMono-36" x="120.410156"/>
     <use xlink:href="#DejaVuSansMono-35" x="180.615234"/>
     <use xlink:href="#DejaVuSansMono-30" x="240.820312"/>
     <use xlink:href="#DejaVuSansMono-41" x="301.025391"/>
     <use xlink:href="#DejaVuSansMono-33" x="361.230469"/>
    </g>
   </g>
   <g id="text_7">
    <!-- Australia -->
    <g style="fill: #17324d" transform="translate(86.715 120.398243) scale(0.125 -0.125)">
     <defs>
      <path id="DejaVuSans-Bold-41" d="M 3419 850 
L 1538 850 
L 1241 0 
L 31 0 
L 1759 4666 
L 3194 4666 
L 4922 0 
L 3713 0 
L 3419 850 
z
M 1838 1716 
L 3116 1716 
L 2478 3572 
L 1838 1716 
z
" transform="scale(0.015625)"/>
     </defs>
     <use xlink:href="#DejaVuSans-Bold-41"/>
     <use xlink:href="#DejaVuSans-Bold-75" x="77.392578"/>
     <use xlink:href="#DejaVuSans-Bold-73" x="148.583984"/>
     <use xlink:href="#DejaVuSans-Bold-74" x="208.105469"/>
     <use xlink:href="#DejaVuSans-Bold-72" x="255.908203"/>
     <use xlink:href="#DejaVuSans-Bold-61" x="305.224609"/>
     <use xlink:href="#DejaVuSans-Bold-6c" x="372.705078"/>
     <use xlink:href="#DejaVuSans-Bold-69" x="406.982422"/>
     <use xlink:href="#DejaVuSans-Bold-61" x="441.259766"/>
    </g>
   </g>
   <g id="text_8">
    <!-- #C77109 -->
    <g style="fill: #555555" transform="translate(346.464 119.874258) scale(0.105 -0.105)">
     <defs>
      <path id="DejaVuSansMono-43" d="M 3353 166 
Q 3113 38 2859 -26 
Q 2606 -91 2322 -91 
Q 1425 -91 929 543 
Q 434 1178 434 2328 
Q 434 3472 932 4111 
Q 1431 4750 2322 4750 
Q 2606 4750 2859 4686 
Q 3113 4622 3353 4494 
L 3353 3847 
Q 3122 4038 2856 4138 
Q 2591 4238 2322 4238 
Q 1706 4238 1400 3763 
Q 1094 3288 1094 2328 
Q 1094 1372 1400 897 
Q 1706 422 2322 422 
Q 2597 422 2861 522 
Q 3125 622 3353 813 
L 3353 166 
z
" transform="scale(0.015625)"/>
      <path id="DejaVuSansMono-31" d="M 844 531 
L 1825 531 
L 1825 4097 
L 769 3859 
L 769 4434 
L 1819 4666 
L 2450 4666 
L 2450 531 
L 3419 531 
L 3419 0 
L 844 0 
L 844 531 
z
" transform="scale(0.015625)"/>
      <path id="DejaVuSansMono-39" d="M 1863 2069 
Q 2266 2069 2495 2359 
Q 2725 2650 2725 3163 
Q 2725 3675 2495 3965 
Q 2266 4256 1863 4256 
Q 1444 4256 1231 3979 
Q 1019 3703 1019 3163 
Q 1019 2619 1230 2344 
Q 1441 2069 1863 2069 
z
M 738 97 
L 738 678 
Q 934 563 1156 502 
Q 1378 441 1619 441 
Q 2219 441 2526 892 
Q 2834 1344 2834 2222 
Q 2688 1909 2422 1742 
Q 2156 1575 1813 1575 
Q 1138 1575 767 1990 
Q 397 2406 397 3169 
Q 397 3922 776 4336 
Q 1156 4750 1850 4750 
Q 2663 4750 3041 4165 
Q 3419 3581 3419 2328 
Q 3419 1150 2964 529 
Q 2509 -91 1644 -91 
Q 1416 -91 1184 -42 
Q 953 6 738 97 
z
" transform="scale(0.015625)"/>
     </defs>
     <use xlink:href="#DejaVuSansMono-23"/>
     <use xlink:href="#DejaVuSansMono-43" x="60.205078"/>
     <use xlink:href="#DejaVuSansMono-37" x="120.410156"/>
     <use xlink:href="#DejaVuSansMono-37" x="180.615234"/>
     <use xlink:href="#DejaVuSansMono-31" x="240.820312"/>
     <use xlink:href="#DejaVuSansMono-30" x="301.025391"/>
     <use xlink:href="#DejaVuSansMono-39" x="361.230469"/>
    </g>
   </g>
   <g id="text_9">
    <!-- Germany -->
    <g style="fill: #17324d" transform="translate(86.715 142.576378) scale(0.125 -0.125)">
     <defs>
      <path id="DejaVuSans-Bold-47" d="M 4781 347 
Q 4331 128 3847 18 
Q 3363 -91 2847 -91 
Q 1681 -91 1000 561 
Q 319 1213 319 2328 
Q 319 3456 1012 4103 
Q 1706 4750 2913 4750 
Q 3378 4750 3804 4662 
Q 4231 4575 4609 4403 
L 4609 3438 
Q 4219 3659 3833 3768 
Q 3447 3878 3059 3878 
Q 2341 3878 1952 3476 
Q 1563 3075 1563 2328 
Q 1563 1588 1938 1184 
Q 2313 781 3003 781 
Q 3191 781 3352 804 
Q 3513 828 3641 878 
L 3641 1784 
L 2906 1784 
L 2906 2591 
L 4781 2591 
L 4781 347 
z
" transform="scale(0.015625)"/>
     </defs>
     <use xlink:href="#DejaVuSans-Bold-47"/>
     <use xlink:href="#DejaVuSans-Bold-65" x="82.080078"/>
     <use xlink:href="#DejaVuSans-Bold-72" x="149.902344"/>
     <use xlink:href="#DejaVuSans-Bold-6d" x="199.21875"/>
     <use xlink:href="#DejaVuSans-Bold-61" x="303.417969"/>
     <use xlink:href="#DejaVuSans-Bold-6e" x="370.898438"/>
     <use xlink:href="#DejaVuSans-Bold-79" x="442.089844"/>
    </g>
   </g>
   <g id="text_10">
    <!-- #5C9D6F -->
    <g style="fill: #555555" transform="translate(346.464 142.15005) scale(0.105 -0.105)">
     <defs>
      <path id="DejaVuSansMono-44" d="M 1363 519 
Q 2159 519 2475 911 
Q 2791 1303 2791 2328 
Q 2791 3363 2477 3755 
Q 2163 4147 1363 4147 
L 1063 4147 
L 1063 519 
L 1363 519 
z
M 1375 4666 
Q 2444 4666 2950 4097 
Q 3456 3528 3456 2328 
Q 3456 1134 2950 567 
Q 2444 0 1375 0 
L 428 0 
L 428 4666 
L 1375 4666 
z
" transform="scale(0.015625)"/>
      <path id="DejaVuSansMono-46" d="M 728 4666 
L 3475 4666 
L 3475 4134 
L 1363 4134 
L 1363 2759 
L 3278 2759 
L 3278 2228 
L 1363 2228 
L 1363 0 
L 728 0 
L 728 4666 
z
" transform="scale(0.015625)"/>
     </defs>
     <use xlink:href="#DejaVuSansMono-23"/>
     <use xlink:href="#DejaVuSansMono-35" x="60.205078"/>
     <use xlink:href="#DejaVuSansMono-43" x="120.410156"/>
     <use xlink:href="#DejaVuSansMono-39" x="180.615234"/>
     <use xlink:href="#DejaVuSansMono-44" x="240.820312"/>
     <use xlink:href="#DejaVuSansMono-36" x="301.025391"/>
     <use xlink:href="#DejaVuSansMono-46" x="361.230469"/>
    </g>
   </g>
   <g id="text_11">
    <!-- United Kingdom -->
    <g style="fill: #17324d" transform="translate(86.715 164.900999) scale(0.125 -0.125)">
     <defs>
      <path id="DejaVuSans-Bold-4b" d="M 588 4666 
L 1791 4666 
L 1791 2963 
L 3525 4666 
L 4922 4666 
L 2675 2456 
L 5153 0 
L 3647 0 
L 1791 1838 
L 1791 0 
L 588 0 
L 588 4666 
z
" transform="scale(0.015625)"/>
      <path id="DejaVuSans-Bold-67" d="M 2919 594 
Q 2688 288 2409 144 
Q 2131 0 1766 0 
Q 1125 0 706 504 
Q 288 1009 288 1791 
Q 288 2575 706 3076 
Q 1125 3578 1766 3578 
Q 2131 3578 2409 3434 
Q 2688 3291 2919 2981 
L 2919 3500 
L 4044 3500 
L 4044 353 
Q 4044 -491 3511 -936 
Q 2978 -1381 1966 -1381 
Q 1638 -1381 1331 -1331 
Q 1025 -1281 716 -1178 
L 716 -306 
Q 1009 -475 1290 -558 
Q 1572 -641 1856 -641 
Q 2406 -641 2662 -400 
Q 2919 -159 2919 353 
L 2919 594 
z
M 2181 2772 
Q 1834 2772 1640 2515 
Q 1447 2259 1447 1791 
Q 1447 1309 1634 1061 
Q 1822 813 2181 813 
Q 2531 813 2725 1069 
Q 2919 1325 2919 1791 
Q 2919 2259 2725 2515 
Q 2531 2772 2181 2772 
z
" transform="scale(0.015625)"/>
     </defs>
     <use xlink:href="#DejaVuSans-Bold-55"/>
     <use xlink:href="#DejaVuSans-Bold-6e" x="81.201172"/>
     <use xlink:href="#DejaVuSans-Bold-69" x="152.392578"/>
     <use xlink:href="#DejaVuSans-Bold-74" x="186.669922"/>
     <use xlink:href="#DejaVuSans-Bold-65" x="234.472656"/>
     <use xlink:href="#DejaVuSans-Bold-64" x="302.294922"/>
     <use xlink:href="#DejaVuSans-Bold-20" x="373.876953"/>
     <use xlink:href="#DejaVuSans-Bold-4b" x="408.691406"/>
     <use xlink:href="#DejaVuSans-Bold-69" x="486.181641"/>
     <use xlink:href="#DejaVuSans-Bold-6e" x="520.458984"/>
     <use xlink:href="#DejaVuSans-Bold-67" x="591.650391"/>
     <use xlink:href="#DejaVuSans-Bold-64" x="663.232422"/>
     <use xlink:href="#DejaVuSans-Bold-6f" x="734.814453"/>
     <use xlink:href="#DejaVuSans-Bold-6d" x="803.515625"/>
    </g>
   </g>
   <g id="text_12">
    <!-- #B06487 -->
    <g style="fill: #555555" transform="translate(346.464 164.425842) scale(0.105 -0.105)">
     <defs>
      <path id="DejaVuSansMono-42" d="M 1153 2228 
L 1153 519 
L 1900 519 
Q 2450 519 2684 711 
Q 2919 903 2919 1344 
Q 2919 1800 2672 2014 
Q 2425 2228 1900 2228 
L 1153 2228 
z
M 1153 4147 
L 1153 2741 
L 1888 2741 
Q 2344 2741 2548 2916 
Q 2753 3091 2753 3481 
Q 2753 3834 2551 3990 
Q 2350 4147 1888 4147 
L 1153 4147 
z
M 519 4666 
L 1900 4666 
Q 2616 4666 3003 4356 
Q 3391 4047 3391 3481 
Q 3391 3053 3186 2806 
Q 2981 2559 2572 2497 
Q 3031 2428 3292 2104 
Q 3553 1781 3553 1281 
Q 3553 647 3137 323 
Q 2722 0 1900 0 
L 519 0 
L 519 4666 
z
" transform="scale(0.015625)"/>
      <path id="DejaVuSansMono-34" d="M 2297 4091 
L 825 1625 
L 2297 1625 
L 2297 4091 
z
M 2194 4666 
L 2925 4666 
L 2925 1625 
L 3547 1625 
L 3547 1113 
L 2925 1113 
L 2925 0 
L 2297 0 
L 2297 1113 
L 319 1113 
L 319 1709 
L 2194 4666 
z
" transform="scale(0.015625)"/>
      <path id="DejaVuSansMono-38" d="M 1925 2216 
Q 1503 2216 1273 1980 
Q 1044 1744 1044 1313 
Q 1044 881 1276 642 
Q 1509 403 1925 403 
Q 2350 403 2579 639 
Q 2809 875 2809 1313 
Q 2809 1741 2576 1978 
Q 2344 2216 1925 2216 
z
M 1375 2478 
Q 972 2581 745 2862 
Q 519 3144 519 3541 
Q 519 4097 897 4423 
Q 1275 4750 1925 4750 
Q 2578 4750 2956 4423 
Q 3334 4097 3334 3541 
Q 3334 3144 3107 2862 
Q 2881 2581 2478 2478 
Q 2947 2375 3195 2062 
Q 3444 1750 3444 1253 
Q 3444 622 3041 265 
Q 2638 -91 1925 -91 
Q 1213 -91 811 264 
Q 409 619 409 1247 
Q 409 1747 657 2061 
Q 906 2375 1375 2478 
z
M 1147 3481 
Q 1147 3106 1347 2909 
Q 1547 2713 1925 2713 
Q 2306 2713 2506 2909 
Q 2706 3106 2706 3481 
Q 2706 3863 2507 4063 
Q 2309 4263 1925 4263 
Q 1547 4263 1347 4061 
Q 1147 3859 1147 3481 
z
" transform="scale(0.015625)"/>
     </defs>
     <use xlink:href="#DejaVuSansMono-23"/>
     <use xlink:href="#DejaVuSansMono-42" x="60.205078"/>
     <use xlink:href="#DejaVuSansMono-30" x="120.410156"/>
     <use xlink:href="#DejaVuSansMono-36" x="180.615234"/>
     <use xlink:href="#DejaVuSansMono-34" x="240.820312"/>
     <use xlink:href="#DejaVuSansMono-38" x="301.025391"/>
     <use xlink:href="#DejaVuSansMono-37" x="361.230469"/>
    </g>
   </g>
   <g id="text_13">
    <!-- Sweden -->
    <g style="fill: #17324d" transform="translate(86.715 187.225619) scale(0.125 -0.125)">
     <use xlink:href="#DejaVuSans-Bold-53"/>
     <use xlink:href="#DejaVuSans-Bold-77" x="72.021484"/>
     <use xlink:href="#DejaVuSans-Bold-65" x="164.404297"/>
     <use xlink:href="#DejaVuSans-Bold-64" x="232.226562"/>
     <use xlink:href="#DejaVuSans-Bold-65" x="303.808594"/>
     <use xlink:href="#DejaVuSans-Bold-6e" x="371.630859"/>
    </g>
   </g>
   <g id="text_14">
    <!-- #249FD0 -->
    <g style="fill: #555555" transform="translate(346.464 186.701634) scale(0.105 -0.105)">
     <use xlink:href="#DejaVuSansMono-23"/>
     <use xlink:href="#DejaVuSansMono-32" x="60.205078"/>
     <use xlink:href="#DejaVuSansMono-34" x="120.410156"/>
     <use xlink:href="#DejaVuSansMono-39" x="180.615234"/>
     <use xlink:href="#DejaVuSansMono-46" x="240.820312"/>
     <use xlink:href="#DejaVuSansMono-44" x="301.025391"/>
     <use xlink:href="#DejaVuSansMono-30" x="361.230469"/>
    </g>
   </g>
   <g id="text_15">
    <!-- Other peers  (grey until selected; calmed into the same register) -->
    <g style="fill: #444444" transform="translate(23.103 219.634992) scale(0.11 -0.11)">
     <defs>
      <path id="DejaVuSans-Bold-3b" d="M 716 1209 
L 1844 1209 
L 1844 256 
L 1069 -909 
L 403 -909 
L 716 256 
L 716 1209 
z
M 716 3500 
L 1844 3500 
L 1844 2291 
L 716 2291 
L 716 3500 
z
" transform="scale(0.015625)"/>
     </defs>
     <use xlink:href="#DejaVuSans-Bold-4f"/>
     <use xlink:href="#DejaVuSans-Bold-74" x="85.009766"/>
     <use xlink:href="#DejaVuSans-Bold-68" x="132.8125"/>
     <use xlink:href="#DejaVuSans-Bold-65" x="204.003906"/>
     <use xlink:href="#DejaVuSans-Bold-72" x="271.826172"/>
     <use xlink:href="#DejaVuSans-Bold-20" x="321.142578"/>
     <use xlink:href="#DejaVuSans-Bold-70" x="355.957031"/>
     <use xlink:href="#DejaVuSans-Bold-65" x="427.539062"/>
     <use xlink:href="#DejaVuSans-Bold-65" x="495.361328"/>
     <use xlink:href="#DejaVuSans-Bold-72" x="563.183594"/>
     <use xlink:href="#DejaVuSans-Bold-73" x="612.5"/>
     <use xlink:href="#DejaVuSans-Bold-20" x="672.021484"/>
     <use xlink:href="#DejaVuSans-Bold-20" x="706.835938"/>
     <use xlink:href="#DejaVuSans-Bold-28" x="741.650391"/>
     <use xlink:href="#DejaVuSans-Bold-67" x="787.353516"/>
     <use xlink:href="#DejaVuSans-Bold-72" x="858.935547"/>
     <use xlink:href="#DejaVuSans-Bold-65" x="908.251953"/>
     <use xlink:href="#DejaVuSans-Bold-79" x="976.074219"/>
     <use xlink:href="#DejaVuSans-Bold-20" x="1041.259766"/>
     <use xlink:href="#DejaVuSans-Bold-75" x="1076.074219"/>
     <use xlink:href="#DejaVuSans-Bold-6e" x="1147.265625"/>
     <use xlink:href="#DejaVuSans-Bold-74" x="1218.457031"/>
     <use xlink:href="#DejaVuSans-Bold-69" x="1266.259766"/>
     <use xlink:href="#DejaVuSans-Bold-6c" x="1300.537109"/>
     <use xlink:href="#DejaVuSans-Bold-20" x="1334.814453"/>
     <use xlink:href="#DejaVuSans-Bold-73" x="1369.628906"/>
     <use xlink:href="#DejaVuSans-Bold-65" x="1429.150391"/>
     <use xlink:href="#DejaVuSans-Bold-6c" x="1496.972656"/>
     <use xlink:href="#DejaVuSans-Bold-65" x="1531.25"/>
     <use xlink:href="#DejaVuSans-Bold-63" x="1599.072266"/>
     <use xlink:href="#DejaVuSans-Bold-74" x="1658.349609"/>
     <use xlink:href="#DejaVuSans-Bold-65" x="1706.152344"/>
     <use xlink:href="#DejaVuSans-Bold-64" x="1773.974609"/>
     <use xlink:href="#DejaVuSans-Bold-3b" x="1845.556641"/>
     <use xlink:href="#DejaVuSans-Bold-20" x="1885.546875"/>
     <use xlink:href="#DejaVuSans-Bold-63" x="1920.361328"/>
     <use xlink:href="#DejaVuSans-Bold-61" x="1979.638672"/>
     <use xlink:href="#DejaVuSans-Bold-6c" x="2047.119141"/>
     <use xlink:href="#DejaVuSans-Bold-6d" x="2081.396484"/>
     <use xlink:href="#DejaVuSans-Bold-65" x="2185.595703"/>
     <use xlink:href="#DejaVuSans-Bold-64" x="2253.417969"/>
     <use xlink:href="#DejaVuSans-Bold-20" x="2325"/>
     <use xlink:href="#DejaVuSans-Bold-69" x="2359.814453"/>
     <use xlink:href="#DejaVuSans-Bold-6e" x="2394.091797"/>
     <use xlink:href="#DejaVuSans-Bold-74" x="2465.283203"/>
     <use xlink:href="#DejaVuSans-Bold-6f" x="2513.085938"/>
     <use xlink:href="#DejaVuSans-Bold-20" x="2581.787109"/>
     <use xlink:href="#DejaVuSans-Bold-74" x="2616.601562"/>
     <use xlink:href="#DejaVuSans-Bold-68" x="2664.404297"/>
     <use xlink:href="#DejaVuSans-Bold-65" x="2735.595703"/>
     <use xlink:href="#DejaVuSans-Bold-20" x="2803.417969"/>
     <use xlink:href="#DejaVuSans-Bold-73" x="2838.232422"/>
     <use xlink:href="#DejaVuSans-Bold-61" x="2897.753906"/>
     <use xlink:href="#DejaVuSans-Bold-6d" x="2965.234375"/>
     <use xlink:href="#DejaVuSans-Bold-65" x="3069.433594"/>
     <use xlink:href="#DejaVuSans-Bold-20" x="3137.255859"/>
     <use xlink:href="#DejaVuSans-Bold-72" x="3172.070312"/>
     <use xlink:href="#DejaVuSans-Bold-65" x="3221.386719"/>
     <use xlink:href="#DejaVuSans-Bold-67" x="3289.208984"/>
     <use xlink:href="#DejaVuSans-Bold-69" x="3360.791016"/>
     <use xlink:href="#DejaVuSans-Bold-73" x="3395.068359"/>
     <use xlink:href="#DejaVuSans-Bold-74" x="3454.589844"/>
     <use xlink:href="#DejaVuSans-Bold-65" x="3502.392578"/>
     <use xlink:href="#DejaVuSans-Bold-72" x="3570.214844"/>
     <use xlink:href="#DejaVuSans-Bold-29" x="3619.53125"/>
    </g>
   </g>
   <g id="text_16">
    <!-- Japan -->
    <g style="fill: #17324d" transform="translate(86.715 247.119344) scale(0.11 -0.11)">
     <defs>
      <path id="DejaVuSans-4a" d="M 628 4666 
L 1259 4666 
L 1259 325 
Q 1259 -519 939 -900 
Q 619 -1281 -91 -1281 
L -331 -1281 
L -331 -750 
L -134 -750 
Q 284 -750 456 -515 
Q 628 -281 628 325 
L 628 4666 
z
" transform="scale(0.015625)"/>
      <path id="DejaVuSans-61" d="M 2194 1759 
Q 1497 1759 1228 1600 
Q 959 1441 959 1056 
Q 959 750 1161 570 
Q 1363 391 1709 391 
Q 2188 391 2477 730 
Q 2766 1069 2766 1631 
L 2766 1759 
L 2194 1759 
z
M 3341 1997 
L 3341 0 
L 2766 0 
L 2766 531 
Q 2569 213 2275 61 
Q 1981 -91 1556 -91 
Q 1019 -91 701 211 
Q 384 513 384 1019 
Q 384 1609 779 1909 
Q 1175 2209 1959 2209 
L 2766 2209 
L 2766 2266 
Q 2766 2663 2505 2880 
Q 2244 3097 1772 3097 
Q 1472 3097 1187 3025 
Q 903 2953 641 2809 
L 641 3341 
Q 956 3463 1253 3523 
Q 1550 3584 1831 3584 
Q 2591 3584 2966 3190 
Q 3341 2797 3341 1997 
z
" transform="scale(0.015625)"/>
      <path id="DejaVuSans-70" d="M 1159 525 
L 1159 -1331 
L 581 -1331 
L 581 3500 
L 1159 3500 
L 1159 2969 
Q 1341 3281 1617 3432 
Q 1894 3584 2278 3584 
Q 2916 3584 3314 3078 
Q 3713 2572 3713 1747 
Q 3713 922 3314 415 
Q 2916 -91 2278 -91 
Q 1894 -91 1617 61 
Q 1341 213 1159 525 
z
M 3116 1747 
Q 3116 2381 2855 2742 
Q 2594 3103 2138 3103 
Q 1681 3103 1420 2742 
Q 1159 2381 1159 1747 
Q 1159 1113 1420 752 
Q 1681 391 2138 391 
Q 2594 391 2855 752 
Q 3116 1113 3116 1747 
z
" transform="scale(0.015625)"/>
      <path id="DejaVuSans-6e" d="M 3513 2113 
L 3513 0 
L 2938 0 
L 2938 2094 
Q 2938 2591 2744 2837 
Q 2550 3084 2163 3084 
Q 1697 3084 1428 2787 
Q 1159 2491 1159 1978 
L 1159 0 
L 581 0 
L 581 3500 
L 1159 3500 
L 1159 2956 
Q 1366 3272 1645 3428 
Q 1925 3584 2291 3584 
Q 2894 3584 3203 3211 
Q 3513 2838 3513 2113 
z
" transform="scale(0.015625)"/>
     </defs>
     <use xlink:href="#DejaVuSans-4a"/>
     <use xlink:href="#DejaVuSans-61" x="29.492188"/>
     <use xlink:href="#DejaVuSans-70" x="90.771484"/>
     <use xlink:href="#DejaVuSans-61" x="154.248047"/>
     <use xlink:href="#DejaVuSans-6e" x="215.527344"/>
    </g>
   </g>
   <g id="text_17">
    <!-- #45805E -->
    <g style="fill: #555555" transform="translate(346.464 247.009266) scale(0.105 -0.105)">
     <defs>
      <path id="DejaVuSansMono-45" d="M 616 4666 
L 3384 4666 
L 3384 4134 
L 1247 4134 
L 1247 2753 
L 3291 2753 
L 3291 2222 
L 1247 2222 
L 1247 531 
L 3444 531 
L 3444 0 
L 616 0 
L 616 4666 
z
" transform="scale(0.015625)"/>
     </defs>
     <use xlink:href="#DejaVuSansMono-23"/>
     <use xlink:href="#DejaVuSansMono-34" x="60.205078"/>
     <use xlink:href="#DejaVuSansMono-35" x="120.410156"/>
     <use xlink:href="#DejaVuSansMono-38" x="180.615234"/>
     <use xlink:href="#DejaVuSansMono-30" x="240.820312"/>
     <use xlink:href="#DejaVuSansMono-35" x="301.025391"/>
     <use xlink:href="#DejaVuSansMono-45" x="361.230469"/>
    </g>
   </g>
   <g id="text_18">
    <!-- France -->
    <g style="fill: #17324d" transform="translate(86.715 268.308512) scale(0.11 -0.11)">
     <defs>
      <path id="DejaVuSans-46" d="M 628 4666 
L 3309 4666 
L 3309 4134 
L 1259 4134 
L 1259 2759 
L 3109 2759 
L 3109 2228 
L 1259 2228 
L 1259 0 
L 628 0 
L 628 4666 
z
" transform="scale(0.015625)"/>
      <path id="DejaVuSans-72" d="M 2631 2963 
Q 2534 3019 2420 3045 
Q 2306 3072 2169 3072 
Q 1681 3072 1420 2755 
Q 1159 2438 1159 1844 
L 1159 0 
L 581 0 
L 581 3500 
L 1159 3500 
L 1159 2956 
Q 1341 3275 1631 3429 
Q 1922 3584 2338 3584 
Q 2397 3584 2469 3576 
Q 2541 3569 2628 3553 
L 2631 2963 
z
" transform="scale(0.015625)"/>
      <path id="DejaVuSans-63" d="M 3122 3366 
L 3122 2828 
Q 2878 2963 2633 3030 
Q 2388 3097 2138 3097 
Q 1578 3097 1268 2742 
Q 959 2388 959 1747 
Q 959 1106 1268 751 
Q 1578 397 2138 397 
Q 2388 397 2633 464 
Q 2878 531 3122 666 
L 3122 134 
Q 2881 22 2623 -34 
Q 2366 -91 2075 -91 
Q 1284 -91 818 406 
Q 353 903 353 1747 
Q 353 2603 823 3093 
Q 1294 3584 2113 3584 
Q 2378 3584 2631 3529 
Q 2884 3475 3122 3366 
z
" transform="scale(0.015625)"/>
      <path id="DejaVuSans-65" d="M 3597 1894 
L 3597 1613 
L 953 1613 
Q 991 1019 1311 708 
Q 1631 397 2203 397 
Q 2534 397 2845 478 
Q 3156 559 3463 722 
L 3463 178 
Q 3153 47 2828 -22 
Q 2503 -91 2169 -91 
Q 1331 -91 842 396 
Q 353 884 353 1716 
Q 353 2575 817 3079 
Q 1281 3584 2069 3584 
Q 2775 3584 3186 3129 
Q 3597 2675 3597 1894 
z
M 3022 2063 
Q 3016 2534 2758 2815 
Q 2500 3097 2075 3097 
Q 1594 3097 1305 2825 
Q 1016 2553 972 2059 
L 3022 2063 
z
" transform="scale(0.015625)"/>
     </defs>
     <use xlink:href="#DejaVuSans-46"/>
     <use xlink:href="#DejaVuSans-72" x="50.269531"/>
     <use xlink:href="#DejaVuSans-61" x="91.382812"/>
     <use xlink:href="#DejaVuSans-6e" x="152.662109"/>
     <use xlink:href="#DejaVuSans-63" x="216.041016"/>
     <use xlink:href="#DejaVuSans-65" x="271.021484"/>
    </g>
   </g>
   <g id="text_19">
    <!-- #916139 -->
    <g style="fill: #555555" transform="translate(346.464 268.198434) scale(0.105 -0.105)">
     <use xlink:href="#DejaVuSansMono-23"/>
     <use xlink:href="#DejaVuSansMono-39" x="60.205078"/>
     <use xlink:href="#DejaVuSansMono-31" x="120.410156"/>
     <use xlink:href="#DejaVuSansMono-36" x="180.615234"/>
     <use xlink:href="#DejaVuSansMono-31" x="240.820312"/>
     <use xlink:href="#DejaVuSansMono-33" x="301.025391"/>
     <use xlink:href="#DejaVuSansMono-39" x="361.230469"/>
    </g>
   </g>
   <g id="text_20">
    <!-- Italy -->
    <g style="fill: #17324d" transform="translate(86.715 289.49768) scale(0.11 -0.11)">
     <defs>
      <path id="DejaVuSans-49" d="M 628 4666 
L 1259 4666 
L 1259 0 
L 628 0 
L 628 4666 
z
" transform="scale(0.015625)"/>
      <path id="DejaVuSans-74" d="M 1172 4494 
L 1172 3500 
L 2356 3500 
L 2356 3053 
L 1172 3053 
L 1172 1153 
Q 1172 725 1289 603 
Q 1406 481 1766 481 
L 2356 481 
L 2356 0 
L 1766 0 
Q 1100 0 847 248 
Q 594 497 594 1153 
L 594 3053 
L 172 3053 
L 172 3500 
L 594 3500 
L 594 4494 
L 1172 4494 
z
" transform="scale(0.015625)"/>
      <path id="DejaVuSans-6c" d="M 603 4863 
L 1178 4863 
L 1178 0 
L 603 0 
L 603 4863 
z
" transform="scale(0.015625)"/>
      <path id="DejaVuSans-79" d="M 2059 -325 
Q 1816 -950 1584 -1140 
Q 1353 -1331 966 -1331 
L 506 -1331 
L 506 -850 
L 844 -850 
Q 1081 -850 1212 -737 
Q 1344 -625 1503 -206 
L 1606 56 
L 191 3500 
L 800 3500 
L 1894 763 
L 2988 3500 
L 3597 3500 
L 2059 -325 
z
" transform="scale(0.015625)"/>
     </defs>
     <use xlink:href="#DejaVuSans-49"/>
     <use xlink:href="#DejaVuSans-74" x="29.492188"/>
     <use xlink:href="#DejaVuSans-61" x="68.701172"/>
     <use xlink:href="#DejaVuSans-6c" x="129.980469"/>
     <use xlink:href="#DejaVuSans-79" x="157.763672"/>
    </g>
   </g>
   <g id="text_21">
    <!-- #BD6D41 -->
    <g style="fill: #555555" transform="translate(346.464 289.387602) scale(0.105 -0.105)">
     <use xlink:href="#DejaVuSansMono-23"/>
     <use xlink:href="#DejaVuSansMono-42" x="60.205078"/>
     <use xlink:href="#DejaVuSansMono-44" x="120.410156"/>
     <use xlink:href="#DejaVuSansMono-36" x="180.615234"/>
     <use xlink:href="#DejaVuSansMono-44" x="240.820312"/>
     <use xlink:href="#DejaVuSansMono-34" x="301.025391"/>
     <use xlink:href="#DejaVuSansMono-31" x="361.230469"/>
    </g>
   </g>
   <g id="text_22">
    <!-- South Korea -->
    <g style="fill: #17324d" transform="translate(86.715 310.686848) scale(0.11 -0.11)">
     <defs>
      <path id="DejaVuSans-53" d="M 3425 4513 
L 3425 3897 
Q 3066 4069 2747 4153 
Q 2428 4238 2131 4238 
Q 1616 4238 1336 4038 
Q 1056 3838 1056 3469 
Q 1056 3159 1242 3001 
Q 1428 2844 1947 2747 
L 2328 2669 
Q 3034 2534 3370 2195 
Q 3706 1856 3706 1288 
Q 3706 609 3251 259 
Q 2797 -91 1919 -91 
Q 1588 -91 1214 -16 
Q 841 59 441 206 
L 441 856 
Q 825 641 1194 531 
Q 1563 422 1919 422 
Q 2459 422 2753 634 
Q 3047 847 3047 1241 
Q 3047 1584 2836 1778 
Q 2625 1972 2144 2069 
L 1759 2144 
Q 1053 2284 737 2584 
Q 422 2884 422 3419 
Q 422 4038 858 4394 
Q 1294 4750 2059 4750 
Q 2388 4750 2728 4690 
Q 3069 4631 3425 4513 
z
" transform="scale(0.015625)"/>
      <path id="DejaVuSans-6f" d="M 1959 3097 
Q 1497 3097 1228 2736 
Q 959 2375 959 1747 
Q 959 1119 1226 758 
Q 1494 397 1959 397 
Q 2419 397 2687 759 
Q 2956 1122 2956 1747 
Q 2956 2369 2687 2733 
Q 2419 3097 1959 3097 
z
M 1959 3584 
Q 2709 3584 3137 3096 
Q 3566 2609 3566 1747 
Q 3566 888 3137 398 
Q 2709 -91 1959 -91 
Q 1206 -91 779 398 
Q 353 888 353 1747 
Q 353 2609 779 3096 
Q 1206 3584 1959 3584 
z
" transform="scale(0.015625)"/>
      <path id="DejaVuSans-75" d="M 544 1381 
L 544 3500 
L 1119 3500 
L 1119 1403 
Q 1119 906 1312 657 
Q 1506 409 1894 409 
Q 2359 409 2629 706 
Q 2900 1003 2900 1516 
L 2900 3500 
L 3475 3500 
L 3475 0 
L 2900 0 
L 2900 538 
Q 2691 219 2414 64 
Q 2138 -91 1772 -91 
Q 1169 -91 856 284 
Q 544 659 544 1381 
z
M 1991 3584 
L 1991 3584 
z
" transform="scale(0.015625)"/>
      <path id="DejaVuSans-68" d="M 3513 2113 
L 3513 0 
L 2938 0 
L 2938 2094 
Q 2938 2591 2744 2837 
Q 2550 3084 2163 3084 
Q 1697 3084 1428 2787 
Q 1159 2491 1159 1978 
L 1159 0 
L 581 0 
L 581 4863 
L 1159 4863 
L 1159 2956 
Q 1366 3272 1645 3428 
Q 1925 3584 2291 3584 
Q 2894 3584 3203 3211 
Q 3513 2838 3513 2113 
z
" transform="scale(0.015625)"/>
      <path id="DejaVuSans-20" transform="scale(0.015625)"/>
      <path id="DejaVuSans-4b" d="M 628 4666 
L 1259 4666 
L 1259 2694 
L 3353 4666 
L 4166 4666 
L 1850 2491 
L 4331 0 
L 3500 0 
L 1259 2247 
L 1259 0 
L 628 0 
L 628 4666 
z
" transform="scale(0.015625)"/>
     </defs>
     <use xlink:href="#DejaVuSans-53"/>
     <use xlink:href="#DejaVuSans-6f" x="63.476562"/>
     <use xlink:href="#DejaVuSans-75" x="124.658203"/>
     <use xlink:href="#DejaVuSans-74" x="188.037109"/>
     <use xlink:href="#DejaVuSans-68" x="227.246094"/>
     <use xlink:href="#DejaVuSans-20" x="290.625"/>
     <use xlink:href="#DejaVuSans-4b" x="322.412109"/>
     <use xlink:href="#DejaVuSans-6f" x="382.988281"/>
     <use xlink:href="#DejaVuSans-72" x="444.169922"/>
     <use xlink:href="#DejaVuSans-65" x="483.033203"/>
     <use xlink:href="#DejaVuSans-61" x="544.556641"/>
    </g>
   </g>
   <g id="text_23">
    <!-- #A79448 -->
    <g style="fill: #555555" transform="translate(346.464 310.57677) scale(0.105 -0.105)">
     <use xlink:href="#DejaVuSansMono-23"/>
     <use xlink:href="#DejaVuSansMono-41" x="60.205078"/>
     <use xlink:href="#DejaVuSansMono-37" x="120.410156"/>
     <use xlink:href="#DejaVuSansMono-39" x="180.615234"/>
     <use xlink:href="#DejaVuSansMono-34" x="240.820312"/>
     <use xlink:href="#DejaVuSansMono-34" x="301.025391"/>
     <use xlink:href="#DejaVuSansMono-38" x="361.230469"/>
    </g>
   </g>
   <g id="text_24">
    <!-- Netherlands -->
    <g style="fill: #17324d" transform="translate(86.715 331.876016) scale(0.11 -0.11)">
     <defs>
      <path id="DejaVuSans-4e" d="M 628 4666 
L 1478 4666 
L 3547 763 
L 3547 4666 
L 4159 4666 
L 4159 0 
L 3309 0 
L 1241 3903 
L 1241 0 
L 628 0 
L 628 4666 
z
" transform="scale(0.015625)"/>
      <path id="DejaVuSans-64" d="M 2906 2969 
L 2906 4863 
L 3481 4863 
L 3481 0 
L 2906 0 
L 2906 525 
Q 2725 213 2448 61 
Q 2172 -91 1784 -91 
Q 1150 -91 751 415 
Q 353 922 353 1747 
Q 353 2572 751 3078 
Q 1150 3584 1784 3584 
Q 2172 3584 2448 3432 
Q 2725 3281 2906 2969 
z
M 947 1747 
Q 947 1113 1208 752 
Q 1469 391 1925 391 
Q 2381 391 2643 752 
Q 2906 1113 2906 1747 
Q 2906 2381 2643 2742 
Q 2381 3103 1925 3103 
Q 1469 3103 1208 2742 
Q 947 2381 947 1747 
z
" transform="scale(0.015625)"/>
      <path id="DejaVuSans-73" d="M 2834 3397 
L 2834 2853 
Q 2591 2978 2328 3040 
Q 2066 3103 1784 3103 
Q 1356 3103 1142 2972 
Q 928 2841 928 2578 
Q 928 2378 1081 2264 
Q 1234 2150 1697 2047 
L 1894 2003 
Q 2506 1872 2764 1633 
Q 3022 1394 3022 966 
Q 3022 478 2636 193 
Q 2250 -91 1575 -91 
Q 1294 -91 989 -36 
Q 684 19 347 128 
L 347 722 
Q 666 556 975 473 
Q 1284 391 1588 391 
Q 1994 391 2212 530 
Q 2431 669 2431 922 
Q 2431 1156 2273 1281 
Q 2116 1406 1581 1522 
L 1381 1569 
Q 847 1681 609 1914 
Q 372 2147 372 2553 
Q 372 3047 722 3315 
Q 1072 3584 1716 3584 
Q 2034 3584 2315 3537 
Q 2597 3491 2834 3397 
z
" transform="scale(0.015625)"/>
     </defs>
     <use xlink:href="#DejaVuSans-4e"/>
     <use xlink:href="#DejaVuSans-65" x="74.804688"/>
     <use xlink:href="#DejaVuSans-74" x="136.328125"/>
     <use xlink:href="#DejaVuSans-68" x="175.537109"/>
     <use xlink:href="#DejaVuSans-65" x="238.916016"/>
     <use xlink:href="#DejaVuSans-72" x="300.439453"/>
     <use xlink:href="#DejaVuSans-6c" x="341.552734"/>
     <use xlink:href="#DejaVuSans-61" x="369.335938"/>
     <use xlink:href="#DejaVuSans-6e" x="430.615234"/>
     <use xlink:href="#DejaVuSans-64" x="493.994141"/>
     <use xlink:href="#DejaVuSans-73" x="557.470703"/>
    </g>
   </g>
   <g id="text_25">
    <!-- #8F559B -->
    <g style="fill: #555555" transform="translate(346.464 331.765938) scale(0.105 -0.105)">
     <use xlink:href="#DejaVuSansMono-23"/>
     <use xlink:href="#DejaVuSansMono-38" x="60.205078"/>
     <use xlink:href="#DejaVuSansMono-46" x="120.410156"/>
     <use xlink:href="#DejaVuSansMono-35" x="180.615234"/>
     <use xlink:href="#DejaVuSansMono-35" x="240.820312"/>
     <use xlink:href="#DejaVuSansMono-39" x="301.025391"/>
     <use xlink:href="#DejaVuSansMono-42" x="361.230469"/>
    </g>
   </g>
   <g id="text_26">
    <!-- Switzerland -->
    <g style="fill: #17324d" transform="translate(86.715 353.065184) scale(0.11 -0.11)">
     <defs>
      <path id="DejaVuSans-77" d="M 269 3500 
L 844 3500 
L 1563 769 
L 2278 3500 
L 2956 3500 
L 3675 769 
L 4391 3500 
L 4966 3500 
L 4050 0 
L 3372 0 
L 2619 2869 
L 1863 0 
L 1184 0 
L 269 3500 
z
" transform="scale(0.015625)"/>
      <path id="DejaVuSans-69" d="M 603 3500 
L 1178 3500 
L 1178 0 
L 603 0 
L 603 3500 
z
M 603 4863 
L 1178 4863 
L 1178 4134 
L 603 4134 
L 603 4863 
z
" transform="scale(0.015625)"/>
      <path id="DejaVuSans-7a" d="M 353 3500 
L 3084 3500 
L 3084 2975 
L 922 459 
L 3084 459 
L 3084 0 
L 275 0 
L 275 525 
L 2438 3041 
L 353 3041 
L 353 3500 
z
" transform="scale(0.015625)"/>
     </defs>
     <use xlink:href="#DejaVuSans-53"/>
     <use xlink:href="#DejaVuSans-77" x="63.476562"/>
     <use xlink:href="#DejaVuSans-69" x="145.263672"/>
     <use xlink:href="#DejaVuSans-74" x="173.046875"/>
     <use xlink:href="#DejaVuSans-7a" x="212.255859"/>
     <use xlink:href="#DejaVuSans-65" x="264.746094"/>
     <use xlink:href="#DejaVuSans-72" x="326.269531"/>
     <use xlink:href="#DejaVuSans-6c" x="367.382812"/>
     <use xlink:href="#DejaVuSans-61" x="395.166016"/>
     <use xlink:href="#DejaVuSans-6e" x="456.445312"/>
     <use xlink:href="#DejaVuSans-64" x="519.824219"/>
    </g>
   </g>
   <g id="text_27">
    <!-- #718957 -->
    <g style="fill: #555555" transform="translate(346.464 352.955106) scale(0.105 -0.105)">
     <use xlink:href="#DejaVuSansMono-23"/>
     <use xlink:href="#DejaVuSansMono-37" x="60.205078"/>
     <use xlink:href="#DejaVuSansMono-31" x="120.410156"/>
     <use xlink:href="#DejaVuSansMono-38" x="180.615234"/>
     <use xlink:href="#DejaVuSansMono-39" x="240.820312"/>
     <use xlink:href="#DejaVuSansMono-35" x="301.025391"/>
     <use xlink:href="#DejaVuSansMono-37" x="361.230469"/>
    </g>
   </g>
   <g id="text_28">
    <!-- Norway -->
    <g style="fill: #17324d" transform="translate(86.715 374.254352) scale(0.11 -0.11)">
     <use xlink:href="#DejaVuSans-4e"/>
     <use xlink:href="#DejaVuSans-6f" x="74.804688"/>
     <use xlink:href="#DejaVuSans-72" x="135.986328"/>
     <use xlink:href="#DejaVuSans-77" x="177.099609"/>
     <use xlink:href="#DejaVuSans-61" x="258.886719"/>
     <use xlink:href="#DejaVuSans-79" x="320.166016"/>
    </g>
   </g>
   <g id="text_29">
    <!-- #876617 -->
    <g style="fill: #555555" transform="translate(346.464 374.144274) scale(0.105 -0.105)">
     <use xlink:href="#DejaVuSansMono-23"/>
     <use xlink:href="#DejaVuSansMono-38" x="60.205078"/>
     <use xlink:href="#DejaVuSansMono-37" x="120.410156"/>
     <use xlink:href="#DejaVuSansMono-36" x="180.615234"/>
     <use xlink:href="#DejaVuSansMono-36" x="240.820312"/>
     <use xlink:href="#DejaVuSansMono-31" x="301.025391"/>
     <use xlink:href="#DejaVuSansMono-37" x="361.230469"/>
    </g>
   </g>
   <g id="text_30">
    <!-- Denmark -->
    <g style="fill: #17324d" transform="translate(86.715 395.44352) scale(0.11 -0.11)">
     <defs>
      <path id="DejaVuSans-44" d="M 1259 4147 
L 1259 519 
L 2022 519 
Q 2988 519 3436 956 
Q 3884 1394 3884 2338 
Q 3884 3275 3436 3711 
Q 2988 4147 2022 4147 
L 1259 4147 
z
M 628 4666 
L 1925 4666 
Q 3281 4666 3915 4102 
Q 4550 3538 4550 2338 
Q 4550 1131 3912 565 
Q 3275 0 1925 0 
L 628 0 
L 628 4666 
z
" transform="scale(0.015625)"/>
      <path id="DejaVuSans-6d" d="M 3328 2828 
Q 3544 3216 3844 3400 
Q 4144 3584 4550 3584 
Q 5097 3584 5394 3201 
Q 5691 2819 5691 2113 
L 5691 0 
L 5113 0 
L 5113 2094 
Q 5113 2597 4934 2840 
Q 4756 3084 4391 3084 
Q 3944 3084 3684 2787 
Q 3425 2491 3425 1978 
L 3425 0 
L 2847 0 
L 2847 2094 
Q 2847 2600 2669 2842 
Q 2491 3084 2119 3084 
Q 1678 3084 1418 2786 
Q 1159 2488 1159 1978 
L 1159 0 
L 581 0 
L 581 3500 
L 1159 3500 
L 1159 2956 
Q 1356 3278 1631 3431 
Q 1906 3584 2284 3584 
Q 2666 3584 2933 3390 
Q 3200 3197 3328 2828 
z
" transform="scale(0.015625)"/>
      <path id="DejaVuSans-6b" d="M 581 4863 
L 1159 4863 
L 1159 1991 
L 2875 3500 
L 3609 3500 
L 1753 1863 
L 3688 0 
L 2938 0 
L 1159 1709 
L 1159 0 
L 581 0 
L 581 4863 
z
" transform="scale(0.015625)"/>
     </defs>
     <use xlink:href="#DejaVuSans-44"/>
     <use xlink:href="#DejaVuSans-65" x="77.001953"/>
     <use xlink:href="#DejaVuSans-6e" x="138.525391"/>
     <use xlink:href="#DejaVuSans-6d" x="201.904297"/>
     <use xlink:href="#DejaVuSans-61" x="299.316406"/>
     <use xlink:href="#DejaVuSans-72" x="360.595703"/>
     <use xlink:href="#DejaVuSans-6b" x="401.708984"/>
    </g>
   </g>
   <g id="text_31">
    <!-- #21827E -->
    <g style="fill: #555555" transform="translate(346.464 395.333442) scale(0.105 -0.105)">
     <use xlink:href="#DejaVuSansMono-23"/>
     <use xlink:href="#DejaVuSansMono-32" x="60.205078"/>
     <use xlink:href="#DejaVuSansMono-31" x="120.410156"/>
     <use xlink:href="#DejaVuSansMono-38" x="180.615234"/>
     <use xlink:href="#DejaVuSansMono-32" x="240.820312"/>
     <use xlink:href="#DejaVuSansMono-37" x="301.025391"/>
     <use xlink:href="#DejaVuSansMono-45" x="361.230469"/>
    </g>
   </g>
   <g id="text_32">
    <!-- Finland -->
    <g style="fill: #17324d" transform="translate(86.715 416.632688) scale(0.11 -0.11)">
     <use xlink:href="#DejaVuSans-46"/>
     <use xlink:href="#DejaVuSans-69" x="50.269531"/>
     <use xlink:href="#DejaVuSans-6e" x="78.052734"/>
     <use xlink:href="#DejaVuSans-6c" x="141.431641"/>
     <use xlink:href="#DejaVuSans-61" x="169.214844"/>
     <use xlink:href="#DejaVuSans-6e" x="230.494141"/>
     <use xlink:href="#DejaVuSans-64" x="293.873047"/>
    </g>
   </g>
   <g id="text_33">
    <!-- #3B7CC6 -->
    <g style="fill: #555555" transform="translate(346.464 416.52261) scale(0.105 -0.105)">
     <use xlink:href="#DejaVuSansMono-23"/>
     <use xlink:href="#DejaVuSansMono-33" x="60.205078"/>
     <use xlink:href="#DejaVuSansMono-42" x="120.410156"/>
     <use xlink:href="#DejaVuSansMono-37" x="180.615234"/>
     <use xlink:href="#DejaVuSansMono-43" x="240.820312"/>
     <use xlink:href="#DejaVuSansMono-43" x="301.025391"/>
     <use xlink:href="#DejaVuSansMono-36" x="361.230469"/>
    </g>
   </g>
   <g id="text_34">
    <!-- Israel -->
    <g style="fill: #17324d" transform="translate(86.715 437.821856) scale(0.11 -0.11)">
     <use xlink:href="#DejaVuSans-49"/>
     <use xlink:href="#DejaVuSans-73" x="29.492188"/>
     <use xlink:href="#DejaVuSans-72" x="81.591797"/>
     <use xlink:href="#DejaVuSans-61" x="122.705078"/>
     <use xlink:href="#DejaVuSans-65" x="183.984375"/>
     <use xlink:href="#DejaVuSans-6c" x="245.507812"/>
    </g>
   </g>
   <g id="text_35">
    <!-- #7C76A6 -->
    <g style="fill: #555555" transform="translate(346.464 437.711778) scale(0.105 -0.105)">
     <use xlink:href="#DejaVuSansMono-23"/>
     <use xlink:href="#DejaVuSansMono-37" x="60.205078"/>
     <use xlink:href="#DejaVuSansMono-43" x="120.410156"/>
     <use xlink:href="#DejaVuSansMono-37" x="180.615234"/>
     <use xlink:href="#DejaVuSansMono-36" x="240.820312"/>
     <use xlink:href="#DejaVuSansMono-41" x="301.025391"/>
     <use xlink:href="#DejaVuSansMono-36" x="361.230469"/>
    </g>
   </g>
   <g id="text_36">
    <!-- New Zealand -->
    <g style="fill: #17324d" transform="translate(86.715 459.011024) scale(0.11 -0.11)">
     <defs>
      <path id="DejaVuSans-5a" d="M 359 4666 
L 4025 4666 
L 4025 4184 
L 1075 531 
L 4097 531 
L 4097 0 
L 288 0 
L 288 481 
L 3238 4134 
L 359 4134 
L 359 4666 
z
" transform="scale(0.015625)"/>
     </defs>
     <use xlink:href="#DejaVuSans-4e"/>
     <use xlink:href="#DejaVuSans-65" x="74.804688"/>
     <use xlink:href="#DejaVuSans-77" x="136.328125"/>
     <use xlink:href="#DejaVuSans-20" x="218.115234"/>
     <use xlink:href="#DejaVuSans-5a" x="249.902344"/>
     <use xlink:href="#DejaVuSans-65" x="318.408203"/>
     <use xlink:href="#DejaVuSans-61" x="379.931641"/>
     <use xlink:href="#DejaVuSans-6c" x="441.210938"/>
     <use xlink:href="#DejaVuSans-61" x="468.994141"/>
     <use xlink:href="#DejaVuSans-6e" x="530.273438"/>
     <use xlink:href="#DejaVuSans-64" x="593.652344"/>
    </g>
   </g>
   <g id="text_37">
    <!-- #40A3A3 -->
    <g style="fill: #555555" transform="translate(346.464 458.900946) scale(0.105 -0.105)">
     <use xlink:href="#DejaVuSansMono-23"/>
     <use xlink:href="#DejaVuSansMono-34" x="60.205078"/>
     <use xlink:href="#DejaVuSansMono-30" x="120.410156"/>
     <use xlink:href="#DejaVuSansMono-41" x="180.615234"/>
     <use xlink:href="#DejaVuSansMono-33" x="240.820312"/>
     <use xlink:href="#DejaVuSansMono-41" x="301.025391"/>
     <use xlink:href="#DejaVuSansMono-33" x="361.230469"/>
    </g>
   </g>
   <g id="text_38">
    <!-- Canada = brand maroon. Focal six are colour-blind-safe together (min dE 16.4). Tails reserve red, sit in a calmer register, and stay distinct from the focal six when activated. -->
    <g style="fill: #777777" transform="translate(23.103 542.36232) scale(0.08 -0.08)">
     <defs>
      <path id="DejaVuSans-43" d="M 4122 4306 
L 4122 3641 
Q 3803 3938 3442 4084 
Q 3081 4231 2675 4231 
Q 1875 4231 1450 3742 
Q 1025 3253 1025 2328 
Q 1025 1406 1450 917 
Q 1875 428 2675 428 
Q 3081 428 3442 575 
Q 3803 722 4122 1019 
L 4122 359 
Q 3791 134 3420 21 
Q 3050 -91 2638 -91 
Q 1578 -91 968 557 
Q 359 1206 359 2328 
Q 359 3453 968 4101 
Q 1578 4750 2638 4750 
Q 3056 4750 3426 4639 
Q 3797 4528 4122 4306 
z
" transform="scale(0.015625)"/>
      <path id="DejaVuSans-3d" d="M 678 2906 
L 4684 2906 
L 4684 2381 
L 678 2381 
L 678 2906 
z
M 678 1631 
L 4684 1631 
L 4684 1100 
L 678 1100 
L 678 1631 
z
" transform="scale(0.015625)"/>
      <path id="DejaVuSans-62" d="M 3116 1747 
Q 3116 2381 2855 2742 
Q 2594 3103 2138 3103 
Q 1681 3103 1420 2742 
Q 1159 2381 1159 1747 
Q 1159 1113 1420 752 
Q 1681 391 2138 391 
Q 2594 391 2855 752 
Q 3116 1113 3116 1747 
z
M 1159 2969 
Q 1341 3281 1617 3432 
Q 1894 3584 2278 3584 
Q 2916 3584 3314 3078 
Q 3713 2572 3713 1747 
Q 3713 922 3314 415 
Q 2916 -91 2278 -91 
Q 1894 -91 1617 61 
Q 1341 213 1159 525 
L 1159 0 
L 581 0 
L 581 4863 
L 1159 4863 
L 1159 2969 
z
" transform="scale(0.015625)"/>
      <path id="DejaVuSans-2e" d="M 684 794 
L 1344 794 
L 1344 0 
L 684 0 
L 684 794 
z
" transform="scale(0.015625)"/>
      <path id="DejaVuSans-78" d="M 3513 3500 
L 2247 1797 
L 3578 0 
L 2900 0 
L 1881 1375 
L 863 0 
L 184 0 
L 1544 1831 
L 300 3500 
L 978 3500 
L 1906 2253 
L 2834 3500 
L 3513 3500 
z
" transform="scale(0.015625)"/>
      <path id="DejaVuSans-2d" d="M 313 2009 
L 1997 2009 
L 1997 1497 
L 313 1497 
L 313 2009 
z
" transform="scale(0.015625)"/>
      <path id="DejaVuSans-66" d="M 2375 4863 
L 2375 4384 
L 1825 4384 
Q 1516 4384 1395 4259 
Q 1275 4134 1275 3809 
L 1275 3500 
L 2222 3500 
L 2222 3053 
L 1275 3053 
L 1275 0 
L 697 0 
L 697 3053 
L 147 3053 
L 147 3500 
L 697 3500 
L 697 3744 
Q 697 4328 969 4595 
Q 1241 4863 1831 4863 
L 2375 4863 
z
" transform="scale(0.015625)"/>
      <path id="DejaVuSans-67" d="M 2906 1791 
Q 2906 2416 2648 2759 
Q 2391 3103 1925 3103 
Q 1463 3103 1205 2759 
Q 947 2416 947 1791 
Q 947 1169 1205 825 
Q 1463 481 1925 481 
Q 2391 481 2648 825 
Q 2906 1169 2906 1791 
z
M 3481 434 
Q 3481 -459 3084 -895 
Q 2688 -1331 1869 -1331 
Q 1566 -1331 1297 -1286 
Q 1028 -1241 775 -1147 
L 775 -588 
Q 1028 -725 1275 -790 
Q 1522 -856 1778 -856 
Q 2344 -856 2625 -561 
Q 2906 -266 2906 331 
L 2906 616 
Q 2728 306 2450 153 
Q 2172 0 1784 0 
Q 1141 0 747 490 
Q 353 981 353 1791 
Q 353 2603 747 3093 
Q 1141 3584 1784 3584 
Q 2172 3584 2450 3431 
Q 2728 3278 2906 2969 
L 2906 3500 
L 3481 3500 
L 3481 434 
z
" transform="scale(0.015625)"/>
      <path id="DejaVuSans-28" d="M 1984 4856 
Q 1566 4138 1362 3434 
Q 1159 2731 1159 2009 
Q 1159 1288 1364 580 
Q 1569 -128 1984 -844 
L 1484 -844 
Q 1016 -109 783 600 
Q 550 1309 550 2009 
Q 550 2706 781 3412 
Q 1013 4119 1484 4856 
L 1984 4856 
z
" transform="scale(0.015625)"/>
      <path id="DejaVuSans-45" d="M 628 4666 
L 3578 4666 
L 3578 4134 
L 1259 4134 
L 1259 2753 
L 3481 2753 
L 3481 2222 
L 1259 2222 
L 1259 531 
L 3634 531 
L 3634 0 
L 628 0 
L 628 4666 
z
" transform="scale(0.015625)"/>
      <path id="DejaVuSans-31" d="M 794 531 
L 1825 531 
L 1825 4091 
L 703 3866 
L 703 4441 
L 1819 4666 
L 2450 4666 
L 2450 531 
L 3481 531 
L 3481 0 
L 794 0 
L 794 531 
z
" transform="scale(0.015625)"/>
      <path id="DejaVuSans-36" d="M 2113 2584 
Q 1688 2584 1439 2293 
Q 1191 2003 1191 1497 
Q 1191 994 1439 701 
Q 1688 409 2113 409 
Q 2538 409 2786 701 
Q 3034 994 3034 1497 
Q 3034 2003 2786 2293 
Q 2538 2584 2113 2584 
z
M 3366 4563 
L 3366 3988 
Q 3128 4100 2886 4159 
Q 2644 4219 2406 4219 
Q 1781 4219 1451 3797 
Q 1122 3375 1075 2522 
Q 1259 2794 1537 2939 
Q 1816 3084 2150 3084 
Q 2853 3084 3261 2657 
Q 3669 2231 3669 1497 
Q 3669 778 3244 343 
Q 2819 -91 2113 -91 
Q 1303 -91 875 529 
Q 447 1150 447 2328 
Q 447 3434 972 4092 
Q 1497 4750 2381 4750 
Q 2619 4750 2861 4703 
Q 3103 4656 3366 4563 
z
" transform="scale(0.015625)"/>
      <path id="DejaVuSans-34" d="M 2419 4116 
L 825 1625 
L 2419 1625 
L 2419 4116 
z
M 2253 4666 
L 3047 4666 
L 3047 1625 
L 3713 1625 
L 3713 1100 
L 3047 1100 
L 3047 0 
L 2419 0 
L 2419 1100 
L 313 1100 
L 313 1709 
L 2253 4666 
z
" transform="scale(0.015625)"/>
      <path id="DejaVuSans-29" d="M 513 4856 
L 1013 4856 
Q 1481 4119 1714 3412 
Q 1947 2706 1947 2009 
Q 1947 1309 1714 600 
Q 1481 -109 1013 -844 
L 513 -844 
Q 928 -128 1133 580 
Q 1338 1288 1338 2009 
Q 1338 2731 1133 3434 
Q 928 4138 513 4856 
z
" transform="scale(0.015625)"/>
      <path id="DejaVuSans-54" d="M -19 4666 
L 3928 4666 
L 3928 4134 
L 2272 4134 
L 2272 0 
L 1638 0 
L 1638 4134 
L -19 4134 
L -19 4666 
z
" transform="scale(0.015625)"/>
      <path id="DejaVuSans-76" d="M 191 3500 
L 800 3500 
L 1894 563 
L 2988 3500 
L 3597 3500 
L 2284 0 
L 1503 0 
L 191 3500 
z
" transform="scale(0.015625)"/>
      <path id="DejaVuSans-2c" d="M 750 794 
L 1409 794 
L 1409 256 
L 897 -744 
L 494 -744 
L 750 256 
L 750 794 
z
" transform="scale(0.015625)"/>
     </defs>
     <use xlink:href="#DejaVuSans-43"/>
     <use xlink:href="#DejaVuSans-61" x="69.824219"/>
     <use xlink:href="#DejaVuSans-6e" x="131.103516"/>
     <use xlink:href="#DejaVuSans-61" x="194.482422"/>
     <use xlink:href="#DejaVuSans-64" x="255.761719"/>
     <use xlink:href="#DejaVuSans-61" x="319.238281"/>
     <use xlink:href="#DejaVuSans-20" x="380.517578"/>
     <use xlink:href="#DejaVuSans-3d" x="412.304688"/>
     <use xlink:href="#DejaVuSans-20" x="496.09375"/>
     <use xlink:href="#DejaVuSans-62" x="527.880859"/>
     <use xlink:href="#DejaVuSans-72" x="591.357422"/>
     <use xlink:href="#DejaVuSans-61" x="632.470703"/>
     <use xlink:href="#DejaVuSans-6e" x="693.75"/>
     <use xlink:href="#DejaVuSans-64" x="757.128906"/>
     <use xlink:href="#DejaVuSans-20" x="820.605469"/>
     <use xlink:href="#DejaVuSans-6d" x="852.392578"/>
     <use xlink:href="#DejaVuSans-61" x="949.804688"/>
     <use xlink:href="#DejaVuSans-72" x="1011.083984"/>
     <use xlink:href="#DejaVuSans-6f" x="1049.947266"/>
     <use xlink:href="#DejaVuSans-6f" x="1111.128906"/>
     <use xlink:href="#DejaVuSans-6e" x="1172.310547"/>
     <use xlink:href="#DejaVuSans-2e" x="1235.689453"/>
     <use xlink:href="#DejaVuSans-20" x="1267.476562"/>
     <use xlink:href="#DejaVuSans-46" x="1299.263672"/>
     <use xlink:href="#DejaVuSans-6f" x="1353.158203"/>
     <use xlink:href="#DejaVuSans-63" x="1414.339844"/>
     <use xlink:href="#DejaVuSans-61" x="1469.320312"/>
     <use xlink:href="#DejaVuSans-6c" x="1530.599609"/>
     <use xlink:href="#DejaVuSans-20" x="1558.382812"/>
     <use xlink:href="#DejaVuSans-73" x="1590.169922"/>
     <use xlink:href="#DejaVuSans-69" x="1642.269531"/>
     <use xlink:href="#DejaVuSans-78" x="1670.052734"/>
     <use xlink:href="#DejaVuSans-20" x="1729.232422"/>
     <use xlink:href="#DejaVuSans-61" x="1761.019531"/>
     <use xlink:href="#DejaVuSans-72" x="1822.298828"/>
     <use xlink:href="#DejaVuSans-65" x="1861.162109"/>
     <use xlink:href="#DejaVuSans-20" x="1922.685547"/>
     <use xlink:href="#DejaVuSans-63" x="1954.472656"/>
     <use xlink:href="#DejaVuSans-6f" x="2009.453125"/>
     <use xlink:href="#DejaVuSans-6c" x="2070.634766"/>
     <use xlink:href="#DejaVuSans-6f" x="2098.417969"/>
     <use xlink:href="#DejaVuSans-75" x="2159.599609"/>
     <use xlink:href="#DejaVuSans-72" x="2222.978516"/>
     <use xlink:href="#DejaVuSans-2d" x="2257.716797"/>
     <use xlink:href="#DejaVuSans-62" x="2293.800781"/>
     <use xlink:href="#DejaVuSans-6c" x="2357.277344"/>
     <use xlink:href="#DejaVuSans-69" x="2385.060547"/>
     <use xlink:href="#DejaVuSans-6e" x="2412.84375"/>
     <use xlink:href="#DejaVuSans-64" x="2476.222656"/>
     <use xlink:href="#DejaVuSans-2d" x="2539.699219"/>
     <use xlink:href="#DejaVuSans-73" x="2575.783203"/>
     <use xlink:href="#DejaVuSans-61" x="2627.882812"/>
     <use xlink:href="#DejaVuSans-66" x="2689.162109"/>
     <use xlink:href="#DejaVuSans-65" x="2724.367188"/>
     <use xlink:href="#DejaVuSans-20" x="2785.890625"/>
     <use xlink:href="#DejaVuSans-74" x="2817.677734"/>
     <use xlink:href="#DejaVuSans-6f" x="2856.886719"/>
     <use xlink:href="#DejaVuSans-67" x="2918.068359"/>
     <use xlink:href="#DejaVuSans-65" x="2981.544922"/>
     <use xlink:href="#DejaVuSans-74" x="3043.068359"/>
     <use xlink:href="#DejaVuSans-68" x="3082.277344"/>
     <use xlink:href="#DejaVuSans-65" x="3145.65625"/>
     <use xlink:href="#DejaVuSans-72" x="3207.179688"/>
     <use xlink:href="#DejaVuSans-20" x="3248.292969"/>
     <use xlink:href="#DejaVuSans-28" x="3280.080078"/>
     <use xlink:href="#DejaVuSans-6d" x="3319.09375"/>
     <use xlink:href="#DejaVuSans-69" x="3416.505859"/>
     <use xlink:href="#DejaVuSans-6e" x="3444.289062"/>
     <use xlink:href="#DejaVuSans-20" x="3507.667969"/>
     <use xlink:href="#DejaVuSans-64" x="3539.455078"/>
     <use xlink:href="#DejaVuSans-45" x="3602.931641"/>
     <use xlink:href="#DejaVuSans-20" x="3666.115234"/>
     <use xlink:href="#DejaVuSans-31" x="3697.902344"/>
     <use xlink:href="#DejaVuSans-36" x="3761.525391"/>
     <use xlink:href="#DejaVuSans-2e" x="3825.148438"/>
     <use xlink:href="#DejaVuSans-34" x="3856.935547"/>
     <use xlink:href="#DejaVuSans-29" x="3920.558594"/>
     <use xlink:href="#DejaVuSans-2e" x="3959.572266"/>
     <use xlink:href="#DejaVuSans-20" x="3991.359375"/>
     <use xlink:href="#DejaVuSans-54" x="4023.146484"/>
     <use xlink:href="#DejaVuSans-61" x="4067.730469"/>
     <use xlink:href="#DejaVuSans-69" x="4129.009766"/>
     <use xlink:href="#DejaVuSans-6c" x="4156.792969"/>
     <use xlink:href="#DejaVuSans-73" x="4184.576172"/>
     <use xlink:href="#DejaVuSans-20" x="4236.675781"/>
     <use xlink:href="#DejaVuSans-72" x="4268.462891"/>
     <use xlink:href="#DejaVuSans-65" x="4307.326172"/>
     <use xlink:href="#DejaVuSans-73" x="4368.849609"/>
     <use xlink:href="#DejaVuSans-65" x="4420.949219"/>
     <use xlink:href="#DejaVuSans-72" x="4482.472656"/>
     <use xlink:href="#DejaVuSans-76" x="4523.585938"/>
     <use xlink:href="#DejaVuSans-65" x="4582.765625"/>
     <use xlink:href="#DejaVuSans-20" x="4644.289062"/>
     <use xlink:href="#DejaVuSans-72" x="4676.076172"/>
     <use xlink:href="#DejaVuSans-65" x="4714.939453"/>
     <use xlink:href="#DejaVuSans-64" x="4776.462891"/>
     <use xlink:href="#DejaVuSans-2c" x="4839.939453"/>
     <use xlink:href="#DejaVuSans-20" x="4871.726562"/>
     <use xlink:href="#DejaVuSans-73" x="4903.513672"/>
     <use xlink:href="#DejaVuSans-69" x="4955.613281"/>
     <use xlink:href="#DejaVuSans-74" x="4983.396484"/>
     <use xlink:href="#DejaVuSans-20" x="5022.605469"/>
     <use xlink:href="#DejaVuSans-69" x="5054.392578"/>
     <use xlink:href="#DejaVuSans-6e" x="5082.175781"/>
     <use xlink:href="#DejaVuSans-20" x="5145.554688"/>
     <use xlink:href="#DejaVuSans-61" x="5177.341797"/>
     <use xlink:href="#DejaVuSans-20" x="5238.621094"/>
     <use xlink:href="#DejaVuSans-63" x="5270.408203"/>
     <use xlink:href="#DejaVuSans-61" x="5325.388672"/>
     <use xlink:href="#DejaVuSans-6c" x="5386.667969"/>
     <use xlink:href="#DejaVuSans-6d" x="5414.451172"/>
     <use xlink:href="#DejaVuSans-65" x="5511.863281"/>
     <use xlink:href="#DejaVuSans-72" x="5573.386719"/>
     <use xlink:href="#DejaVuSans-20" x="5614.5"/>
     <use xlink:href="#DejaVuSans-72" x="5646.287109"/>
     <use xlink:href="#DejaVuSans-65" x="5685.150391"/>
     <use xlink:href="#DejaVuSans-67" x="5746.673828"/>
     <use xlink:href="#DejaVuSans-69" x="5810.150391"/>
     <use xlink:href="#DejaVuSans-73" x="5837.933594"/>
     <use xlink:href="#DejaVuSans-74" x="5890.033203"/>
     <use xlink:href="#DejaVuSans-65" x="5929.242188"/>
     <use xlink:href="#DejaVuSans-72" x="5990.765625"/>
     <use xlink:href="#DejaVuSans-2c" x="6031.878906"/>
     <use xlink:href="#DejaVuSans-20" x="6063.666016"/>
     <use xlink:href="#DejaVuSans-61" x="6095.453125"/>
     <use xlink:href="#DejaVuSans-6e" x="6156.732422"/>
     <use xlink:href="#DejaVuSans-64" x="6220.111328"/>
     <use xlink:href="#DejaVuSans-20" x="6283.587891"/>
     <use xlink:href="#DejaVuSans-73" x="6315.375"/>
     <use xlink:href="#DejaVuSans-74" x="6367.474609"/>
     <use xlink:href="#DejaVuSans-61" x="6406.683594"/>
     <use xlink:href="#DejaVuSans-79" x="6467.962891"/>
     <use xlink:href="#DejaVuSans-20" x="6527.142578"/>
     <use xlink:href="#DejaVuSans-64" x="6558.929688"/>
     <use xlink:href="#DejaVuSans-69" x="6622.40625"/>
     <use xlink:href="#DejaVuSans-73" x="6650.189453"/>
     <use xlink:href="#DejaVuSans-74" x="6702.289062"/>
     <use xlink:href="#DejaVuSans-69" x="6741.498047"/>
     <use xlink:href="#DejaVuSans-6e" x="6769.28125"/>
     <use xlink:href="#DejaVuSans-63" x="6832.660156"/>
     <use xlink:href="#DejaVuSans-74" x="6887.640625"/>
     <use xlink:href="#DejaVuSans-20" x="6926.849609"/>
     <use xlink:href="#DejaVuSans-66" x="6958.636719"/>
     <use xlink:href="#DejaVuSans-72" x="6993.841797"/>
     <use xlink:href="#DejaVuSans-6f" x="7032.705078"/>
     <use xlink:href="#DejaVuSans-6d" x="7093.886719"/>
     <use xlink:href="#DejaVuSans-20" x="7191.298828"/>
     <use xlink:href="#DejaVuSans-74" x="7223.085938"/>
     <use xlink:href="#DejaVuSans-68" x="7262.294922"/>
     <use xlink:href="#DejaVuSans-65" x="7325.673828"/>
     <use xlink:href="#DejaVuSans-20" x="7387.197266"/>
     <use xlink:href="#DejaVuSans-66" x="7418.984375"/>
     <use xlink:href="#DejaVuSans-6f" x="7454.189453"/>
     <use xlink:href="#DejaVuSans-63" x="7515.371094"/>
     <use xlink:href="#DejaVuSans-61" x="7570.351562"/>
     <use xlink:href="#DejaVuSans-6c" x="7631.630859"/>
     <use xlink:href="#DejaVuSans-20" x="7659.414062"/>
     <use xlink:href="#DejaVuSans-73" x="7691.201172"/>
     <use xlink:href="#DejaVuSans-69" x="7743.300781"/>
     <use xlink:href="#DejaVuSans-78" x="7771.083984"/>
     <use xlink:href="#DejaVuSans-20" x="7830.263672"/>
     <use xlink:href="#DejaVuSans-77" x="7862.050781"/>
     <use xlink:href="#DejaVuSans-68" x="7943.837891"/>
     <use xlink:href="#DejaVuSans-65" x="8007.216797"/>
     <use xlink:href="#DejaVuSans-6e" x="8068.740234"/>
     <use xlink:href="#DejaVuSans-20" x="8132.119141"/>
     <use xlink:href="#DejaVuSans-61" x="8163.90625"/>
     <use xlink:href="#DejaVuSans-63" x="8225.185547"/>
     <use xlink:href="#DejaVuSans-74" x="8280.166016"/>
     <use xlink:href="#DejaVuSans-69" x="8319.375"/>
     <use xlink:href="#DejaVuSans-76" x="8347.158203"/>
     <use xlink:href="#DejaVuSans-61" x="8406.337891"/>
     <use xlink:href="#DejaVuSans-74" x="8467.617188"/>
     <use xlink:href="#DejaVuSans-65" x="8506.826172"/>
     <use xlink:href="#DejaVuSans-64" x="8568.349609"/>
     <use xlink:href="#DejaVuSans-2e" x="8631.826172"/>
    </g>
   </g>
  </g>
 </g>
 <defs>
  <clipPath id="p70ecd20612">
   <rect x="7.2" y="7.2" width="530.1" height="543.312"/>
  </clipPath>
 </defs>
</svg>
