<svg xmlns="http://www.w3.org/2000/svg" viewBox="0 0 1200 860"><rect width="1200" height="860" fill="#FFFFFF"/><text x="60" y="78" font-family="'Radio Canada', 'Helvetica Neue', Arial, sans-serif" font-size="34" font-weight="700" letter-spacing="3" fill="#17324D">CANADA OBSERVATORY — COLOUR PALETTE</text><text x="60" y="106" font-family="'Radio Canada', 'Helvetica Neue', Arial, sans-serif" font-size="14" fill="#6B7280">Locked 2026-06-10 · chrome colours only — chart data-ink is a separate system (pipeline/config.py) · rules: brand/palette.md</text><g transform="translate(1015,8) scale(1.55)"><defs><path id="Lbc" d="M 50.0 4.0 Q 50.0 4.0 50.4 5.1 L 51.9 9.2 Q 53.2 13.0 55.0 11.5 L 56.6 10.3 Q 57.5 9.5 57.6 10.7 L 57.9 15.0 Q 58.2 19.0 60.4 17.5 L 62.5 16.2 Q 63.5 15.5 63.3 16.7 L 61.7 26.1 Q 60.5 33.0 64.5 29.6 L 69.1 25.8 Q 70.0 25.0 70.3 26.1 L 70.9 27.9 Q 71.5 30.0 74.2 27.0 L 82.2 17.9 Q 83.0 17.0 83.1 18.2 L 83.6 22.2 Q 84.0 26.0 86.1 25.6 L 87.8 25.2 Q 89.0 25.0 88.4 26.0 L 83.2 34.1 Q 79.5 40.0 83.9 41.3 L 88.8 42.7 Q 90.0 43.0 89.3 44.0 L 86.8 47.6 Q 84.5 51.0 85.1 51.8 L 85.4 52.2 Q 86.0 53.0 84.9 53.3 L 73.7 56.7 Q 66.0 59.0 60.1 59.4 L 54.0 59.9 Q 52.0 60.0 51.7 61.3 L 51.4 62.2 Q 51.2 63.0 51.2 63.8 L 50.8 87.2 Q 50.8 88.0 50.1 88.0 L 49.9 88.0 Q 49.2 88.0 49.2 87.2 L 48.8 63.8 Q 48.8 63.0 48.6 62.2 L 48.3 61.3 Q 48.0 60.0 46.0 59.9 L 39.9 59.4 Q 34.0 59.0 26.3 56.7 L 15.1 53.3 Q 14.0 53.0 14.6 52.2 L 14.9 51.8 Q 15.5 51.0 13.2 47.6 L 10.7 44.0 Q 10.0 43.0 11.2 42.7 L 16.1 41.3 Q 20.5 40.0 16.8 34.1 L 11.6 26.0 Q 11.0 25.0 12.2 25.2 L 13.9 25.6 Q 16.0 26.0 16.4 22.2 L 16.9 18.2 Q 17.0 17.0 17.8 17.9 L 25.8 27.0 Q 28.5 30.0 29.1 27.9 L 29.7 26.1 Q 30.0 25.0 30.9 25.8 L 35.5 29.6 Q 39.5 33.0 38.3 26.1 L 36.7 16.7 Q 36.5 15.5 37.5 16.2 L 39.6 17.5 Q 41.8 19.0 42.1 15.0 L 42.4 10.7 Q 42.5 9.5 43.4 10.3 L 45.0 11.5 Q 46.8 13.0 48.1 9.2 L 49.6 5.1 Q 50.0 4.0 50.0 4.0 Z"/><clipPath id="Cbc"><use href="#Lbc"/></clipPath></defs><g clip-path="url(#Cbc)"><path d="M 50 44 L 3.9 -39.1 L 97.5 -38.3 Z" fill="#C2972F"/><path d="M 50 44 L 97.5 -38.3 L 142.9 24.2 Z" fill="#17324D"/><path d="M 50 44 L 142.9 24.2 L 113.6 114.6 Z" fill="#2A7F9E"/><path d="M 50 44 L 113.6 114.6 L -12.3 115.7 Z" fill="#7A263A"/><path d="M 50 44 L -12.3 115.7 L -42.9 24.2 Z" fill="#3F6F5E"/><path d="M 50 44 L -42.9 24.2 L 3.9 -39.1 Z" fill="#6B7280"/><line x1="50" y1="44" x2="3.9" y2="-39.1" stroke="#F7F4EE" stroke-width="1.6"/><line x1="50" y1="44" x2="97.5" y2="-38.3" stroke="#F7F4EE" stroke-width="1.6"/><line x1="50" y1="44" x2="142.9" y2="24.2" stroke="#F7F4EE" stroke-width="1.6"/><line x1="50" y1="44" x2="113.6" y2="114.6" stroke="#F7F4EE" stroke-width="1.6"/><line x1="50" y1="44" x2="-12.3" y2="115.7" stroke="#F7F4EE" stroke-width="1.6"/><line x1="50" y1="44" x2="-42.9" y2="24.2" stroke="#F7F4EE" stroke-width="1.6"/></g></g><rect x="60" y="150" width="121" height="110" rx="8" fill="#17324D" stroke="#D9DEE5" stroke-width="1"/><text x="120" y="288" font-family="'Radio Canada', 'Helvetica Neue', Arial, sans-serif" font-size="14" font-weight="700" fill="#17324D" text-anchor="middle">Deep Navy</text><text x="120" y="308" font-family="Menlo, monospace" font-size="12" fill="#6B7280" text-anchor="middle">#17324D</text><text x="120" y="326" font-family="'Radio Canada', 'Helvetica Neue', Arial, sans-serif" font-size="11" fill="#6B7280" text-anchor="middle">navbar · headings</text><rect x="197" y="150" width="121" height="110" rx="8" fill="#2A7F9E" stroke="#D9DEE5" stroke-width="1"/><text x="257" y="288" font-family="'Radio Canada', 'Helvetica Neue', Arial, sans-serif" font-size="14" font-weight="700" fill="#17324D" text-anchor="middle">Lake Blue</text><text x="257" y="308" font-family="Menlo, monospace" font-size="12" fill="#6B7280" text-anchor="middle">#2A7F9E</text><text x="257" y="326" font-family="'Radio Canada', 'Helvetica Neue', Arial, sans-serif" font-size="11" fill="#6B7280" text-anchor="middle">large accents · UI</text><rect x="334" y="150" width="121" height="110" rx="8" fill="#7A263A" stroke="#D9DEE5" stroke-width="1"/><text x="394" y="288" font-family="'Radio Canada', 'Helvetica Neue', Arial, sans-serif" font-size="14" font-weight="700" fill="#17324D" text-anchor="middle">Deep Maroon</text><text x="394" y="308" font-family="Menlo, monospace" font-size="12" fill="#6B7280" text-anchor="middle">#7A263A</text><text x="394" y="326" font-family="'Radio Canada', 'Helvetica Neue', Arial, sans-serif" font-size="11" fill="#6B7280" text-anchor="middle">the brand mark</text><rect x="471" y="150" width="121" height="110" rx="8" fill="#3F6F5E" stroke="#D9DEE5" stroke-width="1"/><text x="531" y="288" font-family="'Radio Canada', 'Helvetica Neue', Arial, sans-serif" font-size="14" font-weight="700" fill="#17324D" text-anchor="middle">Boreal Green</text><text x="531" y="308" font-family="Menlo, monospace" font-size="12" fill="#6B7280" text-anchor="middle">#3F6F5E</text><text x="531" y="326" font-family="'Radio Canada', 'Helvetica Neue', Arial, sans-serif" font-size="11" fill="#6B7280" text-anchor="middle">nature accent</text><rect x="608" y="150" width="121" height="110" rx="8" fill="#C2972F" stroke="#D9DEE5" stroke-width="1"/><text x="668" y="288" font-family="'Radio Canada', 'Helvetica Neue', Arial, sans-serif" font-size="14" font-weight="700" fill="#17324D" text-anchor="middle">Prairie Gold</text><text x="668" y="308" font-family="Menlo, monospace" font-size="12" fill="#6B7280" text-anchor="middle">#C2972F</text><text x="668" y="326" font-family="'Radio Canada', 'Helvetica Neue', Arial, sans-serif" font-size="11" fill="#6B7280" text-anchor="middle">warm accent *</text><rect x="745" y="150" width="121" height="110" rx="8" fill="#F7F4EE" stroke="#D9DEE5" stroke-width="1"/><text x="805" y="288" font-family="'Radio Canada', 'Helvetica Neue', Arial, sans-serif" font-size="14" font-weight="700" fill="#17324D" text-anchor="middle">Warm Off-White</text><text x="805" y="308" font-family="Menlo, monospace" font-size="12" fill="#6B7280" text-anchor="middle">#F7F4EE</text><text x="805" y="326" font-family="'Radio Canada', 'Helvetica Neue', Arial, sans-serif" font-size="11" fill="#6B7280" text-anchor="middle">page background</text><rect x="882" y="150" width="121" height="110" rx="8" fill="#6B7280" stroke="#D9DEE5" stroke-width="1"/><text x="942" y="288" font-family="'Radio Canada', 'Helvetica Neue', Arial, sans-serif" font-size="14" font-weight="700" fill="#17324D" text-anchor="middle">Slate Grey</text><text x="942" y="308" font-family="Menlo, monospace" font-size="12" fill="#6B7280" text-anchor="middle">#6B7280</text><text x="942" y="326" font-family="'Radio Canada', 'Helvetica Neue', Arial, sans-serif" font-size="11" fill="#6B7280" text-anchor="middle">secondary text</text><rect x="1019" y="150" width="121" height="110" rx="8" fill="#D9DEE5" stroke="#D9DEE5" stroke-width="1"/><text x="1079" y="288" font-family="'Radio Canada', 'Helvetica Neue', Arial, sans-serif" font-size="14" font-weight="700" fill="#17324D" text-anchor="middle">Border Grey</text><text x="1079" y="308" font-family="Menlo, monospace" font-size="12" fill="#6B7280" text-anchor="middle">#D9DEE5</text><text x="1079" y="326" font-family="'Radio Canada', 'Helvetica Neue', Arial, sans-serif" font-size="11" fill="#6B7280" text-anchor="middle">rules · borders</text><text x="60" y="385" font-family="'Radio Canada', 'Helvetica Neue', Arial, sans-serif" font-size="17" font-weight="700" fill="#17324D">Utility tints</text><rect x="60" y="400" width="70" height="56" rx="8" fill="#1F6E8C"/><text x="144" y="422" font-family="'Radio Canada', 'Helvetica Neue', Arial, sans-serif" font-size="14" font-weight="700" fill="#17324D">Link Blue</text><text x="144" y="440" font-family="Menlo, monospace" font-size="11" fill="#6B7280">#1F6E8C</text><text x="144" y="456" font-family="'Radio Canada', 'Helvetica Neue', Arial, sans-serif" font-size="11" fill="#6B7280">hyperlinks on light — AA 5.2:1</text><rect x="300" y="400" width="70" height="56" rx="8" fill="#D9B36C"/><text x="384" y="422" font-family="'Radio Canada', 'Helvetica Neue', Arial, sans-serif" font-size="14" font-weight="700" fill="#17324D">Wheat</text><text x="384" y="440" font-family="Menlo, monospace" font-size="11" fill="#6B7280">#D9B36C</text><text x="384" y="456" font-family="'Radio Canada', 'Helvetica Neue', Arial, sans-serif" font-size="11" fill="#6B7280">soft fills · the leaf on navy (6.6:1)</text><rect x="540" y="400" width="70" height="56" rx="8" fill="#A8842F"/><text x="624" y="422" font-family="'Radio Canada', 'Helvetica Neue', Arial, sans-serif" font-size="14" font-weight="700" fill="#17324D">Deep Ochre</text><text x="624" y="440" font-family="Menlo, monospace" font-size="11" fill="#6B7280">#A8842F</text><text x="624" y="456" font-family="'Radio Canada', 'Helvetica Neue', Arial, sans-serif" font-size="11" fill="#6B7280">gold icons/borders on light (3.2:1)</text><text x="60" y="520" font-family="'Radio Canada', 'Helvetica Neue', Arial, sans-serif" font-size="17" font-weight="700" fill="#17324D">Proven pairings (WCAG)</text><rect x="60" y="535" width="200" height="86" rx="10" fill="#F7F4EE" stroke="#D9DEE5" stroke-width="1"/><text x="84" y="582" font-family="'Radio Canada', 'Helvetica Neue', Arial, sans-serif" font-size="32" font-weight="700" fill="#17324D">Aa</text><text x="146" y="578" font-family="'Radio Canada', 'Helvetica Neue', Arial, sans-serif" font-size="13" fill="#17324D">12.0 · AA</text><rect x="282" y="535" width="200" height="86" rx="10" fill="#17324D" stroke="#17324D" stroke-width="1"/><text x="306" y="582" font-family="'Radio Canada', 'Helvetica Neue', Arial, sans-serif" font-size="32" font-weight="700" fill="#F7F4EE">Aa</text><text x="368" y="578" font-family="'Radio Canada', 'Helvetica Neue', Arial, sans-serif" font-size="13" fill="#F7F4EE">12.0 · AA</text><rect x="504" y="535" width="200" height="86" rx="10" fill="#17324D" stroke="#17324D" stroke-width="1"/><text x="528" y="582" font-family="'Radio Canada', 'Helvetica Neue', Arial, sans-serif" font-size="32" font-weight="700" fill="#D9B36C">Aa</text><text x="590" y="578" font-family="'Radio Canada', 'Helvetica Neue', Arial, sans-serif" font-size="13" fill="#D9B36C">6.6 · AA</text><rect x="726" y="535" width="200" height="86" rx="10" fill="#F7F4EE" stroke="#D9DEE5" stroke-width="1"/><text x="750" y="582" font-family="'Radio Canada', 'Helvetica Neue', Arial, sans-serif" font-size="32" font-weight="700" fill="#1F6E8C">Aa</text><text x="812" y="578" font-family="'Radio Canada', 'Helvetica Neue', Arial, sans-serif" font-size="13" fill="#1F6E8C">5.2 · AA</text><rect x="948" y="535" width="200" height="86" rx="10" fill="#C2972F" stroke="#C2972F" stroke-width="1"/><text x="972" y="582" font-family="'Radio Canada', 'Helvetica Neue', Arial, sans-serif" font-size="32" font-weight="700" fill="#17324D">Aa</text><text x="1034" y="578" font-family="'Radio Canada', 'Helvetica Neue', Arial, sans-serif" font-size="13" fill="#17324D">4.9 · AA</text><text x="60" y="668" font-family="'Radio Canada', 'Helvetica Neue', Arial, sans-serif" font-size="13" fill="#6B7280">* Prairie Gold never carries text or thin strokes on light backgrounds — pair it with navy ink · Slate body text only on white · never a bare bright-red leaf</text><text x="60" y="720" font-family="'Radio Canada', 'Helvetica Neue', Arial, sans-serif" font-size="17" font-weight="700" fill="#17324D">Six thematic areas</text><circle cx="68" cy="746" r="8" fill="#7A263A"/><text x="86" y="750" font-family="'Radio Canada', 'Helvetica Neue', Arial, sans-serif" font-size="14" fill="#17324D">People &amp; Society</text><circle cx="448" cy="746" r="8" fill="#C2972F"/><text x="466" y="750" font-family="'Radio Canada', 'Helvetica Neue', Arial, sans-serif" font-size="14" fill="#17324D">Economy &amp; Affordability</text><circle cx="828" cy="746" r="8" fill="#17324D"/><text x="846" y="750" font-family="'Radio Canada', 'Helvetica Neue', Arial, sans-serif" font-size="14" fill="#17324D">Government &amp; Public Finances</text><circle cx="68" cy="782" r="8" fill="#2A7F9E"/><text x="86" y="786" font-family="'Radio Canada', 'Helvetica Neue', Arial, sans-serif" font-size="14" fill="#17324D">Health &amp; Well-being</text><circle cx="448" cy="782" r="8" fill="#3F6F5E"/><text x="466" y="786" font-family="'Radio Canada', 'Helvetica Neue', Arial, sans-serif" font-size="14" fill="#17324D">Land &amp; Environment</text><circle cx="828" cy="782" r="8" fill="#6B7280"/><text x="846" y="786" font-family="'Radio Canada', 'Helvetica Neue', Arial, sans-serif" font-size="14" fill="#17324D">Education, Science &amp; Innovation</text><text x="60" y="836" font-family="'Radio Canada', 'Helvetica Neue', Arial, sans-serif" font-size="11" fill="#6B7280">visual_assets/brand/palette-sheet.svg — regenerate after any palette change; the markdown source of truth is brand/palette.md</text></svg>