<svg xmlns="http://www.w3.org/2000/svg" viewBox="0 0 240 270"><g transform="translate(45,8) scale(1.5)"><circle cx="50" cy="50" r="43" fill="none" stroke="#17324D" stroke-width="5.5"/><g transform="translate(19,21.5) scale(0.62)"><defs><path id="Lbc" d="M 50.0 4.0 Q 50.0 4.0 50.4 5.1 L 51.9 9.2 Q 53.2 13.0 55.0 11.5 L 56.6 10.3 Q 57.5 9.5 57.6 10.7 L 57.9 15.0 Q 58.2 19.0 60.4 17.5 L 62.5 16.2 Q 63.5 15.5 63.3 16.7 L 61.7 26.1 Q 60.5 33.0 64.5 29.6 L 69.1 25.8 Q 70.0 25.0 70.3 26.1 L 70.9 27.9 Q 71.5 30.0 74.2 27.0 L 82.2 17.9 Q 83.0 17.0 83.1 18.2 L 83.6 22.2 Q 84.0 26.0 86.1 25.6 L 87.8 25.2 Q 89.0 25.0 88.4 26.0 L 83.2 34.1 Q 79.5 40.0 83.9 41.3 L 88.8 42.7 Q 90.0 43.0 89.3 44.0 L 86.8 47.6 Q 84.5 51.0 85.1 51.8 L 85.4 52.2 Q 86.0 53.0 84.9 53.3 L 73.7 56.7 Q 66.0 59.0 60.1 59.4 L 54.0 59.9 Q 52.0 60.0 51.7 61.3 L 51.4 62.2 Q 51.2 63.0 51.2 63.8 L 50.8 87.2 Q 50.8 88.0 50.1 88.0 L 49.9 88.0 Q 49.2 88.0 49.2 87.2 L 48.8 63.8 Q 48.8 63.0 48.6 62.2 L 48.3 61.3 Q 48.0 60.0 46.0 59.9 L 39.9 59.4 Q 34.0 59.0 26.3 56.7 L 15.1 53.3 Q 14.0 53.0 14.6 52.2 L 14.9 51.8 Q 15.5 51.0 13.2 47.6 L 10.7 44.0 Q 10.0 43.0 11.2 42.7 L 16.1 41.3 Q 20.5 40.0 16.8 34.1 L 11.6 26.0 Q 11.0 25.0 12.2 25.2 L 13.9 25.6 Q 16.0 26.0 16.4 22.2 L 16.9 18.2 Q 17.0 17.0 17.8 17.9 L 25.8 27.0 Q 28.5 30.0 29.1 27.9 L 29.7 26.1 Q 30.0 25.0 30.9 25.8 L 35.5 29.6 Q 39.5 33.0 38.3 26.1 L 36.7 16.7 Q 36.5 15.5 37.5 16.2 L 39.6 17.5 Q 41.8 19.0 42.1 15.0 L 42.4 10.7 Q 42.5 9.5 43.4 10.3 L 45.0 11.5 Q 46.8 13.0 48.1 9.2 L 49.6 5.1 Q 50.0 4.0 50.0 4.0 Z"/><clipPath id="Cbc"><use href="#Lbc"/></clipPath></defs><g clip-path="url(#Cbc)"><path d="M 50 44 L 3.9 -39.1 L 97.5 -38.3 Z" fill="#C2972F"/><path d="M 50 44 L 97.5 -38.3 L 142.9 24.2 Z" fill="#17324D"/><path d="M 50 44 L 142.9 24.2 L 113.6 114.6 Z" fill="#2A7F9E"/><path d="M 50 44 L 113.6 114.6 L -12.3 115.7 Z" fill="#7A263A"/><path d="M 50 44 L -12.3 115.7 L -42.9 24.2 Z" fill="#3F6F5E"/><path d="M 50 44 L -42.9 24.2 L 3.9 -39.1 Z" fill="#6B7280"/><line x1="50" y1="44" x2="3.9" y2="-39.1" stroke="#F7F4EE" stroke-width="1.6"/><line x1="50" y1="44" x2="97.5" y2="-38.3" stroke="#F7F4EE" stroke-width="1.6"/><line x1="50" y1="44" x2="142.9" y2="24.2" stroke="#F7F4EE" stroke-width="1.6"/><line x1="50" y1="44" x2="113.6" y2="114.6" stroke="#F7F4EE" stroke-width="1.6"/><line x1="50" y1="44" x2="-12.3" y2="115.7" stroke="#F7F4EE" stroke-width="1.6"/><line x1="50" y1="44" x2="-42.9" y2="24.2" stroke="#F7F4EE" stroke-width="1.6"/></g></g></g><g fill="#17324D" transform="translate(55.751999999999995 205.0) scale(0.024 -0.024)"><path transform="translate(0.0 0)" d="M45 345Q45 429 72.5 495.0Q100 561 147.5 607.0Q195 653 256.5 677.5Q318 702 387 702Q452 702 506.5 684.5Q561 667 613 632L526 504Q495 525 459.0 538.5Q423 552 382 552Q334 552 294.5 529.0Q255 506 231.5 460.0Q208 414 208 345Q208 276 231.5 230.0Q255 184 295.0 161.0Q335 138 383 138Q424 138 459.5 153.0Q495 168 526 193L618 69Q567 29 512.0 8.5Q457 -12 389 -12Q320 -12 257.5 12.5Q195 37 147.5 83.0Q100 129 72.5 195.0Q45 261 45 345Z"/><path transform="translate(903.0 0)" d="M0 0 251 690H405L656 0H486L428 174L513 136H139L221 166L166 0ZM230 195 181 263H471L422 195L303 551H349Z"/><path transform="translate(1809.0 0)" d="M85 0V690H290L562 137L530 130V690H674V0H480L197 576L229 583V0Z"/><path transform="translate(2818.0 0)" d="M0 0 251 690H405L656 0H486L428 174L513 136H139L221 166L166 0ZM230 195 181 263H471L422 195L303 551H349Z"/><path transform="translate(3724.0 0)" d="M85 0V690H347Q441 690 516.0 649.0Q591 608 635.0 531.0Q679 454 679 345Q679 237 635.0 159.5Q591 82 516.0 41.0Q441 0 347 0ZM245 140H332Q387 140 428.5 162.5Q470 185 493.0 231.0Q516 277 516 345Q516 414 493.0 459.5Q470 505 428.5 527.5Q387 550 332 550H245Z"/><path transform="translate(4698.0 0)" d="M0 0 251 690H405L656 0H486L428 174L513 136H139L221 166L166 0ZM230 195 181 263H471L422 195L303 551H349Z"/></g><g fill="#17324D" transform="translate(24.555999999999983 237.0) scale(0.024 -0.024)"><path transform="translate(0.0 0)" d="M45 345Q45 429 70.5 495.0Q96 561 141.0 607.0Q186 653 245.5 677.5Q305 702 372 702Q440 702 499.0 677.5Q558 653 603.0 607.0Q648 561 673.5 495.0Q699 429 699 345Q699 261 673.5 195.0Q648 129 603.0 83.0Q558 37 499.0 12.5Q440 -12 373 -12Q305 -12 245.5 12.5Q186 37 141.0 83.0Q96 129 70.5 195.0Q45 261 45 345ZM208 345Q208 291 220.5 251.0Q233 211 255.0 184.0Q277 157 307.0 144.0Q337 131 372 131Q407 131 437.0 144.0Q467 157 489.0 184.0Q511 211 523.5 251.0Q536 291 536 345Q536 399 523.5 439.0Q511 479 489.0 506.0Q467 533 437.0 546.0Q407 559 372 559Q337 559 307.0 546.0Q277 533 255.0 506.0Q233 479 220.5 439.0Q208 399 208 345Z"/><path transform="translate(810.7 0)" d="M85 0V690H342Q408 690 460.5 667.5Q513 645 543.5 604.0Q574 563 574 505Q574 456 552.0 420.5Q530 385 492 363Q545 339 574.5 294.5Q604 250 604 190Q604 131 572.5 88.0Q541 45 487.5 22.5Q434 0 367 0ZM245 134H352Q392 134 416.5 153.5Q441 173 441 211Q441 249 416.5 268.5Q392 288 352 288H245ZM245 412H332Q370 412 393.0 430.5Q416 449 416 484Q416 519 393.0 537.5Q370 556 332 556H245Z"/><path transform="translate(1531.3 0)" d="M35 74 111 207Q155 171 213.0 148.5Q271 126 326 126Q359 126 381.5 134.0Q404 142 416.0 155.0Q428 168 428 184Q428 198 417.5 213.0Q407 228 379.5 244.0Q352 260 299 277Q217 304 166.5 338.5Q116 373 93.0 414.0Q70 455 70 500Q70 555 99.5 601.0Q129 647 187.0 674.5Q245 702 330 702Q398 702 465.5 680.5Q533 659 579 627L508 500Q467 529 418.0 547.5Q369 566 317 566Q275 566 253.0 550.0Q231 534 231 513Q231 498 242.5 484.0Q254 470 281.5 456.0Q309 442 356 426Q441 398 493.0 363.5Q545 329 569.0 287.5Q593 246 593 195Q593 140 562.0 93.0Q531 46 468.0 17.0Q405 -12 309 -12Q262 -12 215.0 -1.5Q168 9 123.0 28.0Q78 47 35 74Z"/><path transform="translate(2236.0 0)" d="M85 0V690H570V550H245V414H523V282H245V140H575V0Z"/><path transform="translate(2937.7 0)" d="M85 0V690H347Q420 690 478.0 662.5Q536 635 570.0 583.5Q604 532 604 460Q604 389 567.5 339.0Q531 289 471 263L624 0H447L322 240H245V0ZM245 370H332Q381 370 411.0 392.0Q441 414 441 460Q441 506 411.0 528.0Q381 550 332 550H245Z"/><path transform="translate(3663.3 0)" d="M0 690H170L330 207L490 690H656L405 0H251Z"/><path transform="translate(4386.0 0)" d="M0 0 251 690H405L656 0H486L428 174L513 136H139L221 166L166 0ZM230 195 181 263H471L422 195L303 551H349Z"/><path transform="translate(5108.7 0)" d="M25 550V690H561V550H373V0H213V550Z"/><path transform="translate(5761.3 0)" d="M45 345Q45 429 70.5 495.0Q96 561 141.0 607.0Q186 653 245.5 677.5Q305 702 372 702Q440 702 499.0 677.5Q558 653 603.0 607.0Q648 561 673.5 495.0Q699 429 699 345Q699 261 673.5 195.0Q648 129 603.0 83.0Q558 37 499.0 12.5Q440 -12 373 -12Q305 -12 245.5 12.5Q186 37 141.0 83.0Q96 129 70.5 195.0Q45 261 45 345ZM208 345Q208 291 220.5 251.0Q233 211 255.0 184.0Q277 157 307.0 144.0Q337 131 372 131Q407 131 437.0 144.0Q467 157 489.0 184.0Q511 211 523.5 251.0Q536 291 536 345Q536 399 523.5 439.0Q511 479 489.0 506.0Q467 533 437.0 546.0Q407 559 372 559Q337 559 307.0 546.0Q277 533 255.0 506.0Q233 479 220.5 439.0Q208 399 208 345Z"/><path transform="translate(6572.0 0)" d="M85 0V690H347Q420 690 478.0 662.5Q536 635 570.0 583.5Q604 532 604 460Q604 389 567.5 339.0Q531 289 471 263L624 0H447L322 240H245V0ZM245 370H332Q381 370 411.0 392.0Q441 414 441 460Q441 506 411.0 528.0Q381 550 332 550H245Z"/><path transform="translate(7297.7 0)" d="M0 690H184L365 365H295L476 690H656L408 281V0H248V281Z"/></g></svg>