<svg xmlns="http://www.w3.org/2000/svg" viewBox="0 0 430 120"><g transform="translate(12,10)"><circle cx="50" cy="50" r="43" fill="none" stroke="#17324D" stroke-width="5.5"/><g transform="translate(19,22.1) scale(0.62)"><path d="M 50.0 4.0 Q 50.0 4.0 50.6 5.9 L 56.2 22.4 Q 58.5 29.0 64.4 25.2 L 80.3 15.1 Q 82.0 14.0 81.6 15.9 L 78.1 31.2 Q 76.5 38.0 82.2 39.7 L 88.1 41.4 Q 90.0 42.0 88.4 43.2 L 76.4 52.2 Q 70.0 57.0 62.9 57.8 L 56.0 58.6 Q 53.0 59.0 52.8 60.7 L 52.6 62.0 Q 52.5 63.0 52.5 64.0 L 52.0 84.5 Q 52.0 86.0 50.5 86.0 L 49.5 86.0 Q 48.0 86.0 48.0 84.5 L 47.5 64.0 Q 47.5 63.0 47.4 62.0 L 47.2 60.7 Q 47.0 59.0 44.0 58.6 L 37.1 57.8 Q 30.0 57.0 23.6 52.2 L 11.6 43.2 Q 10.0 42.0 11.9 41.4 L 17.8 39.7 Q 23.5 38.0 21.9 31.2 L 18.4 15.9 Q 18.0 14.0 19.7 15.1 L 35.6 25.2 Q 41.5 29.0 43.8 22.4 L 49.4 5.9 Q 50.0 4.0 50.0 4.0 Z" fill="#7A263A"/></g></g><g fill="#17324D" transform="translate(135.0 58.0) scale(0.03 -0.03)"><path transform="translate(0.0 0)" d="M50 345Q50 430 76.5 496.0Q103 562 149.0 607.5Q195 653 255.0 677.0Q315 701 382 701Q446 701 500.5 681.5Q555 662 604 624L523 517Q492 541 456.0 555.5Q420 570 379 570Q327 570 284.5 545.0Q242 520 217.0 469.5Q192 419 192 345Q192 271 217.0 220.5Q242 170 285.0 145.0Q328 120 380 120Q423 120 459.5 135.5Q496 151 527 179L610 74Q561 32 506.0 10.5Q451 -11 384 -11Q316 -11 255.5 13.0Q195 37 149.0 82.5Q103 128 76.5 194.0Q50 260 50 345Z"/><path transform="translate(950.0 0)" d="M6 0 262 690H394L650 0H501L433 194L510 155H142L216 188L151 0ZM223 210 181 268H471L429 210L306 565H346Z"/><path transform="translate(1906.0 0)" d="M90 0V690H276L565 113L536 107V690H665V0H486L190 592L218 599V0Z"/><path transform="translate(2961.0 0)" d="M6 0 262 690H394L650 0H501L433 194L510 155H142L216 188L151 0ZM223 210 181 268H471L429 210L306 565H346Z"/><path transform="translate(3917.0 0)" d="M90 0V690H339Q432 690 506.0 649.5Q580 609 623.5 532.0Q667 455 667 345Q667 236 623.5 158.5Q580 81 506.0 40.5Q432 0 339 0ZM229 123H327Q385 123 429.5 147.5Q474 172 499.0 222.0Q524 272 524 345Q524 419 499.0 468.5Q474 518 429.5 542.5Q385 567 327 567H229Z"/><path transform="translate(4934.0 0)" d="M6 0 262 690H394L650 0H501L433 194L510 155H142L216 188L151 0ZM223 210 181 268H471L429 210L306 565H346Z"/></g><g fill="#17324D" transform="translate(135.0 94.0) scale(0.03 -0.03)"><path transform="translate(0.0 0)" d="M50 345Q50 430 75.0 496.0Q100 562 144.0 608.0Q188 654 246.0 677.5Q304 701 369 701Q435 701 493.0 677.5Q551 654 595.0 608.0Q639 562 663.5 496.0Q688 430 688 345Q688 260 663.5 194.0Q639 128 595.0 82.0Q551 36 493.0 12.5Q435 -11 369 -11Q304 -11 246.0 12.5Q188 36 144.0 82.0Q100 128 75.0 194.0Q50 260 50 345ZM192 345Q192 287 205.5 244.0Q219 201 243.0 172.0Q267 143 299.0 128.5Q331 114 369 114Q407 114 439.0 128.5Q471 143 495.0 172.0Q519 201 532.5 244.0Q546 287 546 345Q546 403 532.5 446.0Q519 489 495.0 518.0Q471 547 439.0 561.5Q407 576 369 576Q331 576 299.0 561.5Q267 547 243.0 518.0Q219 489 205.5 446.0Q192 403 192 345Z"/><path transform="translate(798.0 0)" d="M90 0V690H341Q406 690 457.5 668.0Q509 646 539.0 605.0Q569 564 569 505Q569 456 546.0 420.0Q523 384 484 363Q537 340 568.0 296.0Q599 252 599 192Q599 131 567.5 88.0Q536 45 483.0 22.5Q430 0 364 0ZM229 118H352Q398 118 427.0 141.0Q456 164 456 207Q456 251 427.0 273.5Q398 296 352 296H229ZM229 407H333Q376 407 403.0 428.0Q430 449 430 489Q430 529 403.0 550.5Q376 572 333 572H229Z"/><path transform="translate(1510.0 0)" d="M40 80 109 193Q153 155 210.5 132.5Q268 110 327 110Q364 110 389.5 119.5Q415 129 428.5 145.0Q442 161 442 180Q442 198 430.0 215.5Q418 233 387.5 250.5Q357 268 300 287Q217 314 167.0 347.5Q117 381 95.0 420.5Q73 460 73 504Q73 558 102.5 603.0Q132 648 188.5 674.5Q245 701 325 701Q390 701 455.5 679.0Q521 657 568 622L502 513Q462 544 414.0 563.0Q366 582 314 582Q264 582 238.0 562.0Q212 542 212 516Q212 499 224.5 483.0Q237 467 266.5 451.5Q296 436 348 419Q434 391 486.0 356.5Q538 322 561.5 281.0Q585 240 585 191Q585 137 555.0 91.0Q525 45 464.0 17.0Q403 -11 313 -11Q265 -11 216.5 0.5Q168 12 123.5 32.0Q79 52 40 80Z"/><path transform="translate(2203.0 0)" d="M90 0V690H562V567H229V407H514V290H229V123H567V0Z"/><path transform="translate(2893.0 0)" d="M90 0V690H342Q414 690 471.0 663.5Q528 637 561.5 586.5Q595 536 595 465Q595 390 556.0 340.0Q517 290 454 266L615 0H458L321 246H229V0ZM229 361H331Q385 361 419.0 387.0Q453 413 453 465Q453 516 419.0 541.5Q385 567 331 567H229Z"/><path transform="translate(3609.0 0)" d="M6 690H155L327 185L498 690H643L390 0H259Z"/><path transform="translate(4319.0 0)" d="M6 0 262 690H394L650 0H501L433 194L510 155H142L216 188L151 0ZM223 210 181 268H471L429 210L306 565H346Z"/><path transform="translate(5035.0 0)" d="M27 567V690H556V567H361V0H222V567Z"/><path transform="translate(5678.0 0)" d="M50 345Q50 430 75.0 496.0Q100 562 144.0 608.0Q188 654 246.0 677.5Q304 701 369 701Q435 701 493.0 677.5Q551 654 595.0 608.0Q639 562 663.5 496.0Q688 430 688 345Q688 260 663.5 194.0Q639 128 595.0 82.0Q551 36 493.0 12.5Q435 -11 369 -11Q304 -11 246.0 12.5Q188 36 144.0 82.0Q100 128 75.0 194.0Q50 260 50 345ZM192 345Q192 287 205.5 244.0Q219 201 243.0 172.0Q267 143 299.0 128.5Q331 114 369 114Q407 114 439.0 128.5Q471 143 495.0 172.0Q519 201 532.5 244.0Q546 287 546 345Q546 403 532.5 446.0Q519 489 495.0 518.0Q471 547 439.0 561.5Q407 576 369 576Q331 576 299.0 561.5Q267 547 243.0 518.0Q219 489 205.5 446.0Q192 403 192 345Z"/><path transform="translate(6476.0 0)" d="M90 0V690H342Q414 690 471.0 663.5Q528 637 561.5 586.5Q595 536 595 465Q595 390 556.0 340.0Q517 290 454 266L615 0H458L321 246H229V0ZM229 361H331Q385 361 419.0 387.0Q453 413 453 465Q453 516 419.0 541.5Q385 567 331 567H229Z"/><path transform="translate(7192.0 0)" d="M5 690H165L354 356H293L482 690H638L391 282V0H252V282Z"/></g></svg>