<svg xmlns="http://www.w3.org/2000/svg" viewBox="0 0 210 80"><g fill="#17324D" transform="translate(4.0 58.0) scale(0.044 -0.044)"><path transform="translate(0.0 0)" d="M50 345Q50 430 76.5 496.0Q103 562 149.0 607.5Q195 653 255.0 677.0Q315 701 382 701Q446 701 500.5 681.5Q555 662 604 624L523 517Q492 541 456.0 555.5Q420 570 379 570Q327 570 284.5 545.0Q242 520 217.0 469.5Q192 419 192 345Q192 271 217.0 220.5Q242 170 285.0 145.0Q328 120 380 120Q423 120 459.5 135.5Q496 151 527 179L610 74Q561 32 506.0 10.5Q451 -11 384 -11Q316 -11 255.5 13.0Q195 37 149.0 82.5Q103 128 76.5 194.0Q50 260 50 345Z"/><path transform="translate(650.0 0)" d="M43 136Q43 184 68.5 222.0Q94 260 149.0 283.5Q204 307 290 310L346 312V317Q346 368 319.5 394.0Q293 420 240 420Q199 420 163.0 408.5Q127 397 97 381L59 486Q96 505 149.5 519.0Q203 533 259 533Q323 533 372.0 509.5Q421 486 449.5 440.0Q478 394 478 326V124Q478 103 479.5 86.0Q481 69 485 47L493 0H366L353 68Q326 33 284.5 11.0Q243 -11 194 -11Q153 -11 119.0 7.0Q85 25 64.0 58.0Q43 91 43 136ZM165 150Q165 123 182.5 107.5Q200 92 227 92Q259 92 290.0 106.0Q321 120 346 145V233L298 230Q247 226 218.0 214.0Q189 202 177.0 185.5Q165 169 165 150Z"/><path transform="translate(1202.0 0)" d="M65 522H191L205 450Q237 488 277.5 510.5Q318 533 367 533Q415 533 456.5 509.5Q498 486 523.5 440.0Q549 394 549 323V0H418V303Q418 341 405.5 365.0Q393 389 371.5 400.5Q350 412 322 412Q294 412 265.0 399.5Q236 387 211 364V0H80V398Q80 419 78.5 435.5Q77 452 73 474Z"/></g><g transform="translate(85,22) scale(0.42)"><circle cx="50" cy="50" r="43" fill="none" stroke="#17324D" stroke-width="7"/><g transform="translate(19,22.1) scale(0.62)"><path d="M 50.0 4.0 Q 50.0 4.0 50.6 5.9 L 56.2 22.4 Q 58.5 29.0 64.4 25.2 L 80.3 15.1 Q 82.0 14.0 81.6 15.9 L 78.1 31.2 Q 76.5 38.0 82.2 39.7 L 88.1 41.4 Q 90.0 42.0 88.4 43.2 L 76.4 52.2 Q 70.0 57.0 62.9 57.8 L 56.0 58.6 Q 53.0 59.0 52.8 60.7 L 52.6 62.0 Q 52.5 63.0 52.5 64.0 L 52.0 84.5 Q 52.0 86.0 50.5 86.0 L 49.5 86.0 Q 48.0 86.0 48.0 84.5 L 47.5 64.0 Q 47.5 63.0 47.4 62.0 L 47.2 60.7 Q 47.0 59.0 44.0 58.6 L 37.1 57.8 Q 30.0 57.0 23.6 52.2 L 11.6 43.2 Q 10.0 42.0 11.9 41.4 L 17.8 39.7 Q 23.5 38.0 21.9 31.2 L 18.4 15.9 Q 18.0 14.0 19.7 15.1 L 35.6 25.2 Q 41.5 29.0 43.8 22.4 L 49.4 5.9 Q 50.0 4.0 50.0 4.0 Z" fill="#7A263A"/></g></g><g fill="#17324D" transform="translate(132.0 58.0) scale(0.044 -0.044)"><path transform="translate(0.0 0)" d="M65 0 73 47Q77 69 78.5 86.0Q80 103 80 124V715L211 735V457Q241 492 279.5 512.5Q318 533 363 533Q416 533 460.5 500.0Q505 467 532.0 406.0Q559 345 559 261Q559 174 530.5 113.0Q502 52 453.0 20.5Q404 -11 340 -11Q300 -11 264.0 7.0Q228 25 204 62L191 0ZM211 229Q211 182 224.0 152.0Q237 122 259.0 107.5Q281 93 308 93Q361 93 394.0 136.5Q427 180 427 255Q427 308 413.5 343.0Q400 378 376.0 396.0Q352 414 321 414Q294 414 265.0 401.0Q236 388 211 366Z"/><path transform="translate(602.0 0)" d="M33 43 85 144Q115 124 155.0 109.5Q195 95 237 95Q280 95 297.5 107.5Q315 120 315 139Q315 152 307.0 162.5Q299 173 280.5 182.0Q262 191 231 201Q133 234 93.0 275.5Q53 317 53 375Q53 419 78.0 455.0Q103 491 149.5 512.0Q196 533 259 533Q306 533 352.5 520.5Q399 508 435 486L385 387Q357 403 321.0 415.0Q285 427 251 427Q216 427 198.0 415.5Q180 404 180 386Q180 373 188.0 363.0Q196 353 215.5 344.0Q235 335 270 324Q336 302 375.5 276.5Q415 251 432.5 220.0Q450 189 450 149Q450 102 422.5 66.0Q395 30 346.0 9.5Q297 -11 229 -11Q171 -11 120.5 4.5Q70 20 33 43Z"/></g></svg>