<svg xmlns="http://www.w3.org/2000/svg" viewBox="0 0 760 620"><rect width="760" height="620" fill="#F7F4EE"/><defs><mask id="dm"><rect x="-10" y="-10" width="120" height="120" fill="white"/><g transform="translate(50,50) scale(0.74) translate(-50,-45.5)"><path d="M 48.9 7.8 Q 50.0 5.0 51.1 7.8 L 52.8 12.0 Q 53.2 12.9 54.2 13.0 L 56.5 13.3 Q 58.2 13.5 57.6 15.1 L 56.3 18.1 Q 55.8 19.3 56.1 20.6 L 56.9 23.3 Q 57.8 26.6 61.1 25.9 L 82.5 21.1 Q 85.0 20.5 84.2 22.9 L 83.5 25.0 Q 83.2 25.9 84.1 26.2 L 86.0 26.9 Q 87.6 27.4 86.0 27.9 L 83.4 28.8 Q 82.2 29.2 81.7 30.4 L 80.6 32.8 Q 79.3 35.8 82.1 37.4 L 87.6 40.4 Q 90.0 41.8 87.8 43.5 L 80.8 48.7 Q 76.0 52.3 70.5 54.6 L 65.3 56.8 Q 62.5 58.0 59.5 58.4 L 57.5 58.6 Q 55.8 58.8 54.4 59.7 L 53.8 60.0 Q 52.6 60.8 52.5 62.2 L 52.4 64.0 L 52.4 64.0 L 52.0 83.6 Q 52.0 84.5 51.4 85.2 L 51.0 85.6 Q 50.6 86.0 50.1 86.0 L 49.9 86.0 Q 49.4 86.0 49.0 85.6 L 48.6 85.2 Q 48.0 84.5 48.0 83.6 L 47.6 64.0 L 47.6 64.0 L 47.5 62.2 Q 47.4 60.8 46.2 60.0 L 45.6 59.7 Q 44.2 58.8 42.5 58.6 L 40.5 58.4 Q 37.5 58.0 34.7 56.8 L 29.5 54.6 Q 24.0 52.3 19.2 48.7 L 12.2 43.5 Q 10.0 41.8 12.4 40.4 L 17.9 37.4 Q 20.7 35.8 19.4 32.8 L 18.3 30.4 Q 17.8 29.2 16.6 28.8 L 14.0 27.9 Q 12.4 27.4 14.0 26.9 L 15.9 26.2 Q 16.8 25.9 16.5 25.0 L 15.8 22.9 Q 15.0 20.5 17.5 21.1 L 38.9 25.9 Q 42.2 26.6 43.1 23.3 L 43.9 20.6 Q 44.2 19.3 43.7 18.1 L 42.4 15.1 Q 41.8 13.5 43.5 13.3 L 45.8 13.0 Q 46.8 12.9 47.2 12.0 Z" fill="black"/></g></mask></defs><text x="380" y="26" font-family="'Radio Canada', 'Helvetica Neue', Arial, sans-serif" font-size="15" font-weight="700" fill="#17324D" text-anchor="middle">Small-mark candidates — true-pixel sizes, in-ring (4.4), on navy</text><text x="8" y="88" font-family="'Radio Canada', 'Helvetica Neue', Arial, sans-serif" font-size="11" fill="#17324D">current (rejected)</text><g transform="translate(130.0,48.0) scale(0.64)"><path d="M 50.0 4.0 Q 50.0 4.0 50.6 5.9 L 56.2 22.4 Q 58.5 29.0 64.4 25.2 L 80.3 15.1 Q 82.0 14.0 81.6 15.9 L 78.1 31.2 Q 76.5 38.0 82.2 39.7 L 88.1 41.4 Q 90.0 42.0 88.4 43.2 L 76.4 52.2 Q 70.0 57.0 62.9 57.8 L 56.0 58.6 Q 53.0 59.0 52.8 60.7 L 52.6 62.0 Q 52.5 63.0 52.5 64.0 L 52.0 84.5 Q 52.0 86.0 50.5 86.0 L 49.5 86.0 Q 48.0 86.0 48.0 84.5 L 47.5 64.0 Q 47.5 63.0 47.4 62.0 L 47.2 60.7 Q 47.0 59.0 44.0 58.6 L 37.1 57.8 Q 30.0 57.0 23.6 52.2 L 11.6 43.2 Q 10.0 42.0 11.9 41.4 L 17.8 39.7 Q 23.5 38.0 21.9 31.2 L 18.4 15.9 Q 18.0 14.0 19.7 15.1 L 35.6 25.2 Q 41.5 29.0 43.8 22.4 L 49.4 5.9 Q 50.0 4.0 50.0 4.0 Z" fill="#7A263A"/></g><g transform="translate(216.0,56.0) scale(0.48)"><path d="M 50.0 4.0 Q 50.0 4.0 50.6 5.9 L 56.2 22.4 Q 58.5 29.0 64.4 25.2 L 80.3 15.1 Q 82.0 14.0 81.6 15.9 L 78.1 31.2 Q 76.5 38.0 82.2 39.7 L 88.1 41.4 Q 90.0 42.0 88.4 43.2 L 76.4 52.2 Q 70.0 57.0 62.9 57.8 L 56.0 58.6 Q 53.0 59.0 52.8 60.7 L 52.6 62.0 Q 52.5 63.0 52.5 64.0 L 52.0 84.5 Q 52.0 86.0 50.5 86.0 L 49.5 86.0 Q 48.0 86.0 48.0 84.5 L 47.5 64.0 Q 47.5 63.0 47.4 62.0 L 47.2 60.7 Q 47.0 59.0 44.0 58.6 L 37.1 57.8 Q 30.0 57.0 23.6 52.2 L 11.6 43.2 Q 10.0 42.0 11.9 41.4 L 17.8 39.7 Q 23.5 38.0 21.9 31.2 L 18.4 15.9 Q 18.0 14.0 19.7 15.1 L 35.6 25.2 Q 41.5 29.0 43.8 22.4 L 49.4 5.9 Q 50.0 4.0 50.0 4.0 Z" fill="#7A263A"/></g><g transform="translate(302.0,64.0) scale(0.32)"><path d="M 50.0 4.0 Q 50.0 4.0 50.6 5.9 L 56.2 22.4 Q 58.5 29.0 64.4 25.2 L 80.3 15.1 Q 82.0 14.0 81.6 15.9 L 78.1 31.2 Q 76.5 38.0 82.2 39.7 L 88.1 41.4 Q 90.0 42.0 88.4 43.2 L 76.4 52.2 Q 70.0 57.0 62.9 57.8 L 56.0 58.6 Q 53.0 59.0 52.8 60.7 L 52.6 62.0 Q 52.5 63.0 52.5 64.0 L 52.0 84.5 Q 52.0 86.0 50.5 86.0 L 49.5 86.0 Q 48.0 86.0 48.0 84.5 L 47.5 64.0 Q 47.5 63.0 47.4 62.0 L 47.2 60.7 Q 47.0 59.0 44.0 58.6 L 37.1 57.8 Q 30.0 57.0 23.6 52.2 L 11.6 43.2 Q 10.0 42.0 11.9 41.4 L 17.8 39.7 Q 23.5 38.0 21.9 31.2 L 18.4 15.9 Q 18.0 14.0 19.7 15.1 L 35.6 25.2 Q 41.5 29.0 43.8 22.4 L 49.4 5.9 Q 50.0 4.0 50.0 4.0 Z" fill="#7A263A"/></g><g transform="translate(384.0,68.0) scale(0.24)"><path d="M 50.0 4.0 Q 50.0 4.0 50.6 5.9 L 56.2 22.4 Q 58.5 29.0 64.4 25.2 L 80.3 15.1 Q 82.0 14.0 81.6 15.9 L 78.1 31.2 Q 76.5 38.0 82.2 39.7 L 88.1 41.4 Q 90.0 42.0 88.4 43.2 L 76.4 52.2 Q 70.0 57.0 62.9 57.8 L 56.0 58.6 Q 53.0 59.0 52.8 60.7 L 52.6 62.0 Q 52.5 63.0 52.5 64.0 L 52.0 84.5 Q 52.0 86.0 50.5 86.0 L 49.5 86.0 Q 48.0 86.0 48.0 84.5 L 47.5 64.0 Q 47.5 63.0 47.4 62.0 L 47.2 60.7 Q 47.0 59.0 44.0 58.6 L 37.1 57.8 Q 30.0 57.0 23.6 52.2 L 11.6 43.2 Q 10.0 42.0 11.9 41.4 L 17.8 39.7 Q 23.5 38.0 21.9 31.2 L 18.4 15.9 Q 18.0 14.0 19.7 15.1 L 35.6 25.2 Q 41.5 29.0 43.8 22.4 L 49.4 5.9 Q 50.0 4.0 50.0 4.0 Z" fill="#7A263A"/></g><g transform="translate(466.0,72.0) scale(0.16)"><path d="M 50.0 4.0 Q 50.0 4.0 50.6 5.9 L 56.2 22.4 Q 58.5 29.0 64.4 25.2 L 80.3 15.1 Q 82.0 14.0 81.6 15.9 L 78.1 31.2 Q 76.5 38.0 82.2 39.7 L 88.1 41.4 Q 90.0 42.0 88.4 43.2 L 76.4 52.2 Q 70.0 57.0 62.9 57.8 L 56.0 58.6 Q 53.0 59.0 52.8 60.7 L 52.6 62.0 Q 52.5 63.0 52.5 64.0 L 52.0 84.5 Q 52.0 86.0 50.5 86.0 L 49.5 86.0 Q 48.0 86.0 48.0 84.5 L 47.5 64.0 Q 47.5 63.0 47.4 62.0 L 47.2 60.7 Q 47.0 59.0 44.0 58.6 L 37.1 57.8 Q 30.0 57.0 23.6 52.2 L 11.6 43.2 Q 10.0 42.0 11.9 41.4 L 17.8 39.7 Q 23.5 38.0 21.9 31.2 L 18.4 15.9 Q 18.0 14.0 19.7 15.1 L 35.6 25.2 Q 41.5 29.0 43.8 22.4 L 49.4 5.9 Q 50.0 4.0 50.0 4.0 Z" fill="#7A263A"/></g><g transform="translate(520,48) scale(0.64)"><circle cx="50" cy="50" r="43" fill="none" stroke="#17324D" stroke-width="4.4"/><g transform="translate(19,22.1) scale(0.62)"><path d="M 50.0 4.0 Q 50.0 4.0 50.6 5.9 L 56.2 22.4 Q 58.5 29.0 64.4 25.2 L 80.3 15.1 Q 82.0 14.0 81.6 15.9 L 78.1 31.2 Q 76.5 38.0 82.2 39.7 L 88.1 41.4 Q 90.0 42.0 88.4 43.2 L 76.4 52.2 Q 70.0 57.0 62.9 57.8 L 56.0 58.6 Q 53.0 59.0 52.8 60.7 L 52.6 62.0 Q 52.5 63.0 52.5 64.0 L 52.0 84.5 Q 52.0 86.0 50.5 86.0 L 49.5 86.0 Q 48.0 86.0 48.0 84.5 L 47.5 64.0 Q 47.5 63.0 47.4 62.0 L 47.2 60.7 Q 47.0 59.0 44.0 58.6 L 37.1 57.8 Q 30.0 57.0 23.6 52.2 L 11.6 43.2 Q 10.0 42.0 11.9 41.4 L 17.8 39.7 Q 23.5 38.0 21.9 31.2 L 18.4 15.9 Q 18.0 14.0 19.7 15.1 L 35.6 25.2 Q 41.5 29.0 43.8 22.4 L 49.4 5.9 Q 50.0 4.0 50.0 4.0 Z" fill="#7A263A"/></g></g><rect x="602" y="54" width="52" height="52" fill="#17324D"/><g transform="translate(604,56) scale(0.48)"><path d="M 50.0 4.0 Q 50.0 4.0 50.6 5.9 L 56.2 22.4 Q 58.5 29.0 64.4 25.2 L 80.3 15.1 Q 82.0 14.0 81.6 15.9 L 78.1 31.2 Q 76.5 38.0 82.2 39.7 L 88.1 41.4 Q 90.0 42.0 88.4 43.2 L 76.4 52.2 Q 70.0 57.0 62.9 57.8 L 56.0 58.6 Q 53.0 59.0 52.8 60.7 L 52.6 62.0 Q 52.5 63.0 52.5 64.0 L 52.0 84.5 Q 52.0 86.0 50.5 86.0 L 49.5 86.0 Q 48.0 86.0 48.0 84.5 L 47.5 64.0 Q 47.5 63.0 47.4 62.0 L 47.2 60.7 Q 47.0 59.0 44.0 58.6 L 37.1 57.8 Q 30.0 57.0 23.6 52.2 L 11.6 43.2 Q 10.0 42.0 11.9 41.4 L 17.8 39.7 Q 23.5 38.0 21.9 31.2 L 18.4 15.9 Q 18.0 14.0 19.7 15.1 L 35.6 25.2 Q 41.5 29.0 43.8 22.4 L 49.4 5.9 Q 50.0 4.0 50.0 4.0 Z" fill="#D9B36C"/></g><text x="8" y="180" font-family="'Radio Canada', 'Helvetica Neue', Arial, sans-serif" font-size="11" fill="#17324D">A blunted</text><g transform="translate(130.0,140.0) scale(0.64)"><path d="M 48.6 8.3 Q 50.0 4.5 51.4 8.3 L 56.1 21.4 Q 58.5 28.0 64.6 24.5 L 76.8 17.5 Q 80.3 15.5 79.8 19.5 L 78.3 30.3 Q 77.5 36.0 82.5 38.8 L 85.9 40.8 Q 88.5 42.3 86.2 44.2 L 80.3 49.0 Q 76.4 52.2 71.8 54.1 L 65.8 56.6 Q 62.9 57.8 59.8 58.2 L 57.7 58.4 Q 56.0 58.6 54.6 59.5 L 54.0 59.9 Q 52.8 60.7 52.7 62.2 L 52.5 64.0 L 52.5 64.0 L 52.0 83.5 Q 52.0 84.5 51.3 85.2 L 50.8 85.7 Q 50.5 86.0 50.0 86.0 L 50.0 86.0 Q 49.5 86.0 49.2 85.7 L 48.7 85.2 Q 48.0 84.5 48.0 83.5 L 47.5 64.0 L 47.5 64.0 L 47.3 62.2 Q 47.2 60.7 46.0 59.9 L 45.4 59.5 Q 44.0 58.6 42.3 58.4 L 40.2 58.2 Q 37.1 57.8 34.2 56.6 L 28.2 54.1 Q 23.6 52.2 19.7 49.0 L 13.8 44.2 Q 11.5 42.3 14.1 40.8 L 17.6 38.8 Q 22.5 36.0 21.7 30.3 L 20.2 19.5 Q 19.7 15.5 23.2 17.5 L 35.4 24.5 Q 41.5 28.0 43.9 21.4 Z" fill="#7A263A"/></g><g transform="translate(216.0,148.0) scale(0.48)"><path d="M 48.6 8.3 Q 50.0 4.5 51.4 8.3 L 56.1 21.4 Q 58.5 28.0 64.6 24.5 L 76.8 17.5 Q 80.3 15.5 79.8 19.5 L 78.3 30.3 Q 77.5 36.0 82.5 38.8 L 85.9 40.8 Q 88.5 42.3 86.2 44.2 L 80.3 49.0 Q 76.4 52.2 71.8 54.1 L 65.8 56.6 Q 62.9 57.8 59.8 58.2 L 57.7 58.4 Q 56.0 58.6 54.6 59.5 L 54.0 59.9 Q 52.8 60.7 52.7 62.2 L 52.5 64.0 L 52.5 64.0 L 52.0 83.5 Q 52.0 84.5 51.3 85.2 L 50.8 85.7 Q 50.5 86.0 50.0 86.0 L 50.0 86.0 Q 49.5 86.0 49.2 85.7 L 48.7 85.2 Q 48.0 84.5 48.0 83.5 L 47.5 64.0 L 47.5 64.0 L 47.3 62.2 Q 47.2 60.7 46.0 59.9 L 45.4 59.5 Q 44.0 58.6 42.3 58.4 L 40.2 58.2 Q 37.1 57.8 34.2 56.6 L 28.2 54.1 Q 23.6 52.2 19.7 49.0 L 13.8 44.2 Q 11.5 42.3 14.1 40.8 L 17.6 38.8 Q 22.5 36.0 21.7 30.3 L 20.2 19.5 Q 19.7 15.5 23.2 17.5 L 35.4 24.5 Q 41.5 28.0 43.9 21.4 Z" fill="#7A263A"/></g><g transform="translate(302.0,156.0) scale(0.32)"><path d="M 48.6 8.3 Q 50.0 4.5 51.4 8.3 L 56.1 21.4 Q 58.5 28.0 64.6 24.5 L 76.8 17.5 Q 80.3 15.5 79.8 19.5 L 78.3 30.3 Q 77.5 36.0 82.5 38.8 L 85.9 40.8 Q 88.5 42.3 86.2 44.2 L 80.3 49.0 Q 76.4 52.2 71.8 54.1 L 65.8 56.6 Q 62.9 57.8 59.8 58.2 L 57.7 58.4 Q 56.0 58.6 54.6 59.5 L 54.0 59.9 Q 52.8 60.7 52.7 62.2 L 52.5 64.0 L 52.5 64.0 L 52.0 83.5 Q 52.0 84.5 51.3 85.2 L 50.8 85.7 Q 50.5 86.0 50.0 86.0 L 50.0 86.0 Q 49.5 86.0 49.2 85.7 L 48.7 85.2 Q 48.0 84.5 48.0 83.5 L 47.5 64.0 L 47.5 64.0 L 47.3 62.2 Q 47.2 60.7 46.0 59.9 L 45.4 59.5 Q 44.0 58.6 42.3 58.4 L 40.2 58.2 Q 37.1 57.8 34.2 56.6 L 28.2 54.1 Q 23.6 52.2 19.7 49.0 L 13.8 44.2 Q 11.5 42.3 14.1 40.8 L 17.6 38.8 Q 22.5 36.0 21.7 30.3 L 20.2 19.5 Q 19.7 15.5 23.2 17.5 L 35.4 24.5 Q 41.5 28.0 43.9 21.4 Z" fill="#7A263A"/></g><g transform="translate(384.0,160.0) scale(0.24)"><path d="M 48.6 8.3 Q 50.0 4.5 51.4 8.3 L 56.1 21.4 Q 58.5 28.0 64.6 24.5 L 76.8 17.5 Q 80.3 15.5 79.8 19.5 L 78.3 30.3 Q 77.5 36.0 82.5 38.8 L 85.9 40.8 Q 88.5 42.3 86.2 44.2 L 80.3 49.0 Q 76.4 52.2 71.8 54.1 L 65.8 56.6 Q 62.9 57.8 59.8 58.2 L 57.7 58.4 Q 56.0 58.6 54.6 59.5 L 54.0 59.9 Q 52.8 60.7 52.7 62.2 L 52.5 64.0 L 52.5 64.0 L 52.0 83.5 Q 52.0 84.5 51.3 85.2 L 50.8 85.7 Q 50.5 86.0 50.0 86.0 L 50.0 86.0 Q 49.5 86.0 49.2 85.7 L 48.7 85.2 Q 48.0 84.5 48.0 83.5 L 47.5 64.0 L 47.5 64.0 L 47.3 62.2 Q 47.2 60.7 46.0 59.9 L 45.4 59.5 Q 44.0 58.6 42.3 58.4 L 40.2 58.2 Q 37.1 57.8 34.2 56.6 L 28.2 54.1 Q 23.6 52.2 19.7 49.0 L 13.8 44.2 Q 11.5 42.3 14.1 40.8 L 17.6 38.8 Q 22.5 36.0 21.7 30.3 L 20.2 19.5 Q 19.7 15.5 23.2 17.5 L 35.4 24.5 Q 41.5 28.0 43.9 21.4 Z" fill="#7A263A"/></g><g transform="translate(466.0,164.0) scale(0.16)"><path d="M 48.6 8.3 Q 50.0 4.5 51.4 8.3 L 56.1 21.4 Q 58.5 28.0 64.6 24.5 L 76.8 17.5 Q 80.3 15.5 79.8 19.5 L 78.3 30.3 Q 77.5 36.0 82.5 38.8 L 85.9 40.8 Q 88.5 42.3 86.2 44.2 L 80.3 49.0 Q 76.4 52.2 71.8 54.1 L 65.8 56.6 Q 62.9 57.8 59.8 58.2 L 57.7 58.4 Q 56.0 58.6 54.6 59.5 L 54.0 59.9 Q 52.8 60.7 52.7 62.2 L 52.5 64.0 L 52.5 64.0 L 52.0 83.5 Q 52.0 84.5 51.3 85.2 L 50.8 85.7 Q 50.5 86.0 50.0 86.0 L 50.0 86.0 Q 49.5 86.0 49.2 85.7 L 48.7 85.2 Q 48.0 84.5 48.0 83.5 L 47.5 64.0 L 47.5 64.0 L 47.3 62.2 Q 47.2 60.7 46.0 59.9 L 45.4 59.5 Q 44.0 58.6 42.3 58.4 L 40.2 58.2 Q 37.1 57.8 34.2 56.6 L 28.2 54.1 Q 23.6 52.2 19.7 49.0 L 13.8 44.2 Q 11.5 42.3 14.1 40.8 L 17.6 38.8 Q 22.5 36.0 21.7 30.3 L 20.2 19.5 Q 19.7 15.5 23.2 17.5 L 35.4 24.5 Q 41.5 28.0 43.9 21.4 Z" fill="#7A263A"/></g><g transform="translate(520,140) scale(0.64)"><circle cx="50" cy="50" r="43" fill="none" stroke="#17324D" stroke-width="4.4"/><g transform="translate(19,22.1) scale(0.62)"><path d="M 48.6 8.3 Q 50.0 4.5 51.4 8.3 L 56.1 21.4 Q 58.5 28.0 64.6 24.5 L 76.8 17.5 Q 80.3 15.5 79.8 19.5 L 78.3 30.3 Q 77.5 36.0 82.5 38.8 L 85.9 40.8 Q 88.5 42.3 86.2 44.2 L 80.3 49.0 Q 76.4 52.2 71.8 54.1 L 65.8 56.6 Q 62.9 57.8 59.8 58.2 L 57.7 58.4 Q 56.0 58.6 54.6 59.5 L 54.0 59.9 Q 52.8 60.7 52.7 62.2 L 52.5 64.0 L 52.5 64.0 L 52.0 83.5 Q 52.0 84.5 51.3 85.2 L 50.8 85.7 Q 50.5 86.0 50.0 86.0 L 50.0 86.0 Q 49.5 86.0 49.2 85.7 L 48.7 85.2 Q 48.0 84.5 48.0 83.5 L 47.5 64.0 L 47.5 64.0 L 47.3 62.2 Q 47.2 60.7 46.0 59.9 L 45.4 59.5 Q 44.0 58.6 42.3 58.4 L 40.2 58.2 Q 37.1 57.8 34.2 56.6 L 28.2 54.1 Q 23.6 52.2 19.7 49.0 L 13.8 44.2 Q 11.5 42.3 14.1 40.8 L 17.6 38.8 Q 22.5 36.0 21.7 30.3 L 20.2 19.5 Q 19.7 15.5 23.2 17.5 L 35.4 24.5 Q 41.5 28.0 43.9 21.4 Z" fill="#7A263A"/></g></g><rect x="602" y="146" width="52" height="52" fill="#17324D"/><g transform="translate(604,148) scale(0.48)"><path d="M 48.6 8.3 Q 50.0 4.5 51.4 8.3 L 56.1 21.4 Q 58.5 28.0 64.6 24.5 L 76.8 17.5 Q 80.3 15.5 79.8 19.5 L 78.3 30.3 Q 77.5 36.0 82.5 38.8 L 85.9 40.8 Q 88.5 42.3 86.2 44.2 L 80.3 49.0 Q 76.4 52.2 71.8 54.1 L 65.8 56.6 Q 62.9 57.8 59.8 58.2 L 57.7 58.4 Q 56.0 58.6 54.6 59.5 L 54.0 59.9 Q 52.8 60.7 52.7 62.2 L 52.5 64.0 L 52.5 64.0 L 52.0 83.5 Q 52.0 84.5 51.3 85.2 L 50.8 85.7 Q 50.5 86.0 50.0 86.0 L 50.0 86.0 Q 49.5 86.0 49.2 85.7 L 48.7 85.2 Q 48.0 84.5 48.0 83.5 L 47.5 64.0 L 47.5 64.0 L 47.3 62.2 Q 47.2 60.7 46.0 59.9 L 45.4 59.5 Q 44.0 58.6 42.3 58.4 L 40.2 58.2 Q 37.1 57.8 34.2 56.6 L 28.2 54.1 Q 23.6 52.2 19.7 49.0 L 13.8 44.2 Q 11.5 42.3 14.1 40.8 L 17.6 38.8 Q 22.5 36.0 21.7 30.3 L 20.2 19.5 Q 19.7 15.5 23.2 17.5 L 35.4 24.5 Q 41.5 28.0 43.9 21.4 Z" fill="#D9B36C"/></g><text x="8" y="272" font-family="'Radio Canada', 'Helvetica Neue', Arial, sans-serif" font-size="11" fill="#17324D">B broad</text><g transform="translate(130.0,232.0) scale(0.64)"><path d="M 49.0 7.8 Q 50.0 5.0 51.0 7.8 L 54.9 19.2 Q 57.3 26.3 64.6 24.8 L 81.9 21.2 Q 85.0 20.5 83.9 23.5 L 81.2 30.6 Q 79.3 35.8 84.1 38.5 L 87.6 40.4 Q 90.0 41.8 87.8 43.5 L 80.8 48.7 Q 76.0 52.3 70.5 54.6 L 65.3 56.8 Q 62.5 58.0 59.5 58.4 L 57.5 58.6 Q 55.8 58.8 54.4 59.7 L 53.8 60.0 Q 52.6 60.8 52.5 62.2 L 52.4 64.0 L 52.4 64.0 L 52.0 83.6 Q 52.0 84.5 51.4 85.2 L 51.0 85.6 Q 50.6 86.0 50.1 86.0 L 49.9 86.0 Q 49.4 86.0 49.0 85.6 L 48.6 85.2 Q 48.0 84.5 48.0 83.6 L 47.6 64.0 L 47.6 64.0 L 47.5 62.2 Q 47.4 60.8 46.2 60.0 L 45.6 59.7 Q 44.2 58.8 42.5 58.6 L 40.5 58.4 Q 37.5 58.0 34.7 56.8 L 29.5 54.6 Q 24.0 52.3 19.2 48.7 L 12.2 43.5 Q 10.0 41.8 12.4 40.4 L 15.9 38.5 Q 20.7 35.8 18.8 30.6 L 16.1 23.5 Q 15.0 20.5 18.1 21.2 L 35.4 24.8 Q 42.7 26.3 45.1 19.2 Z" fill="#7A263A"/></g><g transform="translate(216.0,240.0) scale(0.48)"><path d="M 49.0 7.8 Q 50.0 5.0 51.0 7.8 L 54.9 19.2 Q 57.3 26.3 64.6 24.8 L 81.9 21.2 Q 85.0 20.5 83.9 23.5 L 81.2 30.6 Q 79.3 35.8 84.1 38.5 L 87.6 40.4 Q 90.0 41.8 87.8 43.5 L 80.8 48.7 Q 76.0 52.3 70.5 54.6 L 65.3 56.8 Q 62.5 58.0 59.5 58.4 L 57.5 58.6 Q 55.8 58.8 54.4 59.7 L 53.8 60.0 Q 52.6 60.8 52.5 62.2 L 52.4 64.0 L 52.4 64.0 L 52.0 83.6 Q 52.0 84.5 51.4 85.2 L 51.0 85.6 Q 50.6 86.0 50.1 86.0 L 49.9 86.0 Q 49.4 86.0 49.0 85.6 L 48.6 85.2 Q 48.0 84.5 48.0 83.6 L 47.6 64.0 L 47.6 64.0 L 47.5 62.2 Q 47.4 60.8 46.2 60.0 L 45.6 59.7 Q 44.2 58.8 42.5 58.6 L 40.5 58.4 Q 37.5 58.0 34.7 56.8 L 29.5 54.6 Q 24.0 52.3 19.2 48.7 L 12.2 43.5 Q 10.0 41.8 12.4 40.4 L 15.9 38.5 Q 20.7 35.8 18.8 30.6 L 16.1 23.5 Q 15.0 20.5 18.1 21.2 L 35.4 24.8 Q 42.7 26.3 45.1 19.2 Z" fill="#7A263A"/></g><g transform="translate(302.0,248.0) scale(0.32)"><path d="M 49.0 7.8 Q 50.0 5.0 51.0 7.8 L 54.9 19.2 Q 57.3 26.3 64.6 24.8 L 81.9 21.2 Q 85.0 20.5 83.9 23.5 L 81.2 30.6 Q 79.3 35.8 84.1 38.5 L 87.6 40.4 Q 90.0 41.8 87.8 43.5 L 80.8 48.7 Q 76.0 52.3 70.5 54.6 L 65.3 56.8 Q 62.5 58.0 59.5 58.4 L 57.5 58.6 Q 55.8 58.8 54.4 59.7 L 53.8 60.0 Q 52.6 60.8 52.5 62.2 L 52.4 64.0 L 52.4 64.0 L 52.0 83.6 Q 52.0 84.5 51.4 85.2 L 51.0 85.6 Q 50.6 86.0 50.1 86.0 L 49.9 86.0 Q 49.4 86.0 49.0 85.6 L 48.6 85.2 Q 48.0 84.5 48.0 83.6 L 47.6 64.0 L 47.6 64.0 L 47.5 62.2 Q 47.4 60.8 46.2 60.0 L 45.6 59.7 Q 44.2 58.8 42.5 58.6 L 40.5 58.4 Q 37.5 58.0 34.7 56.8 L 29.5 54.6 Q 24.0 52.3 19.2 48.7 L 12.2 43.5 Q 10.0 41.8 12.4 40.4 L 15.9 38.5 Q 20.7 35.8 18.8 30.6 L 16.1 23.5 Q 15.0 20.5 18.1 21.2 L 35.4 24.8 Q 42.7 26.3 45.1 19.2 Z" fill="#7A263A"/></g><g transform="translate(384.0,252.0) scale(0.24)"><path d="M 49.0 7.8 Q 50.0 5.0 51.0 7.8 L 54.9 19.2 Q 57.3 26.3 64.6 24.8 L 81.9 21.2 Q 85.0 20.5 83.9 23.5 L 81.2 30.6 Q 79.3 35.8 84.1 38.5 L 87.6 40.4 Q 90.0 41.8 87.8 43.5 L 80.8 48.7 Q 76.0 52.3 70.5 54.6 L 65.3 56.8 Q 62.5 58.0 59.5 58.4 L 57.5 58.6 Q 55.8 58.8 54.4 59.7 L 53.8 60.0 Q 52.6 60.8 52.5 62.2 L 52.4 64.0 L 52.4 64.0 L 52.0 83.6 Q 52.0 84.5 51.4 85.2 L 51.0 85.6 Q 50.6 86.0 50.1 86.0 L 49.9 86.0 Q 49.4 86.0 49.0 85.6 L 48.6 85.2 Q 48.0 84.5 48.0 83.6 L 47.6 64.0 L 47.6 64.0 L 47.5 62.2 Q 47.4 60.8 46.2 60.0 L 45.6 59.7 Q 44.2 58.8 42.5 58.6 L 40.5 58.4 Q 37.5 58.0 34.7 56.8 L 29.5 54.6 Q 24.0 52.3 19.2 48.7 L 12.2 43.5 Q 10.0 41.8 12.4 40.4 L 15.9 38.5 Q 20.7 35.8 18.8 30.6 L 16.1 23.5 Q 15.0 20.5 18.1 21.2 L 35.4 24.8 Q 42.7 26.3 45.1 19.2 Z" fill="#7A263A"/></g><g transform="translate(466.0,256.0) scale(0.16)"><path d="M 49.0 7.8 Q 50.0 5.0 51.0 7.8 L 54.9 19.2 Q 57.3 26.3 64.6 24.8 L 81.9 21.2 Q 85.0 20.5 83.9 23.5 L 81.2 30.6 Q 79.3 35.8 84.1 38.5 L 87.6 40.4 Q 90.0 41.8 87.8 43.5 L 80.8 48.7 Q 76.0 52.3 70.5 54.6 L 65.3 56.8 Q 62.5 58.0 59.5 58.4 L 57.5 58.6 Q 55.8 58.8 54.4 59.7 L 53.8 60.0 Q 52.6 60.8 52.5 62.2 L 52.4 64.0 L 52.4 64.0 L 52.0 83.6 Q 52.0 84.5 51.4 85.2 L 51.0 85.6 Q 50.6 86.0 50.1 86.0 L 49.9 86.0 Q 49.4 86.0 49.0 85.6 L 48.6 85.2 Q 48.0 84.5 48.0 83.6 L 47.6 64.0 L 47.6 64.0 L 47.5 62.2 Q 47.4 60.8 46.2 60.0 L 45.6 59.7 Q 44.2 58.8 42.5 58.6 L 40.5 58.4 Q 37.5 58.0 34.7 56.8 L 29.5 54.6 Q 24.0 52.3 19.2 48.7 L 12.2 43.5 Q 10.0 41.8 12.4 40.4 L 15.9 38.5 Q 20.7 35.8 18.8 30.6 L 16.1 23.5 Q 15.0 20.5 18.1 21.2 L 35.4 24.8 Q 42.7 26.3 45.1 19.2 Z" fill="#7A263A"/></g><g transform="translate(520,232) scale(0.64)"><circle cx="50" cy="50" r="43" fill="none" stroke="#17324D" stroke-width="4.4"/><g transform="translate(19,22.1) scale(0.62)"><path d="M 49.0 7.8 Q 50.0 5.0 51.0 7.8 L 54.9 19.2 Q 57.3 26.3 64.6 24.8 L 81.9 21.2 Q 85.0 20.5 83.9 23.5 L 81.2 30.6 Q 79.3 35.8 84.1 38.5 L 87.6 40.4 Q 90.0 41.8 87.8 43.5 L 80.8 48.7 Q 76.0 52.3 70.5 54.6 L 65.3 56.8 Q 62.5 58.0 59.5 58.4 L 57.5 58.6 Q 55.8 58.8 54.4 59.7 L 53.8 60.0 Q 52.6 60.8 52.5 62.2 L 52.4 64.0 L 52.4 64.0 L 52.0 83.6 Q 52.0 84.5 51.4 85.2 L 51.0 85.6 Q 50.6 86.0 50.1 86.0 L 49.9 86.0 Q 49.4 86.0 49.0 85.6 L 48.6 85.2 Q 48.0 84.5 48.0 83.6 L 47.6 64.0 L 47.6 64.0 L 47.5 62.2 Q 47.4 60.8 46.2 60.0 L 45.6 59.7 Q 44.2 58.8 42.5 58.6 L 40.5 58.4 Q 37.5 58.0 34.7 56.8 L 29.5 54.6 Q 24.0 52.3 19.2 48.7 L 12.2 43.5 Q 10.0 41.8 12.4 40.4 L 15.9 38.5 Q 20.7 35.8 18.8 30.6 L 16.1 23.5 Q 15.0 20.5 18.1 21.2 L 35.4 24.8 Q 42.7 26.3 45.1 19.2 Z" fill="#7A263A"/></g></g><rect x="602" y="238" width="52" height="52" fill="#17324D"/><g transform="translate(604,240) scale(0.48)"><path d="M 49.0 7.8 Q 50.0 5.0 51.0 7.8 L 54.9 19.2 Q 57.3 26.3 64.6 24.8 L 81.9 21.2 Q 85.0 20.5 83.9 23.5 L 81.2 30.6 Q 79.3 35.8 84.1 38.5 L 87.6 40.4 Q 90.0 41.8 87.8 43.5 L 80.8 48.7 Q 76.0 52.3 70.5 54.6 L 65.3 56.8 Q 62.5 58.0 59.5 58.4 L 57.5 58.6 Q 55.8 58.8 54.4 59.7 L 53.8 60.0 Q 52.6 60.8 52.5 62.2 L 52.4 64.0 L 52.4 64.0 L 52.0 83.6 Q 52.0 84.5 51.4 85.2 L 51.0 85.6 Q 50.6 86.0 50.1 86.0 L 49.9 86.0 Q 49.4 86.0 49.0 85.6 L 48.6 85.2 Q 48.0 84.5 48.0 83.6 L 47.6 64.0 L 47.6 64.0 L 47.5 62.2 Q 47.4 60.8 46.2 60.0 L 45.6 59.7 Q 44.2 58.8 42.5 58.6 L 40.5 58.4 Q 37.5 58.0 34.7 56.8 L 29.5 54.6 Q 24.0 52.3 19.2 48.7 L 12.2 43.5 Q 10.0 41.8 12.4 40.4 L 15.9 38.5 Q 20.7 35.8 18.8 30.6 L 16.1 23.5 Q 15.0 20.5 18.1 21.2 L 35.4 24.8 Q 42.7 26.3 45.1 19.2 Z" fill="#D9B36C"/></g><text x="8" y="364" font-family="'Radio Canada', 'Helvetica Neue', Arial, sans-serif" font-size="11" fill="#17324D">C broad+stepped</text><g transform="translate(130.0,324.0) scale(0.64)"><path d="M 48.9 7.8 Q 50.0 5.0 51.1 7.8 L 52.8 12.0 Q 53.2 12.9 54.2 13.0 L 56.5 13.3 Q 58.2 13.5 57.6 15.1 L 56.3 18.1 Q 55.8 19.3 56.1 20.6 L 56.9 23.3 Q 57.8 26.6 61.1 25.9 L 82.5 21.1 Q 85.0 20.5 84.2 22.9 L 83.5 25.0 Q 83.2 25.9 84.1 26.2 L 86.0 26.9 Q 87.6 27.4 86.0 27.9 L 83.4 28.8 Q 82.2 29.2 81.7 30.4 L 80.6 32.8 Q 79.3 35.8 82.1 37.4 L 87.6 40.4 Q 90.0 41.8 87.8 43.5 L 80.8 48.7 Q 76.0 52.3 70.5 54.6 L 65.3 56.8 Q 62.5 58.0 59.5 58.4 L 57.5 58.6 Q 55.8 58.8 54.4 59.7 L 53.8 60.0 Q 52.6 60.8 52.5 62.2 L 52.4 64.0 L 52.4 64.0 L 52.0 83.6 Q 52.0 84.5 51.4 85.2 L 51.0 85.6 Q 50.6 86.0 50.1 86.0 L 49.9 86.0 Q 49.4 86.0 49.0 85.6 L 48.6 85.2 Q 48.0 84.5 48.0 83.6 L 47.6 64.0 L 47.6 64.0 L 47.5 62.2 Q 47.4 60.8 46.2 60.0 L 45.6 59.7 Q 44.2 58.8 42.5 58.6 L 40.5 58.4 Q 37.5 58.0 34.7 56.8 L 29.5 54.6 Q 24.0 52.3 19.2 48.7 L 12.2 43.5 Q 10.0 41.8 12.4 40.4 L 17.9 37.4 Q 20.7 35.8 19.4 32.8 L 18.3 30.4 Q 17.8 29.2 16.6 28.8 L 14.0 27.9 Q 12.4 27.4 14.0 26.9 L 15.9 26.2 Q 16.8 25.9 16.5 25.0 L 15.8 22.9 Q 15.0 20.5 17.5 21.1 L 38.9 25.9 Q 42.2 26.6 43.1 23.3 L 43.9 20.6 Q 44.2 19.3 43.7 18.1 L 42.4 15.1 Q 41.8 13.5 43.5 13.3 L 45.8 13.0 Q 46.8 12.9 47.2 12.0 Z" fill="#7A263A"/></g><g transform="translate(216.0,332.0) scale(0.48)"><path d="M 48.9 7.8 Q 50.0 5.0 51.1 7.8 L 52.8 12.0 Q 53.2 12.9 54.2 13.0 L 56.5 13.3 Q 58.2 13.5 57.6 15.1 L 56.3 18.1 Q 55.8 19.3 56.1 20.6 L 56.9 23.3 Q 57.8 26.6 61.1 25.9 L 82.5 21.1 Q 85.0 20.5 84.2 22.9 L 83.5 25.0 Q 83.2 25.9 84.1 26.2 L 86.0 26.9 Q 87.6 27.4 86.0 27.9 L 83.4 28.8 Q 82.2 29.2 81.7 30.4 L 80.6 32.8 Q 79.3 35.8 82.1 37.4 L 87.6 40.4 Q 90.0 41.8 87.8 43.5 L 80.8 48.7 Q 76.0 52.3 70.5 54.6 L 65.3 56.8 Q 62.5 58.0 59.5 58.4 L 57.5 58.6 Q 55.8 58.8 54.4 59.7 L 53.8 60.0 Q 52.6 60.8 52.5 62.2 L 52.4 64.0 L 52.4 64.0 L 52.0 83.6 Q 52.0 84.5 51.4 85.2 L 51.0 85.6 Q 50.6 86.0 50.1 86.0 L 49.9 86.0 Q 49.4 86.0 49.0 85.6 L 48.6 85.2 Q 48.0 84.5 48.0 83.6 L 47.6 64.0 L 47.6 64.0 L 47.5 62.2 Q 47.4 60.8 46.2 60.0 L 45.6 59.7 Q 44.2 58.8 42.5 58.6 L 40.5 58.4 Q 37.5 58.0 34.7 56.8 L 29.5 54.6 Q 24.0 52.3 19.2 48.7 L 12.2 43.5 Q 10.0 41.8 12.4 40.4 L 17.9 37.4 Q 20.7 35.8 19.4 32.8 L 18.3 30.4 Q 17.8 29.2 16.6 28.8 L 14.0 27.9 Q 12.4 27.4 14.0 26.9 L 15.9 26.2 Q 16.8 25.9 16.5 25.0 L 15.8 22.9 Q 15.0 20.5 17.5 21.1 L 38.9 25.9 Q 42.2 26.6 43.1 23.3 L 43.9 20.6 Q 44.2 19.3 43.7 18.1 L 42.4 15.1 Q 41.8 13.5 43.5 13.3 L 45.8 13.0 Q 46.8 12.9 47.2 12.0 Z" fill="#7A263A"/></g><g transform="translate(302.0,340.0) scale(0.32)"><path d="M 48.9 7.8 Q 50.0 5.0 51.1 7.8 L 52.8 12.0 Q 53.2 12.9 54.2 13.0 L 56.5 13.3 Q 58.2 13.5 57.6 15.1 L 56.3 18.1 Q 55.8 19.3 56.1 20.6 L 56.9 23.3 Q 57.8 26.6 61.1 25.9 L 82.5 21.1 Q 85.0 20.5 84.2 22.9 L 83.5 25.0 Q 83.2 25.9 84.1 26.2 L 86.0 26.9 Q 87.6 27.4 86.0 27.9 L 83.4 28.8 Q 82.2 29.2 81.7 30.4 L 80.6 32.8 Q 79.3 35.8 82.1 37.4 L 87.6 40.4 Q 90.0 41.8 87.8 43.5 L 80.8 48.7 Q 76.0 52.3 70.5 54.6 L 65.3 56.8 Q 62.5 58.0 59.5 58.4 L 57.5 58.6 Q 55.8 58.8 54.4 59.7 L 53.8 60.0 Q 52.6 60.8 52.5 62.2 L 52.4 64.0 L 52.4 64.0 L 52.0 83.6 Q 52.0 84.5 51.4 85.2 L 51.0 85.6 Q 50.6 86.0 50.1 86.0 L 49.9 86.0 Q 49.4 86.0 49.0 85.6 L 48.6 85.2 Q 48.0 84.5 48.0 83.6 L 47.6 64.0 L 47.6 64.0 L 47.5 62.2 Q 47.4 60.8 46.2 60.0 L 45.6 59.7 Q 44.2 58.8 42.5 58.6 L 40.5 58.4 Q 37.5 58.0 34.7 56.8 L 29.5 54.6 Q 24.0 52.3 19.2 48.7 L 12.2 43.5 Q 10.0 41.8 12.4 40.4 L 17.9 37.4 Q 20.7 35.8 19.4 32.8 L 18.3 30.4 Q 17.8 29.2 16.6 28.8 L 14.0 27.9 Q 12.4 27.4 14.0 26.9 L 15.9 26.2 Q 16.8 25.9 16.5 25.0 L 15.8 22.9 Q 15.0 20.5 17.5 21.1 L 38.9 25.9 Q 42.2 26.6 43.1 23.3 L 43.9 20.6 Q 44.2 19.3 43.7 18.1 L 42.4 15.1 Q 41.8 13.5 43.5 13.3 L 45.8 13.0 Q 46.8 12.9 47.2 12.0 Z" fill="#7A263A"/></g><g transform="translate(384.0,344.0) scale(0.24)"><path d="M 48.9 7.8 Q 50.0 5.0 51.1 7.8 L 52.8 12.0 Q 53.2 12.9 54.2 13.0 L 56.5 13.3 Q 58.2 13.5 57.6 15.1 L 56.3 18.1 Q 55.8 19.3 56.1 20.6 L 56.9 23.3 Q 57.8 26.6 61.1 25.9 L 82.5 21.1 Q 85.0 20.5 84.2 22.9 L 83.5 25.0 Q 83.2 25.9 84.1 26.2 L 86.0 26.9 Q 87.6 27.4 86.0 27.9 L 83.4 28.8 Q 82.2 29.2 81.7 30.4 L 80.6 32.8 Q 79.3 35.8 82.1 37.4 L 87.6 40.4 Q 90.0 41.8 87.8 43.5 L 80.8 48.7 Q 76.0 52.3 70.5 54.6 L 65.3 56.8 Q 62.5 58.0 59.5 58.4 L 57.5 58.6 Q 55.8 58.8 54.4 59.7 L 53.8 60.0 Q 52.6 60.8 52.5 62.2 L 52.4 64.0 L 52.4 64.0 L 52.0 83.6 Q 52.0 84.5 51.4 85.2 L 51.0 85.6 Q 50.6 86.0 50.1 86.0 L 49.9 86.0 Q 49.4 86.0 49.0 85.6 L 48.6 85.2 Q 48.0 84.5 48.0 83.6 L 47.6 64.0 L 47.6 64.0 L 47.5 62.2 Q 47.4 60.8 46.2 60.0 L 45.6 59.7 Q 44.2 58.8 42.5 58.6 L 40.5 58.4 Q 37.5 58.0 34.7 56.8 L 29.5 54.6 Q 24.0 52.3 19.2 48.7 L 12.2 43.5 Q 10.0 41.8 12.4 40.4 L 17.9 37.4 Q 20.7 35.8 19.4 32.8 L 18.3 30.4 Q 17.8 29.2 16.6 28.8 L 14.0 27.9 Q 12.4 27.4 14.0 26.9 L 15.9 26.2 Q 16.8 25.9 16.5 25.0 L 15.8 22.9 Q 15.0 20.5 17.5 21.1 L 38.9 25.9 Q 42.2 26.6 43.1 23.3 L 43.9 20.6 Q 44.2 19.3 43.7 18.1 L 42.4 15.1 Q 41.8 13.5 43.5 13.3 L 45.8 13.0 Q 46.8 12.9 47.2 12.0 Z" fill="#7A263A"/></g><g transform="translate(466.0,348.0) scale(0.16)"><path d="M 48.9 7.8 Q 50.0 5.0 51.1 7.8 L 52.8 12.0 Q 53.2 12.9 54.2 13.0 L 56.5 13.3 Q 58.2 13.5 57.6 15.1 L 56.3 18.1 Q 55.8 19.3 56.1 20.6 L 56.9 23.3 Q 57.8 26.6 61.1 25.9 L 82.5 21.1 Q 85.0 20.5 84.2 22.9 L 83.5 25.0 Q 83.2 25.9 84.1 26.2 L 86.0 26.9 Q 87.6 27.4 86.0 27.9 L 83.4 28.8 Q 82.2 29.2 81.7 30.4 L 80.6 32.8 Q 79.3 35.8 82.1 37.4 L 87.6 40.4 Q 90.0 41.8 87.8 43.5 L 80.8 48.7 Q 76.0 52.3 70.5 54.6 L 65.3 56.8 Q 62.5 58.0 59.5 58.4 L 57.5 58.6 Q 55.8 58.8 54.4 59.7 L 53.8 60.0 Q 52.6 60.8 52.5 62.2 L 52.4 64.0 L 52.4 64.0 L 52.0 83.6 Q 52.0 84.5 51.4 85.2 L 51.0 85.6 Q 50.6 86.0 50.1 86.0 L 49.9 86.0 Q 49.4 86.0 49.0 85.6 L 48.6 85.2 Q 48.0 84.5 48.0 83.6 L 47.6 64.0 L 47.6 64.0 L 47.5 62.2 Q 47.4 60.8 46.2 60.0 L 45.6 59.7 Q 44.2 58.8 42.5 58.6 L 40.5 58.4 Q 37.5 58.0 34.7 56.8 L 29.5 54.6 Q 24.0 52.3 19.2 48.7 L 12.2 43.5 Q 10.0 41.8 12.4 40.4 L 17.9 37.4 Q 20.7 35.8 19.4 32.8 L 18.3 30.4 Q 17.8 29.2 16.6 28.8 L 14.0 27.9 Q 12.4 27.4 14.0 26.9 L 15.9 26.2 Q 16.8 25.9 16.5 25.0 L 15.8 22.9 Q 15.0 20.5 17.5 21.1 L 38.9 25.9 Q 42.2 26.6 43.1 23.3 L 43.9 20.6 Q 44.2 19.3 43.7 18.1 L 42.4 15.1 Q 41.8 13.5 43.5 13.3 L 45.8 13.0 Q 46.8 12.9 47.2 12.0 Z" fill="#7A263A"/></g><g transform="translate(520,324) scale(0.64)"><circle cx="50" cy="50" r="43" fill="none" stroke="#17324D" stroke-width="4.4"/><g transform="translate(19,22.1) scale(0.62)"><path d="M 48.9 7.8 Q 50.0 5.0 51.1 7.8 L 52.8 12.0 Q 53.2 12.9 54.2 13.0 L 56.5 13.3 Q 58.2 13.5 57.6 15.1 L 56.3 18.1 Q 55.8 19.3 56.1 20.6 L 56.9 23.3 Q 57.8 26.6 61.1 25.9 L 82.5 21.1 Q 85.0 20.5 84.2 22.9 L 83.5 25.0 Q 83.2 25.9 84.1 26.2 L 86.0 26.9 Q 87.6 27.4 86.0 27.9 L 83.4 28.8 Q 82.2 29.2 81.7 30.4 L 80.6 32.8 Q 79.3 35.8 82.1 37.4 L 87.6 40.4 Q 90.0 41.8 87.8 43.5 L 80.8 48.7 Q 76.0 52.3 70.5 54.6 L 65.3 56.8 Q 62.5 58.0 59.5 58.4 L 57.5 58.6 Q 55.8 58.8 54.4 59.7 L 53.8 60.0 Q 52.6 60.8 52.5 62.2 L 52.4 64.0 L 52.4 64.0 L 52.0 83.6 Q 52.0 84.5 51.4 85.2 L 51.0 85.6 Q 50.6 86.0 50.1 86.0 L 49.9 86.0 Q 49.4 86.0 49.0 85.6 L 48.6 85.2 Q 48.0 84.5 48.0 83.6 L 47.6 64.0 L 47.6 64.0 L 47.5 62.2 Q 47.4 60.8 46.2 60.0 L 45.6 59.7 Q 44.2 58.8 42.5 58.6 L 40.5 58.4 Q 37.5 58.0 34.7 56.8 L 29.5 54.6 Q 24.0 52.3 19.2 48.7 L 12.2 43.5 Q 10.0 41.8 12.4 40.4 L 17.9 37.4 Q 20.7 35.8 19.4 32.8 L 18.3 30.4 Q 17.8 29.2 16.6 28.8 L 14.0 27.9 Q 12.4 27.4 14.0 26.9 L 15.9 26.2 Q 16.8 25.9 16.5 25.0 L 15.8 22.9 Q 15.0 20.5 17.5 21.1 L 38.9 25.9 Q 42.2 26.6 43.1 23.3 L 43.9 20.6 Q 44.2 19.3 43.7 18.1 L 42.4 15.1 Q 41.8 13.5 43.5 13.3 L 45.8 13.0 Q 46.8 12.9 47.2 12.0 Z" fill="#7A263A"/></g></g><rect x="602" y="330" width="52" height="52" fill="#17324D"/><g transform="translate(604,332) scale(0.48)"><path d="M 48.9 7.8 Q 50.0 5.0 51.1 7.8 L 52.8 12.0 Q 53.2 12.9 54.2 13.0 L 56.5 13.3 Q 58.2 13.5 57.6 15.1 L 56.3 18.1 Q 55.8 19.3 56.1 20.6 L 56.9 23.3 Q 57.8 26.6 61.1 25.9 L 82.5 21.1 Q 85.0 20.5 84.2 22.9 L 83.5 25.0 Q 83.2 25.9 84.1 26.2 L 86.0 26.9 Q 87.6 27.4 86.0 27.9 L 83.4 28.8 Q 82.2 29.2 81.7 30.4 L 80.6 32.8 Q 79.3 35.8 82.1 37.4 L 87.6 40.4 Q 90.0 41.8 87.8 43.5 L 80.8 48.7 Q 76.0 52.3 70.5 54.6 L 65.3 56.8 Q 62.5 58.0 59.5 58.4 L 57.5 58.6 Q 55.8 58.8 54.4 59.7 L 53.8 60.0 Q 52.6 60.8 52.5 62.2 L 52.4 64.0 L 52.4 64.0 L 52.0 83.6 Q 52.0 84.5 51.4 85.2 L 51.0 85.6 Q 50.6 86.0 50.1 86.0 L 49.9 86.0 Q 49.4 86.0 49.0 85.6 L 48.6 85.2 Q 48.0 84.5 48.0 83.6 L 47.6 64.0 L 47.6 64.0 L 47.5 62.2 Q 47.4 60.8 46.2 60.0 L 45.6 59.7 Q 44.2 58.8 42.5 58.6 L 40.5 58.4 Q 37.5 58.0 34.7 56.8 L 29.5 54.6 Q 24.0 52.3 19.2 48.7 L 12.2 43.5 Q 10.0 41.8 12.4 40.4 L 17.9 37.4 Q 20.7 35.8 19.4 32.8 L 18.3 30.4 Q 17.8 29.2 16.6 28.8 L 14.0 27.9 Q 12.4 27.4 14.0 26.9 L 15.9 26.2 Q 16.8 25.9 16.5 25.0 L 15.8 22.9 Q 15.0 20.5 17.5 21.1 L 38.9 25.9 Q 42.2 26.6 43.1 23.3 L 43.9 20.6 Q 44.2 19.3 43.7 18.1 L 42.4 15.1 Q 41.8 13.5 43.5 13.3 L 45.8 13.0 Q 46.8 12.9 47.2 12.0 Z" fill="#D9B36C"/></g><text x="8" y="456" font-family="'Radio Canada', 'Helvetica Neue', Arial, sans-serif" font-size="11" fill="#17324D">D disc knockout</text><g transform="translate(130.0,416.0) scale(0.64)"><circle cx="50" cy="50" r="47" fill="#7A263A" mask="url(#dm)"/></g><g transform="translate(216.0,424.0) scale(0.48)"><circle cx="50" cy="50" r="47" fill="#7A263A" mask="url(#dm)"/></g><g transform="translate(302.0,432.0) scale(0.32)"><circle cx="50" cy="50" r="47" fill="#7A263A" mask="url(#dm)"/></g><g transform="translate(384.0,436.0) scale(0.24)"><circle cx="50" cy="50" r="47" fill="#7A263A" mask="url(#dm)"/></g><g transform="translate(466.0,440.0) scale(0.16)"><circle cx="50" cy="50" r="47" fill="#7A263A" mask="url(#dm)"/></g><g transform="translate(520,416) scale(0.64)"><circle cx="50" cy="50" r="47" fill="#7A263A" mask="url(#dm)"/></g><rect x="602" y="422" width="52" height="52" fill="#17324D"/><g transform="translate(604,424) scale(0.48)"><circle cx="50" cy="50" r="47" fill="#D9B36C" mask="url(#dm)"/></g><text x="162" y="514" font-family="'Radio Canada', 'Helvetica Neue', Arial, sans-serif" font-size="11" fill="#6B7280" text-anchor="middle">64px</text><text x="240" y="514" font-family="'Radio Canada', 'Helvetica Neue', Arial, sans-serif" font-size="11" fill="#6B7280" text-anchor="middle">48px</text><text x="318" y="514" font-family="'Radio Canada', 'Helvetica Neue', Arial, sans-serif" font-size="11" fill="#6B7280" text-anchor="middle">32px</text><text x="396" y="514" font-family="'Radio Canada', 'Helvetica Neue', Arial, sans-serif" font-size="11" fill="#6B7280" text-anchor="middle">24px</text><text x="474" y="514" font-family="'Radio Canada', 'Helvetica Neue', Arial, sans-serif" font-size="11" fill="#6B7280" text-anchor="middle">16px</text><text x="552" y="514" font-family="'Radio Canada', 'Helvetica Neue', Arial, sans-serif" font-size="11" fill="#6B7280" text-anchor="middle">ring 64</text><text x="630" y="514" font-family="'Radio Canada', 'Helvetica Neue', Arial, sans-serif" font-size="11" fill="#6B7280" text-anchor="middle">navy 48</text></svg>