<svg xmlns="http://www.w3.org/2000/svg" viewBox="0 0 100 100"><path d="M 48.9 7.8 Q 50.0 5.0 51.1 7.8 L 52.8 12.0 Q 53.2 12.9 54.2 13.0 L 56.5 13.3 Q 58.2 13.5 57.6 15.1 L 56.3 18.1 Q 55.8 19.3 56.1 20.6 L 56.9 23.3 Q 57.8 26.6 61.1 25.9 L 82.5 21.1 Q 85.0 20.5 84.2 22.9 L 83.5 25.0 Q 83.2 25.9 84.1 26.2 L 86.0 26.9 Q 87.6 27.4 86.0 27.9 L 83.4 28.8 Q 82.2 29.2 81.7 30.4 L 80.6 32.8 Q 79.3 35.8 82.1 37.4 L 87.6 40.4 Q 90.0 41.8 87.8 43.5 L 80.8 48.7 Q 76.0 52.3 70.5 54.6 L 65.3 56.8 Q 62.5 58.0 59.5 58.4 L 57.5 58.6 Q 55.8 58.8 54.4 59.7 L 53.8 60.0 Q 52.6 60.8 52.5 62.2 L 52.4 64.0 L 52.4 64.0 L 52.0 83.6 Q 52.0 84.5 51.4 85.2 L 51.0 85.6 Q 50.6 86.0 50.1 86.0 L 49.9 86.0 Q 49.4 86.0 49.0 85.6 L 48.6 85.2 Q 48.0 84.5 48.0 83.6 L 47.6 64.0 L 47.6 64.0 L 47.5 62.2 Q 47.4 60.8 46.2 60.0 L 45.6 59.7 Q 44.2 58.8 42.5 58.6 L 40.5 58.4 Q 37.5 58.0 34.7 56.8 L 29.5 54.6 Q 24.0 52.3 19.2 48.7 L 12.2 43.5 Q 10.0 41.8 12.4 40.4 L 17.9 37.4 Q 20.7 35.8 19.4 32.8 L 18.3 30.4 Q 17.8 29.2 16.6 28.8 L 14.0 27.9 Q 12.4 27.4 14.0 26.9 L 15.9 26.2 Q 16.8 25.9 16.5 25.0 L 15.8 22.9 Q 15.0 20.5 17.5 21.1 L 38.9 25.9 Q 42.2 26.6 43.1 23.3 L 43.9 20.6 Q 44.2 19.3 43.7 18.1 L 42.4 15.1 Q 41.8 13.5 43.5 13.3 L 45.8 13.0 Q 46.8 12.9 47.2 12.0 Z" fill="#7A263A"/></svg>