<svg xmlns="http://www.w3.org/2000/svg" viewBox="0 0 100 100"><path d="M 49.0 7.8 Q 50.0 5.0 51.0 7.8 L 54.9 19.2 Q 57.3 26.3 64.6 24.8 L 81.9 21.2 Q 85.0 20.5 83.9 23.5 L 81.2 30.6 Q 79.3 35.8 84.1 38.5 L 87.6 40.4 Q 90.0 41.8 87.8 43.5 L 80.8 48.7 Q 76.0 52.3 70.5 54.6 L 65.3 56.8 Q 62.5 58.0 59.5 58.4 L 57.5 58.6 Q 55.8 58.8 54.4 59.7 L 53.8 60.0 Q 52.6 60.8 52.5 62.2 L 52.4 64.0 L 52.4 64.0 L 52.0 83.6 Q 52.0 84.5 51.4 85.2 L 51.0 85.6 Q 50.6 86.0 50.1 86.0 L 49.9 86.0 Q 49.4 86.0 49.0 85.6 L 48.6 85.2 Q 48.0 84.5 48.0 83.6 L 47.6 64.0 L 47.6 64.0 L 47.5 62.2 Q 47.4 60.8 46.2 60.0 L 45.6 59.7 Q 44.2 58.8 42.5 58.6 L 40.5 58.4 Q 37.5 58.0 34.7 56.8 L 29.5 54.6 Q 24.0 52.3 19.2 48.7 L 12.2 43.5 Q 10.0 41.8 12.4 40.4 L 15.9 38.5 Q 20.7 35.8 18.8 30.6 L 16.1 23.5 Q 15.0 20.5 18.1 21.2 L 35.4 24.8 Q 42.7 26.3 45.1 19.2 Z" fill="#7A263A"/></svg>