<svg xmlns="http://www.w3.org/2000/svg" viewBox="0 0 100 100"><path d="M 48.6 8.3 Q 50.0 4.5 51.4 8.3 L 56.1 21.4 Q 58.5 28.0 64.6 24.5 L 76.8 17.5 Q 80.3 15.5 79.8 19.5 L 78.3 30.3 Q 77.5 36.0 82.5 38.8 L 85.9 40.8 Q 88.5 42.3 86.2 44.2 L 80.3 49.0 Q 76.4 52.2 71.8 54.1 L 65.8 56.6 Q 62.9 57.8 59.8 58.2 L 57.7 58.4 Q 56.0 58.6 54.6 59.5 L 54.0 59.9 Q 52.8 60.7 52.7 62.2 L 52.5 64.0 L 52.5 64.0 L 52.0 83.5 Q 52.0 84.5 51.3 85.2 L 50.8 85.7 Q 50.5 86.0 50.0 86.0 L 50.0 86.0 Q 49.5 86.0 49.2 85.7 L 48.7 85.2 Q 48.0 84.5 48.0 83.5 L 47.5 64.0 L 47.5 64.0 L 47.3 62.2 Q 47.2 60.7 46.0 59.9 L 45.4 59.5 Q 44.0 58.6 42.3 58.4 L 40.2 58.2 Q 37.1 57.8 34.2 56.6 L 28.2 54.1 Q 23.6 52.2 19.7 49.0 L 13.8 44.2 Q 11.5 42.3 14.1 40.8 L 17.6 38.8 Q 22.5 36.0 21.7 30.3 L 20.2 19.5 Q 19.7 15.5 23.2 17.5 L 35.4 24.5 Q 41.5 28.0 43.9 21.4 Z" fill="#7A263A"/></svg>