<svg xmlns="http://www.w3.org/2000/svg" viewBox="0 0 100 100"><defs><path id="kf" d="m 4800,440 -395,738 c -45,80 -125,73 -206,28 l -286,-148 213,1133 c 45,206 -98,206 -169,117 l -467,-522 -76,265 c -9,35 -47,73 -105,64 l -631,-133 166,602 c 35,134 63,190 -34,224 l -225,106 1088,884 c 43,33 65,93 49,148 l -95,313 c 376,-72 713,-181 1090,-186 33,0 88,28 88,84 l -50,1010 173,0 -50,-1010 c 0,-56 55,-84 88,-84 377,5 714,114 1090,186 l -95,-313 c -16,-55 6,-115 49,-148 l 1088,-884 -225,-106 c -97,-34 -69,-90 -34,-224 l 166,-602 -631,133 c -58,9 -96,-29 -105,-64 l -76,-265 -467,522 c -71,89 -214,89 -169,-117 l 213,-1133 -286,148 c -81,45 -161,52 -206,-28 z"/><clipPath id="ckf"><use href="#kf" transform="translate(-40.13,-4.19) scale(0.01862)"/></clipPath></defs><g clip-path="url(#ckf)"><path d="M 50 42 L 36.1 -36.8 L 119.3 2.0 Z" fill="#C2972F"/><path d="M 50 42 L 119.3 2.0 L 119.3 82.0 Z" fill="#17324D"/><path d="M 50 42 L 119.3 82.0 L 43.0 121.7 Z" fill="#2A7F9E"/><path d="M 50 42 L 43.0 121.7 L -25.2 69.4 Z" fill="#7A263A"/><path d="M 50 42 L -25.2 69.4 L -17.8 -0.4 Z" fill="#3F6F5E"/><path d="M 50 42 L -17.8 -0.4 L 36.1 -36.8 Z" fill="#6B7280"/><line x1="50" y1="42" x2="36.1" y2="-36.8" stroke="#F7F4EE" stroke-width="1.6"/><line x1="50" y1="42" x2="119.3" y2="2.0" stroke="#F7F4EE" stroke-width="1.6"/><line x1="50" y1="42" x2="119.3" y2="82.0" stroke="#F7F4EE" stroke-width="1.6"/><line x1="50" y1="42" x2="43.0" y2="121.7" stroke="#F7F4EE" stroke-width="1.6"/><line x1="50" y1="42" x2="-25.2" y2="69.4" stroke="#F7F4EE" stroke-width="1.6"/><line x1="50" y1="42" x2="-17.8" y2="-0.4" stroke="#F7F4EE" stroke-width="1.6"/></g></svg>