<svg xmlns="http://www.w3.org/2000/svg" viewBox="0 0 100 100"><defs><path id="fm" d="m 4800,440 -395,738 c -45,80 -125,73 -206,28 l -286,-148 213,1133 c 45,206 -98,206 -169,117 l -467,-522 -76,265 c -9,35 -47,73 -105,64 l -631,-133 166,602 c 35,134 63,190 -34,224 l -225,106 1088,884 c 43,33 65,93 49,148 l -95,313 c 376,-72 713,-181 1090,-186 33,0 88,28 88,84 l -50,1010 173,0 -50,-1010 c 0,-56 55,-84 88,-84 377,5 714,114 1090,186 l -95,-313 c -16,-55 6,-115 49,-148 l 1088,-884 -225,-106 c -97,-34 -69,-90 -34,-224 l 166,-602 -631,133 c -58,9 -96,-29 -105,-64 l -76,-265 -467,522 c -71,89 -214,89 -169,-117 l 213,-1133 -286,148 c -81,45 -161,52 -206,-28 z"/><clipPath id="cfm"><use href="#fm" transform="translate(-40.13,-4.19) scale(0.01862)"/></clipPath></defs><circle cx="50" cy="50" r="43" fill="none" stroke="#17324D" stroke-width="5.5"/><g transform="translate(19,20.2) scale(0.62)" fill="#7A263A"><use href="#fm" transform="translate(-40.13,-4.19) scale(0.01862)"/></g></svg>