<svg xmlns="http://www.w3.org/2000/svg" viewBox="0 0 640 720"><rect width="640" height="720" fill="white"/><text x="20" y="30" font-family="Helvetica,Arial" font-size="14" fill="#17324D" text-anchor="start">Iter 10 — inner-priority cells: which neutral? (left col = off-white ground · right = pure white)</text><text x="250" y="56" font-family="Helvetica,Arial" font-size="10" fill="#6B7280" text-anchor="middle">off-white ground</text><text x="450" y="56" font-family="Helvetica,Arial" font-size="10" fill="#6B7280" text-anchor="middle">white ground</text><text x="20" y="140" font-family="Helvetica,Arial" font-size="12" fill="#17324D" text-anchor="start">slate-ref</text><text x="20" y="156" font-family="Helvetica,Arial" font-size="9" fill="#6B7280" text-anchor="start">reference — clashes with the slate point</text><rect x="170" y="70" width="130" height="130" rx="4" fill="#F7F4EE" stroke="#E3E0D8"/><g transform="translate(170,70) scale(1.3)"><path d="M53.42 37.46L50 50" fill="none" stroke="#6B7280" stroke-width="1.5" stroke-linejoin="round" stroke-linecap="round"/><path d="M58.7 40.34L50 50" fill="none" stroke="#6B7280" stroke-width="1.5" stroke-linejoin="round" stroke-linecap="round"/><path d="M61.87 44.71L50 50" fill="none" stroke="#6B7280" stroke-width="1.5" stroke-linejoin="round" stroke-linecap="round"/><path d="M62.98 50.67L50 50" fill="none" stroke="#6B7280" stroke-width="1.5" stroke-linejoin="round" stroke-linecap="round"/><path d="M60.9 57.08L50 50" fill="none" stroke="#6B7280" stroke-width="1.5" stroke-linejoin="round" stroke-linecap="round"/><path d="M54.71 62.11L50 50" fill="none" stroke="#6B7280" stroke-width="1.5" stroke-linejoin="round" stroke-linecap="round"/><path d="M45.5 62.2L50 50" fill="none" stroke="#6B7280" stroke-width="1.5" stroke-linejoin="round" stroke-linecap="round"/><path d="M39.19 57.22L50 50" fill="none" stroke="#6B7280" stroke-width="1.5" stroke-linejoin="round" stroke-linecap="round"/><path d="M37.02 50.73L50 50" fill="none" stroke="#6B7280" stroke-width="1.5" stroke-linejoin="round" stroke-linecap="round"/><path d="M38.15 44.66L50 50" fill="none" stroke="#6B7280" stroke-width="1.5" stroke-linejoin="round" stroke-linecap="round"/><path d="M41.43 40.23L50 50" fill="none" stroke="#6B7280" stroke-width="1.5" stroke-linejoin="round" stroke-linecap="round"/><path d="M46.8 37.4L50 50" fill="none" stroke="#6B7280" stroke-width="1.5" stroke-linejoin="round" stroke-linecap="round"/><path d="M46.8 37.4L50.4 3L53.42 37.46" fill="none" stroke="#A8842F" stroke-width="1.5" stroke-linejoin="round" stroke-linecap="round"/><path d="M53.42 37.46L64.5 24.88L58.7 40.34" fill="none" stroke="#6B7280" stroke-width="1.5" stroke-linejoin="round" stroke-linecap="round"/><path d="M58.7 40.34L88.01 22.36L61.87 44.71" fill="none" stroke="#17324D" stroke-width="1.5" stroke-linejoin="round" stroke-linecap="round"/><path d="M61.87 44.71L78.36 43.95L62.98 50.67" fill="none" stroke="#6B7280" stroke-width="1.5" stroke-linejoin="round" stroke-linecap="round"/><path d="M62.98 50.67L94.71 64.51L60.9 57.08" fill="none" stroke="#2A7F9E" stroke-width="1.5" stroke-linejoin="round" stroke-linecap="round"/><path d="M60.9 57.08L69.41 71.55L54.71 62.11" fill="none" stroke="#6B7280" stroke-width="1.5" stroke-linejoin="round" stroke-linecap="round"/><path d="M54.71 62.11L50.42 97L45.5 62.2" fill="none" stroke="#7A263A" stroke-width="1.5" stroke-linejoin="round" stroke-linecap="round"/><path d="M45.5 62.2L30.98 71.89L39.19 57.22" fill="none" stroke="#6B7280" stroke-width="1.5" stroke-linejoin="round" stroke-linecap="round"/><path d="M39.19 57.22L5.43 64.91L37.02 50.73" fill="none" stroke="#3F6F5E" stroke-width="1.5" stroke-linejoin="round" stroke-linecap="round"/><path d="M37.02 50.73L21.64 43.95L38.15 44.66" fill="none" stroke="#6B7280" stroke-width="1.5" stroke-linejoin="round" stroke-linecap="round"/><path d="M38.15 44.66L12.22 22.04L41.43 40.23" fill="none" stroke="#6B7280" stroke-width="1.5" stroke-linejoin="round" stroke-linecap="round"/><path d="M41.43 40.23L35.93 24.64L46.8 37.4" fill="none" stroke="#6B7280" stroke-width="1.5" stroke-linejoin="round" stroke-linecap="round"/></g><rect x="370" y="70" width="130" height="130" rx="4" fill="#FFFFFF" stroke="#E3E0D8"/><g transform="translate(370,70) scale(1.3)"><path d="M53.42 37.46L50 50" fill="none" stroke="#6B7280" stroke-width="1.5" stroke-linejoin="round" stroke-linecap="round"/><path d="M58.7 40.34L50 50" fill="none" stroke="#6B7280" stroke-width="1.5" stroke-linejoin="round" stroke-linecap="round"/><path d="M61.87 44.71L50 50" fill="none" stroke="#6B7280" stroke-width="1.5" stroke-linejoin="round" stroke-linecap="round"/><path d="M62.98 50.67L50 50" fill="none" stroke="#6B7280" stroke-width="1.5" stroke-linejoin="round" stroke-linecap="round"/><path d="M60.9 57.08L50 50" fill="none" stroke="#6B7280" stroke-width="1.5" stroke-linejoin="round" stroke-linecap="round"/><path d="M54.71 62.11L50 50" fill="none" stroke="#6B7280" stroke-width="1.5" stroke-linejoin="round" stroke-linecap="round"/><path d="M45.5 62.2L50 50" fill="none" stroke="#6B7280" stroke-width="1.5" stroke-linejoin="round" stroke-linecap="round"/><path d="M39.19 57.22L50 50" fill="none" stroke="#6B7280" stroke-width="1.5" stroke-linejoin="round" stroke-linecap="round"/><path d="M37.02 50.73L50 50" fill="none" stroke="#6B7280" stroke-width="1.5" stroke-linejoin="round" stroke-linecap="round"/><path d="M38.15 44.66L50 50" fill="none" stroke="#6B7280" stroke-width="1.5" stroke-linejoin="round" stroke-linecap="round"/><path d="M41.43 40.23L50 50" fill="none" stroke="#6B7280" stroke-width="1.5" stroke-linejoin="round" stroke-linecap="round"/><path d="M46.8 37.4L50 50" fill="none" stroke="#6B7280" stroke-width="1.5" stroke-linejoin="round" stroke-linecap="round"/><path d="M46.8 37.4L50.4 3L53.42 37.46" fill="none" stroke="#A8842F" stroke-width="1.5" stroke-linejoin="round" stroke-linecap="round"/><path d="M53.42 37.46L64.5 24.88L58.7 40.34" fill="none" stroke="#6B7280" stroke-width="1.5" stroke-linejoin="round" stroke-linecap="round"/><path d="M58.7 40.34L88.01 22.36L61.87 44.71" fill="none" stroke="#17324D" stroke-width="1.5" stroke-linejoin="round" stroke-linecap="round"/><path d="M61.87 44.71L78.36 43.95L62.98 50.67" fill="none" stroke="#6B7280" stroke-width="1.5" stroke-linejoin="round" stroke-linecap="round"/><path d="M62.98 50.67L94.71 64.51L60.9 57.08" fill="none" stroke="#2A7F9E" stroke-width="1.5" stroke-linejoin="round" stroke-linecap="round"/><path d="M60.9 57.08L69.41 71.55L54.71 62.11" fill="none" stroke="#6B7280" stroke-width="1.5" stroke-linejoin="round" stroke-linecap="round"/><path d="M54.71 62.11L50.42 97L45.5 62.2" fill="none" stroke="#7A263A" stroke-width="1.5" stroke-linejoin="round" stroke-linecap="round"/><path d="M45.5 62.2L30.98 71.89L39.19 57.22" fill="none" stroke="#6B7280" stroke-width="1.5" stroke-linejoin="round" stroke-linecap="round"/><path d="M39.19 57.22L5.43 64.91L37.02 50.73" fill="none" stroke="#3F6F5E" stroke-width="1.5" stroke-linejoin="round" stroke-linecap="round"/><path d="M37.02 50.73L21.64 43.95L38.15 44.66" fill="none" stroke="#6B7280" stroke-width="1.5" stroke-linejoin="round" stroke-linecap="round"/><path d="M38.15 44.66L12.22 22.04L41.43 40.23" fill="none" stroke="#6B7280" stroke-width="1.5" stroke-linejoin="round" stroke-linecap="round"/><path d="M41.43 40.23L35.93 24.64L46.8 37.4" fill="none" stroke="#6B7280" stroke-width="1.5" stroke-linejoin="round" stroke-linecap="round"/></g><rect x="520" y="115" width="44" height="44" rx="4" fill="#F7F4EE" stroke="#E3E0D8"/><g transform="translate(520,115) scale(0.44)"><path d="M53.42 37.46L50 50" fill="none" stroke="#6B7280" stroke-width="1.5" stroke-linejoin="round" stroke-linecap="round"/><path d="M58.7 40.34L50 50" fill="none" stroke="#6B7280" stroke-width="1.5" stroke-linejoin="round" stroke-linecap="round"/><path d="M61.87 44.71L50 50" fill="none" stroke="#6B7280" stroke-width="1.5" stroke-linejoin="round" stroke-linecap="round"/><path d="M62.98 50.67L50 50" fill="none" stroke="#6B7280" stroke-width="1.5" stroke-linejoin="round" stroke-linecap="round"/><path d="M60.9 57.08L50 50" fill="none" stroke="#6B7280" stroke-width="1.5" stroke-linejoin="round" stroke-linecap="round"/><path d="M54.71 62.11L50 50" fill="none" stroke="#6B7280" stroke-width="1.5" stroke-linejoin="round" stroke-linecap="round"/><path d="M45.5 62.2L50 50" fill="none" stroke="#6B7280" stroke-width="1.5" stroke-linejoin="round" stroke-linecap="round"/><path d="M39.19 57.22L50 50" fill="none" stroke="#6B7280" stroke-width="1.5" stroke-linejoin="round" stroke-linecap="round"/><path d="M37.02 50.73L50 50" fill="none" stroke="#6B7280" stroke-width="1.5" stroke-linejoin="round" stroke-linecap="round"/><path d="M38.15 44.66L50 50" fill="none" stroke="#6B7280" stroke-width="1.5" stroke-linejoin="round" stroke-linecap="round"/><path d="M41.43 40.23L50 50" fill="none" stroke="#6B7280" stroke-width="1.5" stroke-linejoin="round" stroke-linecap="round"/><path d="M46.8 37.4L50 50" fill="none" stroke="#6B7280" stroke-width="1.5" stroke-linejoin="round" stroke-linecap="round"/><path d="M46.8 37.4L50.4 3L53.42 37.46" fill="none" stroke="#A8842F" stroke-width="1.5" stroke-linejoin="round" stroke-linecap="round"/><path d="M53.42 37.46L64.5 24.88L58.7 40.34" fill="none" stroke="#6B7280" stroke-width="1.5" stroke-linejoin="round" stroke-linecap="round"/><path d="M58.7 40.34L88.01 22.36L61.87 44.71" fill="none" stroke="#17324D" stroke-width="1.5" stroke-linejoin="round" stroke-linecap="round"/><path d="M61.87 44.71L78.36 43.95L62.98 50.67" fill="none" stroke="#6B7280" stroke-width="1.5" stroke-linejoin="round" stroke-linecap="round"/><path d="M62.98 50.67L94.71 64.51L60.9 57.08" fill="none" stroke="#2A7F9E" stroke-width="1.5" stroke-linejoin="round" stroke-linecap="round"/><path d="M60.9 57.08L69.41 71.55L54.71 62.11" fill="none" stroke="#6B7280" stroke-width="1.5" stroke-linejoin="round" stroke-linecap="round"/><path d="M54.71 62.11L50.42 97L45.5 62.2" fill="none" stroke="#7A263A" stroke-width="1.5" stroke-linejoin="round" stroke-linecap="round"/><path d="M45.5 62.2L30.98 71.89L39.19 57.22" fill="none" stroke="#6B7280" stroke-width="1.5" stroke-linejoin="round" stroke-linecap="round"/><path d="M39.19 57.22L5.43 64.91L37.02 50.73" fill="none" stroke="#3F6F5E" stroke-width="1.5" stroke-linejoin="round" stroke-linecap="round"/><path d="M37.02 50.73L21.64 43.95L38.15 44.66" fill="none" stroke="#6B7280" stroke-width="1.5" stroke-linejoin="round" stroke-linecap="round"/><path d="M38.15 44.66L12.22 22.04L41.43 40.23" fill="none" stroke="#6B7280" stroke-width="1.5" stroke-linejoin="round" stroke-linecap="round"/><path d="M41.43 40.23L35.93 24.64L46.8 37.4" fill="none" stroke="#6B7280" stroke-width="1.5" stroke-linejoin="round" stroke-linecap="round"/></g><text x="20" y="302" font-family="Helvetica,Arial" font-size="12" fill="#17324D" text-anchor="start">white</text><text x="20" y="318" font-family="Helvetica,Arial" font-size="9" fill="#6B7280" text-anchor="start">pure white</text><rect x="170" y="232" width="130" height="130" rx="4" fill="#F7F4EE" stroke="#E3E0D8"/><g transform="translate(170,232) scale(1.3)"><path d="M53.42 37.46L50 50" fill="none" stroke="#FFFFFF" stroke-width="1.5" stroke-linejoin="round" stroke-linecap="round"/><path d="M58.7 40.34L50 50" fill="none" stroke="#FFFFFF" stroke-width="1.5" stroke-linejoin="round" stroke-linecap="round"/><path d="M61.87 44.71L50 50" fill="none" stroke="#FFFFFF" stroke-width="1.5" stroke-linejoin="round" stroke-linecap="round"/><path d="M62.98 50.67L50 50" fill="none" stroke="#FFFFFF" stroke-width="1.5" stroke-linejoin="round" stroke-linecap="round"/><path d="M60.9 57.08L50 50" fill="none" stroke="#FFFFFF" stroke-width="1.5" stroke-linejoin="round" stroke-linecap="round"/><path d="M54.71 62.11L50 50" fill="none" stroke="#FFFFFF" stroke-width="1.5" stroke-linejoin="round" stroke-linecap="round"/><path d="M45.5 62.2L50 50" fill="none" stroke="#FFFFFF" stroke-width="1.5" stroke-linejoin="round" stroke-linecap="round"/><path d="M39.19 57.22L50 50" fill="none" stroke="#FFFFFF" stroke-width="1.5" stroke-linejoin="round" stroke-linecap="round"/><path d="M37.02 50.73L50 50" fill="none" stroke="#FFFFFF" stroke-width="1.5" stroke-linejoin="round" stroke-linecap="round"/><path d="M38.15 44.66L50 50" fill="none" stroke="#FFFFFF" stroke-width="1.5" stroke-linejoin="round" stroke-linecap="round"/><path d="M41.43 40.23L50 50" fill="none" stroke="#FFFFFF" stroke-width="1.5" stroke-linejoin="round" stroke-linecap="round"/><path d="M46.8 37.4L50 50" fill="none" stroke="#FFFFFF" stroke-width="1.5" stroke-linejoin="round" stroke-linecap="round"/><path d="M46.8 37.4L50.4 3L53.42 37.46" fill="none" stroke="#A8842F" stroke-width="1.5" stroke-linejoin="round" stroke-linecap="round"/><path d="M53.42 37.46L64.5 24.88L58.7 40.34" fill="none" stroke="#FFFFFF" stroke-width="1.5" stroke-linejoin="round" stroke-linecap="round"/><path d="M58.7 40.34L88.01 22.36L61.87 44.71" fill="none" stroke="#17324D" stroke-width="1.5" stroke-linejoin="round" stroke-linecap="round"/><path d="M61.87 44.71L78.36 43.95L62.98 50.67" fill="none" stroke="#FFFFFF" stroke-width="1.5" stroke-linejoin="round" stroke-linecap="round"/><path d="M62.98 50.67L94.71 64.51L60.9 57.08" fill="none" stroke="#2A7F9E" stroke-width="1.5" stroke-linejoin="round" stroke-linecap="round"/><path d="M60.9 57.08L69.41 71.55L54.71 62.11" fill="none" stroke="#FFFFFF" stroke-width="1.5" stroke-linejoin="round" stroke-linecap="round"/><path d="M54.71 62.11L50.42 97L45.5 62.2" fill="none" stroke="#7A263A" stroke-width="1.5" stroke-linejoin="round" stroke-linecap="round"/><path d="M45.5 62.2L30.98 71.89L39.19 57.22" fill="none" stroke="#FFFFFF" stroke-width="1.5" stroke-linejoin="round" stroke-linecap="round"/><path d="M39.19 57.22L5.43 64.91L37.02 50.73" fill="none" stroke="#3F6F5E" stroke-width="1.5" stroke-linejoin="round" stroke-linecap="round"/><path d="M37.02 50.73L21.64 43.95L38.15 44.66" fill="none" stroke="#FFFFFF" stroke-width="1.5" stroke-linejoin="round" stroke-linecap="round"/><path d="M38.15 44.66L12.22 22.04L41.43 40.23" fill="none" stroke="#6B7280" stroke-width="1.5" stroke-linejoin="round" stroke-linecap="round"/><path d="M41.43 40.23L35.93 24.64L46.8 37.4" fill="none" stroke="#FFFFFF" stroke-width="1.5" stroke-linejoin="round" stroke-linecap="round"/></g><rect x="370" y="232" width="130" height="130" rx="4" fill="#FFFFFF" stroke="#E3E0D8"/><g transform="translate(370,232) scale(1.3)"><path d="M53.42 37.46L50 50" fill="none" stroke="#FFFFFF" stroke-width="1.5" stroke-linejoin="round" stroke-linecap="round"/><path d="M58.7 40.34L50 50" fill="none" stroke="#FFFFFF" stroke-width="1.5" stroke-linejoin="round" stroke-linecap="round"/><path d="M61.87 44.71L50 50" fill="none" stroke="#FFFFFF" stroke-width="1.5" stroke-linejoin="round" stroke-linecap="round"/><path d="M62.98 50.67L50 50" fill="none" stroke="#FFFFFF" stroke-width="1.5" stroke-linejoin="round" stroke-linecap="round"/><path d="M60.9 57.08L50 50" fill="none" stroke="#FFFFFF" stroke-width="1.5" stroke-linejoin="round" stroke-linecap="round"/><path d="M54.71 62.11L50 50" fill="none" stroke="#FFFFFF" stroke-width="1.5" stroke-linejoin="round" stroke-linecap="round"/><path d="M45.5 62.2L50 50" fill="none" stroke="#FFFFFF" stroke-width="1.5" stroke-linejoin="round" stroke-linecap="round"/><path d="M39.19 57.22L50 50" fill="none" stroke="#FFFFFF" stroke-width="1.5" stroke-linejoin="round" stroke-linecap="round"/><path d="M37.02 50.73L50 50" fill="none" stroke="#FFFFFF" stroke-width="1.5" stroke-linejoin="round" stroke-linecap="round"/><path d="M38.15 44.66L50 50" fill="none" stroke="#FFFFFF" stroke-width="1.5" stroke-linejoin="round" stroke-linecap="round"/><path d="M41.43 40.23L50 50" fill="none" stroke="#FFFFFF" stroke-width="1.5" stroke-linejoin="round" stroke-linecap="round"/><path d="M46.8 37.4L50 50" fill="none" stroke="#FFFFFF" stroke-width="1.5" stroke-linejoin="round" stroke-linecap="round"/><path d="M46.8 37.4L50.4 3L53.42 37.46" fill="none" stroke="#A8842F" stroke-width="1.5" stroke-linejoin="round" stroke-linecap="round"/><path d="M53.42 37.46L64.5 24.88L58.7 40.34" fill="none" stroke="#FFFFFF" stroke-width="1.5" stroke-linejoin="round" stroke-linecap="round"/><path d="M58.7 40.34L88.01 22.36L61.87 44.71" fill="none" stroke="#17324D" stroke-width="1.5" stroke-linejoin="round" stroke-linecap="round"/><path d="M61.87 44.71L78.36 43.95L62.98 50.67" fill="none" stroke="#FFFFFF" stroke-width="1.5" stroke-linejoin="round" stroke-linecap="round"/><path d="M62.98 50.67L94.71 64.51L60.9 57.08" fill="none" stroke="#2A7F9E" stroke-width="1.5" stroke-linejoin="round" stroke-linecap="round"/><path d="M60.9 57.08L69.41 71.55L54.71 62.11" fill="none" stroke="#FFFFFF" stroke-width="1.5" stroke-linejoin="round" stroke-linecap="round"/><path d="M54.71 62.11L50.42 97L45.5 62.2" fill="none" stroke="#7A263A" stroke-width="1.5" stroke-linejoin="round" stroke-linecap="round"/><path d="M45.5 62.2L30.98 71.89L39.19 57.22" fill="none" stroke="#FFFFFF" stroke-width="1.5" stroke-linejoin="round" stroke-linecap="round"/><path d="M39.19 57.22L5.43 64.91L37.02 50.73" fill="none" stroke="#3F6F5E" stroke-width="1.5" stroke-linejoin="round" stroke-linecap="round"/><path d="M37.02 50.73L21.64 43.95L38.15 44.66" fill="none" stroke="#FFFFFF" stroke-width="1.5" stroke-linejoin="round" stroke-linecap="round"/><path d="M38.15 44.66L12.22 22.04L41.43 40.23" fill="none" stroke="#6B7280" stroke-width="1.5" stroke-linejoin="round" stroke-linecap="round"/><path d="M41.43 40.23L35.93 24.64L46.8 37.4" fill="none" stroke="#FFFFFF" stroke-width="1.5" stroke-linejoin="round" stroke-linecap="round"/></g><rect x="520" y="277" width="44" height="44" rx="4" fill="#F7F4EE" stroke="#E3E0D8"/><g transform="translate(520,277) scale(0.44)"><path d="M53.42 37.46L50 50" fill="none" stroke="#FFFFFF" stroke-width="1.5" stroke-linejoin="round" stroke-linecap="round"/><path d="M58.7 40.34L50 50" fill="none" stroke="#FFFFFF" stroke-width="1.5" stroke-linejoin="round" stroke-linecap="round"/><path d="M61.87 44.71L50 50" fill="none" stroke="#FFFFFF" stroke-width="1.5" stroke-linejoin="round" stroke-linecap="round"/><path d="M62.98 50.67L50 50" fill="none" stroke="#FFFFFF" stroke-width="1.5" stroke-linejoin="round" stroke-linecap="round"/><path d="M60.9 57.08L50 50" fill="none" stroke="#FFFFFF" stroke-width="1.5" stroke-linejoin="round" stroke-linecap="round"/><path d="M54.71 62.11L50 50" fill="none" stroke="#FFFFFF" stroke-width="1.5" stroke-linejoin="round" stroke-linecap="round"/><path d="M45.5 62.2L50 50" fill="none" stroke="#FFFFFF" stroke-width="1.5" stroke-linejoin="round" stroke-linecap="round"/><path d="M39.19 57.22L50 50" fill="none" stroke="#FFFFFF" stroke-width="1.5" stroke-linejoin="round" stroke-linecap="round"/><path d="M37.02 50.73L50 50" fill="none" stroke="#FFFFFF" stroke-width="1.5" stroke-linejoin="round" stroke-linecap="round"/><path d="M38.15 44.66L50 50" fill="none" stroke="#FFFFFF" stroke-width="1.5" stroke-linejoin="round" stroke-linecap="round"/><path d="M41.43 40.23L50 50" fill="none" stroke="#FFFFFF" stroke-width="1.5" stroke-linejoin="round" stroke-linecap="round"/><path d="M46.8 37.4L50 50" fill="none" stroke="#FFFFFF" stroke-width="1.5" stroke-linejoin="round" stroke-linecap="round"/><path d="M46.8 37.4L50.4 3L53.42 37.46" fill="none" stroke="#A8842F" stroke-width="1.5" stroke-linejoin="round" stroke-linecap="round"/><path d="M53.42 37.46L64.5 24.88L58.7 40.34" fill="none" stroke="#FFFFFF" stroke-width="1.5" stroke-linejoin="round" stroke-linecap="round"/><path d="M58.7 40.34L88.01 22.36L61.87 44.71" fill="none" stroke="#17324D" stroke-width="1.5" stroke-linejoin="round" stroke-linecap="round"/><path d="M61.87 44.71L78.36 43.95L62.98 50.67" fill="none" stroke="#FFFFFF" stroke-width="1.5" stroke-linejoin="round" stroke-linecap="round"/><path d="M62.98 50.67L94.71 64.51L60.9 57.08" fill="none" stroke="#2A7F9E" stroke-width="1.5" stroke-linejoin="round" stroke-linecap="round"/><path d="M60.9 57.08L69.41 71.55L54.71 62.11" fill="none" stroke="#FFFFFF" stroke-width="1.5" stroke-linejoin="round" stroke-linecap="round"/><path d="M54.71 62.11L50.42 97L45.5 62.2" fill="none" stroke="#7A263A" stroke-width="1.5" stroke-linejoin="round" stroke-linecap="round"/><path d="M45.5 62.2L30.98 71.89L39.19 57.22" fill="none" stroke="#FFFFFF" stroke-width="1.5" stroke-linejoin="round" stroke-linecap="round"/><path d="M39.19 57.22L5.43 64.91L37.02 50.73" fill="none" stroke="#3F6F5E" stroke-width="1.5" stroke-linejoin="round" stroke-linecap="round"/><path d="M37.02 50.73L21.64 43.95L38.15 44.66" fill="none" stroke="#FFFFFF" stroke-width="1.5" stroke-linejoin="round" stroke-linecap="round"/><path d="M38.15 44.66L12.22 22.04L41.43 40.23" fill="none" stroke="#6B7280" stroke-width="1.5" stroke-linejoin="round" stroke-linecap="round"/><path d="M41.43 40.23L35.93 24.64L46.8 37.4" fill="none" stroke="#FFFFFF" stroke-width="1.5" stroke-linejoin="round" stroke-linecap="round"/></g><text x="20" y="464" font-family="Helvetica,Arial" font-size="12" fill="#17324D" text-anchor="start">offwhite</text><text x="20" y="480" font-family="Helvetica,Arial" font-size="9" fill="#6B7280" text-anchor="start">brand off-white = the page ground</text><rect x="170" y="394" width="130" height="130" rx="4" fill="#F7F4EE" stroke="#E3E0D8"/><g transform="translate(170,394) scale(1.3)"><path d="M53.42 37.46L50 50" fill="none" stroke="#F7F4EE" stroke-width="1.5" stroke-linejoin="round" stroke-linecap="round"/><path d="M58.7 40.34L50 50" fill="none" stroke="#F7F4EE" stroke-width="1.5" stroke-linejoin="round" stroke-linecap="round"/><path d="M61.87 44.71L50 50" fill="none" stroke="#F7F4EE" stroke-width="1.5" stroke-linejoin="round" stroke-linecap="round"/><path d="M62.98 50.67L50 50" fill="none" stroke="#F7F4EE" stroke-width="1.5" stroke-linejoin="round" stroke-linecap="round"/><path d="M60.9 57.08L50 50" fill="none" stroke="#F7F4EE" stroke-width="1.5" stroke-linejoin="round" stroke-linecap="round"/><path d="M54.71 62.11L50 50" fill="none" stroke="#F7F4EE" stroke-width="1.5" stroke-linejoin="round" stroke-linecap="round"/><path d="M45.5 62.2L50 50" fill="none" stroke="#F7F4EE" stroke-width="1.5" stroke-linejoin="round" stroke-linecap="round"/><path d="M39.19 57.22L50 50" fill="none" stroke="#F7F4EE" stroke-width="1.5" stroke-linejoin="round" stroke-linecap="round"/><path d="M37.02 50.73L50 50" fill="none" stroke="#F7F4EE" stroke-width="1.5" stroke-linejoin="round" stroke-linecap="round"/><path d="M38.15 44.66L50 50" fill="none" stroke="#F7F4EE" stroke-width="1.5" stroke-linejoin="round" stroke-linecap="round"/><path d="M41.43 40.23L50 50" fill="none" stroke="#F7F4EE" stroke-width="1.5" stroke-linejoin="round" stroke-linecap="round"/><path d="M46.8 37.4L50 50" fill="none" stroke="#F7F4EE" stroke-width="1.5" stroke-linejoin="round" stroke-linecap="round"/><path d="M46.8 37.4L50.4 3L53.42 37.46" fill="none" stroke="#A8842F" stroke-width="1.5" stroke-linejoin="round" stroke-linecap="round"/><path d="M53.42 37.46L64.5 24.88L58.7 40.34" fill="none" stroke="#F7F4EE" stroke-width="1.5" stroke-linejoin="round" stroke-linecap="round"/><path d="M58.7 40.34L88.01 22.36L61.87 44.71" fill="none" stroke="#17324D" stroke-width="1.5" stroke-linejoin="round" stroke-linecap="round"/><path d="M61.87 44.71L78.36 43.95L62.98 50.67" fill="none" stroke="#F7F4EE" stroke-width="1.5" stroke-linejoin="round" stroke-linecap="round"/><path d="M62.98 50.67L94.71 64.51L60.9 57.08" fill="none" stroke="#2A7F9E" stroke-width="1.5" stroke-linejoin="round" stroke-linecap="round"/><path d="M60.9 57.08L69.41 71.55L54.71 62.11" fill="none" stroke="#F7F4EE" stroke-width="1.5" stroke-linejoin="round" stroke-linecap="round"/><path d="M54.71 62.11L50.42 97L45.5 62.2" fill="none" stroke="#7A263A" stroke-width="1.5" stroke-linejoin="round" stroke-linecap="round"/><path d="M45.5 62.2L30.98 71.89L39.19 57.22" fill="none" stroke="#F7F4EE" stroke-width="1.5" stroke-linejoin="round" stroke-linecap="round"/><path d="M39.19 57.22L5.43 64.91L37.02 50.73" fill="none" stroke="#3F6F5E" stroke-width="1.5" stroke-linejoin="round" stroke-linecap="round"/><path d="M37.02 50.73L21.64 43.95L38.15 44.66" fill="none" stroke="#F7F4EE" stroke-width="1.5" stroke-linejoin="round" stroke-linecap="round"/><path d="M38.15 44.66L12.22 22.04L41.43 40.23" fill="none" stroke="#6B7280" stroke-width="1.5" stroke-linejoin="round" stroke-linecap="round"/><path d="M41.43 40.23L35.93 24.64L46.8 37.4" fill="none" stroke="#F7F4EE" stroke-width="1.5" stroke-linejoin="round" stroke-linecap="round"/></g><rect x="370" y="394" width="130" height="130" rx="4" fill="#FFFFFF" stroke="#E3E0D8"/><g transform="translate(370,394) scale(1.3)"><path d="M53.42 37.46L50 50" fill="none" stroke="#F7F4EE" stroke-width="1.5" stroke-linejoin="round" stroke-linecap="round"/><path d="M58.7 40.34L50 50" fill="none" stroke="#F7F4EE" stroke-width="1.5" stroke-linejoin="round" stroke-linecap="round"/><path d="M61.87 44.71L50 50" fill="none" stroke="#F7F4EE" stroke-width="1.5" stroke-linejoin="round" stroke-linecap="round"/><path d="M62.98 50.67L50 50" fill="none" stroke="#F7F4EE" stroke-width="1.5" stroke-linejoin="round" stroke-linecap="round"/><path d="M60.9 57.08L50 50" fill="none" stroke="#F7F4EE" stroke-width="1.5" stroke-linejoin="round" stroke-linecap="round"/><path d="M54.71 62.11L50 50" fill="none" stroke="#F7F4EE" stroke-width="1.5" stroke-linejoin="round" stroke-linecap="round"/><path d="M45.5 62.2L50 50" fill="none" stroke="#F7F4EE" stroke-width="1.5" stroke-linejoin="round" stroke-linecap="round"/><path d="M39.19 57.22L50 50" fill="none" stroke="#F7F4EE" stroke-width="1.5" stroke-linejoin="round" stroke-linecap="round"/><path d="M37.02 50.73L50 50" fill="none" stroke="#F7F4EE" stroke-width="1.5" stroke-linejoin="round" stroke-linecap="round"/><path d="M38.15 44.66L50 50" fill="none" stroke="#F7F4EE" stroke-width="1.5" stroke-linejoin="round" stroke-linecap="round"/><path d="M41.43 40.23L50 50" fill="none" stroke="#F7F4EE" stroke-width="1.5" stroke-linejoin="round" stroke-linecap="round"/><path d="M46.8 37.4L50 50" fill="none" stroke="#F7F4EE" stroke-width="1.5" stroke-linejoin="round" stroke-linecap="round"/><path d="M46.8 37.4L50.4 3L53.42 37.46" fill="none" stroke="#A8842F" stroke-width="1.5" stroke-linejoin="round" stroke-linecap="round"/><path d="M53.42 37.46L64.5 24.88L58.7 40.34" fill="none" stroke="#F7F4EE" stroke-width="1.5" stroke-linejoin="round" stroke-linecap="round"/><path d="M58.7 40.34L88.01 22.36L61.87 44.71" fill="none" stroke="#17324D" stroke-width="1.5" stroke-linejoin="round" stroke-linecap="round"/><path d="M61.87 44.71L78.36 43.95L62.98 50.67" fill="none" stroke="#F7F4EE" stroke-width="1.5" stroke-linejoin="round" stroke-linecap="round"/><path d="M62.98 50.67L94.71 64.51L60.9 57.08" fill="none" stroke="#2A7F9E" stroke-width="1.5" stroke-linejoin="round" stroke-linecap="round"/><path d="M60.9 57.08L69.41 71.55L54.71 62.11" fill="none" stroke="#F7F4EE" stroke-width="1.5" stroke-linejoin="round" stroke-linecap="round"/><path d="M54.71 62.11L50.42 97L45.5 62.2" fill="none" stroke="#7A263A" stroke-width="1.5" stroke-linejoin="round" stroke-linecap="round"/><path d="M45.5 62.2L30.98 71.89L39.19 57.22" fill="none" stroke="#F7F4EE" stroke-width="1.5" stroke-linejoin="round" stroke-linecap="round"/><path d="M39.19 57.22L5.43 64.91L37.02 50.73" fill="none" stroke="#3F6F5E" stroke-width="1.5" stroke-linejoin="round" stroke-linecap="round"/><path d="M37.02 50.73L21.64 43.95L38.15 44.66" fill="none" stroke="#F7F4EE" stroke-width="1.5" stroke-linejoin="round" stroke-linecap="round"/><path d="M38.15 44.66L12.22 22.04L41.43 40.23" fill="none" stroke="#6B7280" stroke-width="1.5" stroke-linejoin="round" stroke-linecap="round"/><path d="M41.43 40.23L35.93 24.64L46.8 37.4" fill="none" stroke="#F7F4EE" stroke-width="1.5" stroke-linejoin="round" stroke-linecap="round"/></g><rect x="520" y="439" width="44" height="44" rx="4" fill="#F7F4EE" stroke="#E3E0D8"/><g transform="translate(520,439) scale(0.44)"><path d="M53.42 37.46L50 50" fill="none" stroke="#F7F4EE" stroke-width="1.5" stroke-linejoin="round" stroke-linecap="round"/><path d="M58.7 40.34L50 50" fill="none" stroke="#F7F4EE" stroke-width="1.5" stroke-linejoin="round" stroke-linecap="round"/><path d="M61.87 44.71L50 50" fill="none" stroke="#F7F4EE" stroke-width="1.5" stroke-linejoin="round" stroke-linecap="round"/><path d="M62.98 50.67L50 50" fill="none" stroke="#F7F4EE" stroke-width="1.5" stroke-linejoin="round" stroke-linecap="round"/><path d="M60.9 57.08L50 50" fill="none" stroke="#F7F4EE" stroke-width="1.5" stroke-linejoin="round" stroke-linecap="round"/><path d="M54.71 62.11L50 50" fill="none" stroke="#F7F4EE" stroke-width="1.5" stroke-linejoin="round" stroke-linecap="round"/><path d="M45.5 62.2L50 50" fill="none" stroke="#F7F4EE" stroke-width="1.5" stroke-linejoin="round" stroke-linecap="round"/><path d="M39.19 57.22L50 50" fill="none" stroke="#F7F4EE" stroke-width="1.5" stroke-linejoin="round" stroke-linecap="round"/><path d="M37.02 50.73L50 50" fill="none" stroke="#F7F4EE" stroke-width="1.5" stroke-linejoin="round" stroke-linecap="round"/><path d="M38.15 44.66L50 50" fill="none" stroke="#F7F4EE" stroke-width="1.5" stroke-linejoin="round" stroke-linecap="round"/><path d="M41.43 40.23L50 50" fill="none" stroke="#F7F4EE" stroke-width="1.5" stroke-linejoin="round" stroke-linecap="round"/><path d="M46.8 37.4L50 50" fill="none" stroke="#F7F4EE" stroke-width="1.5" stroke-linejoin="round" stroke-linecap="round"/><path d="M46.8 37.4L50.4 3L53.42 37.46" fill="none" stroke="#A8842F" stroke-width="1.5" stroke-linejoin="round" stroke-linecap="round"/><path d="M53.42 37.46L64.5 24.88L58.7 40.34" fill="none" stroke="#F7F4EE" stroke-width="1.5" stroke-linejoin="round" stroke-linecap="round"/><path d="M58.7 40.34L88.01 22.36L61.87 44.71" fill="none" stroke="#17324D" stroke-width="1.5" stroke-linejoin="round" stroke-linecap="round"/><path d="M61.87 44.71L78.36 43.95L62.98 50.67" fill="none" stroke="#F7F4EE" stroke-width="1.5" stroke-linejoin="round" stroke-linecap="round"/><path d="M62.98 50.67L94.71 64.51L60.9 57.08" fill="none" stroke="#2A7F9E" stroke-width="1.5" stroke-linejoin="round" stroke-linecap="round"/><path d="M60.9 57.08L69.41 71.55L54.71 62.11" fill="none" stroke="#F7F4EE" stroke-width="1.5" stroke-linejoin="round" stroke-linecap="round"/><path d="M54.71 62.11L50.42 97L45.5 62.2" fill="none" stroke="#7A263A" stroke-width="1.5" stroke-linejoin="round" stroke-linecap="round"/><path d="M45.5 62.2L30.98 71.89L39.19 57.22" fill="none" stroke="#F7F4EE" stroke-width="1.5" stroke-linejoin="round" stroke-linecap="round"/><path d="M39.19 57.22L5.43 64.91L37.02 50.73" fill="none" stroke="#3F6F5E" stroke-width="1.5" stroke-linejoin="round" stroke-linecap="round"/><path d="M37.02 50.73L21.64 43.95L38.15 44.66" fill="none" stroke="#F7F4EE" stroke-width="1.5" stroke-linejoin="round" stroke-linecap="round"/><path d="M38.15 44.66L12.22 22.04L41.43 40.23" fill="none" stroke="#6B7280" stroke-width="1.5" stroke-linejoin="round" stroke-linecap="round"/><path d="M41.43 40.23L35.93 24.64L46.8 37.4" fill="none" stroke="#F7F4EE" stroke-width="1.5" stroke-linejoin="round" stroke-linecap="round"/></g><text x="20" y="626" font-family="Helvetica,Arial" font-size="12" fill="#17324D" text-anchor="start">bordergrey</text><text x="20" y="642" font-family="Helvetica,Arial" font-size="9" fill="#6B7280" text-anchor="start">brand 'faded white' (Border Grey)</text><rect x="170" y="556" width="130" height="130" rx="4" fill="#F7F4EE" stroke="#E3E0D8"/><g transform="translate(170,556) scale(1.3)"><path d="M53.42 37.46L50 50" fill="none" stroke="#D9DEE5" stroke-width="1.5" stroke-linejoin="round" stroke-linecap="round"/><path d="M58.7 40.34L50 50" fill="none" stroke="#D9DEE5" stroke-width="1.5" stroke-linejoin="round" stroke-linecap="round"/><path d="M61.87 44.71L50 50" fill="none" stroke="#D9DEE5" stroke-width="1.5" stroke-linejoin="round" stroke-linecap="round"/><path d="M62.98 50.67L50 50" fill="none" stroke="#D9DEE5" stroke-width="1.5" stroke-linejoin="round" stroke-linecap="round"/><path d="M60.9 57.08L50 50" fill="none" stroke="#D9DEE5" stroke-width="1.5" stroke-linejoin="round" stroke-linecap="round"/><path d="M54.71 62.11L50 50" fill="none" stroke="#D9DEE5" stroke-width="1.5" stroke-linejoin="round" stroke-linecap="round"/><path d="M45.5 62.2L50 50" fill="none" stroke="#D9DEE5" stroke-width="1.5" stroke-linejoin="round" stroke-linecap="round"/><path d="M39.19 57.22L50 50" fill="none" stroke="#D9DEE5" stroke-width="1.5" stroke-linejoin="round" stroke-linecap="round"/><path d="M37.02 50.73L50 50" fill="none" stroke="#D9DEE5" stroke-width="1.5" stroke-linejoin="round" stroke-linecap="round"/><path d="M38.15 44.66L50 50" fill="none" stroke="#D9DEE5" stroke-width="1.5" stroke-linejoin="round" stroke-linecap="round"/><path d="M41.43 40.23L50 50" fill="none" stroke="#D9DEE5" stroke-width="1.5" stroke-linejoin="round" stroke-linecap="round"/><path d="M46.8 37.4L50 50" fill="none" stroke="#D9DEE5" stroke-width="1.5" stroke-linejoin="round" stroke-linecap="round"/><path d="M46.8 37.4L50.4 3L53.42 37.46" fill="none" stroke="#A8842F" stroke-width="1.5" stroke-linejoin="round" stroke-linecap="round"/><path d="M53.42 37.46L64.5 24.88L58.7 40.34" fill="none" stroke="#D9DEE5" stroke-width="1.5" stroke-linejoin="round" stroke-linecap="round"/><path d="M58.7 40.34L88.01 22.36L61.87 44.71" fill="none" stroke="#17324D" stroke-width="1.5" stroke-linejoin="round" stroke-linecap="round"/><path d="M61.87 44.71L78.36 43.95L62.98 50.67" fill="none" stroke="#D9DEE5" stroke-width="1.5" stroke-linejoin="round" stroke-linecap="round"/><path d="M62.98 50.67L94.71 64.51L60.9 57.08" fill="none" stroke="#2A7F9E" stroke-width="1.5" stroke-linejoin="round" stroke-linecap="round"/><path d="M60.9 57.08L69.41 71.55L54.71 62.11" fill="none" stroke="#D9DEE5" stroke-width="1.5" stroke-linejoin="round" stroke-linecap="round"/><path d="M54.71 62.11L50.42 97L45.5 62.2" fill="none" stroke="#7A263A" stroke-width="1.5" stroke-linejoin="round" stroke-linecap="round"/><path d="M45.5 62.2L30.98 71.89L39.19 57.22" fill="none" stroke="#D9DEE5" stroke-width="1.5" stroke-linejoin="round" stroke-linecap="round"/><path d="M39.19 57.22L5.43 64.91L37.02 50.73" fill="none" stroke="#3F6F5E" stroke-width="1.5" stroke-linejoin="round" stroke-linecap="round"/><path d="M37.02 50.73L21.64 43.95L38.15 44.66" fill="none" stroke="#D9DEE5" stroke-width="1.5" stroke-linejoin="round" stroke-linecap="round"/><path d="M38.15 44.66L12.22 22.04L41.43 40.23" fill="none" stroke="#6B7280" stroke-width="1.5" stroke-linejoin="round" stroke-linecap="round"/><path d="M41.43 40.23L35.93 24.64L46.8 37.4" fill="none" stroke="#D9DEE5" stroke-width="1.5" stroke-linejoin="round" stroke-linecap="round"/></g><rect x="370" y="556" width="130" height="130" rx="4" fill="#FFFFFF" stroke="#E3E0D8"/><g transform="translate(370,556) scale(1.3)"><path d="M53.42 37.46L50 50" fill="none" stroke="#D9DEE5" stroke-width="1.5" stroke-linejoin="round" stroke-linecap="round"/><path d="M58.7 40.34L50 50" fill="none" stroke="#D9DEE5" stroke-width="1.5" stroke-linejoin="round" stroke-linecap="round"/><path d="M61.87 44.71L50 50" fill="none" stroke="#D9DEE5" stroke-width="1.5" stroke-linejoin="round" stroke-linecap="round"/><path d="M62.98 50.67L50 50" fill="none" stroke="#D9DEE5" stroke-width="1.5" stroke-linejoin="round" stroke-linecap="round"/><path d="M60.9 57.08L50 50" fill="none" stroke="#D9DEE5" stroke-width="1.5" stroke-linejoin="round" stroke-linecap="round"/><path d="M54.71 62.11L50 50" fill="none" stroke="#D9DEE5" stroke-width="1.5" stroke-linejoin="round" stroke-linecap="round"/><path d="M45.5 62.2L50 50" fill="none" stroke="#D9DEE5" stroke-width="1.5" stroke-linejoin="round" stroke-linecap="round"/><path d="M39.19 57.22L50 50" fill="none" stroke="#D9DEE5" stroke-width="1.5" stroke-linejoin="round" stroke-linecap="round"/><path d="M37.02 50.73L50 50" fill="none" stroke="#D9DEE5" stroke-width="1.5" stroke-linejoin="round" stroke-linecap="round"/><path d="M38.15 44.66L50 50" fill="none" stroke="#D9DEE5" stroke-width="1.5" stroke-linejoin="round" stroke-linecap="round"/><path d="M41.43 40.23L50 50" fill="none" stroke="#D9DEE5" stroke-width="1.5" stroke-linejoin="round" stroke-linecap="round"/><path d="M46.8 37.4L50 50" fill="none" stroke="#D9DEE5" stroke-width="1.5" stroke-linejoin="round" stroke-linecap="round"/><path d="M46.8 37.4L50.4 3L53.42 37.46" fill="none" stroke="#A8842F" stroke-width="1.5" stroke-linejoin="round" stroke-linecap="round"/><path d="M53.42 37.46L64.5 24.88L58.7 40.34" fill="none" stroke="#D9DEE5" stroke-width="1.5" stroke-linejoin="round" stroke-linecap="round"/><path d="M58.7 40.34L88.01 22.36L61.87 44.71" fill="none" stroke="#17324D" stroke-width="1.5" stroke-linejoin="round" stroke-linecap="round"/><path d="M61.87 44.71L78.36 43.95L62.98 50.67" fill="none" stroke="#D9DEE5" stroke-width="1.5" stroke-linejoin="round" stroke-linecap="round"/><path d="M62.98 50.67L94.71 64.51L60.9 57.08" fill="none" stroke="#2A7F9E" stroke-width="1.5" stroke-linejoin="round" stroke-linecap="round"/><path d="M60.9 57.08L69.41 71.55L54.71 62.11" fill="none" stroke="#D9DEE5" stroke-width="1.5" stroke-linejoin="round" stroke-linecap="round"/><path d="M54.71 62.11L50.42 97L45.5 62.2" fill="none" stroke="#7A263A" stroke-width="1.5" stroke-linejoin="round" stroke-linecap="round"/><path d="M45.5 62.2L30.98 71.89L39.19 57.22" fill="none" stroke="#D9DEE5" stroke-width="1.5" stroke-linejoin="round" stroke-linecap="round"/><path d="M39.19 57.22L5.43 64.91L37.02 50.73" fill="none" stroke="#3F6F5E" stroke-width="1.5" stroke-linejoin="round" stroke-linecap="round"/><path d="M37.02 50.73L21.64 43.95L38.15 44.66" fill="none" stroke="#D9DEE5" stroke-width="1.5" stroke-linejoin="round" stroke-linecap="round"/><path d="M38.15 44.66L12.22 22.04L41.43 40.23" fill="none" stroke="#6B7280" stroke-width="1.5" stroke-linejoin="round" stroke-linecap="round"/><path d="M41.43 40.23L35.93 24.64L46.8 37.4" fill="none" stroke="#D9DEE5" stroke-width="1.5" stroke-linejoin="round" stroke-linecap="round"/></g><rect x="520" y="601" width="44" height="44" rx="4" fill="#F7F4EE" stroke="#E3E0D8"/><g transform="translate(520,601) scale(0.44)"><path d="M53.42 37.46L50 50" fill="none" stroke="#D9DEE5" stroke-width="1.5" stroke-linejoin="round" stroke-linecap="round"/><path d="M58.7 40.34L50 50" fill="none" stroke="#D9DEE5" stroke-width="1.5" stroke-linejoin="round" stroke-linecap="round"/><path d="M61.87 44.71L50 50" fill="none" stroke="#D9DEE5" stroke-width="1.5" stroke-linejoin="round" stroke-linecap="round"/><path d="M62.98 50.67L50 50" fill="none" stroke="#D9DEE5" stroke-width="1.5" stroke-linejoin="round" stroke-linecap="round"/><path d="M60.9 57.08L50 50" fill="none" stroke="#D9DEE5" stroke-width="1.5" stroke-linejoin="round" stroke-linecap="round"/><path d="M54.71 62.11L50 50" fill="none" stroke="#D9DEE5" stroke-width="1.5" stroke-linejoin="round" stroke-linecap="round"/><path d="M45.5 62.2L50 50" fill="none" stroke="#D9DEE5" stroke-width="1.5" stroke-linejoin="round" stroke-linecap="round"/><path d="M39.19 57.22L50 50" fill="none" stroke="#D9DEE5" stroke-width="1.5" stroke-linejoin="round" stroke-linecap="round"/><path d="M37.02 50.73L50 50" fill="none" stroke="#D9DEE5" stroke-width="1.5" stroke-linejoin="round" stroke-linecap="round"/><path d="M38.15 44.66L50 50" fill="none" stroke="#D9DEE5" stroke-width="1.5" stroke-linejoin="round" stroke-linecap="round"/><path d="M41.43 40.23L50 50" fill="none" stroke="#D9DEE5" stroke-width="1.5" stroke-linejoin="round" stroke-linecap="round"/><path d="M46.8 37.4L50 50" fill="none" stroke="#D9DEE5" stroke-width="1.5" stroke-linejoin="round" stroke-linecap="round"/><path d="M46.8 37.4L50.4 3L53.42 37.46" fill="none" stroke="#A8842F" stroke-width="1.5" stroke-linejoin="round" stroke-linecap="round"/><path d="M53.42 37.46L64.5 24.88L58.7 40.34" fill="none" stroke="#D9DEE5" stroke-width="1.5" stroke-linejoin="round" stroke-linecap="round"/><path d="M58.7 40.34L88.01 22.36L61.87 44.71" fill="none" stroke="#17324D" stroke-width="1.5" stroke-linejoin="round" stroke-linecap="round"/><path d="M61.87 44.71L78.36 43.95L62.98 50.67" fill="none" stroke="#D9DEE5" stroke-width="1.5" stroke-linejoin="round" stroke-linecap="round"/><path d="M62.98 50.67L94.71 64.51L60.9 57.08" fill="none" stroke="#2A7F9E" stroke-width="1.5" stroke-linejoin="round" stroke-linecap="round"/><path d="M60.9 57.08L69.41 71.55L54.71 62.11" fill="none" stroke="#D9DEE5" stroke-width="1.5" stroke-linejoin="round" stroke-linecap="round"/><path d="M54.71 62.11L50.42 97L45.5 62.2" fill="none" stroke="#7A263A" stroke-width="1.5" stroke-linejoin="round" stroke-linecap="round"/><path d="M45.5 62.2L30.98 71.89L39.19 57.22" fill="none" stroke="#D9DEE5" stroke-width="1.5" stroke-linejoin="round" stroke-linecap="round"/><path d="M39.19 57.22L5.43 64.91L37.02 50.73" fill="none" stroke="#3F6F5E" stroke-width="1.5" stroke-linejoin="round" stroke-linecap="round"/><path d="M37.02 50.73L21.64 43.95L38.15 44.66" fill="none" stroke="#D9DEE5" stroke-width="1.5" stroke-linejoin="round" stroke-linecap="round"/><path d="M38.15 44.66L12.22 22.04L41.43 40.23" fill="none" stroke="#6B7280" stroke-width="1.5" stroke-linejoin="round" stroke-linecap="round"/><path d="M41.43 40.23L35.93 24.64L46.8 37.4" fill="none" stroke="#D9DEE5" stroke-width="1.5" stroke-linejoin="round" stroke-linecap="round"/></g></svg>