<svg xmlns="http://www.w3.org/2000/svg" viewBox="0 0 720 560"><rect width="720" height="560" fill="white"/><text x="24" y="34" font-family="Helvetica,Arial" font-size="15" fill="#17324D" text-anchor="start">Iter 8 — cells outline: inner vs outer colour priority (definite lines, no fade)</text><text x="24" y="130" font-family="Helvetica,Arial" font-size="12" fill="#17324D" text-anchor="start">iter-7 faded skeleton (the awkward one)</text><rect x="330" y="60.0" width="130" height="130" rx="4" fill="#FFFFFF"/><g transform="translate(330,60.0) scale(1.3)"><circle cx="50" cy="50" r="48" fill="#F7F4EE"/><path d="M53.42 37.46L50 50" fill="none" stroke="#B9BCC4" stroke-width="1.2" stroke-linejoin="round" stroke-linecap="round"/><path d="M58.7 40.34L50 50" fill="none" stroke="#B9BCC4" stroke-width="1.2" stroke-linejoin="round" stroke-linecap="round"/><path d="M61.87 44.71L50 50" fill="none" stroke="#B9BCC4" stroke-width="1.2" stroke-linejoin="round" stroke-linecap="round"/><path d="M62.98 50.67L50 50" fill="none" stroke="#B9BCC4" stroke-width="1.2" stroke-linejoin="round" stroke-linecap="round"/><path d="M60.9 57.08L50 50" fill="none" stroke="#B9BCC4" stroke-width="1.2" stroke-linejoin="round" stroke-linecap="round"/><path d="M54.71 62.11L50 50" fill="none" stroke="#B9BCC4" stroke-width="1.2" stroke-linejoin="round" stroke-linecap="round"/><path d="M45.5 62.2L50 50" fill="none" stroke="#B9BCC4" stroke-width="1.2" stroke-linejoin="round" stroke-linecap="round"/><path d="M39.19 57.22L50 50" fill="none" stroke="#B9BCC4" stroke-width="1.2" stroke-linejoin="round" stroke-linecap="round"/><path d="M37.02 50.73L50 50" fill="none" stroke="#B9BCC4" stroke-width="1.2" stroke-linejoin="round" stroke-linecap="round"/><path d="M38.15 44.66L50 50" fill="none" stroke="#B9BCC4" stroke-width="1.2" stroke-linejoin="round" stroke-linecap="round"/><path d="M41.43 40.23L50 50" fill="none" stroke="#B9BCC4" stroke-width="1.2" stroke-linejoin="round" stroke-linecap="round"/><path d="M46.8 37.4L50 50" fill="none" stroke="#B9BCC4" stroke-width="1.2" stroke-linejoin="round" stroke-linecap="round"/><path d="M46.8 37.4L50.4 3L53.42 37.46" fill="none" stroke="#A8842F" stroke-width="1.5" stroke-linejoin="round" stroke-linecap="round"/><path d="M53.42 37.46L64.5 24.88L58.7 40.34" fill="none" stroke="#6B7280" stroke-width="1.5" stroke-linejoin="round" stroke-linecap="round"/><path d="M58.7 40.34L88.01 22.36L61.87 44.71" fill="none" stroke="#17324D" stroke-width="1.5" stroke-linejoin="round" stroke-linecap="round"/><path d="M61.87 44.71L78.36 43.95L62.98 50.67" fill="none" stroke="#6B7280" stroke-width="1.5" stroke-linejoin="round" stroke-linecap="round"/><path d="M62.98 50.67L94.71 64.51L60.9 57.08" fill="none" stroke="#2A7F9E" stroke-width="1.5" stroke-linejoin="round" stroke-linecap="round"/><path d="M60.9 57.08L69.41 71.55L54.71 62.11" fill="none" stroke="#6B7280" stroke-width="1.5" stroke-linejoin="round" stroke-linecap="round"/><path d="M54.71 62.11L50.42 97L45.5 62.2" fill="none" stroke="#7A263A" stroke-width="1.5" stroke-linejoin="round" stroke-linecap="round"/><path d="M45.5 62.2L30.98 71.89L39.19 57.22" fill="none" stroke="#6B7280" stroke-width="1.5" stroke-linejoin="round" stroke-linecap="round"/><path d="M39.19 57.22L5.43 64.91L37.02 50.73" fill="none" stroke="#3F6F5E" stroke-width="1.5" stroke-linejoin="round" stroke-linecap="round"/><path d="M37.02 50.73L21.64 43.95L38.15 44.66" fill="none" stroke="#6B7280" stroke-width="1.5" stroke-linejoin="round" stroke-linecap="round"/><path d="M38.15 44.66L12.22 22.04L41.43 40.23" fill="none" stroke="#6B7280" stroke-width="1.5" stroke-linejoin="round" stroke-linecap="round"/><path d="M41.43 40.23L35.93 24.64L46.8 37.4" fill="none" stroke="#6B7280" stroke-width="1.5" stroke-linejoin="round" stroke-linecap="round"/></g><text x="395.0" y="202" font-family="Helvetica,Arial" font-size="9" fill="#6B7280" text-anchor="middle">130px</text><rect x="490" y="93.0" width="64" height="64" rx="4" fill="#FFFFFF"/><g transform="translate(490,93.0) scale(0.64)"><circle cx="50" cy="50" r="48" fill="#F7F4EE"/><path d="M53.42 37.46L50 50" fill="none" stroke="#B9BCC4" stroke-width="1.2" stroke-linejoin="round" stroke-linecap="round"/><path d="M58.7 40.34L50 50" fill="none" stroke="#B9BCC4" stroke-width="1.2" stroke-linejoin="round" stroke-linecap="round"/><path d="M61.87 44.71L50 50" fill="none" stroke="#B9BCC4" stroke-width="1.2" stroke-linejoin="round" stroke-linecap="round"/><path d="M62.98 50.67L50 50" fill="none" stroke="#B9BCC4" stroke-width="1.2" stroke-linejoin="round" stroke-linecap="round"/><path d="M60.9 57.08L50 50" fill="none" stroke="#B9BCC4" stroke-width="1.2" stroke-linejoin="round" stroke-linecap="round"/><path d="M54.71 62.11L50 50" fill="none" stroke="#B9BCC4" stroke-width="1.2" stroke-linejoin="round" stroke-linecap="round"/><path d="M45.5 62.2L50 50" fill="none" stroke="#B9BCC4" stroke-width="1.2" stroke-linejoin="round" stroke-linecap="round"/><path d="M39.19 57.22L50 50" fill="none" stroke="#B9BCC4" stroke-width="1.2" stroke-linejoin="round" stroke-linecap="round"/><path d="M37.02 50.73L50 50" fill="none" stroke="#B9BCC4" stroke-width="1.2" stroke-linejoin="round" stroke-linecap="round"/><path d="M38.15 44.66L50 50" fill="none" stroke="#B9BCC4" stroke-width="1.2" stroke-linejoin="round" stroke-linecap="round"/><path d="M41.43 40.23L50 50" fill="none" stroke="#B9BCC4" stroke-width="1.2" stroke-linejoin="round" stroke-linecap="round"/><path d="M46.8 37.4L50 50" fill="none" stroke="#B9BCC4" stroke-width="1.2" stroke-linejoin="round" stroke-linecap="round"/><path d="M46.8 37.4L50.4 3L53.42 37.46" fill="none" stroke="#A8842F" stroke-width="1.5" stroke-linejoin="round" stroke-linecap="round"/><path d="M53.42 37.46L64.5 24.88L58.7 40.34" fill="none" stroke="#6B7280" stroke-width="1.5" stroke-linejoin="round" stroke-linecap="round"/><path d="M58.7 40.34L88.01 22.36L61.87 44.71" fill="none" stroke="#17324D" stroke-width="1.5" stroke-linejoin="round" stroke-linecap="round"/><path d="M61.87 44.71L78.36 43.95L62.98 50.67" fill="none" stroke="#6B7280" stroke-width="1.5" stroke-linejoin="round" stroke-linecap="round"/><path d="M62.98 50.67L94.71 64.51L60.9 57.08" fill="none" stroke="#2A7F9E" stroke-width="1.5" stroke-linejoin="round" stroke-linecap="round"/><path d="M60.9 57.08L69.41 71.55L54.71 62.11" fill="none" stroke="#6B7280" stroke-width="1.5" stroke-linejoin="round" stroke-linecap="round"/><path d="M54.71 62.11L50.42 97L45.5 62.2" fill="none" stroke="#7A263A" stroke-width="1.5" stroke-linejoin="round" stroke-linecap="round"/><path d="M45.5 62.2L30.98 71.89L39.19 57.22" fill="none" stroke="#6B7280" stroke-width="1.5" stroke-linejoin="round" stroke-linecap="round"/><path d="M39.19 57.22L5.43 64.91L37.02 50.73" fill="none" stroke="#3F6F5E" stroke-width="1.5" stroke-linejoin="round" stroke-linecap="round"/><path d="M37.02 50.73L21.64 43.95L38.15 44.66" fill="none" stroke="#6B7280" stroke-width="1.5" stroke-linejoin="round" stroke-linecap="round"/><path d="M38.15 44.66L12.22 22.04L41.43 40.23" fill="none" stroke="#6B7280" stroke-width="1.5" stroke-linejoin="round" stroke-linecap="round"/><path d="M41.43 40.23L35.93 24.64L46.8 37.4" fill="none" stroke="#6B7280" stroke-width="1.5" stroke-linejoin="round" stroke-linecap="round"/></g><text x="522.0" y="202" font-family="Helvetica,Arial" font-size="9" fill="#6B7280" text-anchor="middle">64px</text><rect x="584" y="107.0" width="36" height="36" rx="4" fill="#FFFFFF"/><g transform="translate(584,107.0) scale(0.36)"><circle cx="50" cy="50" r="48" fill="#F7F4EE"/><path d="M53.42 37.46L50 50" fill="none" stroke="#B9BCC4" stroke-width="1.2" stroke-linejoin="round" stroke-linecap="round"/><path d="M58.7 40.34L50 50" fill="none" stroke="#B9BCC4" stroke-width="1.2" stroke-linejoin="round" stroke-linecap="round"/><path d="M61.87 44.71L50 50" fill="none" stroke="#B9BCC4" stroke-width="1.2" stroke-linejoin="round" stroke-linecap="round"/><path d="M62.98 50.67L50 50" fill="none" stroke="#B9BCC4" stroke-width="1.2" stroke-linejoin="round" stroke-linecap="round"/><path d="M60.9 57.08L50 50" fill="none" stroke="#B9BCC4" stroke-width="1.2" stroke-linejoin="round" stroke-linecap="round"/><path d="M54.71 62.11L50 50" fill="none" stroke="#B9BCC4" stroke-width="1.2" stroke-linejoin="round" stroke-linecap="round"/><path d="M45.5 62.2L50 50" fill="none" stroke="#B9BCC4" stroke-width="1.2" stroke-linejoin="round" stroke-linecap="round"/><path d="M39.19 57.22L50 50" fill="none" stroke="#B9BCC4" stroke-width="1.2" stroke-linejoin="round" stroke-linecap="round"/><path d="M37.02 50.73L50 50" fill="none" stroke="#B9BCC4" stroke-width="1.2" stroke-linejoin="round" stroke-linecap="round"/><path d="M38.15 44.66L50 50" fill="none" stroke="#B9BCC4" stroke-width="1.2" stroke-linejoin="round" stroke-linecap="round"/><path d="M41.43 40.23L50 50" fill="none" stroke="#B9BCC4" stroke-width="1.2" stroke-linejoin="round" stroke-linecap="round"/><path d="M46.8 37.4L50 50" fill="none" stroke="#B9BCC4" stroke-width="1.2" stroke-linejoin="round" stroke-linecap="round"/><path d="M46.8 37.4L50.4 3L53.42 37.46" fill="none" stroke="#A8842F" stroke-width="1.5" stroke-linejoin="round" stroke-linecap="round"/><path d="M53.42 37.46L64.5 24.88L58.7 40.34" fill="none" stroke="#6B7280" stroke-width="1.5" stroke-linejoin="round" stroke-linecap="round"/><path d="M58.7 40.34L88.01 22.36L61.87 44.71" fill="none" stroke="#17324D" stroke-width="1.5" stroke-linejoin="round" stroke-linecap="round"/><path d="M61.87 44.71L78.36 43.95L62.98 50.67" fill="none" stroke="#6B7280" stroke-width="1.5" stroke-linejoin="round" stroke-linecap="round"/><path d="M62.98 50.67L94.71 64.51L60.9 57.08" fill="none" stroke="#2A7F9E" stroke-width="1.5" stroke-linejoin="round" stroke-linecap="round"/><path d="M60.9 57.08L69.41 71.55L54.71 62.11" fill="none" stroke="#6B7280" stroke-width="1.5" stroke-linejoin="round" stroke-linecap="round"/><path d="M54.71 62.11L50.42 97L45.5 62.2" fill="none" stroke="#7A263A" stroke-width="1.5" stroke-linejoin="round" stroke-linecap="round"/><path d="M45.5 62.2L30.98 71.89L39.19 57.22" fill="none" stroke="#6B7280" stroke-width="1.5" stroke-linejoin="round" stroke-linecap="round"/><path d="M39.19 57.22L5.43 64.91L37.02 50.73" fill="none" stroke="#3F6F5E" stroke-width="1.5" stroke-linejoin="round" stroke-linecap="round"/><path d="M37.02 50.73L21.64 43.95L38.15 44.66" fill="none" stroke="#6B7280" stroke-width="1.5" stroke-linejoin="round" stroke-linecap="round"/><path d="M38.15 44.66L12.22 22.04L41.43 40.23" fill="none" stroke="#6B7280" stroke-width="1.5" stroke-linejoin="round" stroke-linecap="round"/><path d="M41.43 40.23L35.93 24.64L46.8 37.4" fill="none" stroke="#6B7280" stroke-width="1.5" stroke-linejoin="round" stroke-linecap="round"/></g><text x="602.0" y="202" font-family="Helvetica,Arial" font-size="9" fill="#6B7280" text-anchor="middle">36px</text><text x="24" y="290" font-family="Helvetica,Arial" font-size="12" fill="#17324D" text-anchor="start">OUTER priority — colour wedges to centre</text><rect x="330" y="220.0" width="130" height="130" rx="4" fill="#FFFFFF"/><g transform="translate(330,220.0) scale(1.3)"><circle cx="50" cy="50" r="48" fill="#F7F4EE"/><path d="M53.42 37.46L50 50" fill="none" stroke="#A8842F" stroke-width="1.5" stroke-linejoin="round" stroke-linecap="round"/><path d="M58.7 40.34L50 50" fill="none" stroke="#17324D" stroke-width="1.5" stroke-linejoin="round" stroke-linecap="round"/><path d="M61.87 44.71L50 50" fill="none" stroke="#17324D" stroke-width="1.5" stroke-linejoin="round" stroke-linecap="round"/><path d="M62.98 50.67L50 50" fill="none" stroke="#2A7F9E" stroke-width="1.5" stroke-linejoin="round" stroke-linecap="round"/><path d="M60.9 57.08L50 50" fill="none" stroke="#2A7F9E" stroke-width="1.5" stroke-linejoin="round" stroke-linecap="round"/><path d="M54.71 62.11L50 50" fill="none" stroke="#7A263A" stroke-width="1.5" stroke-linejoin="round" stroke-linecap="round"/><path d="M45.5 62.2L50 50" fill="none" stroke="#7A263A" stroke-width="1.5" stroke-linejoin="round" stroke-linecap="round"/><path d="M39.19 57.22L50 50" fill="none" stroke="#3F6F5E" stroke-width="1.5" stroke-linejoin="round" stroke-linecap="round"/><path d="M37.02 50.73L50 50" fill="none" stroke="#3F6F5E" stroke-width="1.5" stroke-linejoin="round" stroke-linecap="round"/><path d="M38.15 44.66L50 50" fill="none" stroke="#6B7280" stroke-width="1.5" stroke-linejoin="round" stroke-linecap="round"/><path d="M41.43 40.23L50 50" fill="none" stroke="#6B7280" stroke-width="1.5" stroke-linejoin="round" stroke-linecap="round"/><path d="M46.8 37.4L50 50" fill="none" stroke="#A8842F" stroke-width="1.5" stroke-linejoin="round" stroke-linecap="round"/><path d="M46.8 37.4L50.4 3L53.42 37.46" fill="none" stroke="#A8842F" stroke-width="1.5" stroke-linejoin="round" stroke-linecap="round"/><path d="M53.42 37.46L64.5 24.88L58.7 40.34" fill="none" stroke="#6B7280" stroke-width="1.5" stroke-linejoin="round" stroke-linecap="round"/><path d="M58.7 40.34L88.01 22.36L61.87 44.71" fill="none" stroke="#17324D" stroke-width="1.5" stroke-linejoin="round" stroke-linecap="round"/><path d="M61.87 44.71L78.36 43.95L62.98 50.67" fill="none" stroke="#6B7280" stroke-width="1.5" stroke-linejoin="round" stroke-linecap="round"/><path d="M62.98 50.67L94.71 64.51L60.9 57.08" fill="none" stroke="#2A7F9E" stroke-width="1.5" stroke-linejoin="round" stroke-linecap="round"/><path d="M60.9 57.08L69.41 71.55L54.71 62.11" fill="none" stroke="#6B7280" stroke-width="1.5" stroke-linejoin="round" stroke-linecap="round"/><path d="M54.71 62.11L50.42 97L45.5 62.2" fill="none" stroke="#7A263A" stroke-width="1.5" stroke-linejoin="round" stroke-linecap="round"/><path d="M45.5 62.2L30.98 71.89L39.19 57.22" fill="none" stroke="#6B7280" stroke-width="1.5" stroke-linejoin="round" stroke-linecap="round"/><path d="M39.19 57.22L5.43 64.91L37.02 50.73" fill="none" stroke="#3F6F5E" stroke-width="1.5" stroke-linejoin="round" stroke-linecap="round"/><path d="M37.02 50.73L21.64 43.95L38.15 44.66" fill="none" stroke="#6B7280" stroke-width="1.5" stroke-linejoin="round" stroke-linecap="round"/><path d="M38.15 44.66L12.22 22.04L41.43 40.23" fill="none" stroke="#6B7280" stroke-width="1.5" stroke-linejoin="round" stroke-linecap="round"/><path d="M41.43 40.23L35.93 24.64L46.8 37.4" fill="none" stroke="#6B7280" stroke-width="1.5" stroke-linejoin="round" stroke-linecap="round"/></g><text x="395.0" y="362" font-family="Helvetica,Arial" font-size="9" fill="#6B7280" text-anchor="middle">130px</text><rect x="490" y="253.0" width="64" height="64" rx="4" fill="#FFFFFF"/><g transform="translate(490,253.0) scale(0.64)"><circle cx="50" cy="50" r="48" fill="#F7F4EE"/><path d="M53.42 37.46L50 50" fill="none" stroke="#A8842F" stroke-width="1.5" stroke-linejoin="round" stroke-linecap="round"/><path d="M58.7 40.34L50 50" fill="none" stroke="#17324D" stroke-width="1.5" stroke-linejoin="round" stroke-linecap="round"/><path d="M61.87 44.71L50 50" fill="none" stroke="#17324D" stroke-width="1.5" stroke-linejoin="round" stroke-linecap="round"/><path d="M62.98 50.67L50 50" fill="none" stroke="#2A7F9E" stroke-width="1.5" stroke-linejoin="round" stroke-linecap="round"/><path d="M60.9 57.08L50 50" fill="none" stroke="#2A7F9E" stroke-width="1.5" stroke-linejoin="round" stroke-linecap="round"/><path d="M54.71 62.11L50 50" fill="none" stroke="#7A263A" stroke-width="1.5" stroke-linejoin="round" stroke-linecap="round"/><path d="M45.5 62.2L50 50" fill="none" stroke="#7A263A" stroke-width="1.5" stroke-linejoin="round" stroke-linecap="round"/><path d="M39.19 57.22L50 50" fill="none" stroke="#3F6F5E" stroke-width="1.5" stroke-linejoin="round" stroke-linecap="round"/><path d="M37.02 50.73L50 50" fill="none" stroke="#3F6F5E" stroke-width="1.5" stroke-linejoin="round" stroke-linecap="round"/><path d="M38.15 44.66L50 50" fill="none" stroke="#6B7280" stroke-width="1.5" stroke-linejoin="round" stroke-linecap="round"/><path d="M41.43 40.23L50 50" fill="none" stroke="#6B7280" stroke-width="1.5" stroke-linejoin="round" stroke-linecap="round"/><path d="M46.8 37.4L50 50" fill="none" stroke="#A8842F" stroke-width="1.5" stroke-linejoin="round" stroke-linecap="round"/><path d="M46.8 37.4L50.4 3L53.42 37.46" fill="none" stroke="#A8842F" stroke-width="1.5" stroke-linejoin="round" stroke-linecap="round"/><path d="M53.42 37.46L64.5 24.88L58.7 40.34" fill="none" stroke="#6B7280" stroke-width="1.5" stroke-linejoin="round" stroke-linecap="round"/><path d="M58.7 40.34L88.01 22.36L61.87 44.71" fill="none" stroke="#17324D" stroke-width="1.5" stroke-linejoin="round" stroke-linecap="round"/><path d="M61.87 44.71L78.36 43.95L62.98 50.67" fill="none" stroke="#6B7280" stroke-width="1.5" stroke-linejoin="round" stroke-linecap="round"/><path d="M62.98 50.67L94.71 64.51L60.9 57.08" fill="none" stroke="#2A7F9E" stroke-width="1.5" stroke-linejoin="round" stroke-linecap="round"/><path d="M60.9 57.08L69.41 71.55L54.71 62.11" fill="none" stroke="#6B7280" stroke-width="1.5" stroke-linejoin="round" stroke-linecap="round"/><path d="M54.71 62.11L50.42 97L45.5 62.2" fill="none" stroke="#7A263A" stroke-width="1.5" stroke-linejoin="round" stroke-linecap="round"/><path d="M45.5 62.2L30.98 71.89L39.19 57.22" fill="none" stroke="#6B7280" stroke-width="1.5" stroke-linejoin="round" stroke-linecap="round"/><path d="M39.19 57.22L5.43 64.91L37.02 50.73" fill="none" stroke="#3F6F5E" stroke-width="1.5" stroke-linejoin="round" stroke-linecap="round"/><path d="M37.02 50.73L21.64 43.95L38.15 44.66" fill="none" stroke="#6B7280" stroke-width="1.5" stroke-linejoin="round" stroke-linecap="round"/><path d="M38.15 44.66L12.22 22.04L41.43 40.23" fill="none" stroke="#6B7280" stroke-width="1.5" stroke-linejoin="round" stroke-linecap="round"/><path d="M41.43 40.23L35.93 24.64L46.8 37.4" fill="none" stroke="#6B7280" stroke-width="1.5" stroke-linejoin="round" stroke-linecap="round"/></g><text x="522.0" y="362" font-family="Helvetica,Arial" font-size="9" fill="#6B7280" text-anchor="middle">64px</text><rect x="584" y="267.0" width="36" height="36" rx="4" fill="#FFFFFF"/><g transform="translate(584,267.0) scale(0.36)"><circle cx="50" cy="50" r="48" fill="#F7F4EE"/><path d="M53.42 37.46L50 50" fill="none" stroke="#A8842F" stroke-width="1.5" stroke-linejoin="round" stroke-linecap="round"/><path d="M58.7 40.34L50 50" fill="none" stroke="#17324D" stroke-width="1.5" stroke-linejoin="round" stroke-linecap="round"/><path d="M61.87 44.71L50 50" fill="none" stroke="#17324D" stroke-width="1.5" stroke-linejoin="round" stroke-linecap="round"/><path d="M62.98 50.67L50 50" fill="none" stroke="#2A7F9E" stroke-width="1.5" stroke-linejoin="round" stroke-linecap="round"/><path d="M60.9 57.08L50 50" fill="none" stroke="#2A7F9E" stroke-width="1.5" stroke-linejoin="round" stroke-linecap="round"/><path d="M54.71 62.11L50 50" fill="none" stroke="#7A263A" stroke-width="1.5" stroke-linejoin="round" stroke-linecap="round"/><path d="M45.5 62.2L50 50" fill="none" stroke="#7A263A" stroke-width="1.5" stroke-linejoin="round" stroke-linecap="round"/><path d="M39.19 57.22L50 50" fill="none" stroke="#3F6F5E" stroke-width="1.5" stroke-linejoin="round" stroke-linecap="round"/><path d="M37.02 50.73L50 50" fill="none" stroke="#3F6F5E" stroke-width="1.5" stroke-linejoin="round" stroke-linecap="round"/><path d="M38.15 44.66L50 50" fill="none" stroke="#6B7280" stroke-width="1.5" stroke-linejoin="round" stroke-linecap="round"/><path d="M41.43 40.23L50 50" fill="none" stroke="#6B7280" stroke-width="1.5" stroke-linejoin="round" stroke-linecap="round"/><path d="M46.8 37.4L50 50" fill="none" stroke="#A8842F" stroke-width="1.5" stroke-linejoin="round" stroke-linecap="round"/><path d="M46.8 37.4L50.4 3L53.42 37.46" fill="none" stroke="#A8842F" stroke-width="1.5" stroke-linejoin="round" stroke-linecap="round"/><path d="M53.42 37.46L64.5 24.88L58.7 40.34" fill="none" stroke="#6B7280" stroke-width="1.5" stroke-linejoin="round" stroke-linecap="round"/><path d="M58.7 40.34L88.01 22.36L61.87 44.71" fill="none" stroke="#17324D" stroke-width="1.5" stroke-linejoin="round" stroke-linecap="round"/><path d="M61.87 44.71L78.36 43.95L62.98 50.67" fill="none" stroke="#6B7280" stroke-width="1.5" stroke-linejoin="round" stroke-linecap="round"/><path d="M62.98 50.67L94.71 64.51L60.9 57.08" fill="none" stroke="#2A7F9E" stroke-width="1.5" stroke-linejoin="round" stroke-linecap="round"/><path d="M60.9 57.08L69.41 71.55L54.71 62.11" fill="none" stroke="#6B7280" stroke-width="1.5" stroke-linejoin="round" stroke-linecap="round"/><path d="M54.71 62.11L50.42 97L45.5 62.2" fill="none" stroke="#7A263A" stroke-width="1.5" stroke-linejoin="round" stroke-linecap="round"/><path d="M45.5 62.2L30.98 71.89L39.19 57.22" fill="none" stroke="#6B7280" stroke-width="1.5" stroke-linejoin="round" stroke-linecap="round"/><path d="M39.19 57.22L5.43 64.91L37.02 50.73" fill="none" stroke="#3F6F5E" stroke-width="1.5" stroke-linejoin="round" stroke-linecap="round"/><path d="M37.02 50.73L21.64 43.95L38.15 44.66" fill="none" stroke="#6B7280" stroke-width="1.5" stroke-linejoin="round" stroke-linecap="round"/><path d="M38.15 44.66L12.22 22.04L41.43 40.23" fill="none" stroke="#6B7280" stroke-width="1.5" stroke-linejoin="round" stroke-linecap="round"/><path d="M41.43 40.23L35.93 24.64L46.8 37.4" fill="none" stroke="#6B7280" stroke-width="1.5" stroke-linejoin="round" stroke-linecap="round"/></g><text x="602.0" y="362" font-family="Helvetica,Arial" font-size="9" fill="#6B7280" text-anchor="middle">36px</text><text x="24" y="450" font-family="Helvetica,Arial" font-size="12" fill="#17324D" text-anchor="start">INNER priority — slate inner, colour tips</text><rect x="330" y="380.0" width="130" height="130" rx="4" fill="#FFFFFF"/><g transform="translate(330,380.0) scale(1.3)"><circle cx="50" cy="50" r="48" fill="#F7F4EE"/><path d="M53.42 37.46L50 50" fill="none" stroke="#6B7280" stroke-width="1.5" stroke-linejoin="round" stroke-linecap="round"/><path d="M58.7 40.34L50 50" fill="none" stroke="#6B7280" stroke-width="1.5" stroke-linejoin="round" stroke-linecap="round"/><path d="M61.87 44.71L50 50" fill="none" stroke="#6B7280" stroke-width="1.5" stroke-linejoin="round" stroke-linecap="round"/><path d="M62.98 50.67L50 50" fill="none" stroke="#6B7280" stroke-width="1.5" stroke-linejoin="round" stroke-linecap="round"/><path d="M60.9 57.08L50 50" fill="none" stroke="#6B7280" stroke-width="1.5" stroke-linejoin="round" stroke-linecap="round"/><path d="M54.71 62.11L50 50" fill="none" stroke="#6B7280" stroke-width="1.5" stroke-linejoin="round" stroke-linecap="round"/><path d="M45.5 62.2L50 50" fill="none" stroke="#6B7280" stroke-width="1.5" stroke-linejoin="round" stroke-linecap="round"/><path d="M39.19 57.22L50 50" fill="none" stroke="#6B7280" stroke-width="1.5" stroke-linejoin="round" stroke-linecap="round"/><path d="M37.02 50.73L50 50" fill="none" stroke="#6B7280" stroke-width="1.5" stroke-linejoin="round" stroke-linecap="round"/><path d="M38.15 44.66L50 50" fill="none" stroke="#6B7280" stroke-width="1.5" stroke-linejoin="round" stroke-linecap="round"/><path d="M41.43 40.23L50 50" fill="none" stroke="#6B7280" stroke-width="1.5" stroke-linejoin="round" stroke-linecap="round"/><path d="M46.8 37.4L50 50" fill="none" stroke="#6B7280" stroke-width="1.5" stroke-linejoin="round" stroke-linecap="round"/><path d="M46.8 37.4L50.4 3L53.42 37.46" fill="none" stroke="#A8842F" stroke-width="1.5" stroke-linejoin="round" stroke-linecap="round"/><path d="M53.42 37.46L64.5 24.88L58.7 40.34" fill="none" stroke="#6B7280" stroke-width="1.5" stroke-linejoin="round" stroke-linecap="round"/><path d="M58.7 40.34L88.01 22.36L61.87 44.71" fill="none" stroke="#17324D" stroke-width="1.5" stroke-linejoin="round" stroke-linecap="round"/><path d="M61.87 44.71L78.36 43.95L62.98 50.67" fill="none" stroke="#6B7280" stroke-width="1.5" stroke-linejoin="round" stroke-linecap="round"/><path d="M62.98 50.67L94.71 64.51L60.9 57.08" fill="none" stroke="#2A7F9E" stroke-width="1.5" stroke-linejoin="round" stroke-linecap="round"/><path d="M60.9 57.08L69.41 71.55L54.71 62.11" fill="none" stroke="#6B7280" stroke-width="1.5" stroke-linejoin="round" stroke-linecap="round"/><path d="M54.71 62.11L50.42 97L45.5 62.2" fill="none" stroke="#7A263A" stroke-width="1.5" stroke-linejoin="round" stroke-linecap="round"/><path d="M45.5 62.2L30.98 71.89L39.19 57.22" fill="none" stroke="#6B7280" stroke-width="1.5" stroke-linejoin="round" stroke-linecap="round"/><path d="M39.19 57.22L5.43 64.91L37.02 50.73" fill="none" stroke="#3F6F5E" stroke-width="1.5" stroke-linejoin="round" stroke-linecap="round"/><path d="M37.02 50.73L21.64 43.95L38.15 44.66" fill="none" stroke="#6B7280" stroke-width="1.5" stroke-linejoin="round" stroke-linecap="round"/><path d="M38.15 44.66L12.22 22.04L41.43 40.23" fill="none" stroke="#6B7280" stroke-width="1.5" stroke-linejoin="round" stroke-linecap="round"/><path d="M41.43 40.23L35.93 24.64L46.8 37.4" fill="none" stroke="#6B7280" stroke-width="1.5" stroke-linejoin="round" stroke-linecap="round"/></g><text x="395.0" y="522" font-family="Helvetica,Arial" font-size="9" fill="#6B7280" text-anchor="middle">130px</text><rect x="490" y="413.0" width="64" height="64" rx="4" fill="#FFFFFF"/><g transform="translate(490,413.0) scale(0.64)"><circle cx="50" cy="50" r="48" fill="#F7F4EE"/><path d="M53.42 37.46L50 50" fill="none" stroke="#6B7280" stroke-width="1.5" stroke-linejoin="round" stroke-linecap="round"/><path d="M58.7 40.34L50 50" fill="none" stroke="#6B7280" stroke-width="1.5" stroke-linejoin="round" stroke-linecap="round"/><path d="M61.87 44.71L50 50" fill="none" stroke="#6B7280" stroke-width="1.5" stroke-linejoin="round" stroke-linecap="round"/><path d="M62.98 50.67L50 50" fill="none" stroke="#6B7280" stroke-width="1.5" stroke-linejoin="round" stroke-linecap="round"/><path d="M60.9 57.08L50 50" fill="none" stroke="#6B7280" stroke-width="1.5" stroke-linejoin="round" stroke-linecap="round"/><path d="M54.71 62.11L50 50" fill="none" stroke="#6B7280" stroke-width="1.5" stroke-linejoin="round" stroke-linecap="round"/><path d="M45.5 62.2L50 50" fill="none" stroke="#6B7280" stroke-width="1.5" stroke-linejoin="round" stroke-linecap="round"/><path d="M39.19 57.22L50 50" fill="none" stroke="#6B7280" stroke-width="1.5" stroke-linejoin="round" stroke-linecap="round"/><path d="M37.02 50.73L50 50" fill="none" stroke="#6B7280" stroke-width="1.5" stroke-linejoin="round" stroke-linecap="round"/><path d="M38.15 44.66L50 50" fill="none" stroke="#6B7280" stroke-width="1.5" stroke-linejoin="round" stroke-linecap="round"/><path d="M41.43 40.23L50 50" fill="none" stroke="#6B7280" stroke-width="1.5" stroke-linejoin="round" stroke-linecap="round"/><path d="M46.8 37.4L50 50" fill="none" stroke="#6B7280" stroke-width="1.5" stroke-linejoin="round" stroke-linecap="round"/><path d="M46.8 37.4L50.4 3L53.42 37.46" fill="none" stroke="#A8842F" stroke-width="1.5" stroke-linejoin="round" stroke-linecap="round"/><path d="M53.42 37.46L64.5 24.88L58.7 40.34" fill="none" stroke="#6B7280" stroke-width="1.5" stroke-linejoin="round" stroke-linecap="round"/><path d="M58.7 40.34L88.01 22.36L61.87 44.71" fill="none" stroke="#17324D" stroke-width="1.5" stroke-linejoin="round" stroke-linecap="round"/><path d="M61.87 44.71L78.36 43.95L62.98 50.67" fill="none" stroke="#6B7280" stroke-width="1.5" stroke-linejoin="round" stroke-linecap="round"/><path d="M62.98 50.67L94.71 64.51L60.9 57.08" fill="none" stroke="#2A7F9E" stroke-width="1.5" stroke-linejoin="round" stroke-linecap="round"/><path d="M60.9 57.08L69.41 71.55L54.71 62.11" fill="none" stroke="#6B7280" stroke-width="1.5" stroke-linejoin="round" stroke-linecap="round"/><path d="M54.71 62.11L50.42 97L45.5 62.2" fill="none" stroke="#7A263A" stroke-width="1.5" stroke-linejoin="round" stroke-linecap="round"/><path d="M45.5 62.2L30.98 71.89L39.19 57.22" fill="none" stroke="#6B7280" stroke-width="1.5" stroke-linejoin="round" stroke-linecap="round"/><path d="M39.19 57.22L5.43 64.91L37.02 50.73" fill="none" stroke="#3F6F5E" stroke-width="1.5" stroke-linejoin="round" stroke-linecap="round"/><path d="M37.02 50.73L21.64 43.95L38.15 44.66" fill="none" stroke="#6B7280" stroke-width="1.5" stroke-linejoin="round" stroke-linecap="round"/><path d="M38.15 44.66L12.22 22.04L41.43 40.23" fill="none" stroke="#6B7280" stroke-width="1.5" stroke-linejoin="round" stroke-linecap="round"/><path d="M41.43 40.23L35.93 24.64L46.8 37.4" fill="none" stroke="#6B7280" stroke-width="1.5" stroke-linejoin="round" stroke-linecap="round"/></g><text x="522.0" y="522" font-family="Helvetica,Arial" font-size="9" fill="#6B7280" text-anchor="middle">64px</text><rect x="584" y="427.0" width="36" height="36" rx="4" fill="#FFFFFF"/><g transform="translate(584,427.0) scale(0.36)"><circle cx="50" cy="50" r="48" fill="#F7F4EE"/><path d="M53.42 37.46L50 50" fill="none" stroke="#6B7280" stroke-width="1.5" stroke-linejoin="round" stroke-linecap="round"/><path d="M58.7 40.34L50 50" fill="none" stroke="#6B7280" stroke-width="1.5" stroke-linejoin="round" stroke-linecap="round"/><path d="M61.87 44.71L50 50" fill="none" stroke="#6B7280" stroke-width="1.5" stroke-linejoin="round" stroke-linecap="round"/><path d="M62.98 50.67L50 50" fill="none" stroke="#6B7280" stroke-width="1.5" stroke-linejoin="round" stroke-linecap="round"/><path d="M60.9 57.08L50 50" fill="none" stroke="#6B7280" stroke-width="1.5" stroke-linejoin="round" stroke-linecap="round"/><path d="M54.71 62.11L50 50" fill="none" stroke="#6B7280" stroke-width="1.5" stroke-linejoin="round" stroke-linecap="round"/><path d="M45.5 62.2L50 50" fill="none" stroke="#6B7280" stroke-width="1.5" stroke-linejoin="round" stroke-linecap="round"/><path d="M39.19 57.22L50 50" fill="none" stroke="#6B7280" stroke-width="1.5" stroke-linejoin="round" stroke-linecap="round"/><path d="M37.02 50.73L50 50" fill="none" stroke="#6B7280" stroke-width="1.5" stroke-linejoin="round" stroke-linecap="round"/><path d="M38.15 44.66L50 50" fill="none" stroke="#6B7280" stroke-width="1.5" stroke-linejoin="round" stroke-linecap="round"/><path d="M41.43 40.23L50 50" fill="none" stroke="#6B7280" stroke-width="1.5" stroke-linejoin="round" stroke-linecap="round"/><path d="M46.8 37.4L50 50" fill="none" stroke="#6B7280" stroke-width="1.5" stroke-linejoin="round" stroke-linecap="round"/><path d="M46.8 37.4L50.4 3L53.42 37.46" fill="none" stroke="#A8842F" stroke-width="1.5" stroke-linejoin="round" stroke-linecap="round"/><path d="M53.42 37.46L64.5 24.88L58.7 40.34" fill="none" stroke="#6B7280" stroke-width="1.5" stroke-linejoin="round" stroke-linecap="round"/><path d="M58.7 40.34L88.01 22.36L61.87 44.71" fill="none" stroke="#17324D" stroke-width="1.5" stroke-linejoin="round" stroke-linecap="round"/><path d="M61.87 44.71L78.36 43.95L62.98 50.67" fill="none" stroke="#6B7280" stroke-width="1.5" stroke-linejoin="round" stroke-linecap="round"/><path d="M62.98 50.67L94.71 64.51L60.9 57.08" fill="none" stroke="#2A7F9E" stroke-width="1.5" stroke-linejoin="round" stroke-linecap="round"/><path d="M60.9 57.08L69.41 71.55L54.71 62.11" fill="none" stroke="#6B7280" stroke-width="1.5" stroke-linejoin="round" stroke-linecap="round"/><path d="M54.71 62.11L50.42 97L45.5 62.2" fill="none" stroke="#7A263A" stroke-width="1.5" stroke-linejoin="round" stroke-linecap="round"/><path d="M45.5 62.2L30.98 71.89L39.19 57.22" fill="none" stroke="#6B7280" stroke-width="1.5" stroke-linejoin="round" stroke-linecap="round"/><path d="M39.19 57.22L5.43 64.91L37.02 50.73" fill="none" stroke="#3F6F5E" stroke-width="1.5" stroke-linejoin="round" stroke-linecap="round"/><path d="M37.02 50.73L21.64 43.95L38.15 44.66" fill="none" stroke="#6B7280" stroke-width="1.5" stroke-linejoin="round" stroke-linecap="round"/><path d="M38.15 44.66L12.22 22.04L41.43 40.23" fill="none" stroke="#6B7280" stroke-width="1.5" stroke-linejoin="round" stroke-linecap="round"/><path d="M41.43 40.23L35.93 24.64L46.8 37.4" fill="none" stroke="#6B7280" stroke-width="1.5" stroke-linejoin="round" stroke-linecap="round"/></g><text x="602.0" y="522" font-family="Helvetica,Arial" font-size="9" fill="#6B7280" text-anchor="middle">36px</text></svg>