<svg xmlns="http://www.w3.org/2000/svg" viewBox="0 0 790 920" font-family="sans-serif">
<rect width="790" height="920" fill="#fff"/>
<text x="34" y="40" font-size="23" fill="#17324D" font-weight="700">12-point star · colour approaches + outline  (central hub removed)</text>
<text x="34" y="86" font-size="15" fill="#17324D" font-weight="700">A · leaf-faithful map  (long points = the six area colours, off-white skeleton)</text>
<g transform="translate(34,98)"><svg width="128" height="128" viewBox="0 0 100 100"><circle cx="50" cy="50" r="48" fill="#17324D"/><path d="M50.4 3L53.42 37.46L50 50L46.8 37.4Z" fill="#C2972F" stroke="#F7F4EE" stroke-width="0.9" stroke-linejoin="round"/><path d="M64.5 24.88L58.7 40.34L50 50L53.42 37.46Z" fill="#F7F4EE" stroke="#F7F4EE" stroke-width="0.9" stroke-linejoin="round"/><path d="M88.01 22.36L61.87 44.71L50 50L58.7 40.34Z" fill="#17324D" stroke="#F7F4EE" stroke-width="0.9" stroke-linejoin="round"/><path d="M78.36 43.95L62.98 50.67L50 50L61.87 44.71Z" fill="#F7F4EE" stroke="#F7F4EE" stroke-width="0.9" stroke-linejoin="round"/><path d="M94.71 64.51L60.9 57.08L50 50L62.98 50.67Z" fill="#2A7F9E" stroke="#F7F4EE" stroke-width="0.9" stroke-linejoin="round"/><path d="M69.41 71.55L54.71 62.11L50 50L60.9 57.08Z" fill="#F7F4EE" stroke="#F7F4EE" stroke-width="0.9" stroke-linejoin="round"/><path d="M50.42 97L45.5 62.2L50 50L54.71 62.11Z" fill="#7A263A" stroke="#F7F4EE" stroke-width="0.9" stroke-linejoin="round"/><path d="M30.98 71.89L39.19 57.22L50 50L45.5 62.2Z" fill="#F7F4EE" stroke="#F7F4EE" stroke-width="0.9" stroke-linejoin="round"/><path d="M5.43 64.91L37.02 50.73L50 50L39.19 57.22Z" fill="#3F6F5E" stroke="#F7F4EE" stroke-width="0.9" stroke-linejoin="round"/><path d="M21.64 43.95L38.15 44.66L50 50L37.02 50.73Z" fill="#F7F4EE" stroke="#F7F4EE" stroke-width="0.9" stroke-linejoin="round"/><path d="M12.22 22.04L41.43 40.23L50 50L38.15 44.66Z" fill="#6B7280" stroke="#F7F4EE" stroke-width="0.9" stroke-linejoin="round"/><path d="M35.93 24.64L46.8 37.4L50 50L41.43 40.23Z" fill="#F7F4EE" stroke="#F7F4EE" stroke-width="0.9" stroke-linejoin="round"/></svg></g>
<rect x="168" y="98" width="64" height="64" fill="#17324D"/>
<g transform="translate(168,98)"><svg width="64" height="64" viewBox="0 0 100 100"><circle cx="50" cy="50" r="48" fill="#17324D"/><path d="M50.4 3L53.42 37.46L50 50L46.8 37.4Z" fill="#C2972F" stroke="#F7F4EE" stroke-width="0.9" stroke-linejoin="round"/><path d="M64.5 24.88L58.7 40.34L50 50L53.42 37.46Z" fill="#F7F4EE" stroke="#F7F4EE" stroke-width="0.9" stroke-linejoin="round"/><path d="M88.01 22.36L61.87 44.71L50 50L58.7 40.34Z" fill="#17324D" stroke="#F7F4EE" stroke-width="0.9" stroke-linejoin="round"/><path d="M78.36 43.95L62.98 50.67L50 50L61.87 44.71Z" fill="#F7F4EE" stroke="#F7F4EE" stroke-width="0.9" stroke-linejoin="round"/><path d="M94.71 64.51L60.9 57.08L50 50L62.98 50.67Z" fill="#2A7F9E" stroke="#F7F4EE" stroke-width="0.9" stroke-linejoin="round"/><path d="M69.41 71.55L54.71 62.11L50 50L60.9 57.08Z" fill="#F7F4EE" stroke="#F7F4EE" stroke-width="0.9" stroke-linejoin="round"/><path d="M50.42 97L45.5 62.2L50 50L54.71 62.11Z" fill="#7A263A" stroke="#F7F4EE" stroke-width="0.9" stroke-linejoin="round"/><path d="M30.98 71.89L39.19 57.22L50 50L45.5 62.2Z" fill="#F7F4EE" stroke="#F7F4EE" stroke-width="0.9" stroke-linejoin="round"/><path d="M5.43 64.91L37.02 50.73L50 50L39.19 57.22Z" fill="#3F6F5E" stroke="#F7F4EE" stroke-width="0.9" stroke-linejoin="round"/><path d="M21.64 43.95L38.15 44.66L50 50L37.02 50.73Z" fill="#F7F4EE" stroke="#F7F4EE" stroke-width="0.9" stroke-linejoin="round"/><path d="M12.22 22.04L41.43 40.23L50 50L38.15 44.66Z" fill="#6B7280" stroke="#F7F4EE" stroke-width="0.9" stroke-linejoin="round"/><path d="M35.93 24.64L46.8 37.4L50 50L41.43 40.23Z" fill="#F7F4EE" stroke="#F7F4EE" stroke-width="0.9" stroke-linejoin="round"/></svg></g>
<g transform="translate(168,168)"><svg width="36" height="36" viewBox="0 0 100 100"><circle cx="50" cy="50" r="48" fill="#17324D"/><path d="M50.4 3L53.42 37.46L50 50L46.8 37.4Z" fill="#C2972F" stroke="#F7F4EE" stroke-width="0.9" stroke-linejoin="round"/><path d="M64.5 24.88L58.7 40.34L50 50L53.42 37.46Z" fill="#F7F4EE" stroke="#F7F4EE" stroke-width="0.9" stroke-linejoin="round"/><path d="M88.01 22.36L61.87 44.71L50 50L58.7 40.34Z" fill="#17324D" stroke="#F7F4EE" stroke-width="0.9" stroke-linejoin="round"/><path d="M78.36 43.95L62.98 50.67L50 50L61.87 44.71Z" fill="#F7F4EE" stroke="#F7F4EE" stroke-width="0.9" stroke-linejoin="round"/><path d="M94.71 64.51L60.9 57.08L50 50L62.98 50.67Z" fill="#2A7F9E" stroke="#F7F4EE" stroke-width="0.9" stroke-linejoin="round"/><path d="M69.41 71.55L54.71 62.11L50 50L60.9 57.08Z" fill="#F7F4EE" stroke="#F7F4EE" stroke-width="0.9" stroke-linejoin="round"/><path d="M50.42 97L45.5 62.2L50 50L54.71 62.11Z" fill="#7A263A" stroke="#F7F4EE" stroke-width="0.9" stroke-linejoin="round"/><path d="M30.98 71.89L39.19 57.22L50 50L45.5 62.2Z" fill="#F7F4EE" stroke="#F7F4EE" stroke-width="0.9" stroke-linejoin="round"/><path d="M5.43 64.91L37.02 50.73L50 50L39.19 57.22Z" fill="#3F6F5E" stroke="#F7F4EE" stroke-width="0.9" stroke-linejoin="round"/><path d="M21.64 43.95L38.15 44.66L50 50L37.02 50.73Z" fill="#F7F4EE" stroke="#F7F4EE" stroke-width="0.9" stroke-linejoin="round"/><path d="M12.22 22.04L41.43 40.23L50 50L38.15 44.66Z" fill="#6B7280" stroke="#F7F4EE" stroke-width="0.9" stroke-linejoin="round"/><path d="M35.93 24.64L46.8 37.4L50 50L41.43 40.23Z" fill="#F7F4EE" stroke="#F7F4EE" stroke-width="0.9" stroke-linejoin="round"/></svg></g>
<text x="34" y="244" font-size="11" fill="#6B7280">leaf-navy</text>
<g transform="translate(284,98)"><svg width="128" height="128" viewBox="0 0 100 100"><circle cx="50" cy="50" r="48" fill="#7A263A"/><path d="M50.4 3L53.42 37.46L50 50L46.8 37.4Z" fill="#C2972F" stroke="#F7F4EE" stroke-width="0.9" stroke-linejoin="round"/><path d="M64.5 24.88L58.7 40.34L50 50L53.42 37.46Z" fill="#F7F4EE" stroke="#F7F4EE" stroke-width="0.9" stroke-linejoin="round"/><path d="M88.01 22.36L61.87 44.71L50 50L58.7 40.34Z" fill="#17324D" stroke="#F7F4EE" stroke-width="0.9" stroke-linejoin="round"/><path d="M78.36 43.95L62.98 50.67L50 50L61.87 44.71Z" fill="#F7F4EE" stroke="#F7F4EE" stroke-width="0.9" stroke-linejoin="round"/><path d="M94.71 64.51L60.9 57.08L50 50L62.98 50.67Z" fill="#2A7F9E" stroke="#F7F4EE" stroke-width="0.9" stroke-linejoin="round"/><path d="M69.41 71.55L54.71 62.11L50 50L60.9 57.08Z" fill="#F7F4EE" stroke="#F7F4EE" stroke-width="0.9" stroke-linejoin="round"/><path d="M50.42 97L45.5 62.2L50 50L54.71 62.11Z" fill="#7A263A" stroke="#F7F4EE" stroke-width="0.9" stroke-linejoin="round"/><path d="M30.98 71.89L39.19 57.22L50 50L45.5 62.2Z" fill="#F7F4EE" stroke="#F7F4EE" stroke-width="0.9" stroke-linejoin="round"/><path d="M5.43 64.91L37.02 50.73L50 50L39.19 57.22Z" fill="#3F6F5E" stroke="#F7F4EE" stroke-width="0.9" stroke-linejoin="round"/><path d="M21.64 43.95L38.15 44.66L50 50L37.02 50.73Z" fill="#F7F4EE" stroke="#F7F4EE" stroke-width="0.9" stroke-linejoin="round"/><path d="M12.22 22.04L41.43 40.23L50 50L38.15 44.66Z" fill="#6B7280" stroke="#F7F4EE" stroke-width="0.9" stroke-linejoin="round"/><path d="M35.93 24.64L46.8 37.4L50 50L41.43 40.23Z" fill="#F7F4EE" stroke="#F7F4EE" stroke-width="0.9" stroke-linejoin="round"/></svg></g>
<rect x="418" y="98" width="64" height="64" fill="#17324D"/>
<g transform="translate(418,98)"><svg width="64" height="64" viewBox="0 0 100 100"><circle cx="50" cy="50" r="48" fill="#7A263A"/><path d="M50.4 3L53.42 37.46L50 50L46.8 37.4Z" fill="#C2972F" stroke="#F7F4EE" stroke-width="0.9" stroke-linejoin="round"/><path d="M64.5 24.88L58.7 40.34L50 50L53.42 37.46Z" fill="#F7F4EE" stroke="#F7F4EE" stroke-width="0.9" stroke-linejoin="round"/><path d="M88.01 22.36L61.87 44.71L50 50L58.7 40.34Z" fill="#17324D" stroke="#F7F4EE" stroke-width="0.9" stroke-linejoin="round"/><path d="M78.36 43.95L62.98 50.67L50 50L61.87 44.71Z" fill="#F7F4EE" stroke="#F7F4EE" stroke-width="0.9" stroke-linejoin="round"/><path d="M94.71 64.51L60.9 57.08L50 50L62.98 50.67Z" fill="#2A7F9E" stroke="#F7F4EE" stroke-width="0.9" stroke-linejoin="round"/><path d="M69.41 71.55L54.71 62.11L50 50L60.9 57.08Z" fill="#F7F4EE" stroke="#F7F4EE" stroke-width="0.9" stroke-linejoin="round"/><path d="M50.42 97L45.5 62.2L50 50L54.71 62.11Z" fill="#7A263A" stroke="#F7F4EE" stroke-width="0.9" stroke-linejoin="round"/><path d="M30.98 71.89L39.19 57.22L50 50L45.5 62.2Z" fill="#F7F4EE" stroke="#F7F4EE" stroke-width="0.9" stroke-linejoin="round"/><path d="M5.43 64.91L37.02 50.73L50 50L39.19 57.22Z" fill="#3F6F5E" stroke="#F7F4EE" stroke-width="0.9" stroke-linejoin="round"/><path d="M21.64 43.95L38.15 44.66L50 50L37.02 50.73Z" fill="#F7F4EE" stroke="#F7F4EE" stroke-width="0.9" stroke-linejoin="round"/><path d="M12.22 22.04L41.43 40.23L50 50L38.15 44.66Z" fill="#6B7280" stroke="#F7F4EE" stroke-width="0.9" stroke-linejoin="round"/><path d="M35.93 24.64L46.8 37.4L50 50L41.43 40.23Z" fill="#F7F4EE" stroke="#F7F4EE" stroke-width="0.9" stroke-linejoin="round"/></svg></g>
<g transform="translate(418,168)"><svg width="36" height="36" viewBox="0 0 100 100"><circle cx="50" cy="50" r="48" fill="#7A263A"/><path d="M50.4 3L53.42 37.46L50 50L46.8 37.4Z" fill="#C2972F" stroke="#F7F4EE" stroke-width="0.9" stroke-linejoin="round"/><path d="M64.5 24.88L58.7 40.34L50 50L53.42 37.46Z" fill="#F7F4EE" stroke="#F7F4EE" stroke-width="0.9" stroke-linejoin="round"/><path d="M88.01 22.36L61.87 44.71L50 50L58.7 40.34Z" fill="#17324D" stroke="#F7F4EE" stroke-width="0.9" stroke-linejoin="round"/><path d="M78.36 43.95L62.98 50.67L50 50L61.87 44.71Z" fill="#F7F4EE" stroke="#F7F4EE" stroke-width="0.9" stroke-linejoin="round"/><path d="M94.71 64.51L60.9 57.08L50 50L62.98 50.67Z" fill="#2A7F9E" stroke="#F7F4EE" stroke-width="0.9" stroke-linejoin="round"/><path d="M69.41 71.55L54.71 62.11L50 50L60.9 57.08Z" fill="#F7F4EE" stroke="#F7F4EE" stroke-width="0.9" stroke-linejoin="round"/><path d="M50.42 97L45.5 62.2L50 50L54.71 62.11Z" fill="#7A263A" stroke="#F7F4EE" stroke-width="0.9" stroke-linejoin="round"/><path d="M30.98 71.89L39.19 57.22L50 50L45.5 62.2Z" fill="#F7F4EE" stroke="#F7F4EE" stroke-width="0.9" stroke-linejoin="round"/><path d="M5.43 64.91L37.02 50.73L50 50L39.19 57.22Z" fill="#3F6F5E" stroke="#F7F4EE" stroke-width="0.9" stroke-linejoin="round"/><path d="M21.64 43.95L38.15 44.66L50 50L37.02 50.73Z" fill="#F7F4EE" stroke="#F7F4EE" stroke-width="0.9" stroke-linejoin="round"/><path d="M12.22 22.04L41.43 40.23L50 50L38.15 44.66Z" fill="#6B7280" stroke="#F7F4EE" stroke-width="0.9" stroke-linejoin="round"/><path d="M35.93 24.64L46.8 37.4L50 50L41.43 40.23Z" fill="#F7F4EE" stroke="#F7F4EE" stroke-width="0.9" stroke-linejoin="round"/></svg></g>
<text x="284" y="244" font-size="11" fill="#6B7280">leaf-seal</text>
<g transform="translate(534,98)"><svg width="128" height="128" viewBox="0 0 100 100"><circle cx="50" cy="50" r="48" fill="#F7F4EE"/><path d="M50.4 3L53.42 37.46L50 50L46.8 37.4Z" fill="#C2972F" stroke="#6B7280" stroke-width="0.8" stroke-linejoin="round"/><path d="M64.5 24.88L58.7 40.34L50 50L53.42 37.46Z" fill="#F7F4EE" stroke="#6B7280" stroke-width="0.8" stroke-linejoin="round"/><path d="M88.01 22.36L61.87 44.71L50 50L58.7 40.34Z" fill="#17324D" stroke="#6B7280" stroke-width="0.8" stroke-linejoin="round"/><path d="M78.36 43.95L62.98 50.67L50 50L61.87 44.71Z" fill="#F7F4EE" stroke="#6B7280" stroke-width="0.8" stroke-linejoin="round"/><path d="M94.71 64.51L60.9 57.08L50 50L62.98 50.67Z" fill="#2A7F9E" stroke="#6B7280" stroke-width="0.8" stroke-linejoin="round"/><path d="M69.41 71.55L54.71 62.11L50 50L60.9 57.08Z" fill="#F7F4EE" stroke="#6B7280" stroke-width="0.8" stroke-linejoin="round"/><path d="M50.42 97L45.5 62.2L50 50L54.71 62.11Z" fill="#7A263A" stroke="#6B7280" stroke-width="0.8" stroke-linejoin="round"/><path d="M30.98 71.89L39.19 57.22L50 50L45.5 62.2Z" fill="#F7F4EE" stroke="#6B7280" stroke-width="0.8" stroke-linejoin="round"/><path d="M5.43 64.91L37.02 50.73L50 50L39.19 57.22Z" fill="#3F6F5E" stroke="#6B7280" stroke-width="0.8" stroke-linejoin="round"/><path d="M21.64 43.95L38.15 44.66L50 50L37.02 50.73Z" fill="#F7F4EE" stroke="#6B7280" stroke-width="0.8" stroke-linejoin="round"/><path d="M12.22 22.04L41.43 40.23L50 50L38.15 44.66Z" fill="#6B7280" stroke="#6B7280" stroke-width="0.8" stroke-linejoin="round"/><path d="M35.93 24.64L46.8 37.4L50 50L41.43 40.23Z" fill="#F7F4EE" stroke="#6B7280" stroke-width="0.8" stroke-linejoin="round"/></svg></g>
<rect x="668" y="98" width="64" height="64" fill="#17324D"/>
<g transform="translate(668,98)"><svg width="64" height="64" viewBox="0 0 100 100"><circle cx="50" cy="50" r="48" fill="#F7F4EE"/><path d="M50.4 3L53.42 37.46L50 50L46.8 37.4Z" fill="#C2972F" stroke="#6B7280" stroke-width="0.8" stroke-linejoin="round"/><path d="M64.5 24.88L58.7 40.34L50 50L53.42 37.46Z" fill="#F7F4EE" stroke="#6B7280" stroke-width="0.8" stroke-linejoin="round"/><path d="M88.01 22.36L61.87 44.71L50 50L58.7 40.34Z" fill="#17324D" stroke="#6B7280" stroke-width="0.8" stroke-linejoin="round"/><path d="M78.36 43.95L62.98 50.67L50 50L61.87 44.71Z" fill="#F7F4EE" stroke="#6B7280" stroke-width="0.8" stroke-linejoin="round"/><path d="M94.71 64.51L60.9 57.08L50 50L62.98 50.67Z" fill="#2A7F9E" stroke="#6B7280" stroke-width="0.8" stroke-linejoin="round"/><path d="M69.41 71.55L54.71 62.11L50 50L60.9 57.08Z" fill="#F7F4EE" stroke="#6B7280" stroke-width="0.8" stroke-linejoin="round"/><path d="M50.42 97L45.5 62.2L50 50L54.71 62.11Z" fill="#7A263A" stroke="#6B7280" stroke-width="0.8" stroke-linejoin="round"/><path d="M30.98 71.89L39.19 57.22L50 50L45.5 62.2Z" fill="#F7F4EE" stroke="#6B7280" stroke-width="0.8" stroke-linejoin="round"/><path d="M5.43 64.91L37.02 50.73L50 50L39.19 57.22Z" fill="#3F6F5E" stroke="#6B7280" stroke-width="0.8" stroke-linejoin="round"/><path d="M21.64 43.95L38.15 44.66L50 50L37.02 50.73Z" fill="#F7F4EE" stroke="#6B7280" stroke-width="0.8" stroke-linejoin="round"/><path d="M12.22 22.04L41.43 40.23L50 50L38.15 44.66Z" fill="#6B7280" stroke="#6B7280" stroke-width="0.8" stroke-linejoin="round"/><path d="M35.93 24.64L46.8 37.4L50 50L41.43 40.23Z" fill="#F7F4EE" stroke="#6B7280" stroke-width="0.8" stroke-linejoin="round"/></svg></g>
<g transform="translate(668,168)"><svg width="36" height="36" viewBox="0 0 100 100"><circle cx="50" cy="50" r="48" fill="#F7F4EE"/><path d="M50.4 3L53.42 37.46L50 50L46.8 37.4Z" fill="#C2972F" stroke="#6B7280" stroke-width="0.8" stroke-linejoin="round"/><path d="M64.5 24.88L58.7 40.34L50 50L53.42 37.46Z" fill="#F7F4EE" stroke="#6B7280" stroke-width="0.8" stroke-linejoin="round"/><path d="M88.01 22.36L61.87 44.71L50 50L58.7 40.34Z" fill="#17324D" stroke="#6B7280" stroke-width="0.8" stroke-linejoin="round"/><path d="M78.36 43.95L62.98 50.67L50 50L61.87 44.71Z" fill="#F7F4EE" stroke="#6B7280" stroke-width="0.8" stroke-linejoin="round"/><path d="M94.71 64.51L60.9 57.08L50 50L62.98 50.67Z" fill="#2A7F9E" stroke="#6B7280" stroke-width="0.8" stroke-linejoin="round"/><path d="M69.41 71.55L54.71 62.11L50 50L60.9 57.08Z" fill="#F7F4EE" stroke="#6B7280" stroke-width="0.8" stroke-linejoin="round"/><path d="M50.42 97L45.5 62.2L50 50L54.71 62.11Z" fill="#7A263A" stroke="#6B7280" stroke-width="0.8" stroke-linejoin="round"/><path d="M30.98 71.89L39.19 57.22L50 50L45.5 62.2Z" fill="#F7F4EE" stroke="#6B7280" stroke-width="0.8" stroke-linejoin="round"/><path d="M5.43 64.91L37.02 50.73L50 50L39.19 57.22Z" fill="#3F6F5E" stroke="#6B7280" stroke-width="0.8" stroke-linejoin="round"/><path d="M21.64 43.95L38.15 44.66L50 50L37.02 50.73Z" fill="#F7F4EE" stroke="#6B7280" stroke-width="0.8" stroke-linejoin="round"/><path d="M12.22 22.04L41.43 40.23L50 50L38.15 44.66Z" fill="#6B7280" stroke="#6B7280" stroke-width="0.8" stroke-linejoin="round"/><path d="M35.93 24.64L46.8 37.4L50 50L41.43 40.23Z" fill="#F7F4EE" stroke="#6B7280" stroke-width="0.8" stroke-linejoin="round"/></svg></g>
<text x="534" y="244" font-size="11" fill="#6B7280">leaf-light</text>
<text x="34" y="296" font-size="15" fill="#17324D" font-weight="700">B · two-tone  (larger vs smaller, one colour each)</text>
<g transform="translate(34,308)"><svg width="128" height="128" viewBox="0 0 100 100"><circle cx="50" cy="50" r="48" fill="#F7F4EE"/><path d="M50.4 3L53.42 37.46L50 50L46.8 37.4Z" fill="#17324D"/><path d="M64.5 24.88L58.7 40.34L50 50L53.42 37.46Z" fill="#D9B36C"/><path d="M88.01 22.36L61.87 44.71L50 50L58.7 40.34Z" fill="#17324D"/><path d="M78.36 43.95L62.98 50.67L50 50L61.87 44.71Z" fill="#D9B36C"/><path d="M94.71 64.51L60.9 57.08L50 50L62.98 50.67Z" fill="#17324D"/><path d="M69.41 71.55L54.71 62.11L50 50L60.9 57.08Z" fill="#D9B36C"/><path d="M50.42 97L45.5 62.2L50 50L54.71 62.11Z" fill="#17324D"/><path d="M30.98 71.89L39.19 57.22L50 50L45.5 62.2Z" fill="#D9B36C"/><path d="M5.43 64.91L37.02 50.73L50 50L39.19 57.22Z" fill="#17324D"/><path d="M21.64 43.95L38.15 44.66L50 50L37.02 50.73Z" fill="#D9B36C"/><path d="M12.22 22.04L41.43 40.23L50 50L38.15 44.66Z" fill="#17324D"/><path d="M35.93 24.64L46.8 37.4L50 50L41.43 40.23Z" fill="#D9B36C"/></svg></g>
<rect x="168" y="308" width="64" height="64" fill="#17324D"/>
<g transform="translate(168,308)"><svg width="64" height="64" viewBox="0 0 100 100"><circle cx="50" cy="50" r="48" fill="#F7F4EE"/><path d="M50.4 3L53.42 37.46L50 50L46.8 37.4Z" fill="#17324D"/><path d="M64.5 24.88L58.7 40.34L50 50L53.42 37.46Z" fill="#D9B36C"/><path d="M88.01 22.36L61.87 44.71L50 50L58.7 40.34Z" fill="#17324D"/><path d="M78.36 43.95L62.98 50.67L50 50L61.87 44.71Z" fill="#D9B36C"/><path d="M94.71 64.51L60.9 57.08L50 50L62.98 50.67Z" fill="#17324D"/><path d="M69.41 71.55L54.71 62.11L50 50L60.9 57.08Z" fill="#D9B36C"/><path d="M50.42 97L45.5 62.2L50 50L54.71 62.11Z" fill="#17324D"/><path d="M30.98 71.89L39.19 57.22L50 50L45.5 62.2Z" fill="#D9B36C"/><path d="M5.43 64.91L37.02 50.73L50 50L39.19 57.22Z" fill="#17324D"/><path d="M21.64 43.95L38.15 44.66L50 50L37.02 50.73Z" fill="#D9B36C"/><path d="M12.22 22.04L41.43 40.23L50 50L38.15 44.66Z" fill="#17324D"/><path d="M35.93 24.64L46.8 37.4L50 50L41.43 40.23Z" fill="#D9B36C"/></svg></g>
<g transform="translate(168,378)"><svg width="36" height="36" viewBox="0 0 100 100"><circle cx="50" cy="50" r="48" fill="#F7F4EE"/><path d="M50.4 3L53.42 37.46L50 50L46.8 37.4Z" fill="#17324D"/><path d="M64.5 24.88L58.7 40.34L50 50L53.42 37.46Z" fill="#D9B36C"/><path d="M88.01 22.36L61.87 44.71L50 50L58.7 40.34Z" fill="#17324D"/><path d="M78.36 43.95L62.98 50.67L50 50L61.87 44.71Z" fill="#D9B36C"/><path d="M94.71 64.51L60.9 57.08L50 50L62.98 50.67Z" fill="#17324D"/><path d="M69.41 71.55L54.71 62.11L50 50L60.9 57.08Z" fill="#D9B36C"/><path d="M50.42 97L45.5 62.2L50 50L54.71 62.11Z" fill="#17324D"/><path d="M30.98 71.89L39.19 57.22L50 50L45.5 62.2Z" fill="#D9B36C"/><path d="M5.43 64.91L37.02 50.73L50 50L39.19 57.22Z" fill="#17324D"/><path d="M21.64 43.95L38.15 44.66L50 50L37.02 50.73Z" fill="#D9B36C"/><path d="M12.22 22.04L41.43 40.23L50 50L38.15 44.66Z" fill="#17324D"/><path d="M35.93 24.64L46.8 37.4L50 50L41.43 40.23Z" fill="#D9B36C"/></svg></g>
<text x="34" y="454" font-size="11" fill="#6B7280">duo-navy-gold</text>
<g transform="translate(284,308)"><svg width="128" height="128" viewBox="0 0 100 100"><circle cx="50" cy="50" r="48" fill="#F7F4EE"/><path d="M50.4 3L53.42 37.46L50 50L46.8 37.4Z" fill="#7A263A"/><path d="M64.5 24.88L58.7 40.34L50 50L53.42 37.46Z" fill="#17324D"/><path d="M88.01 22.36L61.87 44.71L50 50L58.7 40.34Z" fill="#7A263A"/><path d="M78.36 43.95L62.98 50.67L50 50L61.87 44.71Z" fill="#17324D"/><path d="M94.71 64.51L60.9 57.08L50 50L62.98 50.67Z" fill="#7A263A"/><path d="M69.41 71.55L54.71 62.11L50 50L60.9 57.08Z" fill="#17324D"/><path d="M50.42 97L45.5 62.2L50 50L54.71 62.11Z" fill="#7A263A"/><path d="M30.98 71.89L39.19 57.22L50 50L45.5 62.2Z" fill="#17324D"/><path d="M5.43 64.91L37.02 50.73L50 50L39.19 57.22Z" fill="#7A263A"/><path d="M21.64 43.95L38.15 44.66L50 50L37.02 50.73Z" fill="#17324D"/><path d="M12.22 22.04L41.43 40.23L50 50L38.15 44.66Z" fill="#7A263A"/><path d="M35.93 24.64L46.8 37.4L50 50L41.43 40.23Z" fill="#17324D"/></svg></g>
<rect x="418" y="308" width="64" height="64" fill="#17324D"/>
<g transform="translate(418,308)"><svg width="64" height="64" viewBox="0 0 100 100"><circle cx="50" cy="50" r="48" fill="#F7F4EE"/><path d="M50.4 3L53.42 37.46L50 50L46.8 37.4Z" fill="#7A263A"/><path d="M64.5 24.88L58.7 40.34L50 50L53.42 37.46Z" fill="#17324D"/><path d="M88.01 22.36L61.87 44.71L50 50L58.7 40.34Z" fill="#7A263A"/><path d="M78.36 43.95L62.98 50.67L50 50L61.87 44.71Z" fill="#17324D"/><path d="M94.71 64.51L60.9 57.08L50 50L62.98 50.67Z" fill="#7A263A"/><path d="M69.41 71.55L54.71 62.11L50 50L60.9 57.08Z" fill="#17324D"/><path d="M50.42 97L45.5 62.2L50 50L54.71 62.11Z" fill="#7A263A"/><path d="M30.98 71.89L39.19 57.22L50 50L45.5 62.2Z" fill="#17324D"/><path d="M5.43 64.91L37.02 50.73L50 50L39.19 57.22Z" fill="#7A263A"/><path d="M21.64 43.95L38.15 44.66L50 50L37.02 50.73Z" fill="#17324D"/><path d="M12.22 22.04L41.43 40.23L50 50L38.15 44.66Z" fill="#7A263A"/><path d="M35.93 24.64L46.8 37.4L50 50L41.43 40.23Z" fill="#17324D"/></svg></g>
<g transform="translate(418,378)"><svg width="36" height="36" viewBox="0 0 100 100"><circle cx="50" cy="50" r="48" fill="#F7F4EE"/><path d="M50.4 3L53.42 37.46L50 50L46.8 37.4Z" fill="#7A263A"/><path d="M64.5 24.88L58.7 40.34L50 50L53.42 37.46Z" fill="#17324D"/><path d="M88.01 22.36L61.87 44.71L50 50L58.7 40.34Z" fill="#7A263A"/><path d="M78.36 43.95L62.98 50.67L50 50L61.87 44.71Z" fill="#17324D"/><path d="M94.71 64.51L60.9 57.08L50 50L62.98 50.67Z" fill="#7A263A"/><path d="M69.41 71.55L54.71 62.11L50 50L60.9 57.08Z" fill="#17324D"/><path d="M50.42 97L45.5 62.2L50 50L54.71 62.11Z" fill="#7A263A"/><path d="M30.98 71.89L39.19 57.22L50 50L45.5 62.2Z" fill="#17324D"/><path d="M5.43 64.91L37.02 50.73L50 50L39.19 57.22Z" fill="#7A263A"/><path d="M21.64 43.95L38.15 44.66L50 50L37.02 50.73Z" fill="#17324D"/><path d="M12.22 22.04L41.43 40.23L50 50L38.15 44.66Z" fill="#7A263A"/><path d="M35.93 24.64L46.8 37.4L50 50L41.43 40.23Z" fill="#17324D"/></svg></g>
<text x="284" y="454" font-size="11" fill="#6B7280">duo-maroon-navy</text>
<g transform="translate(534,308)"><svg width="128" height="128" viewBox="0 0 100 100"><circle cx="50" cy="50" r="48" fill="#7A263A"/><path d="M50.4 3L53.42 37.46L50 50L46.8 37.4Z" fill="#F7F4EE"/><path d="M64.5 24.88L58.7 40.34L50 50L53.42 37.46Z" fill="#D9B36C"/><path d="M88.01 22.36L61.87 44.71L50 50L58.7 40.34Z" fill="#F7F4EE"/><path d="M78.36 43.95L62.98 50.67L50 50L61.87 44.71Z" fill="#D9B36C"/><path d="M94.71 64.51L60.9 57.08L50 50L62.98 50.67Z" fill="#F7F4EE"/><path d="M69.41 71.55L54.71 62.11L50 50L60.9 57.08Z" fill="#D9B36C"/><path d="M50.42 97L45.5 62.2L50 50L54.71 62.11Z" fill="#F7F4EE"/><path d="M30.98 71.89L39.19 57.22L50 50L45.5 62.2Z" fill="#D9B36C"/><path d="M5.43 64.91L37.02 50.73L50 50L39.19 57.22Z" fill="#F7F4EE"/><path d="M21.64 43.95L38.15 44.66L50 50L37.02 50.73Z" fill="#D9B36C"/><path d="M12.22 22.04L41.43 40.23L50 50L38.15 44.66Z" fill="#F7F4EE"/><path d="M35.93 24.64L46.8 37.4L50 50L41.43 40.23Z" fill="#D9B36C"/></svg></g>
<rect x="668" y="308" width="64" height="64" fill="#17324D"/>
<g transform="translate(668,308)"><svg width="64" height="64" viewBox="0 0 100 100"><circle cx="50" cy="50" r="48" fill="#7A263A"/><path d="M50.4 3L53.42 37.46L50 50L46.8 37.4Z" fill="#F7F4EE"/><path d="M64.5 24.88L58.7 40.34L50 50L53.42 37.46Z" fill="#D9B36C"/><path d="M88.01 22.36L61.87 44.71L50 50L58.7 40.34Z" fill="#F7F4EE"/><path d="M78.36 43.95L62.98 50.67L50 50L61.87 44.71Z" fill="#D9B36C"/><path d="M94.71 64.51L60.9 57.08L50 50L62.98 50.67Z" fill="#F7F4EE"/><path d="M69.41 71.55L54.71 62.11L50 50L60.9 57.08Z" fill="#D9B36C"/><path d="M50.42 97L45.5 62.2L50 50L54.71 62.11Z" fill="#F7F4EE"/><path d="M30.98 71.89L39.19 57.22L50 50L45.5 62.2Z" fill="#D9B36C"/><path d="M5.43 64.91L37.02 50.73L50 50L39.19 57.22Z" fill="#F7F4EE"/><path d="M21.64 43.95L38.15 44.66L50 50L37.02 50.73Z" fill="#D9B36C"/><path d="M12.22 22.04L41.43 40.23L50 50L38.15 44.66Z" fill="#F7F4EE"/><path d="M35.93 24.64L46.8 37.4L50 50L41.43 40.23Z" fill="#D9B36C"/></svg></g>
<g transform="translate(668,378)"><svg width="36" height="36" viewBox="0 0 100 100"><circle cx="50" cy="50" r="48" fill="#7A263A"/><path d="M50.4 3L53.42 37.46L50 50L46.8 37.4Z" fill="#F7F4EE"/><path d="M64.5 24.88L58.7 40.34L50 50L53.42 37.46Z" fill="#D9B36C"/><path d="M88.01 22.36L61.87 44.71L50 50L58.7 40.34Z" fill="#F7F4EE"/><path d="M78.36 43.95L62.98 50.67L50 50L61.87 44.71Z" fill="#D9B36C"/><path d="M94.71 64.51L60.9 57.08L50 50L62.98 50.67Z" fill="#F7F4EE"/><path d="M69.41 71.55L54.71 62.11L50 50L60.9 57.08Z" fill="#D9B36C"/><path d="M50.42 97L45.5 62.2L50 50L54.71 62.11Z" fill="#F7F4EE"/><path d="M30.98 71.89L39.19 57.22L50 50L45.5 62.2Z" fill="#D9B36C"/><path d="M5.43 64.91L37.02 50.73L50 50L39.19 57.22Z" fill="#F7F4EE"/><path d="M21.64 43.95L38.15 44.66L50 50L37.02 50.73Z" fill="#D9B36C"/><path d="M12.22 22.04L41.43 40.23L50 50L38.15 44.66Z" fill="#F7F4EE"/><path d="M35.93 24.64L46.8 37.4L50 50L41.43 40.23Z" fill="#D9B36C"/></svg></g>
<text x="534" y="454" font-size="11" fill="#6B7280">duo-seal</text>
<text x="34" y="506" font-size="15" fill="#17324D" font-weight="700">C · mono / solid  (one colour)</text>
<g transform="translate(34,518)"><svg width="128" height="128" viewBox="0 0 100 100"><path d="M50.4 3L53.42 37.46L50 50L46.8 37.4Z" fill="#7A263A"/><path d="M64.5 24.88L58.7 40.34L50 50L53.42 37.46Z" fill="#7A263A"/><path d="M88.01 22.36L61.87 44.71L50 50L58.7 40.34Z" fill="#7A263A"/><path d="M78.36 43.95L62.98 50.67L50 50L61.87 44.71Z" fill="#7A263A"/><path d="M94.71 64.51L60.9 57.08L50 50L62.98 50.67Z" fill="#7A263A"/><path d="M69.41 71.55L54.71 62.11L50 50L60.9 57.08Z" fill="#7A263A"/><path d="M50.42 97L45.5 62.2L50 50L54.71 62.11Z" fill="#7A263A"/><path d="M30.98 71.89L39.19 57.22L50 50L45.5 62.2Z" fill="#7A263A"/><path d="M5.43 64.91L37.02 50.73L50 50L39.19 57.22Z" fill="#7A263A"/><path d="M21.64 43.95L38.15 44.66L50 50L37.02 50.73Z" fill="#7A263A"/><path d="M12.22 22.04L41.43 40.23L50 50L38.15 44.66Z" fill="#7A263A"/><path d="M35.93 24.64L46.8 37.4L50 50L41.43 40.23Z" fill="#7A263A"/></svg></g>
<rect x="168" y="518" width="64" height="64" fill="#17324D"/>
<g transform="translate(168,518)"><svg width="64" height="64" viewBox="0 0 100 100"><path d="M50.4 3L53.42 37.46L50 50L46.8 37.4Z" fill="#7A263A"/><path d="M64.5 24.88L58.7 40.34L50 50L53.42 37.46Z" fill="#7A263A"/><path d="M88.01 22.36L61.87 44.71L50 50L58.7 40.34Z" fill="#7A263A"/><path d="M78.36 43.95L62.98 50.67L50 50L61.87 44.71Z" fill="#7A263A"/><path d="M94.71 64.51L60.9 57.08L50 50L62.98 50.67Z" fill="#7A263A"/><path d="M69.41 71.55L54.71 62.11L50 50L60.9 57.08Z" fill="#7A263A"/><path d="M50.42 97L45.5 62.2L50 50L54.71 62.11Z" fill="#7A263A"/><path d="M30.98 71.89L39.19 57.22L50 50L45.5 62.2Z" fill="#7A263A"/><path d="M5.43 64.91L37.02 50.73L50 50L39.19 57.22Z" fill="#7A263A"/><path d="M21.64 43.95L38.15 44.66L50 50L37.02 50.73Z" fill="#7A263A"/><path d="M12.22 22.04L41.43 40.23L50 50L38.15 44.66Z" fill="#7A263A"/><path d="M35.93 24.64L46.8 37.4L50 50L41.43 40.23Z" fill="#7A263A"/></svg></g>
<g transform="translate(168,588)"><svg width="36" height="36" viewBox="0 0 100 100"><path d="M50.4 3L53.42 37.46L50 50L46.8 37.4Z" fill="#7A263A"/><path d="M64.5 24.88L58.7 40.34L50 50L53.42 37.46Z" fill="#7A263A"/><path d="M88.01 22.36L61.87 44.71L50 50L58.7 40.34Z" fill="#7A263A"/><path d="M78.36 43.95L62.98 50.67L50 50L61.87 44.71Z" fill="#7A263A"/><path d="M94.71 64.51L60.9 57.08L50 50L62.98 50.67Z" fill="#7A263A"/><path d="M69.41 71.55L54.71 62.11L50 50L60.9 57.08Z" fill="#7A263A"/><path d="M50.42 97L45.5 62.2L50 50L54.71 62.11Z" fill="#7A263A"/><path d="M30.98 71.89L39.19 57.22L50 50L45.5 62.2Z" fill="#7A263A"/><path d="M5.43 64.91L37.02 50.73L50 50L39.19 57.22Z" fill="#7A263A"/><path d="M21.64 43.95L38.15 44.66L50 50L37.02 50.73Z" fill="#7A263A"/><path d="M12.22 22.04L41.43 40.23L50 50L38.15 44.66Z" fill="#7A263A"/><path d="M35.93 24.64L46.8 37.4L50 50L41.43 40.23Z" fill="#7A263A"/></svg></g>
<text x="34" y="664" font-size="11" fill="#6B7280">solid-maroon</text>
<g transform="translate(284,518)"><svg width="128" height="128" viewBox="0 0 100 100"><path d="M50.4 3L53.42 37.46L50 50L46.8 37.4Z" fill="#17324D"/><path d="M64.5 24.88L58.7 40.34L50 50L53.42 37.46Z" fill="#17324D"/><path d="M88.01 22.36L61.87 44.71L50 50L58.7 40.34Z" fill="#17324D"/><path d="M78.36 43.95L62.98 50.67L50 50L61.87 44.71Z" fill="#17324D"/><path d="M94.71 64.51L60.9 57.08L50 50L62.98 50.67Z" fill="#17324D"/><path d="M69.41 71.55L54.71 62.11L50 50L60.9 57.08Z" fill="#17324D"/><path d="M50.42 97L45.5 62.2L50 50L54.71 62.11Z" fill="#17324D"/><path d="M30.98 71.89L39.19 57.22L50 50L45.5 62.2Z" fill="#17324D"/><path d="M5.43 64.91L37.02 50.73L50 50L39.19 57.22Z" fill="#17324D"/><path d="M21.64 43.95L38.15 44.66L50 50L37.02 50.73Z" fill="#17324D"/><path d="M12.22 22.04L41.43 40.23L50 50L38.15 44.66Z" fill="#17324D"/><path d="M35.93 24.64L46.8 37.4L50 50L41.43 40.23Z" fill="#17324D"/></svg></g>
<rect x="418" y="518" width="64" height="64" fill="#17324D"/>
<g transform="translate(418,518)"><svg width="64" height="64" viewBox="0 0 100 100"><path d="M50.4 3L53.42 37.46L50 50L46.8 37.4Z" fill="#17324D"/><path d="M64.5 24.88L58.7 40.34L50 50L53.42 37.46Z" fill="#17324D"/><path d="M88.01 22.36L61.87 44.71L50 50L58.7 40.34Z" fill="#17324D"/><path d="M78.36 43.95L62.98 50.67L50 50L61.87 44.71Z" fill="#17324D"/><path d="M94.71 64.51L60.9 57.08L50 50L62.98 50.67Z" fill="#17324D"/><path d="M69.41 71.55L54.71 62.11L50 50L60.9 57.08Z" fill="#17324D"/><path d="M50.42 97L45.5 62.2L50 50L54.71 62.11Z" fill="#17324D"/><path d="M30.98 71.89L39.19 57.22L50 50L45.5 62.2Z" fill="#17324D"/><path d="M5.43 64.91L37.02 50.73L50 50L39.19 57.22Z" fill="#17324D"/><path d="M21.64 43.95L38.15 44.66L50 50L37.02 50.73Z" fill="#17324D"/><path d="M12.22 22.04L41.43 40.23L50 50L38.15 44.66Z" fill="#17324D"/><path d="M35.93 24.64L46.8 37.4L50 50L41.43 40.23Z" fill="#17324D"/></svg></g>
<g transform="translate(418,588)"><svg width="36" height="36" viewBox="0 0 100 100"><path d="M50.4 3L53.42 37.46L50 50L46.8 37.4Z" fill="#17324D"/><path d="M64.5 24.88L58.7 40.34L50 50L53.42 37.46Z" fill="#17324D"/><path d="M88.01 22.36L61.87 44.71L50 50L58.7 40.34Z" fill="#17324D"/><path d="M78.36 43.95L62.98 50.67L50 50L61.87 44.71Z" fill="#17324D"/><path d="M94.71 64.51L60.9 57.08L50 50L62.98 50.67Z" fill="#17324D"/><path d="M69.41 71.55L54.71 62.11L50 50L60.9 57.08Z" fill="#17324D"/><path d="M50.42 97L45.5 62.2L50 50L54.71 62.11Z" fill="#17324D"/><path d="M30.98 71.89L39.19 57.22L50 50L45.5 62.2Z" fill="#17324D"/><path d="M5.43 64.91L37.02 50.73L50 50L39.19 57.22Z" fill="#17324D"/><path d="M21.64 43.95L38.15 44.66L50 50L37.02 50.73Z" fill="#17324D"/><path d="M12.22 22.04L41.43 40.23L50 50L38.15 44.66Z" fill="#17324D"/><path d="M35.93 24.64L46.8 37.4L50 50L41.43 40.23Z" fill="#17324D"/></svg></g>
<text x="284" y="664" font-size="11" fill="#6B7280">solid-navy</text>
<g transform="translate(534,518)"><svg width="128" height="128" viewBox="0 0 100 100"><circle cx="50" cy="50" r="48" fill="#7A263A"/><path d="M50.4 3L53.42 37.46L50 50L46.8 37.4Z" fill="#F7F4EE"/><path d="M64.5 24.88L58.7 40.34L50 50L53.42 37.46Z" fill="#F7F4EE"/><path d="M88.01 22.36L61.87 44.71L50 50L58.7 40.34Z" fill="#F7F4EE"/><path d="M78.36 43.95L62.98 50.67L50 50L61.87 44.71Z" fill="#F7F4EE"/><path d="M94.71 64.51L60.9 57.08L50 50L62.98 50.67Z" fill="#F7F4EE"/><path d="M69.41 71.55L54.71 62.11L50 50L60.9 57.08Z" fill="#F7F4EE"/><path d="M50.42 97L45.5 62.2L50 50L54.71 62.11Z" fill="#F7F4EE"/><path d="M30.98 71.89L39.19 57.22L50 50L45.5 62.2Z" fill="#F7F4EE"/><path d="M5.43 64.91L37.02 50.73L50 50L39.19 57.22Z" fill="#F7F4EE"/><path d="M21.64 43.95L38.15 44.66L50 50L37.02 50.73Z" fill="#F7F4EE"/><path d="M12.22 22.04L41.43 40.23L50 50L38.15 44.66Z" fill="#F7F4EE"/><path d="M35.93 24.64L46.8 37.4L50 50L41.43 40.23Z" fill="#F7F4EE"/></svg></g>
<rect x="668" y="518" width="64" height="64" fill="#17324D"/>
<g transform="translate(668,518)"><svg width="64" height="64" viewBox="0 0 100 100"><circle cx="50" cy="50" r="48" fill="#7A263A"/><path d="M50.4 3L53.42 37.46L50 50L46.8 37.4Z" fill="#F7F4EE"/><path d="M64.5 24.88L58.7 40.34L50 50L53.42 37.46Z" fill="#F7F4EE"/><path d="M88.01 22.36L61.87 44.71L50 50L58.7 40.34Z" fill="#F7F4EE"/><path d="M78.36 43.95L62.98 50.67L50 50L61.87 44.71Z" fill="#F7F4EE"/><path d="M94.71 64.51L60.9 57.08L50 50L62.98 50.67Z" fill="#F7F4EE"/><path d="M69.41 71.55L54.71 62.11L50 50L60.9 57.08Z" fill="#F7F4EE"/><path d="M50.42 97L45.5 62.2L50 50L54.71 62.11Z" fill="#F7F4EE"/><path d="M30.98 71.89L39.19 57.22L50 50L45.5 62.2Z" fill="#F7F4EE"/><path d="M5.43 64.91L37.02 50.73L50 50L39.19 57.22Z" fill="#F7F4EE"/><path d="M21.64 43.95L38.15 44.66L50 50L37.02 50.73Z" fill="#F7F4EE"/><path d="M12.22 22.04L41.43 40.23L50 50L38.15 44.66Z" fill="#F7F4EE"/><path d="M35.93 24.64L46.8 37.4L50 50L41.43 40.23Z" fill="#F7F4EE"/></svg></g>
<g transform="translate(668,588)"><svg width="36" height="36" viewBox="0 0 100 100"><circle cx="50" cy="50" r="48" fill="#7A263A"/><path d="M50.4 3L53.42 37.46L50 50L46.8 37.4Z" fill="#F7F4EE"/><path d="M64.5 24.88L58.7 40.34L50 50L53.42 37.46Z" fill="#F7F4EE"/><path d="M88.01 22.36L61.87 44.71L50 50L58.7 40.34Z" fill="#F7F4EE"/><path d="M78.36 43.95L62.98 50.67L50 50L61.87 44.71Z" fill="#F7F4EE"/><path d="M94.71 64.51L60.9 57.08L50 50L62.98 50.67Z" fill="#F7F4EE"/><path d="M69.41 71.55L54.71 62.11L50 50L60.9 57.08Z" fill="#F7F4EE"/><path d="M50.42 97L45.5 62.2L50 50L54.71 62.11Z" fill="#F7F4EE"/><path d="M30.98 71.89L39.19 57.22L50 50L45.5 62.2Z" fill="#F7F4EE"/><path d="M5.43 64.91L37.02 50.73L50 50L39.19 57.22Z" fill="#F7F4EE"/><path d="M21.64 43.95L38.15 44.66L50 50L37.02 50.73Z" fill="#F7F4EE"/><path d="M12.22 22.04L41.43 40.23L50 50L38.15 44.66Z" fill="#F7F4EE"/><path d="M35.93 24.64L46.8 37.4L50 50L41.43 40.23Z" fill="#F7F4EE"/></svg></g>
<text x="534" y="664" font-size="11" fill="#6B7280">solid-seal</text>
<text x="34" y="716" font-size="15" fill="#17324D" font-weight="700">D · outline family  (like the leaf outline)</text>
<g transform="translate(34,728)"><svg width="128" height="128" viewBox="0 0 100 100"><path d="M50.4 3L53.42 37.46L64.5 24.88L58.7 40.34L88.01 22.36L61.87 44.71L78.36 43.95L62.98 50.67L94.71 64.51L60.9 57.08L69.41 71.55L54.71 62.11L50.42 97L45.5 62.2L30.98 71.89L39.19 57.22L5.43 64.91L37.02 50.73L21.64 43.95L38.15 44.66L12.22 22.04L41.43 40.23L35.93 24.64L46.8 37.4Z" fill="none" stroke="#17324D" stroke-width="2.4" stroke-linejoin="round" stroke-linecap="round"/></svg></g>
<rect x="168" y="728" width="64" height="64" fill="#17324D"/>
<g transform="translate(168,728)"><svg width="64" height="64" viewBox="0 0 100 100"><path d="M50.4 3L53.42 37.46L64.5 24.88L58.7 40.34L88.01 22.36L61.87 44.71L78.36 43.95L62.98 50.67L94.71 64.51L60.9 57.08L69.41 71.55L54.71 62.11L50.42 97L45.5 62.2L30.98 71.89L39.19 57.22L5.43 64.91L37.02 50.73L21.64 43.95L38.15 44.66L12.22 22.04L41.43 40.23L35.93 24.64L46.8 37.4Z" fill="none" stroke="#17324D" stroke-width="2.4" stroke-linejoin="round" stroke-linecap="round"/></svg></g>
<g transform="translate(168,798)"><svg width="36" height="36" viewBox="0 0 100 100"><path d="M50.4 3L53.42 37.46L64.5 24.88L58.7 40.34L88.01 22.36L61.87 44.71L78.36 43.95L62.98 50.67L94.71 64.51L60.9 57.08L69.41 71.55L54.71 62.11L50.42 97L45.5 62.2L30.98 71.89L39.19 57.22L5.43 64.91L37.02 50.73L21.64 43.95L38.15 44.66L12.22 22.04L41.43 40.23L35.93 24.64L46.8 37.4Z" fill="none" stroke="#17324D" stroke-width="2.4" stroke-linejoin="round" stroke-linecap="round"/></svg></g>
<text x="34" y="874" font-size="11" fill="#6B7280">outline-navy</text>
<g transform="translate(284,728)"><svg width="128" height="128" viewBox="0 0 100 100"><path d="M50.4 3L53.42 37.46L64.5 24.88L58.7 40.34L88.01 22.36L61.87 44.71L78.36 43.95L62.98 50.67L94.71 64.51L60.9 57.08L69.41 71.55L54.71 62.11L50.42 97L45.5 62.2L30.98 71.89L39.19 57.22L5.43 64.91L37.02 50.73L21.64 43.95L38.15 44.66L12.22 22.04L41.43 40.23L35.93 24.64L46.8 37.4Z" fill="none" stroke="#7A263A" stroke-width="2.4" stroke-linejoin="round" stroke-linecap="round"/></svg></g>
<rect x="418" y="728" width="64" height="64" fill="#17324D"/>
<g transform="translate(418,728)"><svg width="64" height="64" viewBox="0 0 100 100"><path d="M50.4 3L53.42 37.46L64.5 24.88L58.7 40.34L88.01 22.36L61.87 44.71L78.36 43.95L62.98 50.67L94.71 64.51L60.9 57.08L69.41 71.55L54.71 62.11L50.42 97L45.5 62.2L30.98 71.89L39.19 57.22L5.43 64.91L37.02 50.73L21.64 43.95L38.15 44.66L12.22 22.04L41.43 40.23L35.93 24.64L46.8 37.4Z" fill="none" stroke="#7A263A" stroke-width="2.4" stroke-linejoin="round" stroke-linecap="round"/></svg></g>
<g transform="translate(418,798)"><svg width="36" height="36" viewBox="0 0 100 100"><path d="M50.4 3L53.42 37.46L64.5 24.88L58.7 40.34L88.01 22.36L61.87 44.71L78.36 43.95L62.98 50.67L94.71 64.51L60.9 57.08L69.41 71.55L54.71 62.11L50.42 97L45.5 62.2L30.98 71.89L39.19 57.22L5.43 64.91L37.02 50.73L21.64 43.95L38.15 44.66L12.22 22.04L41.43 40.23L35.93 24.64L46.8 37.4Z" fill="none" stroke="#7A263A" stroke-width="2.4" stroke-linejoin="round" stroke-linecap="round"/></svg></g>
<text x="284" y="874" font-size="11" fill="#6B7280">outline-maroon</text>
<g transform="translate(534,728)"><svg width="128" height="128" viewBox="0 0 100 100"><path d="M46.8 37.4L50.4 3L53.42 37.46" fill="none" stroke="#C2972F" stroke-width="2.4" stroke-linejoin="round" stroke-linecap="round"/><path d="M53.42 37.46L64.5 24.88L58.7 40.34" fill="none" stroke="#17324D" stroke-width="2.4" stroke-linejoin="round" stroke-linecap="round"/><path d="M58.7 40.34L88.01 22.36L61.87 44.71" fill="none" stroke="#17324D" stroke-width="2.4" stroke-linejoin="round" stroke-linecap="round"/><path d="M61.87 44.71L78.36 43.95L62.98 50.67" fill="none" stroke="#17324D" stroke-width="2.4" stroke-linejoin="round" stroke-linecap="round"/><path d="M62.98 50.67L94.71 64.51L60.9 57.08" fill="none" stroke="#2A7F9E" stroke-width="2.4" stroke-linejoin="round" stroke-linecap="round"/><path d="M60.9 57.08L69.41 71.55L54.71 62.11" fill="none" stroke="#17324D" stroke-width="2.4" stroke-linejoin="round" stroke-linecap="round"/><path d="M54.71 62.11L50.42 97L45.5 62.2" fill="none" stroke="#7A263A" stroke-width="2.4" stroke-linejoin="round" stroke-linecap="round"/><path d="M45.5 62.2L30.98 71.89L39.19 57.22" fill="none" stroke="#17324D" stroke-width="2.4" stroke-linejoin="round" stroke-linecap="round"/><path d="M39.19 57.22L5.43 64.91L37.02 50.73" fill="none" stroke="#3F6F5E" stroke-width="2.4" stroke-linejoin="round" stroke-linecap="round"/><path d="M37.02 50.73L21.64 43.95L38.15 44.66" fill="none" stroke="#17324D" stroke-width="2.4" stroke-linejoin="round" stroke-linecap="round"/><path d="M38.15 44.66L12.22 22.04L41.43 40.23" fill="none" stroke="#6B7280" stroke-width="2.4" stroke-linejoin="round" stroke-linecap="round"/><path d="M41.43 40.23L35.93 24.64L46.8 37.4" fill="none" stroke="#17324D" stroke-width="2.4" stroke-linejoin="round" stroke-linecap="round"/></svg></g>
<rect x="668" y="728" width="64" height="64" fill="#17324D"/>
<g transform="translate(668,728)"><svg width="64" height="64" viewBox="0 0 100 100"><path d="M46.8 37.4L50.4 3L53.42 37.46" fill="none" stroke="#C2972F" stroke-width="2.4" stroke-linejoin="round" stroke-linecap="round"/><path d="M53.42 37.46L64.5 24.88L58.7 40.34" fill="none" stroke="#17324D" stroke-width="2.4" stroke-linejoin="round" stroke-linecap="round"/><path d="M58.7 40.34L88.01 22.36L61.87 44.71" fill="none" stroke="#17324D" stroke-width="2.4" stroke-linejoin="round" stroke-linecap="round"/><path d="M61.87 44.71L78.36 43.95L62.98 50.67" fill="none" stroke="#17324D" stroke-width="2.4" stroke-linejoin="round" stroke-linecap="round"/><path d="M62.98 50.67L94.71 64.51L60.9 57.08" fill="none" stroke="#2A7F9E" stroke-width="2.4" stroke-linejoin="round" stroke-linecap="round"/><path d="M60.9 57.08L69.41 71.55L54.71 62.11" fill="none" stroke="#17324D" stroke-width="2.4" stroke-linejoin="round" stroke-linecap="round"/><path d="M54.71 62.11L50.42 97L45.5 62.2" fill="none" stroke="#7A263A" stroke-width="2.4" stroke-linejoin="round" stroke-linecap="round"/><path d="M45.5 62.2L30.98 71.89L39.19 57.22" fill="none" stroke="#17324D" stroke-width="2.4" stroke-linejoin="round" stroke-linecap="round"/><path d="M39.19 57.22L5.43 64.91L37.02 50.73" fill="none" stroke="#3F6F5E" stroke-width="2.4" stroke-linejoin="round" stroke-linecap="round"/><path d="M37.02 50.73L21.64 43.95L38.15 44.66" fill="none" stroke="#17324D" stroke-width="2.4" stroke-linejoin="round" stroke-linecap="round"/><path d="M38.15 44.66L12.22 22.04L41.43 40.23" fill="none" stroke="#6B7280" stroke-width="2.4" stroke-linejoin="round" stroke-linecap="round"/><path d="M41.43 40.23L35.93 24.64L46.8 37.4" fill="none" stroke="#17324D" stroke-width="2.4" stroke-linejoin="round" stroke-linecap="round"/></svg></g>
<g transform="translate(668,798)"><svg width="36" height="36" viewBox="0 0 100 100"><path d="M46.8 37.4L50.4 3L53.42 37.46" fill="none" stroke="#C2972F" stroke-width="2.4" stroke-linejoin="round" stroke-linecap="round"/><path d="M53.42 37.46L64.5 24.88L58.7 40.34" fill="none" stroke="#17324D" stroke-width="2.4" stroke-linejoin="round" stroke-linecap="round"/><path d="M58.7 40.34L88.01 22.36L61.87 44.71" fill="none" stroke="#17324D" stroke-width="2.4" stroke-linejoin="round" stroke-linecap="round"/><path d="M61.87 44.71L78.36 43.95L62.98 50.67" fill="none" stroke="#17324D" stroke-width="2.4" stroke-linejoin="round" stroke-linecap="round"/><path d="M62.98 50.67L94.71 64.51L60.9 57.08" fill="none" stroke="#2A7F9E" stroke-width="2.4" stroke-linejoin="round" stroke-linecap="round"/><path d="M60.9 57.08L69.41 71.55L54.71 62.11" fill="none" stroke="#17324D" stroke-width="2.4" stroke-linejoin="round" stroke-linecap="round"/><path d="M54.71 62.11L50.42 97L45.5 62.2" fill="none" stroke="#7A263A" stroke-width="2.4" stroke-linejoin="round" stroke-linecap="round"/><path d="M45.5 62.2L30.98 71.89L39.19 57.22" fill="none" stroke="#17324D" stroke-width="2.4" stroke-linejoin="round" stroke-linecap="round"/><path d="M39.19 57.22L5.43 64.91L37.02 50.73" fill="none" stroke="#3F6F5E" stroke-width="2.4" stroke-linejoin="round" stroke-linecap="round"/><path d="M37.02 50.73L21.64 43.95L38.15 44.66" fill="none" stroke="#17324D" stroke-width="2.4" stroke-linejoin="round" stroke-linecap="round"/><path d="M38.15 44.66L12.22 22.04L41.43 40.23" fill="none" stroke="#6B7280" stroke-width="2.4" stroke-linejoin="round" stroke-linecap="round"/><path d="M41.43 40.23L35.93 24.64L46.8 37.4" fill="none" stroke="#17324D" stroke-width="2.4" stroke-linejoin="round" stroke-linecap="round"/></svg></g>
<text x="534" y="874" font-size="11" fill="#6B7280">outline-cells</text>
</svg>