<svg xmlns="http://www.w3.org/2000/svg" viewBox="0 0 100 100"><circle cx="50" cy="44" r="46" fill="#F2EEE6"/><path d="M 50.0 4.0 Q 50.0 4.0 50.4 5.1 L 51.9 9.2 Q 53.2 13.0 55.0 11.5 L 56.6 10.3 Q 57.5 9.5 57.6 10.7 L 57.9 15.0 Q 58.2 19.0 60.4 17.5 L 62.5 16.2 Q 63.5 15.5 63.3 16.7 L 61.7 26.1 Q 60.5 33.0 64.5 29.6 L 69.1 25.8 Q 70.0 25.0 70.3 26.1 L 70.9 27.9 Q 71.5 30.0 74.2 27.0 L 82.2 17.9 Q 83.0 17.0 83.1 18.2 L 83.6 22.2 Q 84.0 26.0 86.1 25.6 L 87.8 25.2 Q 89.0 25.0 88.4 26.0 L 83.2 34.1 Q 79.5 40.0 83.9 41.3 L 88.8 42.7 Q 90.0 43.0 89.3 44.0 L 86.8 47.6 Q 84.5 51.0 85.1 51.8 L 85.4 52.2 Q 86.0 53.0 84.9 53.3 L 73.7 56.7 Q 66.0 59.0 60.1 59.4 L 54.0 59.9 Q 52.0 60.0 51.7 61.3 L 51.4 62.2 Q 51.2 63.0 51.2 63.8 L 50.8 87.2 Q 50.8 88.0 50.1 88.0 L 49.9 88.0 Q 49.2 88.0 49.2 87.2 L 48.8 63.8 Q 48.8 63.0 48.6 62.2 L 48.3 61.3 Q 48.0 60.0 46.0 59.9 L 39.9 59.4 Q 34.0 59.0 26.3 56.7 L 15.1 53.3 Q 14.0 53.0 14.6 52.2 L 14.9 51.8 Q 15.5 51.0 13.2 47.6 L 10.7 44.0 Q 10.0 43.0 11.2 42.7 L 16.1 41.3 Q 20.5 40.0 16.8 34.1 L 11.6 26.0 Q 11.0 25.0 12.2 25.2 L 13.9 25.6 Q 16.0 26.0 16.4 22.2 L 16.9 18.2 Q 17.0 17.0 17.8 17.9 L 25.8 27.0 Q 28.5 30.0 29.1 27.9 L 29.7 26.1 Q 30.0 25.0 30.9 25.8 L 35.5 29.6 Q 39.5 33.0 38.3 26.1 L 36.7 16.7 Q 36.5 15.5 37.5 16.2 L 39.6 17.5 Q 41.8 19.0 42.1 15.0 L 42.4 10.7 Q 42.5 9.5 43.4 10.3 L 45.0 11.5 Q 46.8 13.0 48.1 9.2 L 49.6 5.1 Q 50.0 4.0 50.0 4.0 Z" fill="#6B7280" opacity="0.18"/><line x1="50" y1="44" x2="35.45" y2="17.77" stroke="#7A263A" stroke-width="1.4" stroke-dasharray="2 1.6" stroke-linecap="round"/><line x1="50" y1="44" x2="65" y2="18.02" stroke="#7A263A" stroke-width="1.4" stroke-dasharray="2 1.6" stroke-linecap="round"/><line x1="50" y1="44" x2="79.34" y2="37.75" stroke="#7A263A" stroke-width="1.4" stroke-dasharray="2 1.6" stroke-linecap="round"/><line x1="50" y1="44" x2="70.08" y2="66.29" stroke="#7A263A" stroke-width="1.4" stroke-dasharray="2 1.6" stroke-linecap="round"/><line x1="50" y1="44" x2="30.32" y2="66.65" stroke="#7A263A" stroke-width="1.4" stroke-dasharray="2 1.6" stroke-linecap="round"/><line x1="50" y1="44" x2="20.66" y2="37.75" stroke="#7A263A" stroke-width="1.4" stroke-dasharray="2 1.6" stroke-linecap="round"/><path d="M50.37 0L53.42 31.46L65 18.02L58.7 34.34L85.59 18.13L61.87 38.71L79.34 37.75L62.98 44.67L91.85 57.58L60.9 51.08L70.08 66.29L54.71 56.11L50.39 88L45.5 56.2L30.32 66.65L39.19 51.22L8.27 57.95L37.02 44.73L20.66 37.75L38.15 38.66L14.63 17.82L41.43 34.23L35.45 17.77L46.8 31.4Z" fill="none" stroke="#17324D" stroke-width="1.4"/><circle cx="65" cy="18.02" r="1.8" fill="#7A263A"/><circle cx="79.34" cy="37.75" r="1.8" fill="#7A263A"/><circle cx="70.08" cy="66.29" r="1.8" fill="#7A263A"/><circle cx="30.32" cy="66.65" r="1.8" fill="#7A263A"/><circle cx="20.66" cy="37.75" r="1.8" fill="#7A263A"/><circle cx="35.45" cy="17.77" r="1.8" fill="#7A263A"/></svg>
