<svg xmlns="http://www.w3.org/2000/svg" viewBox="0 0 660 660"><rect width="660" height="660" fill="#F7F4EE"/><text x="330" y="30" font-family="'Radio Canada', 'Helvetica Neue', Arial, sans-serif" font-size="17" font-weight="700" fill="#17324D" text-anchor="middle">Monogram ring weight — current 5.5 vs −20% (4.4) vs −35% (3.6)</text><rect x="10" y="48" width="200" height="200" fill="#FFFFFF" stroke="#D9DEE5"/><g transform="translate(20,58) scale(1.8)"><circle cx="50" cy="50" r="43" fill="none" stroke="#17324D" stroke-width="5.5"/><g transform="translate(19,22.1) scale(0.62)"><path d="M 50.0 4.0 Q 50.0 4.0 50.6 5.9 L 56.2 22.4 Q 58.5 29.0 64.4 25.2 L 80.3 15.1 Q 82.0 14.0 81.6 15.9 L 78.1 31.2 Q 76.5 38.0 82.2 39.7 L 88.1 41.4 Q 90.0 42.0 88.4 43.2 L 76.4 52.2 Q 70.0 57.0 62.9 57.8 L 56.0 58.6 Q 53.0 59.0 52.8 60.7 L 52.6 62.0 Q 52.5 63.0 52.5 64.0 L 52.0 84.5 Q 52.0 86.0 50.5 86.0 L 49.5 86.0 Q 48.0 86.0 48.0 84.5 L 47.5 64.0 Q 47.5 63.0 47.4 62.0 L 47.2 60.7 Q 47.0 59.0 44.0 58.6 L 37.1 57.8 Q 30.0 57.0 23.6 52.2 L 11.6 43.2 Q 10.0 42.0 11.9 41.4 L 17.8 39.7 Q 23.5 38.0 21.9 31.2 L 18.4 15.9 Q 18.0 14.0 19.7 15.1 L 35.6 25.2 Q 41.5 29.0 43.8 22.4 L 49.4 5.9 Q 50.0 4.0 50.0 4.0 Z" fill="#7A263A"/></g></g><text x="110" y="266" font-family="'Radio Canada', 'Helvetica Neue', Arial, sans-serif" font-size="14" fill="#17324D" text-anchor="middle">5.5  (current)</text><g transform="translate(10,282) scale(0.390625)"><rect width="512" height="512" fill="#17324D"/><circle cx="256" cy="256" r="196" fill="none" stroke="#F7F4EE" stroke-width="24.0"/><g transform="translate(111,125.5) scale(2.9)"><path d="M 50.0 4.0 Q 50.0 4.0 50.6 5.9 L 56.2 22.4 Q 58.5 29.0 64.4 25.2 L 80.3 15.1 Q 82.0 14.0 81.6 15.9 L 78.1 31.2 Q 76.5 38.0 82.2 39.7 L 88.1 41.4 Q 90.0 42.0 88.4 43.2 L 76.4 52.2 Q 70.0 57.0 62.9 57.8 L 56.0 58.6 Q 53.0 59.0 52.8 60.7 L 52.6 62.0 Q 52.5 63.0 52.5 64.0 L 52.0 84.5 Q 52.0 86.0 50.5 86.0 L 49.5 86.0 Q 48.0 86.0 48.0 84.5 L 47.5 64.0 Q 47.5 63.0 47.4 62.0 L 47.2 60.7 Q 47.0 59.0 44.0 58.6 L 37.1 57.8 Q 30.0 57.0 23.6 52.2 L 11.6 43.2 Q 10.0 42.0 11.9 41.4 L 17.8 39.7 Q 23.5 38.0 21.9 31.2 L 18.4 15.9 Q 18.0 14.0 19.7 15.1 L 35.6 25.2 Q 41.5 29.0 43.8 22.4 L 49.4 5.9 Q 50.0 4.0 50.0 4.0 Z" fill="#D9B36C"/></g></g><text x="110" y="500" font-family="'Radio Canada', 'Helvetica Neue', Arial, sans-serif" font-size="13" fill="#6B7280" text-anchor="middle">avatar ring 24</text><rect x="230" y="48" width="200" height="200" fill="#FFFFFF" stroke="#D9DEE5"/><g transform="translate(240,58) scale(1.8)"><circle cx="50" cy="50" r="43" fill="none" stroke="#17324D" stroke-width="4.4"/><g transform="translate(19,22.1) scale(0.62)"><path d="M 50.0 4.0 Q 50.0 4.0 50.6 5.9 L 56.2 22.4 Q 58.5 29.0 64.4 25.2 L 80.3 15.1 Q 82.0 14.0 81.6 15.9 L 78.1 31.2 Q 76.5 38.0 82.2 39.7 L 88.1 41.4 Q 90.0 42.0 88.4 43.2 L 76.4 52.2 Q 70.0 57.0 62.9 57.8 L 56.0 58.6 Q 53.0 59.0 52.8 60.7 L 52.6 62.0 Q 52.5 63.0 52.5 64.0 L 52.0 84.5 Q 52.0 86.0 50.5 86.0 L 49.5 86.0 Q 48.0 86.0 48.0 84.5 L 47.5 64.0 Q 47.5 63.0 47.4 62.0 L 47.2 60.7 Q 47.0 59.0 44.0 58.6 L 37.1 57.8 Q 30.0 57.0 23.6 52.2 L 11.6 43.2 Q 10.0 42.0 11.9 41.4 L 17.8 39.7 Q 23.5 38.0 21.9 31.2 L 18.4 15.9 Q 18.0 14.0 19.7 15.1 L 35.6 25.2 Q 41.5 29.0 43.8 22.4 L 49.4 5.9 Q 50.0 4.0 50.0 4.0 Z" fill="#7A263A"/></g></g><text x="330" y="266" font-family="'Radio Canada', 'Helvetica Neue', Arial, sans-serif" font-size="14" fill="#17324D" text-anchor="middle">4.4  (−20%)</text><g transform="translate(230,282) scale(0.390625)"><rect width="512" height="512" fill="#17324D"/><circle cx="256" cy="256" r="196" fill="none" stroke="#F7F4EE" stroke-width="19.2"/><g transform="translate(111,125.5) scale(2.9)"><path d="M 50.0 4.0 Q 50.0 4.0 50.6 5.9 L 56.2 22.4 Q 58.5 29.0 64.4 25.2 L 80.3 15.1 Q 82.0 14.0 81.6 15.9 L 78.1 31.2 Q 76.5 38.0 82.2 39.7 L 88.1 41.4 Q 90.0 42.0 88.4 43.2 L 76.4 52.2 Q 70.0 57.0 62.9 57.8 L 56.0 58.6 Q 53.0 59.0 52.8 60.7 L 52.6 62.0 Q 52.5 63.0 52.5 64.0 L 52.0 84.5 Q 52.0 86.0 50.5 86.0 L 49.5 86.0 Q 48.0 86.0 48.0 84.5 L 47.5 64.0 Q 47.5 63.0 47.4 62.0 L 47.2 60.7 Q 47.0 59.0 44.0 58.6 L 37.1 57.8 Q 30.0 57.0 23.6 52.2 L 11.6 43.2 Q 10.0 42.0 11.9 41.4 L 17.8 39.7 Q 23.5 38.0 21.9 31.2 L 18.4 15.9 Q 18.0 14.0 19.7 15.1 L 35.6 25.2 Q 41.5 29.0 43.8 22.4 L 49.4 5.9 Q 50.0 4.0 50.0 4.0 Z" fill="#D9B36C"/></g></g><text x="330" y="500" font-family="'Radio Canada', 'Helvetica Neue', Arial, sans-serif" font-size="13" fill="#6B7280" text-anchor="middle">avatar ring 19.2</text><rect x="450" y="48" width="200" height="200" fill="#FFFFFF" stroke="#D9DEE5"/><g transform="translate(460,58) scale(1.8)"><circle cx="50" cy="50" r="43" fill="none" stroke="#17324D" stroke-width="3.6"/><g transform="translate(19,22.1) scale(0.62)"><path d="M 50.0 4.0 Q 50.0 4.0 50.6 5.9 L 56.2 22.4 Q 58.5 29.0 64.4 25.2 L 80.3 15.1 Q 82.0 14.0 81.6 15.9 L 78.1 31.2 Q 76.5 38.0 82.2 39.7 L 88.1 41.4 Q 90.0 42.0 88.4 43.2 L 76.4 52.2 Q 70.0 57.0 62.9 57.8 L 56.0 58.6 Q 53.0 59.0 52.8 60.7 L 52.6 62.0 Q 52.5 63.0 52.5 64.0 L 52.0 84.5 Q 52.0 86.0 50.5 86.0 L 49.5 86.0 Q 48.0 86.0 48.0 84.5 L 47.5 64.0 Q 47.5 63.0 47.4 62.0 L 47.2 60.7 Q 47.0 59.0 44.0 58.6 L 37.1 57.8 Q 30.0 57.0 23.6 52.2 L 11.6 43.2 Q 10.0 42.0 11.9 41.4 L 17.8 39.7 Q 23.5 38.0 21.9 31.2 L 18.4 15.9 Q 18.0 14.0 19.7 15.1 L 35.6 25.2 Q 41.5 29.0 43.8 22.4 L 49.4 5.9 Q 50.0 4.0 50.0 4.0 Z" fill="#7A263A"/></g></g><text x="550" y="266" font-family="'Radio Canada', 'Helvetica Neue', Arial, sans-serif" font-size="14" fill="#17324D" text-anchor="middle">3.6  (−35%)</text><g transform="translate(450,282) scale(0.390625)"><rect width="512" height="512" fill="#17324D"/><circle cx="256" cy="256" r="196" fill="none" stroke="#F7F4EE" stroke-width="15.6"/><g transform="translate(111,125.5) scale(2.9)"><path d="M 50.0 4.0 Q 50.0 4.0 50.6 5.9 L 56.2 22.4 Q 58.5 29.0 64.4 25.2 L 80.3 15.1 Q 82.0 14.0 81.6 15.9 L 78.1 31.2 Q 76.5 38.0 82.2 39.7 L 88.1 41.4 Q 90.0 42.0 88.4 43.2 L 76.4 52.2 Q 70.0 57.0 62.9 57.8 L 56.0 58.6 Q 53.0 59.0 52.8 60.7 L 52.6 62.0 Q 52.5 63.0 52.5 64.0 L 52.0 84.5 Q 52.0 86.0 50.5 86.0 L 49.5 86.0 Q 48.0 86.0 48.0 84.5 L 47.5 64.0 Q 47.5 63.0 47.4 62.0 L 47.2 60.7 Q 47.0 59.0 44.0 58.6 L 37.1 57.8 Q 30.0 57.0 23.6 52.2 L 11.6 43.2 Q 10.0 42.0 11.9 41.4 L 17.8 39.7 Q 23.5 38.0 21.9 31.2 L 18.4 15.9 Q 18.0 14.0 19.7 15.1 L 35.6 25.2 Q 41.5 29.0 43.8 22.4 L 49.4 5.9 Q 50.0 4.0 50.0 4.0 Z" fill="#D9B36C"/></g></g><text x="550" y="500" font-family="'Radio Canada', 'Helvetica Neue', Arial, sans-serif" font-size="13" fill="#6B7280" text-anchor="middle">avatar ring 15.6</text><g transform="translate(40,530) scale(0.48)"><circle cx="50" cy="50" r="43" fill="none" stroke="#17324D" stroke-width="5.5"/><g transform="translate(19,22.1) scale(0.62)"><path d="M 50.0 4.0 Q 50.0 4.0 50.6 5.9 L 56.2 22.4 Q 58.5 29.0 64.4 25.2 L 80.3 15.1 Q 82.0 14.0 81.6 15.9 L 78.1 31.2 Q 76.5 38.0 82.2 39.7 L 88.1 41.4 Q 90.0 42.0 88.4 43.2 L 76.4 52.2 Q 70.0 57.0 62.9 57.8 L 56.0 58.6 Q 53.0 59.0 52.8 60.7 L 52.6 62.0 Q 52.5 63.0 52.5 64.0 L 52.0 84.5 Q 52.0 86.0 50.5 86.0 L 49.5 86.0 Q 48.0 86.0 48.0 84.5 L 47.5 64.0 Q 47.5 63.0 47.4 62.0 L 47.2 60.7 Q 47.0 59.0 44.0 58.6 L 37.1 57.8 Q 30.0 57.0 23.6 52.2 L 11.6 43.2 Q 10.0 42.0 11.9 41.4 L 17.8 39.7 Q 23.5 38.0 21.9 31.2 L 18.4 15.9 Q 18.0 14.0 19.7 15.1 L 35.6 25.2 Q 41.5 29.0 43.8 22.4 L 49.4 5.9 Q 50.0 4.0 50.0 4.0 Z" fill="#7A263A"/></g></g><g transform="translate(100,542) scale(0.36)"><circle cx="50" cy="50" r="43" fill="none" stroke="#17324D" stroke-width="5.5"/><g transform="translate(19,22.1) scale(0.62)"><path d="M 50.0 4.0 Q 50.0 4.0 50.6 5.9 L 56.2 22.4 Q 58.5 29.0 64.4 25.2 L 80.3 15.1 Q 82.0 14.0 81.6 15.9 L 78.1 31.2 Q 76.5 38.0 82.2 39.7 L 88.1 41.4 Q 90.0 42.0 88.4 43.2 L 76.4 52.2 Q 70.0 57.0 62.9 57.8 L 56.0 58.6 Q 53.0 59.0 52.8 60.7 L 52.6 62.0 Q 52.5 63.0 52.5 64.0 L 52.0 84.5 Q 52.0 86.0 50.5 86.0 L 49.5 86.0 Q 48.0 86.0 48.0 84.5 L 47.5 64.0 Q 47.5 63.0 47.4 62.0 L 47.2 60.7 Q 47.0 59.0 44.0 58.6 L 37.1 57.8 Q 30.0 57.0 23.6 52.2 L 11.6 43.2 Q 10.0 42.0 11.9 41.4 L 17.8 39.7 Q 23.5 38.0 21.9 31.2 L 18.4 15.9 Q 18.0 14.0 19.7 15.1 L 35.6 25.2 Q 41.5 29.0 43.8 22.4 L 49.4 5.9 Q 50.0 4.0 50.0 4.0 Z" fill="#7A263A"/></g></g><g transform="translate(145,548) scale(0.24)"><circle cx="50" cy="50" r="43" fill="none" stroke="#17324D" stroke-width="5.5"/><g transform="translate(19,22.1) scale(0.62)"><path d="M 50.0 4.0 Q 50.0 4.0 50.6 5.9 L 56.2 22.4 Q 58.5 29.0 64.4 25.2 L 80.3 15.1 Q 82.0 14.0 81.6 15.9 L 78.1 31.2 Q 76.5 38.0 82.2 39.7 L 88.1 41.4 Q 90.0 42.0 88.4 43.2 L 76.4 52.2 Q 70.0 57.0 62.9 57.8 L 56.0 58.6 Q 53.0 59.0 52.8 60.7 L 52.6 62.0 Q 52.5 63.0 52.5 64.0 L 52.0 84.5 Q 52.0 86.0 50.5 86.0 L 49.5 86.0 Q 48.0 86.0 48.0 84.5 L 47.5 64.0 Q 47.5 63.0 47.4 62.0 L 47.2 60.7 Q 47.0 59.0 44.0 58.6 L 37.1 57.8 Q 30.0 57.0 23.6 52.2 L 11.6 43.2 Q 10.0 42.0 11.9 41.4 L 17.8 39.7 Q 23.5 38.0 21.9 31.2 L 18.4 15.9 Q 18.0 14.0 19.7 15.1 L 35.6 25.2 Q 41.5 29.0 43.8 22.4 L 49.4 5.9 Q 50.0 4.0 50.0 4.0 Z" fill="#7A263A"/></g></g><text x="110" y="600" font-family="'Radio Canada', 'Helvetica Neue', Arial, sans-serif" font-size="12" fill="#6B7280" text-anchor="middle">48 / 36 / 24 px</text><g transform="translate(260,530) scale(0.48)"><circle cx="50" cy="50" r="43" fill="none" stroke="#17324D" stroke-width="4.4"/><g transform="translate(19,22.1) scale(0.62)"><path d="M 50.0 4.0 Q 50.0 4.0 50.6 5.9 L 56.2 22.4 Q 58.5 29.0 64.4 25.2 L 80.3 15.1 Q 82.0 14.0 81.6 15.9 L 78.1 31.2 Q 76.5 38.0 82.2 39.7 L 88.1 41.4 Q 90.0 42.0 88.4 43.2 L 76.4 52.2 Q 70.0 57.0 62.9 57.8 L 56.0 58.6 Q 53.0 59.0 52.8 60.7 L 52.6 62.0 Q 52.5 63.0 52.5 64.0 L 52.0 84.5 Q 52.0 86.0 50.5 86.0 L 49.5 86.0 Q 48.0 86.0 48.0 84.5 L 47.5 64.0 Q 47.5 63.0 47.4 62.0 L 47.2 60.7 Q 47.0 59.0 44.0 58.6 L 37.1 57.8 Q 30.0 57.0 23.6 52.2 L 11.6 43.2 Q 10.0 42.0 11.9 41.4 L 17.8 39.7 Q 23.5 38.0 21.9 31.2 L 18.4 15.9 Q 18.0 14.0 19.7 15.1 L 35.6 25.2 Q 41.5 29.0 43.8 22.4 L 49.4 5.9 Q 50.0 4.0 50.0 4.0 Z" fill="#7A263A"/></g></g><g transform="translate(320,542) scale(0.36)"><circle cx="50" cy="50" r="43" fill="none" stroke="#17324D" stroke-width="4.4"/><g transform="translate(19,22.1) scale(0.62)"><path d="M 50.0 4.0 Q 50.0 4.0 50.6 5.9 L 56.2 22.4 Q 58.5 29.0 64.4 25.2 L 80.3 15.1 Q 82.0 14.0 81.6 15.9 L 78.1 31.2 Q 76.5 38.0 82.2 39.7 L 88.1 41.4 Q 90.0 42.0 88.4 43.2 L 76.4 52.2 Q 70.0 57.0 62.9 57.8 L 56.0 58.6 Q 53.0 59.0 52.8 60.7 L 52.6 62.0 Q 52.5 63.0 52.5 64.0 L 52.0 84.5 Q 52.0 86.0 50.5 86.0 L 49.5 86.0 Q 48.0 86.0 48.0 84.5 L 47.5 64.0 Q 47.5 63.0 47.4 62.0 L 47.2 60.7 Q 47.0 59.0 44.0 58.6 L 37.1 57.8 Q 30.0 57.0 23.6 52.2 L 11.6 43.2 Q 10.0 42.0 11.9 41.4 L 17.8 39.7 Q 23.5 38.0 21.9 31.2 L 18.4 15.9 Q 18.0 14.0 19.7 15.1 L 35.6 25.2 Q 41.5 29.0 43.8 22.4 L 49.4 5.9 Q 50.0 4.0 50.0 4.0 Z" fill="#7A263A"/></g></g><g transform="translate(365,548) scale(0.24)"><circle cx="50" cy="50" r="43" fill="none" stroke="#17324D" stroke-width="4.4"/><g transform="translate(19,22.1) scale(0.62)"><path d="M 50.0 4.0 Q 50.0 4.0 50.6 5.9 L 56.2 22.4 Q 58.5 29.0 64.4 25.2 L 80.3 15.1 Q 82.0 14.0 81.6 15.9 L 78.1 31.2 Q 76.5 38.0 82.2 39.7 L 88.1 41.4 Q 90.0 42.0 88.4 43.2 L 76.4 52.2 Q 70.0 57.0 62.9 57.8 L 56.0 58.6 Q 53.0 59.0 52.8 60.7 L 52.6 62.0 Q 52.5 63.0 52.5 64.0 L 52.0 84.5 Q 52.0 86.0 50.5 86.0 L 49.5 86.0 Q 48.0 86.0 48.0 84.5 L 47.5 64.0 Q 47.5 63.0 47.4 62.0 L 47.2 60.7 Q 47.0 59.0 44.0 58.6 L 37.1 57.8 Q 30.0 57.0 23.6 52.2 L 11.6 43.2 Q 10.0 42.0 11.9 41.4 L 17.8 39.7 Q 23.5 38.0 21.9 31.2 L 18.4 15.9 Q 18.0 14.0 19.7 15.1 L 35.6 25.2 Q 41.5 29.0 43.8 22.4 L 49.4 5.9 Q 50.0 4.0 50.0 4.0 Z" fill="#7A263A"/></g></g><text x="330" y="600" font-family="'Radio Canada', 'Helvetica Neue', Arial, sans-serif" font-size="12" fill="#6B7280" text-anchor="middle">48 / 36 / 24 px</text><g transform="translate(480,530) scale(0.48)"><circle cx="50" cy="50" r="43" fill="none" stroke="#17324D" stroke-width="3.6"/><g transform="translate(19,22.1) scale(0.62)"><path d="M 50.0 4.0 Q 50.0 4.0 50.6 5.9 L 56.2 22.4 Q 58.5 29.0 64.4 25.2 L 80.3 15.1 Q 82.0 14.0 81.6 15.9 L 78.1 31.2 Q 76.5 38.0 82.2 39.7 L 88.1 41.4 Q 90.0 42.0 88.4 43.2 L 76.4 52.2 Q 70.0 57.0 62.9 57.8 L 56.0 58.6 Q 53.0 59.0 52.8 60.7 L 52.6 62.0 Q 52.5 63.0 52.5 64.0 L 52.0 84.5 Q 52.0 86.0 50.5 86.0 L 49.5 86.0 Q 48.0 86.0 48.0 84.5 L 47.5 64.0 Q 47.5 63.0 47.4 62.0 L 47.2 60.7 Q 47.0 59.0 44.0 58.6 L 37.1 57.8 Q 30.0 57.0 23.6 52.2 L 11.6 43.2 Q 10.0 42.0 11.9 41.4 L 17.8 39.7 Q 23.5 38.0 21.9 31.2 L 18.4 15.9 Q 18.0 14.0 19.7 15.1 L 35.6 25.2 Q 41.5 29.0 43.8 22.4 L 49.4 5.9 Q 50.0 4.0 50.0 4.0 Z" fill="#7A263A"/></g></g><g transform="translate(540,542) scale(0.36)"><circle cx="50" cy="50" r="43" fill="none" stroke="#17324D" stroke-width="3.6"/><g transform="translate(19,22.1) scale(0.62)"><path d="M 50.0 4.0 Q 50.0 4.0 50.6 5.9 L 56.2 22.4 Q 58.5 29.0 64.4 25.2 L 80.3 15.1 Q 82.0 14.0 81.6 15.9 L 78.1 31.2 Q 76.5 38.0 82.2 39.7 L 88.1 41.4 Q 90.0 42.0 88.4 43.2 L 76.4 52.2 Q 70.0 57.0 62.9 57.8 L 56.0 58.6 Q 53.0 59.0 52.8 60.7 L 52.6 62.0 Q 52.5 63.0 52.5 64.0 L 52.0 84.5 Q 52.0 86.0 50.5 86.0 L 49.5 86.0 Q 48.0 86.0 48.0 84.5 L 47.5 64.0 Q 47.5 63.0 47.4 62.0 L 47.2 60.7 Q 47.0 59.0 44.0 58.6 L 37.1 57.8 Q 30.0 57.0 23.6 52.2 L 11.6 43.2 Q 10.0 42.0 11.9 41.4 L 17.8 39.7 Q 23.5 38.0 21.9 31.2 L 18.4 15.9 Q 18.0 14.0 19.7 15.1 L 35.6 25.2 Q 41.5 29.0 43.8 22.4 L 49.4 5.9 Q 50.0 4.0 50.0 4.0 Z" fill="#7A263A"/></g></g><g transform="translate(585,548) scale(0.24)"><circle cx="50" cy="50" r="43" fill="none" stroke="#17324D" stroke-width="3.6"/><g transform="translate(19,22.1) scale(0.62)"><path d="M 50.0 4.0 Q 50.0 4.0 50.6 5.9 L 56.2 22.4 Q 58.5 29.0 64.4 25.2 L 80.3 15.1 Q 82.0 14.0 81.6 15.9 L 78.1 31.2 Q 76.5 38.0 82.2 39.7 L 88.1 41.4 Q 90.0 42.0 88.4 43.2 L 76.4 52.2 Q 70.0 57.0 62.9 57.8 L 56.0 58.6 Q 53.0 59.0 52.8 60.7 L 52.6 62.0 Q 52.5 63.0 52.5 64.0 L 52.0 84.5 Q 52.0 86.0 50.5 86.0 L 49.5 86.0 Q 48.0 86.0 48.0 84.5 L 47.5 64.0 Q 47.5 63.0 47.4 62.0 L 47.2 60.7 Q 47.0 59.0 44.0 58.6 L 37.1 57.8 Q 30.0 57.0 23.6 52.2 L 11.6 43.2 Q 10.0 42.0 11.9 41.4 L 17.8 39.7 Q 23.5 38.0 21.9 31.2 L 18.4 15.9 Q 18.0 14.0 19.7 15.1 L 35.6 25.2 Q 41.5 29.0 43.8 22.4 L 49.4 5.9 Q 50.0 4.0 50.0 4.0 Z" fill="#7A263A"/></g></g><text x="550" y="600" font-family="'Radio Canada', 'Helvetica Neue', Arial, sans-serif" font-size="12" fill="#6B7280" text-anchor="middle">48 / 36 / 24 px</text><text x="330" y="640" font-family="'Radio Canada', 'Helvetica Neue', Arial, sans-serif" font-size="12" fill="#6B7280" text-anchor="middle">Same leaf, same geometry — only the ring stroke changes. Avatar column uses its own proportional weights.</text></svg>