<svg xmlns="http://www.w3.org/2000/svg" viewBox="0 0 1200 90"><path d="M0 34 C 100 12 200 56 300 34 C 400 12 500 56 600 34 C 700 12 800 56 900 34 C 1000 12 1100 56 1200 34 L1200 90 L0 90 Z" fill="#2A7F9E" opacity="0.2"/><path d="M0 46 C 100 28 200 64 300 46 C 400 28 500 64 600 46 C 700 28 800 64 900 46 C 1000 28 1100 64 1200 46 L1200 90 L0 90 Z" fill="#2A7F9E" opacity="0.45"/><path d="M0 58 C 100 44 200 72 300 58 C 400 44 500 72 600 58 C 700 44 800 72 900 58 C 1000 44 1100 72 1200 58 L1200 90 L0 90 Z" fill="#2A7F9E" opacity="1.0"/></svg>