<?xml version="1.0" encoding="utf-8" standalone="no"?>
<!DOCTYPE svg PUBLIC "-//W3C//DTD SVG 1.1//EN"
  "http://www.w3.org/Graphics/SVG/1.1/DTD/svg11.dtd">
<svg xmlns:xlink="http://www.w3.org/1999/xlink" width="602.89925pt" height="557.712pt" viewBox="0 0 602.89925 557.712" xmlns="http://www.w3.org/2000/svg" version="1.1">
 <metadata>
  <rdf:RDF xmlns:dc="http://purl.org/dc/elements/1.1/" xmlns:cc="http://creativecommons.org/ns#" xmlns:rdf="http://www.w3.org/1999/02/22-rdf-syntax-ns#">
   <cc:Work>
    <dc:type rdf:resource="http://purl.org/dc/dcmitype/StillImage"/>
    <dc:date>2026-06-21T18:39:03.044060</dc:date>
    <dc:format>image/svg+xml</dc:format>
    <dc:creator>
     <cc:Agent>
      <dc:title>Matplotlib v3.8.0, https://matplotlib.org/</dc:title>
     </cc:Agent>
    </dc:creator>
   </cc:Work>
  </rdf:RDF>
 </metadata>
 <defs>
  <style type="text/css">*{stroke-linejoin: round; stroke-linecap: butt}</style>
 </defs>
 <g id="figure_1">
  <g id="patch_1">
   <path d="M 0 557.712 
L 602.89925 557.712 
L 602.89925 0 
L 0 0 
z
" style="fill: #ffffff"/>
  </g>
  <g id="axes_1">
   <g id="patch_2">
    <path d="M 26.2836 78.102216 
L 70.2819 78.102216 
Q 74.5227 78.102216 74.5227 75.928968 
L 74.5227 63.976104 
Q 74.5227 61.802856 70.2819 61.802856 
L 26.2836 61.802856 
Q 22.0428 61.802856 22.0428 63.976104 
L 22.0428 75.928968 
Q 22.0428 78.102216 26.2836 78.102216 
z
" clip-path="url(#p8b2762710d)" style="fill: #7a263a; stroke: #d0d0d0; stroke-width: 0.6; stroke-linejoin: miter"/>
   </g>
   <g id="patch_3">
    <path d="M 26.2836 99.834696 
L 70.2819 99.834696 
Q 74.5227 99.834696 74.5227 97.661448 
L 74.5227 85.708584 
Q 74.5227 83.535336 70.2819 83.535336 
L 26.2836 83.535336 
Q 22.0428 83.535336 22.0428 85.708584 
L 22.0428 97.661448 
Q 22.0428 99.834696 26.2836 99.834696 
z
" clip-path="url(#p8b2762710d)" style="fill: #0650a3; stroke: #d0d0d0; stroke-width: 0.6; stroke-linejoin: miter"/>
   </g>
   <g id="patch_4">
    <path d="M 26.2836 121.567176 
L 70.2819 121.567176 
Q 74.5227 121.567176 74.5227 119.393928 
L 74.5227 107.441064 
Q 74.5227 105.267816 70.2819 105.267816 
L 26.2836 105.267816 
Q 22.0428 105.267816 22.0428 107.441064 
L 22.0428 119.393928 
Q 22.0428 121.567176 26.2836 121.567176 
z
" clip-path="url(#p8b2762710d)" style="fill: #c77109; stroke: #d0d0d0; stroke-width: 0.6; stroke-linejoin: miter"/>
   </g>
   <g id="patch_5">
    <path d="M 26.2836 143.299656 
L 70.2819 143.299656 
Q 74.5227 143.299656 74.5227 141.126408 
L 74.5227 129.173544 
Q 74.5227 127.000296 70.2819 127.000296 
L 26.2836 127.000296 
Q 22.0428 127.000296 22.0428 129.173544 
L 22.0428 141.126408 
Q 22.0428 143.299656 26.2836 143.299656 
z
" clip-path="url(#p8b2762710d)" style="fill: #5c9d6f; stroke: #d0d0d0; stroke-width: 0.6; stroke-linejoin: miter"/>
   </g>
   <g id="patch_6">
    <path d="M 26.2836 165.032136 
L 70.2819 165.032136 
Q 74.5227 165.032136 74.5227 162.858888 
L 74.5227 150.906024 
Q 74.5227 148.732776 70.2819 148.732776 
L 26.2836 148.732776 
Q 22.0428 148.732776 22.0428 150.906024 
L 22.0428 162.858888 
Q 22.0428 165.032136 26.2836 165.032136 
z
" clip-path="url(#p8b2762710d)" style="fill: #b06487; stroke: #d0d0d0; stroke-width: 0.6; stroke-linejoin: miter"/>
   </g>
   <g id="patch_7">
    <path d="M 26.2836 186.764616 
L 70.2819 186.764616 
Q 74.5227 186.764616 74.5227 184.591368 
L 74.5227 172.638504 
Q 74.5227 170.465256 70.2819 170.465256 
L 26.2836 170.465256 
Q 22.0428 170.465256 22.0428 172.638504 
L 22.0428 184.591368 
Q 22.0428 186.764616 26.2836 186.764616 
z
" clip-path="url(#p8b2762710d)" style="fill: #249fd0; stroke: #d0d0d0; stroke-width: 0.6; stroke-linejoin: miter"/>
   </g>
   <g id="patch_8">
    <path d="M 26.2836 208.497096 
L 70.2819 208.497096 
Q 74.5227 208.497096 74.5227 206.323848 
L 74.5227 194.370984 
Q 74.5227 192.197736 70.2819 192.197736 
L 26.2836 192.197736 
Q 22.0428 192.197736 22.0428 194.370984 
L 22.0428 206.323848 
Q 22.0428 208.497096 26.2836 208.497096 
z
" clip-path="url(#p8b2762710d)" style="fill: #8f4708; stroke: #d0d0d0; stroke-width: 0.6; stroke-linejoin: miter"/>
   </g>
   <g id="patch_9">
    <path d="M 26.2836 265.544856 
L 70.2819 265.544856 
Q 74.5227 265.544856 74.5227 263.371608 
L 74.5227 251.418744 
Q 74.5227 249.245496 70.2819 249.245496 
L 26.2836 249.245496 
Q 22.0428 249.245496 22.0428 251.418744 
L 22.0428 263.371608 
Q 22.0428 265.544856 26.2836 265.544856 
z
" clip-path="url(#p8b2762710d)" style="fill: #459f83; stroke: #d0d0d0; stroke-width: 0.6; stroke-linejoin: miter"/>
   </g>
   <g id="patch_10">
    <path d="M 26.2836 285.6474 
L 70.2819 285.6474 
Q 74.5227 285.6474 74.5227 283.474152 
L 74.5227 271.521288 
Q 74.5227 269.34804 70.2819 269.34804 
L 26.2836 269.34804 
Q 22.0428 269.34804 22.0428 271.521288 
L 22.0428 283.474152 
Q 22.0428 285.6474 26.2836 285.6474 
z
" clip-path="url(#p8b2762710d)" style="fill: #89507d; stroke: #d0d0d0; stroke-width: 0.6; stroke-linejoin: miter"/>
   </g>
   <g id="patch_11">
    <path d="M 26.2836 305.749944 
L 70.2819 305.749944 
Q 74.5227 305.749944 74.5227 303.576696 
L 74.5227 291.623832 
Q 74.5227 289.450584 70.2819 289.450584 
L 26.2836 289.450584 
Q 22.0428 289.450584 22.0428 291.623832 
L 22.0428 303.576696 
Q 22.0428 305.749944 26.2836 305.749944 
z
" clip-path="url(#p8b2762710d)" style="fill: #187ed5; stroke: #d0d0d0; stroke-width: 0.6; stroke-linejoin: miter"/>
   </g>
   <g id="patch_12">
    <path d="M 26.2836 325.852488 
L 70.2819 325.852488 
Q 74.5227 325.852488 74.5227 323.67924 
L 74.5227 311.726376 
Q 74.5227 309.553128 70.2819 309.553128 
L 26.2836 309.553128 
Q 22.0428 309.553128 22.0428 311.726376 
L 22.0428 323.67924 
Q 22.0428 325.852488 26.2836 325.852488 
z
" clip-path="url(#p8b2762710d)" style="fill: #7b6700; stroke: #d0d0d0; stroke-width: 0.6; stroke-linejoin: miter"/>
   </g>
   <g id="patch_13">
    <path d="M 26.2836 345.955032 
L 70.2819 345.955032 
Q 74.5227 345.955032 74.5227 343.781784 
L 74.5227 331.82892 
Q 74.5227 329.655672 70.2819 329.655672 
L 26.2836 329.655672 
Q 22.0428 329.655672 22.0428 331.82892 
L 22.0428 343.781784 
Q 22.0428 345.955032 26.2836 345.955032 
z
" clip-path="url(#p8b2762710d)" style="fill: #b3704f; stroke: #d0d0d0; stroke-width: 0.6; stroke-linejoin: miter"/>
   </g>
   <g id="patch_14">
    <path d="M 26.2836 366.057576 
L 70.2819 366.057576 
Q 74.5227 366.057576 74.5227 363.884328 
L 74.5227 351.931464 
Q 74.5227 349.758216 70.2819 349.758216 
L 26.2836 349.758216 
Q 22.0428 349.758216 22.0428 351.931464 
L 22.0428 363.884328 
Q 22.0428 366.057576 26.2836 366.057576 
z
" clip-path="url(#p8b2762710d)" style="fill: #9d76b3; stroke: #d0d0d0; stroke-width: 0.6; stroke-linejoin: miter"/>
   </g>
   <g id="patch_15">
    <path d="M 26.2836 386.16012 
L 70.2819 386.16012 
Q 74.5227 386.16012 74.5227 383.986872 
L 74.5227 372.034008 
Q 74.5227 369.86076 70.2819 369.86076 
L 26.2836 369.86076 
Q 22.0428 369.86076 22.0428 372.034008 
L 22.0428 383.986872 
Q 22.0428 386.16012 26.2836 386.16012 
z
" clip-path="url(#p8b2762710d)" style="fill: #667c35; stroke: #d0d0d0; stroke-width: 0.6; stroke-linejoin: miter"/>
   </g>
   <g id="patch_16">
    <path d="M 26.2836 406.262664 
L 70.2819 406.262664 
Q 74.5227 406.262664 74.5227 404.089416 
L 74.5227 392.136552 
Q 74.5227 389.963304 70.2819 389.963304 
L 26.2836 389.963304 
Q 22.0428 389.963304 22.0428 392.136552 
L 22.0428 404.089416 
Q 22.0428 406.262664 26.2836 406.262664 
z
" clip-path="url(#p8b2762710d)" style="fill: #aa9252; stroke: #d0d0d0; stroke-width: 0.6; stroke-linejoin: miter"/>
   </g>
   <g id="patch_17">
    <path d="M 26.2836 426.365208 
L 70.2819 426.365208 
Q 74.5227 426.365208 74.5227 424.19196 
L 74.5227 412.239096 
Q 74.5227 410.065848 70.2819 410.065848 
L 26.2836 410.065848 
Q 22.0428 410.065848 22.0428 412.239096 
L 22.0428 424.19196 
Q 22.0428 426.365208 26.2836 426.365208 
z
" clip-path="url(#p8b2762710d)" style="fill: #685ea6; stroke: #d0d0d0; stroke-width: 0.6; stroke-linejoin: miter"/>
   </g>
   <g id="patch_18">
    <path d="M 26.2836 446.467752 
L 70.2819 446.467752 
Q 74.5227 446.467752 74.5227 444.294504 
L 74.5227 432.34164 
Q 74.5227 430.168392 70.2819 430.168392 
L 26.2836 430.168392 
Q 22.0428 430.168392 22.0428 432.34164 
L 22.0428 444.294504 
Q 22.0428 446.467752 26.2836 446.467752 
z
" clip-path="url(#p8b2762710d)" style="fill: #14753c; stroke: #d0d0d0; stroke-width: 0.6; stroke-linejoin: miter"/>
   </g>
   <g id="text_1">
    <!-- Canada Observatory — comparator country colours -->
    <g style="fill: #17324d" transform="translate(23.103 23.49936) scale(0.15 -0.15)">
     <defs>
      <path id="DejaVuSans-Bold-43" d="M 4288 256 
Q 3956 84 3597 -3 
Q 3238 -91 2847 -91 
Q 1681 -91 1000 561 
Q 319 1213 319 2328 
Q 319 3447 1000 4098 
Q 1681 4750 2847 4750 
Q 3238 4750 3597 4662 
Q 3956 4575 4288 4403 
L 4288 3438 
Q 3953 3666 3628 3772 
Q 3303 3878 2944 3878 
Q 2300 3878 1931 3465 
Q 1563 3053 1563 2328 
Q 1563 1606 1931 1193 
Q 2300 781 2944 781 
Q 3303 781 3628 887 
Q 3953 994 4288 1222 
L 4288 256 
z
" transform="scale(0.015625)"/>
      <path id="DejaVuSans-Bold-61" d="M 2106 1575 
Q 1756 1575 1579 1456 
Q 1403 1338 1403 1106 
Q 1403 894 1545 773 
Q 1688 653 1941 653 
Q 2256 653 2472 879 
Q 2688 1106 2688 1447 
L 2688 1575 
L 2106 1575 
z
M 3816 1997 
L 3816 0 
L 2688 0 
L 2688 519 
Q 2463 200 2181 54 
Q 1900 -91 1497 -91 
Q 953 -91 614 226 
Q 275 544 275 1050 
Q 275 1666 698 1953 
Q 1122 2241 2028 2241 
L 2688 2241 
L 2688 2328 
Q 2688 2594 2478 2717 
Q 2269 2841 1825 2841 
Q 1466 2841 1156 2769 
Q 847 2697 581 2553 
L 581 3406 
Q 941 3494 1303 3539 
Q 1666 3584 2028 3584 
Q 2975 3584 3395 3211 
Q 3816 2838 3816 1997 
z
" transform="scale(0.015625)"/>
      <path id="DejaVuSans-Bold-6e" d="M 4056 2131 
L 4056 0 
L 2931 0 
L 2931 347 
L 2931 1631 
Q 2931 2084 2911 2256 
Q 2891 2428 2841 2509 
Q 2775 2619 2662 2680 
Q 2550 2741 2406 2741 
Q 2056 2741 1856 2470 
Q 1656 2200 1656 1722 
L 1656 0 
L 538 0 
L 538 3500 
L 1656 3500 
L 1656 2988 
Q 1909 3294 2193 3439 
Q 2478 3584 2822 3584 
Q 3428 3584 3742 3212 
Q 4056 2841 4056 2131 
z
" transform="scale(0.015625)"/>
      <path id="DejaVuSans-Bold-64" d="M 2919 2988 
L 2919 4863 
L 4044 4863 
L 4044 0 
L 2919 0 
L 2919 506 
Q 2688 197 2409 53 
Q 2131 -91 1766 -91 
Q 1119 -91 703 423 
Q 288 938 288 1747 
Q 288 2556 703 3070 
Q 1119 3584 1766 3584 
Q 2128 3584 2408 3439 
Q 2688 3294 2919 2988 
z
M 2181 722 
Q 2541 722 2730 984 
Q 2919 1247 2919 1747 
Q 2919 2247 2730 2509 
Q 2541 2772 2181 2772 
Q 1825 2772 1636 2509 
Q 1447 2247 1447 1747 
Q 1447 1247 1636 984 
Q 1825 722 2181 722 
z
" transform="scale(0.015625)"/>
      <path id="DejaVuSans-Bold-20" transform="scale(0.015625)"/>
      <path id="DejaVuSans-Bold-4f" d="M 2719 3878 
Q 2169 3878 1866 3472 
Q 1563 3066 1563 2328 
Q 1563 1594 1866 1187 
Q 2169 781 2719 781 
Q 3272 781 3575 1187 
Q 3878 1594 3878 2328 
Q 3878 3066 3575 3472 
Q 3272 3878 2719 3878 
z
M 2719 4750 
Q 3844 4750 4481 4106 
Q 5119 3463 5119 2328 
Q 5119 1197 4481 553 
Q 3844 -91 2719 -91 
Q 1597 -91 958 553 
Q 319 1197 319 2328 
Q 319 3463 958 4106 
Q 1597 4750 2719 4750 
z
" transform="scale(0.015625)"/>
      <path id="DejaVuSans-Bold-62" d="M 2400 722 
Q 2759 722 2948 984 
Q 3138 1247 3138 1747 
Q 3138 2247 2948 2509 
Q 2759 2772 2400 2772 
Q 2041 2772 1848 2508 
Q 1656 2244 1656 1747 
Q 1656 1250 1848 986 
Q 2041 722 2400 722 
z
M 1656 2988 
Q 1888 3294 2169 3439 
Q 2450 3584 2816 3584 
Q 3463 3584 3878 3070 
Q 4294 2556 4294 1747 
Q 4294 938 3878 423 
Q 3463 -91 2816 -91 
Q 2450 -91 2169 54 
Q 1888 200 1656 506 
L 1656 0 
L 538 0 
L 538 4863 
L 1656 4863 
L 1656 2988 
z
" transform="scale(0.015625)"/>
      <path id="DejaVuSans-Bold-73" d="M 3272 3391 
L 3272 2541 
Q 2913 2691 2578 2766 
Q 2244 2841 1947 2841 
Q 1628 2841 1473 2761 
Q 1319 2681 1319 2516 
Q 1319 2381 1436 2309 
Q 1553 2238 1856 2203 
L 2053 2175 
Q 2913 2066 3209 1816 
Q 3506 1566 3506 1031 
Q 3506 472 3093 190 
Q 2681 -91 1863 -91 
Q 1516 -91 1145 -36 
Q 775 19 384 128 
L 384 978 
Q 719 816 1070 734 
Q 1422 653 1784 653 
Q 2113 653 2278 743 
Q 2444 834 2444 1013 
Q 2444 1163 2330 1236 
Q 2216 1309 1875 1350 
L 1678 1375 
Q 931 1469 631 1722 
Q 331 1975 331 2491 
Q 331 3047 712 3315 
Q 1094 3584 1881 3584 
Q 2191 3584 2531 3537 
Q 2872 3491 3272 3391 
z
" transform="scale(0.015625)"/>
      <path id="DejaVuSans-Bold-65" d="M 4031 1759 
L 4031 1441 
L 1416 1441 
Q 1456 1047 1700 850 
Q 1944 653 2381 653 
Q 2734 653 3104 758 
Q 3475 863 3866 1075 
L 3866 213 
Q 3469 63 3072 -14 
Q 2675 -91 2278 -91 
Q 1328 -91 801 392 
Q 275 875 275 1747 
Q 275 2603 792 3093 
Q 1309 3584 2216 3584 
Q 3041 3584 3536 3087 
Q 4031 2591 4031 1759 
z
M 2881 2131 
Q 2881 2450 2695 2645 
Q 2509 2841 2209 2841 
Q 1884 2841 1681 2658 
Q 1478 2475 1428 2131 
L 2881 2131 
z
" transform="scale(0.015625)"/>
      <path id="DejaVuSans-Bold-72" d="M 3138 2547 
Q 2991 2616 2845 2648 
Q 2700 2681 2553 2681 
Q 2122 2681 1889 2404 
Q 1656 2128 1656 1613 
L 1656 0 
L 538 0 
L 538 3500 
L 1656 3500 
L 1656 2925 
Q 1872 3269 2151 3426 
Q 2431 3584 2822 3584 
Q 2878 3584 2943 3579 
Q 3009 3575 3134 3559 
L 3138 2547 
z
" transform="scale(0.015625)"/>
      <path id="DejaVuSans-Bold-76" d="M 97 3500 
L 1216 3500 
L 2088 1081 
L 2956 3500 
L 4078 3500 
L 2700 0 
L 1472 0 
L 97 3500 
z
" transform="scale(0.015625)"/>
      <path id="DejaVuSans-Bold-74" d="M 1759 4494 
L 1759 3500 
L 2913 3500 
L 2913 2700 
L 1759 2700 
L 1759 1216 
Q 1759 972 1856 886 
Q 1953 800 2241 800 
L 2816 800 
L 2816 0 
L 1856 0 
Q 1194 0 917 276 
Q 641 553 641 1216 
L 641 2700 
L 84 2700 
L 84 3500 
L 641 3500 
L 641 4494 
L 1759 4494 
z
" transform="scale(0.015625)"/>
      <path id="DejaVuSans-Bold-6f" d="M 2203 2784 
Q 1831 2784 1636 2517 
Q 1441 2250 1441 1747 
Q 1441 1244 1636 976 
Q 1831 709 2203 709 
Q 2569 709 2762 976 
Q 2956 1244 2956 1747 
Q 2956 2250 2762 2517 
Q 2569 2784 2203 2784 
z
M 2203 3584 
Q 3106 3584 3614 3096 
Q 4122 2609 4122 1747 
Q 4122 884 3614 396 
Q 3106 -91 2203 -91 
Q 1297 -91 786 396 
Q 275 884 275 1747 
Q 275 2609 786 3096 
Q 1297 3584 2203 3584 
z
" transform="scale(0.015625)"/>
      <path id="DejaVuSans-Bold-79" d="M 78 3500 
L 1197 3500 
L 2138 1125 
L 2938 3500 
L 4056 3500 
L 2584 -331 
Q 2363 -916 2067 -1148 
Q 1772 -1381 1288 -1381 
L 641 -1381 
L 641 -647 
L 991 -647 
Q 1275 -647 1404 -556 
Q 1534 -466 1606 -231 
L 1638 -134 
L 78 3500 
z
" transform="scale(0.015625)"/>
      <path id="DejaVuSans-Bold-2014" d="M 344 2156 
L 6056 2156 
L 6056 1350 
L 344 1350 
L 344 2156 
z
" transform="scale(0.015625)"/>
      <path id="DejaVuSans-Bold-63" d="M 3366 3391 
L 3366 2478 
Q 3138 2634 2908 2709 
Q 2678 2784 2431 2784 
Q 1963 2784 1702 2511 
Q 1441 2238 1441 1747 
Q 1441 1256 1702 982 
Q 1963 709 2431 709 
Q 2694 709 2930 787 
Q 3166 866 3366 1019 
L 3366 103 
Q 3103 6 2833 -42 
Q 2563 -91 2291 -91 
Q 1344 -91 809 395 
Q 275 881 275 1747 
Q 275 2613 809 3098 
Q 1344 3584 2291 3584 
Q 2566 3584 2833 3536 
Q 3100 3488 3366 3391 
z
" transform="scale(0.015625)"/>
      <path id="DejaVuSans-Bold-6d" d="M 3781 2919 
Q 3994 3244 4286 3414 
Q 4578 3584 4928 3584 
Q 5531 3584 5847 3212 
Q 6163 2841 6163 2131 
L 6163 0 
L 5038 0 
L 5038 1825 
Q 5041 1866 5042 1909 
Q 5044 1953 5044 2034 
Q 5044 2406 4934 2573 
Q 4825 2741 4581 2741 
Q 4263 2741 4089 2478 
Q 3916 2216 3909 1719 
L 3909 0 
L 2784 0 
L 2784 1825 
Q 2784 2406 2684 2573 
Q 2584 2741 2328 2741 
Q 2006 2741 1831 2477 
Q 1656 2213 1656 1722 
L 1656 0 
L 531 0 
L 531 3500 
L 1656 3500 
L 1656 2988 
Q 1863 3284 2130 3434 
Q 2397 3584 2719 3584 
Q 3081 3584 3359 3409 
Q 3638 3234 3781 2919 
z
" transform="scale(0.015625)"/>
      <path id="DejaVuSans-Bold-70" d="M 1656 506 
L 1656 -1331 
L 538 -1331 
L 538 3500 
L 1656 3500 
L 1656 2988 
Q 1888 3294 2169 3439 
Q 2450 3584 2816 3584 
Q 3463 3584 3878 3070 
Q 4294 2556 4294 1747 
Q 4294 938 3878 423 
Q 3463 -91 2816 -91 
Q 2450 -91 2169 54 
Q 1888 200 1656 506 
z
M 2400 2772 
Q 2041 2772 1848 2508 
Q 1656 2244 1656 1747 
Q 1656 1250 1848 986 
Q 2041 722 2400 722 
Q 2759 722 2948 984 
Q 3138 1247 3138 1747 
Q 3138 2247 2948 2509 
Q 2759 2772 2400 2772 
z
" transform="scale(0.015625)"/>
      <path id="DejaVuSans-Bold-75" d="M 500 1363 
L 500 3500 
L 1625 3500 
L 1625 3150 
Q 1625 2866 1622 2436 
Q 1619 2006 1619 1863 
Q 1619 1441 1641 1255 
Q 1663 1069 1716 984 
Q 1784 875 1895 815 
Q 2006 756 2150 756 
Q 2500 756 2700 1025 
Q 2900 1294 2900 1772 
L 2900 3500 
L 4019 3500 
L 4019 0 
L 2900 0 
L 2900 506 
Q 2647 200 2364 54 
Q 2081 -91 1741 -91 
Q 1134 -91 817 281 
Q 500 653 500 1363 
z
" transform="scale(0.015625)"/>
      <path id="DejaVuSans-Bold-6c" d="M 538 4863 
L 1656 4863 
L 1656 0 
L 538 0 
L 538 4863 
z
" transform="scale(0.015625)"/>
     </defs>
     <use xlink:href="#DejaVuSans-Bold-43"/>
     <use xlink:href="#DejaVuSans-Bold-61" x="73.388672"/>
     <use xlink:href="#DejaVuSans-Bold-6e" x="140.869141"/>
     <use xlink:href="#DejaVuSans-Bold-61" x="212.060547"/>
     <use xlink:href="#DejaVuSans-Bold-64" x="279.541016"/>
     <use xlink:href="#DejaVuSans-Bold-61" x="351.123047"/>
     <use xlink:href="#DejaVuSans-Bold-20" x="418.603516"/>
     <use xlink:href="#DejaVuSans-Bold-4f" x="453.417969"/>
     <use xlink:href="#DejaVuSans-Bold-62" x="538.427734"/>
     <use xlink:href="#DejaVuSans-Bold-73" x="610.009766"/>
     <use xlink:href="#DejaVuSans-Bold-65" x="669.53125"/>
     <use xlink:href="#DejaVuSans-Bold-72" x="737.353516"/>
     <use xlink:href="#DejaVuSans-Bold-76" x="786.669922"/>
     <use xlink:href="#DejaVuSans-Bold-61" x="851.855469"/>
     <use xlink:href="#DejaVuSans-Bold-74" x="919.335938"/>
     <use xlink:href="#DejaVuSans-Bold-6f" x="967.138672"/>
     <use xlink:href="#DejaVuSans-Bold-72" x="1035.839844"/>
     <use xlink:href="#DejaVuSans-Bold-79" x="1085.15625"/>
     <use xlink:href="#DejaVuSans-Bold-20" x="1150.341797"/>
     <use xlink:href="#DejaVuSans-Bold-2014" x="1185.15625"/>
     <use xlink:href="#DejaVuSans-Bold-20" x="1285.15625"/>
     <use xlink:href="#DejaVuSans-Bold-63" x="1319.970703"/>
     <use xlink:href="#DejaVuSans-Bold-6f" x="1379.248047"/>
     <use xlink:href="#DejaVuSans-Bold-6d" x="1447.949219"/>
     <use xlink:href="#DejaVuSans-Bold-70" x="1552.148438"/>
     <use xlink:href="#DejaVuSans-Bold-61" x="1623.730469"/>
     <use xlink:href="#DejaVuSans-Bold-72" x="1691.210938"/>
     <use xlink:href="#DejaVuSans-Bold-61" x="1740.527344"/>
     <use xlink:href="#DejaVuSans-Bold-74" x="1808.007812"/>
     <use xlink:href="#DejaVuSans-Bold-6f" x="1855.810547"/>
     <use xlink:href="#DejaVuSans-Bold-72" x="1924.511719"/>
     <use xlink:href="#DejaVuSans-Bold-20" x="1973.828125"/>
     <use xlink:href="#DejaVuSans-Bold-63" x="2008.642578"/>
     <use xlink:href="#DejaVuSans-Bold-6f" x="2067.919922"/>
     <use xlink:href="#DejaVuSans-Bold-75" x="2136.621094"/>
     <use xlink:href="#DejaVuSans-Bold-6e" x="2207.8125"/>
     <use xlink:href="#DejaVuSans-Bold-74" x="2279.003906"/>
     <use xlink:href="#DejaVuSans-Bold-72" x="2326.806641"/>
     <use xlink:href="#DejaVuSans-Bold-79" x="2376.123047"/>
     <use xlink:href="#DejaVuSans-Bold-20" x="2441.308594"/>
     <use xlink:href="#DejaVuSans-Bold-63" x="2476.123047"/>
     <use xlink:href="#DejaVuSans-Bold-6f" x="2535.400391"/>
     <use xlink:href="#DejaVuSans-Bold-6c" x="2604.101562"/>
     <use xlink:href="#DejaVuSans-Bold-6f" x="2638.378906"/>
     <use xlink:href="#DejaVuSans-Bold-75" x="2707.080078"/>
     <use xlink:href="#DejaVuSans-Bold-72" x="2778.271484"/>
     <use xlink:href="#DejaVuSans-Bold-73" x="2827.587891"/>
    </g>
   </g>
   <g id="text_2">
    <!-- Canada + key comparators incl. Japan  (always shown in colour) -->
    <g style="fill: #7a263a" transform="translate(23.103 47.9484) scale(0.11 -0.11)">
     <defs>
      <path id="DejaVuSans-Bold-2b" d="M 3053 4013 
L 3053 2375 
L 4684 2375 
L 4684 1638 
L 3053 1638 
L 3053 0 
L 2309 0 
L 2309 1638 
L 678 1638 
L 678 2375 
L 2309 2375 
L 2309 4013 
L 3053 4013 
z
" transform="scale(0.015625)"/>
      <path id="DejaVuSans-Bold-6b" d="M 538 4863 
L 1656 4863 
L 1656 2216 
L 2944 3500 
L 4244 3500 
L 2534 1894 
L 4378 0 
L 3022 0 
L 1656 1459 
L 1656 0 
L 538 0 
L 538 4863 
z
" transform="scale(0.015625)"/>
      <path id="DejaVuSans-Bold-69" d="M 538 3500 
L 1656 3500 
L 1656 0 
L 538 0 
L 538 3500 
z
M 538 4863 
L 1656 4863 
L 1656 3950 
L 538 3950 
L 538 4863 
z
" transform="scale(0.015625)"/>
      <path id="DejaVuSans-Bold-2e" d="M 653 1209 
L 1778 1209 
L 1778 0 
L 653 0 
L 653 1209 
z
" transform="scale(0.015625)"/>
      <path id="DejaVuSans-Bold-4a" d="M 588 4666 
L 1791 4666 
L 1791 453 
Q 1791 -419 1317 -850 
Q 844 -1281 -116 -1281 
L -359 -1281 
L -359 -372 
L -172 -372 
Q 203 -372 395 -162 
Q 588 47 588 453 
L 588 4666 
z
" transform="scale(0.015625)"/>
      <path id="DejaVuSans-Bold-28" d="M 2413 -844 
L 1484 -844 
Q 1006 -72 778 623 
Q 550 1319 550 2003 
Q 550 2688 779 3389 
Q 1009 4091 1484 4856 
L 2413 4856 
Q 2013 4116 1813 3408 
Q 1613 2700 1613 2009 
Q 1613 1319 1811 609 
Q 2009 -100 2413 -844 
z
" transform="scale(0.015625)"/>
      <path id="DejaVuSans-Bold-77" d="M 225 3500 
L 1313 3500 
L 1900 1088 
L 2491 3500 
L 3425 3500 
L 4013 1113 
L 4603 3500 
L 5691 3500 
L 4769 0 
L 3547 0 
L 2956 2406 
L 2369 0 
L 1147 0 
L 225 3500 
z
" transform="scale(0.015625)"/>
      <path id="DejaVuSans-Bold-68" d="M 4056 2131 
L 4056 0 
L 2931 0 
L 2931 347 
L 2931 1625 
Q 2931 2084 2911 2256 
Q 2891 2428 2841 2509 
Q 2775 2619 2662 2680 
Q 2550 2741 2406 2741 
Q 2056 2741 1856 2470 
Q 1656 2200 1656 1722 
L 1656 0 
L 538 0 
L 538 4863 
L 1656 4863 
L 1656 2988 
Q 1909 3294 2193 3439 
Q 2478 3584 2822 3584 
Q 3428 3584 3742 3212 
Q 4056 2841 4056 2131 
z
" transform="scale(0.015625)"/>
      <path id="DejaVuSans-Bold-29" d="M 513 -844 
Q 913 -100 1113 609 
Q 1313 1319 1313 2009 
Q 1313 2700 1113 3408 
Q 913 4116 513 4856 
L 1441 4856 
Q 1916 4091 2145 3389 
Q 2375 2688 2375 2003 
Q 2375 1319 2147 623 
Q 1919 -72 1441 -844 
L 513 -844 
z
" transform="scale(0.015625)"/>
     </defs>
     <use xlink:href="#DejaVuSans-Bold-43"/>
     <use xlink:href="#DejaVuSans-Bold-61" x="73.388672"/>
     <use xlink:href="#DejaVuSans-Bold-6e" x="140.869141"/>
     <use xlink:href="#DejaVuSans-Bold-61" x="212.060547"/>
     <use xlink:href="#DejaVuSans-Bold-64" x="279.541016"/>
     <use xlink:href="#DejaVuSans-Bold-61" x="351.123047"/>
     <use xlink:href="#DejaVuSans-Bold-20" x="418.603516"/>
     <use xlink:href="#DejaVuSans-Bold-2b" x="453.417969"/>
     <use xlink:href="#DejaVuSans-Bold-20" x="537.207031"/>
     <use xlink:href="#DejaVuSans-Bold-6b" x="572.021484"/>
     <use xlink:href="#DejaVuSans-Bold-65" x="635.900391"/>
     <use xlink:href="#DejaVuSans-Bold-79" x="703.722656"/>
     <use xlink:href="#DejaVuSans-Bold-20" x="768.908203"/>
     <use xlink:href="#DejaVuSans-Bold-63" x="803.722656"/>
     <use xlink:href="#DejaVuSans-Bold-6f" x="863"/>
     <use xlink:href="#DejaVuSans-Bold-6d" x="931.701172"/>
     <use xlink:href="#DejaVuSans-Bold-70" x="1035.900391"/>
     <use xlink:href="#DejaVuSans-Bold-61" x="1107.482422"/>
     <use xlink:href="#DejaVuSans-Bold-72" x="1174.962891"/>
     <use xlink:href="#DejaVuSans-Bold-61" x="1224.279297"/>
     <use xlink:href="#DejaVuSans-Bold-74" x="1291.759766"/>
     <use xlink:href="#DejaVuSans-Bold-6f" x="1339.5625"/>
     <use xlink:href="#DejaVuSans-Bold-72" x="1408.263672"/>
     <use xlink:href="#DejaVuSans-Bold-73" x="1457.580078"/>
     <use xlink:href="#DejaVuSans-Bold-20" x="1517.101562"/>
     <use xlink:href="#DejaVuSans-Bold-69" x="1551.916016"/>
     <use xlink:href="#DejaVuSans-Bold-6e" x="1586.193359"/>
     <use xlink:href="#DejaVuSans-Bold-63" x="1657.384766"/>
     <use xlink:href="#DejaVuSans-Bold-6c" x="1716.662109"/>
     <use xlink:href="#DejaVuSans-Bold-2e" x="1750.939453"/>
     <use xlink:href="#DejaVuSans-Bold-20" x="1788.927734"/>
     <use xlink:href="#DejaVuSans-Bold-4a" x="1823.742188"/>
     <use xlink:href="#DejaVuSans-Bold-61" x="1860.949219"/>
     <use xlink:href="#DejaVuSans-Bold-70" x="1928.429688"/>
     <use xlink:href="#DejaVuSans-Bold-61" x="2000.011719"/>
     <use xlink:href="#DejaVuSans-Bold-6e" x="2067.492188"/>
     <use xlink:href="#DejaVuSans-Bold-20" x="2138.683594"/>
     <use xlink:href="#DejaVuSans-Bold-20" x="2173.498047"/>
     <use xlink:href="#DejaVuSans-Bold-28" x="2208.3125"/>
     <use xlink:href="#DejaVuSans-Bold-61" x="2254.015625"/>
     <use xlink:href="#DejaVuSans-Bold-6c" x="2321.496094"/>
     <use xlink:href="#DejaVuSans-Bold-77" x="2355.773438"/>
     <use xlink:href="#DejaVuSans-Bold-61" x="2448.15625"/>
     <use xlink:href="#DejaVuSans-Bold-79" x="2512.511719"/>
     <use xlink:href="#DejaVuSans-Bold-73" x="2577.697266"/>
     <use xlink:href="#DejaVuSans-Bold-20" x="2637.21875"/>
     <use xlink:href="#DejaVuSans-Bold-73" x="2672.033203"/>
     <use xlink:href="#DejaVuSans-Bold-68" x="2731.554688"/>
     <use xlink:href="#DejaVuSans-Bold-6f" x="2802.746094"/>
     <use xlink:href="#DejaVuSans-Bold-77" x="2871.447266"/>
     <use xlink:href="#DejaVuSans-Bold-6e" x="2963.830078"/>
     <use xlink:href="#DejaVuSans-Bold-20" x="3035.021484"/>
     <use xlink:href="#DejaVuSans-Bold-69" x="3069.835938"/>
     <use xlink:href="#DejaVuSans-Bold-6e" x="3104.113281"/>
     <use xlink:href="#DejaVuSans-Bold-20" x="3175.304688"/>
     <use xlink:href="#DejaVuSans-Bold-63" x="3210.119141"/>
     <use xlink:href="#DejaVuSans-Bold-6f" x="3269.396484"/>
     <use xlink:href="#DejaVuSans-Bold-6c" x="3338.097656"/>
     <use xlink:href="#DejaVuSans-Bold-6f" x="3372.375"/>
     <use xlink:href="#DejaVuSans-Bold-75" x="3441.076172"/>
     <use xlink:href="#DejaVuSans-Bold-72" x="3512.267578"/>
     <use xlink:href="#DejaVuSans-Bold-29" x="3561.583984"/>
    </g>
   </g>
   <g id="text_3">
    <!-- Canada -->
    <g style="fill: #17324d" transform="translate(86.715 73.130099) scale(0.125 -0.125)">
     <use xlink:href="#DejaVuSans-Bold-43"/>
     <use xlink:href="#DejaVuSans-Bold-61" x="73.388672"/>
     <use xlink:href="#DejaVuSans-Bold-6e" x="140.869141"/>
     <use xlink:href="#DejaVuSans-Bold-61" x="212.060547"/>
     <use xlink:href="#DejaVuSans-Bold-64" x="279.541016"/>
     <use xlink:href="#DejaVuSans-Bold-61" x="351.123047"/>
    </g>
   </g>
   <g id="text_4">
    <!-- #7A263A -->
    <g style="fill: #555555" transform="translate(346.464 72.606114) scale(0.105 -0.105)">
     <defs>
      <path id="DejaVuSansMono-23" d="M 2138 4594 
L 1813 3297 
L 2578 3297 
L 2906 4594 
L 3406 4594 
L 3078 3297 
L 3841 3297 
L 3841 2816 
L 2963 2816 
L 2700 1772 
L 3481 1772 
L 3481 1294 
L 2578 1294 
L 2253 0 
L 1753 0 
L 2081 1294 
L 1313 1294 
L 984 0 
L 488 0 
L 813 1294 
L 6 1294 
L 6 1772 
L 934 1772 
L 1197 2816 
L 366 2816 
L 366 3297 
L 1313 3297 
L 1638 4594 
L 2138 4594 
z
M 2463 2816 
L 1697 2816 
L 1434 1772 
L 2203 1772 
L 2463 2816 
z
" transform="scale(0.015625)"/>
      <path id="DejaVuSansMono-37" d="M 434 4666 
L 3372 4666 
L 3372 4397 
L 1703 0 
L 1044 0 
L 2669 4134 
L 434 4134 
L 434 4666 
z
" transform="scale(0.015625)"/>
      <path id="DejaVuSansMono-41" d="M 1925 4109 
L 1259 1722 
L 2591 1722 
L 1925 4109 
z
M 1544 4666 
L 2309 4666 
L 3738 0 
L 3084 0 
L 2741 1216 
L 1106 1216 
L 769 0 
L 116 0 
L 1544 4666 
z
" transform="scale(0.015625)"/>
      <path id="DejaVuSansMono-32" d="M 1166 531 
L 3309 531 
L 3309 0 
L 475 0 
L 475 531 
Q 1059 1147 1496 1619 
Q 1934 2091 2100 2284 
Q 2413 2666 2522 2902 
Q 2631 3138 2631 3384 
Q 2631 3775 2401 3997 
Q 2172 4219 1772 4219 
Q 1488 4219 1175 4116 
Q 863 4013 513 3803 
L 513 4441 
Q 834 4594 1145 4672 
Q 1456 4750 1759 4750 
Q 2444 4750 2861 4386 
Q 3278 4022 3278 3431 
Q 3278 3131 3139 2831 
Q 3000 2531 2688 2169 
Q 2513 1966 2180 1606 
Q 1847 1247 1166 531 
z
" transform="scale(0.015625)"/>
      <path id="DejaVuSansMono-36" d="M 3097 4563 
L 3097 3981 
Q 2900 4097 2678 4158 
Q 2456 4219 2216 4219 
Q 1616 4219 1306 3767 
Q 997 3316 997 2438 
Q 1147 2750 1412 2917 
Q 1678 3084 2022 3084 
Q 2697 3084 3067 2670 
Q 3438 2256 3438 1497 
Q 3438 741 3056 325 
Q 2675 -91 1984 -91 
Q 1172 -91 794 492 
Q 416 1075 416 2328 
Q 416 3509 870 4129 
Q 1325 4750 2188 4750 
Q 2419 4750 2650 4701 
Q 2881 4653 3097 4563 
z
M 1972 2591 
Q 1569 2591 1337 2300 
Q 1106 2009 1106 1497 
Q 1106 984 1337 693 
Q 1569 403 1972 403 
Q 2391 403 2603 679 
Q 2816 956 2816 1497 
Q 2816 2041 2603 2316 
Q 2391 2591 1972 2591 
z
" transform="scale(0.015625)"/>
      <path id="DejaVuSansMono-33" d="M 2425 2497 
Q 2884 2375 3128 2064 
Q 3372 1753 3372 1288 
Q 3372 644 2939 276 
Q 2506 -91 1741 -91 
Q 1419 -91 1084 -31 
Q 750 28 428 141 
L 428 769 
Q 747 603 1056 522 
Q 1366 441 1672 441 
Q 2191 441 2469 675 
Q 2747 909 2747 1350 
Q 2747 1756 2469 1995 
Q 2191 2234 1716 2234 
L 1234 2234 
L 1234 2753 
L 1716 2753 
Q 2150 2753 2394 2943 
Q 2638 3134 2638 3475 
Q 2638 3834 2411 4026 
Q 2184 4219 1766 4219 
Q 1488 4219 1191 4156 
Q 894 4094 569 3969 
L 569 4550 
Q 947 4650 1242 4700 
Q 1538 4750 1766 4750 
Q 2447 4750 2855 4408 
Q 3263 4066 3263 3500 
Q 3263 3116 3048 2859 
Q 2834 2603 2425 2497 
z
" transform="scale(0.015625)"/>
     </defs>
     <use xlink:href="#DejaVuSansMono-23"/>
     <use xlink:href="#DejaVuSansMono-37" x="60.205078"/>
     <use xlink:href="#DejaVuSansMono-41" x="120.410156"/>
     <use xlink:href="#DejaVuSansMono-32" x="180.615234"/>
     <use xlink:href="#DejaVuSansMono-36" x="240.820312"/>
     <use xlink:href="#DejaVuSansMono-33" x="301.025391"/>
     <use xlink:href="#DejaVuSansMono-41" x="361.230469"/>
    </g>
   </g>
   <g id="text_5">
    <!-- United States -->
    <g style="fill: #17324d" transform="translate(86.715 94.862579) scale(0.125 -0.125)">
     <defs>
      <path id="DejaVuSans-Bold-55" d="M 588 4666 
L 1791 4666 
L 1791 1869 
Q 1791 1291 1980 1042 
Q 2169 794 2597 794 
Q 3028 794 3217 1042 
Q 3406 1291 3406 1869 
L 3406 4666 
L 4609 4666 
L 4609 1869 
Q 4609 878 4112 393 
Q 3616 -91 2597 -91 
Q 1581 -91 1084 393 
Q 588 878 588 1869 
L 588 4666 
z
" transform="scale(0.015625)"/>
      <path id="DejaVuSans-Bold-53" d="M 3834 4519 
L 3834 3531 
Q 3450 3703 3084 3790 
Q 2719 3878 2394 3878 
Q 1963 3878 1756 3759 
Q 1550 3641 1550 3391 
Q 1550 3203 1689 3098 
Q 1828 2994 2194 2919 
L 2706 2816 
Q 3484 2659 3812 2340 
Q 4141 2022 4141 1434 
Q 4141 663 3683 286 
Q 3225 -91 2284 -91 
Q 1841 -91 1394 -6 
Q 947 78 500 244 
L 500 1259 
Q 947 1022 1364 901 
Q 1781 781 2169 781 
Q 2563 781 2772 912 
Q 2981 1044 2981 1288 
Q 2981 1506 2839 1625 
Q 2697 1744 2272 1838 
L 1806 1941 
Q 1106 2091 782 2419 
Q 459 2747 459 3303 
Q 459 4000 909 4375 
Q 1359 4750 2203 4750 
Q 2588 4750 2994 4692 
Q 3400 4634 3834 4519 
z
" transform="scale(0.015625)"/>
     </defs>
     <use xlink:href="#DejaVuSans-Bold-55"/>
     <use xlink:href="#DejaVuSans-Bold-6e" x="81.201172"/>
     <use xlink:href="#DejaVuSans-Bold-69" x="152.392578"/>
     <use xlink:href="#DejaVuSans-Bold-74" x="186.669922"/>
     <use xlink:href="#DejaVuSans-Bold-65" x="234.472656"/>
     <use xlink:href="#DejaVuSans-Bold-64" x="302.294922"/>
     <use xlink:href="#DejaVuSans-Bold-20" x="373.876953"/>
     <use xlink:href="#DejaVuSans-Bold-53" x="408.691406"/>
     <use xlink:href="#DejaVuSans-Bold-74" x="480.712891"/>
     <use xlink:href="#DejaVuSans-Bold-61" x="528.515625"/>
     <use xlink:href="#DejaVuSans-Bold-74" x="595.996094"/>
     <use xlink:href="#DejaVuSans-Bold-65" x="643.798828"/>
     <use xlink:href="#DejaVuSans-Bold-73" x="711.621094"/>
    </g>
   </g>
   <g id="text_6">
    <!-- #0650A3 -->
    <g style="fill: #555555" transform="translate(346.464 94.338594) scale(0.105 -0.105)">
     <defs>
      <path id="DejaVuSansMono-30" d="M 1509 2344 
Q 1509 2516 1629 2641 
Q 1750 2766 1919 2766 
Q 2094 2766 2219 2641 
Q 2344 2516 2344 2344 
Q 2344 2169 2220 2047 
Q 2097 1925 1919 1925 
Q 1744 1925 1626 2044 
Q 1509 2163 1509 2344 
z
M 1925 4250 
Q 1484 4250 1267 3775 
Q 1050 3300 1050 2328 
Q 1050 1359 1267 884 
Q 1484 409 1925 409 
Q 2369 409 2586 884 
Q 2803 1359 2803 2328 
Q 2803 3300 2586 3775 
Q 2369 4250 1925 4250 
z
M 1925 4750 
Q 2672 4750 3055 4137 
Q 3438 3525 3438 2328 
Q 3438 1134 3055 521 
Q 2672 -91 1925 -91 
Q 1178 -91 797 521 
Q 416 1134 416 2328 
Q 416 3525 797 4137 
Q 1178 4750 1925 4750 
z
" transform="scale(0.015625)"/>
      <path id="DejaVuSansMono-35" d="M 647 4666 
L 3009 4666 
L 3009 4134 
L 1222 4134 
L 1222 2988 
Q 1356 3038 1492 3061 
Q 1628 3084 1766 3084 
Q 2491 3084 2916 2656 
Q 3341 2228 3341 1497 
Q 3341 759 2895 334 
Q 2450 -91 1678 -91 
Q 1306 -91 998 -41 
Q 691 9 447 109 
L 447 750 
Q 734 594 1025 517 
Q 1316 441 1619 441 
Q 2141 441 2423 716 
Q 2706 991 2706 1497 
Q 2706 1997 2414 2275 
Q 2122 2553 1600 2553 
Q 1347 2553 1106 2495 
Q 866 2438 647 2322 
L 647 4666 
z
" transform="scale(0.015625)"/>
     </defs>
     <use xlink:href="#DejaVuSansMono-23"/>
     <use xlink:href="#DejaVuSansMono-30" x="60.205078"/>
     <use xlink:href="#DejaVuSansMono-36" x="120.410156"/>
     <use xlink:href="#DejaVuSansMono-35" x="180.615234"/>
     <use xlink:href="#DejaVuSansMono-30" x="240.820312"/>
     <use xlink:href="#DejaVuSansMono-41" x="301.025391"/>
     <use xlink:href="#DejaVuSansMono-33" x="361.230469"/>
    </g>
   </g>
   <g id="text_7">
    <!-- Australia -->
    <g style="fill: #17324d" transform="translate(86.715 116.595059) scale(0.125 -0.125)">
     <defs>
      <path id="DejaVuSans-Bold-41" d="M 3419 850 
L 1538 850 
L 1241 0 
L 31 0 
L 1759 4666 
L 3194 4666 
L 4922 0 
L 3713 0 
L 3419 850 
z
M 1838 1716 
L 3116 1716 
L 2478 3572 
L 1838 1716 
z
" transform="scale(0.015625)"/>
     </defs>
     <use xlink:href="#DejaVuSans-Bold-41"/>
     <use xlink:href="#DejaVuSans-Bold-75" x="77.392578"/>
     <use xlink:href="#DejaVuSans-Bold-73" x="148.583984"/>
     <use xlink:href="#DejaVuSans-Bold-74" x="208.105469"/>
     <use xlink:href="#DejaVuSans-Bold-72" x="255.908203"/>
     <use xlink:href="#DejaVuSans-Bold-61" x="305.224609"/>
     <use xlink:href="#DejaVuSans-Bold-6c" x="372.705078"/>
     <use xlink:href="#DejaVuSans-Bold-69" x="406.982422"/>
     <use xlink:href="#DejaVuSans-Bold-61" x="441.259766"/>
    </g>
   </g>
   <g id="text_8">
    <!-- #C77109 -->
    <g style="fill: #555555" transform="translate(346.464 116.071074) scale(0.105 -0.105)">
     <defs>
      <path id="DejaVuSansMono-43" d="M 3353 166 
Q 3113 38 2859 -26 
Q 2606 -91 2322 -91 
Q 1425 -91 929 543 
Q 434 1178 434 2328 
Q 434 3472 932 4111 
Q 1431 4750 2322 4750 
Q 2606 4750 2859 4686 
Q 3113 4622 3353 4494 
L 3353 3847 
Q 3122 4038 2856 4138 
Q 2591 4238 2322 4238 
Q 1706 4238 1400 3763 
Q 1094 3288 1094 2328 
Q 1094 1372 1400 897 
Q 1706 422 2322 422 
Q 2597 422 2861 522 
Q 3125 622 3353 813 
L 3353 166 
z
" transform="scale(0.015625)"/>
      <path id="DejaVuSansMono-31" d="M 844 531 
L 1825 531 
L 1825 4097 
L 769 3859 
L 769 4434 
L 1819 4666 
L 2450 4666 
L 2450 531 
L 3419 531 
L 3419 0 
L 844 0 
L 844 531 
z
" transform="scale(0.015625)"/>
      <path id="DejaVuSansMono-39" d="M 1863 2069 
Q 2266 2069 2495 2359 
Q 2725 2650 2725 3163 
Q 2725 3675 2495 3965 
Q 2266 4256 1863 4256 
Q 1444 4256 1231 3979 
Q 1019 3703 1019 3163 
Q 1019 2619 1230 2344 
Q 1441 2069 1863 2069 
z
M 738 97 
L 738 678 
Q 934 563 1156 502 
Q 1378 441 1619 441 
Q 2219 441 2526 892 
Q 2834 1344 2834 2222 
Q 2688 1909 2422 1742 
Q 2156 1575 1813 1575 
Q 1138 1575 767 1990 
Q 397 2406 397 3169 
Q 397 3922 776 4336 
Q 1156 4750 1850 4750 
Q 2663 4750 3041 4165 
Q 3419 3581 3419 2328 
Q 3419 1150 2964 529 
Q 2509 -91 1644 -91 
Q 1416 -91 1184 -42 
Q 953 6 738 97 
z
" transform="scale(0.015625)"/>
     </defs>
     <use xlink:href="#DejaVuSansMono-23"/>
     <use xlink:href="#DejaVuSansMono-43" x="60.205078"/>
     <use xlink:href="#DejaVuSansMono-37" x="120.410156"/>
     <use xlink:href="#DejaVuSansMono-37" x="180.615234"/>
     <use xlink:href="#DejaVuSansMono-31" x="240.820312"/>
     <use xlink:href="#DejaVuSansMono-30" x="301.025391"/>
     <use xlink:href="#DejaVuSansMono-39" x="361.230469"/>
    </g>
   </g>
   <g id="text_9">
    <!-- Germany -->
    <g style="fill: #17324d" transform="translate(86.715 138.229882) scale(0.125 -0.125)">
     <defs>
      <path id="DejaVuSans-Bold-47" d="M 4781 347 
Q 4331 128 3847 18 
Q 3363 -91 2847 -91 
Q 1681 -91 1000 561 
Q 319 1213 319 2328 
Q 319 3456 1012 4103 
Q 1706 4750 2913 4750 
Q 3378 4750 3804 4662 
Q 4231 4575 4609 4403 
L 4609 3438 
Q 4219 3659 3833 3768 
Q 3447 3878 3059 3878 
Q 2341 3878 1952 3476 
Q 1563 3075 1563 2328 
Q 1563 1588 1938 1184 
Q 2313 781 3003 781 
Q 3191 781 3352 804 
Q 3513 828 3641 878 
L 3641 1784 
L 2906 1784 
L 2906 2591 
L 4781 2591 
L 4781 347 
z
" transform="scale(0.015625)"/>
     </defs>
     <use xlink:href="#DejaVuSans-Bold-47"/>
     <use xlink:href="#DejaVuSans-Bold-65" x="82.080078"/>
     <use xlink:href="#DejaVuSans-Bold-72" x="149.902344"/>
     <use xlink:href="#DejaVuSans-Bold-6d" x="199.21875"/>
     <use xlink:href="#DejaVuSans-Bold-61" x="303.417969"/>
     <use xlink:href="#DejaVuSans-Bold-6e" x="370.898438"/>
     <use xlink:href="#DejaVuSans-Bold-79" x="442.089844"/>
    </g>
   </g>
   <g id="text_10">
    <!-- #5C9D6F -->
    <g style="fill: #555555" transform="translate(346.464 137.803554) scale(0.105 -0.105)">
     <defs>
      <path id="DejaVuSansMono-44" d="M 1363 519 
Q 2159 519 2475 911 
Q 2791 1303 2791 2328 
Q 2791 3363 2477 3755 
Q 2163 4147 1363 4147 
L 1063 4147 
L 1063 519 
L 1363 519 
z
M 1375 4666 
Q 2444 4666 2950 4097 
Q 3456 3528 3456 2328 
Q 3456 1134 2950 567 
Q 2444 0 1375 0 
L 428 0 
L 428 4666 
L 1375 4666 
z
" transform="scale(0.015625)"/>
      <path id="DejaVuSansMono-46" d="M 728 4666 
L 3475 4666 
L 3475 4134 
L 1363 4134 
L 1363 2759 
L 3278 2759 
L 3278 2228 
L 1363 2228 
L 1363 0 
L 728 0 
L 728 4666 
z
" transform="scale(0.015625)"/>
     </defs>
     <use xlink:href="#DejaVuSansMono-23"/>
     <use xlink:href="#DejaVuSansMono-35" x="60.205078"/>
     <use xlink:href="#DejaVuSansMono-43" x="120.410156"/>
     <use xlink:href="#DejaVuSansMono-39" x="180.615234"/>
     <use xlink:href="#DejaVuSansMono-44" x="240.820312"/>
     <use xlink:href="#DejaVuSansMono-36" x="301.025391"/>
     <use xlink:href="#DejaVuSansMono-46" x="361.230469"/>
    </g>
   </g>
   <g id="text_11">
    <!-- United Kingdom -->
    <g style="fill: #17324d" transform="translate(86.715 160.011191) scale(0.125 -0.125)">
     <defs>
      <path id="DejaVuSans-Bold-4b" d="M 588 4666 
L 1791 4666 
L 1791 2963 
L 3525 4666 
L 4922 4666 
L 2675 2456 
L 5153 0 
L 3647 0 
L 1791 1838 
L 1791 0 
L 588 0 
L 588 4666 
z
" transform="scale(0.015625)"/>
      <path id="DejaVuSans-Bold-67" d="M 2919 594 
Q 2688 288 2409 144 
Q 2131 0 1766 0 
Q 1125 0 706 504 
Q 288 1009 288 1791 
Q 288 2575 706 3076 
Q 1125 3578 1766 3578 
Q 2131 3578 2409 3434 
Q 2688 3291 2919 2981 
L 2919 3500 
L 4044 3500 
L 4044 353 
Q 4044 -491 3511 -936 
Q 2978 -1381 1966 -1381 
Q 1638 -1381 1331 -1331 
Q 1025 -1281 716 -1178 
L 716 -306 
Q 1009 -475 1290 -558 
Q 1572 -641 1856 -641 
Q 2406 -641 2662 -400 
Q 2919 -159 2919 353 
L 2919 594 
z
M 2181 2772 
Q 1834 2772 1640 2515 
Q 1447 2259 1447 1791 
Q 1447 1309 1634 1061 
Q 1822 813 2181 813 
Q 2531 813 2725 1069 
Q 2919 1325 2919 1791 
Q 2919 2259 2725 2515 
Q 2531 2772 2181 2772 
z
" transform="scale(0.015625)"/>
     </defs>
     <use xlink:href="#DejaVuSans-Bold-55"/>
     <use xlink:href="#DejaVuSans-Bold-6e" x="81.201172"/>
     <use xlink:href="#DejaVuSans-Bold-69" x="152.392578"/>
     <use xlink:href="#DejaVuSans-Bold-74" x="186.669922"/>
     <use xlink:href="#DejaVuSans-Bold-65" x="234.472656"/>
     <use xlink:href="#DejaVuSans-Bold-64" x="302.294922"/>
     <use xlink:href="#DejaVuSans-Bold-20" x="373.876953"/>
     <use xlink:href="#DejaVuSans-Bold-4b" x="408.691406"/>
     <use xlink:href="#DejaVuSans-Bold-69" x="486.181641"/>
     <use xlink:href="#DejaVuSans-Bold-6e" x="520.458984"/>
     <use xlink:href="#DejaVuSans-Bold-67" x="591.650391"/>
     <use xlink:href="#DejaVuSans-Bold-64" x="663.232422"/>
     <use xlink:href="#DejaVuSans-Bold-6f" x="734.814453"/>
     <use xlink:href="#DejaVuSans-Bold-6d" x="803.515625"/>
    </g>
   </g>
   <g id="text_12">
    <!-- #B06487 -->
    <g style="fill: #555555" transform="translate(346.464 159.536034) scale(0.105 -0.105)">
     <defs>
      <path id="DejaVuSansMono-42" d="M 1153 2228 
L 1153 519 
L 1900 519 
Q 2450 519 2684 711 
Q 2919 903 2919 1344 
Q 2919 1800 2672 2014 
Q 2425 2228 1900 2228 
L 1153 2228 
z
M 1153 4147 
L 1153 2741 
L 1888 2741 
Q 2344 2741 2548 2916 
Q 2753 3091 2753 3481 
Q 2753 3834 2551 3990 
Q 2350 4147 1888 4147 
L 1153 4147 
z
M 519 4666 
L 1900 4666 
Q 2616 4666 3003 4356 
Q 3391 4047 3391 3481 
Q 3391 3053 3186 2806 
Q 2981 2559 2572 2497 
Q 3031 2428 3292 2104 
Q 3553 1781 3553 1281 
Q 3553 647 3137 323 
Q 2722 0 1900 0 
L 519 0 
L 519 4666 
z
" transform="scale(0.015625)"/>
      <path id="DejaVuSansMono-34" d="M 2297 4091 
L 825 1625 
L 2297 1625 
L 2297 4091 
z
M 2194 4666 
L 2925 4666 
L 2925 1625 
L 3547 1625 
L 3547 1113 
L 2925 1113 
L 2925 0 
L 2297 0 
L 2297 1113 
L 319 1113 
L 319 1709 
L 2194 4666 
z
" transform="scale(0.015625)"/>
      <path id="DejaVuSansMono-38" d="M 1925 2216 
Q 1503 2216 1273 1980 
Q 1044 1744 1044 1313 
Q 1044 881 1276 642 
Q 1509 403 1925 403 
Q 2350 403 2579 639 
Q 2809 875 2809 1313 
Q 2809 1741 2576 1978 
Q 2344 2216 1925 2216 
z
M 1375 2478 
Q 972 2581 745 2862 
Q 519 3144 519 3541 
Q 519 4097 897 4423 
Q 1275 4750 1925 4750 
Q 2578 4750 2956 4423 
Q 3334 4097 3334 3541 
Q 3334 3144 3107 2862 
Q 2881 2581 2478 2478 
Q 2947 2375 3195 2062 
Q 3444 1750 3444 1253 
Q 3444 622 3041 265 
Q 2638 -91 1925 -91 
Q 1213 -91 811 264 
Q 409 619 409 1247 
Q 409 1747 657 2061 
Q 906 2375 1375 2478 
z
M 1147 3481 
Q 1147 3106 1347 2909 
Q 1547 2713 1925 2713 
Q 2306 2713 2506 2909 
Q 2706 3106 2706 3481 
Q 2706 3863 2507 4063 
Q 2309 4263 1925 4263 
Q 1547 4263 1347 4061 
Q 1147 3859 1147 3481 
z
" transform="scale(0.015625)"/>
     </defs>
     <use xlink:href="#DejaVuSansMono-23"/>
     <use xlink:href="#DejaVuSansMono-42" x="60.205078"/>
     <use xlink:href="#DejaVuSansMono-30" x="120.410156"/>
     <use xlink:href="#DejaVuSansMono-36" x="180.615234"/>
     <use xlink:href="#DejaVuSansMono-34" x="240.820312"/>
     <use xlink:href="#DejaVuSansMono-38" x="301.025391"/>
     <use xlink:href="#DejaVuSansMono-37" x="361.230469"/>
    </g>
   </g>
   <g id="text_13">
    <!-- Sweden -->
    <g style="fill: #17324d" transform="translate(86.715 181.792499) scale(0.125 -0.125)">
     <use xlink:href="#DejaVuSans-Bold-53"/>
     <use xlink:href="#DejaVuSans-Bold-77" x="72.021484"/>
     <use xlink:href="#DejaVuSans-Bold-65" x="164.404297"/>
     <use xlink:href="#DejaVuSans-Bold-64" x="232.226562"/>
     <use xlink:href="#DejaVuSans-Bold-65" x="303.808594"/>
     <use xlink:href="#DejaVuSans-Bold-6e" x="371.630859"/>
    </g>
   </g>
   <g id="text_14">
    <!-- #249FD0 -->
    <g style="fill: #555555" transform="translate(346.464 181.268514) scale(0.105 -0.105)">
     <use xlink:href="#DejaVuSansMono-23"/>
     <use xlink:href="#DejaVuSansMono-32" x="60.205078"/>
     <use xlink:href="#DejaVuSansMono-34" x="120.410156"/>
     <use xlink:href="#DejaVuSansMono-39" x="180.615234"/>
     <use xlink:href="#DejaVuSansMono-46" x="240.820312"/>
     <use xlink:href="#DejaVuSansMono-44" x="301.025391"/>
     <use xlink:href="#DejaVuSansMono-30" x="361.230469"/>
    </g>
   </g>
   <g id="text_15">
    <!-- Japan -->
    <g style="fill: #17324d" transform="translate(86.715 203.524979) scale(0.125 -0.125)">
     <use xlink:href="#DejaVuSans-Bold-4a"/>
     <use xlink:href="#DejaVuSans-Bold-61" x="37.207031"/>
     <use xlink:href="#DejaVuSans-Bold-70" x="104.6875"/>
     <use xlink:href="#DejaVuSans-Bold-61" x="176.269531"/>
     <use xlink:href="#DejaVuSans-Bold-6e" x="243.75"/>
    </g>
   </g>
   <g id="text_16">
    <!-- #8F4708 -->
    <g style="fill: #555555" transform="translate(346.464 203.000994) scale(0.105 -0.105)">
     <use xlink:href="#DejaVuSansMono-23"/>
     <use xlink:href="#DejaVuSansMono-38" x="60.205078"/>
     <use xlink:href="#DejaVuSansMono-46" x="120.410156"/>
     <use xlink:href="#DejaVuSansMono-34" x="180.615234"/>
     <use xlink:href="#DejaVuSansMono-37" x="240.820312"/>
     <use xlink:href="#DejaVuSansMono-30" x="301.025391"/>
     <use xlink:href="#DejaVuSansMono-38" x="361.230469"/>
    </g>
   </g>
   <g id="text_17">
    <!-- Other peers  (grey until selected; mineral register, max-spread) -->
    <g style="fill: #444444" transform="translate(23.103 234.03276) scale(0.11 -0.11)">
     <defs>
      <path id="DejaVuSans-Bold-3b" d="M 716 1209 
L 1844 1209 
L 1844 256 
L 1069 -909 
L 403 -909 
L 716 256 
L 716 1209 
z
M 716 3500 
L 1844 3500 
L 1844 2291 
L 716 2291 
L 716 3500 
z
" transform="scale(0.015625)"/>
      <path id="DejaVuSans-Bold-2c" d="M 653 1209 
L 1778 1209 
L 1778 256 
L 1006 -909 
L 341 -909 
L 653 256 
L 653 1209 
z
" transform="scale(0.015625)"/>
      <path id="DejaVuSans-Bold-78" d="M 1422 1791 
L 159 3500 
L 1344 3500 
L 2059 2463 
L 2784 3500 
L 3969 3500 
L 2706 1797 
L 4031 0 
L 2847 0 
L 2059 1106 
L 1281 0 
L 97 0 
L 1422 1791 
z
" transform="scale(0.015625)"/>
      <path id="DejaVuSans-Bold-2d" d="M 347 2297 
L 2309 2297 
L 2309 1388 
L 347 1388 
L 347 2297 
z
" transform="scale(0.015625)"/>
     </defs>
     <use xlink:href="#DejaVuSans-Bold-4f"/>
     <use xlink:href="#DejaVuSans-Bold-74" x="85.009766"/>
     <use xlink:href="#DejaVuSans-Bold-68" x="132.8125"/>
     <use xlink:href="#DejaVuSans-Bold-65" x="204.003906"/>
     <use xlink:href="#DejaVuSans-Bold-72" x="271.826172"/>
     <use xlink:href="#DejaVuSans-Bold-20" x="321.142578"/>
     <use xlink:href="#DejaVuSans-Bold-70" x="355.957031"/>
     <use xlink:href="#DejaVuSans-Bold-65" x="427.539062"/>
     <use xlink:href="#DejaVuSans-Bold-65" x="495.361328"/>
     <use xlink:href="#DejaVuSans-Bold-72" x="563.183594"/>
     <use xlink:href="#DejaVuSans-Bold-73" x="612.5"/>
     <use xlink:href="#DejaVuSans-Bold-20" x="672.021484"/>
     <use xlink:href="#DejaVuSans-Bold-20" x="706.835938"/>
     <use xlink:href="#DejaVuSans-Bold-28" x="741.650391"/>
     <use xlink:href="#DejaVuSans-Bold-67" x="787.353516"/>
     <use xlink:href="#DejaVuSans-Bold-72" x="858.935547"/>
     <use xlink:href="#DejaVuSans-Bold-65" x="908.251953"/>
     <use xlink:href="#DejaVuSans-Bold-79" x="976.074219"/>
     <use xlink:href="#DejaVuSans-Bold-20" x="1041.259766"/>
     <use xlink:href="#DejaVuSans-Bold-75" x="1076.074219"/>
     <use xlink:href="#DejaVuSans-Bold-6e" x="1147.265625"/>
     <use xlink:href="#DejaVuSans-Bold-74" x="1218.457031"/>
     <use xlink:href="#DejaVuSans-Bold-69" x="1266.259766"/>
     <use xlink:href="#DejaVuSans-Bold-6c" x="1300.537109"/>
     <use xlink:href="#DejaVuSans-Bold-20" x="1334.814453"/>
     <use xlink:href="#DejaVuSans-Bold-73" x="1369.628906"/>
     <use xlink:href="#DejaVuSans-Bold-65" x="1429.150391"/>
     <use xlink:href="#DejaVuSans-Bold-6c" x="1496.972656"/>
     <use xlink:href="#DejaVuSans-Bold-65" x="1531.25"/>
     <use xlink:href="#DejaVuSans-Bold-63" x="1599.072266"/>
     <use xlink:href="#DejaVuSans-Bold-74" x="1658.349609"/>
     <use xlink:href="#DejaVuSans-Bold-65" x="1706.152344"/>
     <use xlink:href="#DejaVuSans-Bold-64" x="1773.974609"/>
     <use xlink:href="#DejaVuSans-Bold-3b" x="1845.556641"/>
     <use xlink:href="#DejaVuSans-Bold-20" x="1885.546875"/>
     <use xlink:href="#DejaVuSans-Bold-6d" x="1920.361328"/>
     <use xlink:href="#DejaVuSans-Bold-69" x="2024.560547"/>
     <use xlink:href="#DejaVuSans-Bold-6e" x="2058.837891"/>
     <use xlink:href="#DejaVuSans-Bold-65" x="2130.029297"/>
     <use xlink:href="#DejaVuSans-Bold-72" x="2197.851562"/>
     <use xlink:href="#DejaVuSans-Bold-61" x="2247.167969"/>
     <use xlink:href="#DejaVuSans-Bold-6c" x="2314.648438"/>
     <use xlink:href="#DejaVuSans-Bold-20" x="2348.925781"/>
     <use xlink:href="#DejaVuSans-Bold-72" x="2383.740234"/>
     <use xlink:href="#DejaVuSans-Bold-65" x="2433.056641"/>
     <use xlink:href="#DejaVuSans-Bold-67" x="2500.878906"/>
     <use xlink:href="#DejaVuSans-Bold-69" x="2572.460938"/>
     <use xlink:href="#DejaVuSans-Bold-73" x="2606.738281"/>
     <use xlink:href="#DejaVuSans-Bold-74" x="2666.259766"/>
     <use xlink:href="#DejaVuSans-Bold-65" x="2714.0625"/>
     <use xlink:href="#DejaVuSans-Bold-72" x="2781.884766"/>
     <use xlink:href="#DejaVuSans-Bold-2c" x="2816.451172"/>
     <use xlink:href="#DejaVuSans-Bold-20" x="2854.439453"/>
     <use xlink:href="#DejaVuSans-Bold-6d" x="2889.253906"/>
     <use xlink:href="#DejaVuSans-Bold-61" x="2993.453125"/>
     <use xlink:href="#DejaVuSans-Bold-78" x="3060.933594"/>
     <use xlink:href="#DejaVuSans-Bold-2d" x="3125.435547"/>
     <use xlink:href="#DejaVuSans-Bold-73" x="3166.939453"/>
     <use xlink:href="#DejaVuSans-Bold-70" x="3226.460938"/>
     <use xlink:href="#DejaVuSans-Bold-72" x="3298.042969"/>
     <use xlink:href="#DejaVuSans-Bold-65" x="3347.359375"/>
     <use xlink:href="#DejaVuSans-Bold-61" x="3415.181641"/>
     <use xlink:href="#DejaVuSans-Bold-64" x="3482.662109"/>
     <use xlink:href="#DejaVuSans-Bold-29" x="3554.244141"/>
    </g>
   </g>
   <g id="text_18">
    <!-- France -->
    <g style="fill: #17324d" transform="translate(86.715 260.158833) scale(0.11 -0.11)">
     <defs>
      <path id="DejaVuSans-46" d="M 628 4666 
L 3309 4666 
L 3309 4134 
L 1259 4134 
L 1259 2759 
L 3109 2759 
L 3109 2228 
L 1259 2228 
L 1259 0 
L 628 0 
L 628 4666 
z
" transform="scale(0.015625)"/>
      <path id="DejaVuSans-72" d="M 2631 2963 
Q 2534 3019 2420 3045 
Q 2306 3072 2169 3072 
Q 1681 3072 1420 2755 
Q 1159 2438 1159 1844 
L 1159 0 
L 581 0 
L 581 3500 
L 1159 3500 
L 1159 2956 
Q 1341 3275 1631 3429 
Q 1922 3584 2338 3584 
Q 2397 3584 2469 3576 
Q 2541 3569 2628 3553 
L 2631 2963 
z
" transform="scale(0.015625)"/>
      <path id="DejaVuSans-61" d="M 2194 1759 
Q 1497 1759 1228 1600 
Q 959 1441 959 1056 
Q 959 750 1161 570 
Q 1363 391 1709 391 
Q 2188 391 2477 730 
Q 2766 1069 2766 1631 
L 2766 1759 
L 2194 1759 
z
M 3341 1997 
L 3341 0 
L 2766 0 
L 2766 531 
Q 2569 213 2275 61 
Q 1981 -91 1556 -91 
Q 1019 -91 701 211 
Q 384 513 384 1019 
Q 384 1609 779 1909 
Q 1175 2209 1959 2209 
L 2766 2209 
L 2766 2266 
Q 2766 2663 2505 2880 
Q 2244 3097 1772 3097 
Q 1472 3097 1187 3025 
Q 903 2953 641 2809 
L 641 3341 
Q 956 3463 1253 3523 
Q 1550 3584 1831 3584 
Q 2591 3584 2966 3190 
Q 3341 2797 3341 1997 
z
" transform="scale(0.015625)"/>
      <path id="DejaVuSans-6e" d="M 3513 2113 
L 3513 0 
L 2938 0 
L 2938 2094 
Q 2938 2591 2744 2837 
Q 2550 3084 2163 3084 
Q 1697 3084 1428 2787 
Q 1159 2491 1159 1978 
L 1159 0 
L 581 0 
L 581 3500 
L 1159 3500 
L 1159 2956 
Q 1366 3272 1645 3428 
Q 1925 3584 2291 3584 
Q 2894 3584 3203 3211 
Q 3513 2838 3513 2113 
z
" transform="scale(0.015625)"/>
      <path id="DejaVuSans-63" d="M 3122 3366 
L 3122 2828 
Q 2878 2963 2633 3030 
Q 2388 3097 2138 3097 
Q 1578 3097 1268 2742 
Q 959 2388 959 1747 
Q 959 1106 1268 751 
Q 1578 397 2138 397 
Q 2388 397 2633 464 
Q 2878 531 3122 666 
L 3122 134 
Q 2881 22 2623 -34 
Q 2366 -91 2075 -91 
Q 1284 -91 818 406 
Q 353 903 353 1747 
Q 353 2603 823 3093 
Q 1294 3584 2113 3584 
Q 2378 3584 2631 3529 
Q 2884 3475 3122 3366 
z
" transform="scale(0.015625)"/>
      <path id="DejaVuSans-65" d="M 3597 1894 
L 3597 1613 
L 953 1613 
Q 991 1019 1311 708 
Q 1631 397 2203 397 
Q 2534 397 2845 478 
Q 3156 559 3463 722 
L 3463 178 
Q 3153 47 2828 -22 
Q 2503 -91 2169 -91 
Q 1331 -91 842 396 
Q 353 884 353 1716 
Q 353 2575 817 3079 
Q 1281 3584 2069 3584 
Q 2775 3584 3186 3129 
Q 3597 2675 3597 1894 
z
M 3022 2063 
Q 3016 2534 2758 2815 
Q 2500 3097 2075 3097 
Q 1594 3097 1305 2825 
Q 1016 2553 972 2059 
L 3022 2063 
z
" transform="scale(0.015625)"/>
     </defs>
     <use xlink:href="#DejaVuSans-46"/>
     <use xlink:href="#DejaVuSans-72" x="50.269531"/>
     <use xlink:href="#DejaVuSans-61" x="91.382812"/>
     <use xlink:href="#DejaVuSans-6e" x="152.662109"/>
     <use xlink:href="#DejaVuSans-63" x="216.041016"/>
     <use xlink:href="#DejaVuSans-65" x="271.021484"/>
    </g>
   </g>
   <g id="text_19">
    <!-- #459F83 -->
    <g style="fill: #555555" transform="translate(346.464 260.048754) scale(0.105 -0.105)">
     <use xlink:href="#DejaVuSansMono-23"/>
     <use xlink:href="#DejaVuSansMono-34" x="60.205078"/>
     <use xlink:href="#DejaVuSansMono-35" x="120.410156"/>
     <use xlink:href="#DejaVuSansMono-39" x="180.615234"/>
     <use xlink:href="#DejaVuSansMono-46" x="240.820312"/>
     <use xlink:href="#DejaVuSansMono-38" x="301.025391"/>
     <use xlink:href="#DejaVuSansMono-33" x="361.230469"/>
    </g>
   </g>
   <g id="text_20">
    <!-- Italy -->
    <g style="fill: #17324d" transform="translate(86.715 280.261377) scale(0.11 -0.11)">
     <defs>
      <path id="DejaVuSans-49" d="M 628 4666 
L 1259 4666 
L 1259 0 
L 628 0 
L 628 4666 
z
" transform="scale(0.015625)"/>
      <path id="DejaVuSans-74" d="M 1172 4494 
L 1172 3500 
L 2356 3500 
L 2356 3053 
L 1172 3053 
L 1172 1153 
Q 1172 725 1289 603 
Q 1406 481 1766 481 
L 2356 481 
L 2356 0 
L 1766 0 
Q 1100 0 847 248 
Q 594 497 594 1153 
L 594 3053 
L 172 3053 
L 172 3500 
L 594 3500 
L 594 4494 
L 1172 4494 
z
" transform="scale(0.015625)"/>
      <path id="DejaVuSans-6c" d="M 603 4863 
L 1178 4863 
L 1178 0 
L 603 0 
L 603 4863 
z
" transform="scale(0.015625)"/>
      <path id="DejaVuSans-79" d="M 2059 -325 
Q 1816 -950 1584 -1140 
Q 1353 -1331 966 -1331 
L 506 -1331 
L 506 -850 
L 844 -850 
Q 1081 -850 1212 -737 
Q 1344 -625 1503 -206 
L 1606 56 
L 191 3500 
L 800 3500 
L 1894 763 
L 2988 3500 
L 3597 3500 
L 2059 -325 
z
" transform="scale(0.015625)"/>
     </defs>
     <use xlink:href="#DejaVuSans-49"/>
     <use xlink:href="#DejaVuSans-74" x="29.492188"/>
     <use xlink:href="#DejaVuSans-61" x="68.701172"/>
     <use xlink:href="#DejaVuSans-6c" x="129.980469"/>
     <use xlink:href="#DejaVuSans-79" x="157.763672"/>
    </g>
   </g>
   <g id="text_21">
    <!-- #89507D -->
    <g style="fill: #555555" transform="translate(346.464 280.151298) scale(0.105 -0.105)">
     <use xlink:href="#DejaVuSansMono-23"/>
     <use xlink:href="#DejaVuSansMono-38" x="60.205078"/>
     <use xlink:href="#DejaVuSansMono-39" x="120.410156"/>
     <use xlink:href="#DejaVuSansMono-35" x="180.615234"/>
     <use xlink:href="#DejaVuSansMono-30" x="240.820312"/>
     <use xlink:href="#DejaVuSansMono-37" x="301.025391"/>
     <use xlink:href="#DejaVuSansMono-44" x="361.230469"/>
    </g>
   </g>
   <g id="text_22">
    <!-- South Korea -->
    <g style="fill: #17324d" transform="translate(86.715 300.363921) scale(0.11 -0.11)">
     <defs>
      <path id="DejaVuSans-53" d="M 3425 4513 
L 3425 3897 
Q 3066 4069 2747 4153 
Q 2428 4238 2131 4238 
Q 1616 4238 1336 4038 
Q 1056 3838 1056 3469 
Q 1056 3159 1242 3001 
Q 1428 2844 1947 2747 
L 2328 2669 
Q 3034 2534 3370 2195 
Q 3706 1856 3706 1288 
Q 3706 609 3251 259 
Q 2797 -91 1919 -91 
Q 1588 -91 1214 -16 
Q 841 59 441 206 
L 441 856 
Q 825 641 1194 531 
Q 1563 422 1919 422 
Q 2459 422 2753 634 
Q 3047 847 3047 1241 
Q 3047 1584 2836 1778 
Q 2625 1972 2144 2069 
L 1759 2144 
Q 1053 2284 737 2584 
Q 422 2884 422 3419 
Q 422 4038 858 4394 
Q 1294 4750 2059 4750 
Q 2388 4750 2728 4690 
Q 3069 4631 3425 4513 
z
" transform="scale(0.015625)"/>
      <path id="DejaVuSans-6f" d="M 1959 3097 
Q 1497 3097 1228 2736 
Q 959 2375 959 1747 
Q 959 1119 1226 758 
Q 1494 397 1959 397 
Q 2419 397 2687 759 
Q 2956 1122 2956 1747 
Q 2956 2369 2687 2733 
Q 2419 3097 1959 3097 
z
M 1959 3584 
Q 2709 3584 3137 3096 
Q 3566 2609 3566 1747 
Q 3566 888 3137 398 
Q 2709 -91 1959 -91 
Q 1206 -91 779 398 
Q 353 888 353 1747 
Q 353 2609 779 3096 
Q 1206 3584 1959 3584 
z
" transform="scale(0.015625)"/>
      <path id="DejaVuSans-75" d="M 544 1381 
L 544 3500 
L 1119 3500 
L 1119 1403 
Q 1119 906 1312 657 
Q 1506 409 1894 409 
Q 2359 409 2629 706 
Q 2900 1003 2900 1516 
L 2900 3500 
L 3475 3500 
L 3475 0 
L 2900 0 
L 2900 538 
Q 2691 219 2414 64 
Q 2138 -91 1772 -91 
Q 1169 -91 856 284 
Q 544 659 544 1381 
z
M 1991 3584 
L 1991 3584 
z
" transform="scale(0.015625)"/>
      <path id="DejaVuSans-68" d="M 3513 2113 
L 3513 0 
L 2938 0 
L 2938 2094 
Q 2938 2591 2744 2837 
Q 2550 3084 2163 3084 
Q 1697 3084 1428 2787 
Q 1159 2491 1159 1978 
L 1159 0 
L 581 0 
L 581 4863 
L 1159 4863 
L 1159 2956 
Q 1366 3272 1645 3428 
Q 1925 3584 2291 3584 
Q 2894 3584 3203 3211 
Q 3513 2838 3513 2113 
z
" transform="scale(0.015625)"/>
      <path id="DejaVuSans-20" transform="scale(0.015625)"/>
      <path id="DejaVuSans-4b" d="M 628 4666 
L 1259 4666 
L 1259 2694 
L 3353 4666 
L 4166 4666 
L 1850 2491 
L 4331 0 
L 3500 0 
L 1259 2247 
L 1259 0 
L 628 0 
L 628 4666 
z
" transform="scale(0.015625)"/>
     </defs>
     <use xlink:href="#DejaVuSans-53"/>
     <use xlink:href="#DejaVuSans-6f" x="63.476562"/>
     <use xlink:href="#DejaVuSans-75" x="124.658203"/>
     <use xlink:href="#DejaVuSans-74" x="188.037109"/>
     <use xlink:href="#DejaVuSans-68" x="227.246094"/>
     <use xlink:href="#DejaVuSans-20" x="290.625"/>
     <use xlink:href="#DejaVuSans-4b" x="322.412109"/>
     <use xlink:href="#DejaVuSans-6f" x="382.988281"/>
     <use xlink:href="#DejaVuSans-72" x="444.169922"/>
     <use xlink:href="#DejaVuSans-65" x="483.033203"/>
     <use xlink:href="#DejaVuSans-61" x="544.556641"/>
    </g>
   </g>
   <g id="text_23">
    <!-- #187ED5 -->
    <g style="fill: #555555" transform="translate(346.464 300.253842) scale(0.105 -0.105)">
     <defs>
      <path id="DejaVuSansMono-45" d="M 616 4666 
L 3384 4666 
L 3384 4134 
L 1247 4134 
L 1247 2753 
L 3291 2753 
L 3291 2222 
L 1247 2222 
L 1247 531 
L 3444 531 
L 3444 0 
L 616 0 
L 616 4666 
z
" transform="scale(0.015625)"/>
     </defs>
     <use xlink:href="#DejaVuSansMono-23"/>
     <use xlink:href="#DejaVuSansMono-31" x="60.205078"/>
     <use xlink:href="#DejaVuSansMono-38" x="120.410156"/>
     <use xlink:href="#DejaVuSansMono-37" x="180.615234"/>
     <use xlink:href="#DejaVuSansMono-45" x="240.820312"/>
     <use xlink:href="#DejaVuSansMono-44" x="301.025391"/>
     <use xlink:href="#DejaVuSansMono-35" x="361.230469"/>
    </g>
   </g>
   <g id="text_24">
    <!-- Netherlands -->
    <g style="fill: #17324d" transform="translate(86.715 320.466465) scale(0.11 -0.11)">
     <defs>
      <path id="DejaVuSans-4e" d="M 628 4666 
L 1478 4666 
L 3547 763 
L 3547 4666 
L 4159 4666 
L 4159 0 
L 3309 0 
L 1241 3903 
L 1241 0 
L 628 0 
L 628 4666 
z
" transform="scale(0.015625)"/>
      <path id="DejaVuSans-64" d="M 2906 2969 
L 2906 4863 
L 3481 4863 
L 3481 0 
L 2906 0 
L 2906 525 
Q 2725 213 2448 61 
Q 2172 -91 1784 -91 
Q 1150 -91 751 415 
Q 353 922 353 1747 
Q 353 2572 751 3078 
Q 1150 3584 1784 3584 
Q 2172 3584 2448 3432 
Q 2725 3281 2906 2969 
z
M 947 1747 
Q 947 1113 1208 752 
Q 1469 391 1925 391 
Q 2381 391 2643 752 
Q 2906 1113 2906 1747 
Q 2906 2381 2643 2742 
Q 2381 3103 1925 3103 
Q 1469 3103 1208 2742 
Q 947 2381 947 1747 
z
" transform="scale(0.015625)"/>
      <path id="DejaVuSans-73" d="M 2834 3397 
L 2834 2853 
Q 2591 2978 2328 3040 
Q 2066 3103 1784 3103 
Q 1356 3103 1142 2972 
Q 928 2841 928 2578 
Q 928 2378 1081 2264 
Q 1234 2150 1697 2047 
L 1894 2003 
Q 2506 1872 2764 1633 
Q 3022 1394 3022 966 
Q 3022 478 2636 193 
Q 2250 -91 1575 -91 
Q 1294 -91 989 -36 
Q 684 19 347 128 
L 347 722 
Q 666 556 975 473 
Q 1284 391 1588 391 
Q 1994 391 2212 530 
Q 2431 669 2431 922 
Q 2431 1156 2273 1281 
Q 2116 1406 1581 1522 
L 1381 1569 
Q 847 1681 609 1914 
Q 372 2147 372 2553 
Q 372 3047 722 3315 
Q 1072 3584 1716 3584 
Q 2034 3584 2315 3537 
Q 2597 3491 2834 3397 
z
" transform="scale(0.015625)"/>
     </defs>
     <use xlink:href="#DejaVuSans-4e"/>
     <use xlink:href="#DejaVuSans-65" x="74.804688"/>
     <use xlink:href="#DejaVuSans-74" x="136.328125"/>
     <use xlink:href="#DejaVuSans-68" x="175.537109"/>
     <use xlink:href="#DejaVuSans-65" x="238.916016"/>
     <use xlink:href="#DejaVuSans-72" x="300.439453"/>
     <use xlink:href="#DejaVuSans-6c" x="341.552734"/>
     <use xlink:href="#DejaVuSans-61" x="369.335938"/>
     <use xlink:href="#DejaVuSans-6e" x="430.615234"/>
     <use xlink:href="#DejaVuSans-64" x="493.994141"/>
     <use xlink:href="#DejaVuSans-73" x="557.470703"/>
    </g>
   </g>
   <g id="text_25">
    <!-- #7B6700 -->
    <g style="fill: #555555" transform="translate(346.464 320.356386) scale(0.105 -0.105)">
     <use xlink:href="#DejaVuSansMono-23"/>
     <use xlink:href="#DejaVuSansMono-37" x="60.205078"/>
     <use xlink:href="#DejaVuSansMono-42" x="120.410156"/>
     <use xlink:href="#DejaVuSansMono-36" x="180.615234"/>
     <use xlink:href="#DejaVuSansMono-37" x="240.820312"/>
     <use xlink:href="#DejaVuSansMono-30" x="301.025391"/>
     <use xlink:href="#DejaVuSansMono-30" x="361.230469"/>
    </g>
   </g>
   <g id="text_26">
    <!-- Switzerland -->
    <g style="fill: #17324d" transform="translate(86.715 340.569009) scale(0.11 -0.11)">
     <defs>
      <path id="DejaVuSans-77" d="M 269 3500 
L 844 3500 
L 1563 769 
L 2278 3500 
L 2956 3500 
L 3675 769 
L 4391 3500 
L 4966 3500 
L 4050 0 
L 3372 0 
L 2619 2869 
L 1863 0 
L 1184 0 
L 269 3500 
z
" transform="scale(0.015625)"/>
      <path id="DejaVuSans-69" d="M 603 3500 
L 1178 3500 
L 1178 0 
L 603 0 
L 603 3500 
z
M 603 4863 
L 1178 4863 
L 1178 4134 
L 603 4134 
L 603 4863 
z
" transform="scale(0.015625)"/>
      <path id="DejaVuSans-7a" d="M 353 3500 
L 3084 3500 
L 3084 2975 
L 922 459 
L 3084 459 
L 3084 0 
L 275 0 
L 275 525 
L 2438 3041 
L 353 3041 
L 353 3500 
z
" transform="scale(0.015625)"/>
     </defs>
     <use xlink:href="#DejaVuSans-53"/>
     <use xlink:href="#DejaVuSans-77" x="63.476562"/>
     <use xlink:href="#DejaVuSans-69" x="145.263672"/>
     <use xlink:href="#DejaVuSans-74" x="173.046875"/>
     <use xlink:href="#DejaVuSans-7a" x="212.255859"/>
     <use xlink:href="#DejaVuSans-65" x="264.746094"/>
     <use xlink:href="#DejaVuSans-72" x="326.269531"/>
     <use xlink:href="#DejaVuSans-6c" x="367.382812"/>
     <use xlink:href="#DejaVuSans-61" x="395.166016"/>
     <use xlink:href="#DejaVuSans-6e" x="456.445312"/>
     <use xlink:href="#DejaVuSans-64" x="519.824219"/>
    </g>
   </g>
   <g id="text_27">
    <!-- #B3704F -->
    <g style="fill: #555555" transform="translate(346.464 340.45893) scale(0.105 -0.105)">
     <use xlink:href="#DejaVuSansMono-23"/>
     <use xlink:href="#DejaVuSansMono-42" x="60.205078"/>
     <use xlink:href="#DejaVuSansMono-33" x="120.410156"/>
     <use xlink:href="#DejaVuSansMono-37" x="180.615234"/>
     <use xlink:href="#DejaVuSansMono-30" x="240.820312"/>
     <use xlink:href="#DejaVuSansMono-34" x="301.025391"/>
     <use xlink:href="#DejaVuSansMono-46" x="361.230469"/>
    </g>
   </g>
   <g id="text_28">
    <!-- Norway -->
    <g style="fill: #17324d" transform="translate(86.715 360.671553) scale(0.11 -0.11)">
     <use xlink:href="#DejaVuSans-4e"/>
     <use xlink:href="#DejaVuSans-6f" x="74.804688"/>
     <use xlink:href="#DejaVuSans-72" x="135.986328"/>
     <use xlink:href="#DejaVuSans-77" x="177.099609"/>
     <use xlink:href="#DejaVuSans-61" x="258.886719"/>
     <use xlink:href="#DejaVuSans-79" x="320.166016"/>
    </g>
   </g>
   <g id="text_29">
    <!-- #9D76B3 -->
    <g style="fill: #555555" transform="translate(346.464 360.561474) scale(0.105 -0.105)">
     <use xlink:href="#DejaVuSansMono-23"/>
     <use xlink:href="#DejaVuSansMono-39" x="60.205078"/>
     <use xlink:href="#DejaVuSansMono-44" x="120.410156"/>
     <use xlink:href="#DejaVuSansMono-37" x="180.615234"/>
     <use xlink:href="#DejaVuSansMono-36" x="240.820312"/>
     <use xlink:href="#DejaVuSansMono-42" x="301.025391"/>
     <use xlink:href="#DejaVuSansMono-33" x="361.230469"/>
    </g>
   </g>
   <g id="text_30">
    <!-- Denmark -->
    <g style="fill: #17324d" transform="translate(86.715 380.774097) scale(0.11 -0.11)">
     <defs>
      <path id="DejaVuSans-44" d="M 1259 4147 
L 1259 519 
L 2022 519 
Q 2988 519 3436 956 
Q 3884 1394 3884 2338 
Q 3884 3275 3436 3711 
Q 2988 4147 2022 4147 
L 1259 4147 
z
M 628 4666 
L 1925 4666 
Q 3281 4666 3915 4102 
Q 4550 3538 4550 2338 
Q 4550 1131 3912 565 
Q 3275 0 1925 0 
L 628 0 
L 628 4666 
z
" transform="scale(0.015625)"/>
      <path id="DejaVuSans-6d" d="M 3328 2828 
Q 3544 3216 3844 3400 
Q 4144 3584 4550 3584 
Q 5097 3584 5394 3201 
Q 5691 2819 5691 2113 
L 5691 0 
L 5113 0 
L 5113 2094 
Q 5113 2597 4934 2840 
Q 4756 3084 4391 3084 
Q 3944 3084 3684 2787 
Q 3425 2491 3425 1978 
L 3425 0 
L 2847 0 
L 2847 2094 
Q 2847 2600 2669 2842 
Q 2491 3084 2119 3084 
Q 1678 3084 1418 2786 
Q 1159 2488 1159 1978 
L 1159 0 
L 581 0 
L 581 3500 
L 1159 3500 
L 1159 2956 
Q 1356 3278 1631 3431 
Q 1906 3584 2284 3584 
Q 2666 3584 2933 3390 
Q 3200 3197 3328 2828 
z
" transform="scale(0.015625)"/>
      <path id="DejaVuSans-6b" d="M 581 4863 
L 1159 4863 
L 1159 1991 
L 2875 3500 
L 3609 3500 
L 1753 1863 
L 3688 0 
L 2938 0 
L 1159 1709 
L 1159 0 
L 581 0 
L 581 4863 
z
" transform="scale(0.015625)"/>
     </defs>
     <use xlink:href="#DejaVuSans-44"/>
     <use xlink:href="#DejaVuSans-65" x="77.001953"/>
     <use xlink:href="#DejaVuSans-6e" x="138.525391"/>
     <use xlink:href="#DejaVuSans-6d" x="201.904297"/>
     <use xlink:href="#DejaVuSans-61" x="299.316406"/>
     <use xlink:href="#DejaVuSans-72" x="360.595703"/>
     <use xlink:href="#DejaVuSans-6b" x="401.708984"/>
    </g>
   </g>
   <g id="text_31">
    <!-- #667C35 -->
    <g style="fill: #555555" transform="translate(346.464 380.664018) scale(0.105 -0.105)">
     <use xlink:href="#DejaVuSansMono-23"/>
     <use xlink:href="#DejaVuSansMono-36" x="60.205078"/>
     <use xlink:href="#DejaVuSansMono-36" x="120.410156"/>
     <use xlink:href="#DejaVuSansMono-37" x="180.615234"/>
     <use xlink:href="#DejaVuSansMono-43" x="240.820312"/>
     <use xlink:href="#DejaVuSansMono-33" x="301.025391"/>
     <use xlink:href="#DejaVuSansMono-35" x="361.230469"/>
    </g>
   </g>
   <g id="text_32">
    <!-- Finland -->
    <g style="fill: #17324d" transform="translate(86.715 400.876641) scale(0.11 -0.11)">
     <use xlink:href="#DejaVuSans-46"/>
     <use xlink:href="#DejaVuSans-69" x="50.269531"/>
     <use xlink:href="#DejaVuSans-6e" x="78.052734"/>
     <use xlink:href="#DejaVuSans-6c" x="141.431641"/>
     <use xlink:href="#DejaVuSans-61" x="169.214844"/>
     <use xlink:href="#DejaVuSans-6e" x="230.494141"/>
     <use xlink:href="#DejaVuSans-64" x="293.873047"/>
    </g>
   </g>
   <g id="text_33">
    <!-- #AA9252 -->
    <g style="fill: #555555" transform="translate(346.464 400.766562) scale(0.105 -0.105)">
     <use xlink:href="#DejaVuSansMono-23"/>
     <use xlink:href="#DejaVuSansMono-41" x="60.205078"/>
     <use xlink:href="#DejaVuSansMono-41" x="120.410156"/>
     <use xlink:href="#DejaVuSansMono-39" x="180.615234"/>
     <use xlink:href="#DejaVuSansMono-32" x="240.820312"/>
     <use xlink:href="#DejaVuSansMono-35" x="301.025391"/>
     <use xlink:href="#DejaVuSansMono-32" x="361.230469"/>
    </g>
   </g>
   <g id="text_34">
    <!-- Israel -->
    <g style="fill: #17324d" transform="translate(86.715 420.979185) scale(0.11 -0.11)">
     <use xlink:href="#DejaVuSans-49"/>
     <use xlink:href="#DejaVuSans-73" x="29.492188"/>
     <use xlink:href="#DejaVuSans-72" x="81.591797"/>
     <use xlink:href="#DejaVuSans-61" x="122.705078"/>
     <use xlink:href="#DejaVuSans-65" x="183.984375"/>
     <use xlink:href="#DejaVuSans-6c" x="245.507812"/>
    </g>
   </g>
   <g id="text_35">
    <!-- #685EA6 -->
    <g style="fill: #555555" transform="translate(346.464 420.869106) scale(0.105 -0.105)">
     <use xlink:href="#DejaVuSansMono-23"/>
     <use xlink:href="#DejaVuSansMono-36" x="60.205078"/>
     <use xlink:href="#DejaVuSansMono-38" x="120.410156"/>
     <use xlink:href="#DejaVuSansMono-35" x="180.615234"/>
     <use xlink:href="#DejaVuSansMono-45" x="240.820312"/>
     <use xlink:href="#DejaVuSansMono-41" x="301.025391"/>
     <use xlink:href="#DejaVuSansMono-36" x="361.230469"/>
    </g>
   </g>
   <g id="text_36">
    <!-- New Zealand -->
    <g style="fill: #17324d" transform="translate(86.715 441.081729) scale(0.11 -0.11)">
     <defs>
      <path id="DejaVuSans-5a" d="M 359 4666 
L 4025 4666 
L 4025 4184 
L 1075 531 
L 4097 531 
L 4097 0 
L 288 0 
L 288 481 
L 3238 4134 
L 359 4134 
L 359 4666 
z
" transform="scale(0.015625)"/>
     </defs>
     <use xlink:href="#DejaVuSans-4e"/>
     <use xlink:href="#DejaVuSans-65" x="74.804688"/>
     <use xlink:href="#DejaVuSans-77" x="136.328125"/>
     <use xlink:href="#DejaVuSans-20" x="218.115234"/>
     <use xlink:href="#DejaVuSans-5a" x="249.902344"/>
     <use xlink:href="#DejaVuSans-65" x="318.408203"/>
     <use xlink:href="#DejaVuSans-61" x="379.931641"/>
     <use xlink:href="#DejaVuSans-6c" x="441.210938"/>
     <use xlink:href="#DejaVuSans-61" x="468.994141"/>
     <use xlink:href="#DejaVuSans-6e" x="530.273438"/>
     <use xlink:href="#DejaVuSans-64" x="593.652344"/>
    </g>
   </g>
   <g id="text_37">
    <!-- #14753C -->
    <g style="fill: #555555" transform="translate(346.464 440.97165) scale(0.105 -0.105)">
     <use xlink:href="#DejaVuSansMono-23"/>
     <use xlink:href="#DejaVuSansMono-31" x="60.205078"/>
     <use xlink:href="#DejaVuSansMono-34" x="120.410156"/>
     <use xlink:href="#DejaVuSansMono-37" x="180.615234"/>
     <use xlink:href="#DejaVuSansMono-35" x="240.820312"/>
     <use xlink:href="#DejaVuSansMono-33" x="301.025391"/>
     <use xlink:href="#DejaVuSansMono-43" x="361.230469"/>
    </g>
   </g>
   <g id="text_38">
    <!-- Japan elevated to a 7th always-coloured comparator. Focal seven colour-blind-safe together; tails reserve red and stay distinct from the seven. -->
    <g style="fill: #777777" transform="translate(23.103 542.36232) scale(0.08 -0.08)">
     <defs>
      <path id="DejaVuSans-4a" d="M 628 4666 
L 1259 4666 
L 1259 325 
Q 1259 -519 939 -900 
Q 619 -1281 -91 -1281 
L -331 -1281 
L -331 -750 
L -134 -750 
Q 284 -750 456 -515 
Q 628 -281 628 325 
L 628 4666 
z
" transform="scale(0.015625)"/>
      <path id="DejaVuSans-70" d="M 1159 525 
L 1159 -1331 
L 581 -1331 
L 581 3500 
L 1159 3500 
L 1159 2969 
Q 1341 3281 1617 3432 
Q 1894 3584 2278 3584 
Q 2916 3584 3314 3078 
Q 3713 2572 3713 1747 
Q 3713 922 3314 415 
Q 2916 -91 2278 -91 
Q 1894 -91 1617 61 
Q 1341 213 1159 525 
z
M 3116 1747 
Q 3116 2381 2855 2742 
Q 2594 3103 2138 3103 
Q 1681 3103 1420 2742 
Q 1159 2381 1159 1747 
Q 1159 1113 1420 752 
Q 1681 391 2138 391 
Q 2594 391 2855 752 
Q 3116 1113 3116 1747 
z
" transform="scale(0.015625)"/>
      <path id="DejaVuSans-76" d="M 191 3500 
L 800 3500 
L 1894 563 
L 2988 3500 
L 3597 3500 
L 2284 0 
L 1503 0 
L 191 3500 
z
" transform="scale(0.015625)"/>
      <path id="DejaVuSans-37" d="M 525 4666 
L 3525 4666 
L 3525 4397 
L 1831 0 
L 1172 0 
L 2766 4134 
L 525 4134 
L 525 4666 
z
" transform="scale(0.015625)"/>
      <path id="DejaVuSans-2d" d="M 313 2009 
L 1997 2009 
L 1997 1497 
L 313 1497 
L 313 2009 
z
" transform="scale(0.015625)"/>
      <path id="DejaVuSans-2e" d="M 684 794 
L 1344 794 
L 1344 0 
L 684 0 
L 684 794 
z
" transform="scale(0.015625)"/>
      <path id="DejaVuSans-62" d="M 3116 1747 
Q 3116 2381 2855 2742 
Q 2594 3103 2138 3103 
Q 1681 3103 1420 2742 
Q 1159 2381 1159 1747 
Q 1159 1113 1420 752 
Q 1681 391 2138 391 
Q 2594 391 2855 752 
Q 3116 1113 3116 1747 
z
M 1159 2969 
Q 1341 3281 1617 3432 
Q 1894 3584 2278 3584 
Q 2916 3584 3314 3078 
Q 3713 2572 3713 1747 
Q 3713 922 3314 415 
Q 2916 -91 2278 -91 
Q 1894 -91 1617 61 
Q 1341 213 1159 525 
L 1159 0 
L 581 0 
L 581 4863 
L 1159 4863 
L 1159 2969 
z
" transform="scale(0.015625)"/>
      <path id="DejaVuSans-66" d="M 2375 4863 
L 2375 4384 
L 1825 4384 
Q 1516 4384 1395 4259 
Q 1275 4134 1275 3809 
L 1275 3500 
L 2222 3500 
L 2222 3053 
L 1275 3053 
L 1275 0 
L 697 0 
L 697 3053 
L 147 3053 
L 147 3500 
L 697 3500 
L 697 3744 
Q 697 4328 969 4595 
Q 1241 4863 1831 4863 
L 2375 4863 
z
" transform="scale(0.015625)"/>
      <path id="DejaVuSans-67" d="M 2906 1791 
Q 2906 2416 2648 2759 
Q 2391 3103 1925 3103 
Q 1463 3103 1205 2759 
Q 947 2416 947 1791 
Q 947 1169 1205 825 
Q 1463 481 1925 481 
Q 2391 481 2648 825 
Q 2906 1169 2906 1791 
z
M 3481 434 
Q 3481 -459 3084 -895 
Q 2688 -1331 1869 -1331 
Q 1566 -1331 1297 -1286 
Q 1028 -1241 775 -1147 
L 775 -588 
Q 1028 -725 1275 -790 
Q 1522 -856 1778 -856 
Q 2344 -856 2625 -561 
Q 2906 -266 2906 331 
L 2906 616 
Q 2728 306 2450 153 
Q 2172 0 1784 0 
Q 1141 0 747 490 
Q 353 981 353 1791 
Q 353 2603 747 3093 
Q 1141 3584 1784 3584 
Q 2172 3584 2450 3431 
Q 2728 3278 2906 2969 
L 2906 3500 
L 3481 3500 
L 3481 434 
z
" transform="scale(0.015625)"/>
      <path id="DejaVuSans-3b" d="M 750 3309 
L 1409 3309 
L 1409 2516 
L 750 2516 
L 750 3309 
z
M 750 794 
L 1409 794 
L 1409 256 
L 897 -744 
L 494 -744 
L 750 256 
L 750 794 
z
" transform="scale(0.015625)"/>
     </defs>
     <use xlink:href="#DejaVuSans-4a"/>
     <use xlink:href="#DejaVuSans-61" x="29.492188"/>
     <use xlink:href="#DejaVuSans-70" x="90.771484"/>
     <use xlink:href="#DejaVuSans-61" x="154.248047"/>
     <use xlink:href="#DejaVuSans-6e" x="215.527344"/>
     <use xlink:href="#DejaVuSans-20" x="278.90625"/>
     <use xlink:href="#DejaVuSans-65" x="310.693359"/>
     <use xlink:href="#DejaVuSans-6c" x="372.216797"/>
     <use xlink:href="#DejaVuSans-65" x="400"/>
     <use xlink:href="#DejaVuSans-76" x="461.523438"/>
     <use xlink:href="#DejaVuSans-61" x="520.703125"/>
     <use xlink:href="#DejaVuSans-74" x="581.982422"/>
     <use xlink:href="#DejaVuSans-65" x="621.191406"/>
     <use xlink:href="#DejaVuSans-64" x="682.714844"/>
     <use xlink:href="#DejaVuSans-20" x="746.191406"/>
     <use xlink:href="#DejaVuSans-74" x="777.978516"/>
     <use xlink:href="#DejaVuSans-6f" x="817.1875"/>
     <use xlink:href="#DejaVuSans-20" x="878.369141"/>
     <use xlink:href="#DejaVuSans-61" x="910.15625"/>
     <use xlink:href="#DejaVuSans-20" x="971.435547"/>
     <use xlink:href="#DejaVuSans-37" x="1003.222656"/>
     <use xlink:href="#DejaVuSans-74" x="1066.845703"/>
     <use xlink:href="#DejaVuSans-68" x="1106.054688"/>
     <use xlink:href="#DejaVuSans-20" x="1169.433594"/>
     <use xlink:href="#DejaVuSans-61" x="1201.220703"/>
     <use xlink:href="#DejaVuSans-6c" x="1262.5"/>
     <use xlink:href="#DejaVuSans-77" x="1290.283203"/>
     <use xlink:href="#DejaVuSans-61" x="1372.070312"/>
     <use xlink:href="#DejaVuSans-79" x="1433.349609"/>
     <use xlink:href="#DejaVuSans-73" x="1492.529297"/>
     <use xlink:href="#DejaVuSans-2d" x="1544.628906"/>
     <use xlink:href="#DejaVuSans-63" x="1580.712891"/>
     <use xlink:href="#DejaVuSans-6f" x="1635.693359"/>
     <use xlink:href="#DejaVuSans-6c" x="1696.875"/>
     <use xlink:href="#DejaVuSans-6f" x="1724.658203"/>
     <use xlink:href="#DejaVuSans-75" x="1785.839844"/>
     <use xlink:href="#DejaVuSans-72" x="1849.21875"/>
     <use xlink:href="#DejaVuSans-65" x="1888.082031"/>
     <use xlink:href="#DejaVuSans-64" x="1949.605469"/>
     <use xlink:href="#DejaVuSans-20" x="2013.082031"/>
     <use xlink:href="#DejaVuSans-63" x="2044.869141"/>
     <use xlink:href="#DejaVuSans-6f" x="2099.849609"/>
     <use xlink:href="#DejaVuSans-6d" x="2161.03125"/>
     <use xlink:href="#DejaVuSans-70" x="2258.443359"/>
     <use xlink:href="#DejaVuSans-61" x="2321.919922"/>
     <use xlink:href="#DejaVuSans-72" x="2383.199219"/>
     <use xlink:href="#DejaVuSans-61" x="2424.3125"/>
     <use xlink:href="#DejaVuSans-74" x="2485.591797"/>
     <use xlink:href="#DejaVuSans-6f" x="2524.800781"/>
     <use xlink:href="#DejaVuSans-72" x="2585.982422"/>
     <use xlink:href="#DejaVuSans-2e" x="2617.970703"/>
     <use xlink:href="#DejaVuSans-20" x="2649.757812"/>
     <use xlink:href="#DejaVuSans-46" x="2681.544922"/>
     <use xlink:href="#DejaVuSans-6f" x="2735.439453"/>
     <use xlink:href="#DejaVuSans-63" x="2796.621094"/>
     <use xlink:href="#DejaVuSans-61" x="2851.601562"/>
     <use xlink:href="#DejaVuSans-6c" x="2912.880859"/>
     <use xlink:href="#DejaVuSans-20" x="2940.664062"/>
     <use xlink:href="#DejaVuSans-73" x="2972.451172"/>
     <use xlink:href="#DejaVuSans-65" x="3024.550781"/>
     <use xlink:href="#DejaVuSans-76" x="3086.074219"/>
     <use xlink:href="#DejaVuSans-65" x="3145.253906"/>
     <use xlink:href="#DejaVuSans-6e" x="3206.777344"/>
     <use xlink:href="#DejaVuSans-20" x="3270.15625"/>
     <use xlink:href="#DejaVuSans-63" x="3301.943359"/>
     <use xlink:href="#DejaVuSans-6f" x="3356.923828"/>
     <use xlink:href="#DejaVuSans-6c" x="3418.105469"/>
     <use xlink:href="#DejaVuSans-6f" x="3445.888672"/>
     <use xlink:href="#DejaVuSans-75" x="3507.070312"/>
     <use xlink:href="#DejaVuSans-72" x="3570.449219"/>
     <use xlink:href="#DejaVuSans-2d" x="3605.1875"/>
     <use xlink:href="#DejaVuSans-62" x="3641.271484"/>
     <use xlink:href="#DejaVuSans-6c" x="3704.748047"/>
     <use xlink:href="#DejaVuSans-69" x="3732.53125"/>
     <use xlink:href="#DejaVuSans-6e" x="3760.314453"/>
     <use xlink:href="#DejaVuSans-64" x="3823.693359"/>
     <use xlink:href="#DejaVuSans-2d" x="3887.169922"/>
     <use xlink:href="#DejaVuSans-73" x="3923.253906"/>
     <use xlink:href="#DejaVuSans-61" x="3975.353516"/>
     <use xlink:href="#DejaVuSans-66" x="4036.632812"/>
     <use xlink:href="#DejaVuSans-65" x="4071.837891"/>
     <use xlink:href="#DejaVuSans-20" x="4133.361328"/>
     <use xlink:href="#DejaVuSans-74" x="4165.148438"/>
     <use xlink:href="#DejaVuSans-6f" x="4204.357422"/>
     <use xlink:href="#DejaVuSans-67" x="4265.539062"/>
     <use xlink:href="#DejaVuSans-65" x="4329.015625"/>
     <use xlink:href="#DejaVuSans-74" x="4390.539062"/>
     <use xlink:href="#DejaVuSans-68" x="4429.748047"/>
     <use xlink:href="#DejaVuSans-65" x="4493.126953"/>
     <use xlink:href="#DejaVuSans-72" x="4554.650391"/>
     <use xlink:href="#DejaVuSans-3b" x="4595.763672"/>
     <use xlink:href="#DejaVuSans-20" x="4629.455078"/>
     <use xlink:href="#DejaVuSans-74" x="4661.242188"/>
     <use xlink:href="#DejaVuSans-61" x="4700.451172"/>
     <use xlink:href="#DejaVuSans-69" x="4761.730469"/>
     <use xlink:href="#DejaVuSans-6c" x="4789.513672"/>
     <use xlink:href="#DejaVuSans-73" x="4817.296875"/>
     <use xlink:href="#DejaVuSans-20" x="4869.396484"/>
     <use xlink:href="#DejaVuSans-72" x="4901.183594"/>
     <use xlink:href="#DejaVuSans-65" x="4940.046875"/>
     <use xlink:href="#DejaVuSans-73" x="5001.570312"/>
     <use xlink:href="#DejaVuSans-65" x="5053.669922"/>
     <use xlink:href="#DejaVuSans-72" x="5115.193359"/>
     <use xlink:href="#DejaVuSans-76" x="5156.306641"/>
     <use xlink:href="#DejaVuSans-65" x="5215.486328"/>
     <use xlink:href="#DejaVuSans-20" x="5277.009766"/>
     <use xlink:href="#DejaVuSans-72" x="5308.796875"/>
     <use xlink:href="#DejaVuSans-65" x="5347.660156"/>
     <use xlink:href="#DejaVuSans-64" x="5409.183594"/>
     <use xlink:href="#DejaVuSans-20" x="5472.660156"/>
     <use xlink:href="#DejaVuSans-61" x="5504.447266"/>
     <use xlink:href="#DejaVuSans-6e" x="5565.726562"/>
     <use xlink:href="#DejaVuSans-64" x="5629.105469"/>
     <use xlink:href="#DejaVuSans-20" x="5692.582031"/>
     <use xlink:href="#DejaVuSans-73" x="5724.369141"/>
     <use xlink:href="#DejaVuSans-74" x="5776.46875"/>
     <use xlink:href="#DejaVuSans-61" x="5815.677734"/>
     <use xlink:href="#DejaVuSans-79" x="5876.957031"/>
     <use xlink:href="#DejaVuSans-20" x="5936.136719"/>
     <use xlink:href="#DejaVuSans-64" x="5967.923828"/>
     <use xlink:href="#DejaVuSans-69" x="6031.400391"/>
     <use xlink:href="#DejaVuSans-73" x="6059.183594"/>
     <use xlink:href="#DejaVuSans-74" x="6111.283203"/>
     <use xlink:href="#DejaVuSans-69" x="6150.492188"/>
     <use xlink:href="#DejaVuSans-6e" x="6178.275391"/>
     <use xlink:href="#DejaVuSans-63" x="6241.654297"/>
     <use xlink:href="#DejaVuSans-74" x="6296.634766"/>
     <use xlink:href="#DejaVuSans-20" x="6335.84375"/>
     <use xlink:href="#DejaVuSans-66" x="6367.630859"/>
     <use xlink:href="#DejaVuSans-72" x="6402.835938"/>
     <use xlink:href="#DejaVuSans-6f" x="6441.699219"/>
     <use xlink:href="#DejaVuSans-6d" x="6502.880859"/>
     <use xlink:href="#DejaVuSans-20" x="6600.292969"/>
     <use xlink:href="#DejaVuSans-74" x="6632.080078"/>
     <use xlink:href="#DejaVuSans-68" x="6671.289062"/>
     <use xlink:href="#DejaVuSans-65" x="6734.667969"/>
     <use xlink:href="#DejaVuSans-20" x="6796.191406"/>
     <use xlink:href="#DejaVuSans-73" x="6827.978516"/>
     <use xlink:href="#DejaVuSans-65" x="6880.078125"/>
     <use xlink:href="#DejaVuSans-76" x="6941.601562"/>
     <use xlink:href="#DejaVuSans-65" x="7000.78125"/>
     <use xlink:href="#DejaVuSans-6e" x="7062.304688"/>
     <use xlink:href="#DejaVuSans-2e" x="7125.683594"/>
    </g>
   </g>
  </g>
 </g>
 <defs>
  <clipPath id="p8b2762710d">
   <rect x="7.2" y="7.2" width="530.1" height="543.312"/>
  </clipPath>
 </defs>
</svg>
