<svg xmlns="http://www.w3.org/2000/svg" viewBox="0 0 660 660"><rect width="660" height="660" fill="#F7F4EE"/><text x="330" y="28" font-family="'Radio Canada', 'Helvetica Neue', Arial, sans-serif" font-size="17" font-weight="700" fill="#17324D" text-anchor="middle">Outline studies — display cut as stroke only</text><rect x="15" y="44" width="150" height="150" fill="#FFFFFF" stroke="#D9DEE5"/><g transform="translate(15,44) scale(1.5)"><path d="M 50.0 4.0 Q 50.0 4.0 50.4 5.1 L 51.9 9.2 Q 53.2 13.0 55.0 11.5 L 56.6 10.3 Q 57.5 9.5 57.6 10.7 L 57.9 15.0 Q 58.2 19.0 60.4 17.5 L 62.5 16.2 Q 63.5 15.5 63.3 16.7 L 61.7 26.1 Q 60.5 33.0 64.5 29.6 L 69.1 25.8 Q 70.0 25.0 70.3 26.1 L 70.9 27.9 Q 71.5 30.0 74.2 27.0 L 82.2 17.9 Q 83.0 17.0 83.1 18.2 L 83.6 22.2 Q 84.0 26.0 86.1 25.6 L 87.8 25.2 Q 89.0 25.0 88.4 26.0 L 83.2 34.1 Q 79.5 40.0 83.9 41.3 L 88.8 42.7 Q 90.0 43.0 89.3 44.0 L 86.8 47.6 Q 84.5 51.0 85.1 51.8 L 85.4 52.2 Q 86.0 53.0 84.9 53.3 L 73.7 56.7 Q 66.0 59.0 60.1 59.4 L 54.0 59.9 Q 52.0 60.0 51.7 61.3 L 51.4 62.2 Q 51.2 63.0 51.2 63.8 L 50.8 87.2 Q 50.8 88.0 50.1 88.0 L 49.9 88.0 Q 49.2 88.0 49.2 87.2 L 48.8 63.8 Q 48.8 63.0 48.6 62.2 L 48.3 61.3 Q 48.0 60.0 46.0 59.9 L 39.9 59.4 Q 34.0 59.0 26.3 56.7 L 15.1 53.3 Q 14.0 53.0 14.6 52.2 L 14.9 51.8 Q 15.5 51.0 13.2 47.6 L 10.7 44.0 Q 10.0 43.0 11.2 42.7 L 16.1 41.3 Q 20.5 40.0 16.8 34.1 L 11.6 26.0 Q 11.0 25.0 12.2 25.2 L 13.9 25.6 Q 16.0 26.0 16.4 22.2 L 16.9 18.2 Q 17.0 17.0 17.8 17.9 L 25.8 27.0 Q 28.5 30.0 29.1 27.9 L 29.7 26.1 Q 30.0 25.0 30.9 25.8 L 35.5 29.6 Q 39.5 33.0 38.3 26.1 L 36.7 16.7 Q 36.5 15.5 37.5 16.2 L 39.6 17.5 Q 41.8 19.0 42.1 15.0 L 42.4 10.7 Q 42.5 9.5 43.4 10.3 L 45.0 11.5 Q 46.8 13.0 48.1 9.2 L 49.6 5.1 Q 50.0 4.0 50.0 4.0 Z" fill="none" stroke="#1A1A1A" stroke-width="2.0" stroke-linejoin="round"/></g><text x="90" y="212" font-family="'Radio Canada', 'Helvetica Neue', Arial, sans-serif" font-size="13" fill="#17324D" text-anchor="middle">black 2.0</text><rect x="175" y="44" width="150" height="150" fill="#FFFFFF" stroke="#D9DEE5"/><g transform="translate(175,44) scale(1.5)"><path d="M 50.0 4.0 Q 50.0 4.0 50.4 5.1 L 51.9 9.2 Q 53.2 13.0 55.0 11.5 L 56.6 10.3 Q 57.5 9.5 57.6 10.7 L 57.9 15.0 Q 58.2 19.0 60.4 17.5 L 62.5 16.2 Q 63.5 15.5 63.3 16.7 L 61.7 26.1 Q 60.5 33.0 64.5 29.6 L 69.1 25.8 Q 70.0 25.0 70.3 26.1 L 70.9 27.9 Q 71.5 30.0 74.2 27.0 L 82.2 17.9 Q 83.0 17.0 83.1 18.2 L 83.6 22.2 Q 84.0 26.0 86.1 25.6 L 87.8 25.2 Q 89.0 25.0 88.4 26.0 L 83.2 34.1 Q 79.5 40.0 83.9 41.3 L 88.8 42.7 Q 90.0 43.0 89.3 44.0 L 86.8 47.6 Q 84.5 51.0 85.1 51.8 L 85.4 52.2 Q 86.0 53.0 84.9 53.3 L 73.7 56.7 Q 66.0 59.0 60.1 59.4 L 54.0 59.9 Q 52.0 60.0 51.7 61.3 L 51.4 62.2 Q 51.2 63.0 51.2 63.8 L 50.8 87.2 Q 50.8 88.0 50.1 88.0 L 49.9 88.0 Q 49.2 88.0 49.2 87.2 L 48.8 63.8 Q 48.8 63.0 48.6 62.2 L 48.3 61.3 Q 48.0 60.0 46.0 59.9 L 39.9 59.4 Q 34.0 59.0 26.3 56.7 L 15.1 53.3 Q 14.0 53.0 14.6 52.2 L 14.9 51.8 Q 15.5 51.0 13.2 47.6 L 10.7 44.0 Q 10.0 43.0 11.2 42.7 L 16.1 41.3 Q 20.5 40.0 16.8 34.1 L 11.6 26.0 Q 11.0 25.0 12.2 25.2 L 13.9 25.6 Q 16.0 26.0 16.4 22.2 L 16.9 18.2 Q 17.0 17.0 17.8 17.9 L 25.8 27.0 Q 28.5 30.0 29.1 27.9 L 29.7 26.1 Q 30.0 25.0 30.9 25.8 L 35.5 29.6 Q 39.5 33.0 38.3 26.1 L 36.7 16.7 Q 36.5 15.5 37.5 16.2 L 39.6 17.5 Q 41.8 19.0 42.1 15.0 L 42.4 10.7 Q 42.5 9.5 43.4 10.3 L 45.0 11.5 Q 46.8 13.0 48.1 9.2 L 49.6 5.1 Q 50.0 4.0 50.0 4.0 Z" fill="none" stroke="#1A1A1A" stroke-width="2.8" stroke-linejoin="round"/></g><text x="250" y="212" font-family="'Radio Canada', 'Helvetica Neue', Arial, sans-serif" font-size="13" fill="#17324D" text-anchor="middle">black 2.8</text><rect x="335" y="44" width="150" height="150" fill="#FFFFFF" stroke="#D9DEE5"/><g transform="translate(335,44) scale(1.5)"><path d="M 50.0 4.0 Q 50.0 4.0 50.4 5.1 L 51.9 9.2 Q 53.2 13.0 55.0 11.5 L 56.6 10.3 Q 57.5 9.5 57.6 10.7 L 57.9 15.0 Q 58.2 19.0 60.4 17.5 L 62.5 16.2 Q 63.5 15.5 63.3 16.7 L 61.7 26.1 Q 60.5 33.0 64.5 29.6 L 69.1 25.8 Q 70.0 25.0 70.3 26.1 L 70.9 27.9 Q 71.5 30.0 74.2 27.0 L 82.2 17.9 Q 83.0 17.0 83.1 18.2 L 83.6 22.2 Q 84.0 26.0 86.1 25.6 L 87.8 25.2 Q 89.0 25.0 88.4 26.0 L 83.2 34.1 Q 79.5 40.0 83.9 41.3 L 88.8 42.7 Q 90.0 43.0 89.3 44.0 L 86.8 47.6 Q 84.5 51.0 85.1 51.8 L 85.4 52.2 Q 86.0 53.0 84.9 53.3 L 73.7 56.7 Q 66.0 59.0 60.1 59.4 L 54.0 59.9 Q 52.0 60.0 51.7 61.3 L 51.4 62.2 Q 51.2 63.0 51.2 63.8 L 50.8 87.2 Q 50.8 88.0 50.1 88.0 L 49.9 88.0 Q 49.2 88.0 49.2 87.2 L 48.8 63.8 Q 48.8 63.0 48.6 62.2 L 48.3 61.3 Q 48.0 60.0 46.0 59.9 L 39.9 59.4 Q 34.0 59.0 26.3 56.7 L 15.1 53.3 Q 14.0 53.0 14.6 52.2 L 14.9 51.8 Q 15.5 51.0 13.2 47.6 L 10.7 44.0 Q 10.0 43.0 11.2 42.7 L 16.1 41.3 Q 20.5 40.0 16.8 34.1 L 11.6 26.0 Q 11.0 25.0 12.2 25.2 L 13.9 25.6 Q 16.0 26.0 16.4 22.2 L 16.9 18.2 Q 17.0 17.0 17.8 17.9 L 25.8 27.0 Q 28.5 30.0 29.1 27.9 L 29.7 26.1 Q 30.0 25.0 30.9 25.8 L 35.5 29.6 Q 39.5 33.0 38.3 26.1 L 36.7 16.7 Q 36.5 15.5 37.5 16.2 L 39.6 17.5 Q 41.8 19.0 42.1 15.0 L 42.4 10.7 Q 42.5 9.5 43.4 10.3 L 45.0 11.5 Q 46.8 13.0 48.1 9.2 L 49.6 5.1 Q 50.0 4.0 50.0 4.0 Z" fill="none" stroke="#7A263A" stroke-width="2.4" stroke-linejoin="round"/></g><text x="410" y="212" font-family="'Radio Canada', 'Helvetica Neue', Arial, sans-serif" font-size="13" fill="#17324D" text-anchor="middle">maroon 2.4</text><rect x="495" y="44" width="150" height="150" fill="#FFFFFF" stroke="#D9DEE5"/><g transform="translate(495,44) scale(1.5)"><path d="M 50.0 4.0 Q 50.0 4.0 50.4 5.1 L 51.9 9.2 Q 53.2 13.0 55.0 11.5 L 56.6 10.3 Q 57.5 9.5 57.6 10.7 L 57.9 15.0 Q 58.2 19.0 60.4 17.5 L 62.5 16.2 Q 63.5 15.5 63.3 16.7 L 61.7 26.1 Q 60.5 33.0 64.5 29.6 L 69.1 25.8 Q 70.0 25.0 70.3 26.1 L 70.9 27.9 Q 71.5 30.0 74.2 27.0 L 82.2 17.9 Q 83.0 17.0 83.1 18.2 L 83.6 22.2 Q 84.0 26.0 86.1 25.6 L 87.8 25.2 Q 89.0 25.0 88.4 26.0 L 83.2 34.1 Q 79.5 40.0 83.9 41.3 L 88.8 42.7 Q 90.0 43.0 89.3 44.0 L 86.8 47.6 Q 84.5 51.0 85.1 51.8 L 85.4 52.2 Q 86.0 53.0 84.9 53.3 L 73.7 56.7 Q 66.0 59.0 60.1 59.4 L 54.0 59.9 Q 52.0 60.0 51.7 61.3 L 51.4 62.2 Q 51.2 63.0 51.2 63.8 L 50.8 87.2 Q 50.8 88.0 50.1 88.0 L 49.9 88.0 Q 49.2 88.0 49.2 87.2 L 48.8 63.8 Q 48.8 63.0 48.6 62.2 L 48.3 61.3 Q 48.0 60.0 46.0 59.9 L 39.9 59.4 Q 34.0 59.0 26.3 56.7 L 15.1 53.3 Q 14.0 53.0 14.6 52.2 L 14.9 51.8 Q 15.5 51.0 13.2 47.6 L 10.7 44.0 Q 10.0 43.0 11.2 42.7 L 16.1 41.3 Q 20.5 40.0 16.8 34.1 L 11.6 26.0 Q 11.0 25.0 12.2 25.2 L 13.9 25.6 Q 16.0 26.0 16.4 22.2 L 16.9 18.2 Q 17.0 17.0 17.8 17.9 L 25.8 27.0 Q 28.5 30.0 29.1 27.9 L 29.7 26.1 Q 30.0 25.0 30.9 25.8 L 35.5 29.6 Q 39.5 33.0 38.3 26.1 L 36.7 16.7 Q 36.5 15.5 37.5 16.2 L 39.6 17.5 Q 41.8 19.0 42.1 15.0 L 42.4 10.7 Q 42.5 9.5 43.4 10.3 L 45.0 11.5 Q 46.8 13.0 48.1 9.2 L 49.6 5.1 Q 50.0 4.0 50.0 4.0 Z" fill="none" stroke="#17324D" stroke-width="2.4" stroke-linejoin="round"/></g><text x="570" y="212" font-family="'Radio Canada', 'Helvetica Neue', Arial, sans-serif" font-size="13" fill="#17324D" text-anchor="middle">navy 2.4</text><rect x="15" y="236" width="150" height="150" fill="#F7F4EE" stroke="#D9DEE5"/><g transform="translate(15,236) scale(1.5)"><defs><path id="LOa" d="M 50.0 4.0 Q 50.0 4.0 50.4 5.1 L 51.9 9.2 Q 53.2 13.0 55.0 11.5 L 56.6 10.3 Q 57.5 9.5 57.6 10.7 L 57.9 15.0 Q 58.2 19.0 60.4 17.5 L 62.5 16.2 Q 63.5 15.5 63.3 16.7 L 61.7 26.1 Q 60.5 33.0 64.5 29.6 L 69.1 25.8 Q 70.0 25.0 70.3 26.1 L 70.9 27.9 Q 71.5 30.0 74.2 27.0 L 82.2 17.9 Q 83.0 17.0 83.1 18.2 L 83.6 22.2 Q 84.0 26.0 86.1 25.6 L 87.8 25.2 Q 89.0 25.0 88.4 26.0 L 83.2 34.1 Q 79.5 40.0 83.9 41.3 L 88.8 42.7 Q 90.0 43.0 89.3 44.0 L 86.8 47.6 Q 84.5 51.0 85.1 51.8 L 85.4 52.2 Q 86.0 53.0 84.9 53.3 L 73.7 56.7 Q 66.0 59.0 60.1 59.4 L 54.0 59.9 Q 52.0 60.0 51.7 61.3 L 51.4 62.2 Q 51.2 63.0 51.2 63.8 L 50.8 87.2 Q 50.8 88.0 50.1 88.0 L 49.9 88.0 Q 49.2 88.0 49.2 87.2 L 48.8 63.8 Q 48.8 63.0 48.6 62.2 L 48.3 61.3 Q 48.0 60.0 46.0 59.9 L 39.9 59.4 Q 34.0 59.0 26.3 56.7 L 15.1 53.3 Q 14.0 53.0 14.6 52.2 L 14.9 51.8 Q 15.5 51.0 13.2 47.6 L 10.7 44.0 Q 10.0 43.0 11.2 42.7 L 16.1 41.3 Q 20.5 40.0 16.8 34.1 L 11.6 26.0 Q 11.0 25.0 12.2 25.2 L 13.9 25.6 Q 16.0 26.0 16.4 22.2 L 16.9 18.2 Q 17.0 17.0 17.8 17.9 L 25.8 27.0 Q 28.5 30.0 29.1 27.9 L 29.7 26.1 Q 30.0 25.0 30.9 25.8 L 35.5 29.6 Q 39.5 33.0 38.3 26.1 L 36.7 16.7 Q 36.5 15.5 37.5 16.2 L 39.6 17.5 Q 41.8 19.0 42.1 15.0 L 42.4 10.7 Q 42.5 9.5 43.4 10.3 L 45.0 11.5 Q 46.8 13.0 48.1 9.2 L 49.6 5.1 Q 50.0 4.0 50.0 4.0 Z"/><clipPath id="Wa0"><path d="M 50 44 L 3.9 -39.1 L 97.5 -38.3 Z"/></clipPath><clipPath id="Wa1"><path d="M 50 44 L 97.5 -38.3 L 142.9 24.2 Z"/></clipPath><clipPath id="Wa2"><path d="M 50 44 L 142.9 24.2 L 113.6 114.6 Z"/></clipPath><clipPath id="Wa3"><path d="M 50 44 L 113.6 114.6 L -12.3 115.7 Z"/></clipPath><clipPath id="Wa4"><path d="M 50 44 L -12.3 115.7 L -42.9 24.2 Z"/></clipPath><clipPath id="Wa5"><path d="M 50 44 L -42.9 24.2 L 3.9 -39.1 Z"/></clipPath></defs><g clip-path="url(#Wa0)"><use href="#LOa" fill="none" stroke="#C2972F" stroke-width="2.6" stroke-linejoin="round"/></g><g clip-path="url(#Wa1)"><use href="#LOa" fill="none" stroke="#17324D" stroke-width="2.6" stroke-linejoin="round"/></g><g clip-path="url(#Wa2)"><use href="#LOa" fill="none" stroke="#2A7F9E" stroke-width="2.6" stroke-linejoin="round"/></g><g clip-path="url(#Wa3)"><use href="#LOa" fill="none" stroke="#7A263A" stroke-width="2.6" stroke-linejoin="round"/></g><g clip-path="url(#Wa4)"><use href="#LOa" fill="none" stroke="#3F6F5E" stroke-width="2.6" stroke-linejoin="round"/></g><g clip-path="url(#Wa5)"><use href="#LOa" fill="none" stroke="#6B7280" stroke-width="2.6" stroke-linejoin="round"/></g></g><text x="90" y="404" font-family="'Radio Canada', 'Helvetica Neue', Arial, sans-serif" font-size="13" fill="#17324D" text-anchor="middle">cells outline / off-white</text><rect x="175" y="236" width="150" height="150" fill="#FFFFFF" stroke="#D9DEE5"/><g transform="translate(175,236) scale(1.5)"><defs><path id="LOb" d="M 50.0 4.0 Q 50.0 4.0 50.4 5.1 L 51.9 9.2 Q 53.2 13.0 55.0 11.5 L 56.6 10.3 Q 57.5 9.5 57.6 10.7 L 57.9 15.0 Q 58.2 19.0 60.4 17.5 L 62.5 16.2 Q 63.5 15.5 63.3 16.7 L 61.7 26.1 Q 60.5 33.0 64.5 29.6 L 69.1 25.8 Q 70.0 25.0 70.3 26.1 L 70.9 27.9 Q 71.5 30.0 74.2 27.0 L 82.2 17.9 Q 83.0 17.0 83.1 18.2 L 83.6 22.2 Q 84.0 26.0 86.1 25.6 L 87.8 25.2 Q 89.0 25.0 88.4 26.0 L 83.2 34.1 Q 79.5 40.0 83.9 41.3 L 88.8 42.7 Q 90.0 43.0 89.3 44.0 L 86.8 47.6 Q 84.5 51.0 85.1 51.8 L 85.4 52.2 Q 86.0 53.0 84.9 53.3 L 73.7 56.7 Q 66.0 59.0 60.1 59.4 L 54.0 59.9 Q 52.0 60.0 51.7 61.3 L 51.4 62.2 Q 51.2 63.0 51.2 63.8 L 50.8 87.2 Q 50.8 88.0 50.1 88.0 L 49.9 88.0 Q 49.2 88.0 49.2 87.2 L 48.8 63.8 Q 48.8 63.0 48.6 62.2 L 48.3 61.3 Q 48.0 60.0 46.0 59.9 L 39.9 59.4 Q 34.0 59.0 26.3 56.7 L 15.1 53.3 Q 14.0 53.0 14.6 52.2 L 14.9 51.8 Q 15.5 51.0 13.2 47.6 L 10.7 44.0 Q 10.0 43.0 11.2 42.7 L 16.1 41.3 Q 20.5 40.0 16.8 34.1 L 11.6 26.0 Q 11.0 25.0 12.2 25.2 L 13.9 25.6 Q 16.0 26.0 16.4 22.2 L 16.9 18.2 Q 17.0 17.0 17.8 17.9 L 25.8 27.0 Q 28.5 30.0 29.1 27.9 L 29.7 26.1 Q 30.0 25.0 30.9 25.8 L 35.5 29.6 Q 39.5 33.0 38.3 26.1 L 36.7 16.7 Q 36.5 15.5 37.5 16.2 L 39.6 17.5 Q 41.8 19.0 42.1 15.0 L 42.4 10.7 Q 42.5 9.5 43.4 10.3 L 45.0 11.5 Q 46.8 13.0 48.1 9.2 L 49.6 5.1 Q 50.0 4.0 50.0 4.0 Z"/><clipPath id="Wb0"><path d="M 50 44 L 3.9 -39.1 L 97.5 -38.3 Z"/></clipPath><clipPath id="Wb1"><path d="M 50 44 L 97.5 -38.3 L 142.9 24.2 Z"/></clipPath><clipPath id="Wb2"><path d="M 50 44 L 142.9 24.2 L 113.6 114.6 Z"/></clipPath><clipPath id="Wb3"><path d="M 50 44 L 113.6 114.6 L -12.3 115.7 Z"/></clipPath><clipPath id="Wb4"><path d="M 50 44 L -12.3 115.7 L -42.9 24.2 Z"/></clipPath><clipPath id="Wb5"><path d="M 50 44 L -42.9 24.2 L 3.9 -39.1 Z"/></clipPath></defs><g clip-path="url(#Wb0)"><use href="#LOb" fill="none" stroke="#C2972F" stroke-width="2.6" stroke-linejoin="round"/></g><g clip-path="url(#Wb1)"><use href="#LOb" fill="none" stroke="#17324D" stroke-width="2.6" stroke-linejoin="round"/></g><g clip-path="url(#Wb2)"><use href="#LOb" fill="none" stroke="#2A7F9E" stroke-width="2.6" stroke-linejoin="round"/></g><g clip-path="url(#Wb3)"><use href="#LOb" fill="none" stroke="#7A263A" stroke-width="2.6" stroke-linejoin="round"/></g><g clip-path="url(#Wb4)"><use href="#LOb" fill="none" stroke="#3F6F5E" stroke-width="2.6" stroke-linejoin="round"/></g><g clip-path="url(#Wb5)"><use href="#LOb" fill="none" stroke="#6B7280" stroke-width="2.6" stroke-linejoin="round"/></g></g><text x="250" y="404" font-family="'Radio Canada', 'Helvetica Neue', Arial, sans-serif" font-size="13" fill="#17324D" text-anchor="middle">cells outline / white</text><rect x="335" y="236" width="150" height="150" fill="#17324D"/><g transform="translate(335,236) scale(1.5)"><path d="M 50.0 4.0 Q 50.0 4.0 50.4 5.1 L 51.9 9.2 Q 53.2 13.0 55.0 11.5 L 56.6 10.3 Q 57.5 9.5 57.6 10.7 L 57.9 15.0 Q 58.2 19.0 60.4 17.5 L 62.5 16.2 Q 63.5 15.5 63.3 16.7 L 61.7 26.1 Q 60.5 33.0 64.5 29.6 L 69.1 25.8 Q 70.0 25.0 70.3 26.1 L 70.9 27.9 Q 71.5 30.0 74.2 27.0 L 82.2 17.9 Q 83.0 17.0 83.1 18.2 L 83.6 22.2 Q 84.0 26.0 86.1 25.6 L 87.8 25.2 Q 89.0 25.0 88.4 26.0 L 83.2 34.1 Q 79.5 40.0 83.9 41.3 L 88.8 42.7 Q 90.0 43.0 89.3 44.0 L 86.8 47.6 Q 84.5 51.0 85.1 51.8 L 85.4 52.2 Q 86.0 53.0 84.9 53.3 L 73.7 56.7 Q 66.0 59.0 60.1 59.4 L 54.0 59.9 Q 52.0 60.0 51.7 61.3 L 51.4 62.2 Q 51.2 63.0 51.2 63.8 L 50.8 87.2 Q 50.8 88.0 50.1 88.0 L 49.9 88.0 Q 49.2 88.0 49.2 87.2 L 48.8 63.8 Q 48.8 63.0 48.6 62.2 L 48.3 61.3 Q 48.0 60.0 46.0 59.9 L 39.9 59.4 Q 34.0 59.0 26.3 56.7 L 15.1 53.3 Q 14.0 53.0 14.6 52.2 L 14.9 51.8 Q 15.5 51.0 13.2 47.6 L 10.7 44.0 Q 10.0 43.0 11.2 42.7 L 16.1 41.3 Q 20.5 40.0 16.8 34.1 L 11.6 26.0 Q 11.0 25.0 12.2 25.2 L 13.9 25.6 Q 16.0 26.0 16.4 22.2 L 16.9 18.2 Q 17.0 17.0 17.8 17.9 L 25.8 27.0 Q 28.5 30.0 29.1 27.9 L 29.7 26.1 Q 30.0 25.0 30.9 25.8 L 35.5 29.6 Q 39.5 33.0 38.3 26.1 L 36.7 16.7 Q 36.5 15.5 37.5 16.2 L 39.6 17.5 Q 41.8 19.0 42.1 15.0 L 42.4 10.7 Q 42.5 9.5 43.4 10.3 L 45.0 11.5 Q 46.8 13.0 48.1 9.2 L 49.6 5.1 Q 50.0 4.0 50.0 4.0 Z" fill="none" stroke="#F7F4EE" stroke-width="2.4" stroke-linejoin="round"/></g><text x="410" y="404" font-family="'Radio Canada', 'Helvetica Neue', Arial, sans-serif" font-size="13" fill="#17324D" text-anchor="middle">off-white outline / navy</text><rect x="495" y="236" width="150" height="150" fill="#17324D"/><g transform="translate(495,236) scale(1.5)"><defs><path id="LOc" d="M 50.0 4.0 Q 50.0 4.0 50.4 5.1 L 51.9 9.2 Q 53.2 13.0 55.0 11.5 L 56.6 10.3 Q 57.5 9.5 57.6 10.7 L 57.9 15.0 Q 58.2 19.0 60.4 17.5 L 62.5 16.2 Q 63.5 15.5 63.3 16.7 L 61.7 26.1 Q 60.5 33.0 64.5 29.6 L 69.1 25.8 Q 70.0 25.0 70.3 26.1 L 70.9 27.9 Q 71.5 30.0 74.2 27.0 L 82.2 17.9 Q 83.0 17.0 83.1 18.2 L 83.6 22.2 Q 84.0 26.0 86.1 25.6 L 87.8 25.2 Q 89.0 25.0 88.4 26.0 L 83.2 34.1 Q 79.5 40.0 83.9 41.3 L 88.8 42.7 Q 90.0 43.0 89.3 44.0 L 86.8 47.6 Q 84.5 51.0 85.1 51.8 L 85.4 52.2 Q 86.0 53.0 84.9 53.3 L 73.7 56.7 Q 66.0 59.0 60.1 59.4 L 54.0 59.9 Q 52.0 60.0 51.7 61.3 L 51.4 62.2 Q 51.2 63.0 51.2 63.8 L 50.8 87.2 Q 50.8 88.0 50.1 88.0 L 49.9 88.0 Q 49.2 88.0 49.2 87.2 L 48.8 63.8 Q 48.8 63.0 48.6 62.2 L 48.3 61.3 Q 48.0 60.0 46.0 59.9 L 39.9 59.4 Q 34.0 59.0 26.3 56.7 L 15.1 53.3 Q 14.0 53.0 14.6 52.2 L 14.9 51.8 Q 15.5 51.0 13.2 47.6 L 10.7 44.0 Q 10.0 43.0 11.2 42.7 L 16.1 41.3 Q 20.5 40.0 16.8 34.1 L 11.6 26.0 Q 11.0 25.0 12.2 25.2 L 13.9 25.6 Q 16.0 26.0 16.4 22.2 L 16.9 18.2 Q 17.0 17.0 17.8 17.9 L 25.8 27.0 Q 28.5 30.0 29.1 27.9 L 29.7 26.1 Q 30.0 25.0 30.9 25.8 L 35.5 29.6 Q 39.5 33.0 38.3 26.1 L 36.7 16.7 Q 36.5 15.5 37.5 16.2 L 39.6 17.5 Q 41.8 19.0 42.1 15.0 L 42.4 10.7 Q 42.5 9.5 43.4 10.3 L 45.0 11.5 Q 46.8 13.0 48.1 9.2 L 49.6 5.1 Q 50.0 4.0 50.0 4.0 Z"/><clipPath id="Wc0"><path d="M 50 44 L 3.9 -39.1 L 97.5 -38.3 Z"/></clipPath><clipPath id="Wc1"><path d="M 50 44 L 97.5 -38.3 L 142.9 24.2 Z"/></clipPath><clipPath id="Wc2"><path d="M 50 44 L 142.9 24.2 L 113.6 114.6 Z"/></clipPath><clipPath id="Wc3"><path d="M 50 44 L 113.6 114.6 L -12.3 115.7 Z"/></clipPath><clipPath id="Wc4"><path d="M 50 44 L -12.3 115.7 L -42.9 24.2 Z"/></clipPath><clipPath id="Wc5"><path d="M 50 44 L -42.9 24.2 L 3.9 -39.1 Z"/></clipPath></defs><g clip-path="url(#Wc0)"><use href="#LOc" fill="none" stroke="#C2972F" stroke-width="2.6" stroke-linejoin="round"/></g><g clip-path="url(#Wc1)"><use href="#LOc" fill="none" stroke="#17324D" stroke-width="2.6" stroke-linejoin="round"/></g><g clip-path="url(#Wc2)"><use href="#LOc" fill="none" stroke="#2A7F9E" stroke-width="2.6" stroke-linejoin="round"/></g><g clip-path="url(#Wc3)"><use href="#LOc" fill="none" stroke="#7A263A" stroke-width="2.6" stroke-linejoin="round"/></g><g clip-path="url(#Wc4)"><use href="#LOc" fill="none" stroke="#3F6F5E" stroke-width="2.6" stroke-linejoin="round"/></g><g clip-path="url(#Wc5)"><use href="#LOc" fill="none" stroke="#6B7280" stroke-width="2.6" stroke-linejoin="round"/></g></g><text x="570" y="404" font-family="'Radio Canada', 'Helvetica Neue', Arial, sans-serif" font-size="11" fill="#17324D" text-anchor="middle">cells outline / navy (navy arc vanishes)</text><text x="330" y="438" font-family="'Radio Canada', 'Helvetica Neue', Arial, sans-serif" font-size="13" fill="#17324D" text-anchor="middle">At small sizes (48 / 32 px) — solid small cut for reference, then black outline, then cells outline:</text><g transform="translate(150,452) scale(0.48)"><path d="M 50.0 4.0 Q 50.0 4.0 50.6 5.9 L 56.2 22.4 Q 58.5 29.0 64.4 25.2 L 80.3 15.1 Q 82.0 14.0 81.6 15.9 L 78.1 31.2 Q 76.5 38.0 82.2 39.7 L 88.1 41.4 Q 90.0 42.0 88.4 43.2 L 76.4 52.2 Q 70.0 57.0 62.9 57.8 L 56.0 58.6 Q 53.0 59.0 52.8 60.7 L 52.6 62.0 Q 52.5 63.0 52.5 64.0 L 52.0 84.5 Q 52.0 86.0 50.5 86.0 L 49.5 86.0 Q 48.0 86.0 48.0 84.5 L 47.5 64.0 Q 47.5 63.0 47.4 62.0 L 47.2 60.7 Q 47.0 59.0 44.0 58.6 L 37.1 57.8 Q 30.0 57.0 23.6 52.2 L 11.6 43.2 Q 10.0 42.0 11.9 41.4 L 17.8 39.7 Q 23.5 38.0 21.9 31.2 L 18.4 15.9 Q 18.0 14.0 19.7 15.1 L 35.6 25.2 Q 41.5 29.0 43.8 22.4 L 49.4 5.9 Q 50.0 4.0 50.0 4.0 Z" fill="#7A263A"/></g><g transform="translate(220,452) scale(0.48)"><path d="M 50.0 4.0 Q 50.0 4.0 50.4 5.1 L 51.9 9.2 Q 53.2 13.0 55.0 11.5 L 56.6 10.3 Q 57.5 9.5 57.6 10.7 L 57.9 15.0 Q 58.2 19.0 60.4 17.5 L 62.5 16.2 Q 63.5 15.5 63.3 16.7 L 61.7 26.1 Q 60.5 33.0 64.5 29.6 L 69.1 25.8 Q 70.0 25.0 70.3 26.1 L 70.9 27.9 Q 71.5 30.0 74.2 27.0 L 82.2 17.9 Q 83.0 17.0 83.1 18.2 L 83.6 22.2 Q 84.0 26.0 86.1 25.6 L 87.8 25.2 Q 89.0 25.0 88.4 26.0 L 83.2 34.1 Q 79.5 40.0 83.9 41.3 L 88.8 42.7 Q 90.0 43.0 89.3 44.0 L 86.8 47.6 Q 84.5 51.0 85.1 51.8 L 85.4 52.2 Q 86.0 53.0 84.9 53.3 L 73.7 56.7 Q 66.0 59.0 60.1 59.4 L 54.0 59.9 Q 52.0 60.0 51.7 61.3 L 51.4 62.2 Q 51.2 63.0 51.2 63.8 L 50.8 87.2 Q 50.8 88.0 50.1 88.0 L 49.9 88.0 Q 49.2 88.0 49.2 87.2 L 48.8 63.8 Q 48.8 63.0 48.6 62.2 L 48.3 61.3 Q 48.0 60.0 46.0 59.9 L 39.9 59.4 Q 34.0 59.0 26.3 56.7 L 15.1 53.3 Q 14.0 53.0 14.6 52.2 L 14.9 51.8 Q 15.5 51.0 13.2 47.6 L 10.7 44.0 Q 10.0 43.0 11.2 42.7 L 16.1 41.3 Q 20.5 40.0 16.8 34.1 L 11.6 26.0 Q 11.0 25.0 12.2 25.2 L 13.9 25.6 Q 16.0 26.0 16.4 22.2 L 16.9 18.2 Q 17.0 17.0 17.8 17.9 L 25.8 27.0 Q 28.5 30.0 29.1 27.9 L 29.7 26.1 Q 30.0 25.0 30.9 25.8 L 35.5 29.6 Q 39.5 33.0 38.3 26.1 L 36.7 16.7 Q 36.5 15.5 37.5 16.2 L 39.6 17.5 Q 41.8 19.0 42.1 15.0 L 42.4 10.7 Q 42.5 9.5 43.4 10.3 L 45.0 11.5 Q 46.8 13.0 48.1 9.2 L 49.6 5.1 Q 50.0 4.0 50.0 4.0 Z" fill="none" stroke="#1A1A1A" stroke-width="2.4" stroke-linejoin="round"/></g><g transform="translate(290,452) scale(0.48)"><defs><path id="LOd" d="M 50.0 4.0 Q 50.0 4.0 50.4 5.1 L 51.9 9.2 Q 53.2 13.0 55.0 11.5 L 56.6 10.3 Q 57.5 9.5 57.6 10.7 L 57.9 15.0 Q 58.2 19.0 60.4 17.5 L 62.5 16.2 Q 63.5 15.5 63.3 16.7 L 61.7 26.1 Q 60.5 33.0 64.5 29.6 L 69.1 25.8 Q 70.0 25.0 70.3 26.1 L 70.9 27.9 Q 71.5 30.0 74.2 27.0 L 82.2 17.9 Q 83.0 17.0 83.1 18.2 L 83.6 22.2 Q 84.0 26.0 86.1 25.6 L 87.8 25.2 Q 89.0 25.0 88.4 26.0 L 83.2 34.1 Q 79.5 40.0 83.9 41.3 L 88.8 42.7 Q 90.0 43.0 89.3 44.0 L 86.8 47.6 Q 84.5 51.0 85.1 51.8 L 85.4 52.2 Q 86.0 53.0 84.9 53.3 L 73.7 56.7 Q 66.0 59.0 60.1 59.4 L 54.0 59.9 Q 52.0 60.0 51.7 61.3 L 51.4 62.2 Q 51.2 63.0 51.2 63.8 L 50.8 87.2 Q 50.8 88.0 50.1 88.0 L 49.9 88.0 Q 49.2 88.0 49.2 87.2 L 48.8 63.8 Q 48.8 63.0 48.6 62.2 L 48.3 61.3 Q 48.0 60.0 46.0 59.9 L 39.9 59.4 Q 34.0 59.0 26.3 56.7 L 15.1 53.3 Q 14.0 53.0 14.6 52.2 L 14.9 51.8 Q 15.5 51.0 13.2 47.6 L 10.7 44.0 Q 10.0 43.0 11.2 42.7 L 16.1 41.3 Q 20.5 40.0 16.8 34.1 L 11.6 26.0 Q 11.0 25.0 12.2 25.2 L 13.9 25.6 Q 16.0 26.0 16.4 22.2 L 16.9 18.2 Q 17.0 17.0 17.8 17.9 L 25.8 27.0 Q 28.5 30.0 29.1 27.9 L 29.7 26.1 Q 30.0 25.0 30.9 25.8 L 35.5 29.6 Q 39.5 33.0 38.3 26.1 L 36.7 16.7 Q 36.5 15.5 37.5 16.2 L 39.6 17.5 Q 41.8 19.0 42.1 15.0 L 42.4 10.7 Q 42.5 9.5 43.4 10.3 L 45.0 11.5 Q 46.8 13.0 48.1 9.2 L 49.6 5.1 Q 50.0 4.0 50.0 4.0 Z"/><clipPath id="Wd0"><path d="M 50 44 L 3.9 -39.1 L 97.5 -38.3 Z"/></clipPath><clipPath id="Wd1"><path d="M 50 44 L 97.5 -38.3 L 142.9 24.2 Z"/></clipPath><clipPath id="Wd2"><path d="M 50 44 L 142.9 24.2 L 113.6 114.6 Z"/></clipPath><clipPath id="Wd3"><path d="M 50 44 L 113.6 114.6 L -12.3 115.7 Z"/></clipPath><clipPath id="Wd4"><path d="M 50 44 L -12.3 115.7 L -42.9 24.2 Z"/></clipPath><clipPath id="Wd5"><path d="M 50 44 L -42.9 24.2 L 3.9 -39.1 Z"/></clipPath></defs><g clip-path="url(#Wd0)"><use href="#LOd" fill="none" stroke="#C2972F" stroke-width="2.6" stroke-linejoin="round"/></g><g clip-path="url(#Wd1)"><use href="#LOd" fill="none" stroke="#17324D" stroke-width="2.6" stroke-linejoin="round"/></g><g clip-path="url(#Wd2)"><use href="#LOd" fill="none" stroke="#2A7F9E" stroke-width="2.6" stroke-linejoin="round"/></g><g clip-path="url(#Wd3)"><use href="#LOd" fill="none" stroke="#7A263A" stroke-width="2.6" stroke-linejoin="round"/></g><g clip-path="url(#Wd4)"><use href="#LOd" fill="none" stroke="#3F6F5E" stroke-width="2.6" stroke-linejoin="round"/></g><g clip-path="url(#Wd5)"><use href="#LOd" fill="none" stroke="#6B7280" stroke-width="2.6" stroke-linejoin="round"/></g></g><g transform="translate(390,460) scale(0.32)"><path d="M 50.0 4.0 Q 50.0 4.0 50.6 5.9 L 56.2 22.4 Q 58.5 29.0 64.4 25.2 L 80.3 15.1 Q 82.0 14.0 81.6 15.9 L 78.1 31.2 Q 76.5 38.0 82.2 39.7 L 88.1 41.4 Q 90.0 42.0 88.4 43.2 L 76.4 52.2 Q 70.0 57.0 62.9 57.8 L 56.0 58.6 Q 53.0 59.0 52.8 60.7 L 52.6 62.0 Q 52.5 63.0 52.5 64.0 L 52.0 84.5 Q 52.0 86.0 50.5 86.0 L 49.5 86.0 Q 48.0 86.0 48.0 84.5 L 47.5 64.0 Q 47.5 63.0 47.4 62.0 L 47.2 60.7 Q 47.0 59.0 44.0 58.6 L 37.1 57.8 Q 30.0 57.0 23.6 52.2 L 11.6 43.2 Q 10.0 42.0 11.9 41.4 L 17.8 39.7 Q 23.5 38.0 21.9 31.2 L 18.4 15.9 Q 18.0 14.0 19.7 15.1 L 35.6 25.2 Q 41.5 29.0 43.8 22.4 L 49.4 5.9 Q 50.0 4.0 50.0 4.0 Z" fill="#7A263A"/></g><g transform="translate(440,460) scale(0.32)"><path d="M 50.0 4.0 Q 50.0 4.0 50.4 5.1 L 51.9 9.2 Q 53.2 13.0 55.0 11.5 L 56.6 10.3 Q 57.5 9.5 57.6 10.7 L 57.9 15.0 Q 58.2 19.0 60.4 17.5 L 62.5 16.2 Q 63.5 15.5 63.3 16.7 L 61.7 26.1 Q 60.5 33.0 64.5 29.6 L 69.1 25.8 Q 70.0 25.0 70.3 26.1 L 70.9 27.9 Q 71.5 30.0 74.2 27.0 L 82.2 17.9 Q 83.0 17.0 83.1 18.2 L 83.6 22.2 Q 84.0 26.0 86.1 25.6 L 87.8 25.2 Q 89.0 25.0 88.4 26.0 L 83.2 34.1 Q 79.5 40.0 83.9 41.3 L 88.8 42.7 Q 90.0 43.0 89.3 44.0 L 86.8 47.6 Q 84.5 51.0 85.1 51.8 L 85.4 52.2 Q 86.0 53.0 84.9 53.3 L 73.7 56.7 Q 66.0 59.0 60.1 59.4 L 54.0 59.9 Q 52.0 60.0 51.7 61.3 L 51.4 62.2 Q 51.2 63.0 51.2 63.8 L 50.8 87.2 Q 50.8 88.0 50.1 88.0 L 49.9 88.0 Q 49.2 88.0 49.2 87.2 L 48.8 63.8 Q 48.8 63.0 48.6 62.2 L 48.3 61.3 Q 48.0 60.0 46.0 59.9 L 39.9 59.4 Q 34.0 59.0 26.3 56.7 L 15.1 53.3 Q 14.0 53.0 14.6 52.2 L 14.9 51.8 Q 15.5 51.0 13.2 47.6 L 10.7 44.0 Q 10.0 43.0 11.2 42.7 L 16.1 41.3 Q 20.5 40.0 16.8 34.1 L 11.6 26.0 Q 11.0 25.0 12.2 25.2 L 13.9 25.6 Q 16.0 26.0 16.4 22.2 L 16.9 18.2 Q 17.0 17.0 17.8 17.9 L 25.8 27.0 Q 28.5 30.0 29.1 27.9 L 29.7 26.1 Q 30.0 25.0 30.9 25.8 L 35.5 29.6 Q 39.5 33.0 38.3 26.1 L 36.7 16.7 Q 36.5 15.5 37.5 16.2 L 39.6 17.5 Q 41.8 19.0 42.1 15.0 L 42.4 10.7 Q 42.5 9.5 43.4 10.3 L 45.0 11.5 Q 46.8 13.0 48.1 9.2 L 49.6 5.1 Q 50.0 4.0 50.0 4.0 Z" fill="none" stroke="#1A1A1A" stroke-width="2.4" stroke-linejoin="round"/></g><g transform="translate(490,460) scale(0.32)"><defs><path id="LOe" d="M 50.0 4.0 Q 50.0 4.0 50.4 5.1 L 51.9 9.2 Q 53.2 13.0 55.0 11.5 L 56.6 10.3 Q 57.5 9.5 57.6 10.7 L 57.9 15.0 Q 58.2 19.0 60.4 17.5 L 62.5 16.2 Q 63.5 15.5 63.3 16.7 L 61.7 26.1 Q 60.5 33.0 64.5 29.6 L 69.1 25.8 Q 70.0 25.0 70.3 26.1 L 70.9 27.9 Q 71.5 30.0 74.2 27.0 L 82.2 17.9 Q 83.0 17.0 83.1 18.2 L 83.6 22.2 Q 84.0 26.0 86.1 25.6 L 87.8 25.2 Q 89.0 25.0 88.4 26.0 L 83.2 34.1 Q 79.5 40.0 83.9 41.3 L 88.8 42.7 Q 90.0 43.0 89.3 44.0 L 86.8 47.6 Q 84.5 51.0 85.1 51.8 L 85.4 52.2 Q 86.0 53.0 84.9 53.3 L 73.7 56.7 Q 66.0 59.0 60.1 59.4 L 54.0 59.9 Q 52.0 60.0 51.7 61.3 L 51.4 62.2 Q 51.2 63.0 51.2 63.8 L 50.8 87.2 Q 50.8 88.0 50.1 88.0 L 49.9 88.0 Q 49.2 88.0 49.2 87.2 L 48.8 63.8 Q 48.8 63.0 48.6 62.2 L 48.3 61.3 Q 48.0 60.0 46.0 59.9 L 39.9 59.4 Q 34.0 59.0 26.3 56.7 L 15.1 53.3 Q 14.0 53.0 14.6 52.2 L 14.9 51.8 Q 15.5 51.0 13.2 47.6 L 10.7 44.0 Q 10.0 43.0 11.2 42.7 L 16.1 41.3 Q 20.5 40.0 16.8 34.1 L 11.6 26.0 Q 11.0 25.0 12.2 25.2 L 13.9 25.6 Q 16.0 26.0 16.4 22.2 L 16.9 18.2 Q 17.0 17.0 17.8 17.9 L 25.8 27.0 Q 28.5 30.0 29.1 27.9 L 29.7 26.1 Q 30.0 25.0 30.9 25.8 L 35.5 29.6 Q 39.5 33.0 38.3 26.1 L 36.7 16.7 Q 36.5 15.5 37.5 16.2 L 39.6 17.5 Q 41.8 19.0 42.1 15.0 L 42.4 10.7 Q 42.5 9.5 43.4 10.3 L 45.0 11.5 Q 46.8 13.0 48.1 9.2 L 49.6 5.1 Q 50.0 4.0 50.0 4.0 Z"/><clipPath id="We0"><path d="M 50 44 L 3.9 -39.1 L 97.5 -38.3 Z"/></clipPath><clipPath id="We1"><path d="M 50 44 L 97.5 -38.3 L 142.9 24.2 Z"/></clipPath><clipPath id="We2"><path d="M 50 44 L 142.9 24.2 L 113.6 114.6 Z"/></clipPath><clipPath id="We3"><path d="M 50 44 L 113.6 114.6 L -12.3 115.7 Z"/></clipPath><clipPath id="We4"><path d="M 50 44 L -12.3 115.7 L -42.9 24.2 Z"/></clipPath><clipPath id="We5"><path d="M 50 44 L -42.9 24.2 L 3.9 -39.1 Z"/></clipPath></defs><g clip-path="url(#We0)"><use href="#LOe" fill="none" stroke="#C2972F" stroke-width="2.6" stroke-linejoin="round"/></g><g clip-path="url(#We1)"><use href="#LOe" fill="none" stroke="#17324D" stroke-width="2.6" stroke-linejoin="round"/></g><g clip-path="url(#We2)"><use href="#LOe" fill="none" stroke="#2A7F9E" stroke-width="2.6" stroke-linejoin="round"/></g><g clip-path="url(#We3)"><use href="#LOe" fill="none" stroke="#7A263A" stroke-width="2.6" stroke-linejoin="round"/></g><g clip-path="url(#We4)"><use href="#LOe" fill="none" stroke="#3F6F5E" stroke-width="2.6" stroke-linejoin="round"/></g><g clip-path="url(#We5)"><use href="#LOe" fill="none" stroke="#6B7280" stroke-width="2.6" stroke-linejoin="round"/></g></g><text x="330" y="530" font-family="'Radio Canada', 'Helvetica Neue', Arial, sans-serif" font-size="12" fill="#6B7280" text-anchor="middle">48 px:  solid | outline | cells-outline        32 px:  solid | outline | cells-outline</text><text x="330" y="575" font-family="'Radio Canada', 'Helvetica Neue', Arial, sans-serif" font-size="12" fill="#6B7280" text-anchor="middle">Outline weight is in 100-unit leaf space: stroke 2.4 at 48 px renders ≈ 1.2 px; at 32 px ≈ 0.8 px.</text></svg>