<svg xmlns="http://www.w3.org/2000/svg" viewBox="0 0 100 100"><path d="M 49.1 8.2 Q 50 6 50.9 8.2 L 57.1 24.8 Q 58 27 60.0 25.7 L 74.0 17.3 Q 76 16 75.7 18.4 L 73.3 34.6 Q 73 37 75.4 36.8 L 91.6 35.2 Q 94 35 92.3 36.7 L 78.7 50.3 Q 77 52 78.1 54.1 L 82.9 63.9 Q 84 66 81.7 65.3 L 62.3 59.7 Q 60 59 60.3 61.4 L 61.7 72.6 Q 62 75 59.7 74.3 L 54.8 72.7 Q 52.5 72 52.4 74.4 L 52.1 92.6 Q 52 95 50.6 95.0 L 49.4 95.0 Q 48 95 47.9 92.6 L 47.6 74.4 Q 47.5 72 45.2 72.7 L 40.3 74.3 Q 38 75 38.3 72.6 L 39.7 61.4 Q 40 59 37.7 59.7 L 18.3 65.3 Q 16 66 17.1 63.9 L 21.9 54.1 Q 23 52 21.3 50.3 L 7.7 36.7 Q 6 35 8.4 35.2 L 24.6 36.8 Q 27 37 26.7 34.6 L 24.3 18.4 Q 24 16 26.0 17.3 L 40.0 25.7 Q 42 27 42.9 24.8 Z" fill="#7A263A"/></svg>